<svg id="Layer_1" data-name="Layer 1" xmlns="http://www.w3.org/2000/svg" viewBox="0 0 123 123"><defs><style>.cls-1{fill:#e8d8c4;}.cls-2,.cls-3{fill:none;stroke:#5e3f1c;stroke-linecap:round;stroke-miterlimit:10;}.cls-2{stroke-width:2px;}.cls-4{font-size:20.36px;fill:#5e3f1c;font-family:Pattaya-Regular, Pattaya;}</style></defs><circle class="cls-1" cx="61.5" cy="61.5" r="61.5"/><path class="cls-2" d="M120.2,43.3,87.12,53.76s-7,13.39,6.41,20.32l33.14-10.42" transform="translate(-64.5 -10.5)"/><line class="cls-3" x1="55.19" y1="37.47" x2="25.13" y2="46.91"/><line class="cls-3" x1="54.37" y1="40.9" x2="26.05" y2="49.83"/><line class="cls-3" x1="54.83" y1="44.29" x2="27.03" y2="53.01"/><line class="cls-3" x1="56.32" y1="47.11" x2="28" y2="55.98"/><line class="cls-3" x1="59.04" y1="49.68" x2="28.98" y2="59.11"/><path class="cls-2" d="M164.47,56.89,135.28,38.07S120.56,41.25,123.74,56l29.19,18.82" transform="translate(-64.5 -10.5)"/><line class="cls-3" x1="96.07" y1="48.91" x2="69.6" y2="31.82"/><line class="cls-3" x1="92.89" y1="50.55" x2="67.91" y2="34.44"/><line class="cls-3" x1="90.58" y1="53.01" x2="66.12" y2="37.21"/><line class="cls-3" x1="89.35" y1="55.98" x2="64.42" y2="39.88"/><line class="cls-3" x1="89.1" y1="59.68" x2="62.63" y2="42.6"/><text class="cls-4" transform="translate(17.11 87.29)">Book Nook</text></svg>