<svg id="Layer_1" data-name="Layer 1" xmlns="http://www.w3.org/2000/svg" viewBox="0 0 252 144"><defs><style>.cls-1{fill:#e8d8c4;}.cls-2,.cls-3{fill:none;stroke:#5e3f1c;stroke-linecap:round;stroke-miterlimit:10;}.cls-2{stroke-width:2px;}.cls-4{isolation:isolate;}.cls-5{fill:#5e3f1c;}</style></defs><rect class="cls-1" width="252" height="144"/><path class="cls-2" d="M121.22,47.92,87.46,58.59S80.31,72.26,94,79.34L127.83,68.7" transform="translate(0)"/><line class="cls-3" x1="120.7" y1="52.68" x2="90.02" y2="62.32"/><line class="cls-3" x1="119.86" y1="56.19" x2="90.96" y2="65.3"/><line class="cls-3" x1="120.33" y1="59.65" x2="91.96" y2="68.55"/><line class="cls-3" x1="121.85" y1="62.52" x2="92.95" y2="71.58"/><line class="cls-3" x1="124.63" y1="65.15" x2="93.95" y2="74.77"/><path class="cls-2" d="M166.41,61.79l-29.8-19.21s-15,3.24-11.78,18.3l29.8,19.21" transform="translate(0)"/><line class="cls-3" x1="162.43" y1="64.36" x2="135.41" y2="46.92"/><line class="cls-3" x1="159.18" y1="66.04" x2="133.68" y2="49.59"/><line class="cls-3" x1="156.82" y1="68.55" x2="131.86" y2="52.42"/><line class="cls-3" x1="155.57" y1="71.58" x2="130.12" y2="55.14"/><line class="cls-3" x1="155.31" y1="75.35" x2="128.3" y2="57.92"/><g class="cls-4"><path class="cls-5" d="M86.68,100.3a1.36,1.36,0,0,1-.7-1.25,3.17,3.17,0,0,1,.27-1.21,2.62,2.62,0,0,0,.71.58,1.38,1.38,0,0,0,.69.17c.69,0,1.22-.42,1.59-1.28a4.73,4.73,0,0,0,.35-1.17,8.1,8.1,0,0,0,.11-1.28A3.52,3.52,0,0,0,89.28,93a1.71,1.71,0,0,0-1.55-.78,5.19,5.19,0,0,0-1,.07l-1.71,8h-3L84.9,87l3.07-.4-1,4.6h.12a2.37,2.37,0,0,0,1.15-.29,3.31,3.31,0,0,0,1-.8,4.2,4.2,0,0,0,.65-1.1,3.33,3.33,0,0,0,.23-1.17A2.41,2.41,0,0,0,90,87a2.25,2.25,0,0,0-.47-.71,3,3,0,0,0-2.12-.69,5.6,5.6,0,0,0-2.42.55,4.64,4.64,0,0,0-2,1.68,5,5,0,0,0-.81,2.83,2.8,2.8,0,0,0,.15,1,1.33,1.33,0,0,0,.1.24.23.23,0,0,1,0,.14,2.67,2.67,0,0,1-1.66-.44,1.79,1.79,0,0,1-.56-1.47,4.13,4.13,0,0,1,1.09-2.71,6.51,6.51,0,0,1,1.21-1.12,8.69,8.69,0,0,1,1.55-.89,8.9,8.9,0,0,1,3.69-.79,5.12,5.12,0,0,1,3.36,1,3.06,3.06,0,0,1,.8,1A3,3,0,0,1,92.21,88a3.37,3.37,0,0,1-.52,1.82,4.26,4.26,0,0,1-1.56,1.48,2.71,2.71,0,0,1,1.9,1.2,3.89,3.89,0,0,1,.56,2.14,7.11,7.11,0,0,1-.1,1.17A8.11,8.11,0,0,1,92.18,97a5.76,5.76,0,0,1-1.41,2.45,3.77,3.77,0,0,1-2.73,1.1A2.77,2.77,0,0,1,86.68,100.3Z" transform="translate(0)"/><path class="cls-5" d="M94,99.57A3.2,3.2,0,0,1,93,97a8.32,8.32,0,0,1,.13-1.42,10.22,10.22,0,0,1,.4-1.56,7.31,7.31,0,0,1,1.8-3,4.64,4.64,0,0,1,3.36-1.38c1.78,0,2.67,1.11,2.67,3.32v0l.1,0h.12a4.6,4.6,0,0,0,1.64-.38,8.34,8.34,0,0,0,1.57-.87l.18.57a5.15,5.15,0,0,1-1.57,1.09,8.12,8.12,0,0,1-2.11.64,10.08,10.08,0,0,1-.55,2.57,6.79,6.79,0,0,1-1.1,2,4.7,4.7,0,0,1-1.51,1.25,3.92,3.92,0,0,1-1.8.44A3.48,3.48,0,0,1,94,99.57Zm4-1.45a3.35,3.35,0,0,0,.72-.92,7.44,7.44,0,0,0,.58-1.38,10.73,10.73,0,0,0,.36-1.69.71.71,0,0,1-.43-.31,1.17,1.17,0,0,1-.13-.57,1.31,1.31,0,0,1,.18-.71,1,1,0,0,1,.47-.41,2.05,2.05,0,0,0-.21-.95.55.55,0,0,0-.23-.2.88.88,0,0,0-.35-.06c-.46,0-.92.35-1.37,1.06a8.52,8.52,0,0,0-1,2.35,9,9,0,0,0-.39,2.44,4.84,4.84,0,0,0,.06.84,1.18,1.18,0,0,0,.19.51.63.63,0,0,0,.31.25,1.43,1.43,0,0,0,.51.08A1.14,1.14,0,0,0,97.93,98.12Z" transform="translate(0)"/><path class="cls-5" d="M103.09,99.57a3.2,3.2,0,0,1-.94-2.53,8.32,8.32,0,0,1,.13-1.42,9.22,9.22,0,0,1,.41-1.56,7.4,7.4,0,0,1,1.79-3,4.64,4.64,0,0,1,3.36-1.38c1.78,0,2.67,1.11,2.67,3.32v0l.1,0h.12a4.6,4.6,0,0,0,1.64-.38,8,8,0,0,0,1.57-.87l.18.57a5.1,5.1,0,0,1-1.56,1.09,8.19,8.19,0,0,1-2.12.64,9.68,9.68,0,0,1-.55,2.57,7,7,0,0,1-1.09,2,4.73,4.73,0,0,1-1.52,1.25,3.89,3.89,0,0,1-1.8.44A3.48,3.48,0,0,1,103.09,99.57Zm4-1.45a3.53,3.53,0,0,0,.71-.92,6.82,6.82,0,0,0,.58-1.38,10.73,10.73,0,0,0,.36-1.69.71.71,0,0,1-.43-.31,1.18,1.18,0,0,1-.12-.57,1.31,1.31,0,0,1,.17-.71,1,1,0,0,1,.48-.41,2.16,2.16,0,0,0-.22-.95.5.5,0,0,0-.23-.2.85.85,0,0,0-.35-.06c-.46,0-.92.35-1.37,1.06a8.52,8.52,0,0,0-1,2.35,9,9,0,0,0-.39,2.44,4.84,4.84,0,0,0,.06.84,1.33,1.33,0,0,0,.19.51.63.63,0,0,0,.31.25,1.43,1.43,0,0,0,.51.08A1.18,1.18,0,0,0,107.06,98.12Z" transform="translate(0)"/><path class="cls-5" d="M117.43,99.75a2.25,2.25,0,0,1-.67-1.76,5.4,5.4,0,0,1,.12-1.08l.18-.81a3.37,3.37,0,0,0,.08-.77,1.28,1.28,0,0,0-.18-.74.63.63,0,0,0-.57-.26,1.45,1.45,0,0,0-.7.19,4.74,4.74,0,0,0-.84.58l-1.08,5.14h-3l3-14.14,3.07-.42L115.31,93l4-3.15h2.06l-4.16,2.89a2.72,2.72,0,0,1,.69-.09,2.59,2.59,0,0,1,1,.18,2,2,0,0,1,.72.54,2.16,2.16,0,0,1,.42.76,3.26,3.26,0,0,1,.14,1,3.43,3.43,0,0,1-.08.79l-.23,1a2.18,2.18,0,0,0-.1.67.84.84,0,0,0,.18.56.8.8,0,0,0,.63.21,1.3,1.3,0,0,0,1-.51,5,5,0,0,0,.7-1.33h.88a6.48,6.48,0,0,1-2,3.23,3,3,0,0,1-1.83.62A2.76,2.76,0,0,1,117.43,99.75Z" transform="translate(0)"/><path class="cls-5" d="M131.88,86a4.27,4.27,0,0,0-2.16,1.57,4.49,4.49,0,0,0-.72,2.59,4.63,4.63,0,0,0,.15,1.22,2.35,2.35,0,0,0,.41.9,3,3,0,0,1-2-.54A2.13,2.13,0,0,1,127,90a4.8,4.8,0,0,1,.87-2.73,6.14,6.14,0,0,1,2.26-2,6.93,6.93,0,0,1,3.18-.75,5.17,5.17,0,0,1,.84.06,7.2,7.2,0,0,1,.81.22L137.42,96l2.33-11.28h2l-3.38,15.55H135.5l-2.4-10.31-2.38,10.31h-2Z" transform="translate(0)"/><path class="cls-5" d="M141.37,99.57a3.2,3.2,0,0,1-.94-2.53,8.32,8.32,0,0,1,.13-1.42,10.22,10.22,0,0,1,.4-1.56,7.31,7.31,0,0,1,1.8-3,4.64,4.64,0,0,1,3.36-1.38c1.78,0,2.67,1.11,2.67,3.32v0l.1,0H149a4.55,4.55,0,0,0,1.63-.38,8.11,8.11,0,0,0,1.58-.87l.18.57a5.15,5.15,0,0,1-1.57,1.09,8.12,8.12,0,0,1-2.11.64,10.53,10.53,0,0,1-.55,2.57,7,7,0,0,1-1.1,2,4.7,4.7,0,0,1-1.51,1.25,3.93,3.93,0,0,1-1.81.44A3.47,3.47,0,0,1,141.37,99.57Zm4-1.45a3.55,3.55,0,0,0,.72-.92,7.44,7.44,0,0,0,.58-1.38,10.73,10.73,0,0,0,.36-1.69.68.68,0,0,1-.43-.31,1.07,1.07,0,0,1-.13-.57,1.31,1.31,0,0,1,.18-.71,1,1,0,0,1,.47-.41,2.34,2.34,0,0,0-.21-.95.55.55,0,0,0-.23-.2.88.88,0,0,0-.35-.06c-.47,0-.92.35-1.37,1.06a8.52,8.52,0,0,0-1,2.35,9,9,0,0,0-.39,2.44,4.84,4.84,0,0,0,.06.84,1.33,1.33,0,0,0,.18.51.66.66,0,0,0,.32.25,1.43,1.43,0,0,0,.51.08A1.14,1.14,0,0,0,145.33,98.12Z" transform="translate(0)"/><path class="cls-5" d="M150.49,99.57a3.2,3.2,0,0,1-.94-2.53,8.32,8.32,0,0,1,.13-1.42,9.22,9.22,0,0,1,.41-1.56,7.3,7.3,0,0,1,1.79-3,4.64,4.64,0,0,1,3.36-1.38c1.78,0,2.67,1.11,2.67,3.32v0l.1,0h.12a4.6,4.6,0,0,0,1.64-.38,8.34,8.34,0,0,0,1.57-.87l.18.57A5,5,0,0,1,160,93.43a8.12,8.12,0,0,1-2.11.64,10.08,10.08,0,0,1-.55,2.57,6.79,6.79,0,0,1-1.1,2,4.7,4.7,0,0,1-1.51,1.25,3.92,3.92,0,0,1-1.8.44A3.48,3.48,0,0,1,150.49,99.57Zm4-1.45a3.35,3.35,0,0,0,.72-.92,6.82,6.82,0,0,0,.58-1.38,10.73,10.73,0,0,0,.36-1.69.71.71,0,0,1-.43-.31,1.17,1.17,0,0,1-.13-.57,1.31,1.31,0,0,1,.18-.71,1,1,0,0,1,.47-.41,2.05,2.05,0,0,0-.21-.95.55.55,0,0,0-.23-.2.88.88,0,0,0-.35-.06c-.46,0-.92.35-1.37,1.06a8.52,8.52,0,0,0-1,2.35,9,9,0,0,0-.39,2.44,4.84,4.84,0,0,0,.06.84,1.33,1.33,0,0,0,.19.51.63.63,0,0,0,.31.25,1.43,1.43,0,0,0,.51.08A1.14,1.14,0,0,0,154.45,98.12Z" transform="translate(0)"/><path class="cls-5" d="M164.82,99.75a2.28,2.28,0,0,1-.66-1.76,5.4,5.4,0,0,1,.12-1.08l.17-.81a2.86,2.86,0,0,0,.09-.77,1.28,1.28,0,0,0-.18-.74.65.65,0,0,0-.58-.26,1.51,1.51,0,0,0-.7.19,5.11,5.11,0,0,0-.83.58l-1.08,5.14h-3l3-14.14,3.07-.42L162.71,93l4-3.15h2.06l-4.16,2.89a2.72,2.72,0,0,1,.69-.09,2.62,2.62,0,0,1,1,.18,2,2,0,0,1,.72.54,2.33,2.33,0,0,1,.42.76,3.26,3.26,0,0,1,.14,1,3.43,3.43,0,0,1-.08.79l-.24,1a2.53,2.53,0,0,0-.1.67.71.71,0,0,0,.82.77,1.3,1.3,0,0,0,1-.51,5,5,0,0,0,.7-1.33h.87a6.35,6.35,0,0,1-2,3.23,3,3,0,0,1-1.82.62A2.81,2.81,0,0,1,164.82,99.75Z" transform="translate(0)"/></g><rect class="cls-5" y="6" width="252" height="4"/></svg>