<svg id="Layer_1" data-name="Layer 1" xmlns="http://www.w3.org/2000/svg" viewBox="0 0 252 144"><defs><style>.cls-1{fill:#e8d8c4;}.cls-2,.cls-3{fill:none;stroke:#5e3f1c;stroke-linecap:round;stroke-miterlimit:10;}.cls-2{stroke-width:2px;}.cls-4{isolation:isolate;font-size:20.78px;font-family:Pattaya-Regular, Pattaya;}.cls-4,.cls-5{fill:#5e3f1c;}</style></defs><rect class="cls-1" width="252" height="144"/><path class="cls-2" d="M121.22,47.92,87.46,58.59S80.31,72.26,94,79.34L127.83,68.7" transform="translate(0)"/><line class="cls-3" x1="120.7" y1="52.68" x2="90.02" y2="62.32"/><line class="cls-3" x1="119.86" y1="56.19" x2="90.96" y2="65.3"/><line class="cls-3" x1="120.33" y1="59.65" x2="91.96" y2="68.55"/><line class="cls-3" x1="121.85" y1="62.52" x2="92.95" y2="71.58"/><line class="cls-3" x1="124.63" y1="65.15" x2="93.95" y2="74.77"/><path class="cls-2" d="M166.41,61.79l-29.8-19.21s-15,3.24-11.78,18.3l29.8,19.21" transform="translate(0)"/><line class="cls-3" x1="162.43" y1="64.36" x2="135.41" y2="46.92"/><line class="cls-3" x1="159.18" y1="66.04" x2="133.68" y2="49.59"/><line class="cls-3" x1="156.82" y1="68.55" x2="131.86" y2="52.42"/><line class="cls-3" x1="155.57" y1="71.58" x2="130.12" y2="55.14"/><line class="cls-3" x1="155.31" y1="75.35" x2="128.3" y2="57.92"/><text class="cls-4" transform="translate(80.7 102.54)">Book Nook</text><rect class="cls-5" y="6" width="252" height="4"/></svg>