<svg id="Layer_1" data-name="Layer 1" xmlns="http://www.w3.org/2000/svg" viewBox="0 0 123 123"><defs><style>.cls-1{fill:#2bd826;}.cls-2{fill:#fdd9ae;stroke-miterlimit:4;}.cls-2,.cls-3,.cls-4{stroke:#f5b54f;}.cls-2,.cls-3,.cls-4,.cls-5,.cls-6,.cls-7{stroke-width:0.25px;}.cls-3,.cls-4{fill:none;}.cls-5,.cls-6,.cls-7{fill:#fde2ae;stroke:#f8c676;}.cls-7{stroke-miterlimit:3.98;}.cls-11,.cls-12,.cls-13,.cls-14,.cls-8,.cls-9{isolation:isolate;}.cls-9{font-size:13px;}.cls-11,.cls-12,.cls-13,.cls-14,.cls-9{fill:#fff;font-family:Gotham-Bold, Gotham;font-weight:700;}.cls-10{letter-spacing:-0.06em;}.cls-11{font-size:14.4px;}.cls-12{font-size:14.4px;}.cls-13{font-size:14.46px;}.cls-14{font-size:14.33px;}</style></defs><circle cx="61.5" cy="61.5" r="61.5"/><g id="Group_1" data-name="Group 1"><path id="Path_1-2" data-name="Path 1-2" class="cls-1" d="M109.94,59.23l-1.1-11.14-4.43-7.49,8,8.76,5.7,7.13,2.68-8.41v-5l2.92,7,2.14,3.84,4.6-7,6.92-13.28-6,17,2,5,8.58-3.47,4.43-4.08,5.52-5L140.07,61.64l11.76.77,13.58-3.18-13.58,6-10,6.07,6.66,4.92,13,4.93H144.23l7.6,14.71,6.19,8.57L146.3,92.73l-9-6.38-6,12.18,2,23.81-9.61-29.61-8.79,20.4L118.09,97,114.9,84.62l-9.4,4.52L91.85,100.67l5-6.34,7.57-16.86L86.59,69.63l10.25,1.69,7.57-1.69L89.11,49.36l9.52,7.13Z" transform="translate(-64.52 -10.13)"/><g id="Component_2_1" data-name="Component 2 1"><g id="Component_1_1" data-name="Component 1 1"><path id="Path_2-2" data-name="Path 2-2" class="cls-2" d="M107.15,69.55c1.19-2.24.43-4.33,4.07-6.1,1.49-.72,2.7-1.81,5.33-2.06a10.69,10.69,0,0,1,5.19,1.1,9.24,9.24,0,0,1,2.75-1.11c1.35-.23,1.77.23,2.63.18a11.56,11.56,0,0,1,2.42-.18c1.06.09,1.17.43,1.85.57,3.48.73,3.06,1.8,4.26,3.44.68.92,1.38-.35,2.29,2.41a26.09,26.09,0,0,1,1.57,5,5.71,5.71,0,0,1-.25,3.66c-.47,1.68-.08,2.21-1.95,3.94a11.28,11.28,0,0,1-5.52,3,9.84,9.84,0,0,1-5,.13,20.08,20.08,0,0,1-5-1.54s-4.3-.07-5.71-.73c-3.71-1.75-2.88-3.62-2.88-3.62s-.65-.06-1.93-.07c-1.9.29-1.74.11-3.2-.62s-1.23-1.47-1.69-2.89a3.6,3.6,0,0,1-.42-2.23A5.63,5.63,0,0,1,107.15,69.55Z" transform="translate(-64.52 -10.13)"/><path id="Path_3-2" data-name="Path 3-2" class="cls-3" d="M106.62,75.17a5,5,0,0,1,2.24-3.73c2.58-2.09,3.51-1.1,3.51-1.1a7,7,0,0,1,2.73-3.12c2-1.27,2.33-.51,2.33-.51a7.45,7.45,0,0,1,.94-2.32c.65-1,3.36-1.82,3.36-1.82" transform="translate(-64.52 -10.13)"/><path id="Path_4-2" data-name="Path 4-2" class="cls-3" d="M128.85,64.6s-.45-.14-.94-.17a1.6,1.6,0,0,0-.69.12A3.08,3.08,0,0,0,126,66a23.55,23.55,0,0,0-.91,2.82,6.54,6.54,0,0,0-2.26.88,11.52,11.52,0,0,0-1.79,1.77,6.66,6.66,0,0,0-3.34,1.22c-.42.4-2.71,2.46-2.77,3.44s-1.87,1.59-1.87,1.59" transform="translate(-64.52 -10.13)"/><path id="Path_6-2" data-name="Path 6-2" class="cls-3" d="M112.12,77.64c.06-.8-1.83-2-2-3s1.36-2.39,1.84-2.79c2.28-1.88,3.6-1.27,3.6-1.27s-.49-1,1.31-2.12S119.2,68,119.2,68a15.25,15.25,0,0,1,1.07-2.09c.58-.86,2.49-.47,2.49-.47s.91-2.23,4.93-1.24,2.37,3.56,2.37,3.56A6.6,6.6,0,0,1,128.4,70,6.44,6.44,0,0,1,125.89,71s-1.09,2.9-2.33,4a2.37,2.37,0,0,1-2.62.28A4.52,4.52,0,0,1,119,78.54a3.74,3.74,0,0,1-3.55-.5,3.27,3.27,0,0,1-1.07.5,3.81,3.81,0,0,1-1.26,0" transform="translate(-64.52 -10.13)"/><path id="Path_7" data-name="Path 7" class="cls-3" d="M126,65.89s-2.48-1.19-3.19.71a1.94,1.94,0,0,0,0,1.63s-1.11.15-1.4.7,0,.75-.73,1-2.2-.16-3.65.41a4.47,4.47,0,0,0-2.13,1.85s-1.43.63-1.8,1.41.14,1.11.33,1.74a1.29,1.29,0,0,0,1.47.8" transform="translate(-64.52 -10.13)"/><path id="Path_9-2" data-name="Path 9-2" class="cls-3" d="M115.64,81.09a5.54,5.54,0,0,0,3.75-.46,11.85,11.85,0,0,0,3.5-3.3,6.75,6.75,0,0,0,2.7-1.94,8.18,8.18,0,0,0,1.26-3.3,13.08,13.08,0,0,0,2.68-1.62,3.64,3.64,0,0,0,1.2-1.8,7.31,7.31,0,0,0,3.59-.08c1.35-.59-.15-3.8-.15-3.8" transform="translate(-64.52 -10.13)"/><path id="Path_10" data-name="Path 10" class="cls-3" d="M126.55,64a4,4,0,0,1,2.25-.93A1.14,1.14,0,0,1,130,64.36a3.24,3.24,0,0,1,1.7-.4,2.86,2.86,0,0,1,1.47.86,4.57,4.57,0,0,1,1.37,0,2.81,2.81,0,0,1,1.16.72" transform="translate(-64.52 -10.13)"/><path id="Path_11" data-name="Path 11" class="cls-3" d="M121,75.29a3.79,3.79,0,0,1-.34-.2,1.34,1.34,0,0,1-.34-.45" transform="translate(-64.52 -10.13)"/><path id="Path_12" data-name="Path 12" class="cls-3" d="M125.88,71l-.34,0a1.91,1.91,0,0,1-.33-.06" transform="translate(-64.52 -10.13)"/><path id="Path_13" data-name="Path 13" class="cls-3" d="M119.19,68c0,.26-.07.18-.13.52a.75.75,0,0,0,0,.47" transform="translate(-64.52 -10.13)"/><path id="Path_14" data-name="Path 14" class="cls-3" d="M134.36,68.55c-.47,3.2-.69,5.62-2.06,6.8a9,9,0,0,1-3.4,1.24,4.43,4.43,0,0,1-5.41,2L120,80.26" transform="translate(-64.52 -10.13)"/><path id="Path_15" data-name="Path 15" class="cls-4" d="M120.34,65.81c-.62-1.22.67-2.2,1.33-2.42a2.56,2.56,0,0,1,2.06,0,3.16,3.16,0,0,1,1.5-.91,2.85,2.85,0,0,1,1.65.36,4.58,4.58,0,0,1,2.67-.59,3.35,3.35,0,0,1,1.91,1.67" transform="translate(-64.52 -10.13)"/><path id="Path_16" data-name="Path 16" class="cls-3" d="M123.69,63.36c.38.2.44.32.44.32" transform="translate(-64.52 -10.13)"/><path id="Path_17" data-name="Path 17" class="cls-3" d="M115,72c-.05.26-.07.18-.13.52a.75.75,0,0,0,0,.47" transform="translate(-64.52 -10.13)"/><path id="Path_18" data-name="Path 18" class="cls-3" d="M117.43,66.7c0,.26,0,.18-.06.52a1.85,1.85,0,0,0,0,.47" transform="translate(-64.52 -10.13)"/><path id="Path_19" data-name="Path 19" class="cls-3" d="M112.37,70.26c-.05.25-.07.17-.13.49a.72.72,0,0,0,0,.46" transform="translate(-64.52 -10.13)"/><path id="Path_20" data-name="Path 20" class="cls-3" d="M109.16,71.22c.61-1.16,0-2.32,1-3.34a3.81,3.81,0,0,1,2.9-.74s.75-2.39,2.38-3.22a4,4,0,0,1,3.35,0" transform="translate(-64.52 -10.13)"/><path id="Path_21" data-name="Path 21" class="cls-3" d="M113.07,67.12c0,.25-.11.24-.17.56a.69.69,0,0,0,0,.45" transform="translate(-64.52 -10.13)"/><path id="Path_22-2" data-name="Path 22-2" class="cls-3" d="M108,72.2c-.69-1.22,1.4-4.74,2-5.4a5.9,5.9,0,0,1,3-1.7" transform="translate(-64.52 -10.13)"/><path id="Path_23" data-name="Path 23" class="cls-3" d="M112.13,66.15s1.61-2.45,3.6-3.06,2.15.53,2.15.53" transform="translate(-64.52 -10.13)"/><path id="Path_24-2" data-name="Path 24-2" class="cls-3" d="M115.26,75.35c.64,0,1.84,1.13,2.66.74,1.24-.58,2.41-3.22,2.41-3.22A6,6,0,0,0,123,72.6c1.21-.49,1.65-2.7,1.65-2.7s3.52-1.79,3.88-3.24-2-1.54-2-1.54" transform="translate(-64.52 -10.13)"/><path id="Path_25" data-name="Path 25" class="cls-3" d="M120.58,72.9a3.43,3.43,0,0,1-1-.21" transform="translate(-64.52 -10.13)"/><path id="Path_26" data-name="Path 26" class="cls-3" d="M125.75,75.2a4.75,4.75,0,0,0,3.13-2.09,3.06,3.06,0,0,0,.46-1.34,4.62,4.62,0,0,0,2.75-.53A3.39,3.39,0,0,0,133,68.9" transform="translate(-64.52 -10.13)"/><path id="Path_28-2" data-name="Path 28-2" class="cls-3" d="M138.55,69.52c-.47,3.21.33,3-.79,5.15s-4.65,2.79-4.65,2.79a4.44,4.44,0,0,1-5.42,2,5.84,5.84,0,0,1-3,1.19,4,4,0,0,1-2.45-1.45" transform="translate(-64.52 -10.13)"/><path id="Path_29-2" data-name="Path 29-2" class="cls-3" d="M133.77,72.2c2.31-.77,2.77-1.4,3.31-2.7s-2.22-2.38-2.22-2.38" transform="translate(-64.52 -10.13)"/><path id="Path_30" data-name="Path 30" class="cls-3" d="M128.84,76.67a2.13,2.13,0,0,0,.23-.42,1.26,1.26,0,0,0,.1-.38" transform="translate(-64.52 -10.13)"/><path id="Path_31" data-name="Path 31" class="cls-3" d="M129.34,71.82s0-.22,0-.4a1.6,1.6,0,0,0,0-.31" transform="translate(-64.52 -10.13)"/><path id="Path_32" data-name="Path 32" class="cls-3" d="M122.88,77.34l-.34.13-.59.18" transform="translate(-64.52 -10.13)"/><path id="Path_33" data-name="Path 33" class="cls-3" d="M133.22,77.44a1.56,1.56,0,0,1-.43,0,1.8,1.8,0,0,1-.39-.08" transform="translate(-64.52 -10.13)"/><path id="Path_34" data-name="Path 34" class="cls-3" d="M125.13,68.75s0,.29,0,.38" transform="translate(-64.52 -10.13)"/><path id="Path_35-2" data-name="Path 35-2" class="cls-3" d="M137.93,74.3c-.45.88.12,2.61-.81,3.63-1.26,1.4-4,2-4,2a5.7,5.7,0,0,1-2.34,2c-1.35.5-3.83-.42-3.83-.42a26.7,26.7,0,0,1-4.09.42,12.68,12.68,0,0,1-3.57-1.1" transform="translate(-64.52 -10.13)"/><path id="Path_36" data-name="Path 36" class="cls-3" d="M133.22,79.86a1.56,1.56,0,0,1-.43,0,1.8,1.8,0,0,1-.39-.08" transform="translate(-64.52 -10.13)"/><path id="Path_37" data-name="Path 37" class="cls-3" d="M127,81.48l-.31-.14a1,1,0,0,1-.3-.23" transform="translate(-64.52 -10.13)"/><path id="Path_40" data-name="Path 40" class="cls-3" d="M129,82a2.36,2.36,0,0,0,1.76,1.11,11,11,0,0,0,3.31-.4" transform="translate(-64.52 -10.13)"/><path id="Path_27-2" data-name="Path 27-2" class="cls-3" d="M134.36,68.55c-.47,3.2-.69,5.62-2.06,6.8a8.94,8.94,0,0,1-3.4,1.24,6.43,6.43,0,0,1-1.74,1.71,2.93,2.93,0,0,1-.59.29,5.76,5.76,0,0,1-3.08,0L120,80.26" transform="translate(-64.52 -10.13)"/></g><path id="Path_44" data-name="Path 44" class="cls-1" d="M105.74,77l3.7-3.19,2.45,1.06,2.56-2,6.31-.87-6.31,1.79-2.56,2.48h-3.16L107,78.53" transform="translate(-64.52 -10.13)"/><path id="Path_45" data-name="Path 45" class="cls-1" d="M132.44,60.6,131,64.49l-2.36,1.06v2.79l.62-2.41,2.42-.38,2.87-4.17" transform="translate(-64.52 -10.13)"/><path id="Path_46" data-name="Path 46" class="cls-1" d="M112.81,59.52l2.26,5.68,5.05.57L124,72,121,65.2l-5.2-1-.68-4.68" transform="translate(-64.52 -10.13)"/><path id="Path_47" data-name="Path 47" class="cls-1" d="M139.2,84.6,133.87,80l-2.17-9.14,3.26,7.7,7.89,3.8" transform="translate(-64.52 -10.13)"/></g><path id="Path_54-2" data-name="Path 54-2" class="cls-5" d="M140.06,81.19a.68.68,0,0,0,.16.48c.16.15.46,0,.55,0a.4.4,0,0,0,.23-.12c.07-.1,0-.18.06-.28a.5.5,0,0,0-.13-.48c-.05-.05-.15-.2-.32-.2s-.22.15-.33.2A.39.39,0,0,0,140.06,81.19Z" transform="translate(-64.52 -10.13)"/><path id="Path_60-2" data-name="Path 60-2" class="cls-5" d="M127.3,52.44a1.12,1.12,0,0,0,.32.89c.31.28.88.09,1.07,0a.82.82,0,0,0,.44-.23c.15-.18.09-.32.13-.5a1,1,0,0,0-.25-.9c-.11-.09-.31-.37-.63-.37s-.44.28-.65.37A.7.7,0,0,0,127.3,52.44Z" transform="translate(-64.52 -10.13)"/><path id="Path_62-2" data-name="Path 62-2" class="cls-5" d="M132.58,61.32a1,1,0,0,0,.07.43c.07.13.21,0,.25,0s.07,0,.1-.11a1,1,0,0,0,0-.24A.83.83,0,0,0,133,61s-.07-.17-.14-.17-.1.13-.15.17A.48.48,0,0,0,132.58,61.32Z" transform="translate(-64.52 -10.13)"/><path id="Path_63-2" data-name="Path 63-2" class="cls-5" d="M132.14,62.92a.4.4,0,0,0,.11.31c.1.09.3,0,.36,0a.28.28,0,0,0,.15-.08c.05-.07,0-.11,0-.17a.32.32,0,0,0-.08-.31.35.35,0,0,0-.22-.12c-.1,0-.15.09-.22.12A.23.23,0,0,0,132.14,62.92Z" transform="translate(-64.52 -10.13)"/><path id="Path_91-2" data-name="Path 91-2" class="cls-5" d="M120.7,86.76a1.16,1.16,0,0,0,.32.9c.31.27.88.08,1.06,0a.8.8,0,0,0,.45-.24c.14-.18.09-.31.13-.5a1,1,0,0,0-.25-.9c-.11-.09-.31-.37-.63-.37s-.44.28-.66.37A.71.71,0,0,0,120.7,86.76Z" transform="translate(-64.52 -10.13)"/><path id="Path_92-2" data-name="Path 92-2" class="cls-5" d="M119,84.83a1,1,0,0,0,.18.66c.16.2.48.06.58,0a.39.39,0,0,0,.25-.17,1.36,1.36,0,0,0-.07-1c-.06-.06-.17-.27-.35-.27s-.24.21-.36.27A.59.59,0,0,0,119,84.83Z" transform="translate(-64.52 -10.13)"/><path id="Path_93-2" data-name="Path 93-2" class="cls-5" d="M102.22,77.13a.84.84,0,0,0,.38.76,1.78,1.78,0,0,0,1.25,0,1.15,1.15,0,0,0,.53-.2c.17-.16.1-.27.15-.43a.68.68,0,0,0-.3-.76,1.24,1.24,0,0,0-.74-.31c-.38,0-.52.24-.77.31C102.22,76.66,102.22,77,102.22,77.13Z" transform="translate(-64.52 -10.13)"/><path id="Path_96-2" data-name="Path 96-2" class="cls-5" d="M101.56,54.83a1.51,1.51,0,0,0,.3,1c.29.32.84.1,1,0a.66.66,0,0,0,.42-.27c.14-.21.09-.37.12-.58a1.31,1.31,0,0,0-.23-1c-.1-.11-.3-.43-.6-.43s-.42.32-.62.43A.9.9,0,0,0,101.56,54.83Z" transform="translate(-64.52 -10.13)"/><path id="Path_97-2" data-name="Path 97-2" class="cls-5" d="M141.82,75.1a1.19,1.19,0,0,0,.32.9c.31.27.88.08,1.07,0a.83.83,0,0,0,.44-.24c.15-.18.09-.32.13-.5a1,1,0,0,0-.25-.9c-.11-.09-.31-.37-.63-.37s-.44.28-.65.37A.72.72,0,0,0,141.82,75.1Z" transform="translate(-64.52 -10.13)"/><path id="Path_98" data-name="Path 98" class="cls-5" d="M146.66,71.26a.56.56,0,0,0,.21.47c.19.14.56,0,.68,0a.69.69,0,0,0,.29-.12c.09-.1.06-.17.08-.26a.44.44,0,0,0-.16-.47.63.63,0,0,0-.41-.19c-.2,0-.28.14-.42.19A.36.36,0,0,0,146.66,71.26Z" transform="translate(-64.52 -10.13)"/><path id="Path_100-2" data-name="Path 100-2" class="cls-5" d="M133.7,61.12a.25.25,0,0,0,.17.24,1.18,1.18,0,0,0,.59,0,.73.73,0,0,0,.24-.07c.08,0,.05-.08.07-.13a.19.19,0,0,0-.14-.24.67.67,0,0,0-.34-.1,1,1,0,0,0-.36.1C133.7,61,133.7,61.07,133.7,61.12Z" transform="translate(-64.52 -10.13)"/><path id="Path_104-2" data-name="Path 104-2" class="cls-5" d="M135.44,80.24a.59.59,0,0,0,.13.42c.12.13.35,0,.42,0a.29.29,0,0,0,.18-.11c.06-.09,0-.15.05-.24a.52.52,0,0,0-.1-.43s-.12-.17-.25-.17-.18.13-.26.17A.38.38,0,0,0,135.44,80.24Z" transform="translate(-64.52 -10.13)"/><path id="Path_105-2" data-name="Path 105-2" class="cls-5" d="M136.76,81.91a.62.62,0,0,0,.23.54,1,1,0,0,0,.76,0,.73.73,0,0,0,.31-.14c.11-.11.07-.19.09-.3a.51.51,0,0,0-.17-.54.77.77,0,0,0-.45-.22c-.23,0-.32.17-.47.22A.42.42,0,0,0,136.76,81.91Z" transform="translate(-64.52 -10.13)"/><path id="Path_106-2" data-name="Path 106-2" class="cls-5" d="M111.68,75.35a.27.27,0,0,0,.08.22c.07.06.21,0,.25,0a.2.2,0,0,0,.11-.06s0-.08,0-.12a.23.23,0,0,0-.07-.21.21.21,0,0,0-.15-.09c-.08,0-.11.06-.16.09A.16.16,0,0,0,111.68,75.35Z" transform="translate(-64.52 -10.13)"/><path id="Path_107-2" data-name="Path 107-2" class="cls-6" d="M133.64,90.43a3.21,3.21,0,0,0,1.53,1.92c.93.41,2.06-.53,2.4-.88a1.86,1.86,0,0,0,.8-.93c.16-.57-.08-.85-.16-1.33a2.65,2.65,0,0,0-1.37-2,2.28,2.28,0,0,0-1.75-.4c-.72.27-.74,1-1.14,1.45A1.93,1.93,0,0,0,133.64,90.43Z" transform="translate(-64.52 -10.13)"/><path id="Path_108-2" data-name="Path 108-2" class="cls-6" d="M112.43,58.54a3.42,3.42,0,0,0,.81,1.39c.41.36.78-.13.88-.32a.78.78,0,0,0,.23-.53,3.15,3.15,0,0,0-.2-.87,2.94,2.94,0,0,0-.76-1.42c-.14-.13-.48-.53-.74-.43s-.2.6-.32.81A1.81,1.81,0,0,0,112.43,58.54Z" transform="translate(-64.52 -10.13)"/><path id="Path_109-2" data-name="Path 109-2" class="cls-6" d="M98.47,69a2,2,0,0,0,1.63,1.39c1.13.19,2.76-.82,3.26-1.18a3.53,3.53,0,0,0,1.2-1c.3-.52,0-.72,0-1.13a1.59,1.59,0,0,0-1.41-1.48,3.61,3.61,0,0,0-2.18,0c-1,.36-1.15,1-1.74,1.46C98.08,67.91,98.35,68.66,98.47,69Z" transform="translate(-64.52 -10.13)"/><path id="Path_103-2" data-name="Path 103-2" class="cls-5" d="M114.32,61.58a.37.37,0,0,0,.09.28c.08.08.25,0,.3,0a.22.22,0,0,0,.13-.08c0-.05,0-.1,0-.15a.31.31,0,0,0-.07-.29.27.27,0,0,0-.18-.11c-.09,0-.12.08-.18.11A.22.22,0,0,0,114.32,61.58Z" transform="translate(-64.52 -10.13)"/><path id="Path_94-2" data-name="Path 94-2" class="cls-5" d="M108.45,75.29a.4.4,0,0,0,.21.35,1.06,1.06,0,0,0,.66,0,.75.75,0,0,0,.29-.09c.09-.08,0-.13.07-.2a.3.3,0,0,0-.15-.36.73.73,0,0,0-.4-.15c-.2,0-.28.12-.41.15S108.45,75.22,108.45,75.29Z" transform="translate(-64.52 -10.13)"/><path id="Path_132-2" data-name="Path 132-2" class="cls-5" d="M94.6,82.08a2.29,2.29,0,0,0,.51,1.61c.48.49,1.39.15,1.68,0a1.26,1.26,0,0,0,.71-.42c.22-.33.14-.57.2-.91a1.9,1.9,0,0,0-.4-1.62c-.16-.17-.49-.67-1-.67s-.7.5-1,.67A1.35,1.35,0,0,0,94.6,82.08Z" transform="translate(-64.52 -10.13)"/><path id="Path_133-2" data-name="Path 133-2" class="cls-7" d="M138.86,55.89a2.25,2.25,0,0,0,.35,1.64c.42.53,1.36.29,1.66.17a1.22,1.22,0,0,0,.74-.35c.26-.3.2-.55.29-.88a1.87,1.87,0,0,0-.23-1.64c-.15-.18-.41-.72-.92-.77s-.74.43-1.09.56A1.35,1.35,0,0,0,138.86,55.89Z" transform="translate(-64.52 -10.13)"/></g><g id="BREAK_YOUR-2" data-name="BREAK YOUR-2" class="cls-8"><text class="cls-9" transform="translate(17.41 38.82)">BREAK <tspan class="cls-10" x="51.15" y="0">Y</tspan><tspan x="59.68" y="0">OUR</tspan></text></g><g id="S-4" class="cls-8"><text class="cls-11" transform="translate(21.53 84.93)">S</text></g><g id="T-2" class="cls-8"><text class="cls-12" transform="translate(35.56 84.26) rotate(-9)">T</text></g><g id="R-2" class="cls-8"><text class="cls-12" transform="translate(48.68 88.43) rotate(-9)">R</text></g><g id="E-2" class="cls-8"><text class="cls-13" transform="translate(57.38 97.42) rotate(15)">E</text></g><g id="S-5" class="cls-8"><text class="cls-11" transform="translate(73.7 96.28) rotate(28)">S</text></g><g id="S-6" class="cls-8"><text class="cls-14" transform="translate(85.07 108.31) rotate(5.77)">S</text></g></svg>