<svg id="Layer_1" data-name="Layer 1" xmlns="http://www.w3.org/2000/svg" viewBox="0 0 125.39 125.39"><defs><style>.cls-1{fill:#f4af76;}.cls-2{fill:#b7cdf9;}.cls-3{fill:#b0ffca;}.cls-4{fill:#ffc3ae;stroke:#000;stroke-width:0.5px;}.cls-4,.cls-7{stroke-miterlimit:10;}.cls-5{fill:#f9bba7;}.cls-6{fill:#070707;}.cls-7{stroke:#f4af76;stroke-width:1.2px;}</style></defs><circle class="cls-1" cx="62.7" cy="62.7" r="62.7"/><path d="M126,42.44" transform="translate(-63.3 -9.3)"/><path class="cls-2" d="M126,59.46" transform="translate(-63.3 -9.3)"/><path class="cls-3" d="M126,58.57" transform="translate(-63.3 -9.3)"/><path class="cls-4" d="M126,33.93" transform="translate(-63.3 -9.3)"/><path class="cls-5" d="M126,62.15" transform="translate(-63.3 -9.3)"/><path class="cls-6" d="M126,50.5" transform="translate(-63.3 -9.3)"/><path class="cls-6" d="M126,43.42" transform="translate(-63.3 -9.3)"/><path d="M88.7,95.77a6.27,6.27,0,0,1-2.33-2.56,8.2,8.2,0,0,1-.84-3.79,8,8,0,0,1,.87-3.82,6.26,6.26,0,0,1,2.42-2.55,7.14,7.14,0,0,1,3.63-.91A6.82,6.82,0,0,1,96,83a5.62,5.62,0,0,1,2.25,2.47A8.51,8.51,0,0,1,99,89.3c0,.14,0,.29,0,.44S99,90,99,90H87.08V88h10l-1,1.4a2.1,2.1,0,0,0,.18-.47,1.73,1.73,0,0,0,.1-.53,4.41,4.41,0,0,0-.5-2.15,3.72,3.72,0,0,0-1.38-1.43,4.06,4.06,0,0,0-2.06-.51,4.47,4.47,0,0,0-2.38.59,3.85,3.85,0,0,0-1.52,1.69A6.64,6.64,0,0,0,88,89.27a6.88,6.88,0,0,0,.51,2.79A3.84,3.84,0,0,0,90,93.81a4.57,4.57,0,0,0,2.43.61A5,5,0,0,0,95,93.8a5.12,5.12,0,0,0,1.85-1.9l2,1.25A7.38,7.38,0,0,1,96,95.8a8,8,0,0,1-3.9.89A6.39,6.39,0,0,1,88.7,95.77Z" transform="translate(-63.3 -9.3)"/><path d="M100.3,85.52a6.55,6.55,0,0,1,2.51-2.5,7,7,0,0,1,3.46-.88,5.39,5.39,0,0,1,3.06.88,5.94,5.94,0,0,1,2,2.5,10.59,10.59,0,0,1,0,7.78,5.85,5.85,0,0,1-2,2.51,5.32,5.32,0,0,1-3.06.88,6.93,6.93,0,0,1-3.46-.88,6.44,6.44,0,0,1-2.51-2.51,8.52,8.52,0,0,1,0-7.78Zm2.16,6.63a4.37,4.37,0,0,0,1.75,1.69,4.88,4.88,0,0,0,2.36.58,4.15,4.15,0,0,0,2.09-.58,4.52,4.52,0,0,0,1.7-1.69,5.9,5.9,0,0,0,0-5.46,4.55,4.55,0,0,0-1.7-1.7,4.24,4.24,0,0,0-2.09-.57,5,5,0,0,0-2.36.57,4.4,4.4,0,0,0-1.75,1.7,6.06,6.06,0,0,0,0,5.46Zm11-19.4V96.39H111V72.75Z" transform="translate(-63.3 -9.3)"/><path d="M119.24,93.51a2.71,2.71,0,0,0,2.21.91,3.88,3.88,0,0,0,1.87-.44,3.06,3.06,0,0,0,1.24-1.23,3.69,3.69,0,0,0,.44-1.82V82.45h2.42V96.39H125V94.21a4.88,4.88,0,0,1-1.73,1.86,4.54,4.54,0,0,1-2.42.62,4.41,4.41,0,0,1-3.49-1.48,5.81,5.81,0,0,1-1.3-4V82.45h2.42v8.48A3.93,3.93,0,0,0,119.24,93.51Z" transform="translate(-63.3 -9.3)"/><path d="M131.9,92a4.79,4.79,0,0,0,1.69,1.77,4.66,4.66,0,0,0,2.44.65,6.35,6.35,0,0,0,2.11-.35,5.42,5.42,0,0,0,1.71-.94,3.4,3.4,0,0,0,1-1.26v3a4.65,4.65,0,0,1-2.07,1.31,8.24,8.24,0,0,1-2.78.47,7.18,7.18,0,0,1-3.66-.94,6.88,6.88,0,0,1-2.6-2.59,7.88,7.88,0,0,1,0-7.5,7,7,0,0,1,2.6-2.58,7.28,7.28,0,0,1,3.66-.94,8.5,8.5,0,0,1,2.78.47,4.75,4.75,0,0,1,2.07,1.32v3a3.35,3.35,0,0,0-1-1.27,5.82,5.82,0,0,0-1.71-.92,6.11,6.11,0,0,0-2.11-.35,4.74,4.74,0,0,0-2.44.63,4.6,4.6,0,0,0-1.69,1.78,5.62,5.62,0,0,0,0,5.17Z" transform="translate(-63.3 -9.3)"/><path d="M144.35,93.45a2.35,2.35,0,0,0,1.07.86,3.81,3.81,0,0,0,1.56.29,4.4,4.4,0,0,0,2-.45,3.63,3.63,0,0,0,1.43-1.29,3.56,3.56,0,0,0,.53-1.93l.48,1.82a3.2,3.2,0,0,1-.8,2.22,4.92,4.92,0,0,1-2,1.3,6.82,6.82,0,0,1-2.32.42,5.35,5.35,0,0,1-2.38-.53,4.25,4.25,0,0,1-1.77-1.53,4.2,4.2,0,0,1-.67-2.42A4.07,4.07,0,0,1,143,89a6,6,0,0,1,4-1.23,8,8,0,0,1,2.53.35,6.43,6.43,0,0,1,1.62.79,4.37,4.37,0,0,1,.82.71V91a7.33,7.33,0,0,0-2.19-1,8.74,8.74,0,0,0-2.39-.32,5.15,5.15,0,0,0-1.92.3,2.39,2.39,0,0,0-1.11.85,2.34,2.34,0,0,0-.37,1.31A2.44,2.44,0,0,0,144.35,93.45Zm-1.92-9.58a10.64,10.64,0,0,1,2.17-1.15,8.65,8.65,0,0,1,3.32-.58,7.61,7.61,0,0,1,2.86.5,4.41,4.41,0,0,1,1.91,1.44,3.87,3.87,0,0,1,.68,2.31v10H151V86.72a2.54,2.54,0,0,0-.25-1.2,1.87,1.87,0,0,0-.68-.74,3.13,3.13,0,0,0-1-.39,6,6,0,0,0-1.22-.12,6.76,6.76,0,0,0-1.86.24,6.26,6.26,0,0,0-1.41.57c-.38.23-.69.42-.91.58Z" transform="translate(-63.3 -9.3)"/><path d="M163.86,85.3a2.75,2.75,0,0,0-2.21-.88,3.77,3.77,0,0,0-1.87.44,3.1,3.1,0,0,0-1.24,1.22,3.74,3.74,0,0,0-.44,1.82v8.49h-2.43V82.45h2.43v2.18a4.44,4.44,0,0,1,4.15-2.49,4.41,4.41,0,0,1,3.5,1.47,5.84,5.84,0,0,1,1.29,4v8.79h-2.42V87.9A3.9,3.9,0,0,0,163.86,85.3Z" transform="translate(-63.3 -9.3)"/><path class="cls-7" d="M132,60.53a7.48,7.48,0,0,0-1.6,5.86c1.12,5.69,9.32,8.59,11.73,6.4.93-.84.77-2.58-1.06-5.33a5.81,5.81,0,0,0,3.73-2.67,5.19,5.19,0,0,0,0-5.33C142.59,56.42,135.28,56.63,132,60.53Z" transform="translate(-63.3 -9.3)"/><path class="cls-7" d="M130.78,47.39a12.32,12.32,0,0,0-12.57,2.71c-2.92,2.89-5.31,8.43-2.45,13a10,10,0,0,0,12.88,3.46,9.69,9.69,0,0,0,4.27-5.33,9.48,9.48,0,0,0,15-10.12" transform="translate(-63.3 -9.3)"/><path class="cls-7" d="M135,35.66a6.39,6.39,0,0,1,10.57,5.2c3.85,1.49,5.28,5.83,3.71,8.66A6.25,6.25,0,0,1,141.9,52a6.1,6.1,0,0,1-11.12-4.6" transform="translate(-63.3 -9.3)"/><path class="cls-7" d="M115.76,63.13c-5.7,2.45-11.16-.48-13.79-5.07A11.63,11.63,0,0,1,103,45.26a9.63,9.63,0,0,1,4.27-9.6c4.2-2.66,8.72-.69,9.06-.54.73-.65,5.18-4.57,11.21-3.73,1,.14,5.88,1.15,8.53,5.33.36.58,2,4.25,0,7.47a7.57,7.57,0,0,1-5.33,3.2c-.51-.15-6.54-1.79-11.36,2.22C115.61,52.77,113.32,57.43,115.76,63.13Z" transform="translate(-63.3 -9.3)"/><path d="M96,109a.66.66,0,0,0,.31.26,1.14,1.14,0,0,0,.46.09,1.3,1.3,0,0,0,.6-.14,1,1,0,0,0,.42-.38,1,1,0,0,0,.16-.57l.14.54a.92.92,0,0,1-.24.65,1.39,1.39,0,0,1-.58.39,2.08,2.08,0,0,1-.68.12,1.71,1.71,0,0,1-.71-.15,1.36,1.36,0,0,1-.52-.46,1.24,1.24,0,0,1-.2-.71,1.21,1.21,0,0,1,.43-1,1.77,1.77,0,0,1,1.18-.36,2.62,2.62,0,0,1,.75.1,1.79,1.79,0,0,1,.48.24,1.09,1.09,0,0,1,.24.21v.42a2.22,2.22,0,0,0-.64-.31,2.71,2.71,0,0,0-.71-.09,1.55,1.55,0,0,0-.57.09.68.68,0,0,0-.32.25.59.59,0,0,0-.11.38A.72.72,0,0,0,96,109Zm-.57-2.83a4.06,4.06,0,0,1,.64-.34,2.61,2.61,0,0,1,1-.17,2.22,2.22,0,0,1,.85.15,1.23,1.23,0,0,1,.56.43,1.08,1.08,0,0,1,.2.68v2.95h-.71V107a.92.92,0,0,0-.07-.36.7.7,0,0,0-.2-.22,1,1,0,0,0-.31-.11,1.34,1.34,0,0,0-.35,0,2.23,2.23,0,0,0-.55.07,2.14,2.14,0,0,0-.42.17l-.27.17Z" transform="translate(-63.3 -9.3)"/><path d="M100,102.9v7h-.71v-7Z" transform="translate(-63.3 -9.3)"/><path d="M101.34,108.58a1.42,1.42,0,0,0,.5.53,1.4,1.4,0,0,0,.73.19,1.83,1.83,0,0,0,.62-.1,1.62,1.62,0,0,0,.5-.28,1,1,0,0,0,.31-.37v.9a1.46,1.46,0,0,1-.62.38,2.23,2.23,0,0,1-.81.14,2.2,2.2,0,0,1-1.09-.27,2,2,0,0,1-.76-.77,2.16,2.16,0,0,1-.29-1.11,2.19,2.19,0,0,1,.29-1.11,2.05,2.05,0,0,1,.76-.76,2.21,2.21,0,0,1,1.09-.28,2.46,2.46,0,0,1,.81.14,1.57,1.57,0,0,1,.62.39v.9a1,1,0,0,0-.31-.38,1.79,1.79,0,0,0-1.12-.37,1.49,1.49,0,0,0-.73.18,1.42,1.42,0,0,0-.5.53,1.58,1.58,0,0,0-.18.76A1.55,1.55,0,0,0,101.34,108.58Z" transform="translate(-63.3 -9.3)"/><path d="M104.51,106.71a2.12,2.12,0,0,1,1.85-1,2.18,2.18,0,0,1,1.09.28,2.13,2.13,0,0,1,.76.76,2.18,2.18,0,0,1,.28,1.11,2.16,2.16,0,0,1-.28,1.11,2.08,2.08,0,0,1-.76.77,2.32,2.32,0,0,1-2.17,0,2.11,2.11,0,0,1-.77-.77,2.26,2.26,0,0,1-.28-1.11A2.29,2.29,0,0,1,104.51,106.71Zm.63,1.87a1.41,1.41,0,0,0,1.94.53,1.37,1.37,0,0,0,.51-.53,1.55,1.55,0,0,0,.18-.76,1.58,1.58,0,0,0-.18-.76,1.37,1.37,0,0,0-.51-.53,1.53,1.53,0,0,0-1.44,0,1.34,1.34,0,0,0-.5.53,1.58,1.58,0,0,0-.18.76A1.55,1.55,0,0,0,105.14,108.58Z" transform="translate(-63.3 -9.3)"/><path d="M109.67,109.88H109v-7h.72Zm1.7-3.27a.77.77,0,0,0-.65-.26,1.07,1.07,0,0,0-.55.13.88.88,0,0,0-.37.37,1,1,0,0,0-.13.53h-.23a2.07,2.07,0,0,1,.18-.88,1.6,1.6,0,0,1,.52-.6,1.31,1.31,0,0,1,.76-.23,1.47,1.47,0,0,1,.74.18,1.25,1.25,0,0,1,.5.54,2.16,2.16,0,0,1,.17.9v2.59h-.72v-2.5A1.14,1.14,0,0,0,111.37,106.61Z" transform="translate(-63.3 -9.3)"/><path d="M113.05,106.71a2.13,2.13,0,0,1,.76-.76,2.24,2.24,0,0,1,1.09-.28A2.21,2.21,0,0,1,116,106a2.13,2.13,0,0,1,.76.76,2.18,2.18,0,0,1,.28,1.11,2.16,2.16,0,0,1-.28,1.11,2.08,2.08,0,0,1-.76.77,2.2,2.2,0,0,1-1.09.27,2.23,2.23,0,0,1-1.09-.27,2.08,2.08,0,0,1-.76-.77,2.16,2.16,0,0,1-.28-1.11A2.18,2.18,0,0,1,113.05,106.71Zm.63,1.87a1.38,1.38,0,0,0,2.44,0,1.55,1.55,0,0,0,.18-.76,1.58,1.58,0,0,0-.18-.76,1.34,1.34,0,0,0-.5-.53,1.53,1.53,0,0,0-1.44,0,1.34,1.34,0,0,0-.5.53,1.48,1.48,0,0,0-.19.76A1.45,1.45,0,0,0,113.68,108.58Z" transform="translate(-63.3 -9.3)"/><path d="M118.2,102.9v7h-.71v-7Z" transform="translate(-63.3 -9.3)"/><path d="M119.17,103.71a.48.48,0,0,1,.34-.14.5.5,0,0,1,.35.14.46.46,0,0,1,.14.35.47.47,0,0,1-.14.35.5.5,0,0,1-.35.14.48.48,0,0,1-.34-.14.49.49,0,0,1-.15-.35A.47.47,0,0,1,119.17,103.71Zm.7,2.05v4.12h-.72v-4.12Z" transform="translate(-63.3 -9.3)"/><path d="M121.32,108.58a1.37,1.37,0,0,0,.51.53,1.34,1.34,0,0,0,.72.19,1.78,1.78,0,0,0,1.13-.38,1.11,1.11,0,0,0,.3-.37v.9a1.42,1.42,0,0,1-.61.38,2.32,2.32,0,0,1-.82.14,2.23,2.23,0,0,1-1.09-.27,2.08,2.08,0,0,1-.76-.77,2.16,2.16,0,0,1-.28-1.11,2.18,2.18,0,0,1,.28-1.11,2.13,2.13,0,0,1,.76-.76,2.24,2.24,0,0,1,1.09-.28,2.57,2.57,0,0,1,.82.14,1.53,1.53,0,0,1,.61.39v.9a1.05,1.05,0,0,0-.3-.38,2.06,2.06,0,0,0-.51-.27,1.79,1.79,0,0,0-.62-.1,1.43,1.43,0,0,0-.72.18,1.37,1.37,0,0,0-.51.53,1.58,1.58,0,0,0-.18.76A1.55,1.55,0,0,0,121.32,108.58Z" transform="translate(-63.3 -9.3)"/><path d="M127.4,109.88h-.71v-7h.71Zm3.17-.91a1.88,1.88,0,0,1-.74.74,2,2,0,0,1-1,.26,1.54,1.54,0,0,1-.9-.26,1.73,1.73,0,0,1-.61-.74,2.68,2.68,0,0,1-.22-1.15,2.71,2.71,0,0,1,.22-1.15,1.79,1.79,0,0,1,.61-.74,1.61,1.61,0,0,1,.9-.26,2.06,2.06,0,0,1,1,.26,2,2,0,0,1,.74.74,2.23,2.23,0,0,1,.28,1.15A2.2,2.2,0,0,1,130.57,109Zm-.64-2a1.29,1.29,0,0,0-.51-.5,1.37,1.37,0,0,0-.7-.17,1.19,1.19,0,0,0-.62.17,1.33,1.33,0,0,0-.5.5,1.72,1.72,0,0,0,0,1.61,1.33,1.33,0,0,0,.5.5,1.19,1.19,0,0,0,.62.17,1.37,1.37,0,0,0,.7-.17,1.29,1.29,0,0,0,.51-.5,1.8,1.8,0,0,0,0-1.61Z" transform="translate(-63.3 -9.3)"/><path d="M131.88,109.7a1.89,1.89,0,0,1-.69-.76,2.46,2.46,0,0,1-.24-1.12,2.34,2.34,0,0,1,.25-1.12,1.82,1.82,0,0,1,.72-.76,2.07,2.07,0,0,1,1.07-.27,2,2,0,0,1,1,.26,1.64,1.64,0,0,1,.67.73,2.48,2.48,0,0,1,.23,1.13v.13a.54.54,0,0,1,0,.08h-3.51v-.61h3l-.29.42a.64.64,0,0,0,.06-.14.53.53,0,0,0,0-.16,1.31,1.31,0,0,0-.14-.64,1.18,1.18,0,0,0-.41-.42,1.2,1.2,0,0,0-.61-.15,1.3,1.3,0,0,0-.7.18,1,1,0,0,0-.45.5,2.06,2.06,0,0,0-.17.8,1.85,1.85,0,0,0,.16.82,1.13,1.13,0,0,0,.44.52,1.37,1.37,0,0,0,.72.18,1.41,1.41,0,0,0,1.29-.74l.58.37a2.16,2.16,0,0,1-.81.78,2.44,2.44,0,0,1-1.15.26A1.94,1.94,0,0,1,131.88,109.7Z" transform="translate(-63.3 -9.3)"/><path d="M135.39,105.76l1.17,2.91,1.16-2.91h.81l-2,4.44-2-4.44Z" transform="translate(-63.3 -9.3)"/><path d="M139.11,109.7a1.89,1.89,0,0,1-.69-.76,2.46,2.46,0,0,1-.24-1.12,2.34,2.34,0,0,1,.25-1.12,1.82,1.82,0,0,1,.72-.76,2.07,2.07,0,0,1,1.07-.27,2,2,0,0,1,1,.26,1.7,1.7,0,0,1,.67.73,2.62,2.62,0,0,1,.23,1.13v.13a.54.54,0,0,1,0,.08h-3.52v-.61h3l-.29.42a.64.64,0,0,0,.06-.14,1.37,1.37,0,0,0,0-.16,1.44,1.44,0,0,0-.14-.64,1.18,1.18,0,0,0-.41-.42,1.23,1.23,0,0,0-.61-.15,1.28,1.28,0,0,0-.7.18,1,1,0,0,0-.45.5,1.89,1.89,0,0,0-.17.8,2,2,0,0,0,.15.82,1.21,1.21,0,0,0,.45.52,1.37,1.37,0,0,0,.72.18,1.41,1.41,0,0,0,1.29-.74l.58.37a2.16,2.16,0,0,1-.81.78,2.44,2.44,0,0,1-1.15.26A1.94,1.94,0,0,1,139.11,109.7Z" transform="translate(-63.3 -9.3)"/><path d="M143.34,109.88h-.72v-4.12h.72Zm1-3.48a.81.81,0,0,0-.72.08.71.71,0,0,0-.21.37,2.12,2.12,0,0,0,0,.53H143a2.07,2.07,0,0,1,.18-.88,1.64,1.64,0,0,1,.45-.6.9.9,0,0,1,.56-.23,1.42,1.42,0,0,1,.42.06.79.79,0,0,1,.35.23l-.39.59A1,1,0,0,0,144.32,106.4Z" transform="translate(-63.3 -9.3)"/><path d="M145.6,109a.66.66,0,0,0,.31.26,1.11,1.11,0,0,0,.46.09,1.33,1.33,0,0,0,.6-.14,1.18,1.18,0,0,0,.42-.38,1.05,1.05,0,0,0,.15-.57l.15.54a.92.92,0,0,1-.24.65,1.45,1.45,0,0,1-.58.39,2.09,2.09,0,0,1-.69.12,1.66,1.66,0,0,1-.7-.15,1.29,1.29,0,0,1-.52-.46,1.24,1.24,0,0,1-.2-.71,1.21,1.21,0,0,1,.43-1,1.75,1.75,0,0,1,1.18-.36,2.62,2.62,0,0,1,.75.1,1.79,1.79,0,0,1,.48.24,1.09,1.09,0,0,1,.24.21v.42a2.22,2.22,0,0,0-.64-.31,2.71,2.71,0,0,0-.71-.09,1.55,1.55,0,0,0-.57.09.66.66,0,0,0-.33.25.78.78,0,0,0,0,.78Zm-.57-2.83a3.65,3.65,0,0,1,.64-.34,2.61,2.61,0,0,1,1-.17,2.26,2.26,0,0,1,.85.15,1.23,1.23,0,0,1,.56.43,1.14,1.14,0,0,1,.2.68v2.95h-.72V107a.77.77,0,0,0-.07-.36.53.53,0,0,0-.2-.22.82.82,0,0,0-.3-.11,1.37,1.37,0,0,0-.36,0,2.36,2.36,0,0,0-.55.07,2.31,2.31,0,0,0-.41.17l-.27.17Z" transform="translate(-63.3 -9.3)"/><path d="M148.86,106.67a2,2,0,0,1,.75-.74,2.09,2.09,0,0,1,1-.26,1.61,1.61,0,0,1,.9.26,1.79,1.79,0,0,1,.61.74,2.88,2.88,0,0,1,.21,1.15,2.85,2.85,0,0,1-.21,1.15,1.73,1.73,0,0,1-.61.74,1.54,1.54,0,0,1-.9.26,2,2,0,0,1-1-.26,1.91,1.91,0,0,1-.75-.74,2.3,2.3,0,0,1-.28-1.15A2.33,2.33,0,0,1,148.86,106.67Zm.53,3.48a1,1,0,0,0,.16.55,1.25,1.25,0,0,0,.46.42,1.54,1.54,0,0,0,.7.15,1.34,1.34,0,0,0,.61-.15,1.18,1.18,0,0,0,.51-.48,1.64,1.64,0,0,0,.2-.85v-4h.72v4a2.19,2.19,0,0,1-.3,1.19,1.88,1.88,0,0,1-.76.72,2.12,2.12,0,0,1-1,.24,2.36,2.36,0,0,1-1.06-.22,1.8,1.8,0,0,1-.73-.63,1.74,1.74,0,0,1-.25-.94Zm.11-1.52a1.25,1.25,0,0,0,.52.5,1.37,1.37,0,0,0,.7.17,1.18,1.18,0,0,0,.61-.17,1.27,1.27,0,0,0,.5-.5,1.48,1.48,0,0,0,.2-.81,1.77,1.77,0,0,0-.11-.63,1.49,1.49,0,0,0-.31-.46,1.55,1.55,0,0,0-.43-.29,1.25,1.25,0,0,0-.46-.09,1.37,1.37,0,0,0-.7.17,1.25,1.25,0,0,0-.52.5,1.8,1.8,0,0,0,0,1.61Z" transform="translate(-63.3 -9.3)"/><path d="M154.1,109.7a1.76,1.76,0,0,1-.69-.76,2.59,2.59,0,0,1,0-2.24,1.8,1.8,0,0,1,.71-.76,2.1,2.1,0,0,1,1.07-.27,2,2,0,0,1,1.05.26,1.62,1.62,0,0,1,.66.73,2.48,2.48,0,0,1,.24,1.13s0,.08,0,.13V108h-3.52v-.61h2.95l-.28.42.05-.14a.61.61,0,0,0,0-.16,1.32,1.32,0,0,0-.15-.64,1.11,1.11,0,0,0-1-.57,1.3,1.3,0,0,0-.7.18,1.1,1.1,0,0,0-.45.5,1.9,1.9,0,0,0-.16.8,2,2,0,0,0,.15.82,1.1,1.1,0,0,0,.45.52,1.31,1.31,0,0,0,.71.18,1.38,1.38,0,0,0,1.29-.74l.58.37a2.16,2.16,0,0,1-.81.78,2.44,2.44,0,0,1-1.15.26A1.88,1.88,0,0,1,154.1,109.7Z" transform="translate(-63.3 -9.3)"/></svg>