<svg id="Layer_1" data-name="Layer 1" xmlns="http://www.w3.org/2000/svg" viewBox="0 0 123 123"><defs><style>.cls-1{fill:#ea98b6;}.cls-2{font-size:21.55px;font-family:Futura-Medium, Futura;font-weight:500;}.cls-2,.cls-4{fill:#fffefd;}.cls-3{letter-spacing:0.01em;}.cls-4{stroke:#fff;}.cls-4,.cls-5,.cls-6{stroke-miterlimit:10;}.cls-4,.cls-6{stroke-width:2px;}.cls-5{fill:#fff;stroke-width:1.5px;}.cls-5,.cls-6{stroke:#ea98b6;}.cls-6{fill:none;}</style></defs><circle class="cls-1" cx="61.5" cy="61.5" r="61.5"/><text class="cls-2" transform="translate(13.19 93.45)">NightO<tspan class="cls-3" x="73.44" y="0">w</tspan><tspan x="90.31" y="0">l</tspan></text><circle class="cls-4" cx="61.03" cy="47.33" r="19.92"/><path class="cls-5" d="M126,70.88c-.54-15.84-13.67-22.13-18.64-23.75-7.44-2.41-3.85-13.78-3.85-13.78l8.65,9.06" transform="translate(-64.97 -10.97)"/><path class="cls-5" d="M126,70.88c.54-15.84,13.67-22.13,18.64-23.75,7.44-2.41,3.85-13.78,3.85-13.78l-8.65,9.06" transform="translate(-64.97 -10.97)"/><path class="cls-1" d="M120.72,56.09a4.5,4.5,0,0,1-8-2.77,4.45,4.45,0,0,1,.94-2.74" transform="translate(-64.97 -10.97)"/><path class="cls-1" d="M130.58,56.57a4.49,4.49,0,0,0,7.1-5.5" transform="translate(-64.97 -10.97)"/><path class="cls-1" d="M126.05,59.42a11.41,11.41,0,0,0,0,13A12.06,12.06,0,0,0,126.05,59.42Z" transform="translate(-64.97 -10.97)"/><path class="cls-6" d="M122.82,58.8a7.66,7.66,0,0,1-13.7-4.72,9.09,9.09,0,0,1,1.65-5.57" transform="translate(-64.97 -10.97)"/><path class="cls-6" d="M128.73,59.28a7.66,7.66,0,0,0,13.7-4.72A9,9,0,0,0,140.77,49" transform="translate(-64.97 -10.97)"/></svg>