<svg id="Layer_1" data-name="Layer 1" xmlns="http://www.w3.org/2000/svg" viewBox="0 0 123 123"><defs><style>.cls-1{fill:#ea98b6;}.cls-2{font-size:21.55px;font-family:Futura-Medium, Futura;font-weight:500;}.cls-2,.cls-4{fill:#fffefd;}.cls-3{letter-spacing:0.01em;}.cls-4{stroke:#fff;}.cls-4,.cls-5,.cls-6{stroke-miterlimit:10;}.cls-4,.cls-6{stroke-width:2px;}.cls-5{fill:#fff;stroke-width:1.5px;}.cls-5,.cls-6{stroke:#ea98b6;}.cls-6{fill:none;}</style></defs><circle class="cls-1" cx="61.5" cy="61.5" r="61.5"/><text class="cls-2" transform="translate(13.19 93.41)">NightO<tspan class="cls-3" x="73.44" y="0">w</tspan><tspan x="90.31" y="0">l</tspan></text><circle class="cls-4" cx="61.03" cy="46.78" r="21.5"/><path class="cls-5" d="M126,71.33c-.58-17.1-14.75-23.88-20.11-25.63-8-2.6-4.16-14.87-4.16-14.87l9.34,9.78" transform="translate(-64.97 -10.97)"/><path class="cls-5" d="M126,71.33c.58-17.1,14.75-23.88,20.11-25.63,8-2.6,4.16-14.87,4.16-14.87l-9.34,9.78" transform="translate(-64.97 -10.97)"/><path class="cls-1" d="M120.3,55.37a4.85,4.85,0,0,1-8.67-3,4.8,4.8,0,0,1,1-3" transform="translate(-64.97 -10.97)"/><path class="cls-1" d="M130.94,55.89A4.85,4.85,0,0,0,138.61,50" transform="translate(-64.97 -10.97)"/><path class="cls-1" d="M126.06,59a12.3,12.3,0,0,0,0,14.06A13,13,0,0,0,126.06,59Z" transform="translate(-64.97 -10.97)"/><path class="cls-6" d="M122.57,58.3a8.28,8.28,0,0,1-14.79-5.1,9.81,9.81,0,0,1,1.79-6" transform="translate(-64.97 -10.97)"/><path class="cls-6" d="M128.94,58.81a8.27,8.27,0,0,0,14.79-5.1c0-1.89-.45-4.45-1.79-6" transform="translate(-64.97 -10.97)"/></svg>