<svg id="Layer_1" data-name="Layer 1" xmlns="http://www.w3.org/2000/svg" viewBox="0 0 252 144"><defs><style>.cls-1{fill:#ea98b6;}.cls-2{font-size:20px;font-family:Futura-Medium, Futura;font-weight:500;letter-spacing:0.05em;}.cls-2,.cls-5,.cls-8{fill:#fffefd;}.cls-3{letter-spacing:0.06em;}.cls-4{letter-spacing:0.05em;}.cls-5{stroke:#fff;}.cls-5,.cls-6,.cls-7{stroke-miterlimit:10;}.cls-5,.cls-7{stroke-width:2px;}.cls-6{fill:#fff;stroke-width:1.5px;}.cls-6,.cls-7{stroke:#ea98b6;}.cls-7{fill:none;}</style></defs><rect class="cls-1" width="252" height="144"/><text class="cls-2" transform="translate(77.69 108.87)">NightO<tspan class="cls-3" x="74.02" y="0">w</tspan><tspan class="cls-4" x="90.65" y="0">l</tspan></text><circle class="cls-5" cx="126" cy="61.91" r="22.13"/><path class="cls-6" d="M126,75.89c-.6-17.61-15.18-24.59-20.71-26.39C97,46.82,101,34.2,101,34.2l9.62,10" transform="translate(0)"/><path class="cls-6" d="M126,75.89c.6-17.61,15.18-24.59,20.71-26.39C155,46.82,151,34.2,151,34.2l-9.62,10" transform="translate(0)"/><path class="cls-1" d="M120.13,59.45a5,5,0,0,1-7.89-6.11" transform="translate(0)"/><path class="cls-1" d="M131.09,60A5,5,0,0,0,139,53.87" transform="translate(0)"/><path class="cls-1" d="M126.06,63.16a12.68,12.68,0,0,0,0,14.48A13.42,13.42,0,0,0,126.06,63.16Z" transform="translate(0)"/><path class="cls-7" d="M122.47,62.47a8.52,8.52,0,0,1-15.23-5.25c0-1.95.47-4.58,1.84-6.18" transform="translate(0)"/><path class="cls-7" d="M129,63a8.52,8.52,0,0,0,15.23-5.25c0-2-.47-4.58-1.85-6.19" transform="translate(0)"/><rect class="cls-8" y="6.51" width="252" height="4"/></svg>