<svg id="Layer_1" data-name="Layer 1" xmlns="http://www.w3.org/2000/svg" xmlns:xlink="http://www.w3.org/1999/xlink" viewBox="0 0 252 144"><defs><style>.cls-1{fill:#f5e3be;}.cls-2{fill:#70ad32;}.cls-10,.cls-11,.cls-12,.cls-13,.cls-14,.cls-15,.cls-18,.cls-2,.cls-4,.cls-5,.cls-6,.cls-7,.cls-8,.cls-9{stroke:#6e9622;stroke-miterlimit:10;stroke-width:0.1px;}.cls-3{fill:#a67d3d;}.cls-4{fill:url(#linear-gradient);}.cls-5{fill:url(#linear-gradient-2);}.cls-6{fill:url(#linear-gradient-3);}.cls-7{fill:url(#linear-gradient-4);}.cls-8{fill:url(#linear-gradient-5);}.cls-9{fill:url(#linear-gradient-6);}.cls-10{fill:url(#linear-gradient-7);}.cls-11{fill:url(#linear-gradient-8);}.cls-12{fill:url(#linear-gradient-9);}.cls-13{fill:url(#linear-gradient-10);}.cls-14{fill:url(#linear-gradient-11);}.cls-15{fill:url(#linear-gradient-12);}.cls-16{fill:#b18e59;}.cls-17{fill:#c4a676;}.cls-18{fill:url(#linear-gradient-13);}.cls-19{fill:#896018;}.cls-20{fill:#d1b182;}.cls-21{fill:#6eb727;}</style><linearGradient id="linear-gradient" x1="6.13" y1="138.11" x2="6.31" y2="137.68" gradientTransform="matrix(66.79, 0, 0, -29.97, -329.59, 4208.51)" gradientUnits="userSpaceOnUse"><stop offset="0" stop-color="#85d535"/><stop offset="0.3" stop-color="#71b62d"/><stop offset="1" stop-color="#436b1b"/></linearGradient><linearGradient id="linear-gradient-2" x1="5.42" y1="138.07" x2="5.11" y2="137.9" gradientTransform="matrix(66.79, 0, 0, -29.97, -251.02, 4208.51)" gradientUnits="userSpaceOnUse"><stop offset="0" stop-color="#85d535"/><stop offset="0.67" stop-color="#71b62d"/><stop offset="1" stop-color="#436b1b"/></linearGradient><linearGradient id="linear-gradient-3" x1="8.37" y1="139.95" x2="8.69" y2="139.63" gradientTransform="matrix(43.27, 0, 0, -52.95, -280.69, 7461.82)" gradientUnits="userSpaceOnUse"><stop offset="0" stop-color="#85d535"/><stop offset="0.58" stop-color="#71b62d"/><stop offset="1" stop-color="#436b1b"/></linearGradient><linearGradient id="linear-gradient-4" x1="6.82" y1="139.26" x2="6.54" y2="138.97" gradientTransform="matrix(49.89, 0, 0, -46.25, -233.41, 6493.6)" gradientUnits="userSpaceOnUse"><stop offset="0" stop-color="#85d535"/><stop offset="0.61" stop-color="#71b62d"/><stop offset="1" stop-color="#436b1b"/></linearGradient><linearGradient id="linear-gradient-5" x1="6.05" y1="136.12" x2="6.13" y2="135.65" gradientTransform="matrix(68.83, 0, 0, -25.46, -337.71, 3527.18)" xlink:href="#linear-gradient"/><linearGradient id="linear-gradient-6" x1="8.45" y1="137.6" x2="8.62" y2="137.17" gradientTransform="matrix(43.04, 0, 0, -30.95, -280.25, 4320.52)" xlink:href="#linear-gradient"/><linearGradient id="linear-gradient-7" x1="5.21" y1="136.1" x2="4.98" y2="135.64" gradientTransform="matrix(68.83, 0, 0, -25.45, -249.02, 3526.88)" xlink:href="#linear-gradient"/><linearGradient id="linear-gradient-8" x1="16.64" y1="137.22" x2="16.5" y2="136.75" gradientTransform="matrix(19, 0, 0, -34.44, -224.51, 4771.32)" xlink:href="#linear-gradient"/><linearGradient id="linear-gradient-9" x1="12.24" y1="133.76" x2="12.09" y2="133.3" gradientTransform="matrix(24.55, 0, 0, -23.21, -198.25, 3153.46)" xlink:href="#linear-gradient"/><linearGradient id="linear-gradient-10" x1="7.72" y1="137.51" x2="7.31" y2="137.22" gradientTransform="matrix(43.05, 0, 0, -30.95, -229.13, 4320.52)" xlink:href="#linear-gradient"/><linearGradient id="linear-gradient-11" x1="14.28" y1="132.36" x2="14.14" y2="131.9" gradientTransform="matrix(21.19, 0, 0, -21.77, -204.25, 2924.24)" xlink:href="#linear-gradient"/><linearGradient id="linear-gradient-12" x1="12.5" y1="138.82" x2="12.36" y2="138.36" gradientTransform="matrix(24.93, 0, 0, -42.93, -214.66, 6006.29)" gradientUnits="userSpaceOnUse"><stop offset="0" stop-color="#85d535"/><stop offset="0.45" stop-color="#71b62d"/><stop offset="1" stop-color="#436b1b"/></linearGradient><linearGradient id="linear-gradient-13" x1="9.85" y1="140.7" x2="10.31" y2="141.08" gradientTransform="matrix(34.52, 0, 0, -49.53, -258.54, 7060.73)" gradientUnits="userSpaceOnUse"><stop offset="0" stop-color="#85d535"/><stop offset="0.54" stop-color="#71b62d"/><stop offset="0.72" stop-color="#68a729"/><stop offset="1" stop-color="#436b1b"/></linearGradient></defs><rect class="cls-1" width="252" height="144"/><path id="trunk" class="cls-2" d="M96.68,81.4c-5-13.56,1.11-27.13,1.11-27.13l-4.4-1.86c-7.11,12.85-1.69,29-1.69,29Z"/><g id="pot"><path id="Path_16" data-name="Path 16" class="cls-3" d="M86.63,79.67H100a3.82,3.82,0,0,1,3.83,3.83h0V98.18A3.82,3.82,0,0,1,100,102H86.63a3.9,3.9,0,0,1-2-.57,3.82,3.82,0,0,1-1.81-3.25V83.5a3.83,3.83,0,0,1,3.83-3.83Z"/></g><path id="leaf" class="cls-4" d="M90.88,69.85s-4.1,6.33-15.7,1.7c0,0-3.49-1.25-3.48,1.69C71.7,75,74,76.18,74,76.18S87.94,84.3,90.88,69.85Z"/><path id="leaf-2" class="cls-5" d="M94.27,69.85s4.1,6.33,15.7,1.7c0,0,3.49-1.25,3.48,1.69,0,1.78-2.32,2.94-2.32,2.94S97.21,84.3,94.27,69.85Z"/><path id="leaf-3" class="cls-6" d="M91.42,62.27s-16.24,0-11.6-12.75c0,0,1-3.14,3.48-2.32,0,0,2.38.8,1.9,2.76-.74,3-4.22,7.67,6.22,11.15Z"/><path id="leaf-4" class="cls-7" d="M94.47,60.64s15.8,3.73,14.22-9.75c0,0-.27-3.29-2.85-3,0,0-2.51.23-2.49,2.25,0,3.12,2.34,8.44-8.61,9.42Z"/><path id="leaf-5" class="cls-8" d="M89.72,66.09s-5.26,2-14.54-2.66c0,0-3.52-2.32-4.64-1.16-1.82,1.9,1.16,4.64,1.16,4.64S76.34,72.71,89.72,66.09Z"/><path id="leaf-6" class="cls-9" d="M91.42,66.16s-6.56,8.2-11.48,0c0,0-2-3.74,0-4.92,2.2-1.29,3.28,1.64,3.28,1.64s1.64,4.92,8.2,2.19Z"/><path id="leaf-7" class="cls-10" d="M95.43,66.09s5.26,2,14.54-2.66c0,0,3.52-2.32,4.64-1.16,1.82,1.9-1.16,4.64-1.16,4.64S108.81,72.71,95.43,66.09Z"/><path id="leaf-8" class="cls-11" d="M93.41,55s-6.71-5.15-5-8.58c1.29-2.54,3.57-.62,3.57-.62a3.9,3.9,0,0,1,1.58,3.29C93.4,50.77,92.77,51.19,93.41,55Z"/><path id="leaf-9" class="cls-12" d="M97.29,54.66s8.35-.74,6.88-5.14c-1.16-3.48-5.49.1-5.49.1S99.53,51.83,97.29,54.66Z"/><path id="leaf-10" class="cls-13" d="M93.74,66.16s6.55,8.2,11.47,0c0,0,2-3.74,0-4.92-2.2-1.29-3.28,1.64-3.28,1.64s-1.64,4.92-8.19,2.19Z"/><path id="leaf-11" class="cls-14" d="M99.36,48.41a11.14,11.14,0,0,0,1.33-3.53c0-2.32-2.56-3.36-4.64-2.32-2.31,1.16-1.16,4.64-1.16,4.64S98.2,44.93,99.36,48.41Z"/><path id="leaf-12" class="cls-15" d="M93.6,58.56c8.19-4.49,6-10.33,6-10.33S98.48,44.73,95,47c-4.13,2.65-1.36,11.57-1.36,11.57Z"/><rect id="pot-2" class="cls-16" x="88.15" y="81.01" width="14.66" height="19.71" rx="3.45"/><path id="pot-3" class="cls-17" d="M99.18,82.14h0a2.21,2.21,0,0,1,2.2,2.2h0v13a2.2,2.2,0,0,1-2.2,2.2h0A2.2,2.2,0,0,1,97,97.39v-13A2.21,2.21,0,0,1,99.18,82.14Z"/><path id="leaf-13" class="cls-18" d="M91.94,74.15s-.61,6.92-5.16,7.83c-5.8,1.16-3.48,4.64-3.48,4.64s2.32,3.48,6.42.65,2.85-13.12,2.85-13.12Z"/><g id="title_text" data-name="title text"><path id="peachy_plant" data-name="peachy plant" class="cls-19" d="M117.93,65.73h2.66a15,15,0,0,1,3,.18,3.37,3.37,0,0,1,1.3.64,3.06,3.06,0,0,1,.93,1.15,3.82,3.82,0,0,1,0,3.13,3,3,0,0,1-.94,1.14,3.77,3.77,0,0,1-1.5.64,17.37,17.37,0,0,1-3.14.19h-.78v5.93h-1.53Zm1.53,5.59h2a3.52,3.52,0,0,0,2.44-.56,2,2,0,0,0,.65-1.51c0-1.35-1-2-3-2h-2.13Zm18.23,2.83H129.2a3.72,3.72,0,0,0,1.08,2.56,3.25,3.25,0,0,0,2.35,1,3.84,3.84,0,0,0,3.55-2.29l1.25.64a6.13,6.13,0,0,1-2,2.28,4.88,4.88,0,0,1-2.71.74,4.77,4.77,0,0,1-3.61-1.5,5.32,5.32,0,0,1,0-7.24,4.67,4.67,0,0,1,3.54-1.51,4.83,4.83,0,0,1,3.54,1.43,5.45,5.45,0,0,1,1.47,3.92Zm-1.63-1.3a3.09,3.09,0,0,0-1.21-1.93,3.53,3.53,0,0,0-2.16-.7,3.27,3.27,0,0,0-3.31,2.63Zm13.19,5.88h-1.44V77.31a4.75,4.75,0,0,1-7.16.22,5.17,5.17,0,0,1,0-7.23,4.86,4.86,0,0,1,3.59-1.5,4.48,4.48,0,0,1,3.56,1.72V69.05h1.44Zm-5-1a3.47,3.47,0,0,0,2.54-1.07A3.6,3.6,0,0,0,147.88,74a3.66,3.66,0,0,0-1-2.66,3.56,3.56,0,0,0-5.14,0,3.78,3.78,0,0,0,0,5.24,3.42,3.42,0,0,0,2.56,1.11Zm16.83-.92a5,5,0,0,1-2,1.7,6.27,6.27,0,0,1-2.67.59,5.18,5.18,0,0,1-3.74-1.48,4.88,4.88,0,0,1-1.5-3.6,5,5,0,0,1,1.51-3.65,5.24,5.24,0,0,1,3.91-1.52,5.68,5.68,0,0,1,2.62.62,4.75,4.75,0,0,1,1.87,1.74l-1.15.73a4.1,4.1,0,0,0-3.39-1.68,3.87,3.87,0,0,0-2.77,1.05,3.44,3.44,0,0,0-1.12,2.62,3.64,3.64,0,0,0,1.1,2.68,3.73,3.73,0,0,0,2.79,1.12A4.28,4.28,0,0,0,160,76Zm10.43,2h-1.48V74.11a15.1,15.1,0,0,0-.08-1.9,2.93,2.93,0,0,0-.36-1,1.89,1.89,0,0,0-.77-.74,2.54,2.54,0,0,0-1.18-.26,2.81,2.81,0,0,0-1.3.32,3.17,3.17,0,0,0-1.07.89,3.33,3.33,0,0,0-.61,1.2,12.21,12.21,0,0,0-.17,2.56v3.59h-1.47V65.41h1.47v5.1a4.32,4.32,0,0,1,3.41-1.71,3.47,3.47,0,0,1,1.9.54,3.34,3.34,0,0,1,1.28,1.5,7.56,7.56,0,0,1,.43,2.92Zm10.51-9.68-5.74,13.1h-1.53l1.87-4.26-3.93-8.84h1.53l3.18,7.08,3.07-7.08ZM117.93,87.39h2.66a15.76,15.76,0,0,1,3,.18,3.52,3.52,0,0,1,1.3.64,3.14,3.14,0,0,1,.93,1.15,3.82,3.82,0,0,1,0,3.13,2.89,2.89,0,0,1-.94,1.14,3.77,3.77,0,0,1-1.5.64,17.37,17.37,0,0,1-3.14.19h-.78v5.93h-1.53Zm1.53,5.6h2a3.56,3.56,0,0,0,2.44-.57,2,2,0,0,0,.65-1.51c0-1.35-1-2-3-2h-2.13Zm10,7.4H128V87.07h1.46Zm11.82,0h-1.44V99a4.78,4.78,0,0,1-3.64,1.74,4.72,4.72,0,0,1-3.52-1.52,5,5,0,0,1-1.47-3.62A5,5,0,0,1,132.67,92a4.86,4.86,0,0,1,3.59-1.5,4.46,4.46,0,0,1,3.56,1.73V90.71h1.44Zm-5-1a3.46,3.46,0,0,0,2.54-1.06,3.61,3.61,0,0,0,1.06-2.66,3.66,3.66,0,0,0-1-2.66,3.51,3.51,0,0,0-2.57-1.08A3.44,3.44,0,0,0,133.71,93a3.78,3.78,0,0,0,0,5.24,3.42,3.42,0,0,0,2.56,1.11Zm15.85,1h-1.45V95.77a9.91,9.91,0,0,0-.15-2.17,3,3,0,0,0-.45-1,1.71,1.71,0,0,0-.74-.59,2.78,2.78,0,0,0-1.1-.2,2.66,2.66,0,0,0-1.27.32,3.29,3.29,0,0,0-1.07.89,3.46,3.46,0,0,0-.61,1.21,12.11,12.11,0,0,0-.17,2.55v3.59h-1.47V90.71h1.47v1.46a4.34,4.34,0,0,1,3.41-1.71,3.48,3.48,0,0,1,1.9.55,3.26,3.26,0,0,1,1.28,1.49,7.56,7.56,0,0,1,.43,2.92Zm6.72-8.4h-1.92v6.78c0,.25,0,.4.11.46a1.06,1.06,0,0,0,.53.08h.85v1.26a9.42,9.42,0,0,1-1.29.14,1.69,1.69,0,0,1-1.27-.42,1.8,1.8,0,0,1-.4-1.32V92H153.8V90.71h1.67V87.07h1.47v3.64h1.92Z"/></g><rect class="cls-20" x="84" y="6" width="84" height="4"/><rect class="cls-3" y="6" width="84" height="4"/><rect class="cls-21" x="168" y="6" width="84" height="4"/></svg>