<svg id="Layer_1" data-name="Layer 1" xmlns="http://www.w3.org/2000/svg" viewBox="0 0 123 123"><defs><style>.cls-1{fill:#ffcdbb;}.cls-2{fill:#f5bd55;}.cls-11,.cls-13,.cls-15,.cls-17,.cls-19,.cls-21,.cls-23,.cls-24,.cls-3,.cls-5,.cls-7,.cls-9{fill:none;}.cls-3{stroke:#e39700;}.cls-10,.cls-11,.cls-12,.cls-13,.cls-14,.cls-15,.cls-17,.cls-19,.cls-3,.cls-4,.cls-5,.cls-6,.cls-7,.cls-8,.cls-9{stroke-width:0.25px;}.cls-10,.cls-12,.cls-14,.cls-4,.cls-6,.cls-8{fill:#f79106;stroke:#e38420;}.cls-11,.cls-13,.cls-15,.cls-5,.cls-7,.cls-9{stroke:#e38421;}.cls-8{stroke-miterlimit:4;}.cls-9{stroke-miterlimit:4;}.cls-14{stroke-miterlimit:4;}.cls-15{stroke-miterlimit:4;}.cls-16{fill:#e39723;}.cls-17{stroke:#e39723;}.cls-18{fill:#e05858;}.cls-19{stroke:#c41d1d;}.cls-20{fill:#a01616;}.cls-21,.cls-23,.cls-24{stroke:#b51c1c;stroke-width:0.14px;}.cls-22{fill:#ad1a1a;}.cls-25{fill:#c41d1d;}.cls-26{fill:#bf8c82;}</style></defs><circle class="cls-1" cx="61.5" cy="61.5" r="61.5"/><g id="carrot_jar" data-name="carrot jar"><g id="carrot_jar-2" data-name="carrot jar-2"><g id="jar-2"><g id="jar_contents-2" data-name="jar contents-2"><g id="jar-3"><rect class="cls-2" x="39.77" y="22.7" width="20.31" height="34.53" rx="6.51"/><rect class="cls-3" x="39.87" y="22.8" width="20.1" height="34.32" rx="6.4"/></g><g id="carrot"><path id="Path_5" data-name="Path 5" class="cls-4" d="M110.22,53.32l0-16.2-3.39.16,1.22,16.15Z" transform="translate(-64.5 -10.5)"/><line id="Line_5" data-name="Line 5" class="cls-5" x1="45.7" y1="28.4" x2="44.1" y2="28.48"/><line id="Line_6" data-name="Line 6" class="cls-5" x1="45.65" y1="31.4" x2="43.86" y2="31.5"/><line id="Line_7" data-name="Line 7" class="cls-5" x1="45.67" y1="39.4" x2="44.88" y2="39.44"/><line id="Line_8" data-name="Line 8" class="cls-5" x1="45.7" y1="36" x2="44.5" y2="36.06"/></g><g id="carrot-2"><path id="Path_5-2" data-name="Path 5-2" class="cls-6" d="M111.7,65.29l-2.65-19.17-4,.76,4.12,18.89Z" transform="translate(-64.5 -10.5)"/><line id="Line_5-2" data-name="Line 5-2" class="cls-7" x1="44.78" y1="37.74" x2="42.91" y2="38.1"/><line id="Line_6-2" data-name="Line 6-2" class="cls-7" x1="45.23" y1="41.3" x2="43.12" y2="41.71"/><line id="Line_7-2" data-name="Line 7-2" class="cls-7" x1="46.58" y1="50.75" x2="45.64" y2="50.94"/><line id="Line_8-2" data-name="Line 8-2" class="cls-7" x1="46.04" y1="46.73" x2="44.64" y2="47"/></g><g id="carrot-3"><path id="Path_5-3" data-name="Path 5-3" class="cls-8" d="M113.29,55.81,116,36.65l-4-.37-1.25,19.3Z" transform="translate(-64.5 -10.5)"/><line id="Line_5-3" data-name="Line 5-3" class="cls-9" x1="51.16" y1="28.25" x2="49.26" y2="28.09"/><line id="Line_6-3" data-name="Line 6-3" class="cls-9" x1="50.61" y1="31.8" x2="48.48" y2="31.61"/><line id="Line_7-3" data-name="Line 7-3" class="cls-9" x1="49.31" y1="41.26" x2="48.36" y2="41.17"/><line id="Line_8-3" data-name="Line 8-3" class="cls-9" x1="49.9" y1="37.24" x2="48.47" y2="37.11"/></g><g id="carrot-4"><path id="Path_5-4" data-name="Path 5-4" class="cls-10" d="M113.7,50.66l-.85,15.47,3.25,0-.35-15.49Z" transform="translate(-64.5 -10.5)"/><line id="Line_5-4" data-name="Line 5-4" class="cls-11" x1="48.5" y1="53.93" x2="50.02" y2="53.93"/><line id="Line_6-4" data-name="Line 6-4" class="cls-11" x1="48.69" y1="51.07" x2="50.41" y2="51.07"/><line id="Line_7-4" data-name="Line 7-4" class="cls-11" x1="49.07" y1="43.43" x2="49.83" y2="43.43"/><line id="Line_8-4" data-name="Line 8-4" class="cls-11" x1="48.88" y1="46.67" x2="50.02" y2="46.67"/></g><g id="carrot-5"><path id="Path_5-5" data-name="Path 5-5" class="cls-10" d="M117.07,36.89l-1,18.09,3.8,0-.41-18.1Z" transform="translate(-64.5 -10.5)"/><line id="Line_5-5" data-name="Line 5-5" class="cls-11" x1="51.75" y1="42.5" x2="53.54" y2="42.5"/><line id="Line_6-5" data-name="Line 6-5" class="cls-11" x1="51.98" y1="39.15" x2="53.99" y2="39.15"/><line id="Line_7-5" data-name="Line 7-5" class="cls-11" x1="52.43" y1="30.21" x2="53.32" y2="30.21"/><line id="Line_8-5" data-name="Line 8-5" class="cls-11" x1="52.2" y1="34.01" x2="53.54" y2="34.01"/></g><g id="carrot-6"><path id="Path_5-6" data-name="Path 5-6" class="cls-12" d="M118.39,57.83,124,40.61l-3.66-1L116.07,57.2Z" transform="translate(-64.5 -10.5)"/><line id="Line_5-6" data-name="Line 5-6" class="cls-13" x1="58.85" y1="31.99" x2="57.12" y2="31.52"/><line id="Line_6-6" data-name="Line 6-6" class="cls-13" x1="57.77" y1="35.16" x2="55.82" y2="34.64"/><line id="Line_7-6" data-name="Line 7-6" class="cls-13" x1="55.02" y1="43.68" x2="54.16" y2="43.45"/><line id="Line_8-6" data-name="Line 8-6" class="cls-13" x1="56.22" y1="40.07" x2="54.93" y2="39.72"/></g><g id="carrot-7"><path id="Path_5-7" data-name="Path 5-7" class="cls-14" d="M122.54,65.24l-3.43-17.79-3.69.9,4.79,17.46Z" transform="translate(-64.5 -10.5)"/><line id="Line_5-7" data-name="Line 5-7" class="cls-15" x1="54.93" y1="38.92" x2="53.2" y2="39.35"/><line id="Line_6-7" data-name="Line 6-7" class="cls-15" x1="55.53" y1="42.22" x2="53.58" y2="42.71"/><line id="Line_7-7" data-name="Line 7-7" class="cls-15" x1="57.26" y1="50.99" x2="56.39" y2="51.21"/><line id="Line_8-7" data-name="Line 8-7" class="cls-15" x1="56.55" y1="47.26" x2="55.25" y2="47.58"/></g><g id="carrot-8"><path id="Path_5-8" data-name="Path 5-8" class="cls-6" d="M115.56,59.9,112.9,40.73l-4,.76L113,60.38Z" transform="translate(-64.5 -10.5)"/><line id="Line_5-8" data-name="Line 5-8" class="cls-7" x1="48.63" y1="32.35" x2="46.76" y2="32.71"/><line id="Line_6-8" data-name="Line 6-8" class="cls-7" x1="49.08" y1="35.91" x2="46.97" y2="36.32"/><line id="Line_7-8" data-name="Line 7-8" class="cls-7" x1="50.43" y1="45.36" x2="49.5" y2="45.54"/><line id="Line_8-8" data-name="Line 8-8" class="cls-7" x1="49.89" y1="41.34" x2="48.49" y2="41.61"/></g></g></g></g><g id="carrot_lid" data-name="carrot lid"><g id="Path_7-2" data-name="Path 7-2"><path class="cls-2" d="M120.34,33.88H108.73c-.81,0-1.47-.5-1.47-1.11V31.34c0-.61.66-1.11,1.47-1.11h11.61c.81,0,1.47.5,1.47,1.11v1.43C121.81,33.38,121.15,33.88,120.34,33.88Z" transform="translate(-64.5 -10.5)"/><path class="cls-16" d="M108.73,30.33a1.56,1.56,0,0,0-1,.32.85.85,0,0,0-.38.69v1.43a.86.86,0,0,0,.38.69,1.62,1.62,0,0,0,1,.32h11.61a1.62,1.62,0,0,0,1-.32.86.86,0,0,0,.38-.69V31.34a.85.85,0,0,0-.38-.69,1.56,1.56,0,0,0-1-.32H108.73m0-.21h11.61a1.43,1.43,0,0,1,1.57,1.22v1.43A1.43,1.43,0,0,1,120.34,34H108.73a1.43,1.43,0,0,1-1.57-1.22V31.34A1.43,1.43,0,0,1,108.73,30.12Z" transform="translate(-64.5 -10.5)"/></g><path id="Path_9-2" data-name="Path 9-2" class="cls-17" d="M107.2,32h14.69" transform="translate(-64.5 -10.5)"/></g></g><g id="beet_jar" data-name="beet jar"><g id="beets"><g id="beet_jar-2" data-name="beet jar-2"><g id="jar-4"><rect class="cls-18" x="63.14" y="22.59" width="20.1" height="34.53" rx="6.51"/><rect class="cls-19" x="63.24" y="22.69" width="19.89" height="34.32" rx="6.4"/></g><g id="beet"><g id="Ellipse_15" data-name="Ellipse 15"><ellipse class="cls-20" cx="68.87" cy="45.23" rx="5.01" ry="5.09"/><ellipse class="cls-21" cx="68.87" cy="45.23" rx="4.91" ry="4.99"/></g><g id="Ellipse_16" data-name="Ellipse 16"><ellipse class="cls-20" cx="68.85" cy="45.32" rx="4.04" ry="4.09"/><ellipse class="cls-21" cx="68.85" cy="45.32" rx="3.93" ry="3.99"/></g><g id="Ellipse_17" data-name="Ellipse 17"><ellipse class="cls-20" cx="68.91" cy="45.31" rx="3.18" ry="3.2"/><ellipse class="cls-21" cx="68.91" cy="45.31" rx="3.07" ry="3.09"/></g><g id="Ellipse_18" data-name="Ellipse 18"><ellipse class="cls-20" cx="69" cy="45.37" rx="2.08" ry="2.2"/><ellipse class="cls-21" cx="69" cy="45.37" rx="1.97" ry="2.09"/></g><g id="Ellipse_19" data-name="Ellipse 19"><ellipse class="cls-20" cx="68.98" cy="45.46" rx="1.1" ry="1.2"/><ellipse class="cls-21" cx="68.98" cy="45.46" rx="1" ry="1.09"/></g><g id="Ellipse_20" data-name="Ellipse 20"><ellipse class="cls-22" cx="69.01" cy="45.49" rx="0.49" ry="0.5"/><ellipse class="cls-21" cx="69.01" cy="45.49" rx="0.38" ry="0.39"/></g></g><g id="beet-2"><g id="Ellipse_15-2" data-name="Ellipse 15-2"><ellipse class="cls-20" cx="70.35" cy="52" rx="4.14" ry="4.21"/><ellipse class="cls-21" cx="70.35" cy="52" rx="4.04" ry="4.1"/></g><g id="Ellipse_16-2" data-name="Ellipse 16-2"><ellipse class="cls-20" cx="70.33" cy="52.08" rx="3.34" ry="3.38"/><ellipse class="cls-21" cx="70.33" cy="52.08" rx="3.23" ry="3.28"/></g><g id="Ellipse_17-2" data-name="Ellipse 17-2"><ellipse class="cls-20" cx="70.37" cy="52.07" rx="2.63" ry="2.64"/><ellipse class="cls-21" cx="70.37" cy="52.07" rx="2.52" ry="2.54"/></g><g id="Ellipse_18-2" data-name="Ellipse 18-2"><ellipse class="cls-20" cx="70.45" cy="52.12" rx="1.72" ry="1.82"/><ellipse class="cls-21" cx="70.45" cy="52.12" rx="1.61" ry="1.71"/></g><g id="Ellipse_19-2" data-name="Ellipse 19-2"><ellipse class="cls-20" cx="70.43" cy="52.2" rx="0.91" ry="0.99"/><ellipse class="cls-21" cx="70.43" cy="52.2" rx="0.8" ry="0.89"/></g><g id="Ellipse_20-2" data-name="Ellipse 20-2"><ellipse class="cls-22" cx="70.45" cy="52.22" rx="0.4" ry="0.41"/><ellipse class="cls-21" cx="70.45" cy="52.22" rx="0.3" ry="0.31"/></g></g><g id="beet-3"><g id="Ellipse_15-3" data-name="Ellipse 15-3"><ellipse class="cls-20" cx="142" cy="61.38" rx="3.55" ry="4.51" transform="translate(-77.14 55.26) rotate(-25)"/><ellipse class="cls-23" cx="142" cy="61.38" rx="3.45" ry="4.4" transform="translate(-77.14 55.26) rotate(-25)"/></g><g id="Ellipse_16-3" data-name="Ellipse 16-3"><ellipse class="cls-20" cx="142.02" cy="61.46" rx="2.86" ry="3.62" transform="translate(-77.17 55.28) rotate(-25)"/><ellipse class="cls-23" cx="142.02" cy="61.46" rx="2.75" ry="3.52" transform="translate(-77.17 55.28) rotate(-25)"/></g><g id="Ellipse_17-3" data-name="Ellipse 17-3"><ellipse class="cls-20" cx="142.06" cy="61.44" rx="2.25" ry="2.83" transform="translate(-77.15 55.29) rotate(-25)"/><ellipse class="cls-23" cx="142.06" cy="61.44" rx="2.15" ry="2.72" transform="translate(-77.15 55.29) rotate(-25)"/></g><g id="Ellipse_18-3" data-name="Ellipse 18-3"><ellipse class="cls-20" cx="142.14" cy="61.46" rx="1.47" ry="1.94" transform="translate(-77.15 55.33) rotate(-25)"/><ellipse class="cls-23" cx="142.14" cy="61.46" rx="1.37" ry="1.84" transform="translate(-77.15 55.33) rotate(-25)"/></g><g id="Ellipse_19-3" data-name="Ellipse 19-3"><ellipse class="cls-20" cx="142.16" cy="61.54" rx="0.78" ry="1.06" transform="translate(-77.19 55.34) rotate(-25)"/><ellipse class="cls-23" cx="142.16" cy="61.54" rx="0.67" ry="0.96" transform="translate(-77.19 55.34) rotate(-25)"/></g><g id="Ellipse_20-3" data-name="Ellipse 20-3"><ellipse class="cls-22" cx="142.19" cy="61.55" rx="0.35" ry="0.44" transform="translate(-77.19 55.36) rotate(-25)"/><ellipse class="cls-23" cx="142.19" cy="61.55" rx="0.24" ry="0.34" transform="translate(-77.19 55.36) rotate(-25)"/></g></g><g id="beet-4"><g id="Ellipse_15-4" data-name="Ellipse 15-4"><ellipse class="cls-20" cx="69.07" cy="28.63" rx="4.25" ry="4.32"/><ellipse class="cls-21" cx="69.07" cy="28.63" rx="4.15" ry="4.22"/></g><g id="Ellipse_16-4" data-name="Ellipse 16-4"><ellipse class="cls-20" cx="69.05" cy="28.71" rx="3.42" ry="3.47"/><ellipse class="cls-21" cx="69.05" cy="28.71" rx="3.32" ry="3.37"/></g><g id="Ellipse_17-4" data-name="Ellipse 17-4"><ellipse class="cls-20" cx="69.11" cy="28.71" rx="2.7" ry="2.71"/><ellipse class="cls-21" cx="69.11" cy="28.71" rx="2.59" ry="2.61"/></g><g id="Ellipse_18-4" data-name="Ellipse 18-4"><ellipse class="cls-20" cx="69.19" cy="28.76" rx="1.76" ry="1.86"/><ellipse class="cls-21" cx="69.19" cy="28.76" rx="1.66" ry="1.76"/></g><g id="Ellipse_19-4" data-name="Ellipse 19-4"><ellipse class="cls-20" cx="69.17" cy="28.83" rx="0.93" ry="1.02"/><ellipse class="cls-21" cx="69.17" cy="28.83" rx="0.83" ry="0.91"/></g><g id="Ellipse_20-4" data-name="Ellipse 20-4"><ellipse class="cls-22" cx="69.19" cy="28.86" rx="0.42" ry="0.42"/><ellipse class="cls-21" cx="69.19" cy="28.86" rx="0.31" ry="0.32"/></g></g><g id="beet-5"><g id="Ellipse_15-5" data-name="Ellipse 15-5"><ellipse class="cls-20" cx="141.51" cy="53.93" rx="4.81" ry="4.19" transform="translate(-74.04 54.36) rotate(-25)"/><ellipse class="cls-23" cx="141.51" cy="53.93" rx="4.7" ry="4.09" transform="translate(-74.04 54.36) rotate(-25)"/></g><g id="Ellipse_16-5" data-name="Ellipse 16-5"><ellipse class="cls-20" cx="141.52" cy="54.01" rx="3.87" ry="3.37" transform="translate(-74.07 54.37) rotate(-25)"/><ellipse class="cls-23" cx="141.52" cy="54.01" rx="3.77" ry="3.26" transform="translate(-74.07 54.37) rotate(-25)"/></g><g id="Ellipse_17-5" data-name="Ellipse 17-5"><ellipse class="cls-20" cx="141.57" cy="53.98" rx="3.05" ry="2.63" transform="translate(-74.05 54.39) rotate(-25)"/><ellipse class="cls-23" cx="141.57" cy="53.98" rx="2.94" ry="2.52" transform="translate(-74.05 54.39) rotate(-25)"/></g><g id="Ellipse_18-5" data-name="Ellipse 18-5"><ellipse class="cls-20" cx="141.67" cy="53.99" rx="1.99" ry="1.81" transform="translate(-74.04 54.43) rotate(-25)"/><ellipse class="cls-23" cx="141.67" cy="53.99" rx="1.89" ry="1.7" transform="translate(-74.04 54.43) rotate(-25)"/></g><g id="Ellipse_19-5" data-name="Ellipse 19-5"><ellipse class="cls-20" cx="141.68" cy="54.07" rx="1.06" ry="0.99" transform="translate(-74.07 54.44) rotate(-25)"/><ellipse class="cls-23" cx="141.68" cy="54.07" rx="0.95" ry="0.88" transform="translate(-74.07 54.44) rotate(-25)"/></g><g id="Ellipse_20-5" data-name="Ellipse 20-5"><ellipse class="cls-22" cx="141.71" cy="54.08" rx="0.47" ry="0.41" transform="translate(-74.08 54.46) rotate(-25)"/><ellipse class="cls-23" cx="141.71" cy="54.08" rx="0.36" ry="0.31" transform="translate(-74.08 54.46) rotate(-25)"/></g></g><g id="beet-6"><g id="Ellipse_15-6" data-name="Ellipse 15-6"><ellipse class="cls-20" cx="76.47" cy="30.85" rx="5.01" ry="5.09"/><ellipse class="cls-21" cx="76.47" cy="30.85" rx="4.91" ry="4.99"/></g><g id="Ellipse_16-6" data-name="Ellipse 16-6"><ellipse class="cls-20" cx="76.45" cy="30.95" rx="4.04" ry="4.09"/><ellipse class="cls-21" cx="76.45" cy="30.95" rx="3.93" ry="3.99"/></g><g id="Ellipse_17-6" data-name="Ellipse 17-6"><ellipse class="cls-20" cx="76.51" cy="30.94" rx="3.18" ry="3.2"/><ellipse class="cls-21" cx="76.51" cy="30.94" rx="3.07" ry="3.09"/></g><g id="Ellipse_18-6" data-name="Ellipse 18-6"><ellipse class="cls-20" cx="76.6" cy="31" rx="2.08" ry="2.2"/><ellipse class="cls-21" cx="76.6" cy="31" rx="1.97" ry="2.09"/></g><g id="Ellipse_19-6" data-name="Ellipse 19-6"><ellipse class="cls-20" cx="76.58" cy="31.09" rx="1.1" ry="1.2"/><ellipse class="cls-21" cx="76.58" cy="31.09" rx="1" ry="1.09"/></g><g id="Ellipse_20-6" data-name="Ellipse 20-6"><ellipse class="cls-22" cx="76.6" cy="31.12" rx="0.49" ry="0.5"/><ellipse class="cls-21" cx="76.6" cy="31.12" rx="0.38" ry="0.39"/></g></g><g id="beet-7"><g id="Ellipse_15-7" data-name="Ellipse 15-7"><ellipse class="cls-20" cx="134.03" cy="47.97" rx="4.09" ry="4.91" transform="translate(-71.67 55.58) rotate(-27)"/><ellipse class="cls-24" cx="134.03" cy="47.97" rx="3.99" ry="4.81" transform="translate(-71.67 55.58) rotate(-27)"/></g><g id="Ellipse_16-7" data-name="Ellipse 16-7"><ellipse class="cls-20" cx="134.05" cy="48.06" rx="3.3" ry="3.91" transform="translate(-71.71 55.6) rotate(-27)"/><ellipse class="cls-24" cx="134.05" cy="48.06" rx="3.19" ry="3.81" transform="translate(-71.71 55.6) rotate(-27)"/></g><g id="Ellipse_17-7" data-name="Ellipse 17-7"><ellipse class="cls-20" cx="134.09" cy="48.03" rx="2.6" ry="3.02" transform="translate(-71.69 55.61) rotate(-27)"/><ellipse class="cls-24" cx="134.09" cy="48.03" rx="2.49" ry="2.91" transform="translate(-71.69 55.61) rotate(-27)"/></g><g id="Ellipse_18-7" data-name="Ellipse 18-7"><ellipse class="cls-20" cx="134.19" cy="48.04" rx="1.7" ry="2.2" transform="translate(-71.69 55.66) rotate(-27)"/><ellipse class="cls-24" cx="134.19" cy="48.04" rx="1.59" ry="2.09" transform="translate(-71.69 55.66) rotate(-27)"/></g><g id="Ellipse_19-7" data-name="Ellipse 19-7"><ellipse class="cls-20" cx="134.21" cy="48.13" rx="0.9" ry="1.2" transform="translate(-71.72 55.68) rotate(-27)"/><ellipse class="cls-24" cx="134.21" cy="48.13" rx="0.79" ry="1.09" transform="translate(-71.72 55.68) rotate(-27)"/></g><g id="Ellipse_20-7" data-name="Ellipse 20-7"><ellipse class="cls-22" cx="134.24" cy="48.15" rx="0.4" ry="0.5" transform="translate(-71.73 55.69) rotate(-27)"/><ellipse class="cls-24" cx="134.24" cy="48.15" rx="0.29" ry="0.39" transform="translate(-71.73 55.69) rotate(-27)"/></g></g><g id="beet-8"><g id="Ellipse_15-8" data-name="Ellipse 15-8"><ellipse class="cls-20" cx="78.76" cy="37.83" rx="4.01" ry="4.07"/><ellipse class="cls-21" cx="78.76" cy="37.83" rx="3.91" ry="3.97"/></g><g id="Ellipse_16-8" data-name="Ellipse 16-8"><ellipse class="cls-20" cx="78.74" cy="37.9" rx="3.23" ry="3.28"/><ellipse class="cls-21" cx="78.74" cy="37.9" rx="3.12" ry="3.17"/></g><g id="Ellipse_17-8" data-name="Ellipse 17-8"><ellipse class="cls-20" cx="78.79" cy="37.9" rx="2.54" ry="2.56"/><ellipse class="cls-21" cx="78.79" cy="37.9" rx="2.44" ry="2.45"/></g><g id="Ellipse_18-8" data-name="Ellipse 18-8"><ellipse class="cls-20" cx="78.86" cy="37.94" rx="1.66" ry="1.76"/><ellipse class="cls-21" cx="78.86" cy="37.94" rx="1.56" ry="1.65"/></g><g id="Ellipse_19-8" data-name="Ellipse 19-8"><ellipse class="cls-20" cx="78.84" cy="38.02" rx="0.88" ry="0.96"/><ellipse class="cls-21" cx="78.84" cy="38.02" rx="0.78" ry="0.85"/></g><g id="Ellipse_20-8" data-name="Ellipse 20-8"><ellipse class="cls-22" cx="78.86" cy="38.04" rx="0.39" ry="0.4"/><ellipse class="cls-21" cx="78.86" cy="38.04" rx="0.29" ry="0.29"/></g></g></g></g><g id="beet_lid" data-name="beet lid"><g id="Path_7-3" data-name="Path 7-3"><path class="cls-18" d="M143.42,33.67h-11.6c-.81,0-1.47-.5-1.47-1.11V31.13c0-.61.66-1.11,1.47-1.11h11.6c.81,0,1.47.5,1.47,1.11v1.43C144.89,33.17,144.23,33.67,143.42,33.67Z" transform="translate(-64.5 -10.5)"/><path class="cls-25" d="M131.82,30.12a1.57,1.57,0,0,0-1,.32.88.88,0,0,0-.38.69v1.43a.88.88,0,0,0,.38.69,1.63,1.63,0,0,0,1,.32h11.6a1.67,1.67,0,0,0,1-.32.88.88,0,0,0,.38-.69V31.13a.88.88,0,0,0-.38-.69,1.61,1.61,0,0,0-1-.32h-11.6m0-.21h11.6A1.44,1.44,0,0,1,145,31.13v1.43a1.44,1.44,0,0,1-1.58,1.22h-11.6a1.44,1.44,0,0,1-1.58-1.22V31.13A1.44,1.44,0,0,1,131.82,29.91Z" transform="translate(-64.5 -10.5)"/></g><path id="Path_9-3" data-name="Path 9-3" class="cls-19" d="M130.28,31.8H145" transform="translate(-64.5 -10.5)"/></g></g><path id="Pickled_Gourmet" data-name="Pickled Gourmet" class="cls-26" d="M104.71,81.36a3.71,3.71,0,0,1-1,2.72,4.86,4.86,0,0,1-3.49,1H98.58V88.3h1.59v1.53h-5V88.3h1.53V79.12H95.2V77.59h4.56a8.54,8.54,0,0,1,2.92.4,2.81,2.81,0,0,1,1.56,1.21A4.37,4.37,0,0,1,104.71,81.36Zm-1.88,0a2,2,0,0,0-.67-1.67,3.78,3.78,0,0,0-2.31-.53H98.58v4.53h1.14a6.49,6.49,0,0,0,1.81-.2,1.71,1.71,0,0,0,1-.72,2.65,2.65,0,0,0,.31-1.41Zm5.86-2.9a1,1,0,0,1-.3.71.94.94,0,0,1-.72.3.9.9,0,0,1-.7-.3,1,1,0,0,1,0-1.43,1,1,0,0,1,.7-.3,1,1,0,0,1,1,1Zm1.2,9.91v1.5h-4.31v-1.5h1.33V82.79h-1.33v-1.5h3v7Zm7.58-6.42v-.62H119v3.23h-1.5a1.92,1.92,0,0,0-.74-1.42,2.4,2.4,0,0,0-1.51-.49,2.29,2.29,0,0,0-1.31.39,2.51,2.51,0,0,0-.89,1,3.21,3.21,0,0,0-.32,1.46,3.29,3.29,0,0,0,.71,2.18,2.34,2.34,0,0,0,1.89.85,2.61,2.61,0,0,0,2.56-1.68l1.39.67a4.11,4.11,0,0,1-4,2.55,4.37,4.37,0,0,1-2.26-.6,4.05,4.05,0,0,1-1.53-1.65,4.94,4.94,0,0,1-.54-2.32,4.74,4.74,0,0,1,.55-2.28,4,4,0,0,1,1.5-1.59,4.15,4.15,0,0,1,2.14-.58A3.56,3.56,0,0,1,117.47,81.91Zm8.8.78h-1.35v-1.4h4.73v1.4h-1.32l-3.19,2.65,3,3h1.5v1.5h-2.22l-4.27-4.31v2.81h1.44v1.5H120v-1.5h1.53V79.07H120V77.59h3.21V85.3Zm8.45,5.64v1.5h-4.49v-1.5h1.51V79.07h-1.51V77.59h3.19V88.33ZM144.9,86h-7.16a3,3,0,0,0,.95,1.94,2.82,2.82,0,0,0,1.95.71,3.43,3.43,0,0,0,1.57-.35,3,3,0,0,0,1.21-1.07l1.48.67a4.6,4.6,0,0,1-1.83,1.64,5.45,5.45,0,0,1-2.47.56,5.09,5.09,0,0,1-2.45-.58,4.11,4.11,0,0,1-1.67-1.61,4.8,4.8,0,0,1,0-4.63,4.25,4.25,0,0,1,1.61-1.62,4.69,4.69,0,0,1,2.26-.58,4.5,4.5,0,0,1,2.35.6,4.14,4.14,0,0,1,1.58,1.71A6.08,6.08,0,0,1,144.9,86Zm-4.53-3.52a2.39,2.39,0,0,0-1.66.64,2.9,2.9,0,0,0-.92,1.68h5.34a2.94,2.94,0,0,0-1-1.68A2.68,2.68,0,0,0,140.37,82.46Zm16.24,5.87v1.5H153.4V88.58A4,4,0,0,1,150.34,90a4,4,0,0,1-2.18-.58,3.92,3.92,0,0,1-1.47-1.58,4.59,4.59,0,0,1-.53-2.21,4.86,4.86,0,0,1,.56-2.27,4.29,4.29,0,0,1,1.54-1.65,3.9,3.9,0,0,1,2.13-.62,3.73,3.73,0,0,1,1.57.34,4.78,4.78,0,0,1,1.44,1V79.07h-1.65V77.59h3.31V88.33Zm-6,.15a2.53,2.53,0,0,0,1.41-.42,2.81,2.81,0,0,0,1-1.1,3.17,3.17,0,0,0,.36-1.48A3,3,0,0,0,153,84a2.68,2.68,0,0,0-2.42-1.42,2.3,2.3,0,0,0-1.37.41,2.81,2.81,0,0,0-1,1.09,3.22,3.22,0,0,0,0,2.94,2.8,2.8,0,0,0,1,1,2.71,2.71,0,0,0,1.38.38Zm-50.44,9.2V96.33h1.56v4h-1.56a4.24,4.24,0,0,0-1.69-1.89,4.55,4.55,0,0,0-2.43-.7,4.25,4.25,0,0,0-2.26.59A4.14,4.14,0,0,0,92.29,100a5.49,5.49,0,0,0,0,4.85,4.11,4.11,0,0,0,1.6,1.68,4.57,4.57,0,0,0,2.34.61,4.75,4.75,0,0,0,1.86-.37,3.66,3.66,0,0,0,1.42-1,3.06,3.06,0,0,0,.7-1.54H98v-1.55h4.46v.4a5.72,5.72,0,0,1-.79,3,5.29,5.29,0,0,1-2.2,2,7.13,7.13,0,0,1-3.15.69,7.42,7.42,0,0,1-3.49-.8,5.61,5.61,0,0,1-2.29-2.24,6.68,6.68,0,0,1-.8-3.34,6.46,6.46,0,0,1,.8-3.24,5.75,5.75,0,0,1,2.2-2.23,6.43,6.43,0,0,1,3.19-.8A6.33,6.33,0,0,1,100.21,97.68Zm12.64,6.63a4.51,4.51,0,0,1-.6,2.27,4.44,4.44,0,0,1-1.61,1.64,4.67,4.67,0,0,1-4.58,0,4.3,4.3,0,0,1-1.61-1.64,4.61,4.61,0,0,1-.57-2.27,4.69,4.69,0,0,1,.57-2.32,4.19,4.19,0,0,1,1.6-1.61,4.7,4.7,0,0,1,2.32-.58,4.28,4.28,0,0,1,2.28.62,4.37,4.37,0,0,1,1.61,1.64A4.56,4.56,0,0,1,112.85,104.31Zm-4.48,2.87a2.45,2.45,0,0,0,1.37-.39,2.65,2.65,0,0,0,1-1,3.16,3.16,0,0,0,.35-1.44,3,3,0,0,0-.35-1.42,2.85,2.85,0,0,0-1-1.06,2.43,2.43,0,0,0-1.39-.4,2.48,2.48,0,0,0-1.37.39,2.85,2.85,0,0,0-1,1.06,3,3,0,0,0,0,2.86,2.7,2.7,0,0,0,1,1.05,2.49,2.49,0,0,0,1.38.39Zm9.57.07a3.94,3.94,0,0,0,2.44-1.1v-4.62h-1.51V100h3.19v7h1.46v1.49h-3.14v-1a4.71,4.71,0,0,1-2.81,1.13,2.14,2.14,0,0,1-1.77-.71,3.8,3.8,0,0,1-.58-2.38v-4.09H114V100h2.87V106a1.65,1.65,0,0,0,.24,1,1,1,0,0,0,.8.31Zm9.69-2.11v1.93h1.86v1.49h-5.24v-1.49H126v-5.54h-1.72V100h3V102a3.34,3.34,0,0,1,1.27-1.59,4.31,4.31,0,0,1,2.17-.45h.38v1.69h-.36a4.41,4.41,0,0,0-2,.36,1.73,1.73,0,0,0-.88,1.08A7.74,7.74,0,0,0,127.63,105.14Zm5.71,1.93v-5.54H131.9V100H135v1.08a4.77,4.77,0,0,1,3-1.19,2,2,0,0,1,2,1.33,5,5,0,0,1,3.1-1.33,2.26,2.26,0,0,1,1.64.6,2.54,2.54,0,0,1,.61,1.87v4.68h1.5v1.49h-3.16v-5.4a6.84,6.84,0,0,0-.06-.91,1.13,1.13,0,0,0-.29-.6,1.05,1.05,0,0,0-.76-.24,2.66,2.66,0,0,0-1.08.28,5.53,5.53,0,0,0-1.3.83v4.55h1.44v1.49h-3.12V103a2.18,2.18,0,0,0-.25-1.18.92.92,0,0,0-.82-.36,4.64,4.64,0,0,0-2.43,1.1v4.56h1.51v1.49h-4.71v-1.49Zm23.4-2.35h-7.16a3.07,3.07,0,0,0,.95,1.94,2.8,2.8,0,0,0,1.95.71,3.56,3.56,0,0,0,1.57-.35,3,3,0,0,0,1.21-1.07l1.48.66a4.51,4.51,0,0,1-1.84,1.65,5.64,5.64,0,0,1-2.46.56,5.2,5.2,0,0,1-2.45-.58,4.17,4.17,0,0,1-1.67-1.61,4.84,4.84,0,0,1,0-4.64,4.29,4.29,0,0,1,1.61-1.61,4.81,4.81,0,0,1,4.61,0,4.17,4.17,0,0,1,1.58,1.7A6.12,6.12,0,0,1,156.74,104.72Zm-4.53-3.52a2.39,2.39,0,0,0-1.66.64,2.9,2.9,0,0,0-.92,1.68H155a2.94,2.94,0,0,0-1-1.68,2.68,2.68,0,0,0-1.77-.64ZM162.27,100v1.5h-1.56V106a1.63,1.63,0,0,0,.16.9.58.58,0,0,0,.51.21,2.69,2.69,0,0,0,.89-.16v1.52a4.83,4.83,0,0,1-1.26.23,1.91,1.91,0,0,1-1.51-.53,2.79,2.79,0,0,1-.47-1.83v-4.82h-1.11V100H159V98.74l1.68-1.54V100Z" transform="translate(-64.5 -10.5)"/></svg>