<svg id="Layer_1" data-name="Layer 1" xmlns="http://www.w3.org/2000/svg" viewBox="0 0 124.25 124.25"><defs><style>.cls-1{fill:#ffe6f0;stroke:#ff8597;stroke-width:2px;}.cls-1,.cls-11,.cls-3,.cls-5,.cls-6,.cls-7,.cls-8{stroke-linecap:round;}.cls-1,.cls-11,.cls-12,.cls-13,.cls-3,.cls-4,.cls-5,.cls-6,.cls-7,.cls-8,.cls-9{stroke-miterlimit:10;}.cls-2{fill:#f9cfd4;}.cls-13,.cls-3{fill:none;}.cls-3,.cls-8{stroke:#000;}.cls-4,.cls-5,.cls-6{fill:#d1a1ac;stroke:#d1a1ac;}.cls-6{stroke-width:0.3px;}.cls-7{fill:#ffdede;stroke:#f9cfd4;}.cls-8{fill:#b2764d;}.cls-11,.cls-9{fill:#efb6b6;stroke:#ffedef;}.cls-10{fill:#cffad9;}.cls-12{fill:#232222;stroke:#232222;stroke-width:0.25px;}.cls-13{stroke:#fc6d7b;}</style></defs><path class="cls-1" d="M130,26" transform="translate(-63.88 -9.88)"/><path class="cls-1" d="M123,26" transform="translate(-63.88 -9.88)"/><circle class="cls-2" cx="62.13" cy="62.13" r="62.12"/><path class="cls-3" d="M92.84,99.26A43.43,43.43,0,1,1,159,101.09" transform="translate(-63.88 -9.88)"/><path class="cls-4" d="M120.72,81.57l4.08-25.52a.65.65,0,0,1,.69-.41h2.1a.65.65,0,0,1,.68.41l4.52,25.51c.05.27-.27.51-.68.51H121.4C121,82.07,120.67,81.84,120.72,81.57Z" transform="translate(-63.88 -9.88)"/><rect class="cls-5" x="61.75" y="32.55" width="1.51" height="10.57" rx="0.71"/><rect class="cls-4" x="58.58" y="45.21" width="7.76" height="2.07" rx="0.97"/><line class="cls-5" x1="62.5" y1="32.55" x2="62.5" y2="27.27"/><line class="cls-6" x1="62.5" y1="27.27" x2="62.5" y2="22.74"/><rect class="cls-4" x="59.48" y="38.6" width="6.04" height="2.07" rx="0.97"/><rect class="cls-4" x="57.97" y="40.33" width="9.06" height="2.07" rx="0.97"/><path d="M112.35,85.28l2.54,11.41a1.69,1.69,0,0,0,1.7,1.21h20.13a1.68,1.68,0,0,0,1.7-1.22l2.51-11.4a1.58,1.58,0,0,0-1.7-1.77H114.05A1.57,1.57,0,0,0,112.35,85.28Z" transform="translate(-63.88 -9.88)"/><line class="cls-7" x1="48.24" y1="73.63" x2="58.56" y2="88.76"/><line class="cls-7" x1="55.12" y1="72.94" x2="66.82" y2="88.76"/><line class="cls-7" x1="62.69" y1="72.94" x2="74.63" y2="88.02"/><line class="cls-7" x1="70.26" y1="72.94" x2="76.45" y2="80.51"/><line class="cls-7" x1="77.13" y1="73.63" x2="66.82" y2="88.76"/><line class="cls-7" x1="70.26" y1="72.94" x2="58.56" y2="88.76"/><line class="cls-7" x1="62.69" y1="72.94" x2="50.99" y2="88.07"/><line class="cls-7" x1="55.12" y1="72.94" x2="48.93" y2="80.51"/><line class="cls-8" x1="54.74" y1="70.22" x2="61.42" y2="64.34"/><line class="cls-8" x1="70.85" y1="70.22" x2="64.17" y2="64.34"/><line class="cls-8" x1="47.84" y1="72.29" x2="77.76" y2="72.29"/><ellipse class="cls-9" cx="108.54" cy="79.32" rx="0.2" ry="1.29" transform="translate(-89.53 77.43) rotate(-39.57)"/><path class="cls-10" d="M107.54,79.64s-2.85-2.5-4.24.81C103.3,80.45,106.14,83,107.54,79.64Z" transform="translate(-63.88 -9.88)"/><path class="cls-10" d="M107.14,83.16s-1.3-2.21,1.08-2.72C108.22,80.44,109.52,82.65,107.14,83.16Z" transform="translate(-63.88 -9.88)"/><path class="cls-10" d="M109,78.45s-1.91-3.27,1.6-4C110.58,74.44,112.5,77.7,109,78.45Z" transform="translate(-63.88 -9.88)"/><path class="cls-10" d="M112.51,78.72s-1.93-1.69-2.87.55C109.64,79.27,111.56,81,112.51,78.72Z" transform="translate(-63.88 -9.88)"/><ellipse class="cls-11" cx="109.13" cy="67.43" rx="1.08" ry="0.18" transform="matrix(0.35, -0.93, 0.93, 0.35, -56.52, 135.65)"/><path class="cls-10" d="M108.46,66.73s.69-3.32-2.5-2.94C106,63.79,105.28,67.11,108.46,66.73Z" transform="translate(-63.88 -9.88)"/><path class="cls-10" d="M105.56,68s1.14-2,2.59-.36C108.15,67.61,107,69.6,105.56,68Z" transform="translate(-63.88 -9.88)"/><path class="cls-10" d="M110,67.32s1.69-2.93,3.82-.53C113.85,66.79,112.17,69.72,110,67.32Z" transform="translate(-63.88 -9.88)"/><path class="cls-10" d="M111.38,70.18s.46-2.24-1.7-2C109.68,68.19,109.22,70.44,111.38,70.18Z" transform="translate(-63.88 -9.88)"/><path class="cls-12" d="M113.83,96.63a9.69,9.69,0,0,0-1.61,1.54,6.2,6.2,0,0,1,1.23,1,5.57,5.57,0,0,1,.8,1.1,5,5,0,0,1,.44,1.11,4.82,4.82,0,0,1,.13,1,4.44,4.44,0,0,1-.44,2,4.37,4.37,0,0,1-1.17,1.44,5,5,0,0,1-1.65.85,6.6,6.6,0,0,1-1.94.28,9.58,9.58,0,0,1-2.2-.25c-.33.71-.7,1.41-1.08,2.11a22.78,22.78,0,0,1-1.27,2,16.14,16.14,0,0,1-1.49,1.78,10.11,10.11,0,0,1-1.73,1.43,8.29,8.29,0,0,1-2,1,7.46,7.46,0,0,1-2.29.34,6,6,0,0,1-2.18-.38,4.76,4.76,0,0,1-1.73-1.11,5.11,5.11,0,0,1-1.13-1.79,6.66,6.66,0,0,1-.4-2.41,9.72,9.72,0,0,1,.6-3.39,12,12,0,0,1,1.65-3,14.11,14.11,0,0,1,2.49-2.58,16.28,16.28,0,0,1,3.08-2,17,17,0,0,1,3.47-1.28,14.89,14.89,0,0,1,3.62-.45,12.73,12.73,0,0,1,2.52.23,9.71,9.71,0,0,1,2,.62,9.56,9.56,0,0,1,1-.78,6.93,6.93,0,0,1,1.13-.65Zm-7.41,9.11c.36-.76.73-1.49,1.08-2.2s.72-1.36,1.09-2,.76-1.22,1.15-1.77A13.72,13.72,0,0,1,111,98.24a7.66,7.66,0,0,0-1.71-.45,12.31,12.31,0,0,0-2-.15,11.59,11.59,0,0,0-2.82.35,13.9,13.9,0,0,0-2.67,1,16.15,16.15,0,0,0-2.44,1.42,18.64,18.64,0,0,0-2.15,1.78,17.73,17.73,0,0,0-1.8,2,15,15,0,0,0-1.37,2.13,11,11,0,0,0-.87,2.11,7.26,7.26,0,0,0-.31,2,4.42,4.42,0,0,0,.34,1.71,4.18,4.18,0,0,0,2.33,2.29,4.71,4.71,0,0,0,1.79.33,6.1,6.1,0,0,0,2.71-.59,7.57,7.57,0,0,0,2.23-1.7,15.4,15.4,0,0,0,1.94-2.65c.61-1,1.24-2.18,1.87-3.45a11.35,11.35,0,0,1-2.3-1.25l.19-.34c.39.19.77.37,1.17.54A11.17,11.17,0,0,0,106.42,105.74Zm7.15-4a3.48,3.48,0,0,0-.46-1.81,3.93,3.93,0,0,0-1.28-1.25,22.74,22.74,0,0,0-2.07,3.27q-1,1.88-2,4.15l.69.09c.23,0,.46,0,.7,0a4.41,4.41,0,0,0,1.71-.32,4.17,4.17,0,0,0,1.41-.91,4.27,4.27,0,0,0,1-1.41A4.54,4.54,0,0,0,113.57,101.7Z" transform="translate(-63.88 -9.88)"/><path class="cls-12" d="M116.15,106.11c-.1.21-.25.48-.43.82l-.61,1.11c-.21.4-.43.82-.65,1.26s-.42.87-.6,1.28a11,11,0,0,0-.44,1.18,3.24,3.24,0,0,0-.16.93.48.48,0,0,0,.54.59,1.7,1.7,0,0,0,1-.32,5,5,0,0,0,.92-.84,10.42,10.42,0,0,0,.9-1.18l.88-1.35.43.33c-.23.42-.49.86-.78,1.33a9.55,9.55,0,0,1-1,1.3,5.22,5.22,0,0,1-1.18,1,2.6,2.6,0,0,1-1.41.4,1.4,1.4,0,0,1-1.09-.43,1.59,1.59,0,0,1-.38-1.11,4.22,4.22,0,0,1,.37-1.67,10.64,10.64,0,0,1,.92-1.72,19.12,19.12,0,0,1,1.2-1.64c.44-.52.83-1,1.2-1.42Zm2.23-2.64a1.14,1.14,0,0,1-.12.49,1.83,1.83,0,0,1-.3.46,1.85,1.85,0,0,1-.42.33.86.86,0,0,1-.45.13.35.35,0,0,1-.31-.14.62.62,0,0,1-.11-.37,1.71,1.71,0,0,1,.08-.45,1.77,1.77,0,0,1,.21-.49,1.51,1.51,0,0,1,.35-.4.71.71,0,0,1,.46-.17.56.56,0,0,1,.43.19A.61.61,0,0,1,118.38,103.47Z" transform="translate(-63.88 -9.88)"/><path class="cls-12" d="M124.25,106.4a.69.69,0,0,0-.3-.6,1.66,1.66,0,0,0-1-.22,2.63,2.63,0,0,0-1.08.23,4.24,4.24,0,0,0-1,.64,5.71,5.71,0,0,0-.94,1,6.54,6.54,0,0,0-.75,1.22,6.85,6.85,0,0,0-.5,1.38,6.16,6.16,0,0,0-.18,1.47,3.37,3.37,0,0,0,.13,1,1.8,1.8,0,0,0,.37.67,1.36,1.36,0,0,0,.57.38,2.19,2.19,0,0,0,.75.11,3.64,3.64,0,0,0,1.6-.37,6.94,6.94,0,0,0,1.47-1,10.66,10.66,0,0,0,1.28-1.32,15.08,15.08,0,0,0,1-1.43l.45.33a12.07,12.07,0,0,1-1.37,1.9,9.36,9.36,0,0,1-1.49,1.37,6.28,6.28,0,0,1-1.55.82,4.76,4.76,0,0,1-1.54.27,3.67,3.67,0,0,1-1.14-.18,2.79,2.79,0,0,1-.95-.54,2.55,2.55,0,0,1-.65-.93,3.34,3.34,0,0,1-.25-1.36,5.64,5.64,0,0,1,.27-1.76,6.9,6.9,0,0,1,1.75-2.8,7.36,7.36,0,0,1,1.22-1,5.92,5.92,0,0,1,1.28-.6,4,4,0,0,1,1.22-.21,2.39,2.39,0,0,1,1,.17,1.67,1.67,0,0,1,.58.38,1.21,1.21,0,0,1,.29.48,1.59,1.59,0,0,1,.08.43,2.61,2.61,0,0,1-.08.6,2.43,2.43,0,0,1-.24.59,1.49,1.49,0,0,1-.37.45.72.72,0,0,1-.48.18.68.68,0,0,1-.45-.17.56.56,0,0,1-.19-.44.64.64,0,0,1,0-.14.71.71,0,0,1,.11-.28.85.85,0,0,1,.29-.27,1.08,1.08,0,0,1,.56-.12h.14A1.05,1.05,0,0,0,124.25,106.4Z" transform="translate(-63.88 -9.88)"/><path class="cls-12" d="M135.66,107.85a3.21,3.21,0,0,1-.18,1A7.49,7.49,0,0,1,135,110c-.18.36-.38.7-.58,1s-.41.67-.59,1a8.58,8.58,0,0,0-.45.92,2,2,0,0,0-.18.79.47.47,0,0,0,.12.37.43.43,0,0,0,.26.09,1.68,1.68,0,0,0,1-.45,7.46,7.46,0,0,0,1.14-1.12c.39-.45.77-1,1.15-1.48s.73-1,1-1.51l.43.33c-.07.1-.18.29-.35.57s-.37.6-.62,1-.52.74-.83,1.14a9.18,9.18,0,0,1-1,1.08,6.16,6.16,0,0,1-1.08.82,2.24,2.24,0,0,1-1.11.32,1.5,1.5,0,0,1-.58-.11,1.19,1.19,0,0,1-.45-.3,1.47,1.47,0,0,1-.4-1,2.76,2.76,0,0,1,.21-1,9.23,9.23,0,0,1,.52-1.12c.2-.38.43-.76.68-1.15s.47-.75.67-1.1a10.58,10.58,0,0,0,.52-1,1.86,1.86,0,0,0,.21-.77.94.94,0,0,0-.2-.62.67.67,0,0,0-.55-.25,1.73,1.73,0,0,0-.88.32,7.24,7.24,0,0,0-1.12.92q-.61.61-1.35,1.5c-.49.59-1,1.26-1.59,2l-1,1.26-.4.53-.41.55L127,114c-.12.16-.22.3-.32.42l-1-.43,1.4-1.92c.2-.27.4-.55.6-.86s.42-.63.62-1,.39-.66.58-1,.35-.66.51-1a7,7,0,0,0,.47-1.19,2.94,2.94,0,0,0,.14-.76.55.55,0,0,0-.12-.42.49.49,0,0,0-.34-.1.93.93,0,0,0-.52.23,5.64,5.64,0,0,0-.6.6,10.27,10.27,0,0,0-.62.82c-.21.31-.41.61-.6.91l-.54.86c-.17.27-.31.49-.42.65l-.43-.33,1.11-1.75a14.35,14.35,0,0,1,1-1.36,5,5,0,0,1,.89-.89,1.55,1.55,0,0,1,.93-.31,1.24,1.24,0,0,1,.5.1,1.34,1.34,0,0,1,.43.32,1.58,1.58,0,0,1,.29.51,2.08,2.08,0,0,1,.11.69,2.91,2.91,0,0,1-.07.64,8.51,8.51,0,0,1,1-.84,6.08,6.08,0,0,1,.83-.54,3.11,3.11,0,0,1,.7-.27,2.22,2.22,0,0,1,.58-.09,1.84,1.84,0,0,1,.53.09,1.31,1.31,0,0,1,.56.31,1.91,1.91,0,0,1,.45.62A2.54,2.54,0,0,1,135.66,107.85Z" transform="translate(-63.88 -9.88)"/><path class="cls-12" d="M141.07,106.11c-.11.21-.25.48-.44.82L140,108c-.21.4-.43.82-.65,1.26s-.43.87-.61,1.28-.32.81-.43,1.18a3.29,3.29,0,0,0-.17.93.49.49,0,0,0,.55.59,1.67,1.67,0,0,0,.95-.32,5,5,0,0,0,.93-.84,13.44,13.44,0,0,0,.9-1.18c.29-.45.58-.9.88-1.35l.43.33c-.23.42-.49.86-.78,1.33a10.46,10.46,0,0,1-1,1.3,5.22,5.22,0,0,1-1.18,1,2.6,2.6,0,0,1-1.41.4,1.4,1.4,0,0,1-1.09-.43,1.6,1.6,0,0,1-.39-1.11,4.4,4.4,0,0,1,.37-1.67,11.57,11.57,0,0,1,.93-1.72,19.12,19.12,0,0,1,1.2-1.64c.43-.52.83-1,1.2-1.42Zm2.23-2.64a1.14,1.14,0,0,1-.12.49,1.81,1.81,0,0,1-.72.79.86.86,0,0,1-.45.13.34.34,0,0,1-.31-.14.62.62,0,0,1-.11-.37,2.16,2.16,0,0,1,.07-.45,1.8,1.8,0,0,1,.22-.49,1.47,1.47,0,0,1,.34-.4.73.73,0,0,1,.47-.17.57.57,0,0,1,.43.19A.61.61,0,0,1,143.3,103.47Z" transform="translate(-63.88 -9.88)"/><path class="cls-12" d="M149.17,106.4a.67.67,0,0,0-.31-.6,1.62,1.62,0,0,0-1-.22,2.61,2.61,0,0,0-1.07.23,4.48,4.48,0,0,0-1.05.64,6.07,6.07,0,0,0-.93,1,6.54,6.54,0,0,0-.75,1.22,6.85,6.85,0,0,0-.5,1.38,6.18,6.18,0,0,0-.19,1.47,3.35,3.35,0,0,0,.14,1,1.78,1.78,0,0,0,.36.67,1.34,1.34,0,0,0,.58.38,2.19,2.19,0,0,0,.75.11,3.6,3.6,0,0,0,1.59-.37,6.47,6.47,0,0,0,1.47-1,10.06,10.06,0,0,0,1.29-1.32,17.08,17.08,0,0,0,1-1.43l.44.33a11.46,11.46,0,0,1-1.37,1.9,9,9,0,0,1-1.49,1.37,6.06,6.06,0,0,1-1.54.82,4.76,4.76,0,0,1-1.54.27,3.58,3.58,0,0,1-1.14-.18,2.58,2.58,0,0,1-1.61-1.47,3.52,3.52,0,0,1-.24-1.36,5.64,5.64,0,0,1,.27-1.76,6.68,6.68,0,0,1,.71-1.53,7.06,7.06,0,0,1,1-1.27,8.29,8.29,0,0,1,1.22-1,6.22,6.22,0,0,1,1.29-.6,4,4,0,0,1,1.22-.21,2.31,2.31,0,0,1,1,.17,1.72,1.72,0,0,1,.59.38,1.21,1.21,0,0,1,.29.48,1.59,1.59,0,0,1,.08.43,2.18,2.18,0,0,1-.09.6,2.07,2.07,0,0,1-.23.59,1.49,1.49,0,0,1-.37.45.76.76,0,0,1-.48.18.64.64,0,0,1-.45-.17.56.56,0,0,1-.19-.44,1.25,1.25,0,0,1,0-.14.74.74,0,0,1,.12-.28.85.85,0,0,1,.29-.27,1,1,0,0,1,.55-.12h.15A1.29,1.29,0,0,0,149.17,106.4Z" transform="translate(-63.88 -9.88)"/><path class="cls-12" d="M157.35,110.79h.2a2.8,2.8,0,0,0,.61-.06,1.62,1.62,0,0,0,.51-.21,2.47,2.47,0,0,0,.44-.37,3.83,3.83,0,0,0,.42-.57l.43.33a3.54,3.54,0,0,1-1.18,1.13,2.66,2.66,0,0,1-1.29.33,2,2,0,0,1-.44,0,7.82,7.82,0,0,1-1.09,1.46,6.5,6.5,0,0,1-1.19,1,4.79,4.79,0,0,1-1.21.55,3.78,3.78,0,0,1-1.11.18,2.43,2.43,0,0,1-1-.19,2.13,2.13,0,0,1-.76-.53,2.21,2.21,0,0,1-.5-.82,3,3,0,0,1-.18-1.07,4.07,4.07,0,0,1,.19-1.22,6.13,6.13,0,0,1,.52-1.22,7.88,7.88,0,0,1,.76-1.18,10.68,10.68,0,0,1,1-1,8.68,8.68,0,0,1,1.06-.88,7,7,0,0,1,1.09-.65l.38.51a9.22,9.22,0,0,0-1.28,1.14,11.09,11.09,0,0,0-1.18,1.51,9.83,9.83,0,0,0-.87,1.71,4.94,4.94,0,0,0-.33,1.72,1.8,1.8,0,0,0,.33,1.16,1.2,1.2,0,0,0,1,.41,2.72,2.72,0,0,0,1-.21,4.88,4.88,0,0,0,1-.58,7,7,0,0,0,.94-.88,13.14,13.14,0,0,0,.86-1.08,2,2,0,0,1-.61-.54,3.22,3.22,0,0,1-.44-.77,4.65,4.65,0,0,1-.27-.94,5.69,5.69,0,0,1-.09-1,3.54,3.54,0,0,1,.13-1,2.93,2.93,0,0,1,.37-.82,1.77,1.77,0,0,1,.54-.55,1.16,1.16,0,0,1,.68-.2,1,1,0,0,1,.59.17,1.33,1.33,0,0,1,.44.47,2.85,2.85,0,0,1,.28.73,4.13,4.13,0,0,1,.09.89,5.79,5.79,0,0,1-.06.79,6.87,6.87,0,0,1-.17.86c-.08.29-.17.57-.27.86A4.38,4.38,0,0,1,157.35,110.79Zm-1.62-3a5.14,5.14,0,0,0,.06.75,4,4,0,0,0,.19.78,3.85,3.85,0,0,0,.33.71,1.78,1.78,0,0,0,.5.52,5.76,5.76,0,0,0,.37-.85c.1-.29.18-.57.25-.84s.11-.52.14-.76a4.77,4.77,0,0,0,0-.61,3.37,3.37,0,0,0-.06-.66,2.19,2.19,0,0,0-.16-.51,1,1,0,0,0-.25-.35.52.52,0,0,0-.33-.12.7.7,0,0,0-.44.16,1.31,1.31,0,0,0-.34.42,2.27,2.27,0,0,0-.22.62A3.57,3.57,0,0,0,155.73,107.83Z" transform="translate(-63.88 -9.88)"/><path class="cls-13" d="M81.88,99.25" transform="translate(-63.88 -9.88)"/><path class="cls-4" d="M129.43,50.8a2.75,2.75,0,0,0-1.51-.44h-3.09a2.77,2.77,0,0,0-1.51.44h0a2.35,2.35,0,0,0-1.1,2v.3a2.28,2.28,0,0,0,.81,1.73l.22.2a2.75,2.75,0,0,0,1.8.66h2.65a2.78,2.78,0,0,0,1.81-.66l.22-.2a2.3,2.3,0,0,0,.8-1.73v-.3a2.35,2.35,0,0,0-1.1-2Z" transform="translate(-63.88 -9.88)"/></svg>