<svg id="Layer_1" data-name="Layer 1" xmlns="http://www.w3.org/2000/svg" viewBox="0 0 252 144"><defs><style>.cls-1,.cls-7{fill:#f9cfd4;}.cls-2{fill:#ffe6f0;stroke:#ff8597;stroke-width:2px;}.cls-11,.cls-2,.cls-4,.cls-5,.cls-6,.cls-7,.cls-8{stroke-linecap:round;}.cls-11,.cls-12,.cls-13,.cls-2,.cls-3,.cls-4,.cls-5,.cls-6,.cls-7,.cls-8,.cls-9{stroke-miterlimit:10;}.cls-14,.cls-3,.cls-4,.cls-5{fill:#d1a1ac;}.cls-3,.cls-4,.cls-5{stroke:#d1a1ac;}.cls-5{stroke-width:0.3px;}.cls-13,.cls-6{fill:none;}.cls-6,.cls-8{stroke:#000;}.cls-7{stroke:#f9cfd4;}.cls-8{fill:#b2764d;}.cls-10,.cls-11,.cls-9{fill:#cffad9;}.cls-11,.cls-9{stroke:#ffedef;}.cls-12{fill:#232222;stroke:#232222;stroke-width:0.25px;}.cls-13{stroke:#fc6d7b;}.cls-15{fill:#ffedef;}</style></defs><rect class="cls-1" width="252" height="144"/><path class="cls-2" d="M131,17.59" transform="translate(0)"/><path class="cls-2" d="M124,17.59" transform="translate(0)"/><path class="cls-3" d="M121,82.6l3.84-24c0-.22.31-.38.65-.38h2c.33,0,.61.16.65.38l4.26,24c0,.26-.26.48-.65.48H121.67C121.29,83.07,121,82.85,121,82.6Z" transform="translate(0)"/><rect class="cls-4" x="125.64" y="45.74" width="1.42" height="9.96" rx="0.71"/><rect class="cls-3" x="122.66" y="57.66" width="7.3" height="1.95" rx="0.97"/><line class="cls-4" x1="126.36" y1="45.74" x2="126.36" y2="40.76"/><line class="cls-5" x1="126.36" y1="40.76" x2="126.36" y2="36.5"/><rect class="cls-3" x="123.51" y="51.44" width="5.69" height="1.95" rx="0.97"/><rect class="cls-3" x="122.09" y="53.06" width="8.53" height="1.95" rx="0.97"/><path class="cls-3" d="M129.23,53.62a2.59,2.59,0,0,0-1.42-.41H124.9a2.61,2.61,0,0,0-1.42.41h0a2.22,2.22,0,0,0-1,1.84v.29a2.17,2.17,0,0,0,.76,1.62l.21.19a2.57,2.57,0,0,0,1.7.63h2.49a2.61,2.61,0,0,0,1.71-.63l.2-.19a2.17,2.17,0,0,0,.76-1.62v-.29a2.22,2.22,0,0,0-1-1.84Z" transform="translate(0)"/><path class="cls-6" d="M94.77,99.25a40.89,40.89,0,1,1,62.3,1.73" transform="translate(0)"/><path d="M113.15,86.09l2.39,10.75a1.59,1.59,0,0,0,1.6,1.14h19a1.59,1.59,0,0,0,1.6-1.15l2.36-10.74a1.48,1.48,0,0,0-1.6-1.67H114.75A1.48,1.48,0,0,0,113.15,86.09Z" transform="translate(0)"/><line class="cls-7" x1="112.93" y1="84.42" x2="122.64" y2="98.67"/><line class="cls-7" x1="119.41" y1="83.77" x2="130.42" y2="98.67"/><line class="cls-7" x1="126.53" y1="83.77" x2="137.78" y2="97.98"/><line class="cls-7" x1="133.66" y1="83.77" x2="139.49" y2="90.9"/><line class="cls-7" x1="140.13" y1="84.42" x2="130.42" y2="98.67"/><line class="cls-7" x1="133.66" y1="83.77" x2="122.64" y2="98.67"/><line class="cls-7" x1="126.53" y1="83.77" x2="115.52" y2="98.02"/><line class="cls-7" x1="119.41" y1="83.77" x2="113.58" y2="90.9"/><line class="cls-8" x1="119.05" y1="81.21" x2="125.34" y2="75.67"/><line class="cls-8" x1="134.22" y1="81.21" x2="127.93" y2="75.67"/><line class="cls-8" x1="112.55" y1="83.16" x2="140.72" y2="83.16"/><ellipse class="cls-9" cx="109.56" cy="80.48" rx="0.19" ry="1.22" transform="translate(-26.16 88.22) rotate(-39.57)"/><path class="cls-10" d="M108.62,80.79s-2.68-2.36-4,.76C104.62,81.55,107.3,83.9,108.62,80.79Z" transform="translate(0)"/><path class="cls-10" d="M108.24,84.09s-1.22-2.08,1-2.56C109.26,81.53,110.48,83.62,108.24,84.09Z" transform="translate(0)"/><path class="cls-10" d="M110,79.66s-1.81-3.07,1.5-3.78C111.48,75.88,113.29,79,110,79.66Z" transform="translate(0)"/><path class="cls-10" d="M113.3,79.92s-1.82-1.6-2.71.51C110.59,80.43,112.41,82,113.3,79.92Z" transform="translate(0)"/><ellipse class="cls-11" cx="110.11" cy="69.29" rx="1.02" ry="0.17" transform="translate(6.26 147.64) rotate(-69.21)"/><path class="cls-10" d="M109.49,68.62s.64-3.12-2.36-2.76C107.13,65.86,106.48,69,109.49,68.62Z" transform="translate(0)"/><path class="cls-10" d="M106.75,69.8s1.08-1.88,2.44-.35C109.19,69.45,108.11,71.33,106.75,69.8Z" transform="translate(0)"/><path class="cls-10" d="M111,69.18s1.59-2.76,3.6-.5C114.56,68.68,113,71.44,111,69.18Z" transform="translate(0)"/><path class="cls-10" d="M112.23,71.88s.44-2.12-1.59-1.88C110.64,70,110.2,72.12,112.23,71.88Z" transform="translate(0)"/><path class="cls-12" d="M114.54,96.78A9.38,9.38,0,0,0,113,98.23a5.26,5.26,0,0,1,1.16.93,5.39,5.39,0,0,1,.76,1,4.56,4.56,0,0,1,.41,1,4.19,4.19,0,0,1,.12,1,4.11,4.11,0,0,1-.42,1.91,4,4,0,0,1-1.09,1.35,4.44,4.44,0,0,1-1.56.8,6.17,6.17,0,0,1-1.82.27,9.09,9.09,0,0,1-2.08-.24c-.31.67-.65,1.33-1,2a18.25,18.25,0,0,1-1.19,1.89,15.2,15.2,0,0,1-1.4,1.68,9.82,9.82,0,0,1-1.63,1.35,8.32,8.32,0,0,1-1.88.89,7.17,7.17,0,0,1-2.15.32,5.66,5.66,0,0,1-2-.36,4.58,4.58,0,0,1-1.63-1,4.75,4.75,0,0,1-1.07-1.68,6.39,6.39,0,0,1-.38-2.27,9.15,9.15,0,0,1,.57-3.2A11.6,11.6,0,0,1,96.23,103a13.36,13.36,0,0,1,2.34-2.42,15.4,15.4,0,0,1,2.9-1.86,15.62,15.62,0,0,1,3.27-1.2,13.68,13.68,0,0,1,3.41-.43,12,12,0,0,1,2.37.22,9.16,9.16,0,0,1,1.83.58,11.33,11.33,0,0,1,.94-.74,8.51,8.51,0,0,1,1.07-.61Zm-7,8.58,1-2.07c.34-.66.68-1.29,1-1.88s.71-1.15,1.08-1.67a13.09,13.09,0,0,1,1.21-1.45,7.74,7.74,0,0,0-1.61-.42,12.08,12.08,0,0,0-1.85-.14,10.77,10.77,0,0,0-2.66.33,13.87,13.87,0,0,0-2.51.89,16,16,0,0,0-2.3,1.34,18.48,18.48,0,0,0-2,1.68,17.56,17.56,0,0,0-1.69,1.9,13.59,13.59,0,0,0-1.29,2,10.09,10.09,0,0,0-.82,2,6.66,6.66,0,0,0-.29,1.87,4.1,4.1,0,0,0,1.19,2.9,4,4,0,0,0,1.32.86,4.42,4.42,0,0,0,1.69.32,5.76,5.76,0,0,0,2.56-.56,7.43,7.43,0,0,0,2.09-1.6,13.58,13.58,0,0,0,1.83-2.5c.58-1,1.16-2,1.76-3.25a9.81,9.81,0,0,1-2.16-1.18l.18-.31c.36.18.72.35,1.09.51S107.16,105.23,107.56,105.36Zm6.73-3.8a3.19,3.19,0,0,0-.43-1.71,3.48,3.48,0,0,0-1.21-1.17,20.66,20.66,0,0,0-1.94,3.08c-.62,1.17-1.26,2.47-1.91,3.9.21,0,.43.07.65.09s.43,0,.66,0a4.35,4.35,0,0,0,1.61-.31,3.94,3.94,0,0,0,2.23-2.18A4.24,4.24,0,0,0,114.29,101.56Z" transform="translate(0)"/><path class="cls-12" d="M116.73,105.71l-.41.77c-.18.32-.37.66-.57,1s-.41.77-.62,1.19-.4.82-.56,1.21a9.53,9.53,0,0,0-.41,1.1,3,3,0,0,0-.16.88.46.46,0,0,0,.52.56,1.56,1.56,0,0,0,.89-.3,5.18,5.18,0,0,0,.87-.79,10.56,10.56,0,0,0,.85-1.12L118,109l.4.32c-.21.39-.46.8-.73,1.24a8.57,8.57,0,0,1-.92,1.23,4.7,4.7,0,0,1-1.11.94,2.53,2.53,0,0,1-1.32.37,1.3,1.3,0,0,1-1-.41,1.5,1.5,0,0,1-.36-1,4.07,4.07,0,0,1,.35-1.57,9.8,9.8,0,0,1,.87-1.62,15.2,15.2,0,0,1,1.13-1.54c.41-.5.78-.94,1.13-1.35Zm2.09-2.49a1,1,0,0,1-.11.46,1.46,1.46,0,0,1-.29.44,1.61,1.61,0,0,1-.38.31.88.88,0,0,1-.43.12.32.32,0,0,1-.29-.14.53.53,0,0,1-.1-.34,1.41,1.41,0,0,1,.07-.42,1.63,1.63,0,0,1,.2-.47,1.7,1.7,0,0,1,.32-.38.71.71,0,0,1,.44-.15.52.52,0,0,1,.4.18A.53.53,0,0,1,118.82,103.22Z" transform="translate(0)"/><path class="cls-12" d="M124.35,106a.67.67,0,0,0-.28-.57,1.57,1.57,0,0,0-.91-.21,2.67,2.67,0,0,0-1,.22,4.38,4.38,0,0,0-1,.6,5.44,5.44,0,0,0-.88.91,5.83,5.83,0,0,0-.71,1.15,6.29,6.29,0,0,0-.47,1.3,5.47,5.47,0,0,0-.18,1.39,3.25,3.25,0,0,0,.13,1,1.64,1.64,0,0,0,.35.64,1.26,1.26,0,0,0,.53.35,2.25,2.25,0,0,0,.71.11,3.44,3.44,0,0,0,1.5-.35,6.34,6.34,0,0,0,1.39-.9,8.88,8.88,0,0,0,1.21-1.24,15.18,15.18,0,0,0,1-1.35l.42.32a12.89,12.89,0,0,1-1.29,1.79,8.69,8.69,0,0,1-1.41,1.28,5.7,5.7,0,0,1-1.45.78,4.47,4.47,0,0,1-1.45.25,3.2,3.2,0,0,1-1.07-.17,2.51,2.51,0,0,1-.9-.51,2.41,2.41,0,0,1-.62-.88,3.27,3.27,0,0,1-.23-1.27,5.3,5.3,0,0,1,.26-1.66,6.32,6.32,0,0,1,.67-1.44,6.62,6.62,0,0,1,1-1.2,7.33,7.33,0,0,1,1.15-.9,5.71,5.71,0,0,1,1.21-.56,3.53,3.53,0,0,1,1.15-.2,2.28,2.28,0,0,1,.9.15,1.61,1.61,0,0,1,.55.37,1.22,1.22,0,0,1,.27.44,1.46,1.46,0,0,1,.08.41,2.37,2.37,0,0,1-.08.57,2.74,2.74,0,0,1-.22.55,1.65,1.65,0,0,1-.35.43.71.71,0,0,1-.45.16.6.6,0,0,1-.43-.16.52.52,0,0,1-.18-.41s0-.05,0-.13a.69.69,0,0,1,.1-.27,1,1,0,0,1,.28-.25,1.06,1.06,0,0,1,.52-.11h.13A1,1,0,0,0,124.35,106Z" transform="translate(0)"/><path class="cls-12" d="M135.1,107.35a3.11,3.11,0,0,1-.17,1,7.72,7.72,0,0,1-.43,1c-.17.33-.35.66-.55,1l-.55.93a6.76,6.76,0,0,0-.42.86,1.83,1.83,0,0,0-.17.74.46.46,0,0,0,.11.35.4.4,0,0,0,.25.09,1.6,1.6,0,0,0,1-.42,8.18,8.18,0,0,0,1.07-1.06c.36-.43.73-.89,1.09-1.39s.68-1,1-1.43l.4.32-.32.53c-.16.27-.35.57-.58.91s-.5.69-.78,1.06a8.29,8.29,0,0,1-.93,1,5.31,5.31,0,0,1-1,.77,2,2,0,0,1-1.05.31,1.58,1.58,0,0,1-.55-.1,1.29,1.29,0,0,1-.42-.28,1.39,1.39,0,0,1-.28-.43,1.25,1.25,0,0,1-.1-.51,2.65,2.65,0,0,1,.2-.94,8.14,8.14,0,0,1,.49-1q.28-.54.63-1.08c.24-.37.45-.71.64-1a9.44,9.44,0,0,0,.49-.92,1.79,1.79,0,0,0,.2-.72.86.86,0,0,0-.19-.58.61.61,0,0,0-.52-.24,1.62,1.62,0,0,0-.83.3,7,7,0,0,0-1.05.87,17.4,17.4,0,0,0-1.28,1.41c-.46.55-1,1.19-1.49,1.9l-.9,1.19c-.13.16-.25.33-.38.5l-.38.51-.36.48c-.11.16-.21.29-.3.4l-1-.4,1.31-1.81c.19-.25.38-.53.57-.82s.39-.59.58-.9.37-.62.54-.94.34-.62.49-.92a8.61,8.61,0,0,0,.45-1.11,3,3,0,0,0,.12-.71.53.53,0,0,0-.11-.4.46.46,0,0,0-.32-.1.83.83,0,0,0-.49.22,4.22,4.22,0,0,0-.56.56,8.8,8.8,0,0,0-.59.78c-.2.28-.39.57-.57.85l-.5.81-.39.62-.41-.32c.38-.59.73-1.14,1-1.64a12.69,12.69,0,0,1,.9-1.28,4.16,4.16,0,0,1,.84-.84,1.43,1.43,0,0,1,.87-.3,1.28,1.28,0,0,1,.47.1,1.21,1.21,0,0,1,.41.3,1.58,1.58,0,0,1,.27.48,1.85,1.85,0,0,1,.1.65,3.13,3.13,0,0,1-.06.6,7.66,7.66,0,0,1,.92-.79,5.27,5.27,0,0,1,.78-.5,3.32,3.32,0,0,1,.66-.26,1.92,1.92,0,0,1,.55-.08,1.66,1.66,0,0,1,.5.08,1.35,1.35,0,0,1,.52.29,1.57,1.57,0,0,1,.42.59A2.24,2.24,0,0,1,135.1,107.35Z" transform="translate(0)"/><path class="cls-12" d="M140.19,105.71l-.41.77c-.18.32-.37.66-.57,1s-.41.77-.61,1.19-.4.82-.57,1.21-.3.76-.41,1.1a3.37,3.37,0,0,0-.16.88.56.56,0,0,0,.14.44.54.54,0,0,0,.38.12,1.59,1.59,0,0,0,.9-.3,5.18,5.18,0,0,0,.87-.79,10.54,10.54,0,0,0,.84-1.12c.28-.42.56-.84.83-1.27l.41.32c-.22.39-.47.8-.74,1.24a9.31,9.31,0,0,1-.91,1.23,5.13,5.13,0,0,1-1.11.94,2.59,2.59,0,0,1-1.33.37,1.32,1.32,0,0,1-1-.41,1.5,1.5,0,0,1-.36-1,4.07,4.07,0,0,1,.35-1.57,9.8,9.8,0,0,1,.87-1.62,19,19,0,0,1,1.13-1.54c.41-.5.79-.94,1.13-1.35Zm2.1-2.49a1,1,0,0,1-.12.46,1.65,1.65,0,0,1-.28.44,1.9,1.9,0,0,1-.39.31.85.85,0,0,1-.43.12.33.33,0,0,1-.29-.14.6.6,0,0,1-.1-.34,1.41,1.41,0,0,1,.07-.42,1.63,1.63,0,0,1,.2-.47,1.51,1.51,0,0,1,.33-.38.66.66,0,0,1,.43-.15.54.54,0,0,1,.41.18A.57.57,0,0,1,142.29,103.22Z" transform="translate(0)"/><path class="cls-12" d="M147.82,106a.68.68,0,0,0-.29-.57,1.53,1.53,0,0,0-.9-.21,2.68,2.68,0,0,0-1,.22,4.38,4.38,0,0,0-1,.6,5.86,5.86,0,0,0-.88.91,6.34,6.34,0,0,0-.71,1.15,6.92,6.92,0,0,0-.47,1.3,5.94,5.94,0,0,0-.17,1.39,3.28,3.28,0,0,0,.12,1,1.64,1.64,0,0,0,.35.64,1.3,1.3,0,0,0,.54.35,2.19,2.19,0,0,0,.7.11,3.51,3.51,0,0,0,1.51-.35,6.53,6.53,0,0,0,1.38-.9,8.88,8.88,0,0,0,1.21-1.24q.56-.69,1-1.35l.41.32a11.42,11.42,0,0,1-1.29,1.79,8.64,8.64,0,0,1-1.4,1.28,5.93,5.93,0,0,1-1.46.78,4.43,4.43,0,0,1-1.45.25,3.2,3.2,0,0,1-1.07-.17,2.51,2.51,0,0,1-.9-.51,2.39,2.39,0,0,1-.61-.88,3.27,3.27,0,0,1-.23-1.27,5.29,5.29,0,0,1,.25-1.66,6.32,6.32,0,0,1,.67-1.44,7.07,7.07,0,0,1,1-1.2,7.33,7.33,0,0,1,1.15-.9,6,6,0,0,1,1.21-.56,3.57,3.57,0,0,1,1.15-.2,2.28,2.28,0,0,1,.9.15,1.52,1.52,0,0,1,.55.37,1.13,1.13,0,0,1,.28.44,1.85,1.85,0,0,1,.07.41,2.37,2.37,0,0,1-.08.57,2.26,2.26,0,0,1-.22.55,1.47,1.47,0,0,1-.35.43.69.69,0,0,1-.45.16.6.6,0,0,1-.43-.16.52.52,0,0,1-.18-.41s0-.05,0-.13a.73.73,0,0,1,.11-.27.94.94,0,0,1,.27-.25,1.09,1.09,0,0,1,.52-.11h.14A1.22,1.22,0,0,0,147.82,106Z" transform="translate(0)"/><path class="cls-12" d="M155.52,110.12h.19a2.49,2.49,0,0,0,.57-.06,1.87,1.87,0,0,0,.48-.2,2,2,0,0,0,.42-.35,2.89,2.89,0,0,0,.39-.54l.41.32a3.31,3.31,0,0,1-1.11,1.06,2.48,2.48,0,0,1-1.21.31,1.73,1.73,0,0,1-.42,0,7.29,7.29,0,0,1-1,1.38,6.57,6.57,0,0,1-1.12.92,4.44,4.44,0,0,1-1.14.52,3.66,3.66,0,0,1-1,.16,2.27,2.27,0,0,1-.91-.17,2.16,2.16,0,0,1-.73-.5,2.21,2.21,0,0,1-.47-.77,2.93,2.93,0,0,1-.17-1,3.88,3.88,0,0,1,.18-1.15,7.09,7.09,0,0,1,.49-1.15,8.48,8.48,0,0,1,.73-1.11,9.25,9.25,0,0,1,.89-1,11,11,0,0,1,1-.83,5.49,5.49,0,0,1,1-.6l.36.47a8.18,8.18,0,0,0-1.2,1.07,9.75,9.75,0,0,0-1.11,1.43,7.88,7.88,0,0,0-.82,1.61,4.36,4.36,0,0,0-.32,1.62,1.68,1.68,0,0,0,.31,1.09,1.15,1.15,0,0,0,1,.39,2.6,2.6,0,0,0,1-.2,4.52,4.52,0,0,0,.94-.55,6.22,6.22,0,0,0,.89-.83,11.92,11.92,0,0,0,.81-1,2.15,2.15,0,0,1-.58-.51,3.44,3.44,0,0,1-.41-.73,4.08,4.08,0,0,1-.25-.88,5.23,5.23,0,0,1-.09-1,3.17,3.17,0,0,1,.13-.93,2.69,2.69,0,0,1,.34-.77,1.69,1.69,0,0,1,.51-.52,1.2,1.2,0,0,1,.64-.19,1.08,1.08,0,0,1,.56.16,1.38,1.38,0,0,1,.41.45,2.19,2.19,0,0,1,.26.68,3.73,3.73,0,0,1,.09.84,5,5,0,0,1-.06.74,6.24,6.24,0,0,1-.16.82,5.74,5.74,0,0,1-.26.8A3.44,3.44,0,0,1,155.52,110.12Zm-1.52-2.8a4.47,4.47,0,0,0,.05.71,4.7,4.7,0,0,0,.18.74,3.18,3.18,0,0,0,.32.67,1.47,1.47,0,0,0,.47.49,8.16,8.16,0,0,0,.34-.81c.09-.27.17-.53.23-.79a5.22,5.22,0,0,0,.14-.71c0-.22,0-.41,0-.58a2.87,2.87,0,0,0-.06-.61,2.59,2.59,0,0,0-.15-.49.83.83,0,0,0-.24-.33.43.43,0,0,0-.3-.11.68.68,0,0,0-.42.15,1.18,1.18,0,0,0-.32.4,2.33,2.33,0,0,0-.21.58A3.11,3.11,0,0,0,154,107.32Z" transform="translate(0)"/><path class="cls-13" d="M84.46,99.25" transform="translate(0)"/><rect class="cls-10" y="6" width="63" height="4"/><rect x="63" y="6" width="63" height="4"/><rect class="cls-14" x="126" y="6" width="63" height="4"/><rect class="cls-15" x="189" y="6" width="63" height="4"/></svg>