<svg id="Layer_1" data-name="Layer 1" xmlns="http://www.w3.org/2000/svg" viewBox="0 0 123 123"><defs><style>.cls-1{fill:#edce8a;}.cls-2{fill:none;stroke:#c4a670;stroke-miterlimit:10;}.cls-3{fill:#fff;}</style></defs><circle class="cls-1" cx="61.5" cy="61.5" r="61.5"/><g id="logo"><path id="Path_5" data-name="Path 5" class="cls-2" d="M102.61,38.34l41.76,61.93.68,6.6S103.42,75.44,102.61,38.34Z" transform="translate(-64.5 -10.5)"/><path id="Path_6" data-name="Path 6" class="cls-2" d="M104.52,37.13l41.77,61.93,5.86,3.11S138.61,51.79,104.52,37.13Z" transform="translate(-64.5 -10.5)"/><g id="Logo-2"><path id="Path_41" data-name="Path 41" class="cls-3" d="M83.86,83.83a11.37,11.37,0,0,1-4.53-.76A5.7,5.7,0,0,1,76.72,81a6.43,6.43,0,0,1-1-3h2.22a3.33,3.33,0,0,0,.91,2.21A5,5,0,0,0,81,81.41a10.39,10.39,0,0,0,3,.39A7.32,7.32,0,0,0,87.79,81a2.72,2.72,0,0,0,1.4-2.49,2,2,0,0,0-.7-1.61,5.22,5.22,0,0,0-1.85-1c-.77-.27-1.61-.51-2.52-.73s-1.83-.45-2.75-.7a13.34,13.34,0,0,1-2.54-.94A5.1,5.1,0,0,1,77,72a3.56,3.56,0,0,1-.7-2.29A4.62,4.62,0,0,1,78.06,66a8.26,8.26,0,0,1,5.31-1.45,9.94,9.94,0,0,1,4.14.75,5.77,5.77,0,0,1,2.44,2,5.32,5.32,0,0,1,.9,2.65h-2.2a3.5,3.5,0,0,0-1.43-2.41,6.16,6.16,0,0,0-3.85-1,9.06,9.06,0,0,0-2.59.32,4,4,0,0,0-1.53.81,2.68,2.68,0,0,0-.71,1,3,3,0,0,0-.18,1,1.87,1.87,0,0,0,.7,1.52,5.47,5.47,0,0,0,1.85,1,25.33,25.33,0,0,0,2.55.7c.93.21,1.86.44,2.78.7a13.44,13.44,0,0,1,2.54,1A5.35,5.35,0,0,1,90.63,76a3.78,3.78,0,0,1,.7,2.34,4.66,4.66,0,0,1-2,4A9.33,9.33,0,0,1,83.86,83.83Zm15.88,0a5.75,5.75,0,0,1-2.76-.7,5.39,5.39,0,0,1-2.13-2.08A6.64,6.64,0,0,1,94,77.64V69.35h2.14v8.24a4.33,4.33,0,0,0,1.12,3.12,3.83,3.83,0,0,0,2.87,1.18,4.22,4.22,0,0,0,4.3-4.33V69.35h2.14V83.6h-2.14V81.38a7.09,7.09,0,0,1-1.88,1.74,5.26,5.26,0,0,1-2.85.71Zm10.58-.23V69.35h2.14v3.5a5.07,5.07,0,0,1,.44-1,5.52,5.52,0,0,1,.95-1.24,5.36,5.36,0,0,1,1.59-1.07,5.3,5.3,0,0,1,2.26-.44h.15v2.14h-.26a4.38,4.38,0,0,0-2.75.87,5.49,5.49,0,0,0-1.77,2.25,7.12,7.12,0,0,0-.61,3V83.6Zm10.8,0V71.23h-2.45V69.35h2.45V68.09a4.3,4.3,0,0,1,1.42-3.51,5.85,5.85,0,0,1,3.86-1.17h.17v2h-.29a3.32,3.32,0,0,0-2.25.67,2.72,2.72,0,0,0-.77,2.15v1.09h3.31v1.88h-3.31V83.6Zm16.17.23a9,9,0,0,1-4.87-1.3A8.64,8.64,0,0,1,129.26,79a11.45,11.45,0,0,1,0-9.75,8.52,8.52,0,0,1,3.16-3.49,8.81,8.81,0,0,1,4.87-1.3,9.44,9.44,0,0,1,3.85.75,8.8,8.8,0,0,1,2.91,2.07,8.62,8.62,0,0,1,1.79,3.05h-2.25a5.91,5.91,0,0,0-2.25-2.76,6.8,6.8,0,0,0-3.88-1,7.17,7.17,0,0,0-3.89,1,6.54,6.54,0,0,0-2.44,2.72,9.42,9.42,0,0,0,0,7.69,6.47,6.47,0,0,0,2.44,2.74,7.17,7.17,0,0,0,3.89,1,6.88,6.88,0,0,0,3.88-1A6,6,0,0,0,143.59,78h2.25a8.73,8.73,0,0,1-1.79,3,8.49,8.49,0,0,1-2.91,2.08A9.45,9.45,0,0,1,137.29,83.83ZM148.5,67V64.16h2.31V67Zm.08,16.65V69.35h2.14V83.6Zm7.39,0V71.23h-2.91V69.35H156V64.24h2.13v5.11h3.28v1.88H158.1V83.6Zm9.24,5.65,2.59-5.85L162,69.35h2.37L168.94,81l4.68-11.69H176l-8.44,19.9Z" transform="translate(-64.5 -10.5)"/></g></g></svg>