<svg id="Layer_1" data-name="Layer 1" xmlns="http://www.w3.org/2000/svg" viewBox="0 0 252 144"><defs><style>.cls-1{fill:#edce8a;}.cls-2{fill:none;stroke:#c4a670;stroke-miterlimit:10;}.cls-3{fill:#fff;}.cls-4{fill:#c4a670;}</style></defs><rect class="cls-1" width="252" height="144"/><g id="logo"><path id="Path_5" data-name="Path 5" class="cls-2" d="M102.78,42.7l41.76,61.93.68,6.6S103.59,79.8,102.78,42.7Z"/><path id="Path_6" data-name="Path 6" class="cls-2" d="M104.69,41.49l41.77,61.93,5.86,3.1S138.78,56.15,104.69,41.49Z"/><g id="Logo-2"><path id="Path_41" data-name="Path 41" class="cls-3" d="M84,88.19a11.37,11.37,0,0,1-4.53-.76,5.7,5.7,0,0,1-2.61-2.09,6.43,6.43,0,0,1-1-3H78.1A3.29,3.29,0,0,0,79,84.52a4.91,4.91,0,0,0,2.18,1.24,10.35,10.35,0,0,0,3,.4A7.32,7.32,0,0,0,88,85.32a2.72,2.72,0,0,0,1.4-2.49,2,2,0,0,0-.7-1.61,5.22,5.22,0,0,0-1.85-1c-.77-.27-1.61-.51-2.52-.73s-1.83-.45-2.75-.7A13.34,13.34,0,0,1,79,77.84a5.1,5.1,0,0,1-1.85-1.47,3.56,3.56,0,0,1-.7-2.29,4.61,4.61,0,0,1,1.78-3.77,8.26,8.26,0,0,1,5.31-1.45,9.94,9.94,0,0,1,4.14.75,5.82,5.82,0,0,1,2.44,2,5.39,5.39,0,0,1,.9,2.65h-2.2a3.5,3.5,0,0,0-1.43-2.4,6.16,6.16,0,0,0-3.85-1,8.72,8.72,0,0,0-2.59.32,4,4,0,0,0-1.53.81,2.68,2.68,0,0,0-.71,1,3,3,0,0,0-.18,1,1.89,1.89,0,0,0,.7,1.53,5.66,5.66,0,0,0,1.85,1c.84.27,1.69.51,2.55.7s1.86.44,2.78.7a13.44,13.44,0,0,1,2.54,1A5.35,5.35,0,0,1,90.8,80.4a3.78,3.78,0,0,1,.7,2.34,4.66,4.66,0,0,1-2,4A9.33,9.33,0,0,1,84,88.19Zm15.88,0a5.75,5.75,0,0,1-2.76-.7A5.39,5.39,0,0,1,95,85.41,6.64,6.64,0,0,1,94.21,82V73.7h2.14v8.24a4.35,4.35,0,0,0,1.12,3.13,3.83,3.83,0,0,0,2.87,1.18,4.3,4.3,0,0,0,3.72-2.08,4.28,4.28,0,0,0,.58-2.26V73.7h2.14V88h-2.14V85.74a7.06,7.06,0,0,1-1.88,1.73,5.18,5.18,0,0,1-2.85.72ZM110.49,88V73.7h2.14v3.51a5.07,5.07,0,0,1,.44-1A5.52,5.52,0,0,1,114,75a5.36,5.36,0,0,1,1.59-1.07,5.3,5.3,0,0,1,2.26-.44H118v2.13h-.26a4.5,4.5,0,0,0-2.75.87,5.52,5.52,0,0,0-1.77,2.26,7.12,7.12,0,0,0-.61,3V88Zm10.8,0V75.59h-2.45V73.7h2.45V72.45a4.3,4.3,0,0,1,1.42-3.51,5.85,5.85,0,0,1,3.86-1.17h.17v2h-.29a3.32,3.32,0,0,0-2.25.67,2.71,2.71,0,0,0-.77,2.15V73.7h3.31v1.89h-3.31V88Zm16.17.23a9,9,0,0,1-4.87-1.3,8.64,8.64,0,0,1-3.16-3.49,11.45,11.45,0,0,1,0-9.75,8.61,8.61,0,0,1,3.16-3.5,8.88,8.88,0,0,1,4.87-1.29,9.44,9.44,0,0,1,3.85.75,8.49,8.49,0,0,1,4.7,5.12h-2.25A5.93,5.93,0,0,0,141.51,72a6.87,6.87,0,0,0-3.88-1,7.17,7.17,0,0,0-3.89,1,6.48,6.48,0,0,0-2.44,2.72,8.66,8.66,0,0,0-.82,3.85,8.76,8.76,0,0,0,.82,3.84,6.44,6.44,0,0,0,2.44,2.73,7,7,0,0,0,3.89,1,6.79,6.79,0,0,0,3.88-1,6,6,0,0,0,2.25-2.77H146a8.82,8.82,0,0,1-1.79,3,8.49,8.49,0,0,1-2.91,2.08A9.45,9.45,0,0,1,137.46,88.19Zm11.21-16.88v-2.8H151v2.8ZM148.75,88V73.7h2.14V88Zm7.39,0V75.59h-2.91V73.7h2.91V68.6h2.13v5.1h3.28v1.89h-3.28V88Zm9.24,5.64L168,87.76,162.15,73.7h2.37l4.59,11.69,4.68-11.69h2.33l-8.44,19.9Z"/></g></g><rect class="cls-4" y="5.95" width="126" height="4"/><rect class="cls-3" x="126" y="5.95" width="126" height="4"/></svg>