<svg id="Layer_1" data-name="Layer 1" xmlns="http://www.w3.org/2000/svg" viewBox="0 0 123 123"><defs><style>.cls-1{fill:#f995c2;stroke:#fff;}.cls-1,.cls-5,.cls-8{stroke-miterlimit:10;}.cls-2{fill:#ff8dbb;}.cls-3{opacity:0.74;}.cls-4{fill:#ef60a8;}.cls-5,.cls-8{fill:none;stroke-linecap:round;stroke-width:2px;}.cls-5{stroke:#ef60a8;}.cls-6{fill:#ffb6d0;}.cls-7{fill:#ff66ac;}.cls-8{stroke:#ff66ac;}</style></defs><path d="M102,86" transform="translate(-64.5 -11)"/><path class="cls-1" d="M87.05,33.06" transform="translate(-64.5 -11)"/><circle class="cls-2" cx="61.5" cy="61.5" r="61.5"/><path d="M88.15,104.63a4.89,4.89,0,0,1-2.11-.38A2.27,2.27,0,0,1,84.87,103a6,6,0,0,1-.32-2.38l.11-4.78H82.89v-2l1.87-.51.43-3.15h2.46v3.15H90.3v2.51H87.65v4.76a3.16,3.16,0,0,0,.08.76,1.24,1.24,0,0,0,.25.47.83.83,0,0,0,.36.26,1.3,1.3,0,0,0,.43.11l1.43.13v2.31Z" transform="translate(-64.5 -11)"/><path d="M92.43,91.66c-.3,0-.44-.14-.44-.42V89.17a.39.39,0,0,1,.44-.44h2.4a.38.38,0,0,1,.3.13.46.46,0,0,1,.1.31v2.07c0,.28-.13.42-.4.42Zm-.38,13V93.32h3.12v11.31Z" transform="translate(-64.5 -11)"/><path d="M97.57,104.63V93.32h2.57l.55,1.16a6.61,6.61,0,0,1,1.59-.94,5,5,0,0,1,2-.41,3.64,3.64,0,0,1,2.14.55,2.94,2.94,0,0,1,1.07,1.47,6.46,6.46,0,0,1,.3,2v7.45h-3.11v-7a1.78,1.78,0,0,0-.21-.91,1.33,1.33,0,0,0-.55-.55,1.93,1.93,0,0,0-.87-.18,3.41,3.41,0,0,0-.85.1,3.7,3.7,0,0,0-.78.3,4.31,4.31,0,0,0-.7.44v7.85Z" transform="translate(-64.5 -11)"/><path d="M113.64,109.62l1.22-5a3.76,3.76,0,0,1-1.66-.35,3.11,3.11,0,0,1-1.19-1,4.82,4.82,0,0,1-.73-1.65l-2.13-8.28h3.25l1.79,7.65a1.86,1.86,0,0,0,.27.63,1,1,0,0,0,.36.33,1.39,1.39,0,0,0,.34.12.87.87,0,0,0,.25,0l2-8.76h3.16l-3.37,14.22-1,2.08Z" transform="translate(-64.5 -11)"/><path d="M127.52,104.63V93.32h2.57l.54,1.16a8.82,8.82,0,0,1,1.61-.94,5.17,5.17,0,0,1,2.16-.41,3.24,3.24,0,0,1,1.78.45,2.84,2.84,0,0,1,1.07,1.16,8.36,8.36,0,0,1,1.12-.74,8.61,8.61,0,0,1,1.38-.61,4.46,4.46,0,0,1,1.46-.26,4,4,0,0,1,2.16.52,2.77,2.77,0,0,1,1.1,1.45,6.94,6.94,0,0,1,.32,2.2v7.33h-3.12v-7a1.89,1.89,0,0,0-.2-.91,1.35,1.35,0,0,0-.56-.55,1.91,1.91,0,0,0-.86-.18,3.29,3.29,0,0,0-1.28.26,6.28,6.28,0,0,0-1.15.62c0,.14,0,.28.07.41s0,.27,0,.41v7h-3.12v-7a1.78,1.78,0,0,0-.2-.91,1.35,1.35,0,0,0-.56-.55,1.86,1.86,0,0,0-.86-.18,3.41,3.41,0,0,0-.85.1,3.32,3.32,0,0,0-.78.3,4.39,4.39,0,0,0-.71.44v7.85Z" transform="translate(-64.5 -11)"/><path d="M147.5,91.66c-.29,0-.44-.14-.44-.42V89.17a.39.39,0,0,1,.44-.44h2.4a.38.38,0,0,1,.3.13.46.46,0,0,1,.1.31v2.07c0,.28-.13.42-.4.42Zm-.38,13V93.32h3.12v11.31Z" transform="translate(-64.5 -11)"/><path d="M156.18,104.68a4.49,4.49,0,0,1-2-.39,2.44,2.44,0,0,1-1.17-1.2,5,5,0,0,1-.38-2.1V88.56h3.12v12a3.36,3.36,0,0,0,.12,1,1,1,0,0,0,.39.53,1.77,1.77,0,0,0,.67.24l.86.12v2.26Z" transform="translate(-64.5 -11)"/><path d="M164,104.74a7.5,7.5,0,0,1-3-.5,3,3,0,0,1-1.61-1.75,9.94,9.94,0,0,1-.49-3.5,10.73,10.73,0,0,1,.46-3.56,3,3,0,0,1,1.56-1.77,7.16,7.16,0,0,1,3-.5,8.89,8.89,0,0,1,2.69.33,2.51,2.51,0,0,1,1.47,1.18,5.14,5.14,0,0,1,.45,2.38,3.15,3.15,0,0,1-.45,1.8,2.53,2.53,0,0,1-1.28,1,5.91,5.91,0,0,1-1.93.28H162a4,4,0,0,0,.27,1.38,1.32,1.32,0,0,0,.82.74,5.19,5.19,0,0,0,1.73.22h3.31v1.83q-.83.18-1.8.33A14.27,14.27,0,0,1,164,104.74Zm-2-6.51h2.57a1.42,1.42,0,0,0,.93-.25,1.18,1.18,0,0,0,.29-.91,2.14,2.14,0,0,0-.19-1,1,1,0,0,0-.59-.52,2.84,2.84,0,0,0-1.07-.16,2.3,2.3,0,0,0-1.14.24,1.44,1.44,0,0,0-.61.85A6,6,0,0,0,162,98.23Z" transform="translate(-64.5 -11)"/><g class="cls-3"><rect class="cls-4" x="47.91" y="28.68" width="37.69" height="36.74" rx="8.25"/><rect class="cls-4" x="54.7" y="39.23" width="24.11" height="15.64" rx="5.47"/><path class="cls-4" d="M129.52,56.77l-3.32,3.32-3.31-3.32a2.35,2.35,0,1,1,3.31-3.31,2.49,2.49,0,0,1,3.11-.42A2.53,2.53,0,0,1,129.52,56.77Z" transform="translate(-64.5 -11)"/><path class="cls-4" d="M139.69,56.77l-3.32,3.32-3.32-3.32a2.35,2.35,0,1,1,3.32-3.31,2.49,2.49,0,0,1,3.11-.42A2.53,2.53,0,0,1,139.69,56.77Z" transform="translate(-64.5 -11)"/><path class="cls-5" d="M133.44,61.35a2.09,2.09,0,0,1-4.18,0" transform="translate(-64.5 -11)"/><rect class="cls-4" x="43.38" y="57.84" width="5.4" height="14.84" rx="2.37"/><rect class="cls-4" x="84.74" y="57.84" width="5.4" height="14.84" rx="2.37"/></g><rect class="cls-6" x="41.91" y="22.68" width="37.69" height="36.74" rx="8.25"/><rect x="48.7" y="33.23" width="24.11" height="15.64" rx="5.47"/><path class="cls-7" d="M123.52,50.77l-3.32,3.32-3.31-3.32a2.35,2.35,0,1,1,3.31-3.31,2.49,2.49,0,0,1,3.11-.42A2.53,2.53,0,0,1,123.52,50.77Z" transform="translate(-64.5 -11)"/><path class="cls-7" d="M133.69,50.77l-3.32,3.32-3.32-3.32a2.35,2.35,0,1,1,3.32-3.31,2.49,2.49,0,0,1,3.11-.42A2.53,2.53,0,0,1,133.69,50.77Z" transform="translate(-64.5 -11)"/><path class="cls-8" d="M127.44,55.35a2.09,2.09,0,0,1-4.18,0" transform="translate(-64.5 -11)"/><rect x="37.38" y="51.84" width="5.4" height="14.84" rx="2.37"/><rect x="78.74" y="51.84" width="5.4" height="14.84" rx="2.37"/></svg>