<svg id="Layer_1" data-name="Layer 1" xmlns="http://www.w3.org/2000/svg" viewBox="0 0 252 144"><defs><style>.cls-1{fill:#f995c2;stroke:#fff;}.cls-1,.cls-5,.cls-8{stroke-miterlimit:10;}.cls-2{fill:#ff8dbb;}.cls-3{opacity:0.74;}.cls-4{fill:#ef60a8;}.cls-5,.cls-8{fill:none;stroke-linecap:round;stroke-width:2px;}.cls-5{stroke:#ef60a8;}.cls-6{fill:#ffb6d0;}.cls-7{fill:#ff66ac;}.cls-8{stroke:#ff66ac;}</style></defs><path d="M102,86"/><path class="cls-1" d="M87.05,33.06"/><rect class="cls-2" width="252" height="144"/><path d="M87.33,109.1a5.09,5.09,0,0,1-2.16-.39,2.28,2.28,0,0,1-1.2-1.29,6.19,6.19,0,0,1-.32-2.43l.11-4.88H82v-2l1.91-.52.44-3.22h2.51v3.22h2.71v2.57H86.81V105a2.71,2.71,0,0,0,.09.77,1.19,1.19,0,0,0,.25.49,1,1,0,0,0,.37.27,2.47,2.47,0,0,0,.43.11l1.47.12v2.37Z"/><path d="M91.7,95.85a.39.39,0,0,1-.45-.43V93.31a.4.4,0,0,1,.45-.46h2.45a.38.38,0,0,1,.3.13.52.52,0,0,1,.11.33v2.11a.38.38,0,0,1-.41.43Zm-.39,13.25V97.54H94.5V109.1Z"/><path d="M97,109.1V97.54h2.62l.56,1.19a6.62,6.62,0,0,1,1.63-1,5,5,0,0,1,2-.42,3.74,3.74,0,0,1,2.2.56,3,3,0,0,1,1.08,1.5,6.43,6.43,0,0,1,.31,2.07v7.62h-3.18v-7.21a1.93,1.93,0,0,0-.2-.92,1.36,1.36,0,0,0-.58-.56,1.82,1.82,0,0,0-.88-.2,3.58,3.58,0,0,0-.87.11,3.86,3.86,0,0,0-.8.3,5.41,5.41,0,0,0-.72.45v8Z"/><path d="M113.37,114.2l1.25-5.1a3.77,3.77,0,0,1-1.7-.36,3.34,3.34,0,0,1-1.22-1A5,5,0,0,1,111,106l-2.18-8.46h3.32l1.83,7.82a1.81,1.81,0,0,0,.28.64,1,1,0,0,0,.36.34,2.28,2.28,0,0,0,.36.13l.25,0,2.08-9h3.23l-3.44,14.53-1,2.13Z"/><path d="M127.55,109.1V97.54h2.62l.56,1.19a9.66,9.66,0,0,1,1.65-1,5.35,5.35,0,0,1,2.21-.41,3.35,3.35,0,0,1,1.81.45A2.9,2.9,0,0,1,137.49,99a10,10,0,0,1,1.15-.76,9,9,0,0,1,1.41-.62,4.63,4.63,0,0,1,1.49-.26,4,4,0,0,1,2.2.53,2.75,2.75,0,0,1,1.13,1.48,6.93,6.93,0,0,1,.33,2.25v7.49H142v-7.21a1.93,1.93,0,0,0-.2-.92,1.4,1.4,0,0,0-.57-.56,1.89,1.89,0,0,0-.89-.2,3.4,3.4,0,0,0-1.3.27,5.43,5.43,0,0,0-1.17.64,3,3,0,0,1,.06.42,2.82,2.82,0,0,1,0,.42v7.14h-3.18v-7.21a1.93,1.93,0,0,0-.2-.92,1.4,1.4,0,0,0-.57-.56,1.89,1.89,0,0,0-.89-.2,3.64,3.64,0,0,0-1.66.41,4.93,4.93,0,0,0-.73.45v8Z"/><path d="M148,95.85a.39.39,0,0,1-.45-.43V93.31a.4.4,0,0,1,.45-.46h2.45a.42.42,0,0,1,.31.13.52.52,0,0,1,.1.33v2.11c0,.28-.13.43-.41.43Zm-.39,13.25V97.54h3.19V109.1Z"/><path d="M156.84,109.14a4.7,4.7,0,0,1-2-.39,2.58,2.58,0,0,1-1.19-1.23,5.05,5.05,0,0,1-.39-2.14V92.68h3.19v12.23a3.12,3.12,0,0,0,.13,1,1,1,0,0,0,.39.55,1.82,1.82,0,0,0,.68.23l.89.13v2.3Z"/><path d="M164.82,109.21a7.56,7.56,0,0,1-3-.51,3,3,0,0,1-1.65-1.79,10,10,0,0,1-.51-3.58,10.81,10.81,0,0,1,.48-3.63,3,3,0,0,1,1.59-1.81,7.27,7.27,0,0,1,3-.52,9,9,0,0,1,2.76.35,2.49,2.49,0,0,1,1.49,1.2,5.21,5.21,0,0,1,.47,2.43,3.19,3.19,0,0,1-.47,1.84,2.43,2.43,0,0,1-1.3,1,5.9,5.9,0,0,1-2,.29h-2.9a4.19,4.19,0,0,0,.27,1.41,1.38,1.38,0,0,0,.84.76,5.37,5.37,0,0,0,1.77.22H169v1.87c-.56.12-1.17.23-1.84.34A14.93,14.93,0,0,1,164.82,109.21Zm-2.09-6.65h2.63a1.46,1.46,0,0,0,.95-.26,1.17,1.17,0,0,0,.3-.92,2.16,2.16,0,0,0-.2-1,1.06,1.06,0,0,0-.6-.54,3,3,0,0,0-1.1-.16,2.41,2.41,0,0,0-1.16.24,1.45,1.45,0,0,0-.62.87A6.24,6.24,0,0,0,162.73,102.56Z"/><g class="cls-3"><rect class="cls-4" x="109.6" y="38.17" width="43.11" height="42.03" rx="8.25"/><rect class="cls-4" x="117.36" y="50.24" width="27.58" height="17.89" rx="5.47"/><path class="cls-4" d="M129.16,57.72l-3.79,3.8-3.79-3.8a2.69,2.69,0,1,1,3.79-3.79,2.84,2.84,0,0,1,3.55-.48A2.9,2.9,0,0,1,129.16,57.72Z"/><path class="cls-4" d="M140.79,57.72,137,61.52l-3.8-3.8a2.69,2.69,0,1,1,3.8-3.79,2.84,2.84,0,0,1,3.55-.48A2.9,2.9,0,0,1,140.79,57.72Z"/><path class="cls-5" d="M133.64,63a2.39,2.39,0,1,1-4.77,0"/><rect class="cls-4" x="104.41" y="71.53" width="6.17" height="16.97" rx="2.37"/><rect class="cls-4" x="151.72" y="71.53" width="6.17" height="16.97" rx="2.37"/></g><rect class="cls-6" x="103.6" y="32.17" width="43.11" height="42.03" rx="8.25"/><rect x="111.36" y="44.24" width="27.58" height="17.89" rx="5.47"/><path class="cls-7" d="M123.16,51.72l-3.79,3.8-3.79-3.8a2.69,2.69,0,1,1,3.79-3.79,2.84,2.84,0,0,1,3.55-.48A2.9,2.9,0,0,1,123.16,51.72Z"/><path class="cls-7" d="M134.79,51.72,131,55.52l-3.8-3.8a2.69,2.69,0,1,1,3.8-3.79,2.84,2.84,0,0,1,3.55-.48A2.9,2.9,0,0,1,134.79,51.72Z"/><path class="cls-8" d="M127.64,57a2.39,2.39,0,1,1-4.77,0"/><rect x="98.41" y="65.53" width="6.17" height="16.97" rx="2.37"/><rect x="145.72" y="65.53" width="6.17" height="16.97" rx="2.37"/><rect class="cls-7" x="84" y="6" width="84" height="4"/><rect y="6" width="84" height="4"/><rect class="cls-6" x="168" y="6" width="84" height="4"/></svg>