<svg id="Layer_1" data-name="Layer 1" xmlns="http://www.w3.org/2000/svg" viewBox="0 0 123 123"><defs><style>.cls-1{fill:#f995c2;stroke:#fff;}.cls-1,.cls-6,.cls-9{stroke-miterlimit:10;}.cls-2{fill:#ff8dbb;}.cls-3{fill:#e567a3;}.cls-4{opacity:0.74;}.cls-5{fill:#ef60a8;}.cls-6,.cls-9{fill:none;stroke-linecap:round;stroke-width:2px;}.cls-6{stroke:#ef60a8;}.cls-7{fill:#ffb6d0;}.cls-8{fill:#ff66ac;}.cls-9{stroke:#ff66ac;}</style></defs><path d="M102,86" transform="translate(-64.5 -11)"/><path class="cls-1" d="M87.05,33.06" transform="translate(-64.5 -11)"/><circle class="cls-2" cx="61.5" cy="61.5" r="61.5"/><path d="M91.62,94.65a4.54,4.54,0,0,1-1.92-.35,2.07,2.07,0,0,1-1.06-1.15A5.47,5.47,0,0,1,88.35,91l.1-4.34H86.84V84.83l1.7-.46.39-2.87h2.23v2.87h2.42v2.28H91.16V91a2.61,2.61,0,0,0,.08.69,1.16,1.16,0,0,0,.22.43.88.88,0,0,0,.34.24,1.64,1.64,0,0,0,.38.1l1.3.11v2.11Z" transform="translate(-64.5 -11)"/><path d="M95.51,82.86c-.27,0-.4-.13-.4-.38V80.6a.35.35,0,0,1,.4-.4h2.18a.34.34,0,0,1,.27.12.43.43,0,0,1,.09.28v1.88c0,.25-.12.38-.36.38Zm-.35,11.79V84.37H98V94.65Z" transform="translate(-64.5 -11)"/><path d="M100.17,94.65V84.37h2.34l.5,1a6.08,6.08,0,0,1,1.44-.85,4.49,4.49,0,0,1,1.79-.37,3.3,3.3,0,0,1,2,.5,2.62,2.62,0,0,1,1,1.33,5.92,5.92,0,0,1,.27,1.84v6.78H106.6V88.24a1.73,1.73,0,0,0-.18-.83,1.21,1.21,0,0,0-.51-.49,1.55,1.55,0,0,0-.78-.18,3.33,3.33,0,0,0-.78.1,3,3,0,0,0-.7.27,3.82,3.82,0,0,0-.64.4v7.14Z" transform="translate(-64.5 -11)"/><path d="M114.77,99.18l1.11-4.53a3.29,3.29,0,0,1-1.51-.33,3,3,0,0,1-1.08-.93,4.31,4.31,0,0,1-.66-1.5l-1.93-7.52h2.94l1.63,6.95a1.68,1.68,0,0,0,.25.57,1,1,0,0,0,.32.3,1.22,1.22,0,0,0,.32.11l.22,0,1.85-8h2.87L118,97.29l-.92,1.89Z" transform="translate(-64.5 -11)"/><path d="M127.38,94.65V84.37h2.33l.5,1a8.76,8.76,0,0,1,1.46-.86,4.77,4.77,0,0,1,2-.36,3,3,0,0,1,1.62.4,2.64,2.64,0,0,1,1,1.05,7.84,7.84,0,0,1,1-.67,8.3,8.3,0,0,1,1.25-.55,4.17,4.17,0,0,1,1.32-.23,3.55,3.55,0,0,1,2,.47,2.44,2.44,0,0,1,1,1.32,6.3,6.3,0,0,1,.29,2v6.66h-2.84V88.24a1.73,1.73,0,0,0-.18-.83,1.24,1.24,0,0,0-.5-.49,1.62,1.62,0,0,0-.79-.18,3.05,3.05,0,0,0-1.16.24,5.16,5.16,0,0,0-1,.57c0,.13,0,.25.06.37s0,.25,0,.37v6.36h-2.83V88.24a1.62,1.62,0,0,0-.19-.83,1.24,1.24,0,0,0-.5-.49,1.62,1.62,0,0,0-.79-.18,3.32,3.32,0,0,0-.77.1,2.89,2.89,0,0,0-.71.27,4.27,4.27,0,0,0-.64.4v7.14Z" transform="translate(-64.5 -11)"/><path d="M145.53,82.86c-.27,0-.4-.13-.4-.38V80.6a.35.35,0,0,1,.4-.4h2.18a.32.32,0,0,1,.27.12.43.43,0,0,1,.1.28v1.88a.33.33,0,0,1-.37.38Zm-.34,11.79V84.37H148V94.65Z" transform="translate(-64.5 -11)"/><path d="M153.42,94.68a4,4,0,0,1-1.81-.35,2.27,2.27,0,0,1-1.07-1.09,4.68,4.68,0,0,1-.34-1.9V80.05H153V90.92a2.71,2.71,0,0,0,.12.9.84.84,0,0,0,.35.49,1.63,1.63,0,0,0,.6.21l.79.12v2Z" transform="translate(-64.5 -11)"/><path d="M160.51,94.74a6.85,6.85,0,0,1-2.72-.45,2.76,2.76,0,0,1-1.46-1.6,8.92,8.92,0,0,1-.45-3.17,9.74,9.74,0,0,1,.42-3.23,2.69,2.69,0,0,1,1.42-1.61,6.46,6.46,0,0,1,2.7-.46,7.7,7.7,0,0,1,2.44.31,2.19,2.19,0,0,1,1.33,1.07,4.55,4.55,0,0,1,.42,2.16,2.79,2.79,0,0,1-.42,1.63,2.18,2.18,0,0,1-1.15.86,5.22,5.22,0,0,1-1.76.26h-2.59a4,4,0,0,0,.24,1.26,1.28,1.28,0,0,0,.75.67,4.89,4.89,0,0,0,1.58.2h3V94.3l-1.63.3A14.36,14.36,0,0,1,160.51,94.74Zm-1.85-5.91H161a1.3,1.3,0,0,0,.84-.23,1,1,0,0,0,.27-.82,2,2,0,0,0-.17-.89,1.06,1.06,0,0,0-.54-.48,2.62,2.62,0,0,0-1-.14,2.06,2.06,0,0,0-1,.22,1.24,1.24,0,0,0-.55.77A5.37,5.37,0,0,0,158.66,88.83Z" transform="translate(-64.5 -11)"/><path class="cls-3" d="M92,106.76a1,1,0,0,1-.7-.25.94.94,0,0,1-.26-.7v-.34a.93.93,0,0,1,.3-.71,1.37,1.37,0,0,1,.94-.27h1v-.26a.6.6,0,0,0-.06-.29.4.4,0,0,0-.24-.17,1.73,1.73,0,0,0-.52,0H91.33v-.61L92,103a5.52,5.52,0,0,1,.88-.06,2.66,2.66,0,0,1,.8.11.94.94,0,0,1,.5.39,1.36,1.36,0,0,1,.18.76v2.56H93.5l-.17-.4a.62.62,0,0,1-.17.12l-.29.15a2.22,2.22,0,0,1-.39.12A2.12,2.12,0,0,1,92,106.76Zm.52-.72.16,0,.18,0,.18,0,.13-.05.07,0V105l-.63,0a.64.64,0,0,0-.41.14.44.44,0,0,0-.13.32v.16a.41.41,0,0,0,.06.23.4.4,0,0,0,.16.13A.85.85,0,0,0,92.56,106Z" transform="translate(-64.5 -11)"/><path class="cls-3" d="M95.1,106.72V103h.8l.23.58a2.44,2.44,0,0,1,.46-.45,1,1,0,0,1,.61-.18h.16a.4.4,0,0,1,.15,0V104l-.22,0h-.22a1.4,1.4,0,0,0-.37,0,1,1,0,0,0-.3.14,1.38,1.38,0,0,0-.27.23v2.34Z" transform="translate(-64.5 -11)"/><path class="cls-3" d="M99.56,106.72a1.56,1.56,0,0,1-.7-.13.74.74,0,0,1-.39-.42,2,2,0,0,1-.11-.79l0-1.59h-.59v-.67l.62-.17.14-1h.83v1h.88v.84H99.4v1.58a.9.9,0,0,0,0,.25.48.48,0,0,0,.08.16.38.38,0,0,0,.13.09.32.32,0,0,0,.14,0l.47,0v.77Z" transform="translate(-64.5 -11)"/><path class="cls-3" d="M101,102.4c-.1,0-.15-.05-.15-.14v-.69a.13.13,0,0,1,.15-.15h.8a.13.13,0,0,1,.09,0,.15.15,0,0,1,0,.11v.69c0,.09,0,.14-.13.14Zm-.13,4.32V103h1v3.77Z" transform="translate(-64.5 -11)"/><path class="cls-3" d="M102.91,106.72v-2.93h-.53v-.67l.53-.17v-.41a1.67,1.67,0,0,1,.13-.73.72.72,0,0,1,.38-.37,1.49,1.49,0,0,1,.64-.12,3.12,3.12,0,0,1,.54,0,2.55,2.55,0,0,1,.4.08v.75h-.58a.55.55,0,0,0-.28.06.31.31,0,0,0-.15.17.81.81,0,0,0,0,.29V103h2v.84h-2v2.93Zm2.69-4.32c-.1,0-.15-.05-.15-.14v-.69a.13.13,0,0,1,.15-.15h.8a.15.15,0,0,1,.1,0,.2.2,0,0,1,0,.11v.69a.12.12,0,0,1-.13.14Zm-.13,4.32V103h1v3.77Z" transform="translate(-64.5 -11)"/><path class="cls-3" d="M108.77,106.76a2.08,2.08,0,0,1-.63-.09,1.09,1.09,0,0,1-.5-.31,1.41,1.41,0,0,1-.33-.58,3,3,0,0,1-.11-.93,3.64,3.64,0,0,1,.1-.95,1.42,1.42,0,0,1,.31-.6,1.12,1.12,0,0,1,.51-.31,2.37,2.37,0,0,1,.68-.1c.23,0,.45,0,.66,0a4.23,4.23,0,0,1,.65.14v.6h-1a1.23,1.23,0,0,0-.51.09.55.55,0,0,0-.29.35,2.32,2.32,0,0,0-.09.73,2.17,2.17,0,0,0,.09.72.56.56,0,0,0,.29.33,1.31,1.31,0,0,0,.53.08h1v.59l-.41.11-.49.07Z" transform="translate(-64.5 -11)"/><path class="cls-3" d="M110.87,102.4c-.1,0-.15-.05-.15-.14v-.69a.13.13,0,0,1,.15-.15h.8a.15.15,0,0,1,.1,0,.2.2,0,0,1,0,.11v.69c0,.09,0,.14-.13.14Zm-.13,4.32V103h1v3.77Z" transform="translate(-64.5 -11)"/><path class="cls-3" d="M113.38,106.76a1,1,0,0,1-.69-.25.91.91,0,0,1-.27-.7v-.34a.93.93,0,0,1,.3-.71,1.39,1.39,0,0,1,.94-.27h1v-.26a.6.6,0,0,0-.06-.29.35.35,0,0,0-.23-.17,1.81,1.81,0,0,0-.53,0h-1.13v-.61l.64-.15a5.39,5.39,0,0,1,.87-.06,2.62,2.62,0,0,1,.8.11.93.93,0,0,1,.51.39,1.45,1.45,0,0,1,.17.76v2.56h-.82l-.17-.4a.5.5,0,0,1-.17.12,1.92,1.92,0,0,1-.29.15,1.89,1.89,0,0,1-.38.12A2.22,2.22,0,0,1,113.38,106.76Zm.53-.72.16,0,.18,0,.17,0,.14-.05.06,0V105l-.63,0a.61.61,0,0,0-.4.14.41.41,0,0,0-.13.32v.16a.41.41,0,0,0,.06.23.34.34,0,0,0,.16.13A.79.79,0,0,0,113.91,106Z" transform="translate(-64.5 -11)"/><path class="cls-3" d="M117.62,106.73a1.41,1.41,0,0,1-.66-.13.76.76,0,0,1-.39-.4,1.56,1.56,0,0,1-.13-.7v-4.13h1v4a1,1,0,0,0,0,.33.35.35,0,0,0,.13.18.63.63,0,0,0,.22.08l.29,0v.75Z" transform="translate(-64.5 -11)"/><path class="cls-3" d="M120.57,102.4c-.1,0-.15-.05-.15-.14v-.69a.13.13,0,0,1,.15-.15h.8a.15.15,0,0,1,.1,0,.2.2,0,0,1,0,.11v.69c0,.09,0,.14-.13.14Zm-.12,4.32V103h1v3.77Z" transform="translate(-64.5 -11)"/><path class="cls-3" d="M122.28,106.72V103h.86l.18.39a2.4,2.4,0,0,1,.53-.32,1.65,1.65,0,0,1,.66-.13,1.2,1.2,0,0,1,.71.18,1,1,0,0,1,.36.49,2.35,2.35,0,0,1,.1.67v2.49h-1v-2.35a.56.56,0,0,0-.07-.3.47.47,0,0,0-.18-.19.65.65,0,0,0-.29-.06.86.86,0,0,0-.28,0,1,1,0,0,0-.26.09l-.24.15v2.62Z" transform="translate(-64.5 -11)"/><path class="cls-3" d="M127.89,106.72a1.61,1.61,0,0,1-.71-.13.74.74,0,0,1-.39-.42,2,2,0,0,1-.1-.79l0-1.59h-.59v-.67l.63-.17.14-1h.82v1h.88v.84h-.88v1.58a.85.85,0,0,0,0,.25.34.34,0,0,0,.08.16.27.27,0,0,0,.12.09.35.35,0,0,0,.14,0l.48,0v.77Z" transform="translate(-64.5 -11)"/><path class="cls-3" d="M130.77,106.75a2.52,2.52,0,0,1-1-.16,1,1,0,0,1-.53-.59,3.27,3.27,0,0,1-.17-1.16,3.41,3.41,0,0,1,.16-1.19,1,1,0,0,1,.52-.59,2.41,2.41,0,0,1,1-.17,2.69,2.69,0,0,1,.89.12.78.78,0,0,1,.49.39,1.71,1.71,0,0,1,.15.79,1,1,0,0,1-.15.6.85.85,0,0,1-.42.32,2.13,2.13,0,0,1-.65.09h-1a1.33,1.33,0,0,0,.09.46.45.45,0,0,0,.27.25,1.79,1.79,0,0,0,.58.07h1.11v.61l-.61.11A4.32,4.32,0,0,1,130.77,106.75Zm-.68-2.17H131a.42.42,0,0,0,.3-.08.36.36,0,0,0,.1-.3.78.78,0,0,0-.06-.33.34.34,0,0,0-.2-.17.89.89,0,0,0-.35,0,.69.69,0,0,0-.38.08.48.48,0,0,0-.21.28A2.16,2.16,0,0,0,130.09,104.58Z" transform="translate(-64.5 -11)"/><path class="cls-3" d="M134.13,106.73a1.41,1.41,0,0,1-.66-.13.76.76,0,0,1-.39-.4,1.56,1.56,0,0,1-.13-.7v-4.13h1v4a1,1,0,0,0,0,.33.35.35,0,0,0,.13.18.63.63,0,0,0,.22.08l.29,0v.75Z" transform="translate(-64.5 -11)"/><path class="cls-3" d="M136.33,106.73a1.48,1.48,0,0,1-.67-.13.84.84,0,0,1-.39-.4,1.73,1.73,0,0,1-.12-.7v-4.13h1v4a1,1,0,0,0,0,.33.35.35,0,0,0,.13.18.63.63,0,0,0,.22.08l.29,0v.75Z" transform="translate(-64.5 -11)"/><path class="cls-3" d="M137.47,102.4c-.1,0-.15-.05-.15-.14v-.69a.13.13,0,0,1,.15-.15h.8a.18.18,0,0,1,.1,0,.2.2,0,0,1,0,.11v.69c0,.09,0,.14-.13.14Zm-.13,4.32V103h1v3.77Z" transform="translate(-64.5 -11)"/><path class="cls-3" d="M140.16,108.46a1.83,1.83,0,0,1-.64-.11,1.08,1.08,0,0,1-.44-.3.83.83,0,0,1-.16-.5v-.11a.85.85,0,0,1,.17-.52,1.12,1.12,0,0,1,.45-.32,1.43,1.43,0,0,1,.58-.11l.31.32a.76.76,0,0,0-.27,0,.4.4,0,0,0-.19.14.45.45,0,0,0-.07.24v.07a.37.37,0,0,0,.14.31.68.68,0,0,0,.4.11h.72a.87.87,0,0,0,.42-.1.35.35,0,0,0,.15-.31v-.11a.33.33,0,0,0-.06-.21.34.34,0,0,0-.17-.14.87.87,0,0,0-.31,0h-.84a1.48,1.48,0,0,1-.93-.24.68.68,0,0,1-.31-.57.73.73,0,0,1,.17-.49.83.83,0,0,1,.46-.25,1.06,1.06,0,0,1-.55-.66,1.52,1.52,0,0,1-.06-.42,1.31,1.31,0,0,1,.17-.69,1.08,1.08,0,0,1,.52-.41,2.72,2.72,0,0,1,.88-.13h2v.57l-.58.1.13.17a.84.84,0,0,1,.11.25,1.31,1.31,0,0,1,0,.37,1.24,1.24,0,0,1-.13.58,1.05,1.05,0,0,1-.44.42,1.76,1.76,0,0,1-.79.15h-.66a.68.68,0,0,0-.31.06.19.19,0,0,0-.12.2.15.15,0,0,0,.1.16.43.43,0,0,0,.23,0h1a2.2,2.2,0,0,1,.73.11.93.93,0,0,1,.46.36,1.2,1.2,0,0,1,.17.66v.1a1.14,1.14,0,0,1-.35.88,1.6,1.6,0,0,1-1.08.32Zm.4-3.68h.4a.64.64,0,0,0,.34-.07.35.35,0,0,0,.16-.18.7.7,0,0,0,0-.27.68.68,0,0,0-.06-.31.31.31,0,0,0-.17-.17.74.74,0,0,0-.28,0h-.39a.58.58,0,0,0-.4.12.49.49,0,0,0-.14.4.56.56,0,0,0,.13.4A.49.49,0,0,0,140.56,104.78Z" transform="translate(-64.5 -11)"/><path class="cls-3" d="M143.39,102.4c-.1,0-.15-.05-.15-.14v-.69a.13.13,0,0,1,.15-.15h.8a.18.18,0,0,1,.1,0,.2.2,0,0,1,0,.11v.69c0,.09,0,.14-.13.14Zm-.13,4.32V103h1v3.77Z" transform="translate(-64.5 -11)"/><path class="cls-3" d="M146.69,106.75a2.52,2.52,0,0,1-1-.16,1,1,0,0,1-.54-.59,3.3,3.3,0,0,1-.16-1.16,3.7,3.7,0,0,1,.15-1.19,1.05,1.05,0,0,1,.52-.59,2.48,2.48,0,0,1,1-.17,2.76,2.76,0,0,1,.9.12.81.81,0,0,1,.49.39,1.71,1.71,0,0,1,.15.79,1,1,0,0,1-.15.6.88.88,0,0,1-.43.32,2.06,2.06,0,0,1-.64.09H146a1.33,1.33,0,0,0,.09.46.45.45,0,0,0,.27.25,1.75,1.75,0,0,0,.58.07h1.1v.61c-.18,0-.38.08-.6.11A4.38,4.38,0,0,1,146.69,106.75Zm-.68-2.17h.85a.46.46,0,0,0,.31-.08.36.36,0,0,0,.1-.3.78.78,0,0,0-.06-.33.37.37,0,0,0-.2-.17.92.92,0,0,0-.36,0,.72.72,0,0,0-.38.08.47.47,0,0,0-.2.28A2.16,2.16,0,0,0,146,104.58Z" transform="translate(-64.5 -11)"/><path class="cls-3" d="M148.87,106.72V103h.85l.19.39a2.19,2.19,0,0,1,.53-.32,1.64,1.64,0,0,1,.65-.13,1.24,1.24,0,0,1,.72.18,1,1,0,0,1,.35.49,2,2,0,0,1,.1.67v2.49h-1v-2.35a.67.67,0,0,0-.06-.3.58.58,0,0,0-.19-.19.62.62,0,0,0-.29-.06.9.9,0,0,0-.28,0,1.14,1.14,0,0,0-.26.09,1.82,1.82,0,0,0-.23.15v2.62Z" transform="translate(-64.5 -11)"/><path class="cls-3" d="M154.51,106.76a2.2,2.2,0,0,1-.64-.09,1.14,1.14,0,0,1-.5-.31,1.41,1.41,0,0,1-.33-.58,3.38,3.38,0,0,1-.11-.93,3.64,3.64,0,0,1,.1-.95,1.43,1.43,0,0,1,.32-.6,1,1,0,0,1,.51-.31,2.32,2.32,0,0,1,.68-.1c.22,0,.44,0,.65,0a4.34,4.34,0,0,1,.66.14v.6h-1a1.25,1.25,0,0,0-.52.09.58.58,0,0,0-.29.35,2.73,2.73,0,0,0-.08.73,2.54,2.54,0,0,0,.08.72.56.56,0,0,0,.29.33,1.34,1.34,0,0,0,.53.08h1v.59l-.4.11-.49.07Z" transform="translate(-64.5 -11)"/><path class="cls-3" d="M158.06,106.75a2.5,2.5,0,0,1-1-.16,1,1,0,0,1-.54-.59,3.3,3.3,0,0,1-.16-1.16,3.7,3.7,0,0,1,.15-1.19,1,1,0,0,1,.52-.59,2.41,2.41,0,0,1,1-.17,2.8,2.8,0,0,1,.9.12.79.79,0,0,1,.48.39,1.71,1.71,0,0,1,.15.79,1,1,0,0,1-.15.6.85.85,0,0,1-.42.32,2.08,2.08,0,0,1-.65.09h-.94a1.66,1.66,0,0,0,.08.46.44.44,0,0,0,.28.25,1.71,1.71,0,0,0,.58.07h1.1v.61c-.18,0-.38.08-.6.11A4.51,4.51,0,0,1,158.06,106.75Zm-.68-2.17h.86a.46.46,0,0,0,.31-.08.4.4,0,0,0,.1-.3.77.77,0,0,0-.07-.33.35.35,0,0,0-.19-.17.92.92,0,0,0-.36,0,.69.69,0,0,0-.38.08.47.47,0,0,0-.2.28A1.76,1.76,0,0,0,157.38,104.58Z" transform="translate(-64.5 -11)"/><g class="cls-4"><rect class="cls-5" x="47.67" y="23" width="35.66" height="34.76" rx="8.25"/><rect class="cls-5" x="54.09" y="32.98" width="22.81" height="14.8" rx="5.47"/><path class="cls-5" d="M128.36,50.17l-3.14,3.14-3.14-3.14A2.22,2.22,0,1,1,125.22,47a2.35,2.35,0,0,1,2.94-.4A2.4,2.4,0,0,1,128.36,50.17Z" transform="translate(-64.5 -11)"/><path class="cls-5" d="M138,50.17l-3.13,3.14-3.14-3.14A2.22,2.22,0,1,1,134.84,47a2.34,2.34,0,0,1,2.93-.4A2.39,2.39,0,0,1,138,50.17Z" transform="translate(-64.5 -11)"/><path class="cls-6" d="M132.06,54.5a2,2,0,0,1-3.95,0" transform="translate(-64.5 -11)"/><rect class="cls-5" x="43.38" y="50.59" width="5.1" height="14.04" rx="2.37"/><rect class="cls-5" x="82.52" y="50.59" width="5.1" height="14.04" rx="2.37"/></g><rect class="cls-7" x="41.67" y="17" width="35.66" height="34.76" rx="8.25"/><rect x="48.09" y="26.98" width="22.81" height="14.8" rx="5.47"/><path class="cls-8" d="M122.36,44.17l-3.14,3.14-3.14-3.14A2.22,2.22,0,1,1,119.22,41a2.35,2.35,0,0,1,2.94-.4A2.4,2.4,0,0,1,122.36,44.17Z" transform="translate(-64.5 -11)"/><path class="cls-8" d="M132,44.17l-3.13,3.14-3.14-3.14A2.22,2.22,0,1,1,128.84,41a2.34,2.34,0,0,1,2.93-.4A2.39,2.39,0,0,1,132,44.17Z" transform="translate(-64.5 -11)"/><path class="cls-9" d="M126.06,48.5a2,2,0,0,1-4,0" transform="translate(-64.5 -11)"/><rect x="37.38" y="44.59" width="5.1" height="14.04" rx="2.37"/><rect x="76.52" y="44.59" width="5.1" height="14.04" rx="2.37"/></svg>