<svg id="Layer_1" data-name="Layer 1" xmlns="http://www.w3.org/2000/svg" viewBox="0 0 123 123"><defs><style>.cls-1,.cls-10,.cls-11,.cls-12,.cls-3,.cls-4,.cls-7{fill:none;}.cls-1,.cls-10,.cls-6,.cls-7{stroke:#fff;}.cls-1,.cls-12{stroke-linecap:round;}.cls-1,.cls-10,.cls-11,.cls-12,.cls-3,.cls-4,.cls-6,.cls-7{stroke-miterlimit:10;}.cls-1{stroke-width:0.25px;}.cls-2{fill:#e8e1d4;}.cls-3{stroke:#f7941d;stroke-width:0.5px;}.cls-4{stroke:#fed5ac;}.cls-5{fill:#996a3d;}.cls-6,.cls-9{fill:#fff;}.cls-7{stroke-width:6px;}.cls-8{fill:#eebd45;}.cls-11,.cls-12{stroke:#eebd45;}</style></defs><path class="cls-1" d="M206.37,120.63" transform="translate(-64.5 -10.5)"/><path class="cls-1" d="M45.2,119.34" transform="translate(-64.5 -10.5)"/><path class="cls-2" d="M172,107.2" transform="translate(-64.5 -10.5)"/><path class="cls-3" d="M171.68,54" transform="translate(-64.5 -10.5)"/><path class="cls-3" d="M171.68,105.43" transform="translate(-64.5 -10.5)"/><path class="cls-4" d="M107.59,80.19" transform="translate(-64.5 -10.5)"/><circle class="cls-5" cx="61.5" cy="61.5" r="61.5"/><rect class="cls-6" x="46.09" y="32.12" width="28.24" height="38.39" rx="7.43"/><rect class="cls-6" x="44.42" y="66.92" width="31.62" height="5.25" rx="2.45"/><path class="cls-7" d="M138.83,53.89s7.6-.65,7.67,4.22c.09,5.7.79,9-1.24,10.56s-6.43,1.21-6.43,1.21" transform="translate(-64.5 -10.5)"/><rect class="cls-8" x="48.62" y="32.73" width="23.19" height="34.19" rx="7.11"/><path class="cls-9" d="M143.87,41.39a3.08,3.08,0,0,0-2.46-3.89,3.38,3.38,0,0,0-6.07-1.06,4.94,4.94,0,0,0-2.27-.55,5.06,5.06,0,0,0-2,.41,2.53,2.53,0,0,0-4.81,1.09v0l-.44,0a3.4,3.4,0,0,0-.45,0,1.39,1.39,0,0,0-1.3-.9,1.37,1.37,0,0,0-1,.42A5.09,5.09,0,0,0,119,34.85a5.16,5.16,0,0,0-1.85.35,2.15,2.15,0,0,0-4,.31,2.66,2.66,0,0,0-1.72-.77,2.7,2.7,0,0,0-2.86,2.53,2.77,2.77,0,0,0,.05.65,4.71,4.71,0,0,0-1.9,3.78,4.61,4.61,0,0,0,.42,1.93,3.05,3.05,0,1,0,4.91,2.76,5,5,0,0,0,1.49-.45,4,4,0,0,0,3.44,2,4.6,4.6,0,0,0,.84-.09s0,.06,0,.09a2.29,2.29,0,1,0,2.74-2.24,4,4,0,0,0,.33-1,5.07,5.07,0,0,0,1.81-1.25,3.84,3.84,0,0,0,3.14,1.63,4.06,4.06,0,0,0,.51,0,2.88,2.88,0,0,0-.07.59,2.53,2.53,0,0,0,5,.08,5.11,5.11,0,0,0,1.75.31,5,5,0,0,0,2.66-.76,3.66,3.66,0,0,0,7.15-.47h.05a1.84,1.84,0,0,0,.94-3.41Z" transform="translate(-64.5 -10.5)"/><path class="cls-9" d="M134.47,46.67a1.45,1.45,0,1,0,1.45,1.45A1.44,1.44,0,0,0,134.47,46.67Z" transform="translate(-64.5 -10.5)"/><path class="cls-9" d="M122,51.5A1.45,1.45,0,1,0,123.44,53,1.45,1.45,0,0,0,122,51.5Z" transform="translate(-64.5 -10.5)"/><path class="cls-9" d="M106.76,49.8a1.45,1.45,0,1,0,1.45,1.45A1.45,1.45,0,0,0,106.76,49.8Z" transform="translate(-64.5 -10.5)"/><path class="cls-9" d="M90.15,105.82V88.71h8.66V90.1h-7.7l.62-.47v7.85l-.62-.93h7.22v1.39H91.11l.62-.94v8.82Z" transform="translate(-64.5 -10.5)"/><path class="cls-9" d="M102.49,105.82V95.2H104v1.57a3.41,3.41,0,0,1,3.17-1.9,4.45,4.45,0,0,1,.95.1,3.85,3.85,0,0,1,.83.27l-.62,1.28a2.47,2.47,0,0,0-.71-.24,3.39,3.39,0,0,0-.76-.08,2.76,2.76,0,0,0-1.39.37,3.09,3.09,0,0,0-1.06,1,2.16,2.16,0,0,0-.41,1.27v7Z" transform="translate(-64.5 -10.5)"/><path class="cls-9" d="M116.12,106.15a5,5,0,0,1-2.69-.73,5.33,5.33,0,0,1-1.9-2,6.4,6.4,0,0,1,0-5.8,5.23,5.23,0,0,1,1.89-2,5.07,5.07,0,0,1,2.71-.73,5.12,5.12,0,0,1,2.61.67,4.4,4.4,0,0,1,1.78,1.87V95.2H122v10.62h-1.52v-2.24a5,5,0,0,1-1.83,1.89A5,5,0,0,1,116.12,106.15Zm.37-1.32a4,4,0,0,0,2.11-.55,3.92,3.92,0,0,0,1.45-1.54,5,5,0,0,0,0-4.47,3.93,3.93,0,0,0-1.44-1.53,4.27,4.27,0,0,0-4.23,0,4,4,0,0,0-1.46,1.53,5.06,5.06,0,0,0,0,4.47,3.94,3.94,0,0,0,1.46,1.54A4,4,0,0,0,116.49,104.83Z" transform="translate(-64.5 -10.5)"/><path class="cls-9" d="M126.49,105.82V95.2H128v1.45a3.44,3.44,0,0,1,1.35-1.26,4.41,4.41,0,0,1,2.23-.52,4.25,4.25,0,0,1,2.13.51,3.29,3.29,0,0,1,1.36,1.47,5.25,5.25,0,0,1,.48,2.34v6.63H134V99.48a3.66,3.66,0,0,0-.77-2.51,2.73,2.73,0,0,0-2.17-.87,3.31,3.31,0,0,0-1.66.39,2.7,2.7,0,0,0-1.06,1A2.65,2.65,0,0,0,128,98.9v6.92Z" transform="translate(-64.5 -10.5)"/><path class="cls-9" d="M139.82,105.82V88h1.52V99.54l4.24-4.34h2l-4.84,5,5.09,5.62h-1.94l-4.53-5v5Z" transform="translate(-64.5 -10.5)"/><path class="cls-9" d="M151.8,92.48l-.36-.3a3,3,0,0,0,.32-.51A4,4,0,0,0,152,91a2.94,2.94,0,0,0,.12-.69,1.06,1.06,0,0,1-.59-.33.93.93,0,0,1-.24-.64.91.91,0,0,1,.28-.7,1.13,1.13,0,0,1,1.5,0,1.22,1.22,0,0,1,.3.88,3.29,3.29,0,0,1-.46,1.56A4.22,4.22,0,0,1,151.8,92.48Z" transform="translate(-64.5 -10.5)"/><path class="cls-9" d="M159.35,106.15a4.15,4.15,0,0,1-3.89-2.45l.81-.87a4,4,0,0,0,1.3,1.58,3,3,0,0,0,1.77.57,2.71,2.71,0,0,0,1.2-.27,2.08,2.08,0,0,0,1.19-2,1.55,1.55,0,0,0-.3-1,2.46,2.46,0,0,0-.89-.62c-.39-.18-.88-.38-1.46-.6a12,12,0,0,1-1.31-.61,3.29,3.29,0,0,1-1-.87,2.11,2.11,0,0,1-.41-1.33,2.54,2.54,0,0,1,.44-1.46,3,3,0,0,1,1.2-1,4.08,4.08,0,0,1,3.42,0,4.54,4.54,0,0,1,1.4,1.09l-.69.88A2.9,2.9,0,0,0,159.71,96a2.13,2.13,0,0,0-1.41.45,1.49,1.49,0,0,0-.55,1.2,1.26,1.26,0,0,0,.34.88,3.07,3.07,0,0,0,.9.6c.37.17.77.33,1.2.5a16.31,16.31,0,0,1,1.62.7,2.91,2.91,0,0,1,1.07.9,2.48,2.48,0,0,1,.39,1.48,3.36,3.36,0,0,1-.5,1.84,3.23,3.23,0,0,1-1.38,1.2A4.71,4.71,0,0,1,159.35,106.15Z" transform="translate(-64.5 -10.5)"/><path class="cls-10" d="M81.32,90.88" transform="translate(-64.5 -10.5)"/><path class="cls-10" d="M163.54,102.7" transform="translate(-64.5 -10.5)"/><path class="cls-11" d="M88.1,99.64" transform="translate(-64.5 -10.5)"/><path class="cls-12" d="M157,107.21a46.92,46.92,0,0,1-63-.87" transform="translate(-64.5 -10.5)"/><path class="cls-11" d="M157,107.21" transform="translate(-64.5 -10.5)"/><path class="cls-12" d="M163.83,99.74" transform="translate(-64.5 -10.5)"/><path class="cls-12" d="M88.1,99.64a46.91,46.91,0,1,1,76-.32" transform="translate(-64.5 -10.5)"/></svg>