<svg id="Layer_1" data-name="Layer 1" xmlns="http://www.w3.org/2000/svg" viewBox="0 0 252 144"><defs><style>.cls-1{fill:#ba7c32;}.cls-2,.cls-5{fill:none;}.cls-2,.cls-3,.cls-5{stroke:#fff;}.cls-10,.cls-11,.cls-12,.cls-2,.cls-3,.cls-4,.cls-5,.cls-6,.cls-7,.cls-8,.cls-9{stroke-miterlimit:10;}.cls-15,.cls-3{fill:#fff;}.cls-3,.cls-5,.cls-7{stroke-width:0.5px;}.cls-10,.cls-11,.cls-12,.cls-4,.cls-6,.cls-8,.cls-9{fill:#8bff31;stroke:#8bff31;}.cls-6{opacity:0.7;}.cls-7{fill:#70f987;stroke:#70f987;opacity:0.74;}.cls-8{opacity:0.23;}.cls-9{opacity:0.13;}.cls-10{opacity:0.55;}.cls-11{opacity:0.22;}.cls-12{opacity:0.12;}.cls-13{fill:#b0ff33;}.cls-14{fill:#53f96a;}</style></defs><rect class="cls-1" width="252" height="144"/><path class="cls-2" d="M130.78,66.91"/><path class="cls-3" d="M73.48,51.6h8.75v1H74.65v6.34h6.94v1H74.65v7.82H73.48Z"/><path class="cls-3" d="M85.8,67.72V56.24H87V67.72Z"/><path class="cls-3" d="M92.13,60c0-1.24,0-2.46-.09-3.71h1.07l0,2.49h.07A3.79,3.79,0,0,1,96.75,56a2,2,0,0,1,.55.07V57.1a3.55,3.55,0,0,0-.67,0c-1.6,0-2.82,1.33-3.2,3.32a5,5,0,0,0-.12,1.12v6.22H92.13Z"/><path class="cls-3" d="M100.62,62c0,3.35,2.13,5,4.86,5a8,8,0,0,0,3.68-.71l.31.93a9.25,9.25,0,0,1-4.11.79,5.54,5.54,0,0,1-5.88-5.74c0-3.9,2.48-6.31,5.73-6.31,4.26,0,5,3.77,5,5.3a2.74,2.74,0,0,1,0,.72Zm8.37-.93a3.78,3.78,0,0,0-3.92-4.14,4.43,4.43,0,0,0-4.37,4.14Z"/><path class="cls-3" d="M114.35,67.72V57.18h-1.74v-.94h1.74v-.43A5.57,5.57,0,0,1,116,51.46a5.09,5.09,0,0,1,3.54-1.15,6.89,6.89,0,0,1,3,.65V67.72H121.4v-16a4.5,4.5,0,0,0-2.1-.39c-2.89,0-3.78,2.06-3.78,4.33v.62h3.37v.94h-3.37V67.72Z"/><path class="cls-3" d="M127.12,56.24l3.42,7.68a20.14,20.14,0,0,1,.93,2.41h.05c.26-.71.58-1.57,1-2.51l3.2-7.58H137l-4.07,9.28c-1.57,3.63-2.6,5.43-4.13,6.53a6.06,6.06,0,0,1-2.11,1l-.31-1A5.78,5.78,0,0,0,128.44,71a8.53,8.53,0,0,0,2.2-3.08,1.44,1.44,0,0,0,.14-.46,1.52,1.52,0,0,0-.17-.52l-4.76-10.67Z"/><path class="cls-4" d="M82,83.72a4.39,4.39,0,0,0-3.75-1.82,4.69,4.69,0,0,0-1.36.21,3.73,3.73,0,0,0-1.26.63,3.23,3.23,0,0,0-.91,1.06,3.15,3.15,0,0,0-.34,1.51,2.82,2.82,0,0,0,.33,1.44,3.1,3.1,0,0,0,.88,1,5,5,0,0,0,1.26.66c.46.17,1,.34,1.47.51s1.26.43,1.9.67a7,7,0,0,1,1.73.93,4.36,4.36,0,0,1,1.74,3.71,4.82,4.82,0,0,1-1.87,4,5.79,5.79,0,0,1-1.89,1,7.84,7.84,0,0,1-2.14.3,8.21,8.21,0,0,1-1.64-.16,7.56,7.56,0,0,1-1.57-.5,6.74,6.74,0,0,1-1.38-.85,5.75,5.75,0,0,1-1.13-1.18l1.59-1.18a4.86,4.86,0,0,0,1.65,1.63,4.66,4.66,0,0,0,2.5.65,5,5,0,0,0,1.42-.21A4.07,4.07,0,0,0,80.54,97a3.72,3.72,0,0,0,.95-1.1,3.45,3.45,0,0,0,0-3.11,3.31,3.31,0,0,0-1-1A6.2,6.2,0,0,0,79.09,91l-1.67-.56c-.59-.19-1.18-.4-1.77-.64a5.84,5.84,0,0,1-1.56-.94A4.5,4.5,0,0,1,73,87.42a4.67,4.67,0,0,1-.42-2.08,4.6,4.6,0,0,1,.53-2.26,4.69,4.69,0,0,1,1.37-1.56,5.78,5.78,0,0,1,1.87-.9,7.53,7.53,0,0,1,2-.28A6.92,6.92,0,0,1,81.5,81a5.44,5.44,0,0,1,2,1.55Z"/><path class="cls-4" d="M96.69,88.42H93.3v7a4.14,4.14,0,0,0,.13,1.1,1.57,1.57,0,0,0,.37.68,1.28,1.28,0,0,0,.58.34,2.73,2.73,0,0,0,.72.09,3.53,3.53,0,0,0,.76-.1,4,4,0,0,0,.75-.29l.08,1.52a5.26,5.26,0,0,1-1,.27,6.16,6.16,0,0,1-1.09.09,4.76,4.76,0,0,1-1-.13,2.63,2.63,0,0,1-1.76-1.46,3.91,3.91,0,0,1-.29-1.62V88.42H89.07V87h2.49V83.57H93.3V87h3.39Z"/><path class="cls-4" d="M112,99c0-.32-.06-.68-.08-1.08s0-.71,0-1h0a4,4,0,0,1-1.67,1.71,4.93,4.93,0,0,1-2.44.65,4.2,4.2,0,0,1-3.42-1.36,5.4,5.4,0,0,1-1.14-3.59V87h1.74V93.6a9,9,0,0,0,.15,1.72,3.73,3.73,0,0,0,.53,1.32,2.54,2.54,0,0,0,1,.86,3.64,3.64,0,0,0,1.58.31,3.46,3.46,0,0,0,1.34-.28,3.35,3.35,0,0,0,1.17-.86,4.33,4.33,0,0,0,.82-1.47,6.22,6.22,0,0,0,.31-2.09V87h1.74v9.36q0,.48,0,1.26c0,.51,0,1,.08,1.38Z"/><path class="cls-4" d="M131.89,96.94a5,5,0,0,1-2,1.74,5.87,5.87,0,0,1-2.54.59,6.42,6.42,0,0,1-2.56-.49,5.82,5.82,0,0,1-2-1.33,6.21,6.21,0,0,1-1.25-2,7.11,7.11,0,0,1,0-5,6.11,6.11,0,0,1,1.25-2,5.68,5.68,0,0,1,2-1.33,6.42,6.42,0,0,1,2.56-.49,5.74,5.74,0,0,1,2.54.6,5,5,0,0,1,2,1.78h.05V79.57h1.74V99h-1.74v-2ZM123,93a5.79,5.79,0,0,0,.3,1.88,4.51,4.51,0,0,0,.89,1.54,4,4,0,0,0,1.42,1,4.75,4.75,0,0,0,1.93.37,4.48,4.48,0,0,0,1.84-.37,4.43,4.43,0,0,0,2.43-2.54,5.53,5.53,0,0,0,0-3.82,4.67,4.67,0,0,0-1-1.54,4.39,4.39,0,0,0-1.47-1,4.48,4.48,0,0,0-1.84-.37,4.75,4.75,0,0,0-1.93.38,4.28,4.28,0,0,0-1.42,1,4.61,4.61,0,0,0-.89,1.54A5.85,5.85,0,0,0,123,93Z"/><path class="cls-4" d="M144.33,82.34a1.14,1.14,0,0,1-.38.88,1.21,1.21,0,0,1-1.7,0,1.14,1.14,0,0,1-.38-.88,1.16,1.16,0,0,1,.38-.89,1.23,1.23,0,0,1,1.7,0A1.16,1.16,0,0,1,144.33,82.34ZM144,99h-1.74V87H144Z"/><path class="cls-4" d="M178.37,89.8a3.08,3.08,0,0,0-1.16-1.22,3.47,3.47,0,0,0-1.79-.47,4.12,4.12,0,0,0-.92.1,2.41,2.41,0,0,0-.82.34,1.82,1.82,0,0,0-.58.59,1.64,1.64,0,0,0-.22.84,1.44,1.44,0,0,0,.7,1.3,6.65,6.65,0,0,0,2.18.76,7.36,7.36,0,0,1,3.14,1.26,2.79,2.79,0,0,1,1,2.25,3.43,3.43,0,0,1-.4,1.73,3.49,3.49,0,0,1-1,1.16,4.31,4.31,0,0,1-1.45.64,7,7,0,0,1-1.63.19,6.64,6.64,0,0,1-2.65-.56,5,5,0,0,1-2.1-1.77l1.39-1a3.93,3.93,0,0,0,3.33,1.87,5.35,5.35,0,0,0,1.08-.1,2.58,2.58,0,0,0,.9-.36,2,2,0,0,0,.61-.65,1.91,1.91,0,0,0,.23-1,1.53,1.53,0,0,0-.91-1.43,11.88,11.88,0,0,0-2.63-.88c-.36-.09-.74-.19-1.14-.32a3.89,3.89,0,0,1-1.11-.57,2.92,2.92,0,0,1-.85-.93,2.78,2.78,0,0,1-.34-1.41,3.24,3.24,0,0,1,.36-1.58,3.05,3.05,0,0,1,1-1.08,4.41,4.41,0,0,1,1.37-.63,6.41,6.41,0,0,1,1.59-.2,5.69,5.69,0,0,1,2.44.56,4,4,0,0,1,1.77,1.59Z"/><ellipse class="cls-3" cx="158.05" cy="84.79" rx="2.54" ry="5.35"/><line class="cls-5" x1="158.91" y1="78.22" x2="159.69" y2="76.72"/><line class="cls-5" x1="157.09" y1="78.28" x2="156.28" y2="76.72"/><circle class="cls-3" cx="156.12" cy="76.42" r="0.34"/><circle class="cls-3" cx="159.85" cy="76.42" r="0.34"/><circle class="cls-3" cx="158.05" cy="79.82" r="1.81"/><path class="cls-6" d="M159,82.84V80.65c0-.67.87-1.22,1.93-1.22h0a8.08,8.08,0,0,1,4,1h0a1.29,1.29,0,0,1-.05,2.43h0a9,9,0,0,1-4.27,1h0C159.66,83.83,159,83.39,159,82.84Z"/><path class="cls-7" d="M158.89,82.45l.93-1.75a1.31,1.31,0,0,1,1.8-.27h0a5.37,5.37,0,0,1,2.22,2.18h0a1.24,1.24,0,0,1-1.07,1.91h0a5.9,5.9,0,0,1-3.27-.72h0A1.07,1.07,0,0,1,158.89,82.45Z"/><path class="cls-6" d="M157.21,82.84V80.65c0-.67-.87-1.22-1.93-1.22h0a8.08,8.08,0,0,0-3.95,1h0a1.29,1.29,0,0,0,0,2.43h0a9,9,0,0,0,4.27,1h0C156.5,83.83,157.21,83.39,157.21,82.84Z"/><circle class="cls-8" cx="158.05" cy="92.98" r="6.47"/><circle class="cls-9" cx="158.05" cy="92.98" r="8.49"/><circle class="cls-10" cx="158.05" cy="92.92" r="4.86"/><circle class="cls-4" cx="158.08" cy="92.92" r="3.5"/><path class="cls-7" d="M157.26,82.45l-.93-1.75a1.31,1.31,0,0,0-1.8-.27h0a5.37,5.37,0,0,0-2.22,2.18h0a1.24,1.24,0,0,0,1.07,1.91h0a5.9,5.9,0,0,0,3.27-.72h0A1.07,1.07,0,0,0,157.26,82.45Z"/><circle class="cls-4" cx="86.38" cy="51.46" r="0.8"/><circle class="cls-11" cx="86.38" cy="51.46" r="1.44"/><circle class="cls-12" cx="86.38" cy="51.46" r="2.22"/><rect class="cls-13" y="5.54" width="84" height="4"/><rect class="cls-14" x="84" y="5.54" width="84" height="4"/><rect class="cls-15" x="168" y="5.54" width="84" height="4"/></svg>