<svg id="Layer_1" data-name="Layer 1" xmlns="http://www.w3.org/2000/svg" viewBox="0 0 123 123"><defs><style>.cls-1,.cls-3,.cls-4,.cls-6,.cls-9{fill:none;}.cls-1,.cls-5,.cls-6,.cls-9{stroke:#fff;}.cls-1{stroke-linecap:round;stroke-width:0.25px;}.cls-1,.cls-3,.cls-4,.cls-5,.cls-6,.cls-9{stroke-miterlimit:10;}.cls-2{fill:#e8e1d4;}.cls-3{stroke:#f7941d;stroke-width:0.5px;}.cls-4{stroke:#fed5ac;}.cls-5,.cls-8{fill:#fff;}.cls-6{stroke-width:6px;}.cls-7{fill:#eebd45;}</style></defs><path class="cls-1" d="M206.37,120.63" transform="translate(-64.5 -10.5)"/><path class="cls-1" d="M45.2,119.34" transform="translate(-64.5 -10.5)"/><path class="cls-2" d="M172,107.2" transform="translate(-64.5 -10.5)"/><path class="cls-3" d="M171.68,54" transform="translate(-64.5 -10.5)"/><path class="cls-3" d="M171.68,105.43" transform="translate(-64.5 -10.5)"/><path class="cls-4" d="M107.59,80.19" transform="translate(-64.5 -10.5)"/><circle cx="61.5" cy="61.5" r="61.5"/><rect class="cls-5" x="46.3" y="30.56" width="27.86" height="37.88" rx="7.43"/><rect class="cls-5" x="44.64" y="64.89" width="31.2" height="5.18" rx="2.59"/><path class="cls-6" d="M138.66,52.18s7.5-.64,7.57,4.16c.09,5.62.77,8.89-1.23,10.42s-6.34,1.2-6.34,1.2" transform="translate(-64.5 -10.5)"/><rect class="cls-7" x="48.79" y="31.16" width="22.88" height="33.74" rx="7.11"/><path class="cls-8" d="M143.63,39.85A3,3,0,0,0,141.21,36a3.34,3.34,0,0,0-6-1,5,5,0,0,0-2.24-.54,5.17,5.17,0,0,0-2,.4,2.5,2.5,0,0,0-4.75,1.08s0,0,0,0l-.44,0a3.15,3.15,0,0,0-.44,0,1.38,1.38,0,0,0-2.27-.48,5,5,0,0,0-5.89-1.71,2.12,2.12,0,0,0-3.91.3,2.7,2.7,0,0,0-1.69-.76,2.63,2.63,0,0,0-2.78,3.14,4.64,4.64,0,0,0-1.46,5.63,3,3,0,1,0,4.85,2.73,4.65,4.65,0,0,0,1.47-.45,3.92,3.92,0,0,0,3.39,2,4.58,4.58,0,0,0,.83-.09s0,0,0,.09a2.26,2.26,0,1,0,2.7-2.22,4,4,0,0,0,.33-1,5.19,5.19,0,0,0,1.79-1.24,3.78,3.78,0,0,0,3.09,1.61,4.21,4.21,0,0,0,.51,0,2.25,2.25,0,0,0-.08.58,2.5,2.5,0,0,0,5,.08,5.2,5.2,0,0,0,1.73.31,5,5,0,0,0,2.62-.75,3.62,3.62,0,0,0,7.06-.47h0a1.81,1.81,0,0,0,1.81-1.81A1.79,1.79,0,0,0,143.63,39.85Z" transform="translate(-64.5 -10.5)"/><path class="cls-8" d="M134.36,45.05a1.43,1.43,0,1,0,1.43,1.43A1.43,1.43,0,0,0,134.36,45.05Z" transform="translate(-64.5 -10.5)"/><path class="cls-8" d="M122,49.82a1.43,1.43,0,1,0,1.43,1.43A1.43,1.43,0,0,0,122,49.82Z" transform="translate(-64.5 -10.5)"/><path class="cls-8" d="M107,48.15a1.43,1.43,0,1,0,1.43,1.43A1.43,1.43,0,0,0,107,48.15Z" transform="translate(-64.5 -10.5)"/><path class="cls-8" d="M90.63,105.37V88.49h8.54v1.37h-7.6l.62-.46v7.74l-.62-.92H98.7v1.37H91.57l.62-.92v8.7Z" transform="translate(-64.5 -10.5)"/><path class="cls-8" d="M102.81,105.37V94.89h1.49v1.55a3.38,3.38,0,0,1,3.13-1.88,4.38,4.38,0,0,1,.94.11,3.44,3.44,0,0,1,.82.26l-.61,1.26a2.88,2.88,0,0,0-.7-.23,3.49,3.49,0,0,0-.76-.09,2.79,2.79,0,0,0-1.37.37,3.23,3.23,0,0,0-1,1,2.16,2.16,0,0,0-.4,1.25v6.92Z" transform="translate(-64.5 -10.5)"/><path class="cls-8" d="M116.25,105.7a5,5,0,0,1-2.66-.73,5.24,5.24,0,0,1-1.87-2,5.83,5.83,0,0,1-.69-2.87,5.94,5.94,0,0,1,.68-2.85,5.22,5.22,0,0,1,1.86-2,5.06,5.06,0,0,1,2.68-.73,5.11,5.11,0,0,1,2.58.67,4.4,4.4,0,0,1,1.76,1.84V94.89h1.49v10.48h-1.49v-2.21a5.05,5.05,0,0,1-1.81,1.86A4.87,4.87,0,0,1,116.25,105.7Zm.37-1.3a3.85,3.85,0,0,0,3.51-2.07,4.94,4.94,0,0,0,0-4.41,3.9,3.9,0,0,0-1.42-1.51,4.25,4.25,0,0,0-4.18,0,3.92,3.92,0,0,0-1.43,1.51,4.94,4.94,0,0,0,0,4.41,3.88,3.88,0,0,0,1.43,1.52A4,4,0,0,0,116.62,104.4Z" transform="translate(-64.5 -10.5)"/><path class="cls-8" d="M126.48,105.37V94.89H128v1.43a3.56,3.56,0,0,1,1.33-1.24,4.35,4.35,0,0,1,2.21-.52,4.17,4.17,0,0,1,2.09.5A3.3,3.3,0,0,1,135,96.52a5.12,5.12,0,0,1,.47,2.31v6.54h-1.49V99.12a3.59,3.59,0,0,0-.76-2.48,2.69,2.69,0,0,0-2.13-.86,3.28,3.28,0,0,0-1.65.39,2.76,2.76,0,0,0-1,1,2.7,2.7,0,0,0-.37,1.36v6.83Z" transform="translate(-64.5 -10.5)"/><path class="cls-8" d="M139.64,105.37V87.77h1.49V99.18l4.19-4.29h2l-4.78,4.93,5,5.55H145.6l-4.47-5v5Z" transform="translate(-64.5 -10.5)"/><path class="cls-8" d="M151.46,92.21l-.36-.3a3.32,3.32,0,0,0,.32-.5,5.32,5.32,0,0,0,.24-.64,3.21,3.21,0,0,0,.11-.68,1,1,0,0,1-.58-.32.88.88,0,0,1-.23-.63.9.9,0,0,1,.27-.69,1,1,0,0,1,.73-.27,1,1,0,0,1,.75.3,1.22,1.22,0,0,1,.29.87,3.26,3.26,0,0,1-.44,1.53A4.28,4.28,0,0,1,151.46,92.21Z" transform="translate(-64.5 -10.5)"/><path class="cls-8" d="M158.9,105.7a4.06,4.06,0,0,1-3.83-2.42l.8-.86a4,4,0,0,0,1.27,1.56,3,3,0,0,0,1.75.56,2.63,2.63,0,0,0,1.19-.27,2.17,2.17,0,0,0,.86-.76,2.15,2.15,0,0,0,.32-1.18,1.47,1.47,0,0,0-.3-1,2.51,2.51,0,0,0-.88-.62c-.39-.18-.87-.37-1.44-.59s-.87-.38-1.29-.6a3.22,3.22,0,0,1-1-.86,2,2,0,0,1-.4-1.31,2.47,2.47,0,0,1,.43-1.44,2.88,2.88,0,0,1,1.18-1,4,4,0,0,1,1.72-.37,3.7,3.7,0,0,1,1.65.38A4.47,4.47,0,0,1,162.29,96l-.68.87a2.84,2.84,0,0,0-2.35-1.24,2.07,2.07,0,0,0-1.39.45,1.46,1.46,0,0,0-.54,1.18,1.21,1.21,0,0,0,.34.87,2.94,2.94,0,0,0,.88.59c.37.16.76.33,1.18.49a13.11,13.11,0,0,1,1.6.7,2.74,2.74,0,0,1,1.06.88,2.43,2.43,0,0,1,.38,1.46,3.28,3.28,0,0,1-.49,1.82,3.23,3.23,0,0,1-1.37,1.18A4.57,4.57,0,0,1,158.9,105.7Z" transform="translate(-64.5 -10.5)"/><path class="cls-9" d="M81.32,90.88" transform="translate(-64.5 -10.5)"/><path class="cls-9" d="M163.54,102.7" transform="translate(-64.5 -10.5)"/></svg>