<svg id="Layer_1" data-name="Layer 1" xmlns="http://www.w3.org/2000/svg" viewBox="0 0 252 144"><defs><style>.cls-1{fill:none;}.cls-1,.cls-3,.cls-5{stroke:#fff;}.cls-1,.cls-12,.cls-13,.cls-3,.cls-4,.cls-5,.cls-6,.cls-7{stroke-miterlimit:10;}.cls-2{fill:#eaeaea;}.cls-3,.cls-5{fill:#fff;}.cls-3{stroke-width:0.5px;}.cls-10,.cls-11,.cls-12,.cls-13,.cls-4,.cls-6,.cls-8,.cls-9{fill:#0fcfd8;}.cls-12,.cls-13,.cls-4,.cls-6{stroke:#0fcfd8;}.cls-6{opacity:0.4;}.cls-7{fill:#63fcfc;stroke:#63fcfc;}.cls-10,.cls-7{opacity:0.46;}.cls-8{opacity:0.13;}.cls-9{opacity:0.23;}.cls-12{opacity:0.41;}.cls-13{opacity:0.19;}</style></defs><path class="cls-1" d="M130.78,66.91"/><rect class="cls-2" width="252" height="144"/><path class="cls-3" d="M24.78,31.94H40.49V33.7H26.88V45.08H39.33v1.75H26.88v14h-2.1Z"/><path class="cls-3" d="M46.89,60.87V40.27H49v20.6Z"/><path class="cls-3" d="M58.26,46.92c0-2.23,0-4.42-.17-6.65H60l.08,4.46h.13c1-2.87,3.26-5,6.31-5a4,4,0,0,1,1,.13v1.93a5.67,5.67,0,0,0-1.2-.08c-2.88,0-5.07,2.4-5.75,6a9.92,9.92,0,0,0-.22,2V60.87h-2.1Z"/><path class="cls-3" d="M73.5,50.57c0,6,3.82,9,8.71,9a14.3,14.3,0,0,0,6.61-1.29L89.37,60A16.56,16.56,0,0,1,82,61.38c-6.39,0-10.55-4.33-10.55-10.3,0-7,4.46-11.33,10.3-11.33,7.63,0,9,6.78,9,9.53a4.91,4.91,0,0,1-.09,1.29Zm15-1.68c0-2.14-.86-7.42-7-7.42-5.24,0-7.43,4.29-7.85,7.42Z"/><path class="cls-3" d="M98.13,60.87V41.94H95V40.27h3.13V39.5c0-3.44,1-6,3-7.81a9.17,9.17,0,0,1,6.36-2.06,12.24,12.24,0,0,1,5.45,1.16V60.87h-2.11V32.07a8.34,8.34,0,0,0-3.77-.68c-5.2,0-6.78,3.69-6.78,7.76v1.12h6.05v1.67h-6.05V60.87Z"/><path class="cls-3" d="M121.05,40.27,127.19,54a37.77,37.77,0,0,1,1.67,4.34H129c.47-1.29,1-2.83,1.72-4.51l5.75-13.6h2.27L131.4,56.92c-2.84,6.52-4.68,9.74-7.43,11.72a10.92,10.92,0,0,1-3.77,1.84l-.56-1.76a10.09,10.09,0,0,0,3.77-2,15,15,0,0,0,4-5.53,2.47,2.47,0,0,0,.26-.82,2.79,2.79,0,0,0-.3-.94l-8.54-19.14Z"/><path class="cls-4" d="M41.23,82.09a8.68,8.68,0,0,0-2.92-2.55,8.93,8.93,0,0,0-4.3-1,9.35,9.35,0,0,0-2.62.39A7.66,7.66,0,0,0,29,80.19a6.11,6.11,0,0,0-1.75,2,6,6,0,0,0-.67,2.91,5.33,5.33,0,0,0,.64,2.77,6,6,0,0,0,1.7,1.86A9.89,9.89,0,0,0,31.31,91c.9.33,1.84.66,2.83,1,1.22.39,2.44.82,3.67,1.28a13,13,0,0,1,3.33,1.81,8.72,8.72,0,0,1,2.42,2.82,8.94,8.94,0,0,1,.94,4.32,9.28,9.28,0,0,1-3.6,7.67,10.69,10.69,0,0,1-3.65,1.82,14.63,14.63,0,0,1-4.13.6A16.13,16.13,0,0,1,30,112a14.59,14.59,0,0,1-3-1,12.25,12.25,0,0,1-2.67-1.63,12,12,0,0,1-2.17-2.27l3.06-2.28A9.31,9.31,0,0,0,28.35,108a9,9,0,0,0,4.82,1.26,9.33,9.33,0,0,0,2.72-.42,7.79,7.79,0,0,0,2.5-1.28,7.24,7.24,0,0,0,1.83-2.13,6.57,6.57,0,0,0,0-6,6.37,6.37,0,0,0-1.91-2,11.64,11.64,0,0,0-2.71-1.36c-1-.36-2.1-.72-3.22-1.09s-2.29-.77-3.41-1.23A11.6,11.6,0,0,1,26,92a8.45,8.45,0,0,1-2.15-2.74,10.09,10.09,0,0,1,.2-8.36,9.17,9.17,0,0,1,2.65-3,11,11,0,0,1,3.61-1.73,14.74,14.74,0,0,1,3.9-.55,13.48,13.48,0,0,1,6.08,1.26,10.43,10.43,0,0,1,3.81,3Z"/><path class="cls-4" d="M69.51,91.14H63v13.49a7.91,7.91,0,0,0,.24,2.13,3.09,3.09,0,0,0,.72,1.31,2.39,2.39,0,0,0,1.11.64,5.14,5.14,0,0,0,1.39.18,6,6,0,0,0,1.46-.2,7.52,7.52,0,0,0,1.46-.54l.14,2.91a9.56,9.56,0,0,1-1.85.52,11.53,11.53,0,0,1-2.1.17,8.77,8.77,0,0,1-2-.24,5.1,5.1,0,0,1-1.93-.94,5.19,5.19,0,0,1-1.46-1.88,7.25,7.25,0,0,1-.57-3.12V91.14H54.83V88.32h4.79V81.79H63v6.53h6.52Z"/><path class="cls-4" d="M99,111.46c-.07-.63-.12-1.32-.15-2.08s0-1.38,0-1.88h-.1a7.58,7.58,0,0,1-3.21,3.29,9.39,9.39,0,0,1-4.7,1.26q-4.39,0-6.6-2.62a10.39,10.39,0,0,1-2.2-6.92V88.32h3.36v12.8a16.85,16.85,0,0,0,.3,3.32,7,7,0,0,0,1,2.54,4.88,4.88,0,0,0,1.93,1.66,6.84,6.84,0,0,0,3,.59,6.55,6.55,0,0,0,2.6-.54A6.39,6.39,0,0,0,96.46,107,8.14,8.14,0,0,0,98,104.21a12.12,12.12,0,0,0,.59-4V88.32H102v18.05c0,.62,0,1.43,0,2.42s.08,1.88.14,2.67Z"/><path class="cls-4" d="M137.35,107.55a9.41,9.41,0,0,1-3.86,3.36,11.16,11.16,0,0,1-4.89,1.14,12.3,12.3,0,0,1-4.92-.94,11.08,11.08,0,0,1-3.76-2.57,11.44,11.44,0,0,1-2.42-3.86,13.65,13.65,0,0,1,0-9.59,11.4,11.4,0,0,1,2.42-3.85,11.08,11.08,0,0,1,3.76-2.57,12.3,12.3,0,0,1,4.92-.94,10.91,10.91,0,0,1,4.89,1.16,9.58,9.58,0,0,1,3.86,3.43h.1V74.08h3.36v37.38h-3.36v-3.91Zm-17.16-7.66a11.1,11.1,0,0,0,.59,3.63,8.89,8.89,0,0,0,1.71,3,7.85,7.85,0,0,0,2.74,2,9.13,9.13,0,0,0,3.71.71,8.66,8.66,0,0,0,8.23-5.61,10.44,10.44,0,0,0,0-7.36,9,9,0,0,0-1.85-3,8.56,8.56,0,0,0-2.82-2,8.71,8.71,0,0,0-3.56-.72,8.81,8.81,0,0,0-3.71.75,8,8,0,0,0-2.74,2,8.94,8.94,0,0,0-1.71,3A11.16,11.16,0,0,0,120.19,99.89Z"/><path class="cls-4" d="M161.33,79.42a2.23,2.23,0,0,1-.74,1.71,2.36,2.36,0,0,1-3.27,0,2.35,2.35,0,0,1,0-3.42,2.36,2.36,0,0,1,3.27,0A2.23,2.23,0,0,1,161.33,79.42Zm-.7,32h-3.36V88.32h3.36Z"/><path class="cls-4" d="M226.94,93.81a6,6,0,0,0-2.25-2.35,6.51,6.51,0,0,0-3.44-.92,8.3,8.3,0,0,0-1.78.2,5,5,0,0,0-1.58.64,3.55,3.55,0,0,0-1.11,1.14,3,3,0,0,0-.43,1.63,2.81,2.81,0,0,0,1.34,2.5,12.85,12.85,0,0,0,4.2,1.46,14,14,0,0,1,6.06,2.45,5.31,5.31,0,0,1,2,4.32,6.73,6.73,0,0,1-.76,3.34,6.61,6.61,0,0,1-2,2.22,8,8,0,0,1-2.79,1.24,13.4,13.4,0,0,1-3.14.37,12.43,12.43,0,0,1-5.09-1.09,9.42,9.42,0,0,1-4.06-3.41l2.67-2a7.5,7.5,0,0,0,6.43,3.61,10.73,10.73,0,0,0,2.08-.19,4.77,4.77,0,0,0,1.73-.7,3.57,3.57,0,0,0,1.18-1.26,3.69,3.69,0,0,0,.45-1.9,2.93,2.93,0,0,0-1.76-2.74,23.11,23.11,0,0,0-5.06-1.71c-.7-.16-1.43-.37-2.2-.62A7.39,7.39,0,0,1,215.42,99a5.79,5.79,0,0,1-1.64-1.8,5.27,5.27,0,0,1-.64-2.72,6.24,6.24,0,0,1,.69-3,6.09,6.09,0,0,1,1.86-2.08,8.4,8.4,0,0,1,2.64-1.21,12,12,0,0,1,3.07-.39,10.87,10.87,0,0,1,4.7,1.08,7.63,7.63,0,0,1,3.41,3.07Z"/><ellipse class="cls-5" cx="187.77" cy="84.14" rx="4.9" ry="10.32"/><line class="cls-5" x1="189.42" y1="71.48" x2="190.93" y2="68.59"/><line class="cls-5" x1="185.92" y1="71.6" x2="184.35" y2="68.59"/><circle class="cls-5" cx="184.05" cy="68.01" r="0.66"/><circle class="cls-5" cx="191.24" cy="68.01" r="0.66"/><circle class="cls-5" cx="187.77" cy="74.57" r="3.5"/><path class="cls-6" d="M189.51,80.38V76.16c0-1.29,1.67-2.34,3.72-2.34h.05a15.52,15.52,0,0,1,7.62,1.87h0c2.2,1.27,2.15,3.45-.1,4.68h0a17.39,17.39,0,0,1-8.23,1.93h0C190.88,82.3,189.51,81.44,189.51,80.38Z"/><path class="cls-7" d="M189.38,79.63l1.8-3.36c.54-1,2.1-1.27,3.47-.53h0A10.33,10.33,0,0,1,199,79.94h0a2.4,2.4,0,0,1-2.06,3.69h0a11.5,11.5,0,0,1-6.3-1.38h0A2.09,2.09,0,0,1,189.38,79.63Z"/><path class="cls-6" d="M186.15,80.38V76.16c0-1.29-1.67-2.34-3.73-2.34h0a15.53,15.53,0,0,0-7.63,1.87h0c-2.19,1.27-2.15,3.45.1,4.68h0a17.42,17.42,0,0,0,8.23,1.93h0C184.77,82.3,186.15,81.44,186.15,80.38Z"/><circle class="cls-8" cx="187.77" cy="100.51" r="16.37"/><circle class="cls-9" cx="187.77" cy="99.93" r="12.47"/><circle class="cls-10" cx="187.77" cy="99.82" r="9.36"/><circle class="cls-11" cx="187.83" cy="99.82" r="6.75"/><path class="cls-7" d="M186.25,79.63l-1.79-3.36c-.55-1-2.1-1.27-3.47-.53h0a10.21,10.21,0,0,0-4.29,4.19h0a2.4,2.4,0,0,0,2.05,3.69h0A11.55,11.55,0,0,0,185,82.25h0A2.09,2.09,0,0,0,186.25,79.63Z"/><circle class="cls-4" cx="47.94" cy="31.69" r="1.43"/><circle class="cls-12" cx="47.94" cy="31.69" r="2.59"/><circle class="cls-13" cx="47.94" cy="31.69" r="3.98"/></svg>