<svg id="Layer_1" data-name="Layer 1" xmlns="http://www.w3.org/2000/svg" viewBox="0 0 125.57 125.57"><defs><style>.cls-1,.cls-5{fill:none;}.cls-1{stroke:#fff;}.cls-1,.cls-10,.cls-11,.cls-12,.cls-2,.cls-3,.cls-4,.cls-5,.cls-6,.cls-7,.cls-8,.cls-9{stroke-miterlimit:10;}.cls-2{fill:#242424;stroke:#242424;}.cls-3{fill:#e0f9d7;}.cls-3,.cls-5{stroke:#e0f9d7;}.cls-3,.cls-5,.cls-7{stroke-width:0.5px;}.cls-10,.cls-11,.cls-12,.cls-4,.cls-6,.cls-8,.cls-9{fill:#8bff31;stroke:#8bff31;}.cls-6{opacity:0.7;}.cls-7{fill:#70f987;stroke:#70f987;opacity:0.74;}.cls-8{opacity:0.23;}.cls-9{opacity:0.13;}.cls-10{opacity:0.55;}.cls-11{opacity:0.22;}.cls-12{opacity:0.12;}</style></defs><path class="cls-1" d="M130.78,66.91" transform="translate(-63.21 -9.21)"/><circle class="cls-2" cx="62.79" cy="62.79" r="62.29"/><path class="cls-3" d="M77.06,49.87h8.15v.91H78.15v5.9h6.46v.92H78.15v7.28H77.06Z" transform="translate(-63.21 -9.21)"/><path class="cls-3" d="M88.54,64.88V54.19h1.09V64.88Z" transform="translate(-63.21 -9.21)"/><path class="cls-3" d="M94.44,57.64c0-1.16,0-2.29-.09-3.45h1l0,2.32h.07a3.52,3.52,0,0,1,3.27-2.59,1.66,1.66,0,0,1,.51.07v1a3,3,0,0,0-.62,0c-1.49,0-2.63,1.24-3,3.09a5,5,0,0,0-.12,1.05v5.79H94.44Z" transform="translate(-63.21 -9.21)"/><path class="cls-3" d="M102.35,59.54a4.28,4.28,0,0,0,4.53,4.68,7.43,7.43,0,0,0,3.43-.67l.29.87a8.76,8.76,0,0,1-3.84.73,5.16,5.16,0,0,1-5.48-5.35c0-3.63,2.32-5.88,5.35-5.88,4,0,4.66,3.52,4.66,4.95a2.41,2.41,0,0,1-.05.67Zm7.8-.87a3.52,3.52,0,0,0-3.65-3.86,4.14,4.14,0,0,0-4.08,3.86Z" transform="translate(-63.21 -9.21)"/><path class="cls-3" d="M115.14,64.88V55.06h-1.62v-.87h1.62v-.4a5.22,5.22,0,0,1,1.54-4.06,4.76,4.76,0,0,1,3.3-1.07,6.43,6.43,0,0,1,2.83.6V64.88h-1.09V49.93a4.3,4.3,0,0,0-2-.35c-2.7,0-3.52,1.91-3.52,4v.58h3.14v.87h-3.14v9.82Z" transform="translate(-63.21 -9.21)"/><path class="cls-3" d="M127.05,54.19l3.18,7.15a20.35,20.35,0,0,1,.87,2.25h.05c.24-.67.53-1.47.89-2.34l3-7.06h1.18l-3.78,8.64c-1.48,3.39-2.43,5.06-3.86,6.09a5.44,5.44,0,0,1-2,1l-.29-.91a5.19,5.19,0,0,0,2-1,7.76,7.76,0,0,0,2-2.87,1.16,1.16,0,0,0,.13-.42,1.35,1.35,0,0,0-.15-.49l-4.44-9.94Z" transform="translate(-63.21 -9.21)"/><path class="cls-4" d="M85,79.8a4.13,4.13,0,0,0-1.41-1.24,4.67,4.67,0,0,0-3.34-.27,3.58,3.58,0,0,0-1.17.59,2.81,2.81,0,0,0-.85,1,2.88,2.88,0,0,0-.33,1.41,2.68,2.68,0,0,0,.31,1.34,2.82,2.82,0,0,0,.83.89,4.73,4.73,0,0,0,1.16.61l1.38.48c.58.19,1.17.4,1.77.62A6.57,6.57,0,0,1,85,86.1a4.07,4.07,0,0,1,1.17,1.36,4.34,4.34,0,0,1,.45,2.09,4.71,4.71,0,0,1-.48,2.19,4.56,4.56,0,0,1-1.26,1.52,5.29,5.29,0,0,1-1.76.88,7.22,7.22,0,0,1-2,.29,8,8,0,0,1-1.53-.16,7,7,0,0,1-1.45-.46,5.94,5.94,0,0,1-1.3-.79,6.08,6.08,0,0,1-1-1.1l1.48-1.1a4.61,4.61,0,0,0,1.55,1.52,4.39,4.39,0,0,0,2.33.6,4.3,4.3,0,0,0,1.31-.2,3.56,3.56,0,0,0,1.21-.62,3.37,3.37,0,0,0,.88-1,2.82,2.82,0,0,0,.35-1.42,2.86,2.86,0,0,0-.35-1.47,3,3,0,0,0-.92-1,6,6,0,0,0-1.31-.66c-.5-.17-1-.35-1.56-.52s-1.1-.38-1.64-.6a5.59,5.59,0,0,1-1.46-.87,4.13,4.13,0,0,1-1-1.33,4.22,4.22,0,0,1-.4-1.94,4.34,4.34,0,0,1,.49-2.1A4.52,4.52,0,0,1,78,77.74a5.55,5.55,0,0,1,1.75-.84,7.23,7.23,0,0,1,1.89-.26,6.51,6.51,0,0,1,2.94.61,5.14,5.14,0,0,1,1.84,1.45Z" transform="translate(-63.21 -9.21)"/><path class="cls-4" d="M98.69,84.17H95.53V90.7a3.78,3.78,0,0,0,.12,1,1.46,1.46,0,0,0,.35.63,1.22,1.22,0,0,0,.54.31,2.37,2.37,0,0,0,.67.08,3,3,0,0,0,.7-.09,3.58,3.58,0,0,0,.71-.27l.07,1.42a5.44,5.44,0,0,1-.9.25,6.36,6.36,0,0,1-1,.08,4.07,4.07,0,0,1-1-.12,2.37,2.37,0,0,1-.93-.45,2.51,2.51,0,0,1-.71-.91,3.58,3.58,0,0,1-.27-1.51v-7H91.59V82.81h2.32V79.65h1.62v3.16h3.16Z" transform="translate(-63.21 -9.21)"/><path class="cls-4" d="M112.94,94c0-.31-.06-.64-.08-1s0-.67,0-.91h0a3.6,3.6,0,0,1-1.55,1.59,4.52,4.52,0,0,1-2.27.61A3.92,3.92,0,0,1,105.78,93a5,5,0,0,1-1.07-3.35V82.81h1.63V89a8.66,8.66,0,0,0,.14,1.6,3.41,3.41,0,0,0,.49,1.23,2.27,2.27,0,0,0,.93.8,3.35,3.35,0,0,0,1.47.29,3.27,3.27,0,0,0,1.26-.26,3.2,3.2,0,0,0,1.09-.8,4.18,4.18,0,0,0,.76-1.37,6,6,0,0,0,.29-1.94V82.81h1.62v8.72c0,.31,0,.7,0,1.18s0,.9.07,1.29Z" transform="translate(-63.21 -9.21)"/><path class="cls-4" d="M131.49,92.11a4.58,4.58,0,0,1-1.87,1.62,5.34,5.34,0,0,1-2.36.55,6,6,0,0,1-2.38-.45,5.44,5.44,0,0,1-1.82-1.24,5.7,5.7,0,0,1-1.17-1.87,6.62,6.62,0,0,1,0-4.64,5.65,5.65,0,0,1,1.17-1.86A5.3,5.3,0,0,1,124.88,83a5.88,5.88,0,0,1,2.38-.46,5.35,5.35,0,0,1,2.36.56,4.67,4.67,0,0,1,1.87,1.66h0V75.92h1.63V94h-1.63V92.11Zm-8.3-3.71a5.37,5.37,0,0,0,.29,1.76,4.12,4.12,0,0,0,.82,1.43,3.7,3.7,0,0,0,1.33,1,4.43,4.43,0,0,0,1.79.35,4.23,4.23,0,0,0,1.72-.35,4.4,4.4,0,0,0,1.37-.94,4.27,4.27,0,0,0,.89-1.43,5,5,0,0,0,0-3.56,4.27,4.27,0,0,0-.89-1.43,4.14,4.14,0,0,0-1.37-1,4.52,4.52,0,0,0-3.51,0,3.85,3.85,0,0,0-1.33,1,4.26,4.26,0,0,0-.82,1.44A5.31,5.31,0,0,0,123.19,88.4Z" transform="translate(-63.21 -9.21)"/><path class="cls-4" d="M143.08,78.51a1,1,0,0,1-.36.82,1.13,1.13,0,0,1-.79.32,1.15,1.15,0,0,1-.79-.32,1.07,1.07,0,0,1-.35-.82,1.09,1.09,0,0,1,.35-.83,1.19,1.19,0,0,1,.79-.32,1.17,1.17,0,0,1,.79.32A1.07,1.07,0,0,1,143.08,78.51ZM142.75,94h-1.63V82.81h1.63Z" transform="translate(-63.21 -9.21)"/><path class="cls-4" d="M174.8,85.46a2.85,2.85,0,0,0-1.08-1.13,3.12,3.12,0,0,0-1.67-.45,4.29,4.29,0,0,0-.86.1,2.34,2.34,0,0,0-.76.31,1.77,1.77,0,0,0-.54.55,1.45,1.45,0,0,0-.2.79,1.35,1.35,0,0,0,.64,1.21,6.18,6.18,0,0,0,2,.7,6.71,6.71,0,0,1,2.93,1.19,2.55,2.55,0,0,1,1,2.09,3.33,3.33,0,0,1-.37,1.61,3.26,3.26,0,0,1-1,1.08,3.91,3.91,0,0,1-1.35.59,6.51,6.51,0,0,1-1.52.18,6,6,0,0,1-2.46-.52,4.53,4.53,0,0,1-2-1.65l1.29-1A3.7,3.7,0,0,0,172,92.9a4.65,4.65,0,0,0,1-.1,2.24,2.24,0,0,0,.84-.33,1.84,1.84,0,0,0,.57-.61,1.87,1.87,0,0,0,.22-.92,1.43,1.43,0,0,0-.85-1.33,11.84,11.84,0,0,0-2.45-.83,10.83,10.83,0,0,1-1.07-.29,3.79,3.79,0,0,1-1-.53,2.87,2.87,0,0,1-.79-.87,2.63,2.63,0,0,1-.31-1.32,2.88,2.88,0,0,1,1.23-2.47,4.28,4.28,0,0,1,1.28-.59,6.15,6.15,0,0,1,1.49-.19,5.24,5.24,0,0,1,2.27.53,3.67,3.67,0,0,1,1.65,1.48Z" transform="translate(-63.21 -9.21)"/><ellipse class="cls-3" cx="92.65" cy="71.57" rx="2.37" ry="4.99"/><line class="cls-5" x1="93.45" y1="65.45" x2="94.18" y2="64.05"/><line class="cls-5" x1="91.76" y1="65.51" x2="91" y2="64.05"/><circle class="cls-3" cx="90.85" cy="63.77" r="0.32"/><circle class="cls-3" cx="94.33" cy="63.77" r="0.32"/><circle class="cls-3" cx="92.65" cy="66.94" r="1.69"/><path class="cls-6" d="M156.71,79v-2c0-.63.8-1.13,1.8-1.13h0a7.48,7.48,0,0,1,3.68.9h0a1.2,1.2,0,0,1,0,2.27h0a8.5,8.5,0,0,1-4,.93h0C157.37,79.9,156.71,79.48,156.71,79Z" transform="translate(-63.21 -9.21)"/><path class="cls-7" d="M156.65,78.61l.86-1.63a1.24,1.24,0,0,1,1.68-.26h0a5,5,0,0,1,2.07,2h0a1.15,1.15,0,0,1-1,1.78h0a5.53,5.53,0,0,1-3-.67h0A1,1,0,0,1,156.65,78.61Z" transform="translate(-63.21 -9.21)"/><path class="cls-6" d="M155.08,79v-2c0-.63-.8-1.13-1.8-1.13h0a7.52,7.52,0,0,0-3.69.9h0a1.2,1.2,0,0,0,.05,2.27h0a8.47,8.47,0,0,0,4,.93h0C154.42,79.9,155.08,79.48,155.08,79Z" transform="translate(-63.21 -9.21)"/><circle class="cls-8" cx="92.65" cy="79.21" r="6.03"/><circle class="cls-9" cx="92.65" cy="79.21" r="7.91"/><circle class="cls-10" cx="92.65" cy="79.16" r="4.53"/><circle class="cls-4" cx="92.68" cy="79.16" r="3.27"/><path class="cls-7" d="M155.13,78.61,154.27,77a1.24,1.24,0,0,0-1.68-.26h0a5,5,0,0,0-2.07,2h0a1.15,1.15,0,0,0,1,1.78h0a5.53,5.53,0,0,0,3-.67h0A1,1,0,0,0,155.13,78.61Z" transform="translate(-63.21 -9.21)"/><circle class="cls-4" cx="25.87" cy="40.52" r="0.74"/><circle class="cls-11" cx="25.87" cy="40.52" r="1.34"/><circle class="cls-12" cx="25.87" cy="40.52" r="2.07"/></svg>