<svg xmlns="http://www.w3.org/2000/svg" viewBox="0 0 134.5 87.01"><defs><style>.cls-1,.cls-2{fill:#eaeaea;}.cls-1{stroke:#eaeaea;}.cls-1,.cls-3,.cls-4,.cls-5{stroke-miterlimit:10;}.cls-3,.cls-4,.cls-5{fill:none;}.cls-3{stroke:#92ef97;}.cls-4{stroke:#7cd4f2;}.cls-5{stroke:#f9a2c9;}</style></defs><g id="Layer_2" data-name="Layer 2"><g id="Layer_1-2" data-name="Layer 1"><path d="M55.09,44.21V31H56.3v6l5.92-6h1.54l-6.4,6.53,7.07,6.67H62.72l-6.42-6v6Z"/><path d="M69.73,44.46a4,4,0,0,1-2.08-.56,4,4,0,0,1-1.46-1.55,5,5,0,0,1,0-4.48,4,4,0,0,1,1.45-1.54,4.15,4.15,0,0,1,4.11,0,3.54,3.54,0,0,1,1.38,1.44V36h1.17v8.2H73.12V42.48a3.88,3.88,0,0,1-1.42,1.45A3.71,3.71,0,0,1,69.73,44.46Zm.28-1A3.12,3.12,0,0,0,71.64,43a3.06,3.06,0,0,0,1.12-1.19,3.56,3.56,0,0,0,.41-1.72,3.6,3.6,0,0,0-.41-1.73,3.08,3.08,0,0,0-1.11-1.18,3.32,3.32,0,0,0-3.27,0,3.1,3.1,0,0,0-1.12,1.18,3.6,3.6,0,0,0-.41,1.73,3.56,3.56,0,0,0,.41,1.72A3.06,3.06,0,0,0,68.38,43,3.17,3.17,0,0,0,70,43.45Z"/><path d="M79.65,44.46a1.7,1.7,0,0,1-1.42-.62,2.67,2.67,0,0,1-.51-1.75v-5.2h-.83V36h.83V33h1.17V36h2v.88h-2V42a1.72,1.72,0,0,0,.26,1,.88.88,0,0,0,.75.36,1.39,1.39,0,0,0,.83-.26l.3.92a2.06,2.06,0,0,1-.64.27A2.69,2.69,0,0,1,79.65,44.46Z"/><path d="M83.58,44.21V30.44h1.17v6.69a2.73,2.73,0,0,1,1-1,3.39,3.39,0,0,1,1.72-.4,3.29,3.29,0,0,1,1.64.39,2.61,2.61,0,0,1,1.06,1.14,4.13,4.13,0,0,1,.36,1.8v5.12H89.41V39.32a2.84,2.84,0,0,0-.6-2,2.12,2.12,0,0,0-1.67-.67,2.45,2.45,0,0,0-1.28.31,2.08,2.08,0,0,0-.82.79,2.12,2.12,0,0,0-.29,1.07v5.34Z"/><path d="M97.71,44.46a4.59,4.59,0,0,1-2.3-.57,4.2,4.2,0,0,1-1.59-1.54,4.33,4.33,0,0,1-.57-2.21,4.34,4.34,0,0,1,2.63-4,4.25,4.25,0,0,1,1.67-.33,4.37,4.37,0,0,1,2.16.53,4,4,0,0,1,1.51,1.47,4.46,4.46,0,0,1,.59,2.16c0,.06,0,.11,0,.15a1,1,0,0,1,0,.15H94.41a3.28,3.28,0,0,0,.43,1.7A3.06,3.06,0,0,0,96,43.07a3.49,3.49,0,0,0,1.73.42,3.54,3.54,0,0,0,1.67-.38A3.37,3.37,0,0,0,100.66,42l.87.46a4,4,0,0,1-1.59,1.48A4.62,4.62,0,0,1,97.71,44.46Zm-3.24-5.12h6.17A2.88,2.88,0,0,0,100.1,38,3.06,3.06,0,0,0,99,37.06a3.17,3.17,0,0,0-1.44-.33,3.31,3.31,0,0,0-1.48.33,2.93,2.93,0,0,0-1.62,2.28Z"/><path d="M104.52,44.21V36h1.17v1.21a2.74,2.74,0,0,1,1-1.09,2.7,2.7,0,0,1,1.43-.37,3.63,3.63,0,0,1,.73.08,2.61,2.61,0,0,1,.65.21L109,37a2.09,2.09,0,0,0-.55-.18,2.44,2.44,0,0,0-.59-.07,2.15,2.15,0,0,0-1.07.29,2.46,2.46,0,0,0-.82.75,1.7,1.7,0,0,0-.31,1v5.41Z"/><path d="M112.24,34.37a.7.7,0,0,1-.38-.1.75.75,0,0,1-.28-.28.72.72,0,0,1-.1-.38.7.7,0,0,1,.1-.38.75.75,0,0,1,.28-.28.7.7,0,0,1,.38-.1.76.76,0,0,1,.39.1.87.87,0,0,1,.27.27.7.7,0,0,1,.11.38.77.77,0,0,1-.11.39.81.81,0,0,1-.27.28A.76.76,0,0,1,112.24,34.37Zm-.59,9.84V36h1.17v8.2Z"/><path d="M116.28,44.21V36h1.17v1.12a2.73,2.73,0,0,1,1-1,3.35,3.35,0,0,1,1.71-.4,3.24,3.24,0,0,1,1.64.39,2.55,2.55,0,0,1,1.06,1.14,4,4,0,0,1,.37,1.8v5.12H122.1V39.32a2.85,2.85,0,0,0-.59-1.94,2.11,2.11,0,0,0-1.67-.67,2.62,2.62,0,0,0-1.29.3,2.22,2.22,0,0,0-.82.79,2.11,2.11,0,0,0-.28,1.07v5.34Z"/><path d="M130.41,44.46a4.65,4.65,0,0,1-2.31-.57,4.1,4.1,0,0,1-1.58-1.54,4.24,4.24,0,0,1-.58-2.21,4.42,4.42,0,0,1,.33-1.71,4.29,4.29,0,0,1,.93-1.4,4.35,4.35,0,0,1,1.37-.94,4.29,4.29,0,0,1,1.67-.33,4.39,4.39,0,0,1,2.17.53,4,4,0,0,1,1.5,1.47,4.35,4.35,0,0,1,.59,2.16v.15s0,.09,0,.15H127.1a3.28,3.28,0,0,0,.43,1.7,3.13,3.13,0,0,0,1.19,1.15,3.81,3.81,0,0,0,3.4,0A3.4,3.4,0,0,0,133.36,42l.86.46a4,4,0,0,1-1.59,1.48A4.61,4.61,0,0,1,130.41,44.46Zm-3.25-5.12h6.17A2.87,2.87,0,0,0,132.8,38a3.09,3.09,0,0,0-1.1-.93,3.17,3.17,0,0,0-1.44-.33,3.24,3.24,0,0,0-1.47.33,3,3,0,0,0-1.09.92A2.92,2.92,0,0,0,127.16,39.34Z"/><path d="M54.53,63.41V50.21h2.79a4.61,4.61,0,0,1,3,.86,3.33,3.33,0,0,1-.83,5.45,3.71,3.71,0,0,1,2.27,1.07,3.25,3.25,0,0,1,.8,2.28,3.49,3.49,0,0,1-.5,1.9A3.16,3.16,0,0,1,60.63,63a5.36,5.36,0,0,1-2.22.42Zm1.21-7.27H57.1a3.61,3.61,0,0,0,2.31-.64,2.51,2.51,0,0,0,0-3.69,3.67,3.67,0,0,0-2.31-.64H55.74Zm0,6.27h2.35a3.75,3.75,0,0,0,2.38-.66,2.3,2.3,0,0,0,.84-1.91,2.35,2.35,0,0,0-.84-1.93,3.69,3.69,0,0,0-2.38-.7H55.74Z"/><path d="M65,63.41V49.65H66.2V63.41Z"/><path d="M73.14,63.66a3.92,3.92,0,0,1-2.07-.56,4.06,4.06,0,0,1-1.47-1.55,4.59,4.59,0,0,1-.54-2.25,4.68,4.68,0,0,1,.53-2.23,4.08,4.08,0,0,1,1.46-1.54A3.9,3.9,0,0,1,73.14,55a4,4,0,0,1,2,.52,3.46,3.46,0,0,1,1.37,1.44V55.21H77.7v8.2H76.53V61.68a3.85,3.85,0,0,1-1.41,1.45A3.72,3.72,0,0,1,73.14,63.66Zm.29-1a3.15,3.15,0,0,0,1.63-.43A3,3,0,0,0,76.17,61a3.45,3.45,0,0,0,.41-1.72,3.59,3.59,0,0,0-.4-1.73,3,3,0,0,0-1.12-1.18,3.3,3.3,0,0,0-3.26,0,3,3,0,0,0-1.12,1.18,3.6,3.6,0,0,0-.41,1.73A3.56,3.56,0,0,0,70.68,61a3,3,0,0,0,1.12,1.19A3.15,3.15,0,0,0,73.43,62.65Z"/><path d="M83.21,63.66a3.28,3.28,0,0,1-1.8-.49,3.24,3.24,0,0,1-1.2-1.4l.62-.67a3.14,3.14,0,0,0,1,1.22,2.33,2.33,0,0,0,1.37.44,2,2,0,0,0,.92-.21A1.66,1.66,0,0,0,85.05,61a1.16,1.16,0,0,0-.24-.77,2,2,0,0,0-.69-.48c-.3-.14-.67-.29-1.12-.46a10.39,10.39,0,0,1-1-.47,2.51,2.51,0,0,1-.8-.67,1.57,1.57,0,0,1-.32-1A1.88,1.88,0,0,1,81.21,56a2.28,2.28,0,0,1,.92-.78A3.11,3.11,0,0,1,83.48,55a3,3,0,0,1,1.29.29,3.59,3.59,0,0,1,1.08.84l-.53.68a2.23,2.23,0,0,0-1.83-1,1.64,1.64,0,0,0-1.1.36,1.13,1.13,0,0,0-.42.92.93.93,0,0,0,.27.68,2.13,2.13,0,0,0,.69.46c.29.13.59.26.92.38.48.19.9.37,1.26.55a2.16,2.16,0,0,1,.82.69,1.93,1.93,0,0,1,.3,1.14,2.47,2.47,0,0,1-1.45,2.35A3.73,3.73,0,0,1,83.21,63.66Z"/><path d="M89,63.41v-8.2h1.16v1.12a3.33,3.33,0,0,1,1.17-1A3.18,3.18,0,0,1,92.86,55a3.28,3.28,0,0,1,1.76.46,2.38,2.38,0,0,1,1,1.27,3.84,3.84,0,0,1,1.21-1.26A3.19,3.19,0,0,1,98.6,55a3.37,3.37,0,0,1,1.55.35,2.68,2.68,0,0,1,1.07,1,3.35,3.35,0,0,1,.39,1.67v5.39h-1.17V58.35a2.58,2.58,0,0,0-.59-1.78,2,2,0,0,0-1.56-.65,2.57,2.57,0,0,0-1.21.29,2.51,2.51,0,0,0-.87.77,1.7,1.7,0,0,0-.32,1v5.47H94.73V58.23a2.42,2.42,0,0,0-.58-1.69,2,2,0,0,0-1.54-.62,2.64,2.64,0,0,0-1.22.28,2.5,2.5,0,0,0-.89.73,1.55,1.55,0,0,0-.33.92v5.56Z"/><path d="M108.41,63.66a3.94,3.94,0,0,1-2.07-.56,4.06,4.06,0,0,1-1.47-1.55,4.92,4.92,0,0,1,0-4.48,4.05,4.05,0,0,1,1.45-1.54,3.9,3.9,0,0,1,2.09-.57,4,4,0,0,1,2,.52,3.54,3.54,0,0,1,1.38,1.44V55.21H113v8.2h-1.16V61.68a4,4,0,0,1-1.42,1.45A3.72,3.72,0,0,1,108.41,63.66Zm.29-1A3,3,0,0,0,111.45,61a3.55,3.55,0,0,0,.4-1.72,3.59,3.59,0,0,0-.4-1.73,3,3,0,0,0-1.12-1.18,3.3,3.3,0,0,0-3.26,0A3,3,0,0,0,106,57.58a3.6,3.6,0,0,0-.41,1.73A3.56,3.56,0,0,0,106,61a3,3,0,0,0,1.12,1.19A3.15,3.15,0,0,0,108.7,62.65Z"/><path d="M116.41,63.41v-8.2h1.17v1.12a2.8,2.8,0,0,1,1-1,3.39,3.39,0,0,1,1.72-.4,3.26,3.26,0,0,1,1.64.39A2.61,2.61,0,0,1,123,56.49a4.13,4.13,0,0,1,.37,1.8v5.12h-1.17V58.52a2.85,2.85,0,0,0-.59-1.94,2.13,2.13,0,0,0-1.68-.67,2.55,2.55,0,0,0-1.28.3,2.08,2.08,0,0,0-.82.79,2.12,2.12,0,0,0-.29,1.07v5.34Z"/><path d="M55.09,82.61V69.41h3a6.68,6.68,0,0,1,2.62.5,6.59,6.59,0,0,1,2.11,1.4,6.49,6.49,0,0,1,1.42,2.11,6.86,6.86,0,0,1,0,5.19,6.27,6.27,0,0,1-1.41,2.1,6.53,6.53,0,0,1-2.12,1.4,6.87,6.87,0,0,1-2.62.5Zm1.21-1.09H58a5.54,5.54,0,0,0,2.16-.42A5.34,5.34,0,0,0,63,78.18a5.82,5.82,0,0,0,0-4.34,5.35,5.35,0,0,0-1.16-1.75,5.25,5.25,0,0,0-1.75-1.18A5.54,5.54,0,0,0,58,70.49H56.3Z"/><path d="M71.6,82.86a4.59,4.59,0,0,1-2.3-.57,4.06,4.06,0,0,1-1.59-1.54,4.34,4.34,0,0,1-.58-2.21,4.29,4.29,0,0,1,4.31-4.38,4.37,4.37,0,0,1,2.16.53,4.09,4.09,0,0,1,1.51,1.47,4.34,4.34,0,0,1,.58,2.16v.15a1,1,0,0,1,0,.15H68.29a3.29,3.29,0,0,0,.44,1.7,3,3,0,0,0,1.18,1.15,3.82,3.82,0,0,0,3.4,0,3.32,3.32,0,0,0,1.24-1.12l.86.46a4,4,0,0,1-1.58,1.48A4.65,4.65,0,0,1,71.6,82.86Zm-3.24-5.12h6.17A2.88,2.88,0,0,0,74,76.39a3.06,3.06,0,0,0-1.09-.93,3.19,3.19,0,0,0-1.45-.33,3.24,3.24,0,0,0-1.47.33,3,3,0,0,0-1.09.92A2.86,2.86,0,0,0,68.36,77.74Z"/><path d="M80.5,82.86a3.18,3.18,0,0,1-3-1.89l.63-.67a3,3,0,0,0,1,1.22,2.3,2.3,0,0,0,1.36.44,2.05,2.05,0,0,0,.93-.21,1.69,1.69,0,0,0,.67-.6,1.6,1.6,0,0,0,.25-.92,1.22,1.22,0,0,0-.23-.77,2,2,0,0,0-.69-.48c-.3-.14-.68-.29-1.13-.46s-.68-.3-1-.47a2.55,2.55,0,0,1-.81-.67,1.62,1.62,0,0,1-.31-1,1.94,1.94,0,0,1,.33-1.12,2.31,2.31,0,0,1,.93-.78,3.2,3.2,0,0,1,2.64,0,3.59,3.59,0,0,1,1.08.84l-.54.68a2.23,2.23,0,0,0-1.83-1,1.61,1.61,0,0,0-1.09.36,1.13,1.13,0,0,0-.42.92,1,1,0,0,0,.26.68,2.3,2.3,0,0,0,.7.46c.28.13.59.26.92.38s.9.37,1.25.55a2.2,2.2,0,0,1,.83.69,1.93,1.93,0,0,1,.3,1.14,2.54,2.54,0,0,1-.39,1.42,2.5,2.5,0,0,1-1.07.93A3.7,3.7,0,0,1,80.5,82.86Z"/><path d="M86.88,72.77a.7.7,0,0,1-.38-.1.76.76,0,0,1-.38-.66.7.7,0,0,1,.1-.38.75.75,0,0,1,.28-.28.7.7,0,0,1,.38-.1.76.76,0,0,1,.39.1.87.87,0,0,1,.27.27.7.7,0,0,1,.11.38.77.77,0,0,1-.11.39.81.81,0,0,1-.27.28A.76.76,0,0,1,86.88,72.77Zm-.59,9.84v-8.2h1.17v8.2Z"/><path d="M94.53,87a5.29,5.29,0,0,1-2.62-.61,3.68,3.68,0,0,1-1.59-1.78l1-.45a2.88,2.88,0,0,0,1.25,1.34,3.84,3.84,0,0,0,2,.5,3.64,3.64,0,0,0,1.68-.37,2.87,2.87,0,0,0,1.17-1.07,3.26,3.26,0,0,0,.43-1.69v-2a4,4,0,0,1-5.46,1.42,4,4,0,0,1-1.47-1.54,4.94,4.94,0,0,1,0-4.49,3.94,3.94,0,0,1,1.46-1.54,4.09,4.09,0,0,1,4.08,0,3.77,3.77,0,0,1,1.39,1.44V74.41H99v8.42a4.59,4.59,0,0,1-.53,2.29,3.48,3.48,0,0,1-1.53,1.41A5.46,5.46,0,0,1,94.53,87Zm.16-5.16a3.16,3.16,0,0,0,1.64-.43,3,3,0,0,0,1.12-1.19,3.43,3.43,0,0,0,.41-1.71,3.49,3.49,0,0,0-.41-1.73,3,3,0,0,0-1.12-1.19,3.3,3.3,0,0,0-3.26,0A3,3,0,0,0,92,76.79a3.6,3.6,0,0,0-.41,1.73A3.54,3.54,0,0,0,92,80.23a2.92,2.92,0,0,0,1.12,1.19A3.14,3.14,0,0,0,94.69,81.85Z"/><path d="M102.41,82.61v-8.2h1.17v1.12a2.8,2.8,0,0,1,1-1,3.39,3.39,0,0,1,1.72-.4,3.26,3.26,0,0,1,1.64.39A2.61,2.61,0,0,1,109,75.69a4.13,4.13,0,0,1,.37,1.8v5.12h-1.17V77.72a2.85,2.85,0,0,0-.59-1.94,2.13,2.13,0,0,0-1.68-.67,2.55,2.55,0,0,0-1.28.3,2.08,2.08,0,0,0-.82.79,2.12,2.12,0,0,0-.29,1.07v5.34Z"/><polygon class="cls-1" points="0.59 49.85 23.78 29.04 38.88 29.04 0.59 65.34 0.59 49.85"/><path class="cls-2" d="M12.5,83.24H0Q0,41.63,0,0L12.5,8.4Z"/><polygon class="cls-1" points="0.59 60.66 25.4 82.74 41.55 82.74 0.59 44.21 0.59 60.66"/><polygon class="cls-3" points="6.88 49.85 30.07 29.04 45.17 29.04 6.88 65.34 6.88 49.85"/><path class="cls-4" d="M18.79,82.74H6.88q0-40.81,0-81.65L18.79,9.34Z"/><polygon class="cls-5" points="6.88 60.66 31.69 82.74 47.84 82.74 6.88 44.21 6.88 60.66"/></g></g></svg>