<svg xmlns="http://www.w3.org/2000/svg" xmlns:xlink="http://www.w3.org/1999/xlink" width="1280" height="800" viewBox="0 0 1280 800">
  <defs>
    <linearGradient id="linear-gradient" x1="0.5" x2="0.5" y2="2.308" gradientUnits="objectBoundingBox">
      <stop offset="0" stop-color="#87d343"/>
      <stop offset="1" stop-color="#446a22"/>
    </linearGradient>
    <linearGradient id="linear-gradient-2" x1="0.5" x2="0.5" y2="1.882" gradientUnits="objectBoundingBox">
      <stop offset="0" stop-color="#7d5c2c"/>
      <stop offset="1" stop-color="#3f2e16"/>
    </linearGradient>
    <linearGradient id="linear-gradient-3" y1="1" y2="-1.379" xlink:href="#linear-gradient-2"/>
    <linearGradient id="linear-gradient-4" x1="0.5" x2="0.5" y2="2.004" gradientUnits="objectBoundingBox">
      <stop offset="0" stop-color="#ac7f24"/>
      <stop offset="1" stop-color="#564012"/>
    </linearGradient>
    <linearGradient id="linear-gradient-5" x1="0.5" y1="1.556" x2="0.5" y2="-1.442" gradientUnits="objectBoundingBox">
      <stop offset="0" stop-color="#aa7d23"/>
      <stop offset="0.352" stop-color="#9e7421"/>
      <stop offset="1" stop-color="#553f12"/>
    </linearGradient>
    <linearGradient id="linear-gradient-6" x1="0.5" x2="0.5" y2="4.498" gradientUnits="objectBoundingBox">
      <stop offset="0" stop-color="#3a5914"/>
      <stop offset="1" stop-color="#0c1204"/>
    </linearGradient>
    <linearGradient id="linear-gradient-7" x1="0.5" x2="0.5" y2="2.145" gradientUnits="objectBoundingBox">
      <stop offset="0" stop-color="#84ded6"/>
      <stop offset="1" stop-color="#426f6b"/>
    </linearGradient>
    <linearGradient id="linear-gradient-8" x1="0.5" x2="0.5" y2="3.178" gradientUnits="objectBoundingBox">
      <stop offset="0" stop-color="#b08d5d"/>
      <stop offset="1" stop-color="#58472f"/>
    </linearGradient>
    <linearGradient id="linear-gradient-9" x1="0.5" x2="0.5" y2="2.162" gradientUnits="objectBoundingBox">
      <stop offset="0" stop-color="#2d6f6a"/>
      <stop offset="1" stop-color="#173835"/>
    </linearGradient>
    <linearGradient id="linear-gradient-10" y2="2.638" xlink:href="#linear-gradient-4"/>
    <filter id="Ellipse_2" x="979" y="293" width="80" height="80" filterUnits="userSpaceOnUse">
      <feOffset dy="3" input="SourceAlpha"/>
      <feGaussianBlur stdDeviation="3" result="blur"/>
      <feFlood flood-opacity="0.161"/>
      <feComposite operator="in" in2="blur"/>
      <feComposite in="SourceGraphic"/>
    </filter>
    <filter id="Ellipse_3" x="1085" y="293" width="80" height="80" filterUnits="userSpaceOnUse">
      <feOffset dy="3" input="SourceAlpha"/>
      <feGaussianBlur stdDeviation="3" result="blur-2"/>
      <feFlood flood-opacity="0.161"/>
      <feComposite operator="in" in2="blur-2"/>
      <feComposite in="SourceGraphic"/>
    </filter>
    <linearGradient id="linear-gradient-11" x1="0.5" y1="0.19" x2="0.5" y2="-2.715" gradientUnits="objectBoundingBox">
      <stop offset="0" stop-color="#c3a579"/>
      <stop offset="0.537" stop-color="#857153"/>
      <stop offset="1" stop-color="#62533d"/>
    </linearGradient>
    <filter id="Path_19" x="1156" y="464.25" width="48.155" height="48.155" filterUnits="userSpaceOnUse">
      <feOffset dy="1" input="SourceAlpha"/>
      <feGaussianBlur stdDeviation="3" result="blur-3"/>
      <feFlood flood-opacity="0.161"/>
      <feComposite operator="in" in2="blur-3"/>
      <feComposite in="SourceGraphic"/>
    </filter>
    <clipPath id="clip-Buttons_checkboxes">
      <rect width="1280" height="800"/>
    </clipPath>
  </defs>
  <g id="Buttons_checkboxes" data-name="Buttons/checkboxes" clip-path="url(#clip-Buttons_checkboxes)">
    <rect width="1280" height="800" fill="#eaeaea"/>
    <g id="light_green_button" data-name="light green button" transform="translate(-40 -27)">
      <rect id="Rectangle_9" data-name="Rectangle 9" width="349" height="119" rx="59.5" transform="translate(93 107)" fill="url(#linear-gradient)"/>
      <path id="button" d="M4.539-39.678h7.242q5.763,0,8.747,2.32A7.931,7.931,0,0,1,23.511-30.7a8.47,8.47,0,0,1-1.2,4.411,8.721,8.721,0,0,1-3.493,3.239,11.767,11.767,0,0,1,5.737,3.672,9.007,9.007,0,0,1,1.963,5.814A9.687,9.687,0,0,1,23.2-6.043,12.32,12.32,0,0,1,14.637-3.06H4.539Zm3.621,3.57v11.73h2.091q4.794,0,7.14-1.53A5.312,5.312,0,0,0,19.737-30.7q0-5.406-7.344-5.406Zm0,15.4V-6.63H12.7a15.757,15.757,0,0,0,5.789-.791,7,7,0,0,0,3.034-2.448,5.812,5.812,0,0,0,1.173-3.391,6.755,6.755,0,0,0-.663-3.06,6.909,6.909,0,0,0-1.964-2.346,8.878,8.878,0,0,0-3.111-1.53,29.339,29.339,0,0,0-6.758-.51ZM56.406-3.06H52.887V-7.905Q48.705-2.346,42.738-2.346A9.6,9.6,0,0,1,37.23-4a9.013,9.013,0,0,1-3.468-4.335,23.279,23.279,0,0,1-1.02-7.879V-30.141H36.21v12.9a30.783,30.783,0,0,0,.434,6.426,7.92,7.92,0,0,0,1.326,2.856,5.722,5.722,0,0,0,2.27,1.785,8.2,8.2,0,0,0,3.34.612,8.342,8.342,0,0,0,3.851-.969,9.43,9.43,0,0,0,3.213-2.7,9.791,9.791,0,0,0,1.785-3.57,37.482,37.482,0,0,0,.459-7.395v-9.945h3.519ZM70.737-7.344q0,1.377.357,1.632a3.926,3.926,0,0,0,1.836.255h2.091V-2.5a21.784,21.784,0,0,1-3.366.357,4.467,4.467,0,0,1-3.366-1.122,4.953,4.953,0,0,1-1.071-3.519v-20.4H62.424v-2.958h4.794V-40.6h3.519v10.455h5.508v2.958H70.737Zm17.289,0q0,1.377.357,1.632a3.926,3.926,0,0,0,1.836.255H92.31V-2.5a21.784,21.784,0,0,1-3.366.357,4.467,4.467,0,0,1-3.366-1.122,4.953,4.953,0,0,1-1.071-3.519v-20.4H79.713v-2.958h4.794V-40.6h3.519v10.455h5.508v2.958H88.026Zm9.435-9.078a14.122,14.122,0,0,1,4.105-10.2,13.4,13.4,0,0,1,10-4.233,13.4,13.4,0,0,1,10,4.233,14.061,14.061,0,0,1,4.105,10.149A14.067,14.067,0,0,1,121.609-6.35a13.363,13.363,0,0,1-10.021,4.208A13.445,13.445,0,0,1,101.541-6.35,13.959,13.959,0,0,1,97.461-16.422Zm24.684.051a10.894,10.894,0,0,0-3.137-7.778,9.946,9.946,0,0,0-7.446-3.289,9.866,9.866,0,0,0-7.421,3.289,11,11,0,0,0-3.111,7.829,10.757,10.757,0,0,0,3.009,7.7,9.9,9.9,0,0,0,7.472,3.162,10.1,10.1,0,0,0,7.548-3.187A10.7,10.7,0,0,0,122.145-16.371Zm10-13.77h3.519V-25.3q4.182-5.559,10.149-5.559a9.6,9.6,0,0,1,5.508,1.658,9.013,9.013,0,0,1,3.468,4.335,23.279,23.279,0,0,1,1.02,7.88V-3.06h-3.468v-12.9a30.783,30.783,0,0,0-.434-6.426,7.92,7.92,0,0,0-1.326-2.856,5.722,5.722,0,0,0-2.27-1.785,8.2,8.2,0,0,0-3.34-.612,8.341,8.341,0,0,0-3.85.969,9.43,9.43,0,0,0-3.213,2.7,9.791,9.791,0,0,0-1.785,3.57,37.482,37.482,0,0,0-.459,7.395V-3.06h-3.519Z" transform="translate(188 185)" fill="#fff"/>
    </g>
    <g id="dark_brown_button" data-name="dark brown button">
      <rect id="Rectangle_9-2" data-name="Rectangle 9" width="349" height="119" rx="59.5" transform="translate(53 428)" fill="url(#linear-gradient-2)"/>
      <rect id="Rectangle_10" data-name="Rectangle 10" width="325" height="96" rx="48" transform="translate(65 439)" fill="url(#linear-gradient-3)"/>
      <path id="button-2" data-name="button" d="M4.539-39.678h7.242q5.763,0,8.747,2.32A7.931,7.931,0,0,1,23.511-30.7a8.47,8.47,0,0,1-1.2,4.411,8.721,8.721,0,0,1-3.493,3.239,11.767,11.767,0,0,1,5.737,3.672,9.007,9.007,0,0,1,1.963,5.814A9.687,9.687,0,0,1,23.2-6.043,12.32,12.32,0,0,1,14.637-3.06H4.539Zm3.621,3.57v11.73h2.091q4.794,0,7.14-1.53A5.312,5.312,0,0,0,19.737-30.7q0-5.406-7.344-5.406Zm0,15.4V-6.63H12.7a15.757,15.757,0,0,0,5.789-.791,7,7,0,0,0,3.034-2.448,5.812,5.812,0,0,0,1.173-3.391,6.755,6.755,0,0,0-.663-3.06,6.909,6.909,0,0,0-1.964-2.346,8.878,8.878,0,0,0-3.111-1.53,29.339,29.339,0,0,0-6.758-.51ZM56.406-3.06H52.887V-7.905Q48.705-2.346,42.738-2.346A9.6,9.6,0,0,1,37.23-4a9.013,9.013,0,0,1-3.468-4.335,23.279,23.279,0,0,1-1.02-7.879V-30.141H36.21v12.9a30.783,30.783,0,0,0,.434,6.426,7.92,7.92,0,0,0,1.326,2.856,5.722,5.722,0,0,0,2.27,1.785,8.2,8.2,0,0,0,3.34.612,8.342,8.342,0,0,0,3.851-.969,9.43,9.43,0,0,0,3.213-2.7,9.791,9.791,0,0,0,1.785-3.57,37.482,37.482,0,0,0,.459-7.395v-9.945h3.519ZM70.737-7.344q0,1.377.357,1.632a3.926,3.926,0,0,0,1.836.255h2.091V-2.5a21.784,21.784,0,0,1-3.366.357,4.467,4.467,0,0,1-3.366-1.122,4.953,4.953,0,0,1-1.071-3.519v-20.4H62.424v-2.958h4.794V-40.6h3.519v10.455h5.508v2.958H70.737Zm17.289,0q0,1.377.357,1.632a3.926,3.926,0,0,0,1.836.255H92.31V-2.5a21.784,21.784,0,0,1-3.366.357,4.467,4.467,0,0,1-3.366-1.122,4.953,4.953,0,0,1-1.071-3.519v-20.4H79.713v-2.958h4.794V-40.6h3.519v10.455h5.508v2.958H88.026Zm9.435-9.078a14.122,14.122,0,0,1,4.105-10.2,13.4,13.4,0,0,1,10-4.233,13.4,13.4,0,0,1,10,4.233,14.061,14.061,0,0,1,4.105,10.149A14.067,14.067,0,0,1,121.609-6.35a13.363,13.363,0,0,1-10.021,4.208A13.445,13.445,0,0,1,101.541-6.35,13.959,13.959,0,0,1,97.461-16.422Zm24.684.051a10.894,10.894,0,0,0-3.137-7.778,9.946,9.946,0,0,0-7.446-3.289,9.866,9.866,0,0,0-7.421,3.289,11,11,0,0,0-3.111,7.829,10.757,10.757,0,0,0,3.009,7.7,9.9,9.9,0,0,0,7.472,3.162,10.1,10.1,0,0,0,7.548-3.187A10.7,10.7,0,0,0,122.145-16.371Zm10-13.77h3.519V-25.3q4.182-5.559,10.149-5.559a9.6,9.6,0,0,1,5.508,1.658,9.013,9.013,0,0,1,3.468,4.335,23.279,23.279,0,0,1,1.02,7.88V-3.06h-3.468v-12.9a30.783,30.783,0,0,0-.434-6.426,7.92,7.92,0,0,0-1.326-2.856,5.722,5.722,0,0,0-2.27-1.785,8.2,8.2,0,0,0-3.34-.612,8.341,8.341,0,0,0-3.85.969,9.43,9.43,0,0,0-3.213,2.7,9.791,9.791,0,0,0-1.785,3.57,37.482,37.482,0,0,0-.459,7.395V-3.06h-3.519Z" transform="translate(148 506)" fill="#fff"/>
    </g>
    <g id="mid_brown_button" data-name="mid brown button" transform="translate(-38)">
      <path id="button_shape" data-name="button shape" d="M59.5,0h230a59.5,59.5,0,0,1,0,119H59.5a59.5,59.5,0,0,1,0-119Z" transform="translate(91 602)" fill="url(#linear-gradient-4)"/>
      <rect id="Rectangle_11" data-name="Rectangle 11" width="325" height="96" rx="48" transform="translate(103 614)" fill="url(#linear-gradient-5)"/>
      <path id="button-3" data-name="button" d="M4.539-39.678h7.242q5.763,0,8.747,2.32A7.931,7.931,0,0,1,23.511-30.7a8.47,8.47,0,0,1-1.2,4.411,8.721,8.721,0,0,1-3.493,3.239,11.767,11.767,0,0,1,5.737,3.672,9.007,9.007,0,0,1,1.963,5.814A9.687,9.687,0,0,1,23.2-6.043,12.32,12.32,0,0,1,14.637-3.06H4.539Zm3.621,3.57v11.73h2.091q4.794,0,7.14-1.53A5.312,5.312,0,0,0,19.737-30.7q0-5.406-7.344-5.406Zm0,15.4V-6.63H12.7a15.757,15.757,0,0,0,5.789-.791,7,7,0,0,0,3.034-2.448,5.812,5.812,0,0,0,1.173-3.391,6.755,6.755,0,0,0-.663-3.06,6.909,6.909,0,0,0-1.964-2.346,8.878,8.878,0,0,0-3.111-1.53,29.339,29.339,0,0,0-6.758-.51ZM56.406-3.06H52.887V-7.905Q48.705-2.346,42.738-2.346A9.6,9.6,0,0,1,37.23-4a9.013,9.013,0,0,1-3.468-4.335,23.279,23.279,0,0,1-1.02-7.879V-30.141H36.21v12.9a30.783,30.783,0,0,0,.434,6.426,7.92,7.92,0,0,0,1.326,2.856,5.722,5.722,0,0,0,2.27,1.785,8.2,8.2,0,0,0,3.34.612,8.342,8.342,0,0,0,3.851-.969,9.43,9.43,0,0,0,3.213-2.7,9.791,9.791,0,0,0,1.785-3.57,37.482,37.482,0,0,0,.459-7.395v-9.945h3.519ZM70.737-7.344q0,1.377.357,1.632a3.926,3.926,0,0,0,1.836.255h2.091V-2.5a21.784,21.784,0,0,1-3.366.357,4.467,4.467,0,0,1-3.366-1.122,4.953,4.953,0,0,1-1.071-3.519v-20.4H62.424v-2.958h4.794V-40.6h3.519v10.455h5.508v2.958H70.737Zm17.289,0q0,1.377.357,1.632a3.926,3.926,0,0,0,1.836.255H92.31V-2.5a21.784,21.784,0,0,1-3.366.357,4.467,4.467,0,0,1-3.366-1.122,4.953,4.953,0,0,1-1.071-3.519v-20.4H79.713v-2.958h4.794V-40.6h3.519v10.455h5.508v2.958H88.026Zm9.435-9.078a14.122,14.122,0,0,1,4.105-10.2,13.4,13.4,0,0,1,10-4.233,13.4,13.4,0,0,1,10,4.233,14.061,14.061,0,0,1,4.105,10.149A14.067,14.067,0,0,1,121.609-6.35a13.363,13.363,0,0,1-10.021,4.208A13.445,13.445,0,0,1,101.541-6.35,13.959,13.959,0,0,1,97.461-16.422Zm24.684.051a10.894,10.894,0,0,0-3.137-7.778,9.946,9.946,0,0,0-7.446-3.289,9.866,9.866,0,0,0-7.421,3.289,11,11,0,0,0-3.111,7.829,10.757,10.757,0,0,0,3.009,7.7,9.9,9.9,0,0,0,7.472,3.162,10.1,10.1,0,0,0,7.548-3.187A10.7,10.7,0,0,0,122.145-16.371Zm10-13.77h3.519V-25.3q4.182-5.559,10.149-5.559a9.6,9.6,0,0,1,5.508,1.658,9.013,9.013,0,0,1,3.468,4.335,23.279,23.279,0,0,1,1.02,7.88V-3.06h-3.468v-12.9a30.783,30.783,0,0,0-.434-6.426,7.92,7.92,0,0,0-1.326-2.856,5.722,5.722,0,0,0-2.27-1.785,8.2,8.2,0,0,0-3.34-.612,8.341,8.341,0,0,0-3.85.969,9.43,9.43,0,0,0-3.213,2.7,9.791,9.791,0,0,0-1.785,3.57,37.482,37.482,0,0,0-.459,7.395V-3.06h-3.519Z" transform="translate(186 681)" fill="#fff"/>
    </g>
    <g id="dark_green_button" data-name="dark green button" transform="translate(-40 147)">
      <rect id="Rectangle_9-3" data-name="Rectangle 9" width="349" height="119" rx="59.5" transform="translate(93 107)" fill="url(#linear-gradient-6)"/>
      <path id="button-4" data-name="button" d="M4.539-39.678h7.242q5.763,0,8.747,2.32A7.931,7.931,0,0,1,23.511-30.7a8.47,8.47,0,0,1-1.2,4.411,8.721,8.721,0,0,1-3.493,3.239,11.767,11.767,0,0,1,5.737,3.672,9.007,9.007,0,0,1,1.963,5.814A9.687,9.687,0,0,1,23.2-6.043,12.32,12.32,0,0,1,14.637-3.06H4.539Zm3.621,3.57v11.73h2.091q4.794,0,7.14-1.53A5.312,5.312,0,0,0,19.737-30.7q0-5.406-7.344-5.406Zm0,15.4V-6.63H12.7a15.757,15.757,0,0,0,5.789-.791,7,7,0,0,0,3.034-2.448,5.812,5.812,0,0,0,1.173-3.391,6.755,6.755,0,0,0-.663-3.06,6.909,6.909,0,0,0-1.964-2.346,8.878,8.878,0,0,0-3.111-1.53,29.339,29.339,0,0,0-6.758-.51ZM56.406-3.06H52.887V-7.905Q48.705-2.346,42.738-2.346A9.6,9.6,0,0,1,37.23-4a9.013,9.013,0,0,1-3.468-4.335,23.279,23.279,0,0,1-1.02-7.879V-30.141H36.21v12.9a30.783,30.783,0,0,0,.434,6.426,7.92,7.92,0,0,0,1.326,2.856,5.722,5.722,0,0,0,2.27,1.785,8.2,8.2,0,0,0,3.34.612,8.342,8.342,0,0,0,3.851-.969,9.43,9.43,0,0,0,3.213-2.7,9.791,9.791,0,0,0,1.785-3.57,37.482,37.482,0,0,0,.459-7.395v-9.945h3.519ZM70.737-7.344q0,1.377.357,1.632a3.926,3.926,0,0,0,1.836.255h2.091V-2.5a21.784,21.784,0,0,1-3.366.357,4.467,4.467,0,0,1-3.366-1.122,4.953,4.953,0,0,1-1.071-3.519v-20.4H62.424v-2.958h4.794V-40.6h3.519v10.455h5.508v2.958H70.737Zm17.289,0q0,1.377.357,1.632a3.926,3.926,0,0,0,1.836.255H92.31V-2.5a21.784,21.784,0,0,1-3.366.357,4.467,4.467,0,0,1-3.366-1.122,4.953,4.953,0,0,1-1.071-3.519v-20.4H79.713v-2.958h4.794V-40.6h3.519v10.455h5.508v2.958H88.026Zm9.435-9.078a14.122,14.122,0,0,1,4.105-10.2,13.4,13.4,0,0,1,10-4.233,13.4,13.4,0,0,1,10,4.233,14.061,14.061,0,0,1,4.105,10.149A14.067,14.067,0,0,1,121.609-6.35a13.363,13.363,0,0,1-10.021,4.208A13.445,13.445,0,0,1,101.541-6.35,13.959,13.959,0,0,1,97.461-16.422Zm24.684.051a10.894,10.894,0,0,0-3.137-7.778,9.946,9.946,0,0,0-7.446-3.289,9.866,9.866,0,0,0-7.421,3.289,11,11,0,0,0-3.111,7.829,10.757,10.757,0,0,0,3.009,7.7,9.9,9.9,0,0,0,7.472,3.162,10.1,10.1,0,0,0,7.548-3.187A10.7,10.7,0,0,0,122.145-16.371Zm10-13.77h3.519V-25.3q4.182-5.559,10.149-5.559a9.6,9.6,0,0,1,5.508,1.658,9.013,9.013,0,0,1,3.468,4.335,23.279,23.279,0,0,1,1.02,7.88V-3.06h-3.468v-12.9a30.783,30.783,0,0,0-.434-6.426,7.92,7.92,0,0,0-1.326-2.856,5.722,5.722,0,0,0-2.27-1.785,8.2,8.2,0,0,0-3.34-.612,8.341,8.341,0,0,0-3.85.969,9.43,9.43,0,0,0-3.213,2.7,9.791,9.791,0,0,0-1.785,3.57,37.482,37.482,0,0,0-.459,7.395V-3.06h-3.519Z" transform="translate(188 185)" fill="#fff"/>
    </g>
    <g id="light_blue_button" data-name="light blue button" transform="translate(365 -27)">
      <rect id="Rectangle_9-4" data-name="Rectangle 9" width="349" height="119" rx="59.5" transform="translate(93 107)" fill="url(#linear-gradient-7)"/>
      <path id="button-5" data-name="button" d="M4.539-39.678h7.242q5.763,0,8.747,2.32A7.931,7.931,0,0,1,23.511-30.7a8.47,8.47,0,0,1-1.2,4.411,8.721,8.721,0,0,1-3.493,3.239,11.767,11.767,0,0,1,5.737,3.672,9.007,9.007,0,0,1,1.963,5.814A9.687,9.687,0,0,1,23.2-6.043,12.32,12.32,0,0,1,14.637-3.06H4.539Zm3.621,3.57v11.73h2.091q4.794,0,7.14-1.53A5.312,5.312,0,0,0,19.737-30.7q0-5.406-7.344-5.406Zm0,15.4V-6.63H12.7a15.757,15.757,0,0,0,5.789-.791,7,7,0,0,0,3.034-2.448,5.812,5.812,0,0,0,1.173-3.391,6.755,6.755,0,0,0-.663-3.06,6.909,6.909,0,0,0-1.964-2.346,8.878,8.878,0,0,0-3.111-1.53,29.339,29.339,0,0,0-6.758-.51ZM56.406-3.06H52.887V-7.905Q48.705-2.346,42.738-2.346A9.6,9.6,0,0,1,37.23-4a9.013,9.013,0,0,1-3.468-4.335,23.279,23.279,0,0,1-1.02-7.879V-30.141H36.21v12.9a30.783,30.783,0,0,0,.434,6.426,7.92,7.92,0,0,0,1.326,2.856,5.722,5.722,0,0,0,2.27,1.785,8.2,8.2,0,0,0,3.34.612,8.342,8.342,0,0,0,3.851-.969,9.43,9.43,0,0,0,3.213-2.7,9.791,9.791,0,0,0,1.785-3.57,37.482,37.482,0,0,0,.459-7.395v-9.945h3.519ZM70.737-7.344q0,1.377.357,1.632a3.926,3.926,0,0,0,1.836.255h2.091V-2.5a21.784,21.784,0,0,1-3.366.357,4.467,4.467,0,0,1-3.366-1.122,4.953,4.953,0,0,1-1.071-3.519v-20.4H62.424v-2.958h4.794V-40.6h3.519v10.455h5.508v2.958H70.737Zm17.289,0q0,1.377.357,1.632a3.926,3.926,0,0,0,1.836.255H92.31V-2.5a21.784,21.784,0,0,1-3.366.357,4.467,4.467,0,0,1-3.366-1.122,4.953,4.953,0,0,1-1.071-3.519v-20.4H79.713v-2.958h4.794V-40.6h3.519v10.455h5.508v2.958H88.026Zm9.435-9.078a14.122,14.122,0,0,1,4.105-10.2,13.4,13.4,0,0,1,10-4.233,13.4,13.4,0,0,1,10,4.233,14.061,14.061,0,0,1,4.105,10.149A14.067,14.067,0,0,1,121.609-6.35a13.363,13.363,0,0,1-10.021,4.208A13.445,13.445,0,0,1,101.541-6.35,13.959,13.959,0,0,1,97.461-16.422Zm24.684.051a10.894,10.894,0,0,0-3.137-7.778,9.946,9.946,0,0,0-7.446-3.289,9.866,9.866,0,0,0-7.421,3.289,11,11,0,0,0-3.111,7.829,10.757,10.757,0,0,0,3.009,7.7,9.9,9.9,0,0,0,7.472,3.162,10.1,10.1,0,0,0,7.548-3.187A10.7,10.7,0,0,0,122.145-16.371Zm10-13.77h3.519V-25.3q4.182-5.559,10.149-5.559a9.6,9.6,0,0,1,5.508,1.658,9.013,9.013,0,0,1,3.468,4.335,23.279,23.279,0,0,1,1.02,7.88V-3.06h-3.468v-12.9a30.783,30.783,0,0,0-.434-6.426,7.92,7.92,0,0,0-1.326-2.856,5.722,5.722,0,0,0-2.27-1.785,8.2,8.2,0,0,0-3.34-.612,8.341,8.341,0,0,0-3.85.969,9.43,9.43,0,0,0-3.213,2.7,9.791,9.791,0,0,0-1.785,3.57,37.482,37.482,0,0,0-.459,7.395V-3.06h-3.519Z" transform="translate(188 185)" fill="#fff"/>
    </g>
    <g id="light_brown_button" data-name="light brown button" transform="translate(365 321)">
      <rect id="Rectangle_9-5" data-name="Rectangle 9" width="349" height="119" rx="59.5" transform="translate(93 107)" fill="url(#linear-gradient-8)"/>
      <path id="button-6" data-name="button" d="M4.539-39.678h7.242q5.763,0,8.747,2.32A7.931,7.931,0,0,1,23.511-30.7a8.47,8.47,0,0,1-1.2,4.411,8.721,8.721,0,0,1-3.493,3.239,11.767,11.767,0,0,1,5.737,3.672,9.007,9.007,0,0,1,1.963,5.814A9.687,9.687,0,0,1,23.2-6.043,12.32,12.32,0,0,1,14.637-3.06H4.539Zm3.621,3.57v11.73h2.091q4.794,0,7.14-1.53A5.312,5.312,0,0,0,19.737-30.7q0-5.406-7.344-5.406Zm0,15.4V-6.63H12.7a15.757,15.757,0,0,0,5.789-.791,7,7,0,0,0,3.034-2.448,5.812,5.812,0,0,0,1.173-3.391,6.755,6.755,0,0,0-.663-3.06,6.909,6.909,0,0,0-1.964-2.346,8.878,8.878,0,0,0-3.111-1.53,29.339,29.339,0,0,0-6.758-.51ZM56.406-3.06H52.887V-7.905Q48.705-2.346,42.738-2.346A9.6,9.6,0,0,1,37.23-4a9.013,9.013,0,0,1-3.468-4.335,23.279,23.279,0,0,1-1.02-7.879V-30.141H36.21v12.9a30.783,30.783,0,0,0,.434,6.426,7.92,7.92,0,0,0,1.326,2.856,5.722,5.722,0,0,0,2.27,1.785,8.2,8.2,0,0,0,3.34.612,8.342,8.342,0,0,0,3.851-.969,9.43,9.43,0,0,0,3.213-2.7,9.791,9.791,0,0,0,1.785-3.57,37.482,37.482,0,0,0,.459-7.395v-9.945h3.519ZM70.737-7.344q0,1.377.357,1.632a3.926,3.926,0,0,0,1.836.255h2.091V-2.5a21.784,21.784,0,0,1-3.366.357,4.467,4.467,0,0,1-3.366-1.122,4.953,4.953,0,0,1-1.071-3.519v-20.4H62.424v-2.958h4.794V-40.6h3.519v10.455h5.508v2.958H70.737Zm17.289,0q0,1.377.357,1.632a3.926,3.926,0,0,0,1.836.255H92.31V-2.5a21.784,21.784,0,0,1-3.366.357,4.467,4.467,0,0,1-3.366-1.122,4.953,4.953,0,0,1-1.071-3.519v-20.4H79.713v-2.958h4.794V-40.6h3.519v10.455h5.508v2.958H88.026Zm9.435-9.078a14.122,14.122,0,0,1,4.105-10.2,13.4,13.4,0,0,1,10-4.233,13.4,13.4,0,0,1,10,4.233,14.061,14.061,0,0,1,4.105,10.149A14.067,14.067,0,0,1,121.609-6.35a13.363,13.363,0,0,1-10.021,4.208A13.445,13.445,0,0,1,101.541-6.35,13.959,13.959,0,0,1,97.461-16.422Zm24.684.051a10.894,10.894,0,0,0-3.137-7.778,9.946,9.946,0,0,0-7.446-3.289,9.866,9.866,0,0,0-7.421,3.289,11,11,0,0,0-3.111,7.829,10.757,10.757,0,0,0,3.009,7.7,9.9,9.9,0,0,0,7.472,3.162,10.1,10.1,0,0,0,7.548-3.187A10.7,10.7,0,0,0,122.145-16.371Zm10-13.77h3.519V-25.3q4.182-5.559,10.149-5.559a9.6,9.6,0,0,1,5.508,1.658,9.013,9.013,0,0,1,3.468,4.335,23.279,23.279,0,0,1,1.02,7.88V-3.06h-3.468v-12.9a30.783,30.783,0,0,0-.434-6.426,7.92,7.92,0,0,0-1.326-2.856,5.722,5.722,0,0,0-2.27-1.785,8.2,8.2,0,0,0-3.34-.612,8.341,8.341,0,0,0-3.85.969,9.43,9.43,0,0,0-3.213,2.7,9.791,9.791,0,0,0-1.785,3.57,37.482,37.482,0,0,0-.459,7.395V-3.06h-3.519Z" transform="translate(188 185)" fill="#fff"/>
    </g>
    <g id="dark_blue_button" data-name="dark blue button" transform="translate(365 147)">
      <rect id="Rectangle_9-6" data-name="Rectangle 9" width="349" height="119" rx="59.5" transform="translate(93 107)" fill="url(#linear-gradient-9)"/>
      <path id="button-7" data-name="button" d="M4.539-39.678h7.242q5.763,0,8.747,2.32A7.931,7.931,0,0,1,23.511-30.7a8.47,8.47,0,0,1-1.2,4.411,8.721,8.721,0,0,1-3.493,3.239,11.767,11.767,0,0,1,5.737,3.672,9.007,9.007,0,0,1,1.963,5.814A9.687,9.687,0,0,1,23.2-6.043,12.32,12.32,0,0,1,14.637-3.06H4.539Zm3.621,3.57v11.73h2.091q4.794,0,7.14-1.53A5.312,5.312,0,0,0,19.737-30.7q0-5.406-7.344-5.406Zm0,15.4V-6.63H12.7a15.757,15.757,0,0,0,5.789-.791,7,7,0,0,0,3.034-2.448,5.812,5.812,0,0,0,1.173-3.391,6.755,6.755,0,0,0-.663-3.06,6.909,6.909,0,0,0-1.964-2.346,8.878,8.878,0,0,0-3.111-1.53,29.339,29.339,0,0,0-6.758-.51ZM56.406-3.06H52.887V-7.905Q48.705-2.346,42.738-2.346A9.6,9.6,0,0,1,37.23-4a9.013,9.013,0,0,1-3.468-4.335,23.279,23.279,0,0,1-1.02-7.879V-30.141H36.21v12.9a30.783,30.783,0,0,0,.434,6.426,7.92,7.92,0,0,0,1.326,2.856,5.722,5.722,0,0,0,2.27,1.785,8.2,8.2,0,0,0,3.34.612,8.342,8.342,0,0,0,3.851-.969,9.43,9.43,0,0,0,3.213-2.7,9.791,9.791,0,0,0,1.785-3.57,37.482,37.482,0,0,0,.459-7.395v-9.945h3.519ZM70.737-7.344q0,1.377.357,1.632a3.926,3.926,0,0,0,1.836.255h2.091V-2.5a21.784,21.784,0,0,1-3.366.357,4.467,4.467,0,0,1-3.366-1.122,4.953,4.953,0,0,1-1.071-3.519v-20.4H62.424v-2.958h4.794V-40.6h3.519v10.455h5.508v2.958H70.737Zm17.289,0q0,1.377.357,1.632a3.926,3.926,0,0,0,1.836.255H92.31V-2.5a21.784,21.784,0,0,1-3.366.357,4.467,4.467,0,0,1-3.366-1.122,4.953,4.953,0,0,1-1.071-3.519v-20.4H79.713v-2.958h4.794V-40.6h3.519v10.455h5.508v2.958H88.026Zm9.435-9.078a14.122,14.122,0,0,1,4.105-10.2,13.4,13.4,0,0,1,10-4.233,13.4,13.4,0,0,1,10,4.233,14.061,14.061,0,0,1,4.105,10.149A14.067,14.067,0,0,1,121.609-6.35a13.363,13.363,0,0,1-10.021,4.208A13.445,13.445,0,0,1,101.541-6.35,13.959,13.959,0,0,1,97.461-16.422Zm24.684.051a10.894,10.894,0,0,0-3.137-7.778,9.946,9.946,0,0,0-7.446-3.289,9.866,9.866,0,0,0-7.421,3.289,11,11,0,0,0-3.111,7.829,10.757,10.757,0,0,0,3.009,7.7,9.9,9.9,0,0,0,7.472,3.162,10.1,10.1,0,0,0,7.548-3.187A10.7,10.7,0,0,0,122.145-16.371Zm10-13.77h3.519V-25.3q4.182-5.559,10.149-5.559a9.6,9.6,0,0,1,5.508,1.658,9.013,9.013,0,0,1,3.468,4.335,23.279,23.279,0,0,1,1.02,7.88V-3.06h-3.468v-12.9a30.783,30.783,0,0,0-.434-6.426,7.92,7.92,0,0,0-1.326-2.856,5.722,5.722,0,0,0-2.27-1.785,8.2,8.2,0,0,0-3.34-.612,8.341,8.341,0,0,0-3.85.969,9.43,9.43,0,0,0-3.213,2.7,9.791,9.791,0,0,0-1.785,3.57,37.482,37.482,0,0,0-.459,7.395V-3.06h-3.519Z" transform="translate(188 185)" fill="#fff"/>
    </g>
    <g id="inactive_button" data-name="inactive button" transform="translate(365 495)">
      <rect id="Rectangle_9-7" data-name="Rectangle 9" width="349" height="119" rx="59.5" transform="translate(93 107)" fill="#b08d5d"/>
      <path id="button-8" data-name="button" d="M4.539-39.678h7.242q5.763,0,8.747,2.32A7.931,7.931,0,0,1,23.511-30.7a8.47,8.47,0,0,1-1.2,4.411,8.721,8.721,0,0,1-3.493,3.239,11.767,11.767,0,0,1,5.737,3.672,9.007,9.007,0,0,1,1.963,5.814A9.687,9.687,0,0,1,23.2-6.043,12.32,12.32,0,0,1,14.637-3.06H4.539Zm3.621,3.57v11.73h2.091q4.794,0,7.14-1.53A5.312,5.312,0,0,0,19.737-30.7q0-5.406-7.344-5.406Zm0,15.4V-6.63H12.7a15.757,15.757,0,0,0,5.789-.791,7,7,0,0,0,3.034-2.448,5.812,5.812,0,0,0,1.173-3.391,6.755,6.755,0,0,0-.663-3.06,6.909,6.909,0,0,0-1.964-2.346,8.878,8.878,0,0,0-3.111-1.53,29.339,29.339,0,0,0-6.758-.51ZM56.406-3.06H52.887V-7.905Q48.705-2.346,42.738-2.346A9.6,9.6,0,0,1,37.23-4a9.013,9.013,0,0,1-3.468-4.335,23.279,23.279,0,0,1-1.02-7.879V-30.141H36.21v12.9a30.783,30.783,0,0,0,.434,6.426,7.92,7.92,0,0,0,1.326,2.856,5.722,5.722,0,0,0,2.27,1.785,8.2,8.2,0,0,0,3.34.612,8.342,8.342,0,0,0,3.851-.969,9.43,9.43,0,0,0,3.213-2.7,9.791,9.791,0,0,0,1.785-3.57,37.482,37.482,0,0,0,.459-7.395v-9.945h3.519ZM70.737-7.344q0,1.377.357,1.632a3.926,3.926,0,0,0,1.836.255h2.091V-2.5a21.784,21.784,0,0,1-3.366.357,4.467,4.467,0,0,1-3.366-1.122,4.953,4.953,0,0,1-1.071-3.519v-20.4H62.424v-2.958h4.794V-40.6h3.519v10.455h5.508v2.958H70.737Zm17.289,0q0,1.377.357,1.632a3.926,3.926,0,0,0,1.836.255H92.31V-2.5a21.784,21.784,0,0,1-3.366.357,4.467,4.467,0,0,1-3.366-1.122,4.953,4.953,0,0,1-1.071-3.519v-20.4H79.713v-2.958h4.794V-40.6h3.519v10.455h5.508v2.958H88.026Zm9.435-9.078a14.122,14.122,0,0,1,4.105-10.2,13.4,13.4,0,0,1,10-4.233,13.4,13.4,0,0,1,10,4.233,14.061,14.061,0,0,1,4.105,10.149A14.067,14.067,0,0,1,121.609-6.35a13.363,13.363,0,0,1-10.021,4.208A13.445,13.445,0,0,1,101.541-6.35,13.959,13.959,0,0,1,97.461-16.422Zm24.684.051a10.894,10.894,0,0,0-3.137-7.778,9.946,9.946,0,0,0-7.446-3.289,9.866,9.866,0,0,0-7.421,3.289,11,11,0,0,0-3.111,7.829,10.757,10.757,0,0,0,3.009,7.7,9.9,9.9,0,0,0,7.472,3.162,10.1,10.1,0,0,0,7.548-3.187A10.7,10.7,0,0,0,122.145-16.371Zm10-13.77h3.519V-25.3q4.182-5.559,10.149-5.559a9.6,9.6,0,0,1,5.508,1.658,9.013,9.013,0,0,1,3.468,4.335,23.279,23.279,0,0,1,1.02,7.88V-3.06h-3.468v-12.9a30.783,30.783,0,0,0-.434-6.426,7.92,7.92,0,0,0-1.326-2.856,5.722,5.722,0,0,0-2.27-1.785,8.2,8.2,0,0,0-3.34-.612,8.341,8.341,0,0,0-3.85.969,9.43,9.43,0,0,0-3.213,2.7,9.791,9.791,0,0,0-1.785,3.57,37.482,37.482,0,0,0-.459,7.395V-3.06h-3.519Z" transform="translate(188 185)" fill="#c3a579"/>
    </g>
    <g id="checkbox" transform="translate(1035.961 109)">
      <g id="Rectangle_13" data-name="Rectangle 13" transform="translate(0.04)" fill="#ac7f24" stroke="#ab7e2e" stroke-width="1">
        <rect width="72" height="72" rx="22" stroke="none"/>
        <rect x="0.5" y="0.5" width="71" height="71" rx="21.5" fill="none"/>
      </g>
      <g id="checkmark" transform="matrix(0.998, 0.07, -0.07, 0.998, 20.277, 23.387)">
        <line id="Line_1" data-name="Line 1" x2="13.404" y2="9.461" transform="translate(0 13.277)" fill="none" stroke="#fffaef" stroke-linecap="round" stroke-width="6"/>
        <g id="Group_21" data-name="Group 21" transform="translate(13.404)">
          <line id="Line_2" data-name="Line 2" x1="19.458" y2="22.739" fill="none" stroke="#fffaef" stroke-linecap="round" stroke-width="6"/>
        </g>
      </g>
      <rect id="empty_check_box" data-name="empty check box" width="72" height="72" rx="22" transform="translate(-111.96)" fill="#fffefc"/>
      <g id="x_check_box" data-name="x check box" transform="translate(112)">
        <g id="Rectangle_13-2" data-name="Rectangle 13" transform="translate(0.04)" fill="#ac7f24" stroke="#ab7e2e" stroke-width="1">
          <rect width="72" height="72" rx="22" stroke="none"/>
          <rect x="0.5" y="0.5" width="71" height="71" rx="21.5" fill="none"/>
        </g>
        <g id="X">
          <line id="Line_4" data-name="Line 4" x2="29.281" y2="29.305" transform="translate(21.399 21.348)" fill="none" stroke="#fffaef" stroke-linecap="round" stroke-width="6"/>
          <path id="Path_18" data-name="Path 18" d="M29.2,0,0,29.3" transform="translate(21.399 21.348)" fill="none" stroke="#fffaef" stroke-linecap="round" stroke-width="6"/>
        </g>
      </g>
    </g>
    <g id="ON_slider" data-name="ON slider" transform="translate(-10 10)">
      <path id="Path_38" data-name="Path 38" d="M37,0h67a37,37,0,0,1,0,74H37A37,37,0,0,1,37,0Z" transform="translate(924 283)" fill="#fffefc"/>
      <g transform="matrix(1, 0, 0, 1, 10, -10)" filter="url(#Ellipse_2)">
        <circle id="Ellipse_2-2" data-name="Ellipse 2" cx="31" cy="31" r="31" transform="translate(988 299)" fill="url(#linear-gradient-10)"/>
      </g>
      <path id="ON" d="M1.568-11.648a10.7,10.7,0,0,1,1.4-5.376A10.168,10.168,0,0,1,6.8-20.888a10.465,10.465,0,0,1,5.306-1.4A10.778,10.778,0,0,1,17.458-20.9a10.111,10.111,0,0,1,3.892,3.836,10.46,10.46,0,0,1,1.414,5.32,10.541,10.541,0,0,1-1.4,5.32,10.168,10.168,0,0,1-3.85,3.85,10.541,10.541,0,0,1-5.32,1.4A10.7,10.7,0,0,1,6.86-2.562,10.168,10.168,0,0,1,2.982-6.384,10.307,10.307,0,0,1,1.568-11.648Zm19.1-.084a8.277,8.277,0,0,0-2.506-6.1,8.248,8.248,0,0,0-6.034-2.492A8.049,8.049,0,0,0,6.09-17.822a8.456,8.456,0,0,0-2.422,6.1A8.284,8.284,0,0,0,6.16-5.628a8.2,8.2,0,0,0,6.02,2.492,8.251,8.251,0,0,0,6.006-2.436A8.275,8.275,0,0,0,20.664-11.732ZM26.8-1.68v-20.1h.448L40.6-6.384v-15.4h1.988v20.1H42.14l-13.272-15.2v15.2Z" transform="translate(942 333)" fill="#ab7e2e"/>
    </g>
    <g id="OFF_slider" data-name="OFF slider" transform="translate(-10 10)">
      <rect id="Rectangle_15" data-name="Rectangle 15" width="141" height="74" rx="37" transform="translate(1098 283)" fill="#c3a579"/>
      <g transform="matrix(1, 0, 0, 1, 10, -10)" filter="url(#Ellipse_3)">
        <circle id="Ellipse_3-2" data-name="Ellipse 3" cx="31" cy="31" r="31" transform="translate(1094 299)" fill="#fffefc"/>
      </g>
      <path id="OFF" d="M1.568-11.648a10.7,10.7,0,0,1,1.4-5.376A10.168,10.168,0,0,1,6.8-20.888a10.465,10.465,0,0,1,5.306-1.4A10.778,10.778,0,0,1,17.458-20.9a10.111,10.111,0,0,1,3.892,3.836,10.46,10.46,0,0,1,1.414,5.32,10.541,10.541,0,0,1-1.4,5.32,10.168,10.168,0,0,1-3.85,3.85,10.541,10.541,0,0,1-5.32,1.4A10.7,10.7,0,0,1,6.86-2.562,10.168,10.168,0,0,1,2.982-6.384,10.307,10.307,0,0,1,1.568-11.648Zm19.1-.084a8.277,8.277,0,0,0-2.506-6.1,8.248,8.248,0,0,0-6.034-2.492A8.049,8.049,0,0,0,6.09-17.822a8.456,8.456,0,0,0-2.422,6.1A8.284,8.284,0,0,0,6.16-5.628a8.2,8.2,0,0,0,6.02,2.492,8.251,8.251,0,0,0,6.006-2.436A8.275,8.275,0,0,0,20.664-11.732Zm6.1-10.052h10.08V-19.8H28.784v6.272h8.064v1.988H28.784V-1.68H26.768Zm13.58,0h10.08V-19.8H42.364v6.272h8.064v1.988H42.364V-1.68H40.348Z" transform="translate(1175 333)" fill="#e8d9b7"/>
    </g>
    <g id="search_bar" data-name="search bar" transform="translate(-10 10)">
      <rect id="Rectangle_16" data-name="Rectangle 16" width="315" height="69" rx="34.5" transform="translate(924 449)" fill="url(#linear-gradient-11)"/>
      <g id="magnifying_glass" data-name="magnifying glass">
        <g transform="matrix(1, 0, 0, 1, 10, -10)" filter="url(#Path_19)">
          <g id="Path_19-2" data-name="Path 19" transform="translate(1165 472.25)" fill="none" stroke-linecap="round">
            <path d="M15.078,0A15.078,15.078,0,1,1,0,15.078,15.078,15.078,0,0,1,15.078,0Z" stroke="none"/>
            <path d="M 15.07758617401123 4.999996185302734 C 9.520786285400391 4.999996185302734 4.999996185302734 9.520786285400391 4.999996185302734 15.07758617401123 C 4.999996185302734 20.63438606262207 9.520786285400391 25.15517616271973 15.07758617401123 25.15517616271973 C 20.63438606262207 25.15517616271973 25.15517616271973 20.63438606262207 25.15517616271973 15.07758617401123 C 25.15517616271973 9.520786285400391 20.63438606262207 4.999996185302734 15.07758617401123 4.999996185302734 M 15.07758617401123 -3.814697265625e-06 C 23.40470504760742 -3.814697265625e-06 30.15517616271973 6.750465393066406 30.15517616271973 15.07758617401123 C 30.15517616271973 23.40470504760742 23.40470504760742 30.15517616271973 15.07758617401123 30.15517616271973 C 6.750465393066406 30.15517616271973 -3.814697265625e-06 23.40470504760742 -3.814697265625e-06 15.07758617401123 C -3.814697265625e-06 6.750465393066406 6.750465393066406 -3.814697265625e-06 15.07758617401123 -3.814697265625e-06 Z" stroke="none" fill="#fffefc"/>
          </g>
        </g>
        <path id="Path_20" data-name="Path 20" d="M0,0,11.63,11.987" transform="translate(1198.735 487.11)" fill="none" stroke="#fffefc" stroke-linecap="round" stroke-width="5"/>
      </g>
      <path id="search" d="M.364-5.432,2.072-6.44q1.792,3.3,4.172,3.3a3.8,3.8,0,0,0,2.632-.98A3.14,3.14,0,0,0,9.968-6.552a3.774,3.774,0,0,0-.924-2.324,16.942,16.942,0,0,0-3.066-2.786A24.637,24.637,0,0,1,3.094-14.07,5.305,5.305,0,0,1,2-15.778a5.074,5.074,0,0,1-.35-1.834A4.468,4.468,0,0,1,3.038-20.93a4.779,4.779,0,0,1,3.486-1.358,5.056,5.056,0,0,1,2.884.826,9.49,9.49,0,0,1,2.38,2.45l-1.624,1.26A10,10,0,0,0,8.54-19.516a3.107,3.107,0,0,0-2.058-.7,2.776,2.776,0,0,0-1.988.728,2.433,2.433,0,0,0-.77,1.848,2.951,2.951,0,0,0,.686,1.946,20.553,20.553,0,0,0,3.108,2.618,16.654,16.654,0,0,1,3.528,3.3A5.32,5.32,0,0,1,12.152-6.58a5.068,5.068,0,0,1-1.694,3.794,5.535,5.535,0,0,1-3.934,1.61Q2.576-1.176.364-5.432ZM28.588-6.5l1.624.84A7.668,7.668,0,0,1,23.1-1.176a7.3,7.3,0,0,1-5.544-2.31,7.8,7.8,0,0,1-2.184-5.558,7.824,7.824,0,0,1,2.2-5.572A7.178,7.178,0,0,1,23-16.94a7.454,7.454,0,0,1,5.432,2.156A8.132,8.132,0,0,1,30.716-8.9H17.332a6.2,6.2,0,0,0,1.694,4.326A5.273,5.273,0,0,0,22.932-2.94,6.047,6.047,0,0,0,28.588-6.5Zm0-4.06a5.224,5.224,0,0,0-1.96-3.332,5.768,5.768,0,0,0-3.612-1.2q-4.2,0-5.488,4.536Zm20.5-5.992V-1.68H47.208V-4.228a7.466,7.466,0,0,1-5.824,3.052,7.383,7.383,0,0,1-5.53-2.338A7.751,7.751,0,0,1,33.6-9.086a7.632,7.632,0,0,1,2.268-5.544A7.344,7.344,0,0,1,41.3-16.94a7,7,0,0,1,5.908,3.108v-2.716Zm-1.764,7.5a5.917,5.917,0,0,0-1.708-4.3,5.623,5.623,0,0,0-4.186-1.75,5.539,5.539,0,0,0-4.186,1.806,6.007,6.007,0,0,0-1.708,4.27,5.956,5.956,0,0,0,1.736,4.27A5.565,5.565,0,0,0,41.426-2.94a5.673,5.673,0,0,0,4.158-1.736A5.923,5.923,0,0,0,47.32-9.044Zm5.348-7.5h1.96v2.156a7.507,7.507,0,0,1,1.526-1.932,2.523,2.523,0,0,1,1.652-.616,3.805,3.805,0,0,1,1.834.5l-1.008,1.624a1.665,1.665,0,0,0-.868-.252,2.18,2.18,0,0,0-1.638.9,5.643,5.643,0,0,0-1.134,2.31,24.044,24.044,0,0,0-.364,5.138v5.04h-1.96Zm23.688,3.08-1.512.952a6.362,6.362,0,0,0-5.376-2.6A6.307,6.307,0,0,0,64.96-13.4a5.641,5.641,0,0,0-1.82,4.27A6,6,0,0,0,64.932-4.76a6.1,6.1,0,0,0,4.536,1.82,6.6,6.6,0,0,0,5.376-2.6l1.512,1.008a7.246,7.246,0,0,1-3.01,2.492,9.644,9.644,0,0,1-4.074.868,7.886,7.886,0,0,1-5.754-2.268,7.472,7.472,0,0,1-2.31-5.544A7.656,7.656,0,0,1,63.546-14.6a8.13,8.13,0,0,1,6.006-2.338,8.741,8.741,0,0,1,3.99.924A6.731,6.731,0,0,1,76.356-13.468Zm3.584-8.82h1.932v8.4a6.792,6.792,0,0,1,5.572-3.052,5.271,5.271,0,0,1,3.024.91,4.948,4.948,0,0,1,1.9,2.38,12.781,12.781,0,0,1,.56,4.326V-1.68H91V-8.764a23.492,23.492,0,0,0-.14-3.164,4.558,4.558,0,0,0-.616-1.652,3.125,3.125,0,0,0-1.274-1.19,4.221,4.221,0,0,0-1.932-.406,4.689,4.689,0,0,0-2.17.532A5.177,5.177,0,0,0,83.1-13.16a5.376,5.376,0,0,0-.98,1.96,20.578,20.578,0,0,0-.252,4.06v5.46H79.94Z" transform="translate(954 494)" fill="#e8d9b7"/>
    </g>
    <g id="sort_by_bar" data-name="sort by bar" transform="translate(-43.613 183.973)">
      <g id="search_bar-2" data-name="search bar" transform="translate(961 450.027)">
        <rect id="Rectangle_16-2" data-name="Rectangle 16" width="312" height="57" rx="17" transform="translate(-0.387 0)" fill="#fffefc"/>
      </g>
      <g id="back_arrow" data-name="back arrow" transform="translate(1233.96 485.426) rotate(-90)">
        <line id="Line_10" data-name="Line 10" y1="10.296" x2="9.401" transform="translate(0 0)" fill="none" stroke="#c3a579" stroke-linecap="round" stroke-width="5"/>
        <path id="Path_23" data-name="Path 23" d="M0,0,9.386,9.962" transform="translate(0.015 10.386)" fill="none" stroke="#c3a579" stroke-linecap="round" stroke-width="5"/>
      </g>
      <path id="Path_33" data-name="Path 33" d="M7.6-13.251a6.525,6.525,0,0,0-1.428-1.523A2.437,2.437,0,0,0,4.8-15.162a1.857,1.857,0,0,0-1.323.5,1.7,1.7,0,0,0-.536,1.292,2.048,2.048,0,0,0,.5,1.376,16.25,16.25,0,0,0,2.321,1.921A11.929,11.929,0,0,1,8.421-7.56a4.2,4.2,0,0,1,.84,2.478,3.943,3.943,0,0,1-1.313,2.95A4.294,4.294,0,0,1,4.893-.882Q1.827-.882.084-4.3l1.533-.882Q2.982-2.646,4.683-2.646a2.711,2.711,0,0,0,1.869-.693,2.108,2.108,0,0,0,.777-1.617,2.8,2.8,0,0,0-.651-1.753A12.694,12.694,0,0,0,4.431-8.747a19.94,19.94,0,0,1-2.194-1.838,4.06,4.06,0,0,1-.872-1.344,3.974,3.974,0,0,1-.273-1.428,3.528,3.528,0,0,1,1.06-2.594,3.709,3.709,0,0,1,2.741-1.06,3.916,3.916,0,0,1,2.268.661,7.838,7.838,0,0,1,1.89,1.964ZM17.346-13a5.648,5.648,0,0,1,4.21,1.785A5.932,5.932,0,0,1,23.289-6.93a5.935,5.935,0,0,1-1.712,4.274A5.644,5.644,0,0,1,17.346-.882,5.678,5.678,0,0,1,13.1-2.656,5.916,5.916,0,0,1,11.382-6.93a5.932,5.932,0,0,1,1.733-4.284A5.672,5.672,0,0,1,17.346-13Zm0,10.458a3.982,3.982,0,0,0,2.972-1.271,4.251,4.251,0,0,0,1.229-3.066A4.356,4.356,0,0,0,20.3-9.985,3.954,3.954,0,0,0,17.335-11.3a3.921,3.921,0,0,0-2.95,1.312,4.388,4.388,0,0,0-1.239,3.118,4.287,4.287,0,0,0,1.2,3.066A3.969,3.969,0,0,0,17.346-2.541Zm13.146-10-.9,1.47a1.478,1.478,0,0,0-.693-.189,1.511,1.511,0,0,0-1.176.641,4.261,4.261,0,0,0-.788,1.68,17.81,17.81,0,0,0-.262,3.749V-1.26H24.906V-12.7H26.67v1.239a4.427,4.427,0,0,1,1.06-1.155A2.06,2.06,0,0,1,28.948-13,3.336,3.336,0,0,1,30.492-12.537Zm6.762,1.344H34.986v8.022q0,.441.126.535a1.271,1.271,0,0,0,.63.095H36.75V-1.05a10.14,10.14,0,0,1-1.533.168,2,2,0,0,1-1.491-.493,2.17,2.17,0,0,1-.483-1.565v-8.253H31.269V-12.7h1.974V-17.01h1.743V-12.7h2.268Zm8.9.168A5.578,5.578,0,0,1,50.442-13a5.62,5.62,0,0,1,4.21,1.775,5.935,5.935,0,0,1,1.711,4.273,5.914,5.914,0,0,1-1.743,4.284A5.67,5.67,0,0,1,50.41-.882a5.377,5.377,0,0,1-4.252-2.142V-1.26h-1.7V-17.01h1.7Zm4.179,8.463a4.019,4.019,0,0,0,3.035-1.323,4.367,4.367,0,0,0,1.25-3.1,4.427,4.427,0,0,0-1.218-3.1A3.967,3.967,0,0,0,50.358-11.4,4.13,4.13,0,0,0,47.3-10.164a4.247,4.247,0,0,0-1.228,3.118,4.443,4.443,0,0,0,1.239,3.181A4.015,4.015,0,0,0,50.337-2.562ZM68.439-12.7l-6.783,15.5H59.85l2.205-5.04L57.414-12.7H59.22l3.759,8.379L66.612-12.7Z" transform="translate(979.613 488.027)" fill="#c3a579"/>
    </g>
  </g>
</svg>
