<svg xmlns="http://www.w3.org/2000/svg" xmlns:xlink="http://www.w3.org/1999/xlink" width="600" height="600" viewBox="0 0 600 600">
  <defs>
    <clipPath id="clip-colour">
      <rect width="600" height="600"/>
    </clipPath>
  </defs>
  <g id="colour" clip-path="url(#clip-colour)">
    <rect width="600" height="600" fill="#1d126b"/>
    <path id="mountain_top_right" data-name="mountain top right" d="M156.142,437.193,202.418,420.3,188.269,467l47.776-37.052,28.123,28.647L278.88,420.3l39.993,9.643-80.947-84.3Z" transform="translate(292 -70)" fill="#52d239"/>
    <path id="mountain_top_left" data-name="mountain top left" d="M156.434,440.174l45.984-19.87L188.269,467l47.776-37.052,28.123,28.647L278.88,420.3l43.931,7.144-84.885-81.8Z" transform="translate(-106 -70)" fill="#52d239"/>
    <path id="mountain_detail_right" data-name="mountain detail right" d="M359.159,562.5,380,510.84l86,22.437H396.682Z" fill="#91fd31"/>
    <path id="mountain_detail_left" data-name="mountain detail left" d="M83.111,576.245l76.969-28.252,10.4,31.843,93.787-27.354-99.3,42.488L151.229,565.4Z" fill="#91fd31"/>
    <path id="right_shadow" data-name="right shadow" d="M276.441,347.875l79.512,286.28V581.4l-2.771-156.47Z" transform="matrix(1, 0.017, -0.017, 1, 255.169, -83.699)" opacity="0.509"/>
    <path id="left_shadow" data-name="left shadow" d="M418.941,342.575,285.6,619.168,487.369,408.2Z" transform="translate(-285.601 -64)" opacity="0.509"/>
    <path id="left_k" data-name="left k" d="M97.168,0H56.885q.488-14.648.854-64.453t.366-119.873q0-28.564-.366-66.162T56.885-326.9H97.168q-.488,37.354-.732,84.473t-.244,81.3q0,70.313.366,108.4T97.168,0Zm211.67-22.461L280.762,4.395q-58.35-56.641-112.549-105.713T106.2-157.471v-.977q15.137-15.137,64.819-66.65t99.243-105.469l27.588,24.658q-41.992,40.283-86.182,85.815t-55.664,57.251v.488q5.615,5.371,48.218,44.556T308.838-22.461Z" transform="translate(-29 124) rotate(90)" fill="#78ef0c"/>
    <g id="cloud_4" data-name="cloud 4" transform="translate(-45 2)" opacity="0.672">
      <path id="inner_B" data-name="inner B" d="M57.764-19.238a15.888,15.888,0,0,1-2.515,8.789,18.681,18.681,0,0,1-7.3,6.4,34.856,34.856,0,0,1-9.326,3.2A60.507,60.507,0,0,1,27,.146q-4.834,0-9.937-.171t-5.688-.22q.146-9.375.2-17.7t.049-15.894q0-14.355-.122-22.729t-.122-8.716q.684-.049,5.4-.244t9.155-.2a60.666,60.666,0,0,1,9.277.659,33.253,33.253,0,0,1,7.178,1.831,16,16,0,0,1,6.982,5.054A12.846,12.846,0,0,1,51.9-50.1a13.615,13.615,0,0,1-3.2,8.911,16.393,16.393,0,0,1-7.3,5.3v.488a22.373,22.373,0,0,1,6.543,1.587,16.71,16.71,0,0,1,5.566,3.687,14.564,14.564,0,0,1,3.174,4.639A16.059,16.059,0,0,1,57.764-19.238Zm-8.35.244a10.89,10.89,0,0,0-.879-4.468A13.072,13.072,0,0,0,45.9-27.246a11.993,11.993,0,0,0-4.565-2.686,18.874,18.874,0,0,0-6.323-1.025q-2.734,0-4.419.049t-2.222.049l-.781-5.859a26.951,26.951,0,0,0,6.372-.854,15.609,15.609,0,0,0,4.907-2.271,11.811,11.811,0,0,0,3.369-3.735,9.974,9.974,0,0,0,1.318-5.1,9,9,0,0,0-1.465-5.151,10.232,10.232,0,0,0-4-3.442,19.7,19.7,0,0,0-5.273-1.538,41.344,41.344,0,0,0-6.689-.513q-2.295,0-4.224.073t-2.466.073q-.146,7.129-.171,15.137t-.024,11.621q0,8.4.073,16.87t.073,9.058q.977.049,2.612.122t3.149.073a86.454,86.454,0,0,0,10.425-.586A22.033,22.033,0,0,0,43.7-9.326a11.139,11.139,0,0,0,4.224-3.955A10.752,10.752,0,0,0,49.414-18.994Z" transform="matrix(0, -1, 1, 0, 448.5, 109.5)" fill="#3683f6"/>
      <path id="inner_B-2" data-name="inner B" d="M57.764-19.238a15.888,15.888,0,0,1-2.515,8.789,18.681,18.681,0,0,1-7.3,6.4,34.856,34.856,0,0,1-9.326,3.2A60.507,60.507,0,0,1,27,.146q-4.834,0-9.937-.171t-5.688-.22q.146-9.375.2-17.7t.049-15.894q0-14.355-.122-22.729t-.122-8.716q.684-.049,5.4-.244t9.155-.2a60.666,60.666,0,0,1,9.277.659,33.253,33.253,0,0,1,7.178,1.831,16,16,0,0,1,6.982,5.054A12.846,12.846,0,0,1,51.9-50.1a13.615,13.615,0,0,1-3.2,8.911,16.393,16.393,0,0,1-7.3,5.3v.488a22.373,22.373,0,0,1,6.543,1.587,16.71,16.71,0,0,1,5.566,3.687,14.564,14.564,0,0,1,3.174,4.639A16.059,16.059,0,0,1,57.764-19.238Zm-8.35.244a10.89,10.89,0,0,0-.879-4.468A13.072,13.072,0,0,0,45.9-27.246a11.993,11.993,0,0,0-4.565-2.686,18.874,18.874,0,0,0-6.323-1.025q-2.734,0-4.419.049t-2.222.049l-.781-5.859a26.951,26.951,0,0,0,6.372-.854,15.609,15.609,0,0,0,4.907-2.271,11.811,11.811,0,0,0,3.369-3.735,9.974,9.974,0,0,0,1.318-5.1,9,9,0,0,0-1.465-5.151,10.232,10.232,0,0,0-4-3.442,19.7,19.7,0,0,0-5.273-1.538,41.344,41.344,0,0,0-6.689-.513q-2.295,0-4.224.073t-2.466.073q-.146,7.129-.171,15.137t-.024,11.621q0,8.4.073,16.87t.073,9.058q.977.049,2.612.122t3.149.073a86.454,86.454,0,0,0,10.425-.586A22.033,22.033,0,0,0,43.7-9.326a11.139,11.139,0,0,0,4.224-3.955A10.752,10.752,0,0,0,49.414-18.994Z" transform="matrix(0, -1, 1, 0, 512.5, 109.5)" fill="#3683f6"/>
      <path id="B_fill" data-name="B fill" d="M288.307,94.35h62.16s1.908-37-15.045-35.026-18.1,21.652-18.1,21.652S313.1,65.27,299.447,65.987,288.307,94.35,288.307,94.35Z" transform="translate(96.57 -2)" fill="#3683f6"/>
      <path id="B_fill-2" data-name="B fill" d="M288.3,92.35h58.618s1.8-34.889-14.188-33.03-17.073,20.418-17.073,20.418S311.675,64.927,298.8,65.6,288.3,92.35,288.3,92.35Z" transform="translate(162.697 -1)" fill="#3683f6"/>
    </g>
    <g id="cloud_6" data-name="cloud 6" transform="translate(133 2)" opacity="0.668">
      <path id="outer_B" data-name="outer B" d="M57.764-19.238a15.888,15.888,0,0,1-2.515,8.789,18.681,18.681,0,0,1-7.3,6.4,34.856,34.856,0,0,1-9.326,3.2A60.507,60.507,0,0,1,27,.146q-4.834,0-9.937-.171t-5.688-.22q.146-9.375.2-17.7t.049-15.894q0-14.355-.122-22.729t-.122-8.716q.684-.049,5.4-.244t9.155-.2a60.666,60.666,0,0,1,9.277.659,33.253,33.253,0,0,1,7.178,1.831,16,16,0,0,1,6.982,5.054A12.846,12.846,0,0,1,51.9-50.1a13.615,13.615,0,0,1-3.2,8.911,16.393,16.393,0,0,1-7.3,5.3v.488a22.373,22.373,0,0,1,6.543,1.587,16.71,16.71,0,0,1,5.566,3.687,14.564,14.564,0,0,1,3.174,4.639A16.059,16.059,0,0,1,57.764-19.238Zm-8.35.244a10.89,10.89,0,0,0-.879-4.468A13.072,13.072,0,0,0,45.9-27.246a11.993,11.993,0,0,0-4.565-2.686,18.874,18.874,0,0,0-6.323-1.025q-2.734,0-4.419.049t-2.222.049l-.781-5.859a26.951,26.951,0,0,0,6.372-.854,15.609,15.609,0,0,0,4.907-2.271,11.811,11.811,0,0,0,3.369-3.735,9.974,9.974,0,0,0,1.318-5.1,9,9,0,0,0-1.465-5.151,10.232,10.232,0,0,0-4-3.442,19.7,19.7,0,0,0-5.273-1.538,41.344,41.344,0,0,0-6.689-.513q-2.295,0-4.224.073t-2.466.073q-.146,7.129-.171,15.137t-.024,11.621q0,8.4.073,16.87t.073,9.058q.977.049,2.612.122t3.149.073a86.454,86.454,0,0,0,10.425-.586A22.033,22.033,0,0,0,43.7-9.326a11.139,11.139,0,0,0,4.224-3.955A10.752,10.752,0,0,0,49.414-18.994Z" transform="matrix(0, -1, 1, 0, 448.5, 109.5)" fill="#3275e6"/>
      <path id="outer_B-2" data-name="outer B" d="M57.764-19.238a15.888,15.888,0,0,1-2.515,8.789,18.681,18.681,0,0,1-7.3,6.4,34.856,34.856,0,0,1-9.326,3.2A60.507,60.507,0,0,1,27,.146q-4.834,0-9.937-.171t-5.688-.22q.146-9.375.2-17.7t.049-15.894q0-14.355-.122-22.729t-.122-8.716q.684-.049,5.4-.244t9.155-.2a60.666,60.666,0,0,1,9.277.659,33.253,33.253,0,0,1,7.178,1.831,16,16,0,0,1,6.982,5.054A12.846,12.846,0,0,1,51.9-50.1a13.615,13.615,0,0,1-3.2,8.911,16.393,16.393,0,0,1-7.3,5.3v.488a22.373,22.373,0,0,1,6.543,1.587,16.71,16.71,0,0,1,5.566,3.687,14.564,14.564,0,0,1,3.174,4.639A16.059,16.059,0,0,1,57.764-19.238Zm-8.35.244a10.89,10.89,0,0,0-.879-4.468A13.072,13.072,0,0,0,45.9-27.246a11.993,11.993,0,0,0-4.565-2.686,18.874,18.874,0,0,0-6.323-1.025q-2.734,0-4.419.049t-2.222.049l-.781-5.859a26.951,26.951,0,0,0,6.372-.854,15.609,15.609,0,0,0,4.907-2.271,11.811,11.811,0,0,0,3.369-3.735,9.974,9.974,0,0,0,1.318-5.1,9,9,0,0,0-1.465-5.151,10.232,10.232,0,0,0-4-3.442,19.7,19.7,0,0,0-5.273-1.538,41.344,41.344,0,0,0-6.689-.513q-2.295,0-4.224.073t-2.466.073q-.146,7.129-.171,15.137t-.024,11.621q0,8.4.073,16.87t.073,9.058q.977.049,2.612.122t3.149.073a86.454,86.454,0,0,0,10.425-.586A22.033,22.033,0,0,0,43.7-9.326a11.139,11.139,0,0,0,4.224-3.955A10.752,10.752,0,0,0,49.414-18.994Z" transform="matrix(0, -1, 1, 0, 512.5, 109.5)" fill="#3275e6"/>
      <path id="inner_B-3" data-name="inner B" d="M288.307,94.35h62.16s1.908-37-15.045-35.026-18.1,21.652-18.1,21.652S313.1,65.27,299.447,65.987,288.307,94.35,288.307,94.35Z" transform="translate(96.57 -2)" fill="#3275e6"/>
      <path id="inner_B-4" data-name="inner B" d="M288.3,92.35h58.618s1.8-34.889-14.188-33.03-17.073,20.418-17.073,20.418S311.675,64.927,298.8,65.6,288.3,92.35,288.3,92.35Z" transform="translate(162.697 -1)" fill="#3275e6"/>
    </g>
    <path id="right_k" data-name="right k" d="M97.168,0H56.885q.488-14.648.854-64.453t.366-119.873q0-28.564-.366-66.162T56.885-326.9H97.168q-.488,37.354-.732,84.473t-.244,81.3q0,70.313.366,108.4T97.168,0Zm211.67-22.461L280.762,4.395q-58.35-56.641-112.549-105.713T106.2-157.471v-.977q15.137-15.137,64.819-66.65t99.243-105.469l27.588,24.658q-41.992,40.283-86.182,85.815t-55.664,57.251v.488q5.615,5.371,48.218,44.556T308.838-22.461Z" transform="translate(366 124) rotate(90)" fill="#78ef0c"/>
    <path id="main_mountain_top" data-name="main mountain top" d="M156.112,495.085l77.279-24.845-23.613,77.93,79.734-61.837,46.935,47.809L361,470.24l73.317,11.922L292.653,345.651Z" fill="#91ff1f"/>
    <path id="main_shadow" data-name="main shadow" d="M293.175,347.407,326.156,602l220.688-3.392L433.713,483.316Z" transform="translate(-0.326 -2)" opacity="0.509"/>
    <path id="K" d="M194.336,0H113.77q.977-29.3,1.709-128.906t.732-239.746q0-57.129-.732-132.324T113.77-653.809h80.566q-.977,74.707-1.465,168.945t-.488,162.6q0,140.625.732,216.8T194.336,0Zm423.34-44.922L561.523,8.789q-116.7-113.281-225.1-211.426T212.4-314.941v-1.953q30.273-30.273,129.639-133.3T540.527-661.133L595.7-611.816Q511.719-531.25,423.34-440.186t-111.328,114.5v.977q11.23,10.742,96.436,89.111T617.676-44.922Z" transform="translate(-32 36) rotate(90)" fill="#72cc09"/>
    <path id="cloud_shadow_4" data-name="cloud shadow 4" d="M768.26,120.314c-.077-2.5-.712-23.987-16.517-24.675-12.2-.386-14.121,17.806-14.121,17.806s-5.507-11.137-15.759-11.281-16.474,11.281-16.474,11.281-6.188-14.772-18-14.386-15.563,14.386-15.563,14.386-4.724-9.789-17.8-9.686-13.163,16.554-13.163,16.554l64.525.075Z" transform="translate(-303 -20)" opacity="0.179"/>
    <path id="cloud_shadow_6" data-name="cloud shadow 6" d="M768.756,120.587c-.077-2.512-.872-21.712-16.678-22.4-12.2-.387-15.465,15.323-15.465,15.323s-4.5-11.176-14.75-11.321-16.474,11.321-16.474,11.321-6.7-11.708-18.508-11.321-15.054,11.321-15.054,11.321-3.418-8-16.494-7.9-14.59,14.94-14.59,14.94l63.987.02Z" transform="translate(-124 -20)" opacity="0.179"/>
    <g id="cloud_5" data-name="cloud 5" transform="translate(249 21)">
      <path id="Path_15" data-name="Path 15" d="M57.764-19.238a15.888,15.888,0,0,1-2.515,8.789,18.681,18.681,0,0,1-7.3,6.4,34.856,34.856,0,0,1-9.326,3.2A60.507,60.507,0,0,1,27,.146q-4.834,0-9.937-.171t-5.688-.22q.146-9.375.2-17.7t.049-15.894q0-14.355-.122-22.729t-.122-8.716q.684-.049,5.4-.244t9.155-.2a60.666,60.666,0,0,1,9.277.659,33.253,33.253,0,0,1,7.178,1.831,16,16,0,0,1,6.982,5.054A12.846,12.846,0,0,1,51.9-50.1a13.615,13.615,0,0,1-3.2,8.911,16.393,16.393,0,0,1-7.3,5.3v.488a22.373,22.373,0,0,1,6.543,1.587,16.71,16.71,0,0,1,5.566,3.687,14.564,14.564,0,0,1,3.174,4.639A16.059,16.059,0,0,1,57.764-19.238Zm-8.35.244a10.89,10.89,0,0,0-.879-4.468A13.072,13.072,0,0,0,45.9-27.246a11.993,11.993,0,0,0-4.565-2.686,18.874,18.874,0,0,0-6.323-1.025q-2.734,0-4.419.049t-2.222.049l-.781-5.859a26.951,26.951,0,0,0,6.372-.854,15.609,15.609,0,0,0,4.907-2.271,11.811,11.811,0,0,0,3.369-3.735,9.974,9.974,0,0,0,1.318-5.1,9,9,0,0,0-1.465-5.151,10.232,10.232,0,0,0-4-3.442,19.7,19.7,0,0,0-5.273-1.538,41.344,41.344,0,0,0-6.689-.513q-2.295,0-4.224.073t-2.466.073q-.146,7.129-.171,15.137t-.024,11.621q0,8.4.073,16.87t.073,9.058q.977.049,2.612.122t3.149.073a86.454,86.454,0,0,0,10.425-.586A22.033,22.033,0,0,0,43.7-9.326a11.139,11.139,0,0,0,4.224-3.955A10.752,10.752,0,0,0,49.414-18.994Z" transform="matrix(0, -1, 1, 0, 277.5, 111.5)" fill="#3275e6"/>
      <path id="inner_B-5" data-name="inner B" d="M288.31,97.3h63.419s1.947-40.1-15.35-37.967S317.908,82.8,317.908,82.8s-4.3-17.026-18.231-16.249S288.31,97.3,288.31,97.3Z" transform="translate(-75.477 -1.146)" fill="#3275e6"/>
    </g>
    <path id="cloud_shadow_5" data-name="cloud shadow 5" d="M1131.355,121.087s3.368-15.165,14.716-15.877,16.983,10.537,16.983,10.537.744-14.584,15.463-15.41,17.8,20.775,17.8,20.775Z" transform="translate(-670)" opacity="0.234"/>
    <ellipse id="inner_sun" data-name="inner sun" cx="52.5" cy="52" rx="52.5" ry="52" transform="translate(83 26)" fill="#91fd31"/>
    <ellipse id="next_inner_sun" data-name="next inner sun" cx="63.5" cy="63" rx="63.5" ry="63" transform="translate(72 15)" fill="#91fd31" opacity="0.232"/>
    <ellipse id="outer_sun" data-name="outer sun" cx="79" cy="77" rx="79" ry="77" transform="translate(56 1)" fill="#91fd31" opacity="0.232"/>
    <ellipse id="outmost_sun" data-name="outmost sun" cx="96.5" cy="94.5" rx="96.5" ry="94.5" transform="translate(40 -16)" fill="#91fd31" opacity="0.232"/>
    <path id="outmost_outmost_sun" data-name="outmost outmost sun" d="M117.634,0C182.6,0,235.269,51.564,235.269,115.171S182.6,230.342,117.634,230.342,0,178.778,0,115.171,52.667,0,117.634,0Z" transform="translate(18 -37)" fill="#91fd31" opacity="0.231"/>
    <path id="outmost_x3_sun" data-name="outmost x3 sun" d="M141.356,0c78.069,0,141.356,61.962,141.356,138.4s-63.287,138.4-141.356,138.4S0,214.829,0,138.4,63.287,0,141.356,0Z" transform="translate(-5 -60)" fill="#91fd31" opacity="0.231"/>
    <g id="cloud_1" data-name="cloud 1" transform="translate(-402 23)" opacity="0.979">
      <path id="outer_B-3" data-name="outer B" d="M57.764-19.238a15.888,15.888,0,0,1-2.515,8.789,18.681,18.681,0,0,1-7.3,6.4,34.856,34.856,0,0,1-9.326,3.2A60.507,60.507,0,0,1,27,.146q-4.834,0-9.937-.171t-5.688-.22q.146-9.375.2-17.7t.049-15.894q0-14.355-.122-22.729t-.122-8.716q.684-.049,5.4-.244t9.155-.2a60.666,60.666,0,0,1,9.277.659,33.253,33.253,0,0,1,7.178,1.831,16,16,0,0,1,6.982,5.054A12.846,12.846,0,0,1,51.9-50.1a13.615,13.615,0,0,1-3.2,8.911,16.393,16.393,0,0,1-7.3,5.3v.488a22.373,22.373,0,0,1,6.543,1.587,16.71,16.71,0,0,1,5.566,3.687,14.564,14.564,0,0,1,3.174,4.639A16.059,16.059,0,0,1,57.764-19.238Zm-8.35.244a10.89,10.89,0,0,0-.879-4.468A13.072,13.072,0,0,0,45.9-27.246a11.993,11.993,0,0,0-4.565-2.686,18.874,18.874,0,0,0-6.323-1.025q-2.734,0-4.419.049t-2.222.049l-.781-5.859a26.951,26.951,0,0,0,6.372-.854,15.609,15.609,0,0,0,4.907-2.271,11.811,11.811,0,0,0,3.369-3.735,9.974,9.974,0,0,0,1.318-5.1,9,9,0,0,0-1.465-5.151,10.232,10.232,0,0,0-4-3.442,19.7,19.7,0,0,0-5.273-1.538,41.344,41.344,0,0,0-6.689-.513q-2.295,0-4.224.073t-2.466.073q-.146,7.129-.171,15.137t-.024,11.621q0,8.4.073,16.87t.073,9.058q.977.049,2.612.122t3.149.073a86.454,86.454,0,0,0,10.425-.586A22.033,22.033,0,0,0,43.7-9.326a11.139,11.139,0,0,0,4.224-3.955A10.752,10.752,0,0,0,49.414-18.994Z" transform="matrix(0, -1, 1, 0, 448.5, 109.5)" fill="#3581fa"/>
      <path id="outer_B-4" data-name="outer B" d="M57.764-19.238a15.888,15.888,0,0,1-2.515,8.789,18.681,18.681,0,0,1-7.3,6.4,34.856,34.856,0,0,1-9.326,3.2A60.507,60.507,0,0,1,27,.146q-4.834,0-9.937-.171t-5.688-.22q.146-9.375.2-17.7t.049-15.894q0-14.355-.122-22.729t-.122-8.716q.684-.049,5.4-.244t9.155-.2a60.666,60.666,0,0,1,9.277.659,33.253,33.253,0,0,1,7.178,1.831,16,16,0,0,1,6.982,5.054A12.846,12.846,0,0,1,51.9-50.1a13.615,13.615,0,0,1-3.2,8.911,16.393,16.393,0,0,1-7.3,5.3v.488a22.373,22.373,0,0,1,6.543,1.587,16.71,16.71,0,0,1,5.566,3.687,14.564,14.564,0,0,1,3.174,4.639A16.059,16.059,0,0,1,57.764-19.238Zm-8.35.244a10.89,10.89,0,0,0-.879-4.468A13.072,13.072,0,0,0,45.9-27.246a11.993,11.993,0,0,0-4.565-2.686,18.874,18.874,0,0,0-6.323-1.025q-2.734,0-4.419.049t-2.222.049l-.781-5.859a26.951,26.951,0,0,0,6.372-.854,15.609,15.609,0,0,0,4.907-2.271,11.811,11.811,0,0,0,3.369-3.735,9.974,9.974,0,0,0,1.318-5.1,9,9,0,0,0-1.465-5.151,10.232,10.232,0,0,0-4-3.442,19.7,19.7,0,0,0-5.273-1.538,41.344,41.344,0,0,0-6.689-.513q-2.295,0-4.224.073t-2.466.073q-.146,7.129-.171,15.137t-.024,11.621q0,8.4.073,16.87t.073,9.058q.977.049,2.612.122t3.149.073a86.454,86.454,0,0,0,10.425-.586A22.033,22.033,0,0,0,43.7-9.326a11.139,11.139,0,0,0,4.224-3.955A10.752,10.752,0,0,0,49.414-18.994Z" transform="matrix(0, -1, 1, 0, 512.5, 109.5)" fill="#3581fa"/>
      <path id="inner_B-6" data-name="inner B" d="M288.307,94.35h62.16s1.908-37-15.045-35.026-18.1,21.652-18.1,21.652S313.1,65.27,299.447,65.987,288.307,94.35,288.307,94.35Z" transform="translate(96.57 -2)" fill="#3581fa"/>
      <path id="inner_B-7" data-name="inner B" d="M288.3,92.35h58.618s1.8-34.889-14.188-33.03-17.073,20.418-17.073,20.418S311.675,64.927,298.8,65.6,288.3,92.35,288.3,92.35Z" transform="translate(162.697 -1)" fill="#3581fa"/>
    </g>
    <path id="cloud_shadow1" data-name="cloud shadow1" d="M768.272,120.123c-.077-2.474-1.308-31.149-18.222-30.485-15.9.344-15.133,17.286-15.133,17.286s-3.372-14.3-16.368-13.761-14.061,13.761-14.061,13.761-3.143-17.382-18.423-17.286-15.822,17.286-15.822,17.286a16.73,16.73,0,0,0-16.389-11.387c-13.026.1-13.11,24.546-13.11,24.546l63.745.02Z" transform="translate(-658 1)" opacity="0.249"/>
    <g id="cloud_2" data-name="cloud 2" transform="translate(-55)">
      <path id="outer_B-5" data-name="outer B" d="M57.764-19.238a15.888,15.888,0,0,1-2.515,8.789,18.681,18.681,0,0,1-7.3,6.4,34.856,34.856,0,0,1-9.326,3.2A60.507,60.507,0,0,1,27,.146q-4.834,0-9.937-.171t-5.688-.22q.146-9.375.2-17.7t.049-15.894q0-14.355-.122-22.729t-.122-8.716q.684-.049,5.4-.244t9.155-.2a60.666,60.666,0,0,1,9.277.659,33.253,33.253,0,0,1,7.178,1.831,16,16,0,0,1,6.982,5.054A12.846,12.846,0,0,1,51.9-50.1a13.615,13.615,0,0,1-3.2,8.911,16.393,16.393,0,0,1-7.3,5.3v.488a22.373,22.373,0,0,1,6.543,1.587,16.71,16.71,0,0,1,5.566,3.687,14.564,14.564,0,0,1,3.174,4.639A16.059,16.059,0,0,1,57.764-19.238Zm-8.35.244a10.89,10.89,0,0,0-.879-4.468A13.072,13.072,0,0,0,45.9-27.246a11.993,11.993,0,0,0-4.565-2.686,18.874,18.874,0,0,0-6.323-1.025q-2.734,0-4.419.049t-2.222.049l-.781-5.859a26.951,26.951,0,0,0,6.372-.854,15.609,15.609,0,0,0,4.907-2.271,11.811,11.811,0,0,0,3.369-3.735,9.974,9.974,0,0,0,1.318-5.1,9,9,0,0,0-1.465-5.151,10.232,10.232,0,0,0-4-3.442,19.7,19.7,0,0,0-5.273-1.538,41.344,41.344,0,0,0-6.689-.513q-2.295,0-4.224.073t-2.466.073q-.146,7.129-.171,15.137t-.024,11.621q0,8.4.073,16.87t.073,9.058q.977.049,2.612.122t3.149.073a86.454,86.454,0,0,0,10.425-.586A22.033,22.033,0,0,0,43.7-9.326a11.139,11.139,0,0,0,4.224-3.955A10.752,10.752,0,0,0,49.414-18.994Z" transform="matrix(0, -1, 1, 0, 277.5, 111.5)" fill="#3683f6"/>
      <path id="inner_B-8" data-name="inner B" d="M288.31,97.3h63.419s1.947-40.1-15.35-37.967S317.908,82.8,317.908,82.8s-4.3-17.026-18.231-16.249S288.31,97.3,288.31,97.3Z" transform="translate(-75.477 -1.146)" fill="#3683f6"/>
    </g>
    <path id="cloud_shadow_2" data-name="cloud shadow 2" d="M1131.355,121.087s-1.146-21.8,13.235-22.5,15.86,9.545,15.86,9.545,1.076-18.485,17.949-18.16,17.914,31.142,17.914,31.142Z" transform="translate(-974 -21)" opacity="0.401"/>
    <g id="cloud_3" data-name="cloud 3" transform="translate(-169 23)" opacity="0.884">
      <path id="outer_B-6" data-name="outer B" d="M57.764-19.238a15.888,15.888,0,0,1-2.515,8.789,18.681,18.681,0,0,1-7.3,6.4,34.856,34.856,0,0,1-9.326,3.2A60.507,60.507,0,0,1,27,.146q-4.834,0-9.937-.171t-5.688-.22q.146-9.375.2-17.7t.049-15.894q0-14.355-.122-22.729t-.122-8.716q.684-.049,5.4-.244t9.155-.2a60.666,60.666,0,0,1,9.277.659,33.253,33.253,0,0,1,7.178,1.831,16,16,0,0,1,6.982,5.054A12.846,12.846,0,0,1,51.9-50.1a13.615,13.615,0,0,1-3.2,8.911,16.393,16.393,0,0,1-7.3,5.3v.488a22.373,22.373,0,0,1,6.543,1.587,16.71,16.71,0,0,1,5.566,3.687,14.564,14.564,0,0,1,3.174,4.639A16.059,16.059,0,0,1,57.764-19.238Zm-8.35.244a10.89,10.89,0,0,0-.879-4.468A13.072,13.072,0,0,0,45.9-27.246a11.993,11.993,0,0,0-4.565-2.686,18.874,18.874,0,0,0-6.323-1.025q-2.734,0-4.419.049t-2.222.049l-.781-5.859a26.951,26.951,0,0,0,6.372-.854,15.609,15.609,0,0,0,4.907-2.271,11.811,11.811,0,0,0,3.369-3.735,9.974,9.974,0,0,0,1.318-5.1,9,9,0,0,0-1.465-5.151,10.232,10.232,0,0,0-4-3.442,19.7,19.7,0,0,0-5.273-1.538,41.344,41.344,0,0,0-6.689-.513q-2.295,0-4.224.073t-2.466.073q-.146,7.129-.171,15.137t-.024,11.621q0,8.4.073,16.87t.073,9.058q.977.049,2.612.122t3.149.073a86.454,86.454,0,0,0,10.425-.586A22.033,22.033,0,0,0,43.7-9.326a11.139,11.139,0,0,0,4.224-3.955A10.752,10.752,0,0,0,49.414-18.994Z" transform="matrix(0, -1, 1, 0, 448.5, 109.5)" fill="#3683f7"/>
      <path id="outer_B-7" data-name="outer B" d="M57.764-19.238a15.888,15.888,0,0,1-2.515,8.789,18.681,18.681,0,0,1-7.3,6.4,34.856,34.856,0,0,1-9.326,3.2A60.507,60.507,0,0,1,27,.146q-4.834,0-9.937-.171t-5.688-.22q.146-9.375.2-17.7t.049-15.894q0-14.355-.122-22.729t-.122-8.716q.684-.049,5.4-.244t9.155-.2a60.666,60.666,0,0,1,9.277.659,33.253,33.253,0,0,1,7.178,1.831,16,16,0,0,1,6.982,5.054A12.846,12.846,0,0,1,51.9-50.1a13.615,13.615,0,0,1-3.2,8.911,16.393,16.393,0,0,1-7.3,5.3v.488a22.373,22.373,0,0,1,6.543,1.587,16.71,16.71,0,0,1,5.566,3.687,14.564,14.564,0,0,1,3.174,4.639A16.059,16.059,0,0,1,57.764-19.238Zm-8.35.244a10.89,10.89,0,0,0-.879-4.468A13.072,13.072,0,0,0,45.9-27.246a11.993,11.993,0,0,0-4.565-2.686,18.874,18.874,0,0,0-6.323-1.025q-2.734,0-4.419.049t-2.222.049l-.781-5.859a26.951,26.951,0,0,0,6.372-.854,15.609,15.609,0,0,0,4.907-2.271,11.811,11.811,0,0,0,3.369-3.735,9.974,9.974,0,0,0,1.318-5.1,9,9,0,0,0-1.465-5.151,10.232,10.232,0,0,0-4-3.442,19.7,19.7,0,0,0-5.273-1.538,41.344,41.344,0,0,0-6.689-.513q-2.295,0-4.224.073t-2.466.073q-.146,7.129-.171,15.137t-.024,11.621q0,8.4.073,16.87t.073,9.058q.977.049,2.612.122t3.149.073a86.454,86.454,0,0,0,10.425-.586A22.033,22.033,0,0,0,43.7-9.326a11.139,11.139,0,0,0,4.224-3.955A10.752,10.752,0,0,0,49.414-18.994Z" transform="matrix(0, -1, 1, 0, 512.5, 109.5)" fill="#3683f7"/>
      <path id="inner_B-9" data-name="inner B" d="M288.307,94.35h62.16s1.908-37-15.045-35.026-18.1,21.652-18.1,21.652S313.1,65.27,299.447,65.987,288.307,94.35,288.307,94.35Z" transform="translate(96.57 -2)" fill="#3683f7"/>
      <path id="inner_B-10" data-name="inner B" d="M288.3,92.35h58.618s1.8-34.889-14.188-33.03-17.073,20.418-17.073,20.418S311.675,64.927,298.8,65.6,288.3,92.35,288.3,92.35Z" transform="translate(162.697 -1)" fill="#3683f7"/>
    </g>
    <path id="cloud_shadow_3" data-name="cloud shadow 3" d="M769.985,121.142c-.078-2.544-.654-33.025-16.712-33-14.431-.52-14.334,19.03-14.334,19.03s-6.228-11.844-17.186-11.619-16.206,11.619-16.206,11.619-6.665-16.653-18.627-16.26-16.356,16.26-16.356,16.26-1.241-11.725-14.484-11.619-15.1,25.6-15.1,25.6l64.565.076Z" transform="translate(-426.743)" opacity="0.2"/>
  </g>
</svg>
