<svg xmlns="http://www.w3.org/2000/svg" xmlns:xlink="http://www.w3.org/1999/xlink" width="1280" height="800" viewBox="0 0 1280 800">
  <defs>
    <clipPath id="clip-Colour_samples">
      <rect width="1280" height="800"/>
    </clipPath>
  </defs>
  <g id="Colour_samples" data-name="Colour samples" clip-path="url(#clip-Colour_samples)">
    <rect width="1280" height="800" fill="#eaeaea"/>
    <g id="darkest_brown" data-name="darkest brown">
      <rect id="Rectangle_1" data-name="Rectangle 1" width="246" height="163" rx="39" transform="translate(95 106)" fill="#7d5c2c"/>
      <path id="darkest_brown_hash" data-name="darkest brown hash" d="M24.08-14.16v2.12H19.24L17.84-2.4h-2.2l1.4-9.64H10.56L9.08-2.4H6.92L8.4-12.04H3.6v-2.12H8.72l1-6.52H4.8V-22.8h5.24l1.36-9.16h2.08L12.16-22.8h6.48L20-31.96h2.16L20.84-22.8H25.2v2.12H20.52l-.96,6.52Zm-5.72-6.52H11.84l-.96,6.52h6.48ZM31.68-31.12h18.2L34.52-1.68l-2.36-1.2L45.44-28.4H31.68Zm22.8,0H70.96v2.84H57.36v8.96H70.84v2.8H57.36V-5.24H70.84V-2.4H54.48Zm37.6,0v2.72H81.84L80.4-20.56a12.89,12.89,0,0,1,3.6-.56,8.3,8.3,0,0,1,6.28,2.66,9.515,9.515,0,0,1,2.52,6.82,9.9,9.9,0,0,1-2.74,7.06,9.521,9.521,0,0,1-7.26,2.9,8.736,8.736,0,0,1-5.86-2.06,8.583,8.583,0,0,1-2.9-5.62h2.92a6.119,6.119,0,0,0,2.16,3.68,6,6,0,0,0,3.8,1.28,6.6,6.6,0,0,0,4.9-2.12,7.277,7.277,0,0,0,2.06-5.28,6.536,6.536,0,0,0-1.8-4.74,6.246,6.246,0,0,0-4.7-1.86,16.37,16.37,0,0,0-6.42,1.52l2.68-14.24ZM124.8-25.8l-2.24,1.72a12.617,12.617,0,0,0-10.28-4.96,12.21,12.21,0,0,0-8.82,3.6,11.831,11.831,0,0,0-3.7,8.82,11.634,11.634,0,0,0,3.62,8.72,12.515,12.515,0,0,0,9.06,3.5,12.772,12.772,0,0,0,10.12-4.72L124.8-7.4a13.643,13.643,0,0,1-5.36,4.26,17.229,17.229,0,0,1-7.16,1.46A15.237,15.237,0,0,1,101.08-6a14.729,14.729,0,0,1-4.36-10.92,14.691,14.691,0,0,1,2.02-7.54,14.311,14.311,0,0,1,5.6-5.42,15.783,15.783,0,0,1,7.7-1.96,17.019,17.019,0,0,1,7.4,1.56A13.684,13.684,0,0,1,124.8-25.8Zm6.92,3.68h-2.76a10.107,10.107,0,0,1,2.92-7.06,9.066,9.066,0,0,1,6.58-2.66,8.75,8.75,0,0,1,6.4,2.5,8.234,8.234,0,0,1,2.54,6.1,9.206,9.206,0,0,1-1.42,4.96,38.081,38.081,0,0,1-4.3,5.4l-7.16,7.72H147.8V-2.4H128.28l10.96-11.84a48.988,48.988,0,0,0,4.12-4.92,7.087,7.087,0,0,0,1.24-4.12,5.512,5.512,0,0,0-1.82-4.08,6.247,6.247,0,0,0-4.52-1.76,6,6,0,0,0-4.48,1.82A8.115,8.115,0,0,0,131.72-22.12Zm32.88,3.96q5.44,2.68,5.44,7.52a8.454,8.454,0,0,1-2.7,6.4,9.867,9.867,0,0,1-7.08,2.56,9.655,9.655,0,0,1-7.02-2.56,8.272,8.272,0,0,1-2.64-6.16q0-5.04,5.56-7.76-4.2-2.24-4.2-6.2a6.905,6.905,0,0,1,2.46-5.22,8.468,8.468,0,0,1,5.94-2.26,8.527,8.527,0,0,1,5.92,2.2,6.949,6.949,0,0,1,2.44,5.36Q168.72-20.44,164.6-18.16Zm1.24-6.24a4.332,4.332,0,0,0-1.5-3.3,5.562,5.562,0,0,0-3.92-1.38,5.784,5.784,0,0,0-3.98,1.38,4.3,4.3,0,0,0-1.56,3.34,4.625,4.625,0,0,0,1.7,3.5,5.593,5.593,0,0,0,3.86,1.54,5.351,5.351,0,0,0,3.78-1.52A4.735,4.735,0,0,0,165.84-24.4Zm1.32,13.8a5.678,5.678,0,0,0-1.98-4.28,6.8,6.8,0,0,0-4.8-1.84,6.886,6.886,0,0,0-4.86,1.9,5.931,5.931,0,0,0-2.04,4.48,5.464,5.464,0,0,0,1.88,4.26,7.106,7.106,0,0,0,4.92,1.68,6.96,6.96,0,0,0,4.96-1.8A5.8,5.8,0,0,0,167.16-10.6Z" transform="translate(133 350)"/>
    </g>
    <g id="darker_brown" data-name="darker brown">
      <rect id="Rectangle_2" data-name="Rectangle 2" width="245" height="163" rx="39" transform="translate(377 106)" fill="#ac7f24"/>
      <path id="darker_brown_hash" data-name="darker brown hash" d="M24.08-14.16v2.12H19.24L17.84-2.4h-2.2l1.4-9.64H10.56L9.08-2.4H6.92L8.4-12.04H3.6v-2.12H8.72l1-6.52H4.8V-22.8h5.24l1.36-9.16h2.08L12.16-22.8h6.48L20-31.96h2.16L20.84-22.8H25.2v2.12H20.52l-.96,6.52Zm-5.72-6.52H11.84l-.96,6.52h6.48Zm25.68-11.6L57.44-2.4H54.36l-4.52-9.8H37.44L32.96-2.4h-3.2L43.32-32.28Zm-.36,6.36-4.92,10.8h9.8Zm44.96.12L86.4-24.08a12.617,12.617,0,0,0-10.28-4.96,12.21,12.21,0,0,0-8.82,3.6,11.831,11.831,0,0,0-3.7,8.82A11.634,11.634,0,0,0,67.22-7.9a12.515,12.515,0,0,0,9.06,3.5A12.772,12.772,0,0,0,86.4-9.12L88.64-7.4a13.643,13.643,0,0,1-5.36,4.26,17.229,17.229,0,0,1-7.16,1.46A15.237,15.237,0,0,1,64.92-6a14.729,14.729,0,0,1-4.36-10.92,14.691,14.691,0,0,1,2.02-7.54,14.311,14.311,0,0,1,5.6-5.42,15.783,15.783,0,0,1,7.7-1.96,17.019,17.019,0,0,1,7.4,1.56A13.684,13.684,0,0,1,88.64-25.8Zm5.16-5.32H112L96.64-1.68l-2.36-1.2L107.56-28.4H93.8Zm22.76,0h14.4v2.84H119.44v8.96h11.52v2.84H119.44V-2.4h-2.88Zm20.56,9h-2.76a10.107,10.107,0,0,1,2.92-7.06,9.066,9.066,0,0,1,6.58-2.66,8.75,8.75,0,0,1,6.4,2.5,8.234,8.234,0,0,1,2.54,6.1,9.206,9.206,0,0,1-1.42,4.96,38.081,38.081,0,0,1-4.3,5.4l-7.16,7.72H153.2V-2.4H133.68l10.96-11.84a48.988,48.988,0,0,0,4.12-4.92A7.087,7.087,0,0,0,150-23.28a5.512,5.512,0,0,0-1.82-4.08,6.247,6.247,0,0,0-4.52-1.76,6,6,0,0,0-4.48,1.82A8.115,8.115,0,0,0,137.12-22.12Zm34.56-9.72h.56v20h3.48v2.76h-3.48V-2.4H169.4V-9.08H155.64Zm-2.28,20V-23.8l-8.48,11.96Z" transform="translate(414 350)"/>
    </g>
    <g id="mid_brown" data-name="mid brown">
      <rect id="Rectangle_3" data-name="Rectangle 3" width="246" height="163" rx="39" transform="translate(658 106)" fill="#b08d5d"/>
      <path id="mid_brown_hash" data-name="mid brown hash" d="M24.08-14.16v2.12H19.24L17.84-2.4h-2.2l1.4-9.64H10.56L9.08-2.4H6.92L8.4-12.04H3.6v-2.12H8.72l1-6.52H4.8V-22.8h5.24l1.36-9.16h2.08L12.16-22.8h6.48L20-31.96h2.16L20.84-22.8H25.2v2.12H20.52l-.96,6.52Zm-5.72-6.52H11.84l-.96,6.52h6.48Zm14-10.44h5.68q4.52,0,6.86,1.82a6.221,6.221,0,0,1,2.34,5.22,6.643,6.643,0,0,1-.94,3.46,6.84,6.84,0,0,1-2.74,2.54,9.229,9.229,0,0,1,4.5,2.88,7.065,7.065,0,0,1,1.54,4.56A7.6,7.6,0,0,1,47-4.74,9.663,9.663,0,0,1,40.28-2.4H32.36Zm2.84,2.8v9.2h1.64a10.4,10.4,0,0,0,5.6-1.2,4.166,4.166,0,0,0,1.84-3.76q0-4.24-5.76-4.24Zm0,12.08V-5.2h3.56a12.358,12.358,0,0,0,4.54-.62,5.493,5.493,0,0,0,2.38-1.92,4.558,4.558,0,0,0,.92-2.66,5.3,5.3,0,0,0-.52-2.4,5.419,5.419,0,0,0-1.54-1.84,6.963,6.963,0,0,0-2.44-1.2,23.011,23.011,0,0,0-5.3-.4ZM62.68-1.68A8.036,8.036,0,0,1,55.54-5.5q-2.5-3.82-2.5-11.26t2.5-11.26a8,8,0,0,1,7.1-3.82,8.442,8.442,0,0,1,7.3,3.9q2.7,3.9,2.7,11.18T69.92-5.58A8.421,8.421,0,0,1,62.68-1.68Zm.08-27.44a5.7,5.7,0,0,0-5.16,3.2q-1.84,3.2-1.84,9.24,0,12.4,7,12.4a5.874,5.874,0,0,0,5.3-3.26q1.9-3.26,1.9-9.22T68-25.92A5.931,5.931,0,0,0,62.76-29.12ZM89.28-18.16q5.44,2.68,5.44,7.52a8.454,8.454,0,0,1-2.7,6.4,9.867,9.867,0,0,1-7.08,2.56,9.655,9.655,0,0,1-7.02-2.56,8.272,8.272,0,0,1-2.64-6.16q0-5.04,5.56-7.76-4.2-2.24-4.2-6.2a6.905,6.905,0,0,1,2.46-5.22,8.468,8.468,0,0,1,5.94-2.26,8.527,8.527,0,0,1,5.92,2.2,6.949,6.949,0,0,1,2.44,5.36Q93.4-20.44,89.28-18.16Zm1.24-6.24a4.332,4.332,0,0,0-1.5-3.3,5.562,5.562,0,0,0-3.92-1.38,5.784,5.784,0,0,0-3.98,1.38,4.3,4.3,0,0,0-1.56,3.34,4.625,4.625,0,0,0,1.7,3.5,5.593,5.593,0,0,0,3.86,1.54,5.351,5.351,0,0,0,3.78-1.52A4.735,4.735,0,0,0,90.52-24.4Zm1.32,13.8a5.678,5.678,0,0,0-1.98-4.28,6.8,6.8,0,0,0-4.8-1.84,6.886,6.886,0,0,0-4.86,1.9,5.931,5.931,0,0,0-2.04,4.48,5.464,5.464,0,0,0,1.88,4.26A7.106,7.106,0,0,0,84.96-4.4a6.96,6.96,0,0,0,4.96-1.8A5.8,5.8,0,0,0,91.84-10.6Zm7.72,8.2V-31.12h5.96a32.508,32.508,0,0,1,8.98.9,12.74,12.74,0,0,1,4.94,2.84,12.965,12.965,0,0,1,3.2,4.74,17.54,17.54,0,0,1,1.12,6.54,14.875,14.875,0,0,1-1.74,7.04,11.931,11.931,0,0,1-4.72,4.98q-2.98,1.68-8.58,1.68Zm2.76-2.72h3.32a38.624,38.624,0,0,0,7.54-.52,9.129,9.129,0,0,0,4.1-2.06,10.051,10.051,0,0,0,2.68-3.74,12.969,12.969,0,0,0,.92-5.04,12.825,12.825,0,0,0-1.06-5.24,10.275,10.275,0,0,0-3.02-3.96,10.718,10.718,0,0,0-4.62-2.1,42.245,42.245,0,0,0-7.82-.54h-2.04Zm43.2-26v2.72H135.28l-1.44,7.84a12.89,12.89,0,0,1,3.6-.56,8.3,8.3,0,0,1,6.28,2.66,9.515,9.515,0,0,1,2.52,6.82,9.9,9.9,0,0,1-2.74,7.06,9.521,9.521,0,0,1-7.26,2.9,8.736,8.736,0,0,1-5.86-2.06,8.583,8.583,0,0,1-2.9-5.62h2.92a6.119,6.119,0,0,0,2.16,3.68,6,6,0,0,0,3.8,1.28,6.6,6.6,0,0,0,4.9-2.12,7.277,7.277,0,0,0,2.06-5.28,6.536,6.536,0,0,0-1.8-4.74,6.246,6.246,0,0,0-4.7-1.86,16.37,16.37,0,0,0-6.42,1.52l2.68-14.24ZM151.48-2.4V-31.12h5.96a32.508,32.508,0,0,1,8.98.9,12.74,12.74,0,0,1,4.94,2.84,12.964,12.964,0,0,1,3.2,4.74,17.54,17.54,0,0,1,1.12,6.54,14.875,14.875,0,0,1-1.74,7.04,11.931,11.931,0,0,1-4.72,4.98q-2.98,1.68-8.58,1.68Zm2.76-2.72h3.32a38.625,38.625,0,0,0,7.54-.52,9.129,9.129,0,0,0,4.1-2.06,10.052,10.052,0,0,0,2.68-3.74,12.969,12.969,0,0,0,.92-5.04,12.825,12.825,0,0,0-1.06-5.24,10.275,10.275,0,0,0-3.02-3.96,10.718,10.718,0,0,0-4.62-2.1,42.245,42.245,0,0,0-7.82-.54h-2.04Z" transform="translate(695 350)"/>
    </g>
    <g id="light_brown" data-name="light brown">
      <rect id="Rectangle_4" data-name="Rectangle 4" width="246" height="163" rx="39" transform="translate(940 106)" fill="#c3a579"/>
      <path id="light_brown_hash" data-name="light brown hash" d="M24.08-14.16v2.12H19.24L17.84-2.4h-2.2l1.4-9.64H10.56L9.08-2.4H6.92L8.4-12.04H3.6v-2.12H8.72l1-6.52H4.8V-22.8h5.24l1.36-9.16h2.08L12.16-22.8h6.48L20-31.96h2.16L20.84-22.8H25.2v2.12H20.52l-.96,6.52Zm-5.72-6.52H11.84l-.96,6.52h6.48ZM59.04-25.8,56.8-24.08a12.617,12.617,0,0,0-10.28-4.96,12.21,12.21,0,0,0-8.82,3.6A11.831,11.831,0,0,0,34-16.62,11.634,11.634,0,0,0,37.62-7.9a12.515,12.515,0,0,0,9.06,3.5A12.772,12.772,0,0,0,56.8-9.12L59.04-7.4a13.643,13.643,0,0,1-5.36,4.26,17.229,17.229,0,0,1-7.16,1.46A15.237,15.237,0,0,1,35.32-6a14.729,14.729,0,0,1-4.36-10.92,14.691,14.691,0,0,1,2.02-7.54,14.311,14.311,0,0,1,5.6-5.42,15.783,15.783,0,0,1,7.7-1.96,17.019,17.019,0,0,1,7.4,1.56A13.684,13.684,0,0,1,59.04-25.8Zm7.56,1.32H63.68a9.624,9.624,0,0,1,3.06-5.46,8.29,8.29,0,0,1,5.52-1.9,8.257,8.257,0,0,1,5.68,2.16,6.771,6.771,0,0,1,2.42,5.24,6.578,6.578,0,0,1-3.68,5.88,8.414,8.414,0,0,1,3.9,3.1,7.921,7.921,0,0,1,1.38,4.5,8.864,8.864,0,0,1-2.78,6.54,9.589,9.589,0,0,1-7.02,2.74,9.059,9.059,0,0,1-6.2-2.14,10.743,10.743,0,0,1-3.24-6.26h2.8a8.282,8.282,0,0,0,2.34,4.22,6.566,6.566,0,0,0,4.46,1.38,6.8,6.8,0,0,0,4.84-1.84,6,6,0,0,0,1.96-4.56,5.257,5.257,0,0,0-2.16-4.38A10.509,10.509,0,0,0,70.68-17v-2.64A7.967,7.967,0,0,0,75.5-21a4.059,4.059,0,0,0,1.86-3.38,4.316,4.316,0,0,0-1.5-3.36,5.244,5.244,0,0,0-3.62-1.34,5,5,0,0,0-3.42,1.14A8.87,8.87,0,0,0,66.6-24.48Zm32.12-7.8L112.12-2.4h-3.08l-4.52-9.8H92.12L87.64-2.4h-3.2L98-32.28Zm-.36,6.36-4.92,10.8h9.8Zm34.4-5.2v2.72H122.52l-1.44,7.84a12.89,12.89,0,0,1,3.6-.56,8.3,8.3,0,0,1,6.28,2.66,9.515,9.515,0,0,1,2.52,6.82,9.9,9.9,0,0,1-2.74,7.06,9.521,9.521,0,0,1-7.26,2.9,8.736,8.736,0,0,1-5.86-2.06,8.583,8.583,0,0,1-2.9-5.62h2.92a6.119,6.119,0,0,0,2.16,3.68,6,6,0,0,0,3.8,1.28,6.6,6.6,0,0,0,4.9-2.12,7.277,7.277,0,0,0,2.06-5.28,6.536,6.536,0,0,0-1.8-4.74,6.246,6.246,0,0,0-4.7-1.86,16.37,16.37,0,0,0-6.42,1.52l2.68-14.24Zm5.36,0h18.2L140.96-1.68l-2.36-1.2L151.88-28.4H138.12ZM165.08-1.68,162.72-3.2l7.76-11.76a9.228,9.228,0,0,1-3,.52,7.63,7.63,0,0,1-5.78-2.48,8.656,8.656,0,0,1-2.34-6.18,8.319,8.319,0,0,1,2.6-6.22,8.817,8.817,0,0,1,6.38-2.52,8.251,8.251,0,0,1,6.24,2.58,8.641,8.641,0,0,1,2.46,6.18,10.622,10.622,0,0,1-.82,4.02,24.113,24.113,0,0,1-2.42,4.38ZM162.16-23a5.826,5.826,0,0,0,1.76,4.28,5.826,5.826,0,0,0,4.28,1.76,5.793,5.793,0,0,0,4.28-1.78A5.845,5.845,0,0,0,174.24-23a5.845,5.845,0,0,0-1.76-4.26,5.793,5.793,0,0,0-4.28-1.78,5.826,5.826,0,0,0-4.28,1.76A5.826,5.826,0,0,0,162.16-23Z" transform="translate(977 350)"/>
    </g>
    <g id="dark_green" data-name="dark green">
      <rect id="Rectangle_5" data-name="Rectangle 5" width="246" height="163" rx="39" transform="translate(95 444)" fill="#3a5914"/>
      <path id="dark_green_hash" data-name="dark green hash" d="M24.08-14.16v2.12H19.24L17.84-2.4h-2.2l1.4-9.64H10.56L9.08-2.4H6.92L8.4-12.04H3.6v-2.12H8.72l1-6.52H4.8V-22.8h5.24l1.36-9.16h2.08L12.16-22.8h6.48L20-31.96h2.16L20.84-22.8H25.2v2.12H20.52l-.96,6.52Zm-5.72-6.52H11.84l-.96,6.52h6.48Zm15.72-3.8H31.16a9.624,9.624,0,0,1,3.06-5.46,8.29,8.29,0,0,1,5.52-1.9,8.257,8.257,0,0,1,5.68,2.16,6.771,6.771,0,0,1,2.42,5.24,6.578,6.578,0,0,1-3.68,5.88,8.414,8.414,0,0,1,3.9,3.1,7.921,7.921,0,0,1,1.38,4.5,8.864,8.864,0,0,1-2.78,6.54,9.589,9.589,0,0,1-7.02,2.74,9.059,9.059,0,0,1-6.2-2.14,10.743,10.743,0,0,1-3.24-6.26H33a8.282,8.282,0,0,0,2.34,4.22A6.566,6.566,0,0,0,39.8-4.48a6.8,6.8,0,0,0,4.84-1.84,6,6,0,0,0,1.96-4.56,5.257,5.257,0,0,0-2.16-4.38A10.509,10.509,0,0,0,38.16-17v-2.64A7.967,7.967,0,0,0,42.98-21a4.059,4.059,0,0,0,1.86-3.38,4.316,4.316,0,0,0-1.5-3.36,5.244,5.244,0,0,0-3.62-1.34,5,5,0,0,0-3.42,1.14A8.87,8.87,0,0,0,34.08-24.48Zm32.12-7.8L79.6-2.4H76.52L72-12.2H59.6L55.12-2.4h-3.2L65.48-32.28Zm-.36,6.36-4.92,10.8h9.8Zm34.4-5.2v2.72H90l-1.44,7.84a12.89,12.89,0,0,1,3.6-.56,8.3,8.3,0,0,1,6.28,2.66,9.515,9.515,0,0,1,2.52,6.82,9.9,9.9,0,0,1-2.74,7.06,9.521,9.521,0,0,1-7.26,2.9A8.736,8.736,0,0,1,85.1-3.74a8.583,8.583,0,0,1-2.9-5.62h2.92a6.119,6.119,0,0,0,2.16,3.68,6,6,0,0,0,3.8,1.28,6.6,6.6,0,0,0,4.9-2.12,7.277,7.277,0,0,0,2.06-5.28,6.536,6.536,0,0,0-1.8-4.74,6.246,6.246,0,0,0-4.7-1.86,16.37,16.37,0,0,0-6.42,1.52L87.8-31.12ZM110.4-1.68,108.04-3.2l7.76-11.76a9.228,9.228,0,0,1-3,.52,7.63,7.63,0,0,1-5.78-2.48,8.656,8.656,0,0,1-2.34-6.18,8.319,8.319,0,0,1,2.6-6.22,8.817,8.817,0,0,1,6.38-2.52,8.251,8.251,0,0,1,6.24,2.58,8.641,8.641,0,0,1,2.46,6.18,10.622,10.622,0,0,1-.82,4.02,24.113,24.113,0,0,1-2.42,4.38ZM107.48-23a5.826,5.826,0,0,0,1.76,4.28,5.826,5.826,0,0,0,4.28,1.76,5.793,5.793,0,0,0,4.28-1.78A5.845,5.845,0,0,0,119.56-23a5.845,5.845,0,0,0-1.76-4.26,5.793,5.793,0,0,0-4.28-1.78,5.826,5.826,0,0,0-4.28,1.76A5.826,5.826,0,0,0,107.48-23Zm24.8-8.12h5.64V-2.4h-2.84V-28.32h-4.52Zm31.8-.72h.56v20h3.48v2.76h-3.48V-2.4H161.8V-9.08H148.04Zm-2.28,20V-23.8l-8.48,11.96Z" transform="translate(133 688)"/>
    </g>
    <g id="light_green" data-name="light green">
      <rect id="Rectangle_6" data-name="Rectangle 6" width="245" height="163" rx="39" transform="translate(378 444)" fill="#87d343"/>
      <path id="light_green_hash" data-name="light green hash" d="M24.08-14.16v2.12H19.24L17.84-2.4h-2.2l1.4-9.64H10.56L9.08-2.4H6.92L8.4-12.04H3.6v-2.12H8.72l1-6.52H4.8V-22.8h5.24l1.36-9.16h2.08L12.16-22.8h6.48L20-31.96h2.16L20.84-22.8H25.2v2.12H20.52l-.96,6.52Zm-5.72-6.52H11.84l-.96,6.52h6.48Zm25.8,2.52q5.44,2.68,5.44,7.52a8.454,8.454,0,0,1-2.7,6.4,9.867,9.867,0,0,1-7.08,2.56A9.655,9.655,0,0,1,32.8-4.24a8.272,8.272,0,0,1-2.64-6.16q0-5.04,5.56-7.76-4.2-2.24-4.2-6.2a6.905,6.905,0,0,1,2.46-5.22,8.468,8.468,0,0,1,5.94-2.26,8.527,8.527,0,0,1,5.92,2.2,6.949,6.949,0,0,1,2.44,5.36Q48.28-20.44,44.16-18.16ZM45.4-24.4a4.332,4.332,0,0,0-1.5-3.3,5.562,5.562,0,0,0-3.92-1.38A5.784,5.784,0,0,0,36-27.7a4.3,4.3,0,0,0-1.56,3.34,4.625,4.625,0,0,0,1.7,3.5A5.593,5.593,0,0,0,40-19.32a5.351,5.351,0,0,0,3.78-1.52A4.735,4.735,0,0,0,45.4-24.4Zm1.32,13.8a5.678,5.678,0,0,0-1.98-4.28,6.8,6.8,0,0,0-4.8-1.84,6.886,6.886,0,0,0-4.86,1.9,5.931,5.931,0,0,0-2.04,4.48,5.464,5.464,0,0,0,1.88,4.26A7.106,7.106,0,0,0,39.84-4.4,6.96,6.96,0,0,0,44.8-6.2,5.8,5.8,0,0,0,46.72-10.6Zm7.12-20.52h18.2L56.68-1.68l-2.36-1.2L67.6-28.4H53.84ZM76.6-2.4V-31.12h5.96a32.508,32.508,0,0,1,8.98.9,12.74,12.74,0,0,1,4.94,2.84,12.965,12.965,0,0,1,3.2,4.74,17.54,17.54,0,0,1,1.12,6.54,14.875,14.875,0,0,1-1.74,7.04,11.931,11.931,0,0,1-4.72,4.98Q91.36-2.4,85.76-2.4Zm2.76-2.72h3.32a38.624,38.624,0,0,0,7.54-.52,9.129,9.129,0,0,0,4.1-2.06A10.051,10.051,0,0,0,97-11.44a12.969,12.969,0,0,0,.92-5.04,12.825,12.825,0,0,0-1.06-5.24,10.275,10.275,0,0,0-3.02-3.96,10.718,10.718,0,0,0-4.62-2.1,42.245,42.245,0,0,0-7.82-.54H79.36Zm28.8-19.36h-2.92a9.624,9.624,0,0,1,3.06-5.46,8.29,8.29,0,0,1,5.52-1.9,8.257,8.257,0,0,1,5.68,2.16,6.771,6.771,0,0,1,2.42,5.24,6.578,6.578,0,0,1-3.68,5.88,8.414,8.414,0,0,1,3.9,3.1,7.921,7.921,0,0,1,1.38,4.5,8.864,8.864,0,0,1-2.78,6.54,9.589,9.589,0,0,1-7.02,2.74,9.059,9.059,0,0,1-6.2-2.14,10.743,10.743,0,0,1-3.24-6.26h2.8a8.282,8.282,0,0,0,2.34,4.22,6.566,6.566,0,0,0,4.46,1.38,6.8,6.8,0,0,0,4.84-1.84,6,6,0,0,0,1.96-4.56,5.257,5.257,0,0,0-2.16-4.38A10.509,10.509,0,0,0,112.24-17v-2.64A7.967,7.967,0,0,0,117.06-21a4.059,4.059,0,0,0,1.86-3.38,4.316,4.316,0,0,0-1.5-3.36,5.244,5.244,0,0,0-3.62-1.34,5,5,0,0,0-3.42,1.14A8.87,8.87,0,0,0,108.16-24.48Zm33.92-7.36h.56v20h3.48v2.76h-3.48V-2.4H139.8V-9.08H126.04Zm-2.28,20V-23.8l-8.48,11.96Zm12.68-12.64h-2.92a9.624,9.624,0,0,1,3.06-5.46,8.29,8.29,0,0,1,5.52-1.9,8.257,8.257,0,0,1,5.68,2.16,6.771,6.771,0,0,1,2.42,5.24,6.578,6.578,0,0,1-3.68,5.88,8.413,8.413,0,0,1,3.9,3.1,7.921,7.921,0,0,1,1.38,4.5,8.864,8.864,0,0,1-2.78,6.54,9.589,9.589,0,0,1-7.02,2.74,9.059,9.059,0,0,1-6.2-2.14,10.743,10.743,0,0,1-3.24-6.26h2.8a8.282,8.282,0,0,0,2.34,4.22,6.566,6.566,0,0,0,4.46,1.38,6.8,6.8,0,0,0,4.84-1.84A6,6,0,0,0,165-10.88a5.257,5.257,0,0,0-2.16-4.38A10.509,10.509,0,0,0,156.56-17v-2.64A7.967,7.967,0,0,0,161.38-21a4.059,4.059,0,0,0,1.86-3.38,4.316,4.316,0,0,0-1.5-3.36,5.244,5.244,0,0,0-3.62-1.34,5,5,0,0,0-3.42,1.14A8.87,8.87,0,0,0,152.48-24.48Z" transform="translate(414 688)"/>
    </g>
    <g id="dark_blue" data-name="dark blue">
      <rect id="Rectangle_7" data-name="Rectangle 7" width="245" height="163" rx="39" transform="translate(659 444)" fill="#2a6f6a"/>
      <path id="dark_blue_hash" data-name="dark blue hash" d="M24.08-14.16v2.12H19.24L17.84-2.4h-2.2l1.4-9.64H10.56L9.08-2.4H6.92L8.4-12.04H3.6v-2.12H8.72l1-6.52H4.8V-22.8h5.24l1.36-9.16h2.08L12.16-22.8h6.48L20-31.96h2.16L20.84-22.8H25.2v2.12H20.52l-.96,6.52Zm-5.72-6.52H11.84l-.96,6.52h6.48Zm15.08-1.44H30.68a10.107,10.107,0,0,1,2.92-7.06,9.066,9.066,0,0,1,6.58-2.66,8.75,8.75,0,0,1,6.4,2.5,8.234,8.234,0,0,1,2.54,6.1,9.206,9.206,0,0,1-1.42,4.96,38.081,38.081,0,0,1-4.3,5.4L36.24-5.16H49.52V-2.4H30L40.96-14.24a48.988,48.988,0,0,0,4.12-4.92,7.087,7.087,0,0,0,1.24-4.12,5.512,5.512,0,0,0-1.82-4.08,6.247,6.247,0,0,0-4.52-1.76A6,6,0,0,0,35.5-27.3,8.115,8.115,0,0,0,33.44-22.12ZM66.2-32.28,79.6-2.4H76.52L72-12.2H59.6L55.12-2.4h-3.2L65.48-32.28Zm-.36,6.36-4.92,10.8h9.8Zm29.4-5.92,2.36,1.52L89.84-18.56a9.657,9.657,0,0,1,3.12-.56,7.477,7.477,0,0,1,5.6,2.54,8.692,8.692,0,0,1,2.4,6.2A8.242,8.242,0,0,1,98.34-4.2a8.836,8.836,0,0,1-6.36,2.52,8.365,8.365,0,0,1-6.24-2.56,8.6,8.6,0,0,1-2.5-6.24,10.51,10.51,0,0,1,.68-3.62,24.105,24.105,0,0,1,2.6-4.74Zm2.88,21.32a5.826,5.826,0,0,0-1.76-4.28,5.826,5.826,0,0,0-4.28-1.76A5.826,5.826,0,0,0,87.8-14.8a5.826,5.826,0,0,0-1.76,4.28,5.793,5.793,0,0,0,1.78,4.28,5.845,5.845,0,0,0,4.26,1.76,5.845,5.845,0,0,0,4.26-1.76A5.793,5.793,0,0,0,98.12-10.52Zm8.08-20.6h14.4v2.84H109.08v8.96H120.6v2.84H109.08V-2.4H106.2Zm30.6-.72,2.36,1.52L131.4-18.56a9.657,9.657,0,0,1,3.12-.56,7.477,7.477,0,0,1,5.6,2.54,8.692,8.692,0,0,1,2.4,6.2A8.242,8.242,0,0,1,139.9-4.2a8.836,8.836,0,0,1-6.36,2.52,8.365,8.365,0,0,1-6.24-2.56,8.6,8.6,0,0,1-2.5-6.24,10.51,10.51,0,0,1,.68-3.62,24.105,24.105,0,0,1,2.6-4.74Zm2.88,21.32a5.826,5.826,0,0,0-1.76-4.28,5.826,5.826,0,0,0-4.28-1.76,5.826,5.826,0,0,0-4.28,1.76,5.826,5.826,0,0,0-1.76,4.28,5.793,5.793,0,0,0,1.78,4.28,5.845,5.845,0,0,0,4.26,1.76,5.845,5.845,0,0,0,4.26-1.76A5.793,5.793,0,0,0,139.68-10.52Zm19.84-21.76L172.92-2.4h-3.08l-4.52-9.8h-12.4l-4.48,9.8h-3.2L158.8-32.28Zm-.36,6.36-4.92,10.8h9.8Z" transform="translate(695 688)"/>
    </g>
    <g id="light_blue" data-name="light blue">
      <rect id="Rectangle_8" data-name="Rectangle 8" width="246" height="163" rx="39" transform="translate(940 444)" fill="#80ded6"/>
      <path id="light_blue_hash" data-name="light blue hash" d="M24.08-14.16v2.12H19.24L17.84-2.4h-2.2l1.4-9.64H10.56L9.08-2.4H6.92L8.4-12.04H3.6v-2.12H8.72l1-6.52H4.8V-22.8h5.24l1.36-9.16h2.08L12.16-22.8h6.48L20-31.96h2.16L20.84-22.8H25.2v2.12H20.52l-.96,6.52Zm-5.72-6.52H11.84l-.96,6.52h6.48Zm25.8,2.52q5.44,2.68,5.44,7.52a8.454,8.454,0,0,1-2.7,6.4,9.867,9.867,0,0,1-7.08,2.56A9.655,9.655,0,0,1,32.8-4.24a8.272,8.272,0,0,1-2.64-6.16q0-5.04,5.56-7.76-4.2-2.24-4.2-6.2a6.905,6.905,0,0,1,2.46-5.22,8.468,8.468,0,0,1,5.94-2.26,8.527,8.527,0,0,1,5.92,2.2,6.949,6.949,0,0,1,2.44,5.36Q48.28-20.44,44.16-18.16ZM45.4-24.4a4.332,4.332,0,0,0-1.5-3.3,5.562,5.562,0,0,0-3.92-1.38A5.784,5.784,0,0,0,36-27.7a4.3,4.3,0,0,0-1.56,3.34,4.625,4.625,0,0,0,1.7,3.5A5.593,5.593,0,0,0,40-19.32a5.351,5.351,0,0,0,3.78-1.52A4.735,4.735,0,0,0,45.4-24.4Zm1.32,13.8a5.678,5.678,0,0,0-1.98-4.28,6.8,6.8,0,0,0-4.8-1.84,6.886,6.886,0,0,0-4.86,1.9,5.931,5.931,0,0,0-2.04,4.48,5.464,5.464,0,0,0,1.88,4.26A7.106,7.106,0,0,0,39.84-4.4,6.96,6.96,0,0,0,44.8-6.2,5.8,5.8,0,0,0,46.72-10.6ZM61.88-1.68A8.036,8.036,0,0,1,54.74-5.5q-2.5-3.82-2.5-11.26t2.5-11.26a8,8,0,0,1,7.1-3.82,8.442,8.442,0,0,1,7.3,3.9q2.7,3.9,2.7,11.18T69.12-5.58A8.421,8.421,0,0,1,61.88-1.68Zm.08-27.44a5.7,5.7,0,0,0-5.16,3.2q-1.84,3.2-1.84,9.24,0,12.4,7,12.4a5.874,5.874,0,0,0,5.3-3.26q1.9-3.26,1.9-9.22T67.2-25.92A5.931,5.931,0,0,0,61.96-29.12ZM76.6-2.4V-31.12h5.96a32.508,32.508,0,0,1,8.98.9,12.74,12.74,0,0,1,4.94,2.84,12.965,12.965,0,0,1,3.2,4.74,17.54,17.54,0,0,1,1.12,6.54,14.875,14.875,0,0,1-1.74,7.04,11.931,11.931,0,0,1-4.72,4.98Q91.36-2.4,85.76-2.4Zm2.76-2.72h3.32a38.624,38.624,0,0,0,7.54-.52,9.129,9.129,0,0,0,4.1-2.06A10.051,10.051,0,0,0,97-11.44a12.969,12.969,0,0,0,.92-5.04,12.825,12.825,0,0,0-1.06-5.24,10.275,10.275,0,0,0-3.02-3.96,10.718,10.718,0,0,0-4.62-2.1,42.245,42.245,0,0,0-7.82-.54H79.36Zm27.04-26h16.48v2.84h-13.6v8.96h13.48v2.8H109.28V-5.24h13.48V-2.4H106.4ZM127.8-2.4V-31.12h5.96a32.508,32.508,0,0,1,8.98.9,12.74,12.74,0,0,1,4.94,2.84,12.965,12.965,0,0,1,3.2,4.74A17.54,17.54,0,0,1,152-16.1a14.875,14.875,0,0,1-1.74,7.04,11.931,11.931,0,0,1-4.72,4.98q-2.98,1.68-8.58,1.68Zm2.76-2.72h3.32a38.624,38.624,0,0,0,7.54-.52,9.129,9.129,0,0,0,4.1-2.06,10.051,10.051,0,0,0,2.68-3.74,12.969,12.969,0,0,0,.92-5.04,12.825,12.825,0,0,0-1.06-5.24,10.275,10.275,0,0,0-3.02-3.96,10.718,10.718,0,0,0-4.62-2.1,42.245,42.245,0,0,0-7.82-.54h-2.04Zm38.2-26.72,2.36,1.52-7.76,11.76a9.657,9.657,0,0,1,3.12-.56,7.477,7.477,0,0,1,5.6,2.54,8.692,8.692,0,0,1,2.4,6.2,8.242,8.242,0,0,1-2.62,6.18,8.836,8.836,0,0,1-6.36,2.52,8.365,8.365,0,0,1-6.24-2.56,8.6,8.6,0,0,1-2.5-6.24,10.51,10.51,0,0,1,.68-3.62,24.1,24.1,0,0,1,2.6-4.74Zm2.88,21.32a5.826,5.826,0,0,0-1.76-4.28,5.826,5.826,0,0,0-4.28-1.76,5.826,5.826,0,0,0-4.28,1.76,5.826,5.826,0,0,0-1.76,4.28,5.793,5.793,0,0,0,1.78,4.28,5.845,5.845,0,0,0,4.26,1.76,5.845,5.845,0,0,0,4.26-1.76A5.793,5.793,0,0,0,171.64-10.52Z" transform="translate(976 688)"/>
    </g>
  </g>
</svg>
