<?xml version="1.0" encoding="utf-8"?>
<!-- Generator: Adobe Illustrator 25.4.1, SVG Export Plug-In . SVG Version: 6.00 Build 0)  -->
<svg version="1.1" id="Layer_1" xmlns="http://www.w3.org/2000/svg" xmlns:xlink="http://www.w3.org/1999/xlink" x="0px" y="0px"
	 viewBox="0 0 252 144" style="enable-background:new 0 0 252 144;" xml:space="preserve">
<style type="text/css">
	.st0{fill:#A0837A;stroke:#543D37;stroke-width:0.25;stroke-linecap:round;stroke-miterlimit:10;}
	.st1{fill:none;stroke:#543D37;stroke-width:0.16;stroke-linecap:round;stroke-miterlimit:10;}
	.st2{fill:#CCB3B0;stroke:#543D37;stroke-width:0.16;stroke-miterlimit:10;}
	.st3{fill:#FABBA4;stroke:#BC8E7E;stroke-width:0.16;stroke-linecap:round;stroke-miterlimit:10;}
	.st4{fill:none;stroke:#BC8E7E;stroke-width:0.16;stroke-linecap:round;stroke-miterlimit:10;}
</style>
<g>
	<g>
		<path class="st0" d="M148.7,132.6c12.8-16.9,14.9-62.5,14.9-62.5c0.9-5,12.6-26.6,15.2-34.7c2.3-7.3,8.8-16.3,9.1-21.6
			s-3.5-6.1-3.5-6.1c-7.3-4.7-12.3,5.3-13.4,6.1c-1.2,0.9-6.4,11.7-10.5,18.1c-4.1,6.4-15.8,30.7-15.8,30.7
			c-11.1-10.5-19-0.6-19-0.6c-15.2-12.6-21.6,2.6-21.6,2.6c-1.8-2-10.8-15.8-16.1-21.6c-3.5-3.8-7.3-9.9-7.3-9.9s-7-14-14.6-8.8
			C60.3,28.3,69,38.8,69,38.8c3.8,4.4,2.9,4.7,7.3,10.8c5,6.4,12.6,22.8,12.6,22.8c-0.3,20.7,2.3,25.1,2.3,25.1
			c7,29.5,14.6,35.6,14.6,35.6S126.3,143.7,148.7,132.6"/>
		<path class="st0" d="M104.4,64.2c0,0,2.9,34.2,8.8,41.2c8.2,9.9,16.1-1.8,16.1-1.8s1.5,2-2.9-41.8C126,61.9,112,48.5,104.4,64.2z"
			/>
		<path class="st0" d="M144.7,62.5c0,0,4.7,38.8,0,42.6c-4.7,3.8-12,5.5-15.8-1.5c0,0-5-30.4-2.9-41.8
			C126,61.9,134.4,51.7,144.7,62.5z"/>
		<path class="st0" d="M154,101.3c-5.8-4.1-7-9.3-7-9.3c1.2-6.4-0.9-7.6-0.9-7.6c-8.5,4.1-22.8,3.2-30.1-0.3c-7.3-3.5-5.3-12-2-14.6
			c3.2-2.6,16.9-1.8,25.1-4.7c7.6-2.9,14.6-0.6,18.1,1.2c1.2,0.6,1.8,1.2,2.6,1.8c2.6,2.9,6.1,11.4,7.3,21.9
			c2.3,19-18.4,43.2-18.4,43.2"/>
	</g>
	<path class="st1" d="M152,80.6c0,0-1.5,3.8-5.8,3.8c0,0,3.8-1.5,3.5-5.3"/>
	<path class="st1" d="M147,92c0,0,0.3,11.7,5.3,15.8"/>
	<path class="st2" d="M114.3,68.9c0,0,3.2,3.2,3.5,6.1c0.3,2.3,4.1,2.6,5.8,2.6c0.6,0,1.2-0.3,1.8-0.6c2-0.9,4.4-6.4,0-9.9
		C125.4,67.2,115.8,67.5,114.3,68.9z"/>
	<path class="st1" d="M170.9,23.4c0,0,1.8,2.6,6.7,3.2"/>
	<path class="st1" d="M162.8,38.3c0,0,6.1,2.9,9.1,3.5"/>
	<path class="st1" d="M155.8,56.6c0,0,5.5,4.7,8.2,4.1"/>
	<path class="st3" d="M154.3,101.9"/>
	<path class="st1" d="M72.8,38.5c0,0,3.5-0.3,5.3-3.8"/>
	<path class="st1" d="M82.5,51.1c0,0,5.5-4.1,5.5-4.7"/>
	<path class="st4" d="M104.4,64.2"/>
	<path class="st1" d="M92.4,68c0,0,6.7-1.2,7.9-3.5"/>
	<path class="st1" d="M109,63.4c0,0,6.1-3.5,11.4-0.6"/>
	<path class="st1" d="M129.2,63.4c0,0,6.1-3.5,11.4-0.6"/>
	<path class="st1" d="M140.6,64.2c0,0,5,2.3,5,5"/>
	<path class="st1" d="M111.1,89.6c0,0,8.8,1.2,12.3-2"/>
	<path class="st1" d="M131.8,89.6c0,0,8.8,1.2,12.3-2"/>
	<path class="st2" d="M115.2,105.7c0,0-0.9-5.5-0.3-7.3c0.6-1.8,6.7-3.2,8.8-1.8c2,1.5,2.6,7.3,2.6,7.3S120.7,110.7,115.2,105.7z"/>
	<path class="st2" d="M132.4,103.9c0,0-0.9-4.1,0-5.8c0.9-1.8,5.5-5,9.6-1.2c1.2,1.2,1.5,6.4,1.8,6.7
		C143.5,103.7,137.4,109.5,132.4,103.9z"/>
	<path class="st1" d="M109,126.7c0,0,7.9,0.3,12.3-2.9"/>
	<path class="st1" d="M111.7,128.2c0,0,7.9,0.6,12.3-5.5"/>
	<path class="st1" d="M136.2,126.4c0,0,4.1,4.7,10.8,2.6"/>
	<path class="st1" d="M131.8,122.6c0,0-3.2-7-1.8-11.4"/>
	<path class="st1" d="M98.8,89.9c0,0,4.7-2.9,8.8-2.3"/>
</g>
</svg>
