<?xml version="1.0" encoding="utf-8"?>
<!-- Generator: Adobe Illustrator 25.4.1, SVG Export Plug-In . SVG Version: 6.00 Build 0)  -->
<svg version="1.1" id="Layer_1" xmlns="http://www.w3.org/2000/svg" xmlns:xlink="http://www.w3.org/1999/xlink" x="0px" y="0px"
	 viewBox="0 0 252 144" style="enable-background:new 0 0 252 144;" xml:space="preserve">
<style type="text/css">
	.st0{fill:#A0837A;stroke:#543D37;stroke-width:0.25;stroke-linecap:round;stroke-miterlimit:10;}
	.st1{fill:none;stroke:#543D37;stroke-width:0.16;stroke-linecap:round;stroke-miterlimit:10;}
	.st2{fill:#CCB3B0;stroke:#543D37;stroke-width:0.16;stroke-miterlimit:10;}
	.st3{fill:#FABBA4;stroke:#BC8E7E;stroke-width:0.16;stroke-linecap:round;stroke-miterlimit:10;}
	.st4{fill:none;stroke:#BC8E7E;stroke-width:0.16;stroke-linecap:round;stroke-miterlimit:10;}
</style>
<g>
	<g>
		<path class="st0" d="M132.8,53.5c4.4-5.8,5.1-21.4,5.1-21.4c0.3-1.7,4.3-9.1,5.2-11.9c0.8-2.5,3-5.6,3.1-7.4s-1.2-2.1-1.2-2.1
			c-2.5-1.6-4.2,1.8-4.6,2.1c-0.4,0.3-2.2,4-3.6,6.2c-1.4,2.2-5.4,10.5-5.4,10.5c-3.8-3.6-6.5-0.2-6.5-0.2c-5.2-4.3-7.4,0.9-7.4,0.9
			c-0.6-0.7-3.7-5.4-5.5-7.4c-1.2-1.3-2.5-3.4-2.5-3.4s-2.4-4.8-5-3c-2,1.4,1,5,1,5c1.3,1.5,1,1.6,2.5,3.7c1.7,2.2,4.3,7.8,4.3,7.8
			c-0.1,7.1,0.8,8.6,0.8,8.6c2.4,10.1,5,12.2,5,12.2S125.1,57.3,132.8,53.5"/>
		<path class="st0" d="M117.6,30.1c0,0,1,11.7,3,14.1c2.8,3.4,5.5-0.6,5.5-0.6s0.5,0.7-1-14.3C125,29.3,120.2,24.7,117.6,30.1z"/>
		<path class="st0" d="M131.4,29.5c0,0,1.6,13.3,0,14.6s-4.1,1.9-5.4-0.5c0,0-1.7-10.4-1-14.3C125,29.3,127.9,25.8,131.4,29.5z"/>
		<path class="st0" d="M134.6,42.8c-2-1.4-2.4-3.2-2.4-3.2c0.4-2.2-0.3-2.6-0.3-2.6c-2.9,1.4-7.8,1.1-10.3-0.1
			c-2.5-1.2-1.8-4.1-0.7-5s5.8-0.6,8.6-1.6c2.6-1,5-0.2,6.2,0.4c0.4,0.2,0.6,0.4,0.9,0.6c0.9,1,2.1,3.9,2.5,7.5
			c0.8,6.5-6.3,14.8-6.3,14.8"/>
	</g>
	<path class="st1" d="M133.9,35.7c0,0-0.5,1.3-2,1.3c0,0,1.3-0.5,1.2-1.8"/>
	<path class="st1" d="M132.2,39.6c0,0,0.1,4,1.8,5.4"/>
	<path class="st2" d="M121,31.7c0,0,1.1,1.1,1.2,2.1c0.1,0.8,1.4,0.9,2,0.9c0.2,0,0.4-0.1,0.6-0.2c0.7-0.3,1.5-2.2,0-3.4
		C124.8,31.1,121.5,31.2,121,31.7z"/>
	<path class="st1" d="M140.4,16.1c0,0,0.6,0.9,2.3,1.1"/>
	<path class="st1" d="M137.6,21.2c0,0,2.1,1,3.1,1.2"/>
	<path class="st1" d="M135.2,27.5c0,0,1.9,1.6,2.8,1.4"/>
	<path class="st3" d="M134.7,43"/>
	<path class="st1" d="M106.8,21.3c0,0,1.2-0.1,1.8-1.3"/>
	<path class="st1" d="M110.1,25.6c0,0,1.9-1.4,1.9-1.6"/>
	<path class="st4" d="M117.6,30.1"/>
	<path class="st1" d="M113.5,31.4c0,0,2.3-0.4,2.7-1.2"/>
	<path class="st1" d="M119.2,29.8c0,0,2.1-1.2,3.9-0.2"/>
	<path class="st1" d="M126.1,29.8c0,0,2.1-1.2,3.9-0.2"/>
	<path class="st1" d="M130,30.1c0,0,1.7,0.8,1.7,1.7"/>
	<path class="st1" d="M119.9,38.8c0,0,3,0.4,4.2-0.7"/>
	<path class="st1" d="M127,38.8c0,0,3,0.4,4.2-0.7"/>
	<path class="st2" d="M121.3,44.3c0,0-0.3-1.9-0.1-2.5s2.3-1.1,3-0.6c0.7,0.5,0.9,2.5,0.9,2.5S123.2,46,121.3,44.3z"/>
	<path class="st2" d="M127.2,43.7c0,0-0.3-1.4,0-2s1.9-1.7,3.3-0.4c0.4,0.4,0.5,2.2,0.6,2.3C131,43.6,128.9,45.6,127.2,43.7z"/>
	<path class="st1" d="M119.2,51.5c0,0,2.7,0.1,4.2-1"/>
	<path class="st1" d="M120.1,52c0,0,2.7,0.2,4.2-1.9"/>
	<path class="st1" d="M128.5,51.4c0,0,1.4,1.6,3.7,0.9"/>
	<path class="st1" d="M127,50.1c0,0-1.1-2.4-0.6-3.9"/>
	<path class="st1" d="M115.7,38.9c0,0,1.6-1,3-0.8"/>
</g>
<g>
	<path d="M38.2,84.5V63.8h4.4c1.5,0,2.8,0.3,4.1,0.8c1.3,0.5,2.4,1.3,3.3,2.2c0.9,0.9,1.7,2,2.2,3.3s0.8,2.6,0.8,4
		c0,1.5-0.3,2.8-0.8,4.1s-1.3,2.3-2.2,3.3c-0.9,0.9-2.1,1.7-3.3,2.2c-1.3,0.5-2.6,0.8-4.1,0.8H38.2z M39.6,83.2h2.9
		c1.3,0,2.5-0.2,3.6-0.7c1.1-0.5,2.1-1.1,2.9-1.9c0.8-0.8,1.5-1.8,1.9-2.9c0.5-1.1,0.7-2.3,0.7-3.6s-0.2-2.5-0.7-3.6
		c-0.5-1.1-1.1-2.1-1.9-2.9c-0.8-0.8-1.8-1.5-2.9-1.9c-1.1-0.5-2.3-0.7-3.6-0.7h-2.9V83.2z"/>
	<path d="M58.7,69.1c-0.2,0-0.3,0-0.5-0.1s-0.3-0.2-0.3-0.3c-0.1-0.1-0.1-0.3-0.1-0.5c0-0.2,0-0.3,0.1-0.5c0.1-0.1,0.2-0.2,0.3-0.3
		c0.1-0.1,0.3-0.1,0.5-0.1c0.2,0,0.3,0,0.5,0.1c0.1,0.1,0.2,0.2,0.3,0.3c0.1,0.1,0.1,0.3,0.1,0.5c0,0.2,0,0.3-0.1,0.5
		s-0.2,0.3-0.3,0.3S58.9,69.1,58.7,69.1z M58.1,84.5V71.7h1.3v12.8H58.1z"/>
	<path d="M70.5,91.3c-1.6,0-2.9-0.3-4-1c-1.1-0.6-1.9-1.6-2.5-2.8l1.2-0.5c0.4,0.9,1.1,1.7,2.1,2.3c1,0.6,2.1,0.9,3.3,0.9
		c1,0,2-0.2,2.8-0.6c0.8-0.4,1.5-1,2-1.8S76,86.1,76,85v-3.5c-0.5,1.1-1.3,1.9-2.3,2.5s-2.1,0.9-3.2,0.9c-1.2,0-2.3-0.3-3.3-0.9
		c-1-0.6-1.7-1.4-2.3-2.4c-0.6-1-0.8-2.2-0.8-3.5c0-1.3,0.3-2.5,0.8-3.5s1.3-1.8,2.3-2.4c1-0.6,2.1-0.9,3.3-0.9
		c1.2,0,2.3,0.3,3.2,0.9s1.7,1.4,2.2,2.5v-2.9h1.3v13.1c0,1.5-0.3,2.7-0.8,3.6c-0.6,1-1.4,1.7-2.4,2.2
		C73.1,91.1,71.9,91.3,70.5,91.3z M70.8,83.7c1,0,2-0.2,2.8-0.7c0.8-0.5,1.4-1.1,1.9-2c0.5-0.9,0.7-1.8,0.7-2.9
		c0-1.1-0.2-2.1-0.7-2.9s-1.1-1.5-1.9-2c-0.8-0.5-1.7-0.7-2.8-0.7c-1,0-1.9,0.2-2.7,0.7c-0.8,0.5-1.4,1.1-1.9,2s-0.7,1.8-0.7,2.9
		c0,1.1,0.2,2.1,0.7,2.9c0.5,0.8,1.1,1.5,1.9,2S69.7,83.7,70.8,83.7z"/>
	<path d="M83.6,69.1c-0.2,0-0.3,0-0.5-0.1s-0.3-0.2-0.3-0.3c-0.1-0.1-0.1-0.3-0.1-0.5c0-0.2,0-0.3,0.1-0.5c0.1-0.1,0.2-0.2,0.3-0.3
		c0.1-0.1,0.3-0.1,0.5-0.1c0.2,0,0.3,0,0.5,0.1c0.1,0.1,0.2,0.2,0.3,0.3c0.1,0.1,0.1,0.3,0.1,0.5c0,0.2,0,0.3-0.1,0.5
		S84.2,68.9,84,69S83.7,69.1,83.6,69.1z M82.9,84.5V71.7h1.3v12.8H82.9z"/>
	<path d="M92.7,84.9c-0.9,0-1.6-0.3-2-0.9c-0.5-0.6-0.7-1.5-0.7-2.6v-8.7h-1.2v-1H90v-4.8h1.3v4.8h3.3v1h-3.3v8.7
		c0,0.8,0.1,1.3,0.4,1.7c0.3,0.4,0.7,0.6,1.2,0.6c0.5,0,1-0.1,1.3-0.4l0.3,1.1c-0.2,0.2-0.5,0.3-0.9,0.4S93.1,84.9,92.7,84.9z"/>
	<path d="M104.2,84.9c-1.2,0-2.3-0.3-3.3-0.9c-1-0.6-1.7-1.4-2.3-2.4c-0.6-1-0.8-2.2-0.8-3.5c0-1.3,0.3-2.5,0.8-3.5s1.3-1.8,2.3-2.4
		c1-0.6,2.1-0.9,3.3-0.9s2.3,0.3,3.3,0.9c1,0.6,1.7,1.4,2.2,2.5v-2.9h1.3v12.8h-1.3v-3c-0.5,1.1-1.3,1.9-2.3,2.5
		S105.4,84.9,104.2,84.9z M104.5,83.7c1,0,1.9-0.2,2.7-0.7c0.8-0.5,1.4-1.1,1.9-2c0.5-0.9,0.7-1.8,0.7-2.9c0-1.1-0.2-2.1-0.7-2.9
		c-0.5-0.8-1.1-1.5-1.9-2c-0.8-0.5-1.7-0.7-2.7-0.7s-1.9,0.2-2.7,0.7c-0.8,0.5-1.4,1.1-1.9,2s-0.7,1.8-0.7,2.9
		c0,1.1,0.2,2.1,0.7,2.9c0.5,0.8,1.1,1.5,1.9,2S103.5,83.7,104.5,83.7z"/>
	<path d="M116.7,84.5V63h1.3v21.5H116.7z"/>
	<path d="M130.6,84.5V63.8h4.4c1.5,0,2.8,0.3,4.1,0.8s2.4,1.3,3.3,2.2c0.9,0.9,1.7,2,2.2,3.3c0.5,1.2,0.8,2.6,0.8,4
		c0,1.5-0.3,2.8-0.8,4.1s-1.3,2.3-2.2,3.3c-0.9,0.9-2,1.7-3.3,2.2s-2.6,0.8-4.1,0.8H130.6z M132,83.2h2.9c1.3,0,2.5-0.2,3.6-0.7
		c1.1-0.5,2.1-1.1,2.9-1.9c0.8-0.8,1.5-1.8,1.9-2.9c0.5-1.1,0.7-2.3,0.7-3.6s-0.2-2.5-0.7-3.6c-0.5-1.1-1.1-2.1-1.9-2.9
		c-0.8-0.8-1.8-1.5-2.9-1.9c-1.1-0.5-2.3-0.7-3.6-0.7H132V83.2z"/>
	<path d="M156.5,84.9c-1.3,0-2.5-0.3-3.6-0.9s-1.9-1.4-2.5-2.4s-0.9-2.2-0.9-3.4c0-1,0.2-1.9,0.5-2.7c0.3-0.8,0.8-1.6,1.4-2.2
		c0.6-0.6,1.3-1.1,2.1-1.5c0.8-0.4,1.7-0.5,2.6-0.5c1.2,0,2.3,0.3,3.3,0.8c1,0.6,1.8,1.3,2.4,2.3c0.6,1,0.9,2.1,1,3.3
		c0,0.1,0,0.2,0,0.2s0,0.1,0,0.2h-12c0,1.1,0.2,2,0.7,2.9s1.2,1.5,2,2c0.9,0.5,1.8,0.7,2.9,0.7c1,0,2-0.2,2.8-0.7
		c0.8-0.4,1.5-1.1,2-1.9l1,0.6c-0.6,1-1.4,1.7-2.5,2.3C158.9,84.6,157.7,84.9,156.5,84.9z M150.9,77.1h10.6
		c-0.1-0.9-0.4-1.7-0.9-2.4c-0.5-0.7-1.1-1.3-1.9-1.7c-0.8-0.4-1.6-0.6-2.5-0.6c-0.9,0-1.8,0.2-2.5,0.6c-0.8,0.4-1.4,1-1.9,1.7
		C151.3,75.4,151,76.2,150.9,77.1z"/>
	<path d="M170.4,84.9c-1,0-2-0.3-2.8-0.8c-0.8-0.6-1.4-1.3-1.8-2.4l0.8-0.7c0.4,0.9,0.9,1.6,1.5,2c0.7,0.5,1.4,0.7,2.2,0.7
		c0.6,0,1.1-0.1,1.6-0.4c0.5-0.2,0.9-0.6,1.2-1s0.4-1,0.4-1.6c0-0.6-0.1-1-0.4-1.3c-0.3-0.3-0.6-0.6-1.1-0.8
		c-0.5-0.2-1.1-0.5-1.8-0.8c-0.6-0.2-1.1-0.5-1.6-0.7c-0.5-0.3-1-0.6-1.3-1c-0.3-0.4-0.5-1-0.5-1.6c0-0.6,0.2-1.2,0.5-1.7
		c0.3-0.5,0.8-0.9,1.4-1.2c0.6-0.3,1.2-0.4,2-0.4c0.7,0,1.4,0.2,2,0.5s1.1,0.8,1.6,1.4l-0.7,0.7c-0.7-1.1-1.6-1.6-2.9-1.6
		c-0.8,0-1.4,0.2-1.8,0.6c-0.5,0.4-0.7,0.9-0.7,1.6c0,0.5,0.1,0.8,0.4,1.1s0.6,0.5,1.1,0.8c0.5,0.2,0.9,0.4,1.5,0.6
		c0.8,0.3,1.4,0.6,2,0.9c0.6,0.3,1,0.6,1.3,1.1s0.5,1,0.5,1.8c0,0.8-0.2,1.6-0.6,2.2c-0.4,0.6-0.9,1.1-1.6,1.4
		C172.1,84.7,171.3,84.9,170.4,84.9z"/>
	<path d="M180.1,69.1c-0.2,0-0.3,0-0.5-0.1s-0.3-0.2-0.3-0.3c-0.1-0.1-0.1-0.3-0.1-0.5c0-0.2,0-0.3,0.1-0.5c0.1-0.1,0.2-0.2,0.3-0.3
		c0.1-0.1,0.3-0.1,0.5-0.1c0.2,0,0.3,0,0.5,0.1c0.1,0.1,0.2,0.2,0.3,0.3c0.1,0.1,0.1,0.3,0.1,0.5c0,0.2,0,0.3-0.1,0.5
		s-0.2,0.3-0.3,0.3S180.3,69.1,180.1,69.1z M179.5,84.5V71.7h1.3v12.8H179.5z"/>
	<path d="M191.9,91.3c-1.6,0-2.9-0.3-4-1c-1.1-0.6-1.9-1.6-2.5-2.8l1.2-0.5c0.4,0.9,1.1,1.7,2.1,2.3c1,0.6,2.1,0.9,3.3,0.9
		c1,0,2-0.2,2.8-0.6c0.8-0.4,1.5-1,2-1.8s0.7-1.7,0.7-2.8v-3.5c-0.5,1.1-1.3,1.9-2.3,2.5s-2.1,0.9-3.2,0.9c-1.2,0-2.3-0.3-3.3-0.9
		c-1-0.6-1.7-1.4-2.3-2.4c-0.6-1-0.8-2.2-0.8-3.5c0-1.3,0.3-2.5,0.8-3.5s1.3-1.8,2.3-2.4c1-0.6,2.1-0.9,3.3-0.9
		c1.2,0,2.3,0.3,3.2,0.9s1.7,1.4,2.2,2.5v-2.9h1.3v13.1c0,1.5-0.3,2.7-0.8,3.6c-0.6,1-1.4,1.7-2.4,2.2
		C194.5,91.1,193.3,91.3,191.9,91.3z M192.2,83.7c1,0,2-0.2,2.8-0.7c0.8-0.5,1.4-1.1,1.9-2c0.5-0.9,0.7-1.8,0.7-2.9
		c0-1.1-0.2-2.1-0.7-2.9s-1.1-1.5-1.9-2c-0.8-0.5-1.7-0.7-2.8-0.7c-1,0-1.9,0.2-2.7,0.7c-0.8,0.5-1.4,1.1-1.9,2s-0.7,1.8-0.7,2.9
		c0,1.1,0.2,2.1,0.7,2.9c0.5,0.8,1.1,1.5,1.9,2S191.2,83.7,192.2,83.7z"/>
	<path d="M204.3,84.5V71.7h1.3v1.8c0.3-0.6,0.8-1.1,1.6-1.6c0.7-0.4,1.6-0.7,2.7-0.7c1,0,1.8,0.2,2.5,0.6s1.2,1,1.6,1.8
		s0.6,1.7,0.6,2.9v8h-1.3v-7.7c0-1.4-0.3-2.5-1-3.2c-0.7-0.7-1.6-1.1-2.8-1.1c-0.8,0-1.5,0.2-2.1,0.5c-0.6,0.3-1,0.8-1.4,1.3
		c-0.3,0.5-0.5,1.1-0.5,1.7v8.5H204.3z"/>
</g>
</svg>
