<?xml version="1.0" encoding="utf-8"?>
<!-- Generator: Adobe Illustrator 25.4.1, SVG Export Plug-In . SVG Version: 6.00 Build 0)  -->
<svg version="1.1" id="Layer_1" xmlns="http://www.w3.org/2000/svg" xmlns:xlink="http://www.w3.org/1999/xlink" x="0px" y="0px"
	 viewBox="0 0 1280 800" style="enable-background:new 0 0 1280 800;" xml:space="preserve">
<style type="text/css">
	.st0{clip-path:url(#SVGID_00000102516455009093971190000017138610049160138153_);}
	.st1{fill:#EAEAEA;}
	.st2{fill:#FFFFFF;}
	.st3{fill:#D8D8D8;}
	.st4{fill:#6DD666;}
	.st5{fill:none;stroke:#6DD666;}
	.st6{fill:none;stroke:#0B0B0B;stroke-width:6.0027;stroke-linecap:round;stroke-miterlimit:4.0018;}
	.st7{fill:#DC523F;}
	.st8{fill:none;stroke:#DC523F;}
	.st9{fill:none;stroke:#000000;stroke-width:6;stroke-linecap:round;}
	.st10{fill:#FD9426;}
	.st11{fill:#2B2927;}
	.st12{fill:#23D1E4;}
	.st13{fill:none;}
	.st14{fill:none;stroke:#FFFFFF;stroke-width:5;stroke-linecap:round;}
	.st15{fill:none;stroke:#000000;stroke-width:5;stroke-linecap:round;}
	.st16{fill:#FF9419;}
	.st17{fill:#E6810C;}
	.st18{fill:#FFF7F7;}
	.st19{fill:#AC7F24;stroke:#FFF7F7;stroke-width:5;stroke-linecap:round;}
	.st20{fill:#E85845;}
	.st21{fill:#080707;}
	.st22{font-family:'STHeitiSC-Medium';}
	.st23{font-size:35px;}
	.st24{fill:#CF9BB2;}
	.st25{fill:none;stroke:#23D1E4;}
	.st26{fill:none;stroke:#FFFFFF;stroke-width:6.0027;stroke-linecap:round;stroke-miterlimit:4.0018;}
	.st27{fill:#FFFFFF;stroke:#FFFFFF;stroke-miterlimit:10;}
	.st28{fill:#FFFFFF;stroke:#FFFFFF;}
	.st29{fill:none;stroke:#FF9419;}
	.st30{fill:none;stroke:#FFFFFF;stroke-width:6;stroke-linecap:round;}
	.st31{fill:none;stroke:#D8D8D8;stroke-width:5;stroke-linecap:round;}
	.st32{fill:#8D8D8D;}
</style>
<g>
	<defs>
		<rect id="SVGID_1_" width="1280" height="800"/>
	</defs>
	<clipPath id="SVGID_00000158021926152228933510000015584359003965042324_">
		<use xlink:href="#SVGID_1_"  style="overflow:visible;"/>
	</clipPath>
	<g id="icons_for_e-commerce_website" style="clip-path:url(#SVGID_00000158021926152228933510000015584359003965042324_);">
		<rect class="st1" width="1280" height="800"/>
		<g id="light_brown_button" transform="translate(67 124.148)">
			<g transform="matrix(1, 0, 0, 1, -67, -124.15)">
				<path id="Rectangle_9-5" class="st2" d="M106,124h153c21.5,0,39,17.5,39,39l0,0c0,21.5-17.5,39-39,39H106c-21.5,0-39-17.5-39-39
					l0,0C67,141.5,84.5,124,106,124z"/>
			</g>
			<path id="button" d="M65.7,25.3h4.8c2-0.1,4.1,0.4,5.8,1.5c1.3,1.1,2.1,2.7,2,4.4c0,1-0.3,2-0.8,2.9c-0.6,0.9-1.4,1.7-2.3,2.1
				c1.5,0.4,2.8,1.3,3.8,2.4c0.9,1.1,1.3,2.4,1.3,3.8c0,1.9-0.8,3.7-2.2,5c-1.6,1.4-3.6,2.1-5.7,2h-6.7V25.3z M68.1,27.6v7.7h1.4
				c1.6,0.1,3.3-0.2,4.7-1c1-0.7,1.6-1.9,1.5-3.2c0-2.4-1.6-3.6-4.8-3.6L68.1,27.6z M68.1,37.8v9.3h3c1.3,0.1,2.6-0.1,3.8-0.5
				c0.8-0.3,1.5-0.9,2-1.6c0.5-0.6,0.8-1.4,0.8-2.2c0-0.7-0.1-1.4-0.4-2c-0.3-0.6-0.8-1.1-1.3-1.5c-0.6-0.5-1.3-0.8-2.1-1
				c-1.5-0.3-3-0.4-4.5-0.3L68.1,37.8z M99.9,49.4h-2.3v-3.2c-1.5,2.3-4,3.6-6.7,3.7c-1.3,0-2.6-0.4-3.6-1.1c-1-0.7-1.8-1.7-2.3-2.9
				c-0.5-1.7-0.7-3.4-0.7-5.2v-9.2h2.3v8.5c-0.1,1.4,0,2.8,0.3,4.2c0.2,0.7,0.5,1.3,0.9,1.9c0.4,0.5,0.9,0.9,1.5,1.2
				c0.7,0.3,1.4,0.4,2.2,0.4c0.9,0,1.8-0.2,2.5-0.6c0.8-0.4,1.6-1,2.1-1.8c0.6-0.7,1-1.5,1.2-2.4c0.3-1.6,0.4-3.2,0.3-4.9v-6.6h2.3
				L99.9,49.4z M109.4,46.6c0,0.6,0.1,1,0.2,1.1c0.4,0.2,0.8,0.2,1.2,0.2h1.4v2c-0.7,0.1-1.5,0.2-2.2,0.2c-0.8,0.1-1.6-0.2-2.2-0.7
				c-0.5-0.7-0.8-1.5-0.7-2.3V33.5h-3.2v-2h3.2v-6.9h2.3v6.9h3.6v2h-3.6L109.4,46.6z M120.8,46.6c0,0.6,0.1,1,0.2,1.1
				c0.4,0.2,0.8,0.2,1.2,0.2h1.4v2c-0.7,0.1-1.5,0.2-2.2,0.2c-0.8,0.1-1.6-0.2-2.2-0.7c-0.5-0.7-0.8-1.5-0.7-2.3V33.5h-3.2v-2h3.2
				v-6.9h2.3v6.9h3.6v2h-3.6L120.8,46.6z M127,40.6c0-2.5,0.9-4.9,2.7-6.7c1.7-1.8,4.1-2.8,6.6-2.8c2.5,0,4.9,1,6.6,2.8
				c1.8,1.8,2.7,4.2,2.7,6.7c0,2.5-0.9,4.9-2.7,6.7c-1.7,1.8-4.1,2.8-6.6,2.8c-2.5,0.1-4.9-1-6.6-2.8
				C127.9,45.5,126.9,43.1,127,40.6L127,40.6z M143.3,40.7c0-1.9-0.7-3.8-2.1-5.1c-1.3-1.4-3-2.2-4.9-2.2c-1.9,0-3.7,0.8-4.9,2.2
				c-1.3,1.4-2.1,3.2-2.1,5.2c0,1.9,0.7,3.7,2,5.1c1.3,1.4,3.1,2.1,4.9,2.1c1.9,0,3.7-0.7,5-2.1C142.6,44.4,143.3,42.6,143.3,40.7
				L143.3,40.7z M149.9,31.6h2.3v3.2c1.5-2.3,4-3.6,6.7-3.7c1.3,0,2.6,0.4,3.6,1.1c1,0.7,1.8,1.7,2.3,2.9c0.5,1.7,0.7,3.4,0.7,5.2
				v9.2h-2.3v-8.5c0.1-1.4,0-2.8-0.3-4.2c-0.2-0.7-0.5-1.3-0.9-1.9c-0.4-0.5-0.9-0.9-1.5-1.2c-0.7-0.3-1.4-0.4-2.2-0.4
				c-0.9,0-1.8,0.2-2.5,0.6c-0.8,0.4-1.6,1-2.1,1.8c-0.6,0.7-1,1.5-1.2,2.4c-0.3,1.6-0.4,3.2-0.3,4.9v6.6h-2.3L149.9,31.6z"/>
		</g>
		<g id="inactive_button" transform="translate(67 242.061)">
			<g transform="matrix(1, 0, 0, 1, -67, -242.06)">
				<path id="Path_35-2" class="st2" d="M106.2,242.1h152.1c21.6,0,39.2,17.5,39.2,39.2c0,21.6-17.5,39.2-39.2,39.2H106.2
					c-21.6,0-39.2-17.5-39.2-39.2C67,259.6,84.5,242.1,106.2,242.1z"/>
			</g>
			<path id="button-2" class="st3" d="M65.7,25.5h4.8c2-0.1,4.1,0.4,5.8,1.5c1.3,1.1,2.1,2.7,2,4.4c0,1-0.3,2-0.8,2.9
				c-0.6,0.9-1.4,1.7-2.3,2.1c1.5,0.4,2.8,1.3,3.8,2.4c0.9,1.1,1.3,2.4,1.3,3.8c0,1.9-0.8,3.7-2.2,5c-1.6,1.4-3.6,2.1-5.7,2h-6.7
				V25.5z M68.1,27.8v7.7h1.4c1.6,0.1,3.3-0.2,4.7-1c1-0.7,1.6-1.9,1.5-3.2c0-2.4-1.6-3.6-4.8-3.6L68.1,27.8z M68.1,38v9.3h3
				c1.3,0.1,2.6-0.1,3.8-0.5c0.8-0.3,1.5-0.9,2-1.6c0.5-0.6,0.8-1.4,0.8-2.2c0-0.7-0.1-1.4-0.4-2c-0.3-0.6-0.8-1.1-1.3-1.5
				c-0.6-0.5-1.3-0.8-2.1-1c-1.5-0.3-3-0.4-4.5-0.3L68.1,38z M99.9,49.6h-2.3v-3.2c-1.5,2.3-4,3.6-6.7,3.7c-1.3,0-2.6-0.4-3.6-1.1
				c-1-0.7-1.8-1.7-2.3-2.9c-0.5-1.7-0.7-3.4-0.7-5.2v-9.2h2.3v8.5c-0.1,1.4,0,2.8,0.3,4.2c0.2,0.7,0.5,1.3,0.9,1.9
				c0.4,0.5,0.9,0.9,1.5,1.2c0.7,0.3,1.4,0.4,2.2,0.4c0.9,0,1.8-0.2,2.5-0.6c0.8-0.4,1.6-1,2.1-1.8c0.6-0.7,1-1.5,1.2-2.4
				c0.3-1.6,0.4-3.2,0.3-4.9v-6.6h2.3L99.9,49.6z M109.4,46.8c0,0.6,0.1,1,0.2,1.1c0.4,0.2,0.8,0.2,1.2,0.2h1.4v2
				c-0.7,0.1-1.5,0.2-2.2,0.2c-0.8,0.1-1.6-0.2-2.2-0.7c-0.5-0.7-0.8-1.5-0.7-2.3V33.7h-3.2v-2h3.2v-6.9h2.3v6.9h3.6v2h-3.6
				L109.4,46.8z M120.8,46.8c0,0.6,0.1,1,0.2,1.1c0.4,0.2,0.8,0.2,1.2,0.2h1.4v2c-0.7,0.1-1.5,0.2-2.2,0.2c-0.8,0.1-1.6-0.2-2.2-0.7
				c-0.5-0.7-0.8-1.5-0.7-2.3V33.7h-3.2v-2h3.2v-6.9h2.3v6.9h3.6v2h-3.6L120.8,46.8z M127,40.8c0-2.5,0.9-4.9,2.7-6.7
				c1.7-1.8,4.1-2.8,6.6-2.8c2.5,0,4.9,1,6.6,2.8c1.8,1.8,2.7,4.2,2.7,6.7c0,2.5-0.9,4.9-2.7,6.7c-1.7,1.8-4.1,2.8-6.6,2.8
				c-2.5,0.1-4.9-1-6.6-2.8C127.9,45.7,126.9,43.3,127,40.8L127,40.8z M143.3,40.9c0-1.9-0.7-3.8-2.1-5.1c-1.3-1.4-3-2.2-4.9-2.2
				c-1.9,0-3.7,0.8-4.9,2.2c-1.3,1.4-2.1,3.2-2.1,5.2c0,1.9,0.7,3.7,2,5.1c1.3,1.4,3.1,2.1,4.9,2.1c1.9,0,3.7-0.7,5-2.1
				C142.6,44.6,143.3,42.8,143.3,40.9L143.3,40.9z M149.9,31.8h2.3V35c1.5-2.3,4-3.6,6.7-3.7c1.3,0,2.6,0.4,3.6,1.1
				c1,0.7,1.8,1.7,2.3,2.9c0.5,1.7,0.7,3.4,0.7,5.2v9.2h-2.3v-8.5c0.1-1.4,0-2.8-0.3-4.2c-0.2-0.7-0.5-1.3-0.9-1.9
				c-0.4-0.5-0.9-0.9-1.5-1.2c-0.7-0.3-1.4-0.4-2.2-0.4c-0.9,0-1.8,0.2-2.5,0.6c-0.8,0.4-1.6,1-2.1,1.8c-0.6,0.7-1,1.5-1.2,2.4
				c-0.3,1.6-0.4,3.2-0.3,4.9v6.6h-2.3L149.9,31.8z"/>
		</g>
		<g id="Rectangle_13" transform="translate(495.815 135.056)">
			<path class="st4" d="M22,0h10c12.2,0,22,9.8,22,22v9.1c0,12.2-9.8,22-22,22H22c-12.2,0-22-9.8-22-22V22C0,9.8,9.8,0,22,0z"/>
			<path class="st5" d="M22,0.5h10c11.9,0,21.5,9.6,21.5,21.5v9.1c0,11.9-9.6,21.5-21.5,21.5H22C10.1,52.6,0.5,43,0.5,31.1V22
				C0.5,10.1,10.1,0.5,22,0.5z"/>
		</g>
		<g id="checkmark" transform="matrix(0.998, 0.07, -0.07, 0.998, 510.853, 152.166)">
			<line id="Line_1" class="st6" x1="0" y1="9.9" x2="10" y2="16.9"/>
			<g id="Group_21" transform="translate(9.984 0)">
				<line id="Line_2" class="st6" x1="14.5" y1="0" x2="0" y2="16.9"/>
			</g>
		</g>
		<g id="x_check_box" transform="translate(579.524 135.056)">
			<g id="Rectangle_13-2" transform="translate(0 0)">
				<path class="st7" d="M22,0h9.1c12.2,0,22,9.8,22,22v9.1c0,12.2-9.8,22-22,22H22c-12.2,0-22-9.8-22-22V22C0,9.8,9.8,0,22,0z"/>
				<path class="st8" d="M22,0.5h9.1C43,0.5,52.6,10.1,52.6,22v9.1c0,11.9-9.6,21.5-21.5,21.5H22C10.1,52.6,0.5,43,0.5,31.1V22
					C0.5,10.1,10.1,0.5,22,0.5z"/>
			</g>
			<g id="X" transform="translate(15.592 15.591)">
				<line id="Line_4" class="st9" x1="0" y1="0" x2="21.8" y2="21.8"/>
				<path id="Path_18" class="st9" d="M21.7,0L0,21.8"/>
			</g>
		</g>
		<g id="ON_slider" transform="translate(454.338 613.526)">
			<g transform="matrix(1, 0, 0, 1, -454.34, -613.53)">
				<path id="Rectangle_14-2" class="st2" d="M481.5,614h51c15.2,0,27.5,12.3,27.5,27.5l0,0c0,15.2-12.3,27.5-27.5,27.5h-51
					c-15.2,0-27.5-12.3-27.5-27.5l0,0C454,626.3,466.3,614,481.5,614z"/>
			</g>
			<g transform="matrix(1, 0, 0, 1, -454.34, -613.53)">
				<circle id="Ellipse_2-2" class="st10" cx="533" cy="642" r="23"/>
			</g>
			<path id="ON" class="st11" d="M14.6,28.8c0-1.4,0.3-2.8,1-4c0.7-1.2,1.7-2.2,2.9-2.9c1.2-0.7,2.6-1.1,4-1c1.4,0,2.8,0.3,4,1
				c1.2,0.7,2.2,1.7,2.9,2.9c0.7,1.2,1.1,2.6,1.1,4c0,1.4-0.4,2.8-1,4c-0.7,1.2-1.7,2.2-2.9,2.9c-1.2,0.7-2.6,1.1-4,1
				c-1.4,0-2.8-0.3-4-1c-1.2-0.7-2.2-1.7-2.9-2.8C15,31.5,14.6,30.2,14.6,28.8z M28.9,28.7c0-1.7-0.6-3.4-1.9-4.5
				c-1.2-1.2-2.8-1.9-4.5-1.9c-1.7,0-3.3,0.6-4.5,1.9c-1.2,1.2-1.8,2.9-1.8,4.5c0,1.7,0.6,3.3,1.9,4.5c1.2,1.2,2.8,1.9,4.5,1.9
				c1.7,0,3.3-0.6,4.5-1.8C28.3,32.1,28.9,30.4,28.9,28.7L28.9,28.7z M33.4,36.2v-15h0.3l9.9,11.5V21.2h1.5v15h-0.3L35,24.9v11.3
				H33.4z"/>
		</g>
		<g id="OFF_slider" transform="translate(575.121 613.526)">
			<g transform="matrix(1, 0, 0, 1, -575.12, -613.53)">
				<path id="Rectangle_15-2" class="st10" d="M602.5,614h50c15.2,0,27.5,12.3,27.5,27.5l0,0c0,15.2-12.3,27.5-27.5,27.5h-50
					c-15.2,0-27.5-12.3-27.5-27.5l0,0C575,626.3,587.3,614,602.5,614z"/>
			</g>
			<g transform="matrix(1, 0, 0, 1, -575.12, -613.53)">
				<ellipse id="Ellipse_3-2" class="st2" cx="602.5" cy="642" rx="22.5" ry="23"/>
			</g>
			<path id="OFF" class="st2" d="M58.4,28.8c0-1.4,0.3-2.8,1-4c0.7-1.2,1.7-2.2,2.9-2.9c1.2-0.7,2.6-1.1,4-1c1.4,0,2.8,0.3,4,1
				c1.2,0.7,2.2,1.7,2.9,2.9c0.7,1.2,1.1,2.6,1.1,4c0,1.4-0.4,2.8-1,4c-0.7,1.2-1.7,2.2-2.9,2.9c-1.2,0.7-2.6,1.1-4,1
				c-1.4,0-2.8-0.3-4-1c-1.2-0.7-2.2-1.7-2.9-2.8C58.8,31.5,58.4,30.2,58.4,28.8z M72.6,28.7c0-1.7-0.6-3.4-1.9-4.5
				c-1.2-1.2-2.8-1.9-4.5-1.9c-1.7,0-3.3,0.6-4.5,1.9C60.6,25.4,60,27,60,28.7c0,1.7,0.6,3.3,1.9,4.5c1.2,1.2,2.8,1.9,4.5,1.9
				c1.7,0,3.3-0.6,4.5-1.8C72,32.1,72.7,30.4,72.6,28.7L72.6,28.7z M77.2,21.2h7.5v1.5h-6v4.7h6v1.5h-6v7.3h-1.5L77.2,21.2z
				 M87.3,21.2h7.5v1.5h-6v4.7h6v1.5h-6v7.3h-1.5L87.3,21.2z"/>
		</g>
		<g id="search_bar" transform="translate(406.705 330.378)">
			<g transform="matrix(1, 0, 0, 1, -406.7, -330.38)">
				<path id="Rectangle_16-15" class="st12" d="M432.4,330.4H616c14.2,0,25.7,11.5,25.7,25.7l0,0c0,14.2-11.5,25.7-25.7,25.7H432.4
					c-14.2,0-25.7-11.5-25.7-25.7l0,0C406.7,341.9,418.2,330.4,432.4,330.4z"/>
			</g>
			<g id="magnifying_glass" transform="translate(186.964 10.137)">
				<g id="Path_19-2">
					<path class="st13" d="M11.2,0c6.2,0,11.2,5,11.2,11.2s-5,11.2-11.2,11.2S0,17.4,0,11.2c0,0,0,0,0,0C0,5,5,0,11.2,0z"/>
					<path class="st2" d="M11.2,5C7.8,5,5,7.8,5,11.2s2.8,6.2,6.2,6.2c3.4,0,6.2-2.8,6.2-6.2S14.7,5,11.2,5 M11.2,0
						c6.2,0,11.2,5,11.2,11.2s-5,11.2-11.2,11.2S0,17.4,0,11.2S5,0,11.2,0z"/>
				</g>
				<path id="Path_20-2" class="st14" d="M17.7,18.5l8.7,8.9"/>
			</g>
			<path id="search" class="st2" d="M22.6,29.7l1.3-0.8c0.9,1.6,1.9,2.5,3.1,2.5c0.7,0,1.4-0.2,2-0.7c0.5-0.5,0.8-1.1,0.8-1.8
				c0-0.6-0.3-1.2-0.7-1.7c-0.7-0.8-1.4-1.5-2.3-2.1c-0.8-0.5-1.5-1.1-2.1-1.8c-0.4-0.4-0.6-0.8-0.8-1.3c-0.2-0.4-0.3-0.9-0.3-1.4
				c0-0.9,0.4-1.8,1-2.5c0.7-0.7,1.6-1,2.6-1c0.8,0,1.5,0.2,2.1,0.6c0.7,0.5,1.3,1.1,1.8,1.8l-1.2,0.9c-0.3-0.5-0.8-0.9-1.2-1.3
				c-0.4-0.4-1-0.5-1.5-0.5c-0.5,0-1.1,0.2-1.5,0.5c-0.4,0.4-0.6,0.9-0.6,1.4c0,0.5,0.2,1,0.5,1.5c0.7,0.7,1.5,1.4,2.3,1.9
				c1,0.7,1.9,1.5,2.6,2.5c0.5,0.7,0.8,1.5,0.8,2.4c0,1.1-0.5,2.1-1.3,2.8c-0.8,0.8-1.8,1.2-2.9,1.2C25.2,32.9,23.7,31.9,22.6,29.7z
				 M43.6,28.9l1.2,0.6c-0.9,2.1-3,3.4-5.3,3.3c-1.6,0-3.1-0.6-4.1-1.7c-1.1-1.1-1.7-2.6-1.6-4.1c0-1.5,0.6-3,1.6-4.1
				c1-1.1,2.5-1.8,4-1.7c1.5,0,3,0.5,4,1.6c1.1,1.2,1.7,2.8,1.7,4.4h-10c0,1.2,0.4,2.4,1.3,3.2c0.8,0.8,1.8,1.2,2.9,1.2
				C41.2,31.6,42.9,30.6,43.6,28.9z M43.6,25.9c-0.2-1-0.7-1.9-1.5-2.5c-0.8-0.6-1.7-0.9-2.7-0.9c-2.1,0-3.4,1.1-4.1,3.4L43.6,25.9z
				 M58.9,21.5v11.1h-1.4v-1.9c-1,1.4-2.6,2.2-4.3,2.3c-1.6,0-3.1-0.6-4.1-1.7c-1.1-1.1-1.7-2.6-1.7-4.1c0-1.5,0.6-3,1.7-4.1
				c1-1.1,2.5-1.7,4-1.7c1.8,0,3.4,0.8,4.4,2.3v-2L58.9,21.5z M57.6,27.1c0-1.2-0.4-2.3-1.3-3.2c-0.8-0.9-1.9-1.3-3.1-1.3
				c-1.2,0-2.3,0.5-3.1,1.3c-0.8,0.8-1.3,2-1.3,3.2c0,1.2,0.5,2.3,1.3,3.2c0.8,0.9,1.9,1.4,3.1,1.3c1.2,0,2.3-0.5,3.1-1.3
				C57.2,29.4,57.6,28.3,57.6,27.1L57.6,27.1z M61.6,21.5H63v1.6c0.3-0.5,0.7-1,1.1-1.4c0.3-0.3,0.8-0.5,1.2-0.5
				c0.5,0,0.9,0.1,1.4,0.4L66,22.8c-0.2-0.1-0.4-0.2-0.6-0.2c-0.5,0-0.9,0.3-1.2,0.7c-0.4,0.5-0.7,1.1-0.8,1.7
				c-0.2,1.3-0.3,2.5-0.3,3.8v3.8h-1.5V21.5z M79.2,23.8l-1.1,0.7c-0.9-1.3-2.4-2-4-1.9c-1.2,0-2.5,0.4-3.4,1.3
				c-0.9,0.8-1.4,2-1.4,3.2c0,1.2,0.5,2.4,1.3,3.3c0.9,0.9,2.1,1.4,3.4,1.4c1.6,0,3.1-0.7,4-1.9l1.1,0.8c-0.6,0.8-1.3,1.5-2.2,1.9
				c-1,0.4-2,0.7-3,0.6c-1.6,0-3.1-0.6-4.3-1.7c-1.1-1.1-1.8-2.6-1.7-4.1c0-1.6,0.6-3.1,1.7-4.2c1.2-1.2,2.8-1.8,4.5-1.7
				c1,0,2,0.2,3,0.7C78,22.3,78.7,22.9,79.2,23.8z M81.9,17.2h1.4v6.3c0.9-1.4,2.5-2.2,4.1-2.3c0.8,0,1.6,0.2,2.3,0.7
				c0.6,0.4,1.1,1,1.4,1.8c0.3,1,0.5,2.1,0.4,3.2v5.7h-1.4v-5.3c0-0.8,0-1.6-0.1-2.4c-0.1-0.4-0.2-0.9-0.5-1.2
				c-0.2-0.4-0.6-0.7-0.9-0.9c-0.4-0.2-0.9-0.3-1.4-0.3c-0.6,0-1.1,0.1-1.6,0.4c-0.5,0.3-1,0.6-1.3,1.1c-0.3,0.4-0.6,0.9-0.7,1.5
				c-0.2,1-0.2,2-0.2,3v4.1h-1.4L81.9,17.2z"/>
		</g>
		<g id="sort_by_bar" transform="translate(868.553 309.85)">
			<g id="search_bar-2" transform="translate(0 0)">
				<g transform="matrix(1, 0, 0, 1, -868.55, -309.85)">
					<path id="Rectangle_16-16" class="st2" d="M885.5,309.9h199.1c9.4,0,17,7.6,17,17v8.3c0,9.4-7.6,17-17,17H885.5
						c-9.4,0-17-7.6-17-17v-8.3C868.5,317.5,876.2,309.9,885.5,309.9z"/>
				</g>
			</g>
			<g id="back_arrow" transform="translate(204.044 26.474) rotate(-90)">
				<line id="Line_10" class="st15" x1="0" y1="7.7" x2="7" y2="0"/>
				<path id="Path_23" class="st15" d="M0,7.7l7,7.4"/>
			</g>
			<path id="Path_33" d="M20.2,18.5c-0.3-0.4-0.7-0.8-1.1-1.1c-0.3-0.2-0.7-0.3-1-0.3c-0.4,0-0.7,0.1-1,0.4c-0.3,0.2-0.4,0.6-0.4,1
				c0,0.4,0.1,0.7,0.4,1c0.5,0.5,1.1,1,1.7,1.4c0.8,0.5,1.4,1.1,2,1.9c0.4,0.5,0.6,1.2,0.6,1.8c0,0.8-0.4,1.6-1,2.2
				c-0.6,0.6-1.4,0.9-2.3,0.9c-1.6,0-3-1.1-3.6-2.5l1.1-0.7c0.7,1.3,1.4,1.9,2.3,1.9c0.5,0,1-0.2,1.4-0.5c0.4-0.3,0.6-0.7,0.6-1.2
				c0-0.5-0.2-0.9-0.5-1.3c-0.5-0.6-1.1-1.1-1.7-1.5c-0.6-0.4-1.1-0.9-1.6-1.4c-0.3-0.3-0.5-0.6-0.6-1c-0.1-0.3-0.2-0.7-0.2-1.1
				c0-0.7,0.3-1.4,0.8-1.9c0.5-0.5,1.3-0.8,2-0.8c0.6,0,1.2,0.2,1.7,0.5c0.6,0.4,1,0.9,1.4,1.5L20.2,18.5z M27.5,18.7
				c1.2,0,2.3,0.5,3.1,1.3c0.8,0.8,1.3,2,1.3,3.2c0,1.2-0.4,2.3-1.3,3.2c-0.8,0.9-2,1.3-3.2,1.3c-1.2,0-2.3-0.5-3.2-1.3
				c-0.8-0.8-1.3-2-1.3-3.2c0-1.2,0.4-2.3,1.3-3.2C25.2,19.2,26.3,18.7,27.5,18.7z M27.5,26.5c0.8,0,1.6-0.3,2.2-0.9
				c0.6-0.6,0.9-1.4,0.9-2.3c0-0.9-0.3-1.7-0.9-2.3c-0.6-0.6-1.4-1-2.2-1c-0.8,0-1.6,0.4-2.2,1c-0.6,0.6-0.9,1.5-0.9,2.3
				c0,0.8,0.3,1.7,0.9,2.3C25.8,26.2,26.7,26.5,27.5,26.5z M37.3,19.1l-0.7,1.1c-0.2-0.1-0.3-0.1-0.5-0.1c-0.4,0-0.7,0.2-0.9,0.5
				c-0.3,0.4-0.5,0.8-0.6,1.2c-0.2,0.9-0.2,1.9-0.2,2.8v2.9h-1.3V19h1.3v0.9c0.2-0.3,0.5-0.6,0.8-0.9c0.3-0.2,0.6-0.3,0.9-0.3
				C36.6,18.8,37,18.9,37.3,19.1z M42.3,20.1h-1.7v6c0,0.2,0,0.4,0.1,0.4c0.1,0.1,0.3,0.1,0.5,0.1H42v1.1c-0.4,0.1-0.8,0.1-1.1,0.1
				c-0.4,0-0.8-0.1-1.1-0.4c-0.3-0.3-0.4-0.7-0.4-1.2v-6.1h-1.5V19h1.5v-3.2h1.3V19h1.7L42.3,20.1z M49,20.2c0.8-0.9,2-1.5,3.2-1.5
				c1.2,0,2.3,0.5,3.1,1.3c0.8,0.8,1.3,2,1.3,3.2c0,1.2-0.5,2.3-1.3,3.2c-0.8,0.9-2,1.3-3.1,1.3c-1.2,0-2.4-0.6-3.2-1.6v1.3h-1.3
				V15.7H49L49,20.2z M52.1,26.5c0.9,0,1.7-0.3,2.3-1c0.6-0.6,0.9-1.4,0.9-2.3c0-0.9-0.3-1.7-0.9-2.3c-0.6-0.6-1.4-1-2.3-1
				c-0.9,0-1.7,0.3-2.3,0.9c-0.6,0.6-0.9,1.5-0.9,2.3c0,0.9,0.3,1.7,0.9,2.4C50.4,26.2,51.2,26.5,52.1,26.5L52.1,26.5z M65.6,19
				l-5.1,11.5h-1.3l1.6-3.8L57.4,19h1.3l2.8,6.2l2.7-6.2H65.6z"/>
		</g>
		<g id="dark_blue_button" transform="translate(67 359.466)">
			<g transform="matrix(1, 0, 0, 1, -67, -359.47)">
				<path id="Rectangle_9-6" class="st16" d="M107.5,359h150c22.4,0,40.5,18.1,40.5,40.5l0,0c0,22.4-18.1,40.5-40.5,40.5h-150
					C85.1,440,67,421.9,67,399.5l0,0C67,377.1,85.1,359,107.5,359z"/>
			</g>
			<path id="button-3" class="st2" d="M65.7,26.2h4.8c2-0.1,4.1,0.4,5.8,1.5c1.3,1.1,2.1,2.7,2,4.4c0,1-0.3,2-0.8,2.9
				c-0.6,0.9-1.4,1.7-2.3,2.1c1.5,0.4,2.8,1.3,3.8,2.4c0.9,1.1,1.3,2.4,1.3,3.8c0,1.9-0.8,3.7-2.2,5c-1.6,1.4-3.6,2.1-5.7,2h-6.7
				V26.2z M68.1,28.5v7.7h1.4c1.6,0.1,3.3-0.2,4.7-1c1-0.7,1.6-1.9,1.5-3.2c0-2.4-1.6-3.6-4.8-3.6L68.1,28.5z M68.1,38.7V48h3
				c1.3,0.1,2.6-0.1,3.8-0.5c0.8-0.3,1.5-0.9,2-1.6c0.5-0.6,0.8-1.4,0.8-2.2c0-0.7-0.1-1.4-0.4-2c-0.3-0.6-0.8-1.1-1.3-1.5
				c-0.6-0.5-1.3-0.8-2.1-1c-1.5-0.3-3-0.4-4.5-0.3L68.1,38.7z M99.9,50.3h-2.3v-3.2c-1.5,2.3-4,3.6-6.7,3.7c-1.3,0-2.6-0.4-3.6-1.1
				c-1-0.7-1.8-1.7-2.3-2.9c-0.5-1.7-0.7-3.4-0.7-5.2v-9.2h2.3V41c-0.1,1.4,0,2.8,0.3,4.2c0.2,0.7,0.5,1.3,0.9,1.9
				c0.4,0.5,0.9,0.9,1.5,1.2c0.7,0.3,1.4,0.4,2.2,0.4c0.9,0,1.8-0.2,2.5-0.6c0.8-0.4,1.6-1,2.1-1.8c0.6-0.7,1-1.5,1.2-2.4
				c0.3-1.6,0.4-3.2,0.3-4.9v-6.6h2.3L99.9,50.3z M109.4,47.5c0,0.6,0.1,1,0.2,1.1c0.4,0.2,0.8,0.2,1.2,0.2h1.4v2
				c-0.7,0.1-1.5,0.2-2.2,0.2c-0.8,0.1-1.6-0.2-2.2-0.7c-0.5-0.7-0.8-1.5-0.7-2.3V34.4h-3.2v-2h3.2v-6.9h2.3v6.9h3.6v2h-3.6
				L109.4,47.5z M120.8,47.5c0,0.6,0.1,1,0.2,1.1c0.4,0.2,0.8,0.2,1.2,0.2h1.4v2c-0.7,0.1-1.5,0.2-2.2,0.2c-0.8,0.1-1.6-0.2-2.2-0.7
				c-0.5-0.7-0.8-1.5-0.7-2.3V34.4h-3.2v-2h3.2v-6.9h2.3v6.9h3.6v2h-3.6L120.8,47.5z M127,41.5c0-2.5,0.9-4.9,2.7-6.7
				c1.7-1.8,4.1-2.8,6.6-2.8c2.5,0,4.9,1,6.6,2.8c1.8,1.8,2.7,4.2,2.7,6.7c0,2.5-0.9,4.9-2.7,6.7c-1.7,1.8-4.1,2.8-6.6,2.8
				c-2.5,0.1-4.9-1-6.6-2.8C127.9,46.4,126.9,44,127,41.5L127,41.5z M143.3,41.6c0-1.9-0.7-3.8-2.1-5.1c-1.3-1.4-3-2.2-4.9-2.2
				c-1.9,0-3.7,0.8-4.9,2.2c-1.3,1.4-2.1,3.2-2.1,5.2c0,1.9,0.7,3.7,2,5.1c1.3,1.4,3.1,2.1,4.9,2.1c1.9,0,3.7-0.7,5-2.1
				C142.6,45.3,143.3,43.5,143.3,41.6L143.3,41.6z M149.9,32.5h2.3v3.2c1.5-2.3,4-3.6,6.7-3.7c1.3,0,2.6,0.4,3.6,1.1
				c1,0.7,1.8,1.7,2.3,2.9c0.5,1.7,0.7,3.4,0.7,5.2v9.2h-2.3v-8.5c0.1-1.4,0-2.8-0.3-4.2c-0.2-0.7-0.5-1.3-0.9-1.9
				c-0.4-0.5-0.9-0.9-1.5-1.2c-0.7-0.3-1.4-0.4-2.2-0.4c-0.9,0-1.8,0.2-2.5,0.6c-0.8,0.4-1.6,1-2.1,1.8c-0.6,0.7-1,1.5-1.2,2.4
				c-0.3,1.6-0.4,3.2-0.3,4.9v6.6h-2.3L149.9,32.5z"/>
		</g>
		<g id="dark_blue_button-2" transform="translate(67 479.207)">
			<g transform="matrix(1, 0, 0, 1, -67, -479.21)">
				<path id="Rectangle_9-7" class="st16" d="M105.5,479h154c21.3,0,38.5,17.2,38.5,38.5l0,0c0,21.3-17.2,38.5-38.5,38.5h-154
					C84.2,556,67,538.8,67,517.5l0,0C67,496.2,84.2,479,105.5,479z"/>
			</g>
			<path id="button-4" class="st17" d="M65.7,24.5h4.8c2-0.1,4.1,0.4,5.8,1.5c1.3,1.1,2.1,2.7,2,4.4c0,1-0.3,2-0.8,2.9
				c-0.6,0.9-1.4,1.7-2.3,2.1c1.5,0.4,2.8,1.3,3.8,2.4c0.9,1.1,1.3,2.4,1.3,3.8c0,1.9-0.8,3.7-2.2,5c-1.6,1.4-3.6,2.1-5.7,2h-6.7
				V24.5z M68.1,26.9v7.7h1.4c1.6,0.1,3.3-0.2,4.7-1c1-0.7,1.6-1.9,1.5-3.2c0-2.4-1.6-3.6-4.8-3.6L68.1,26.9z M68.1,37.1v9.3h3
				c1.3,0.1,2.6-0.1,3.8-0.5c0.8-0.3,1.5-0.9,2-1.6c0.5-0.6,0.8-1.4,0.8-2.2c0-0.7-0.1-1.4-0.4-2c-0.3-0.6-0.8-1.1-1.3-1.5
				c-0.6-0.5-1.3-0.8-2.1-1c-1.5-0.3-3-0.4-4.5-0.3L68.1,37.1z M99.9,48.7h-2.3v-3.2c-1.5,2.3-4,3.6-6.7,3.7c-1.3,0-2.6-0.4-3.6-1.1
				c-1-0.7-1.8-1.7-2.3-2.9c-0.5-1.7-0.7-3.4-0.7-5.2v-9.2h2.3v8.5c-0.1,1.4,0,2.8,0.3,4.2c0.2,0.7,0.5,1.3,0.9,1.9
				c0.4,0.5,0.9,0.9,1.5,1.2c0.7,0.3,1.4,0.4,2.2,0.4c0.9,0,1.8-0.2,2.5-0.6c0.8-0.4,1.6-1,2.1-1.8c0.6-0.7,1-1.5,1.2-2.4
				c0.3-1.6,0.4-3.2,0.3-4.9v-6.6h2.3L99.9,48.7z M109.4,45.9c0,0.6,0.1,1,0.2,1.1c0.4,0.2,0.8,0.2,1.2,0.2h1.4v2
				c-0.7,0.1-1.5,0.2-2.2,0.2c-0.8,0.1-1.6-0.2-2.2-0.7c-0.5-0.7-0.8-1.5-0.7-2.3V32.8h-3.2v-2h3.2v-6.9h2.3v6.9h3.6v2h-3.6
				L109.4,45.9z M120.8,45.9c0,0.6,0.1,1,0.2,1.1c0.4,0.2,0.8,0.2,1.2,0.2h1.4v2c-0.7,0.1-1.5,0.2-2.2,0.2c-0.8,0.1-1.6-0.2-2.2-0.7
				c-0.5-0.7-0.8-1.5-0.7-2.3V32.8h-3.2v-2h3.2v-6.9h2.3v6.9h3.6v2h-3.6L120.8,45.9z M127,39.9c0-2.5,0.9-4.9,2.7-6.7
				c1.7-1.8,4.1-2.8,6.6-2.8c2.5,0,4.9,1,6.6,2.8c1.8,1.8,2.7,4.2,2.7,6.7c0,2.5-0.9,4.9-2.7,6.7c-1.7,1.8-4.1,2.8-6.6,2.8
				c-2.5,0.1-4.9-1-6.6-2.8C127.9,44.8,126.9,42.4,127,39.9L127,39.9z M143.3,39.9c0-1.9-0.7-3.8-2.1-5.1c-1.3-1.4-3-2.2-4.9-2.2
				c-1.9,0-3.7,0.8-4.9,2.2c-1.3,1.4-2.1,3.2-2.1,5.2c0,1.9,0.7,3.7,2,5.1c1.3,1.4,3.1,2.1,4.9,2.1c1.9,0,3.7-0.7,5-2.1
				C142.6,43.7,143.3,41.8,143.3,39.9L143.3,39.9z M149.9,30.8h2.3V34c1.5-2.3,4-3.6,6.7-3.7c1.3,0,2.6,0.4,3.6,1.1
				c1,0.7,1.8,1.7,2.3,2.9c0.5,1.7,0.7,3.4,0.7,5.2v9.2h-2.3v-8.5c0.1-1.4,0-2.8-0.3-4.2c-0.2-0.7-0.5-1.3-0.9-1.9
				c-0.4-0.5-0.9-0.9-1.5-1.2c-0.7-0.3-1.4-0.4-2.2-0.4c-0.9,0-1.8,0.2-2.5,0.6c-0.8,0.4-1.6,1-2.1,1.8c-0.6,0.7-1,1.5-1.2,2.4
				c-0.3,1.6-0.4,3.2-0.3,4.9v6.6h-2.3L149.9,30.8z"/>
		</g>
		<g id="search_bar-3" transform="translate(668.634 330.378)">
			<g transform="matrix(1, 0, 0, 1, -668.63, -330.38)">
				<path id="Rectangle_16-17" class="st12" d="M694.3,330.4h1.8c14.2,0,25.7,11.5,25.7,25.7l0,0c0,14.2-11.5,25.7-25.7,25.7h-1.8
					c-14.2,0-25.7-11.5-25.7-25.7l0,0C668.6,341.9,680.1,330.4,694.3,330.4z"/>
			</g>
			<g id="magnifying_glass-2" transform="translate(13.042 12.242)">
				<g id="Path_19-3">
					<path class="st13" d="M11.2,0c6.2,0,11.2,5,11.2,11.2s-5,11.2-11.2,11.2S0,17.4,0,11.2c0,0,0,0,0,0C0,5,5,0,11.2,0z"/>
					<path class="st18" d="M11.2,5C7.8,5,5,7.8,5,11.2s2.8,6.2,6.2,6.2c3.4,0,6.2-2.8,6.2-6.2S14.7,5,11.2,5 M11.2,0
						c6.2,0,11.2,5,11.2,11.2s-5,11.2-11.2,11.2S0,17.4,0,11.2S5,0,11.2,0z"/>
				</g>
				<path id="Path_20-3" class="st19" d="M17.7,18.5l8.7,8.9"/>
			</g>
		</g>
		<g id="Group_22" transform="translate(657.833 130.556)">
			<g id="Polygon_1" transform="translate(0 0)">
				<path class="st20" d="M54,56.6H18c-3.3,0-6.3-1.7-7.9-4.6c-1.6-2.9-1.5-6.3,0.2-9.1l18-28.7c0.9-1.4,2-2.4,3.4-3.2
					c1.3-0.7,2.8-1.1,4.3-1.1s3,0.4,4.3,1.1c1.4,0.7,2.5,1.8,3.4,3.2l18,28.7c1.8,2.8,1.8,6.2,0.2,9.1C60.2,54.9,57.3,56.6,54,56.6z
					"/>
				<path class="st20" d="M36,10.9c-1.3,0-2.6,0.3-3.8,0.9c-1.2,0.7-2.2,1.6-3,2.8l-18,28.7c-1.6,2.5-1.6,5.5-0.2,8.1
					c1.4,2.6,4,4.1,7,4.1H54c3,0,5.6-1.5,7-4.1c1.4-2.6,1.4-5.6-0.2-8.1l-18-28.7c-0.8-1.2-1.8-2.2-3-2.8
					C38.6,11.2,37.3,10.9,36,10.9 M36,8.9c3.3,0,6.5,1.6,8.5,4.7l18,28.7c4.2,6.7-0.6,15.3-8.5,15.3H18c-7.9,0-12.6-8.6-8.5-15.3
					l18-28.7C29.5,10.4,32.7,8.9,36,8.9z"/>
			</g>
			<text transform="matrix(1 0 0 1 30.603 48.902)" class="st21 st22 st23">!</text>
		</g>
		<g id="Group_28" transform="translate(832.305 219.941)">
			<g id="email_form_block" transform="translate(0 0)">
				<path id="Rectangle_16-18" class="st2" d="M13.7,0.1h354c7.7,0,14,6.3,14,14v25c0,7.7-6.3,14-14,14h-354c-7.7,0-14-6.3-14-14
					v-25C-0.3,6.3,6,0.1,13.7,0.1z"/>
			</g>
			<path id="Path_40" class="st3" d="M19,19.1v-1.6h8.9v1.6h-3.6v14.6h-1.6V19.1H19z M40,29.8l1.3,0.7c-1,2.2-3.3,3.6-5.7,3.6
				c-1.7,0-3.3-0.6-4.5-1.9c-1.2-1.2-1.8-2.8-1.8-4.5c0-1.7,0.6-3.3,1.8-4.5c1.1-1.2,2.7-1.9,4.4-1.9c1.6,0,3.2,0.6,4.4,1.7
				c1.2,1.3,1.9,3,1.8,4.7H31c0,1.3,0.5,2.5,1.4,3.5c0.8,0.9,2,1.3,3.1,1.3C37.4,32.7,39.2,31.6,40,29.8z M40,26.5
				c-0.2-1.1-0.7-2-1.6-2.7c-0.8-0.6-1.9-1-2.9-1c-2.2,0-3.7,1.2-4.4,3.6L40,26.5z M48.2,28.7l-3.5,5H43l4.4-6.3l-3.9-5.7h1.8l3,4.3
				l3-4.3h1.8l-3.9,5.6l4.4,6.3h-1.9L48.2,28.7z M58.3,31.8c0,0.4,0.1,0.6,0.2,0.7c0.3,0.1,0.5,0.1,0.8,0.1h0.9v1.3
				c-0.5,0.1-1,0.1-1.5,0.2c-0.5,0-1.1-0.1-1.5-0.5c-0.4-0.4-0.5-1-0.5-1.6v-9h-2.1v-1.3h2.1v-4.6h1.6v4.6h2.4V23h-2.4L58.3,31.8z"
				/>
		</g>
		<g id="Group_29" transform="translate(832.305 130.395)">
			<g id="name_form_block" transform="translate(0 0)">
				<g transform="matrix(1, 0, 0, 1, -832.3, -130.39)">
					<path id="Rectangle_16-19" class="st2" d="M846,130h354c7.7,0,14,6.3,14,14v24c0,7.7-6.3,14-14,14H846c-7.7,0-14-6.3-14-14v-24
						C832,136.3,838.3,130,846,130z"/>
				</g>
			</g>
			<path id="Path_41" d="M19,19.5v-1.6h8.9v1.6h-3.6v14.6h-1.6V19.5H19z M40,30.2l1.3,0.7c-1,2.2-3.3,3.6-5.7,3.6
				c-1.7,0-3.3-0.6-4.5-1.9c-1.2-1.2-1.8-2.8-1.8-4.5c0-1.7,0.6-3.3,1.8-4.5c1.1-1.2,2.7-1.9,4.4-1.9c1.6,0,3.2,0.6,4.4,1.7
				c1.2,1.3,1.9,3,1.8,4.7H31c0,1.3,0.5,2.5,1.4,3.5c0.8,0.9,2,1.3,3.1,1.3C37.4,33.1,39.2,32,40,30.2z M40,27
				c-0.2-1.1-0.7-2-1.6-2.7c-0.8-0.6-1.9-1-2.9-1c-2.2,0-3.7,1.2-4.4,3.6L40,27z M48.2,29.1l-3.5,5H43l4.4-6.3l-3.9-5.7h1.8l3,4.3
				l3-4.3h1.8l-3.9,5.6l4.4,6.3h-1.9L48.2,29.1z M58.3,32.2c0,0.4,0.1,0.6,0.2,0.7c0.3,0.1,0.5,0.1,0.8,0.1h0.9v1.3
				c-0.5,0.1-1,0.1-1.5,0.2c-0.5,0-1.1-0.1-1.5-0.5c-0.4-0.4-0.5-1-0.5-1.6v-9h-2.1v-1.3h2.1v-4.6h1.6v4.6h2.4v1.3h-2.4L58.3,32.2z"
				/>
		</g>
		<g id="Group_23" transform="translate(1134.162 315.681)">
			<line id="Line_12" class="st9" x1="0" y1="0" x2="43" y2="0"/>
			<line id="Line_13" class="st9" x1="0" y1="15.3" x2="43" y2="15.3"/>
			<line id="Line_14" class="st9" x1="0" y1="30.6" x2="43" y2="30.6"/>
		</g>
		<g id="search_bar-4" transform="translate(408.505 424.889)">
			<g transform="matrix(1, 0, 0, 1, -408.5, -424.89)">
				<path id="Rectangle_16-20" class="st10" d="M434.2,424.9h183.6c14.2,0,25.7,11.5,25.7,25.7l0,0c0,14.2-11.5,25.7-25.7,25.7
					H434.2c-14.2,0-25.7-11.5-25.7-25.7l0,0C408.5,436.4,420,424.9,434.2,424.9z"/>
			</g>
			<g id="magnifying_glass-3" transform="translate(186.964 10.137)">
				<g id="Path_19-4">
					<path class="st13" d="M11.2,0c6.2,0,11.2,5,11.2,11.2s-5,11.2-11.2,11.2S0,17.4,0,11.2c0,0,0,0,0,0C0,5,5,0,11.2,0z"/>
					<path class="st2" d="M11.2,5C7.8,5,5,7.8,5,11.2s2.8,6.2,6.2,6.2c3.4,0,6.2-2.8,6.2-6.2S14.7,5,11.2,5 M11.2,0
						c6.2,0,11.2,5,11.2,11.2s-5,11.2-11.2,11.2S0,17.4,0,11.2S5,0,11.2,0z"/>
				</g>
				<path id="Path_20-4" class="st14" d="M17.7,18.5l8.7,8.9"/>
			</g>
			<path id="search-2" class="st2" d="M22.6,29.7l1.3-0.8c0.9,1.6,1.9,2.5,3.1,2.5c0.7,0,1.4-0.2,2-0.7c0.5-0.5,0.8-1.1,0.8-1.8
				c0-0.6-0.3-1.2-0.7-1.7c-0.7-0.8-1.4-1.5-2.3-2.1c-0.8-0.5-1.5-1.1-2.1-1.8c-0.4-0.4-0.6-0.8-0.8-1.3c-0.2-0.4-0.3-0.9-0.3-1.4
				c0-0.9,0.4-1.8,1-2.5c0.7-0.7,1.6-1,2.6-1c0.8,0,1.5,0.2,2.1,0.6c0.7,0.5,1.3,1.1,1.8,1.8l-1.2,0.9c-0.3-0.5-0.8-0.9-1.2-1.3
				c-0.4-0.4-1-0.5-1.5-0.5c-0.5,0-1.1,0.2-1.5,0.5c-0.4,0.4-0.6,0.9-0.6,1.4c0,0.5,0.2,1,0.5,1.5c0.7,0.7,1.5,1.4,2.3,1.9
				c1,0.7,1.9,1.5,2.6,2.5c0.5,0.7,0.8,1.5,0.8,2.4c0,1.1-0.5,2.1-1.3,2.8c-0.8,0.8-1.8,1.2-2.9,1.2C25.2,32.9,23.7,31.9,22.6,29.7z
				 M43.6,28.9l1.2,0.6c-0.9,2.1-3,3.4-5.3,3.3c-1.6,0-3.1-0.6-4.1-1.7c-1.1-1.1-1.7-2.6-1.6-4.1c0-1.5,0.6-3,1.6-4.1
				c1-1.1,2.5-1.8,4-1.7c1.5,0,3,0.5,4,1.6c1.1,1.2,1.7,2.8,1.7,4.4h-10c0,1.2,0.4,2.4,1.3,3.2c0.8,0.8,1.8,1.2,2.9,1.2
				C41.2,31.6,42.9,30.6,43.6,28.9z M43.6,25.9c-0.2-1-0.7-1.9-1.5-2.5c-0.8-0.6-1.7-0.9-2.7-0.9c-2.1,0-3.4,1.1-4.1,3.4L43.6,25.9z
				 M58.9,21.5v11.1h-1.4v-1.9c-1,1.4-2.6,2.2-4.3,2.3c-1.6,0-3.1-0.6-4.1-1.7c-1.1-1.1-1.7-2.6-1.7-4.1c0-1.5,0.6-3,1.7-4.1
				c1-1.1,2.5-1.7,4-1.7c1.8,0,3.4,0.8,4.4,2.3v-2L58.9,21.5z M57.6,27.1c0-1.2-0.4-2.3-1.3-3.2c-0.8-0.9-1.9-1.3-3.1-1.3
				c-1.2,0-2.3,0.5-3.1,1.3c-0.8,0.8-1.3,2-1.3,3.2c0,1.2,0.5,2.3,1.3,3.2c0.8,0.9,1.9,1.4,3.1,1.3c1.2,0,2.3-0.5,3.1-1.3
				C57.2,29.4,57.6,28.3,57.6,27.1L57.6,27.1z M61.6,21.5H63v1.6c0.3-0.5,0.7-1,1.1-1.4c0.3-0.3,0.8-0.5,1.2-0.5
				c0.5,0,0.9,0.1,1.4,0.4L66,22.8c-0.2-0.1-0.4-0.2-0.6-0.2c-0.5,0-0.9,0.3-1.2,0.7c-0.4,0.5-0.7,1.1-0.8,1.7
				c-0.2,1.3-0.3,2.5-0.3,3.8v3.8h-1.5V21.5z M79.2,23.8l-1.1,0.7c-0.9-1.3-2.4-2-4-1.9c-1.2,0-2.5,0.4-3.4,1.3
				c-0.9,0.8-1.4,2-1.4,3.2c0,1.2,0.5,2.4,1.3,3.3c0.9,0.9,2.1,1.4,3.4,1.4c1.6,0,3.1-0.7,4-1.9l1.1,0.8c-0.6,0.8-1.3,1.5-2.2,1.9
				c-1,0.4-2,0.7-3,0.6c-1.6,0-3.1-0.6-4.3-1.7c-1.1-1.1-1.8-2.6-1.7-4.1c0-1.6,0.6-3.1,1.7-4.2c1.2-1.2,2.8-1.8,4.5-1.7
				c1,0,2,0.2,3,0.7C78,22.3,78.7,22.9,79.2,23.8z M81.9,17.2h1.4v6.3c0.9-1.4,2.5-2.2,4.1-2.3c0.8,0,1.6,0.2,2.3,0.7
				c0.6,0.4,1.1,1,1.4,1.8c0.3,1,0.5,2.1,0.4,3.2v5.7h-1.4v-5.3c0-0.8,0-1.6-0.1-2.4c-0.1-0.4-0.2-0.9-0.5-1.2
				c-0.2-0.4-0.6-0.7-0.9-0.9c-0.4-0.2-0.9-0.3-1.4-0.3c-0.6,0-1.1,0.1-1.6,0.4c-0.5,0.3-1,0.6-1.3,1.1c-0.3,0.4-0.6,0.9-0.7,1.5
				c-0.2,1-0.2,2-0.2,3v4.1h-1.4L81.9,17.2z"/>
			<g id="magnifying_glass-4" transform="translate(186.964 10.137)">
				<g id="Path_19-5">
					<path class="st13" d="M11.2,0c6.2,0,11.2,5,11.2,11.2s-5,11.2-11.2,11.2S0,17.4,0,11.2c0,0,0,0,0,0C0,5,5,0,11.2,0z"/>
					<path class="st2" d="M11.2,5C7.8,5,5,7.8,5,11.2s2.8,6.2,6.2,6.2c3.4,0,6.2-2.8,6.2-6.2S14.7,5,11.2,5 M11.2,0
						c6.2,0,11.2,5,11.2,11.2s-5,11.2-11.2,11.2S0,17.4,0,11.2S5,0,11.2,0z"/>
				</g>
				<path id="Path_20-5" class="st14" d="M17.7,18.5l8.7,8.9"/>
			</g>
		</g>
		<g id="search_bar-5" transform="translate(670.434 424.889)">
			<g transform="matrix(1, 0, 0, 1, -670.43, -424.89)">
				<path id="Rectangle_16-21" class="st10" d="M696.1,424.9h1.8c14.2,0,25.7,11.5,25.7,25.7l0,0c0,14.2-11.5,25.7-25.7,25.7h-1.8
					c-14.2,0-25.7-11.5-25.7-25.7l0,0C670.4,436.4,681.9,424.9,696.1,424.9z"/>
			</g>
			<g id="magnifying_glass-5" transform="translate(13.042 12.242)">
				<g id="Path_19-6">
					<path class="st13" d="M11.2,0c6.2,0,11.2,5,11.2,11.2s-5,11.2-11.2,11.2S0,17.4,0,11.2c0,0,0,0,0,0C0,5,5,0,11.2,0z"/>
					<path class="st2" d="M11.2,5C7.8,5,5,7.8,5,11.2s2.8,6.2,6.2,6.2c3.4,0,6.2-2.8,6.2-6.2S14.7,5,11.2,5 M11.2,0
						c6.2,0,11.2,5,11.2,11.2s-5,11.2-11.2,11.2S0,17.4,0,11.2S5,0,11.2,0z"/>
				</g>
				<path id="Path_20-6" class="st14" d="M17.7,18.5l8.7,8.9"/>
			</g>
		</g>
		<g id="search_bar-6" transform="translate(406.705 235.868)">
			<g transform="matrix(1, 0, 0, 1, -406.7, -235.87)">
				<path id="Rectangle_16-22" class="st24" d="M432.4,235.9H616c14.2,0,25.7,11.5,25.7,25.7l0,0c0,14.2-11.5,25.7-25.7,25.7H432.4
					c-14.2,0-25.7-11.5-25.7-25.7l0,0C406.7,247.4,418.2,235.9,432.4,235.9z"/>
			</g>
			<g id="magnifying_glass-6" transform="translate(186.964 10.137)">
				<g id="Path_19-7">
					<path class="st13" d="M11.2,0c6.2,0,11.2,5,11.2,11.2s-5,11.2-11.2,11.2S0,17.4,0,11.2c0,0,0,0,0,0C0,5,5,0,11.2,0z"/>
					<path class="st2" d="M11.2,5C7.8,5,5,7.8,5,11.2s2.8,6.2,6.2,6.2c3.4,0,6.2-2.8,6.2-6.2S14.7,5,11.2,5 M11.2,0
						c6.2,0,11.2,5,11.2,11.2s-5,11.2-11.2,11.2S0,17.4,0,11.2S5,0,11.2,0z"/>
				</g>
				<path id="Path_20-7" class="st14" d="M17.7,18.5l8.7,8.9"/>
			</g>
			<path id="search-3" class="st2" d="M22.6,29.7l1.3-0.8c0.9,1.6,1.9,2.5,3.1,2.5c0.7,0,1.4-0.2,2-0.7c0.5-0.5,0.8-1.1,0.8-1.8
				c0-0.6-0.3-1.2-0.7-1.7c-0.7-0.8-1.4-1.5-2.3-2.1c-0.8-0.5-1.5-1.1-2.1-1.8c-0.4-0.4-0.6-0.8-0.8-1.3c-0.2-0.4-0.3-0.9-0.3-1.4
				c0-0.9,0.4-1.8,1-2.5c0.7-0.7,1.6-1,2.6-1c0.8,0,1.5,0.2,2.1,0.6c0.7,0.5,1.3,1.1,1.8,1.8l-1.2,0.9c-0.3-0.5-0.8-0.9-1.2-1.3
				c-0.4-0.4-1-0.5-1.5-0.5c-0.5,0-1.1,0.2-1.5,0.5c-0.4,0.4-0.6,0.9-0.6,1.4c0,0.5,0.2,1,0.5,1.5c0.7,0.7,1.5,1.4,2.3,2
				c1,0.7,1.9,1.5,2.6,2.5c0.5,0.7,0.8,1.5,0.8,2.4c0,1.1-0.5,2.1-1.3,2.8c-0.8,0.8-1.8,1.2-2.9,1.2C25.2,32.9,23.7,31.9,22.6,29.7z
				 M43.6,28.9l1.2,0.6c-0.9,2.1-3,3.4-5.3,3.3c-1.6,0-3.1-0.6-4.1-1.7c-1.1-1.1-1.7-2.6-1.6-4.1c0-1.5,0.6-3,1.6-4.1
				c1-1.1,2.5-1.8,4-1.7c1.5,0,3,0.5,4,1.6c1.1,1.2,1.7,2.8,1.7,4.4h-10c0,1.2,0.4,2.4,1.3,3.2c0.8,0.8,1.8,1.2,2.9,1.2
				C41.2,31.6,42.9,30.6,43.6,28.9z M43.6,25.9c-0.2-1-0.7-1.9-1.5-2.5c-0.8-0.6-1.7-0.9-2.7-0.9c-2.1,0-3.4,1.1-4.1,3.4L43.6,25.9z
				 M58.9,21.5v11.1h-1.4v-1.9c-1,1.4-2.6,2.2-4.3,2.3c-1.6,0-3.1-0.6-4.1-1.7c-1.1-1.1-1.7-2.6-1.7-4.2c0-1.5,0.6-3,1.7-4.1
				c1-1.1,2.5-1.7,4-1.7c1.8,0,3.4,0.8,4.4,2.3v-2L58.9,21.5z M57.6,27.1c0-1.2-0.4-2.3-1.3-3.2c-0.8-0.9-1.9-1.3-3.1-1.3
				c-1.2,0-2.3,0.5-3.1,1.3c-0.8,0.8-1.3,2-1.3,3.2c0,1.2,0.5,2.3,1.3,3.2c0.8,0.9,1.9,1.4,3.1,1.3c1.2,0,2.3-0.5,3.1-1.3
				C57.2,29.4,57.6,28.3,57.6,27.1L57.6,27.1z M61.6,21.5H63v1.6c0.3-0.5,0.7-1,1.1-1.4c0.3-0.3,0.8-0.5,1.2-0.5
				c0.5,0,0.9,0.1,1.4,0.4L66,22.8c-0.2-0.1-0.4-0.2-0.6-0.2c-0.5,0-0.9,0.3-1.2,0.7c-0.4,0.5-0.7,1.1-0.8,1.7
				c-0.2,1.3-0.3,2.5-0.3,3.8v3.8h-1.5V21.5z M79.2,23.8l-1.1,0.7c-0.9-1.3-2.4-2-4-1.9c-1.2,0-2.5,0.4-3.4,1.3
				c-0.9,0.8-1.4,2-1.4,3.2c0,1.2,0.5,2.4,1.3,3.3c0.9,0.9,2.1,1.4,3.4,1.4c1.6,0,3.1-0.7,4-1.9l1.1,0.8c-0.6,0.8-1.3,1.5-2.2,1.9
				c-1,0.4-2,0.7-3,0.6c-1.6,0-3.1-0.6-4.3-1.7c-1.1-1.1-1.8-2.6-1.7-4.1c0-1.6,0.6-3.1,1.7-4.2c1.2-1.2,2.8-1.8,4.5-1.7
				c1,0,2,0.2,3,0.7C78,22.3,78.7,22.9,79.2,23.8z M81.9,17.2h1.4v6.3c0.9-1.4,2.5-2.2,4.1-2.3c0.8,0,1.6,0.2,2.3,0.7
				c0.6,0.4,1.1,1,1.4,1.8c0.3,1,0.5,2.1,0.4,3.2v5.7h-1.4v-5.3c0-0.8,0-1.6-0.1-2.4c-0.1-0.4-0.2-0.9-0.5-1.2
				c-0.2-0.4-0.6-0.7-0.9-0.9c-0.4-0.2-0.9-0.3-1.4-0.3c-0.6,0-1.1,0.1-1.6,0.4c-0.5,0.3-1,0.6-1.3,1.1c-0.3,0.4-0.6,0.9-0.7,1.5
				c-0.2,1-0.2,2-0.2,3v4.1h-1.4L81.9,17.2z"/>
		</g>
		<g id="search_bar-7" transform="translate(668.634 235.868)">
			<g transform="matrix(1, 0, 0, 1, -668.63, -235.87)">
				<path id="Rectangle_16-23" class="st24" d="M694.3,235.9h1.8c14.2,0,25.7,11.5,25.7,25.7l0,0c0,14.2-11.5,25.7-25.7,25.7h-1.8
					c-14.2,0-25.7-11.5-25.7-25.7l0,0C668.6,247.4,680.1,235.9,694.3,235.9z"/>
			</g>
			<g id="magnifying_glass-7" transform="translate(13.042 12.242)">
				<g id="Path_19-8">
					<path class="st13" d="M11.2,0c6.2,0,11.2,5,11.2,11.2s-5,11.2-11.2,11.2S0,17.4,0,11.2c0,0,0,0,0,0C0,5,5,0,11.2,0z"/>
					<path class="st2" d="M11.2,5C7.8,5,5,7.8,5,11.2s2.8,6.2,6.2,6.2c3.4,0,6.2-2.8,6.2-6.2S14.7,5,11.2,5 M11.2,0
						c6.2,0,11.2,5,11.2,11.2s-5,11.2-11.2,11.2S0,17.4,0,11.2S5,0,11.2,0z"/>
				</g>
				<path id="Path_20-8" class="st14" d="M17.7,18.5l8.7,8.9"/>
			</g>
		</g>
		<g id="Group_25" transform="translate(495.815 135.056)">
			<g id="Rectangle_13-3" transform="translate(0 0)">
				<path class="st12" d="M16,0h22c8.8,0,16,7.2,16,16v21.1c0,8.8-7.2,16-16,16H16c-8.8,0-16-7.2-16-16V16C0,7.2,7.2,0,16,0z"/>
				<path class="st25" d="M16,0.5h22c8.6,0,15.5,6.9,15.5,15.5v21.1c0,8.6-6.9,15.5-15.5,15.5H16c-8.6,0-15.5-6.9-15.5-15.5V16
					C0.5,7.4,7.4,0.5,16,0.5z"/>
			</g>
			<g id="checkmark-2" transform="matrix(0.998, 0.07, -0.07, 0.998, 15.039, 17.11)">
				<line id="Line_1-2" class="st26" x1="0" y1="9.9" x2="10" y2="16.9"/>
				<g id="Group_21-2" transform="translate(9.984 0)">
					<line id="Line_2-2" class="st26" x1="14.5" y1="0" x2="0" y2="16.9"/>
				</g>
			</g>
			<g id="Rectangle_13-3_00000074420593818593210180000012671279214707727254_" transform="translate(0 0)">
				<path class="st27" d="M-71.9,0h22c8.8,0,16,7.2,16,16v21.1c0,8.8-7.2,16-16,16h-22c-8.8,0-16-7.2-16-16V16
					C-87.9,7.2-80.7,0-71.9,0z"/>
				<path class="st28" d="M-71.9,0.5h22c8.6,0,15.5,6.9,15.5,15.5v21.1c0,8.6-6.9,15.5-15.5,15.5h-22c-8.6,0-15.5-6.9-15.5-15.5V16
					C-87.4,7.4-80.5,0.5-71.9,0.5z"/>
			</g>
		</g>
		<g id="x_check_box-2" transform="translate(579.524 135.056)">
			<g id="Rectangle_13-4" transform="translate(0 0)">
				<path class="st16" d="M16,0h21.1c8.8,0,16,7.2,16,16v21.1c0,8.8-7.2,16-16,16H16c-8.8,0-16-7.2-16-16V16C0,7.2,7.2,0,16,0z"/>
				<path class="st29" d="M16,0.5h21.1c8.6,0,15.5,6.9,15.5,15.5v21.1c0,8.6-6.9,15.5-15.5,15.5H16c-8.6,0-15.5-6.9-15.5-15.5V16
					C0.5,7.4,7.4,0.5,16,0.5z"/>
			</g>
			<g id="X-2" transform="translate(15.592 15.591)">
				<line id="Line_4-2" class="st30" x1="0" y1="0" x2="21.8" y2="21.8"/>
				<path id="Path_18-2" class="st30" d="M21.7,0L0,21.8"/>
			</g>
		</g>
		<g id="Group_24" transform="translate(657.833 130.556)">
			<g id="Polygon_1-2" transform="translate(0 0)">
				<path class="st20" d="M54,56.6H18c-3.3,0-6.3-1.7-7.9-4.6c-1.6-2.9-1.5-6.3,0.2-9.1l18-28.7c0.9-1.4,2-2.4,3.4-3.2
					c1.3-0.7,2.8-1.1,4.3-1.1s3,0.4,4.3,1.1c1.4,0.7,2.5,1.8,3.4,3.2l18,28.7c1.8,2.8,1.8,6.2,0.2,9.1C60.2,54.9,57.3,56.6,54,56.6z
					"/>
				<path class="st20" d="M36,10.9c-1.3,0-2.6,0.3-3.8,0.9c-1.2,0.7-2.2,1.6-3,2.8l-18,28.7c-1.6,2.5-1.6,5.5-0.2,8.1
					c1.4,2.6,4,4.1,7,4.1H54c3,0,5.6-1.5,7-4.1c1.4-2.6,1.4-5.6-0.2-8.1l-18-28.7c-0.8-1.2-1.8-2.2-3-2.8
					C38.6,11.2,37.3,10.9,36,10.9 M36,8.9c3.3,0,6.5,1.6,8.5,4.7l18,28.7c4.2,6.7-0.6,15.3-8.5,15.3H18c-7.9,0-12.6-8.6-8.5-15.3
					l18-28.7C29.5,10.4,32.7,8.9,36,8.9z"/>
			</g>
			<text transform="matrix(1 0 0 1 30.603 48.902)" class="st2 st22 st23">!</text>
		</g>
		<g id="search_bar-8" transform="translate(993.695 468.795)">
			<g id="Group_30" transform="translate(0 0)">
				<g transform="matrix(1, 0, 0, 1, -993.7, -468.79)">
					<path id="Rectangle_16-24" class="st24" d="M1013,469h66c10.5,0,19,8.5,19,19v6c0,10.5-8.5,19-19,19h-66c-10.5,0-19-8.5-19-19
						v-6C994,477.5,1002.5,469,1013,469z"/>
				</g>
			</g>
		</g>
		<g id="search_bar-9" transform="translate(871.871 468.795)">
			<g transform="matrix(1, 0, 0, 1, -871.87, -468.8)">
				<path id="Rectangle_16-25" class="st12" d="M891,469h67c10.5,0,19,8.5,19,19v6c0,10.5-8.5,19-19,19h-67c-10.5,0-19-8.5-19-19v-6
					C872,477.5,880.5,469,891,469z"/>
			</g>
		</g>
		<g id="Group_31" transform="translate(871.871 548.97)">
			<g transform="matrix(1, 0, 0, 1, -871.87, -548.97)">
				<path id="Rectangle_16-26" class="st20" d="M891,549h67c10.5,0,19,8.5,19,19v5c0,10.5-8.5,19-19,19h-67c-10.5,0-19-8.5-19-19v-5
					C872,557.5,880.5,549,891,549z"/>
			</g>
		</g>
		<path id="Path_38" class="st2" d="M896.1,482.3h1.6v14.6h6.2v1.6h-7.9V482.3z M918.2,486.5v11.9h-1.5v-2c-1.1,1.5-2.8,2.4-4.7,2.5
			c-1.7,0-3.3-0.7-4.4-1.9c-1.2-1.2-1.8-2.8-1.8-4.5c0-1.7,0.6-3.3,1.8-4.5c1.1-1.2,2.7-1.9,4.4-1.9c1.9,0,3.7,0.9,4.7,2.5v-2.2
			L918.2,486.5z M916.8,492.5c0-1.3-0.5-2.5-1.4-3.5c-0.9-0.9-2.1-1.4-3.4-1.4c-1.3,0-2.5,0.5-3.4,1.5c-0.9,0.9-1.4,2.2-1.4,3.4
			c0,1.3,0.5,2.5,1.4,3.4c0.9,0.9,2.1,1.5,3.3,1.5c1.3,0,2.5-0.5,3.3-1.4C916.3,495.1,916.8,493.8,916.8,492.5z M921.8,498.4v-16.6
			h1.5v6.7c1.1-1.5,2.9-2.4,4.8-2.4c1.6,0,3.2,0.6,4.4,1.9c1.2,1.2,1.8,2.8,1.8,4.5c0,1.7-0.6,3.3-1.8,4.5c-1.1,1.2-2.7,1.9-4.4,1.9
			c-1.9,0-3.7-1-4.7-2.6v2.2L921.8,498.4z M923.2,492.4c0,1.3,0.5,2.6,1.4,3.5c0.9,0.9,2.1,1.5,3.4,1.4c1.3,0,2.5-0.5,3.4-1.5
			c0.9-0.9,1.4-2.1,1.4-3.4c0-1.3-0.5-2.5-1.4-3.4c-0.9-1-2.1-1.5-3.4-1.5c-1.3,0-2.5,0.5-3.4,1.4
			C923.6,489.8,923.1,491.1,923.2,492.4L923.2,492.4z M947,494.6l1.3,0.7c-1,2.2-3.3,3.6-5.7,3.6c-1.7,0-3.3-0.6-4.5-1.9
			c-1.2-1.2-1.8-2.8-1.8-4.5c0-1.7,0.6-3.3,1.8-4.5c1.1-1.2,2.7-1.9,4.4-1.9c1.6,0,3.2,0.6,4.4,1.7c1.2,1.3,1.9,3,1.8,4.7H938
			c0,1.3,0.5,2.5,1.4,3.5c0.8,0.9,2,1.3,3.1,1.3C944.5,497.5,946.2,496.3,947,494.6z M947,491.3c-0.2-1.1-0.7-2-1.6-2.7
			c-0.8-0.6-1.9-1-2.9-1c-2.2,0-3.7,1.2-4.4,3.6L947,491.3z M951.4,481.9h1.5v16.6h-1.5V481.9z"/>
		<path id="Path_39" class="st2" d="M1017.6,482.3h1.6v14.6h6.2v1.6h-7.9V482.3z M1039.7,486.5v11.9h-1.5v-2
			c-1.1,1.5-2.8,2.4-4.7,2.5c-1.7,0-3.3-0.7-4.4-1.9c-1.2-1.2-1.8-2.8-1.8-4.5c0-1.7,0.6-3.3,1.8-4.5c1.1-1.2,2.7-1.9,4.4-1.9
			c1.9,0,3.7,0.9,4.7,2.5v-2.2L1039.7,486.5z M1038.3,492.5c0-1.3-0.5-2.5-1.4-3.5c-0.9-0.9-2.1-1.4-3.4-1.4c-1.3,0-2.5,0.5-3.4,1.5
			c-0.9,0.9-1.4,2.2-1.4,3.4c0,1.3,0.5,2.5,1.4,3.4c0.9,0.9,2.1,1.5,3.3,1.5c1.3,0,2.5-0.5,3.3-1.4
			C1037.8,495.1,1038.3,493.8,1038.3,492.5z M1043.3,498.4v-16.6h1.5v6.7c1.1-1.5,2.9-2.4,4.8-2.4c1.6,0,3.2,0.6,4.4,1.9
			c1.2,1.2,1.8,2.8,1.8,4.5c0,1.7-0.6,3.3-1.8,4.5c-1.1,1.2-2.7,1.9-4.4,1.9c-1.9,0-3.7-1-4.7-2.6v2.2L1043.3,498.4z M1044.7,492.4
			c0,1.3,0.5,2.6,1.4,3.5c0.9,0.9,2.1,1.5,3.4,1.4c1.3,0,2.5-0.5,3.4-1.5c0.9-0.9,1.4-2.1,1.4-3.4c0-1.3-0.5-2.5-1.3-3.4
			c-0.9-1-2.1-1.5-3.4-1.5c-1.3,0-2.5,0.5-3.4,1.4C1045.1,489.8,1044.6,491.1,1044.7,492.4L1044.7,492.4z M1068.6,494.6l1.3,0.7
			c-1,2.2-3.3,3.6-5.7,3.6c-1.7,0-3.3-0.6-4.5-1.9c-1.2-1.2-1.8-2.8-1.8-4.5c0-1.7,0.6-3.3,1.8-4.5c1.1-1.2,2.7-1.9,4.4-1.9
			c1.6,0,3.2,0.6,4.4,1.7c1.2,1.3,1.9,3,1.8,4.7h-10.8c0,1.3,0.5,2.5,1.4,3.5c0.8,0.9,2,1.3,3.1,1.3
			C1066,497.5,1067.8,496.3,1068.6,494.6z M1068.6,491.3c-0.2-1.1-0.7-2-1.6-2.7c-0.8-0.6-1.9-1-2.9-1c-2.2,0-3.7,1.2-4.4,3.6
			L1068.6,491.3z M1072.9,481.9h1.5v16.6h-1.5V481.9z"/>
		<g id="sort_by_bar-2" transform="translate(868.553 389.529)">
			<g id="search_bar-10" transform="translate(0 0)">
				<path id="Rectangle_16-27" class="st2" d="M17,0h199.1c9.4,0,17,7.6,17,17v8.3c0,9.4-7.6,17-17,17H17c-9.4,0-17-7.6-17-17V17
					C0,7.6,7.6,0,17,0z"/>
			</g>
			<g id="back_arrow-2" transform="translate(204.044 26.473) rotate(-90)">
				<line id="Line_10-2" class="st31" x1="0" y1="7.7" x2="7" y2="0"/>
				<path id="Path_23-2" class="st31" d="M0,7.7l7,7.4"/>
			</g>
			<path id="Path_33-2" class="st3" d="M20.2,18.5c-0.3-0.4-0.7-0.8-1.1-1.1c-0.3-0.2-0.7-0.3-1-0.3c-0.4,0-0.7,0.1-1,0.4
				c-0.3,0.2-0.4,0.6-0.4,1c0,0.4,0.1,0.7,0.4,1c0.5,0.5,1.1,1,1.7,1.4c0.8,0.5,1.4,1.1,2,1.9c0.4,0.5,0.6,1.2,0.6,1.8
				c0,0.8-0.4,1.6-1,2.2c-0.6,0.6-1.4,0.9-2.3,0.9c-1.6,0-3-1.1-3.6-2.5l1.1-0.7c0.7,1.3,1.4,1.9,2.3,1.9c0.5,0,1-0.2,1.4-0.5
				c0.4-0.3,0.6-0.7,0.6-1.2c0-0.5-0.2-0.9-0.5-1.3c-0.5-0.6-1.1-1.1-1.7-1.5c-0.6-0.4-1.1-0.9-1.6-1.4c-0.3-0.3-0.5-0.6-0.6-1
				c-0.1-0.3-0.2-0.7-0.2-1.1c0-0.7,0.3-1.4,0.8-1.9c0.5-0.5,1.3-0.8,2-0.8c0.6,0,1.2,0.2,1.7,0.5c0.6,0.4,1,0.9,1.4,1.5L20.2,18.5z
				 M27.5,18.7c1.2,0,2.3,0.5,3.1,1.3c0.8,0.8,1.3,2,1.3,3.2c0,1.2-0.4,2.3-1.3,3.2c-0.8,0.9-2,1.3-3.2,1.3c-1.2,0-2.3-0.5-3.2-1.3
				c-0.8-0.8-1.3-2-1.3-3.2c0-1.2,0.4-2.3,1.3-3.2C25.2,19.2,26.3,18.7,27.5,18.7z M27.5,26.5c0.8,0,1.6-0.3,2.2-0.9
				c0.6-0.6,0.9-1.4,0.9-2.3c0-0.9-0.3-1.7-0.9-2.3c-0.6-0.6-1.4-1-2.2-1c-0.8,0-1.6,0.4-2.2,1c-0.6,0.6-0.9,1.5-0.9,2.3
				c0,0.8,0.3,1.7,0.9,2.3C25.8,26.2,26.7,26.5,27.5,26.5z M37.3,19.1l-0.7,1.1c-0.2-0.1-0.3-0.1-0.5-0.1c-0.4,0-0.7,0.2-0.9,0.5
				c-0.3,0.4-0.5,0.8-0.6,1.2c-0.2,0.9-0.2,1.9-0.2,2.8v2.9h-1.3V19h1.3v0.9c0.2-0.3,0.5-0.6,0.8-0.9c0.3-0.2,0.6-0.3,0.9-0.3
				C36.6,18.8,37,18.9,37.3,19.1z M42.3,20.1h-1.7v6c0,0.2,0,0.4,0.1,0.4c0.1,0.1,0.3,0.1,0.5,0.1H42v1.1c-0.4,0.1-0.8,0.1-1.1,0.1
				c-0.4,0-0.8-0.1-1.1-0.4c-0.3-0.3-0.4-0.7-0.4-1.2v-6.1h-1.5V19h1.5v-3.2h1.3V19h1.7L42.3,20.1z M49,20.2c0.8-0.9,2-1.5,3.2-1.5
				c1.2,0,2.3,0.5,3.1,1.3c0.8,0.8,1.3,2,1.3,3.2c0,1.2-0.5,2.3-1.3,3.2c-0.8,0.9-2,1.3-3.1,1.3c-1.2,0-2.4-0.6-3.2-1.6v1.3h-1.3
				V15.7H49L49,20.2z M52.1,26.5c0.9,0,1.7-0.3,2.3-1c0.6-0.6,0.9-1.4,0.9-2.3c0-0.9-0.3-1.7-0.9-2.3c-0.6-0.6-1.4-1-2.3-1
				c-0.9,0-1.7,0.3-2.3,0.9c-0.6,0.6-0.9,1.5-0.9,2.3c0,0.9,0.3,1.7,0.9,2.4C50.4,26.2,51.2,26.5,52.1,26.5L52.1,26.5z M65.6,19
				l-5.1,11.5h-1.3l1.6-3.8L57.4,19h1.3l2.8,6.2l2.7-6.2H65.6z"/>
		</g>
		<g id="Group_32" transform="translate(993.695 548.97)">
			<path id="Rectangle_30" class="st2" d="M19.3,0h66c10.5,0,19,8.5,19,19v5c0,10.5-8.5,19-19,19h-66c-10.5,0-19-8.5-19-19v-5
				C0.3,8.5,8.8,0,19.3,0z"/>
		</g>
		<path id="Path_37" class="st2" d="M901.7,574.6l1.4-0.8c1,1.8,2.1,2.7,3.4,2.7c0.8,0,1.5-0.3,2.1-0.8c0.6-0.5,0.9-1.2,0.9-2
			c0-0.7-0.3-1.3-0.7-1.9c-0.7-0.8-1.6-1.6-2.5-2.2c-0.8-0.6-1.6-1.2-2.3-1.9c-0.4-0.4-0.7-0.9-0.9-1.4c-0.2-0.5-0.3-1-0.3-1.5
			c0-1,0.4-2,1.1-2.7c0.7-0.7,1.8-1.1,2.8-1.1c0.8,0,1.6,0.2,2.3,0.7c0.8,0.5,1.4,1.2,1.9,2l-1.3,1c-0.4-0.5-0.8-1-1.3-1.4
			c-0.5-0.4-1.1-0.6-1.7-0.6c-0.6,0-1.2,0.2-1.6,0.6c-0.4,0.4-0.6,0.9-0.6,1.5c0,0.6,0.2,1.1,0.6,1.6c0.8,0.8,1.6,1.5,2.5,2.1
			c1.1,0.7,2,1.6,2.8,2.7c0.6,0.7,0.9,1.6,0.9,2.6c0,1.2-0.5,2.3-1.4,3c-0.8,0.8-2,1.3-3.2,1.3C904.5,578,902.8,576.9,901.7,574.6z
			 M926.2,565.7v11.9h-1.5v-2c-1.1,1.5-2.8,2.4-4.7,2.5c-1.7,0-3.3-0.7-4.4-1.9c-1.2-1.2-1.8-2.8-1.8-4.5c0-1.7,0.6-3.3,1.8-4.5
			c1.1-1.2,2.7-1.9,4.4-1.9c1.9,0,3.7,0.9,4.7,2.5v-2.2L926.2,565.7z M924.8,571.7c0-1.3-0.5-2.5-1.4-3.5c-0.9-0.9-2.1-1.4-3.4-1.4
			c-1.3,0-2.5,0.5-3.4,1.5c-0.9,0.9-1.4,2.2-1.4,3.4c0,1.3,0.5,2.5,1.4,3.4c0.9,0.9,2.1,1.5,3.3,1.5c1.3,0,2.5-0.5,3.3-1.4
			C924.3,574.3,924.8,573,924.8,571.7z M929.4,561.1h1.5v16.6h-1.5V561.1z M944.2,573.8l1.3,0.7c-1,2.2-3.3,3.6-5.7,3.6
			c-1.7,0-3.3-0.6-4.5-1.9c-1.2-1.2-1.8-2.8-1.8-4.5c0-1.7,0.6-3.3,1.8-4.5c1.1-1.2,2.7-1.9,4.4-1.9c1.6,0,3.2,0.6,4.4,1.7
			c1.2,1.3,1.9,3,1.8,4.7h-10.8c0,1.3,0.5,2.5,1.4,3.5c0.8,0.9,2,1.3,3.1,1.3C941.6,576.7,943.4,575.5,944.2,573.8z M944.2,570.5
			c-0.2-1.1-0.7-2-1.6-2.7c-0.8-0.6-1.9-1-2.9-1c-2.2,0-3.7,1.2-4.4,3.6H944.2z"/>
		<path id="Path_36" class="st3" d="M1002.5,574.6l1.4-0.8c1,1.8,2.1,2.7,3.4,2.7c0.8,0,1.5-0.3,2.1-0.8c0.6-0.5,0.9-1.2,0.9-2
			c0-0.7-0.3-1.3-0.7-1.9c-0.7-0.8-1.6-1.6-2.5-2.2c-0.8-0.6-1.6-1.2-2.3-1.9c-0.4-0.4-0.7-0.9-0.9-1.4c-0.2-0.5-0.3-1-0.3-1.5
			c0-1,0.4-2,1.1-2.7c0.7-0.7,1.8-1.1,2.8-1.1c0.8,0,1.6,0.2,2.3,0.7c0.8,0.5,1.4,1.2,1.9,2l-1.3,1c-0.4-0.5-0.8-1-1.3-1.4
			c-0.5-0.4-1.1-0.6-1.7-0.6c-0.6,0-1.2,0.2-1.6,0.6c-0.4,0.4-0.6,0.9-0.6,1.5c0,0.6,0.2,1.1,0.6,1.6c0.8,0.8,1.6,1.5,2.5,2.1
			c1.1,0.7,2,1.6,2.8,2.7c0.6,0.7,0.9,1.6,0.9,2.6c0,1.2-0.5,2.3-1.4,3c-0.8,0.8-2,1.3-3.2,1.3
			C1005.3,578,1003.7,576.9,1002.5,574.6z M1014.5,571.7c0-1.7,0.6-3.3,1.8-4.5c1.1-1.2,2.7-1.9,4.4-1.9c1.7,0,3.3,0.7,4.4,1.9
			c1.2,1.2,1.8,2.8,1.8,4.5c0,1.7-0.6,3.3-1.8,4.5c-1.1,1.2-2.8,1.9-4.4,1.9c-1.7,0-3.3-0.6-4.4-1.9
			C1015.2,575,1014.5,573.4,1014.5,571.7L1014.5,571.7z M1025.4,571.8c0-1.3-0.5-2.5-1.4-3.4c-0.8-0.9-2-1.5-3.3-1.5
			c-1.2,0-2.4,0.5-3.3,1.5c-0.9,0.9-1.4,2.2-1.4,3.5c0,1.3,0.4,2.5,1.3,3.4c0.8,0.9,2.1,1.4,3.3,1.4c1.3,0,2.5-0.5,3.3-1.4
			C1025,574.3,1025.4,573,1025.4,571.8L1025.4,571.8z M1029.6,561.1h1.5v16.6h-1.5V561.1z M1046.3,561.1v16.6h-1.5v-2
			c-1.1,1.5-2.8,2.4-4.7,2.5c-1.7,0-3.3-0.6-4.4-1.9c-1.2-1.2-1.8-2.8-1.8-4.5c0-1.7,0.6-3.3,1.8-4.5c1.1-1.2,2.7-1.9,4.4-1.9
			c1.9,0,3.7,0.9,4.7,2.5v-6.8H1046.3z M1044.8,571.7c0-1.3-0.5-2.5-1.3-3.5c-0.9-0.9-2.1-1.4-3.4-1.4c-1.3,0-2.5,0.5-3.4,1.5
			c-0.9,0.9-1.4,2.1-1.4,3.4c0,1.3,0.5,2.5,1.4,3.4c0.8,0.9,2,1.5,3.3,1.5c1.3,0,2.5-0.5,3.3-1.4
			C1044.4,574.3,1044.9,573.1,1044.8,571.7z M1054.8,571.7c0-1.7,0.6-3.3,1.8-4.5c1.1-1.2,2.7-1.9,4.4-1.9c1.7,0,3.3,0.7,4.4,1.9
			c1.2,1.2,1.8,2.8,1.8,4.5c0,1.7-0.6,3.3-1.8,4.5c-1.1,1.2-2.8,1.9-4.4,1.9c-1.7,0-3.3-0.6-4.4-1.9
			C1055.4,575,1054.8,573.4,1054.8,571.7L1054.8,571.7z M1065.7,571.8c0-1.3-0.5-2.5-1.4-3.4c-0.8-0.9-2-1.5-3.3-1.5
			c-1.2,0-2.4,0.5-3.3,1.5c-0.9,0.9-1.4,2.2-1.4,3.5c0,1.3,0.4,2.5,1.3,3.4c0.8,0.9,2.1,1.4,3.3,1.4c1.3,0,2.5-0.5,3.3-1.4
			C1065.2,574.3,1065.7,573,1065.7,571.8L1065.7,571.8z M1080.4,577.6h-1.6v-2.1c-1,1.5-2.7,2.4-4.5,2.5c-0.9,0-1.7-0.2-2.4-0.7
			c-0.7-0.5-1.2-1.1-1.5-1.9c-0.3-1.1-0.5-2.3-0.4-3.5v-6.1h1.5v5.7c0,0.9,0,1.9,0.2,2.8c0.1,0.5,0.3,0.9,0.6,1.3
			c0.3,0.3,0.6,0.6,1,0.8c0.5,0.2,1,0.3,1.5,0.3c0.6,0,1.2-0.2,1.7-0.4c0.6-0.3,1-0.7,1.4-1.2c0.4-0.5,0.6-1,0.8-1.6
			c0.2-1.1,0.2-2.2,0.2-3.3v-4.4h1.6V577.6z M1086.7,575.7c0,0.4,0.1,0.6,0.2,0.7c0.3,0.1,0.5,0.1,0.8,0.1h0.9v1.3
			c-0.5,0.1-1,0.1-1.5,0.2c-0.5,0-1.1-0.1-1.5-0.5c-0.4-0.4-0.5-1-0.5-1.5v-9h-2.1v-1.3h2.1v-4.6h1.6v4.6h2.4v1.3h-2.4L1086.7,575.7
			z"/>
		<g id="dark_blue_button-3" transform="translate(67 596.866)">
			<g transform="matrix(1, 0, 0, 1, -67, -596.87)">
				<path id="Rectangle_9-8" class="st20" d="M106.5,597h152c21.8,0,39.5,17.7,39.5,39.5l0,0c0,21.8-17.7,39.5-39.5,39.5h-152
					C84.7,676,67,658.3,67,636.5l0,0C67,614.7,84.7,597,106.5,597z"/>
			</g>
			<path id="button-5" class="st2" d="M65.7,25.5h4.8c2-0.1,4.1,0.4,5.8,1.5c1.3,1.1,2.1,2.7,2,4.4c0,1-0.3,2-0.8,2.9
				c-0.6,0.9-1.4,1.7-2.3,2.1c1.5,0.4,2.8,1.3,3.8,2.4c0.9,1.1,1.3,2.4,1.3,3.8c0,1.9-0.8,3.7-2.2,5c-1.6,1.4-3.6,2.1-5.7,2h-6.7
				V25.5z M68.1,27.9v7.7h1.4c1.6,0.1,3.3-0.2,4.7-1c1-0.7,1.6-1.9,1.5-3.2c0-2.4-1.6-3.6-4.8-3.6L68.1,27.9z M68.1,38v9.3h3
				c1.3,0.1,2.6-0.1,3.8-0.5c0.8-0.3,1.5-0.9,2-1.6c0.5-0.6,0.8-1.4,0.8-2.2c0-0.7-0.1-1.4-0.4-2c-0.3-0.6-0.8-1.1-1.3-1.5
				c-0.6-0.5-1.3-0.8-2.1-1c-1.5-0.3-3-0.4-4.5-0.3L68.1,38z M99.9,49.7h-2.3v-3.2c-1.5,2.3-4,3.6-6.7,3.7c-1.3,0-2.6-0.4-3.6-1.1
				c-1-0.7-1.8-1.7-2.3-2.9c-0.5-1.7-0.7-3.4-0.7-5.2v-9.2h2.3v8.5c-0.1,1.4,0,2.8,0.3,4.2c0.2,0.7,0.5,1.3,0.9,1.9
				c0.4,0.5,0.9,0.9,1.5,1.2c0.7,0.3,1.4,0.4,2.2,0.4c0.9,0,1.8-0.2,2.5-0.6c0.8-0.4,1.6-1,2.1-1.8c0.6-0.7,1-1.5,1.2-2.4
				c0.3-1.6,0.4-3.2,0.3-4.9v-6.6h2.3L99.9,49.7z M109.4,46.8c0,0.6,0.1,1,0.2,1.1c0.4,0.2,0.8,0.2,1.2,0.2h1.4v2
				c-0.7,0.1-1.5,0.2-2.2,0.2c-0.8,0.1-1.6-0.2-2.2-0.7c-0.5-0.7-0.8-1.5-0.7-2.3V33.7h-3.2v-2h3.2v-6.9h2.3v6.9h3.6v2h-3.6
				L109.4,46.8z M120.8,46.8c0,0.6,0.1,1,0.2,1.1c0.4,0.2,0.8,0.2,1.2,0.2h1.4v2c-0.7,0.1-1.5,0.2-2.2,0.2c-0.8,0.1-1.6-0.2-2.2-0.7
				c-0.5-0.7-0.8-1.5-0.7-2.3V33.7h-3.2v-2h3.2v-6.9h2.3v6.9h3.6v2h-3.6L120.8,46.8z M127,40.8c0-2.5,0.9-4.9,2.7-6.7
				c1.7-1.8,4.1-2.8,6.6-2.8c2.5,0,4.9,1,6.6,2.8c1.8,1.8,2.7,4.2,2.7,6.7c0,2.5-0.9,4.9-2.7,6.7c-1.7,1.8-4.1,2.8-6.6,2.8
				c-2.5,0.1-4.9-1-6.6-2.8C127.9,45.7,126.9,43.3,127,40.8L127,40.8z M143.3,40.9c0-1.9-0.7-3.8-2.1-5.1c-1.3-1.4-3-2.2-4.9-2.2
				c-1.9,0-3.7,0.8-4.9,2.2c-1.3,1.4-2.1,3.2-2.1,5.2c0,1.9,0.7,3.7,2,5.1c1.3,1.4,3.1,2.1,4.9,2.1c1.9,0,3.7-0.7,5-2.1
				C142.6,44.6,143.3,42.8,143.3,40.9L143.3,40.9z M149.9,31.8h2.3V35c1.5-2.3,4-3.6,6.7-3.7c1.3,0,2.6,0.4,3.6,1.1
				c1,0.7,1.8,1.7,2.3,2.9c0.5,1.7,0.7,3.4,0.7,5.2v9.2h-2.3v-8.5c0.1-1.4,0-2.8-0.3-4.2c-0.2-0.7-0.5-1.3-0.9-1.9
				c-0.4-0.5-0.9-0.9-1.5-1.2c-0.7-0.3-1.4-0.4-2.2-0.4c-0.9,0-1.8,0.2-2.5,0.6c-0.8,0.4-1.6,1-2.1,1.8c-0.6,0.7-1,1.5-1.2,2.4
				c-0.3,1.6-0.4,3.2-0.3,4.9v6.6h-2.3L149.9,31.8z"/>
		</g>
		<g id="search_bar-11" transform="translate(670.434 519.399)">
			<g transform="matrix(1, 0, 0, 1, -670.43, -519.4)">
				<path id="Rectangle_16-28" class="st13" d="M696.1,519.4h1.8c14.2,0,25.7,11.5,25.7,25.7l0,0c0,14.2-11.5,25.7-25.7,25.7h-1.8
					c-14.2,0-25.7-11.5-25.7-25.7l0,0C670.4,530.9,681.9,519.4,696.1,519.4z"/>
			</g>
			<g id="magnifying_glass-8" transform="translate(13.042 12.242)">
				<g transform="matrix(1, 0, 0, 1, -683.48, -531.64)">
					<g id="Path_19-9" transform="translate(683.48 531.64)">
						<path class="st13" d="M11.2,0c6.2,0,11.2,5,11.2,11.2s-5,11.2-11.2,11.2S0,17.4,0,11.2c0,0,0,0,0,0C0,5,5,0,11.2,0z"/>
						<path d="M11.2,5C7.8,5,5,7.8,5,11.2s2.8,6.2,6.2,6.2c3.4,0,6.2-2.8,6.2-6.2S14.7,5,11.2,5 M11.2,0c6.2,0,11.2,5,11.2,11.2
							s-5,11.2-11.2,11.2S0,17.4,0,11.2S5,0,11.2,0z"/>
					</g>
				</g>
				<g transform="matrix(1, 0, 0, 1, -683.48, -531.64)">
					<path id="Path_20-9" class="st15" d="M701.2,550.2l8.7,8.9"/>
				</g>
			</g>
		</g>
		<g id="Group_34" transform="translate(408.505 519.399)">
			<g id="search_bar-12" transform="translate(0 0)">
				<g transform="matrix(1, 0, 0, 1, -408.5, -519.4)">
					<path id="Rectangle_16-29" class="st2" d="M434.2,519.4h183.6c14.2,0,25.7,11.5,25.7,25.7l0,0c0,14.2-11.5,25.7-25.7,25.7
						H434.2c-14.2,0-25.7-11.5-25.7-25.7l0,0C408.5,530.9,420,519.4,434.2,519.4z"/>
				</g>
				<g id="magnifying_glass-9" transform="translate(186.964 10.137)">
					<path id="Path_19-10" class="st13" d="M11.2,0c6.2,0,11.2,5,11.2,11.2s-5,11.2-11.2,11.2S0,17.4,0,11.2c0,0,0,0,0,0
						C0,5,5,0,11.2,0z"/>
					<path id="Path_20-10" class="st13" d="M17.7,18.5l8.7,8.9"/>
				</g>
				<path id="search-4" class="st32" d="M22.6,29.7l1.3-0.8c0.9,1.6,1.9,2.5,3.1,2.5c0.7,0,1.4-0.2,2-0.7c0.5-0.5,0.8-1.1,0.8-1.8
					c0-0.6-0.3-1.2-0.7-1.7c-0.7-0.8-1.4-1.5-2.3-2.1c-0.8-0.5-1.5-1.1-2.1-1.8c-0.4-0.4-0.6-0.8-0.8-1.3c-0.2-0.4-0.3-0.9-0.3-1.4
					c0-0.9,0.4-1.8,1-2.5c0.7-0.7,1.6-1,2.6-1c0.8,0,1.5,0.2,2.1,0.6c0.7,0.5,1.3,1.1,1.8,1.8l-1.2,0.9c-0.3-0.5-0.8-0.9-1.2-1.3
					c-0.4-0.4-1-0.5-1.5-0.5c-0.5,0-1.1,0.2-1.5,0.5c-0.4,0.4-0.6,0.9-0.6,1.4c0,0.5,0.2,1,0.5,1.5c0.7,0.7,1.5,1.4,2.3,1.9
					c1,0.7,1.9,1.5,2.6,2.5c0.5,0.7,0.8,1.5,0.8,2.4c0,1.1-0.5,2.1-1.3,2.8c-0.8,0.8-1.8,1.2-2.9,1.2C25.2,32.9,23.7,31.9,22.6,29.7
					z M43.6,28.9l1.2,0.6c-0.9,2.1-3,3.4-5.3,3.3c-1.6,0-3.1-0.6-4.1-1.7c-1.1-1.1-1.7-2.6-1.6-4.1c0-1.5,0.6-3,1.6-4.1
					c1-1.1,2.5-1.8,4-1.7c1.5,0,3,0.5,4,1.6c1.1,1.2,1.7,2.8,1.7,4.4h-10c0,1.2,0.4,2.4,1.3,3.2c0.8,0.8,1.8,1.2,2.9,1.2
					C41.2,31.6,42.9,30.6,43.6,28.9z M43.6,25.9c-0.2-1-0.7-1.9-1.5-2.5c-0.8-0.6-1.7-0.9-2.7-0.9c-2.1,0-3.4,1.1-4.1,3.4L43.6,25.9
					z M58.9,21.5v11.1h-1.4v-1.9c-1,1.4-2.6,2.2-4.3,2.3c-1.6,0-3.1-0.6-4.1-1.7c-1.1-1.1-1.7-2.6-1.7-4.1c0-1.5,0.6-3,1.7-4.1
					c1-1.1,2.5-1.7,4-1.7c1.8,0,3.4,0.8,4.4,2.3v-2L58.9,21.5z M57.6,27.1c0-1.2-0.4-2.3-1.3-3.2c-0.8-0.9-1.9-1.3-3.1-1.3
					c-1.2,0-2.3,0.5-3.1,1.3c-0.8,0.8-1.3,2-1.3,3.2c0,1.2,0.5,2.3,1.3,3.2c0.8,0.9,1.9,1.4,3.1,1.3c1.2,0,2.3-0.5,3.1-1.3
					C57.2,29.4,57.6,28.3,57.6,27.1L57.6,27.1z M61.6,21.5H63v1.6c0.3-0.5,0.7-1,1.1-1.4c0.3-0.3,0.8-0.5,1.2-0.5
					c0.5,0,0.9,0.1,1.4,0.4L66,22.8c-0.2-0.1-0.4-0.2-0.6-0.2c-0.5,0-0.9,0.3-1.2,0.7c-0.4,0.5-0.7,1.1-0.8,1.7
					c-0.2,1.3-0.3,2.5-0.3,3.8v3.8h-1.5V21.5z M79.2,23.8l-1.1,0.7c-0.9-1.3-2.4-2-4-1.9c-1.2,0-2.5,0.4-3.4,1.3
					c-0.9,0.8-1.4,2-1.4,3.2c0,1.2,0.5,2.4,1.3,3.3c0.9,0.9,2.1,1.4,3.4,1.4c1.6,0,3.1-0.7,4-1.9l1.1,0.8c-0.6,0.8-1.3,1.5-2.2,1.9
					c-1,0.4-2,0.7-3,0.6c-1.6,0-3.1-0.6-4.3-1.7c-1.1-1.1-1.8-2.6-1.7-4.1c0-1.6,0.6-3.1,1.7-4.2c1.2-1.2,2.8-1.8,4.5-1.7
					c1,0,2,0.2,3,0.7C78,22.3,78.7,22.9,79.2,23.8z M81.9,17.2h1.4v6.3c0.9-1.4,2.5-2.2,4.1-2.3c0.8,0,1.6,0.2,2.3,0.7
					c0.6,0.4,1.1,1,1.4,1.8c0.3,1,0.5,2.1,0.4,3.2v5.7h-1.4v-5.3c0-0.8,0-1.6-0.1-2.4c-0.1-0.4-0.2-0.9-0.5-1.2
					c-0.2-0.4-0.6-0.7-0.9-0.9c-0.4-0.2-0.9-0.3-1.4-0.3c-0.6,0-1.1,0.1-1.6,0.4c-0.5,0.3-1,0.6-1.3,1.1c-0.3,0.4-0.6,0.9-0.7,1.5
					c-0.2,1-0.2,2-0.2,3v4.1h-1.4L81.9,17.2z"/>
			</g>
			<g id="magnifying_glass-10" transform="translate(186.964 10.137)">
				<g id="Path_19-11">
					<path class="st13" d="M11.2,0c6.2,0,11.2,5,11.2,11.2s-5,11.2-11.2,11.2S0,17.4,0,11.2c0,0,0,0,0,0C0,5,5,0,11.2,0z"/>
					<path d="M11.2,5C7.8,5,5,7.8,5,11.2s2.8,6.2,6.2,6.2c3.4,0,6.2-2.8,6.2-6.2S14.7,5,11.2,5 M11.2,0c6.2,0,11.2,5,11.2,11.2
						s-5,11.2-11.2,11.2S0,17.4,0,11.2S5,0,11.2,0z"/>
				</g>
				<path id="Path_20-11" class="st15" d="M17.7,18.5l8.7,8.9"/>
			</g>
		</g>
		<g id="search_bar-13" transform="translate(871.871 627.062)">
			<g id="Group_33" transform="translate(0 0)">
				<g transform="matrix(1, 0, 0, 1, -871.87, -627.06)">
					<path id="Rectangle_16-30" class="st2" d="M891,627h188c10.5,0,19,8.5,19,19v6c0,10.5-8.5,19-19,19H891c-10.5,0-19-8.5-19-19
						v-6C872,635.5,880.5,627,891,627z"/>
				</g>
			</g>
		</g>
		<path id="Path_42" d="M922.7,640.9h1.6v14.6h6.2v1.6h-7.9V640.9z M944.8,645.1v11.9h-1.5v-2c-1.1,1.5-2.8,2.4-4.7,2.5
			c-1.7,0-3.3-0.7-4.4-1.9c-1.2-1.2-1.8-2.8-1.8-4.5c0-1.7,0.6-3.3,1.8-4.5c1.1-1.2,2.7-1.9,4.4-1.9c1.9,0,3.7,0.9,4.7,2.5v-2.2
			L944.8,645.1z M943.3,651.2c0-1.3-0.5-2.5-1.4-3.5c-0.9-0.9-2.1-1.4-3.4-1.4c-1.3,0-2.5,0.5-3.4,1.5c-0.9,0.9-1.4,2.2-1.4,3.4
			c0,1.3,0.5,2.5,1.4,3.4c0.9,0.9,2.1,1.5,3.3,1.5c1.3,0,2.5-0.5,3.3-1.4C942.9,653.7,943.4,652.5,943.3,651.2z M947.6,645.1h1.6
			v1.7c0.3-0.6,0.7-1.1,1.2-1.6c0.4-0.3,0.8-0.5,1.3-0.5c0.5,0,1,0.1,1.5,0.4l-0.8,1.3c-0.2-0.1-0.5-0.2-0.7-0.2
			c-0.5,0-1,0.3-1.3,0.7c-0.4,0.5-0.8,1.2-0.9,1.9c-0.2,1.4-0.3,2.7-0.3,4.1v4.1h-1.6L947.6,645.1z M965.5,645.1h1.6v9.2
			c0.1,1.2-0.1,2.4-0.4,3.6c-0.3,0.7-0.7,1.4-1.2,1.9c-0.6,0.5-1.2,0.9-2,1.2c-0.8,0.3-1.7,0.4-2.5,0.4c-3.1,0-5.2-1.2-6.2-3.7h1.7
			c0.9,1.6,2.6,2.5,4.4,2.3c0.9,0,1.8-0.2,2.6-0.6c0.7-0.3,1.2-0.8,1.6-1.5c0.4-0.9,0.5-1.9,0.5-2.8v-0.5c-0.6,0.7-1.3,1.3-2.2,1.7
			c-0.8,0.4-1.7,0.6-2.7,0.6c-1.6,0-3.2-0.6-4.3-1.8c-1.1-1.1-1.7-2.6-1.7-4.2c0-1.6,0.7-3.2,1.8-4.3c1.2-1.2,2.8-1.8,4.5-1.8
			c1.8,0,3.5,0.9,4.6,2.4L965.5,645.1z M965.5,650.9c0-1.2-0.5-2.4-1.3-3.3c-0.9-0.9-2.1-1.4-3.3-1.3c-1.3,0-2.6,0.5-3.4,1.4
			c-0.9,0.9-1.4,2-1.4,3.3c0,1.2,0.5,2.3,1.3,3.1c0.9,0.9,2.1,1.3,3.4,1.3c1.3,0,2.5-0.4,3.4-1.3
			C965.1,653.3,965.6,652.1,965.5,650.9z M980.2,653.2l1.3,0.7c-1,2.2-3.3,3.6-5.7,3.6c-1.7,0-3.3-0.6-4.5-1.9
			c-1.2-1.2-1.8-2.8-1.8-4.5c0-1.7,0.6-3.3,1.8-4.5c1.1-1.2,2.7-1.9,4.4-1.9c1.6,0,3.2,0.6,4.4,1.7c1.2,1.3,1.9,3,1.8,4.7h-10.8
			c0,1.3,0.5,2.5,1.4,3.5c0.8,0.9,2,1.3,3.1,1.3C977.6,656.1,979.4,655,980.2,653.2L980.2,653.2z M980.2,650c-0.2-1.1-0.7-2-1.6-2.7
			c-0.8-0.6-1.9-1-2.9-1c-2.2,0-3.7,1.2-4.4,3.6L980.2,650z M990.6,640.9h1.6v14.6h6.2v1.6h-7.9V640.9z M1012.7,645.1v11.9h-1.5v-2
			c-1.1,1.5-2.8,2.4-4.7,2.5c-1.7,0-3.3-0.7-4.4-1.9c-1.2-1.2-1.8-2.8-1.8-4.5c0-1.7,0.6-3.3,1.8-4.5c1.1-1.2,2.7-1.9,4.4-1.9
			c1.9,0,3.7,0.9,4.7,2.5v-2.2L1012.7,645.1z M1011.3,651.2c0-1.3-0.5-2.5-1.4-3.5c-0.9-0.9-2.1-1.4-3.4-1.4c-1.3,0-2.5,0.5-3.4,1.5
			c-0.9,0.9-1.4,2.2-1.4,3.4c0,1.3,0.5,2.5,1.4,3.4c0.9,0.9,2.1,1.5,3.3,1.5c1.3,0,2.5-0.5,3.3-1.4
			C1010.8,653.7,1011.3,652.5,1011.3,651.2z M1016.3,657.1v-16.6h1.5v6.7c1.1-1.5,2.9-2.4,4.8-2.4c1.6,0,3.2,0.6,4.4,1.9
			c1.2,1.2,1.8,2.8,1.8,4.5c0,1.7-0.6,3.3-1.8,4.5c-1.1,1.2-2.7,1.9-4.4,1.9c-1.9,0-3.7-1-4.7-2.6v2.2H1016.3z M1017.7,651
			c0,1.3,0.5,2.6,1.4,3.5c0.9,0.9,2.1,1.5,3.4,1.4c1.3,0,2.5-0.5,3.4-1.5c0.9-0.9,1.4-2.1,1.4-3.4c0-1.3-0.5-2.5-1.3-3.4
			c-0.9-1-2.1-1.5-3.4-1.5c-1.3,0-2.5,0.5-3.4,1.4C1018.2,648.5,1017.7,649.7,1017.7,651L1017.7,651z M1041.6,653.2l1.3,0.7
			c-1,2.2-3.3,3.6-5.7,3.6c-1.7,0-3.3-0.6-4.5-1.9c-1.2-1.2-1.8-2.8-1.8-4.5c0-1.7,0.6-3.3,1.8-4.5c1.1-1.2,2.7-1.9,4.4-1.9
			c1.6,0,3.2,0.6,4.4,1.7c1.2,1.3,1.9,3,1.8,4.7h-10.8c0,1.3,0.5,2.5,1.4,3.5c0.8,0.9,2,1.3,3.1,1.3
			C1039,656.1,1040.8,655,1041.6,653.2L1041.6,653.2z M1041.6,650c-0.2-1.1-0.7-2-1.6-2.7c-0.8-0.6-1.9-1-2.9-1
			c-2.2,0-3.7,1.2-4.4,3.6L1041.6,650z M1045.9,640.5h1.5v16.6h-1.5V640.5z"/>
	</g>
</g>
</svg>
