<svg xmlns="http://www.w3.org/2000/svg" xmlns:xlink="http://www.w3.org/1999/xlink" width="1280" height="800" viewBox="0 0 1280 800">
  <defs>
    <filter id="Rectangle_9" x="58" y="118" width="249" height="96" filterUnits="userSpaceOnUse">
      <feOffset dy="3" input="SourceAlpha"/>
      <feGaussianBlur stdDeviation="3" result="blur"/>
      <feFlood flood-opacity="0.161"/>
      <feComposite operator="in" in2="blur"/>
      <feComposite in="SourceGraphic"/>
    </filter>
    <filter id="Path_35" x="58" y="236.061" width="248.426" height="96.309" filterUnits="userSpaceOnUse">
      <feOffset dy="3" input="SourceAlpha"/>
      <feGaussianBlur stdDeviation="3" result="blur-2"/>
      <feFlood flood-opacity="0.161"/>
      <feComposite operator="in" in2="blur-2"/>
      <feComposite in="SourceGraphic"/>
    </filter>
    <filter id="Rectangle_14" x="445" y="608" width="124" height="73" filterUnits="userSpaceOnUse">
      <feOffset dy="3" input="SourceAlpha"/>
      <feGaussianBlur stdDeviation="3" result="blur-3"/>
      <feFlood flood-opacity="0.161"/>
      <feComposite operator="in" in2="blur-3"/>
      <feComposite in="SourceGraphic"/>
    </filter>
    <filter id="Ellipse_2" x="501" y="613" width="64" height="64" filterUnits="userSpaceOnUse">
      <feOffset dy="3" input="SourceAlpha"/>
      <feGaussianBlur stdDeviation="3" result="blur-4"/>
      <feFlood flood-opacity="0.161"/>
      <feComposite operator="in" in2="blur-4"/>
      <feComposite in="SourceGraphic"/>
    </filter>
    <filter id="Rectangle_15" x="566" y="608" width="123" height="73" filterUnits="userSpaceOnUse">
      <feOffset dy="3" input="SourceAlpha"/>
      <feGaussianBlur stdDeviation="3" result="blur-5"/>
      <feFlood flood-opacity="0.161"/>
      <feComposite operator="in" in2="blur-5"/>
      <feComposite in="SourceGraphic"/>
    </filter>
    <filter id="Ellipse_3" x="571" y="613" width="63" height="64" filterUnits="userSpaceOnUse">
      <feOffset dy="3" input="SourceAlpha"/>
      <feGaussianBlur stdDeviation="3" result="blur-6"/>
      <feFlood flood-opacity="0.161"/>
      <feComposite operator="in" in2="blur-6"/>
      <feComposite in="SourceGraphic"/>
    </filter>
    <filter id="Rectangle_16" x="397.705" y="324.378" width="252.926" height="69.306" filterUnits="userSpaceOnUse">
      <feOffset dy="3" input="SourceAlpha"/>
      <feGaussianBlur stdDeviation="3" result="blur-7"/>
      <feFlood flood-opacity="0.161"/>
      <feComposite operator="in" in2="blur-7"/>
      <feComposite in="SourceGraphic"/>
    </filter>
    <filter id="Rectangle_16-2" x="862.553" y="306.85" width="245.126" height="54.305" filterUnits="userSpaceOnUse">
      <feOffset dy="3" input="SourceAlpha"/>
      <feGaussianBlur stdDeviation="2" result="blur-8"/>
      <feFlood flood-opacity="0.161"/>
      <feComposite operator="in" in2="blur-8"/>
      <feComposite in="SourceGraphic"/>
    </filter>
    <filter id="Rectangle_9-2" x="58" y="353" width="249" height="99" filterUnits="userSpaceOnUse">
      <feOffset dy="3" input="SourceAlpha"/>
      <feGaussianBlur stdDeviation="3" result="blur-9"/>
      <feFlood flood-opacity="0.161"/>
      <feComposite operator="in" in2="blur-9"/>
      <feComposite in="SourceGraphic"/>
    </filter>
    <filter id="Rectangle_9-3" x="58" y="473" width="249" height="95" filterUnits="userSpaceOnUse">
      <feOffset dy="3" input="SourceAlpha"/>
      <feGaussianBlur stdDeviation="3" result="blur-10"/>
      <feFlood flood-opacity="0.161"/>
      <feComposite operator="in" in2="blur-10"/>
      <feComposite in="SourceGraphic"/>
    </filter>
    <filter id="Rectangle_16-3" x="659.634" y="324.378" width="71.106" height="69.306" filterUnits="userSpaceOnUse">
      <feOffset dy="3" input="SourceAlpha"/>
      <feGaussianBlur stdDeviation="3" result="blur-11"/>
      <feFlood flood-opacity="0.161"/>
      <feComposite operator="in" in2="blur-11"/>
      <feComposite in="SourceGraphic"/>
    </filter>
    <filter id="Rectangle_16-4" x="823" y="124" width="400" height="70" filterUnits="userSpaceOnUse">
      <feOffset dy="3" input="SourceAlpha"/>
      <feGaussianBlur stdDeviation="3" result="blur-12"/>
      <feFlood flood-opacity="0.161"/>
      <feComposite operator="in" in2="blur-12"/>
      <feComposite in="SourceGraphic"/>
    </filter>
    <filter id="Rectangle_16-5" x="399.505" y="418.889" width="252.926" height="69.306" filterUnits="userSpaceOnUse">
      <feOffset dy="3" input="SourceAlpha"/>
      <feGaussianBlur stdDeviation="3" result="blur-13"/>
      <feFlood flood-opacity="0.161"/>
      <feComposite operator="in" in2="blur-13"/>
      <feComposite in="SourceGraphic"/>
    </filter>
    <filter id="Rectangle_16-6" x="661.434" y="418.889" width="71.106" height="69.306" filterUnits="userSpaceOnUse">
      <feOffset dy="3" input="SourceAlpha"/>
      <feGaussianBlur stdDeviation="3" result="blur-14"/>
      <feFlood flood-opacity="0.161"/>
      <feComposite operator="in" in2="blur-14"/>
      <feComposite in="SourceGraphic"/>
    </filter>
    <filter id="Rectangle_16-7" x="397.705" y="229.868" width="252.926" height="69.306" filterUnits="userSpaceOnUse">
      <feOffset dy="3" input="SourceAlpha"/>
      <feGaussianBlur stdDeviation="3" result="blur-15"/>
      <feFlood flood-opacity="0.161"/>
      <feComposite operator="in" in2="blur-15"/>
      <feComposite in="SourceGraphic"/>
    </filter>
    <filter id="Rectangle_16-8" x="659.634" y="229.868" width="71.106" height="69.306" filterUnits="userSpaceOnUse">
      <feOffset dy="3" input="SourceAlpha"/>
      <feGaussianBlur stdDeviation="3" result="blur-16"/>
      <feFlood flood-opacity="0.161"/>
      <feComposite operator="in" in2="blur-16"/>
      <feComposite in="SourceGraphic"/>
    </filter>
    <filter id="Rectangle_16-9" x="985" y="463" width="122" height="62" filterUnits="userSpaceOnUse">
      <feOffset dy="3" input="SourceAlpha"/>
      <feGaussianBlur stdDeviation="3" result="blur-17"/>
      <feFlood flood-opacity="0.161"/>
      <feComposite operator="in" in2="blur-17"/>
      <feComposite in="SourceGraphic"/>
    </filter>
    <filter id="Rectangle_16-10" x="863" y="463" width="123" height="62" filterUnits="userSpaceOnUse">
      <feOffset dy="3" input="SourceAlpha"/>
      <feGaussianBlur stdDeviation="3" result="blur-18"/>
      <feFlood flood-opacity="0.161"/>
      <feComposite operator="in" in2="blur-18"/>
      <feComposite in="SourceGraphic"/>
    </filter>
    <filter id="Rectangle_16-11" x="863" y="543" width="123" height="61" filterUnits="userSpaceOnUse">
      <feOffset dy="3" input="SourceAlpha"/>
      <feGaussianBlur stdDeviation="3" result="blur-19"/>
      <feFlood flood-opacity="0.161"/>
      <feComposite operator="in" in2="blur-19"/>
      <feComposite in="SourceGraphic"/>
    </filter>
    <filter id="Rectangle_9-4" x="58" y="591" width="249" height="97" filterUnits="userSpaceOnUse">
      <feOffset dy="3" input="SourceAlpha"/>
      <feGaussianBlur stdDeviation="3" result="blur-20"/>
      <feFlood flood-opacity="0.161"/>
      <feComposite operator="in" in2="blur-20"/>
      <feComposite in="SourceGraphic"/>
    </filter>
    <filter id="Rectangle_16-12" x="661.434" y="513.399" width="71.106" height="69.306" filterUnits="userSpaceOnUse">
      <feOffset dy="3" input="SourceAlpha"/>
      <feGaussianBlur stdDeviation="3" result="blur-21"/>
      <feFlood flood-opacity="0.161"/>
      <feComposite operator="in" in2="blur-21"/>
      <feComposite in="SourceGraphic"/>
    </filter>
    <filter id="Path_19" x="674.476" y="523.641" width="40.462" height="40.462" filterUnits="userSpaceOnUse">
      <feOffset dy="1" input="SourceAlpha"/>
      <feGaussianBlur stdDeviation="3" result="blur-22"/>
      <feFlood flood-opacity="0.161"/>
      <feComposite operator="in" in2="blur-22"/>
      <feComposite in="SourceGraphic"/>
    </filter>
    <filter id="Path_20" x="693.121" y="545.124" width="24.733" height="24.999" filterUnits="userSpaceOnUse">
      <feOffset dy="3" input="SourceAlpha"/>
      <feGaussianBlur stdDeviation="1.5" result="blur-23"/>
      <feFlood flood-opacity="0.161"/>
      <feComposite operator="in" in2="blur-23"/>
      <feComposite in="SourceGraphic"/>
    </filter>
    <filter id="Rectangle_16-13" x="399.505" y="513.399" width="252.926" height="69.306" filterUnits="userSpaceOnUse">
      <feOffset dy="3" input="SourceAlpha"/>
      <feGaussianBlur stdDeviation="3" result="blur-24"/>
      <feFlood flood-opacity="0.161"/>
      <feComposite operator="in" in2="blur-24"/>
      <feComposite in="SourceGraphic"/>
    </filter>
    <filter id="Rectangle_16-14" x="863" y="621" width="244" height="62" filterUnits="userSpaceOnUse">
      <feOffset dy="3" input="SourceAlpha"/>
      <feGaussianBlur stdDeviation="3" result="blur-25"/>
      <feFlood flood-opacity="0.161"/>
      <feComposite operator="in" in2="blur-25"/>
      <feComposite in="SourceGraphic"/>
    </filter>
    <clipPath id="clip-icons_for_e-commerce_website">
      <rect width="1280" height="800"/>
    </clipPath>
  </defs>
  <g id="icons_for_e-commerce_website" data-name="icons for e-commerce website" clip-path="url(#clip-icons_for_e-commerce_website)">
    <rect width="1280" height="800" fill="#eaeaea"/>
    <g id="light_brown_button" data-name="light brown button" transform="translate(67 124.148)">
      <g transform="matrix(1, 0, 0, 1, -67, -124.15)" filter="url(#Rectangle_9)">
        <rect id="Rectangle_9-5" data-name="Rectangle 9" width="231" height="78" rx="39" transform="translate(67 124)" fill="#fff"/>
      </g>
      <path id="button" d="M4.539-39.99H9.317a9.268,9.268,0,0,1,5.771,1.531,5.233,5.233,0,0,1,1.969,4.391,5.589,5.589,0,0,1-.791,2.911,5.754,5.754,0,0,1-2.3,2.137A7.764,7.764,0,0,1,17.746-26.6a5.943,5.943,0,0,1,1.3,3.836A6.392,6.392,0,0,1,16.855-17.8,8.129,8.129,0,0,1,11.2-15.83H4.539Zm2.389,2.355V-29.9h1.38A8.752,8.752,0,0,0,13.019-30.9a3.5,3.5,0,0,0,1.548-3.163q0-3.567-4.846-3.567Zm0,10.162v9.287H9.923a10.4,10.4,0,0,0,3.819-.522,4.621,4.621,0,0,0,2-1.615,3.835,3.835,0,0,0,.774-2.238,4.457,4.457,0,0,0-.437-2.019,4.559,4.559,0,0,0-1.3-1.548,5.858,5.858,0,0,0-2.053-1.009,19.358,19.358,0,0,0-4.459-.336ZM38.761-15.83H36.439v-3.2a8.163,8.163,0,0,1-6.7,3.668,6.334,6.334,0,0,1-3.634-1.094,5.946,5.946,0,0,1-2.288-2.86,15.359,15.359,0,0,1-.673-5.2V-33.7h2.288v8.513a20.311,20.311,0,0,0,.286,4.24A5.226,5.226,0,0,0,26.6-19.06a3.775,3.775,0,0,0,1.5,1.178,5.41,5.41,0,0,0,2.2.4,5.5,5.5,0,0,0,2.541-.639,6.222,6.222,0,0,0,2.12-1.783,6.46,6.46,0,0,0,1.178-2.355,24.73,24.73,0,0,0,.3-4.879V-33.7h2.322Zm9.456-2.827q0,.909.236,1.077a2.59,2.59,0,0,0,1.211.168h1.38v1.952a14.373,14.373,0,0,1-2.221.236,2.947,2.947,0,0,1-2.221-.74,3.268,3.268,0,0,1-.707-2.322v-13.46H42.731V-33.7h3.163v-6.9h2.322v6.9H51.85v1.952H48.216Zm11.407,0q0,.909.236,1.077a2.59,2.59,0,0,0,1.211.168h1.38v1.952a14.373,14.373,0,0,1-2.221.236,2.947,2.947,0,0,1-2.221-.74,3.268,3.268,0,0,1-.707-2.322v-13.46H54.139V-33.7H57.3v-6.9h2.322v6.9h3.634v1.952H59.623Zm6.225-5.99a9.318,9.318,0,0,1,2.709-6.73,8.841,8.841,0,0,1,6.6-2.793,8.841,8.841,0,0,1,6.6,2.793,9.278,9.278,0,0,1,2.709,6.7A9.281,9.281,0,0,1,81.782-18a8.817,8.817,0,0,1-6.612,2.776A8.871,8.871,0,0,1,68.541-18,9.21,9.21,0,0,1,65.849-24.646Zm16.286.034a7.188,7.188,0,0,0-2.069-5.132,6.562,6.562,0,0,0-4.913-2.17,6.509,6.509,0,0,0-4.9,2.17A7.26,7.26,0,0,0,68.2-24.579,7.1,7.1,0,0,0,70.189-19.5a6.529,6.529,0,0,0,4.93,2.086,6.665,6.665,0,0,0,4.98-2.1A7.06,7.06,0,0,0,82.135-24.612Zm6.6-9.085h2.322v3.2a8.163,8.163,0,0,1,6.7-3.668,6.334,6.334,0,0,1,3.634,1.094,5.946,5.946,0,0,1,2.288,2.86,15.36,15.36,0,0,1,.673,5.2v9.186h-2.288v-8.513a20.311,20.311,0,0,0-.286-4.24,5.226,5.226,0,0,0-.875-1.884,3.775,3.775,0,0,0-1.5-1.178,5.41,5.41,0,0,0-2.2-.4,5.5,5.5,0,0,0-2.541.639,6.222,6.222,0,0,0-2.12,1.783,6.46,6.46,0,0,0-1.178,2.355,24.73,24.73,0,0,0-.3,4.879v6.562H88.73Z" transform="translate(61.137 65.275)"/>
    </g>
    <g id="inactive_button" data-name="inactive button" transform="translate(67 242.061)">
      <g transform="matrix(1, 0, 0, 1, -67, -242.06)" filter="url(#Path_35)">
        <path id="Path_35-2" data-name="Path 35" d="M39.154,0H191.271a39.154,39.154,0,0,1,0,78.309H39.154A39.154,39.154,0,0,1,39.154,0Z" transform="translate(67 242.06)" fill="#fff"/>
      </g>
      <path id="button-2" data-name="button" d="M4.539-39.99H9.317a9.268,9.268,0,0,1,5.771,1.531,5.233,5.233,0,0,1,1.969,4.391,5.589,5.589,0,0,1-.791,2.911,5.754,5.754,0,0,1-2.3,2.137A7.764,7.764,0,0,1,17.746-26.6a5.943,5.943,0,0,1,1.3,3.836A6.392,6.392,0,0,1,16.855-17.8,8.129,8.129,0,0,1,11.2-15.83H4.539Zm2.389,2.355V-29.9h1.38A8.752,8.752,0,0,0,13.019-30.9a3.5,3.5,0,0,0,1.548-3.163q0-3.567-4.846-3.567Zm0,10.162v9.287H9.923a10.4,10.4,0,0,0,3.819-.522,4.621,4.621,0,0,0,2-1.615,3.835,3.835,0,0,0,.774-2.238,4.457,4.457,0,0,0-.437-2.019,4.559,4.559,0,0,0-1.3-1.548,5.858,5.858,0,0,0-2.053-1.009,19.358,19.358,0,0,0-4.459-.336ZM38.761-15.83H36.439v-3.2a8.163,8.163,0,0,1-6.7,3.668,6.334,6.334,0,0,1-3.634-1.094,5.946,5.946,0,0,1-2.288-2.86,15.359,15.359,0,0,1-.673-5.2V-33.7h2.288v8.513a20.311,20.311,0,0,0,.286,4.24A5.226,5.226,0,0,0,26.6-19.06a3.775,3.775,0,0,0,1.5,1.178,5.41,5.41,0,0,0,2.2.4,5.5,5.5,0,0,0,2.541-.639,6.222,6.222,0,0,0,2.12-1.783,6.46,6.46,0,0,0,1.178-2.355,24.73,24.73,0,0,0,.3-4.879V-33.7h2.322Zm9.456-2.827q0,.909.236,1.077a2.59,2.59,0,0,0,1.211.168h1.38v1.952a14.373,14.373,0,0,1-2.221.236,2.947,2.947,0,0,1-2.221-.74,3.268,3.268,0,0,1-.707-2.322v-13.46H42.731V-33.7h3.163v-6.9h2.322v6.9H51.85v1.952H48.216Zm11.407,0q0,.909.236,1.077a2.59,2.59,0,0,0,1.211.168h1.38v1.952a14.373,14.373,0,0,1-2.221.236,2.947,2.947,0,0,1-2.221-.74,3.268,3.268,0,0,1-.707-2.322v-13.46H54.139V-33.7H57.3v-6.9h2.322v6.9h3.634v1.952H59.623Zm6.225-5.99a9.318,9.318,0,0,1,2.709-6.73,8.841,8.841,0,0,1,6.6-2.793,8.841,8.841,0,0,1,6.6,2.793,9.278,9.278,0,0,1,2.709,6.7A9.281,9.281,0,0,1,81.782-18a8.817,8.817,0,0,1-6.612,2.776A8.871,8.871,0,0,1,68.541-18,9.21,9.21,0,0,1,65.849-24.646Zm16.286.034a7.188,7.188,0,0,0-2.069-5.132,6.562,6.562,0,0,0-4.913-2.17,6.509,6.509,0,0,0-4.9,2.17A7.26,7.26,0,0,0,68.2-24.579,7.1,7.1,0,0,0,70.189-19.5a6.529,6.529,0,0,0,4.93,2.086,6.665,6.665,0,0,0,4.98-2.1A7.06,7.06,0,0,0,82.135-24.612Zm6.6-9.085h2.322v3.2a8.163,8.163,0,0,1,6.7-3.668,6.334,6.334,0,0,1,3.634,1.094,5.946,5.946,0,0,1,2.288,2.86,15.36,15.36,0,0,1,.673,5.2v9.186h-2.288v-8.513a20.311,20.311,0,0,0-.286-4.24,5.226,5.226,0,0,0-.875-1.884,3.775,3.775,0,0,0-1.5-1.178,5.41,5.41,0,0,0-2.2-.4,5.5,5.5,0,0,0-2.541.639,6.222,6.222,0,0,0-2.12,1.783,6.46,6.46,0,0,0-1.178,2.355,24.73,24.73,0,0,0-.3,4.879v6.562H88.73Z" transform="translate(61.137 65.466)" fill="#d8d8d8"/>
    </g>
    <g id="Rectangle_13" data-name="Rectangle 13" transform="translate(495.815 135.056)" fill="#6dd666" stroke="#6dd666" stroke-width="1">
      <rect width="54.006" height="53.106" rx="22" stroke="none"/>
      <rect x="0.5" y="0.5" width="53.006" height="52.106" rx="21.5" fill="none"/>
    </g>
    <g id="checkmark" transform="matrix(0.998, 0.07, -0.07, 0.998, 510.853, 152.166)">
      <line id="Line_1" data-name="Line 1" x2="9.984" y2="7.048" transform="translate(0 9.89)" fill="none" stroke="#0b0b0b" stroke-linecap="round" stroke-width="6"/>
      <g id="Group_21" data-name="Group 21" transform="translate(9.984 0)">
        <line id="Line_2" data-name="Line 2" x1="14.494" y2="16.938" transform="translate(0 0)" fill="none" stroke="#0b0b0b" stroke-linecap="round" stroke-width="6"/>
      </g>
    </g>
    <g id="empty_check_box" data-name="empty check box" transform="translate(412.105 135.056)" fill="#fff" stroke="#af8c60" stroke-width="2">
      <rect width="54.006" height="53.106" rx="22" stroke="none"/>
      <rect x="1" y="1" width="52.006" height="51.106" rx="21" fill="none"/>
    </g>
    <g id="x_check_box" data-name="x check box" transform="translate(579.524 135.056)">
      <g id="Rectangle_13-2" data-name="Rectangle 13" transform="translate(0 0)" fill="#dc523f" stroke="#dc523f" stroke-width="1">
        <rect width="53.106" height="53.106" rx="22" stroke="none"/>
        <rect x="0.5" y="0.5" width="52.106" height="52.106" rx="21.5" fill="none"/>
      </g>
      <g id="X" transform="translate(15.592 15.591)">
        <line id="Line_4" data-name="Line 4" x2="21.811" y2="21.828" transform="translate(0)" fill="none" stroke="#000" stroke-linecap="round" stroke-width="6"/>
        <path id="Path_18" data-name="Path 18" d="M21.749,0,0,21.828" transform="translate(0)" fill="none" stroke="#000" stroke-linecap="round" stroke-width="6"/>
      </g>
    </g>
    <g id="ON_slider" data-name="ON slider" transform="translate(454.338 613.526)">
      <g transform="matrix(1, 0, 0, 1, -454.34, -613.53)" filter="url(#Rectangle_14)">
        <rect id="Rectangle_14-2" data-name="Rectangle 14" width="106" height="55" rx="27.5" transform="translate(454 614)" fill="#fff"/>
      </g>
      <g transform="matrix(1, 0, 0, 1, -454.34, -613.53)" filter="url(#Ellipse_2)">
        <circle id="Ellipse_2-2" data-name="Ellipse 2" cx="23" cy="23" r="23" transform="translate(510 619)" fill="#fd9426"/>
      </g>
      <path id="ON" d="M1.568-14.363a7.967,7.967,0,0,1,1.043-4,7.574,7.574,0,0,1,2.857-2.878A7.8,7.8,0,0,1,9.42-22.288,8.028,8.028,0,0,1,13.4-21.256,7.532,7.532,0,0,1,16.3-18.4a7.791,7.791,0,0,1,1.053,3.963,7.851,7.851,0,0,1-1.043,3.963,7.574,7.574,0,0,1-2.868,2.868A7.851,7.851,0,0,1,9.483-6.562,7.97,7.97,0,0,1,5.51-7.595a7.574,7.574,0,0,1-2.889-2.847A7.678,7.678,0,0,1,1.568-14.363Zm14.224-.063a6.166,6.166,0,0,0-1.867-4.547,6.144,6.144,0,0,0-4.495-1.856,6,6,0,0,0-4.495,1.867,6.3,6.3,0,0,0-1.8,4.547A6.171,6.171,0,0,0,4.988-9.878,6.11,6.11,0,0,0,9.473-8.022a6.146,6.146,0,0,0,4.474-1.815A6.164,6.164,0,0,0,15.792-14.425ZM20.36-6.938V-21.913h.334l9.949,11.471V-21.913h1.481V-6.938h-.334L21.9-18.263V-6.938Z" transform="translate(13.08 43.137)" fill="#2b2927"/>
    </g>
    <g id="OFF_slider" data-name="OFF slider" transform="translate(575.121 613.526)">
      <g transform="matrix(1, 0, 0, 1, -575.12, -613.53)" filter="url(#Rectangle_15)">
        <rect id="Rectangle_15-2" data-name="Rectangle 15" width="105" height="55" rx="27.5" transform="translate(575 614)" fill="#fd9426"/>
      </g>
      <g transform="matrix(1, 0, 0, 1, -575.12, -613.53)" filter="url(#Ellipse_3)">
        <ellipse id="Ellipse_3-2" data-name="Ellipse 3" cx="22.5" cy="23" rx="22.5" ry="23" transform="translate(580 619)" fill="#fff"/>
      </g>
      <path id="OFF" d="M1.568-14.363a7.967,7.967,0,0,1,1.043-4,7.574,7.574,0,0,1,2.857-2.878A7.8,7.8,0,0,1,9.42-22.288,8.028,8.028,0,0,1,13.4-21.256,7.532,7.532,0,0,1,16.3-18.4a7.791,7.791,0,0,1,1.053,3.963,7.851,7.851,0,0,1-1.043,3.963,7.574,7.574,0,0,1-2.868,2.868A7.851,7.851,0,0,1,9.483-6.562,7.97,7.97,0,0,1,5.51-7.595a7.574,7.574,0,0,1-2.889-2.847A7.678,7.678,0,0,1,1.568-14.363Zm14.224-.063a6.166,6.166,0,0,0-1.867-4.547,6.144,6.144,0,0,0-4.495-1.856,6,6,0,0,0-4.495,1.867,6.3,6.3,0,0,0-1.8,4.547A6.171,6.171,0,0,0,4.988-9.878,6.11,6.11,0,0,0,9.473-8.022a6.146,6.146,0,0,0,4.474-1.815A6.164,6.164,0,0,0,15.792-14.425Zm4.547-7.487h7.508v1.481H21.841v4.672h6.007v1.481H21.841v7.341h-1.5Zm10.115,0h7.508v1.481H31.956v4.672h6.007v1.481H31.956v7.341h-1.5Z" transform="translate(56.852 43.137)" fill="#fff"/>
    </g>
    <g id="search_bar" data-name="search bar" transform="translate(406.705 330.378)">
      <g transform="matrix(1, 0, 0, 1, -406.7, -330.38)" filter="url(#Rectangle_16)">
        <rect id="Rectangle_16-15" data-name="Rectangle 16" width="234.926" height="51.306" rx="25.653" transform="translate(406.7 330.38)" fill="#23d1e4"/>
      </g>
      <g id="magnifying_glass" data-name="magnifying glass" transform="translate(186.964 10.137)">
        <g id="Path_19-2" data-name="Path 19" fill="none" stroke-linecap="round">
          <path d="M11.231,0A11.231,11.231,0,1,1,0,11.231,11.231,11.231,0,0,1,11.231,0Z" stroke="none"/>
          <path d="M 11.23092460632324 4.999998092651367 C 7.795174598693848 4.999998092651367 4.999994277954102 7.795177459716797 4.999994277954102 11.23092746734619 C 4.999994277954102 14.66667747497559 7.795174598693848 17.46185684204102 11.23092460632324 17.46185684204102 C 14.66666412353516 17.46185684204102 17.46184539794922 14.66667747497559 17.46184539794922 11.23092746734619 C 17.46184539794922 7.795177459716797 14.66666412353516 4.999998092651367 11.23092460632324 4.999998092651367 M 11.23092460632324 -1.9073486328125e-06 C 17.43359375 -1.9073486328125e-06 22.46184539794922 5.028257369995117 22.46184539794922 11.23092746734619 C 22.46184539794922 17.43359756469727 17.43359375 22.46185684204102 11.23092460632324 22.46185684204102 C 5.028255462646484 22.46185684204102 -5.7220458984375e-06 17.43359756469727 -5.7220458984375e-06 11.23092746734619 C -5.7220458984375e-06 5.028257369995117 5.028255462646484 -1.9073486328125e-06 11.23092460632324 -1.9073486328125e-06 Z" stroke="none" fill="#fff"/>
        </g>
        <path id="Path_20-2" data-name="Path 20" d="M0,0,8.663,8.929" transform="translate(17.68 18.518)" fill="none" stroke="#fff" stroke-linecap="round" stroke-width="5"/>
      </g>
      <path id="search" d="M.364-9.732l1.272-.751Q2.971-8.022,4.744-8.022A2.833,2.833,0,0,0,6.7-8.752a2.339,2.339,0,0,0,.813-1.815A2.811,2.811,0,0,0,6.83-12.3a12.619,12.619,0,0,0-2.284-2.075A18.351,18.351,0,0,1,2.4-16.167a3.952,3.952,0,0,1-.813-1.272A3.779,3.779,0,0,1,1.323-18.8a3.328,3.328,0,0,1,1.032-2.471,3.56,3.56,0,0,1,2.6-1.012,3.766,3.766,0,0,1,2.148.615,7.069,7.069,0,0,1,1.773,1.825l-1.21.939a7.451,7.451,0,0,0-1.21-1.314,2.315,2.315,0,0,0-1.533-.521A2.068,2.068,0,0,0,3.44-20.2a1.812,1.812,0,0,0-.574,1.377,2.2,2.2,0,0,0,.511,1.45,15.31,15.31,0,0,0,2.315,1.95,12.405,12.405,0,0,1,2.628,2.461,3.963,3.963,0,0,1,.824,2.378A3.775,3.775,0,0,1,7.883-7.761a4.123,4.123,0,0,1-2.93,1.2Q2.012-6.562.364-9.732Zm21.023-.793L22.6-9.9a5.711,5.711,0,0,1-5.3,3.337,5.437,5.437,0,0,1-4.13-1.721,5.811,5.811,0,0,1-1.627-4.14,5.828,5.828,0,0,1,1.637-4.15A5.347,5.347,0,0,1,17.226-18.3,5.552,5.552,0,0,1,21.273-16.7a6.057,6.057,0,0,1,1.7,4.38H13A4.616,4.616,0,0,0,14.265-9.1a3.928,3.928,0,0,0,2.909,1.22A4.5,4.5,0,0,0,21.387-10.525Zm0-3.024a3.891,3.891,0,0,0-1.46-2.482,4.3,4.3,0,0,0-2.69-.9q-3.128,0-4.088,3.379Zm15.267-4.463V-6.938h-1.4v-1.9a5.561,5.561,0,0,1-4.338,2.273A5.5,5.5,0,0,1,26.8-8.3a5.773,5.773,0,0,1-1.679-4.15,5.685,5.685,0,0,1,1.689-4.13A5.471,5.471,0,0,1,30.856-18.3a5.211,5.211,0,0,1,4.4,2.315v-2.023Zm-1.314,5.59a4.408,4.408,0,0,0-1.272-3.2,4.189,4.189,0,0,0-3.118-1.3,4.126,4.126,0,0,0-3.118,1.345A4.474,4.474,0,0,0,26.56-12.4a4.436,4.436,0,0,0,1.293,3.181,4.145,4.145,0,0,0,3.1,1.345,4.225,4.225,0,0,0,3.1-1.293A4.412,4.412,0,0,0,35.34-12.423Zm3.984-5.59h1.46v1.606a5.592,5.592,0,0,1,1.137-1.439,1.879,1.879,0,0,1,1.231-.459,2.834,2.834,0,0,1,1.366.375l-.751,1.21a1.241,1.241,0,0,0-.647-.188,1.624,1.624,0,0,0-1.22.667,4.2,4.2,0,0,0-.845,1.721,17.91,17.91,0,0,0-.271,3.827v3.754h-1.46Zm17.645,2.294-1.126.709a4.739,4.739,0,0,0-4-1.94,4.7,4.7,0,0,0-3.358,1.283,4.2,4.2,0,0,0-1.356,3.181,4.472,4.472,0,0,0,1.335,3.254,4.542,4.542,0,0,0,3.379,1.356,4.919,4.919,0,0,0,4-1.94l1.126.751a5.4,5.4,0,0,1-2.242,1.856,7.183,7.183,0,0,1-3.035.647,5.874,5.874,0,0,1-4.286-1.689,5.566,5.566,0,0,1-1.721-4.13,5.7,5.7,0,0,1,1.742-4.182A6.056,6.056,0,0,1,51.9-18.3a6.511,6.511,0,0,1,2.972.688A5.014,5.014,0,0,1,56.969-15.718Zm2.67-6.57h1.439v6.257a5.059,5.059,0,0,1,4.15-2.273,3.926,3.926,0,0,1,2.252.678A3.686,3.686,0,0,1,68.9-15.854a9.52,9.52,0,0,1,.417,3.222v5.694H67.877v-5.277a17.5,17.5,0,0,0-.1-2.357,3.4,3.4,0,0,0-.459-1.231,2.328,2.328,0,0,0-.949-.886,3.144,3.144,0,0,0-1.439-.3,3.493,3.493,0,0,0-1.616.4,3.857,3.857,0,0,0-1.314,1.105,4,4,0,0,0-.73,1.46A15.328,15.328,0,0,0,61.077-11v4.067H59.638Z" transform="translate(22.253 39.473)" fill="#fff"/>
    </g>
    <g id="sort_by_bar" data-name="sort by bar" transform="translate(868.553 309.85)">
      <g id="search_bar-2" data-name="search bar" transform="translate(0 0)">
        <g transform="matrix(1, 0, 0, 1, -868.55, -309.85)" filter="url(#Rectangle_16-2)">
          <rect id="Rectangle_16-16" data-name="Rectangle 16" width="233.126" height="42.305" rx="17" transform="translate(868.55 309.85)" fill="#fff"/>
        </g>
      </g>
      <g id="back_arrow" data-name="back arrow" transform="translate(204.044 26.474) rotate(-90)">
        <line id="Line_10" data-name="Line 10" y1="7.669" x2="7.003" transform="translate(0 0)" fill="none" stroke="#000" stroke-linecap="round" stroke-width="5"/>
        <path id="Path_23" data-name="Path 23" d="M0,0,6.991,7.42" transform="translate(0.012 7.736)" fill="none" stroke="#000" stroke-linecap="round" stroke-width="5"/>
      </g>
      <path id="Path_33" data-name="Path 33" d="M5.684-14.21A4.861,4.861,0,0,0,4.62-15.344,1.816,1.816,0,0,0,3.6-15.633a1.383,1.383,0,0,0-.985.375,1.263,1.263,0,0,0-.4.962,1.525,1.525,0,0,0,.375,1.025A12.1,12.1,0,0,0,4.315-11.84,8.885,8.885,0,0,1,6.294-9.971,3.125,3.125,0,0,1,6.92-8.125a2.937,2.937,0,0,1-.978,2.2A3.2,3.2,0,0,1,3.666-5,3.963,3.963,0,0,1,.084-7.546L1.226-8.2Q2.243-6.311,3.51-6.311A2.019,2.019,0,0,0,4.9-6.827a1.57,1.57,0,0,0,.579-1.2A2.083,2.083,0,0,0,5-9.337a9.456,9.456,0,0,0-1.674-1.517,14.853,14.853,0,0,1-1.635-1.369,3.024,3.024,0,0,1-.649-1,2.96,2.96,0,0,1-.2-1.064,2.628,2.628,0,0,1,.79-1.932,2.762,2.762,0,0,1,2.041-.79,2.917,2.917,0,0,1,1.689.493,5.839,5.839,0,0,1,1.408,1.463Zm7.258.188a4.207,4.207,0,0,1,3.136,1.33A4.419,4.419,0,0,1,17.369-9.5a4.421,4.421,0,0,1-1.275,3.183A4.2,4.2,0,0,1,12.942-5a4.23,4.23,0,0,1-3.16-1.322A4.406,4.406,0,0,1,8.5-9.5a4.419,4.419,0,0,1,1.29-3.191A4.225,4.225,0,0,1,12.942-14.022Zm0,7.79a2.966,2.966,0,0,0,2.213-.946,3.166,3.166,0,0,0,.915-2.284,3.245,3.245,0,0,0-.931-2.315,2.945,2.945,0,0,0-2.206-.978,2.921,2.921,0,0,0-2.2.978,3.269,3.269,0,0,0-.923,2.323,3.193,3.193,0,0,0,.892,2.284A2.956,2.956,0,0,0,12.942-6.232Zm9.792-7.446-.673,1.095a1.1,1.1,0,0,0-.516-.141,1.125,1.125,0,0,0-.876.477A3.174,3.174,0,0,0,20.083-11a13.266,13.266,0,0,0-.2,2.792v2.925H18.573V-13.8h1.314v.923a3.3,3.3,0,0,1,.79-.86,1.535,1.535,0,0,1,.907-.282A2.485,2.485,0,0,1,22.734-13.678Zm5.037,1H26.082V-6.7q0,.328.094.4a.947.947,0,0,0,.469.07H27.4v1.111A7.553,7.553,0,0,1,26.254-5a1.493,1.493,0,0,1-1.111-.368,1.616,1.616,0,0,1-.36-1.165v-6.147h-1.47V-13.8h1.47V-17.01h1.3V-13.8h1.689Zm6.632.125a4.155,4.155,0,0,1,3.191-1.47A4.186,4.186,0,0,1,40.731-12.7a4.421,4.421,0,0,1,1.275,3.183,4.4,4.4,0,0,1-1.3,3.191A4.223,4.223,0,0,1,37.571-5a4.005,4.005,0,0,1-3.168-1.6v1.314H33.136V-17.01H34.4Zm3.113,6.3a2.993,2.993,0,0,0,2.26-.985,3.253,3.253,0,0,0,.931-2.307,3.3,3.3,0,0,0-.907-2.307,2.955,2.955,0,0,0-2.268-.985,3.076,3.076,0,0,0-2.276.923,3.164,3.164,0,0,0-.915,2.323,3.309,3.309,0,0,0,.923,2.37A2.991,2.991,0,0,0,37.516-6.248ZM51-13.8,45.947-2.259H44.6l1.642-3.754L42.788-13.8h1.345l2.8,6.241L49.639-13.8Z" transform="translate(14.566 32.751)"/>
    </g>
    <g id="dark_blue_button" data-name="dark blue button" transform="translate(67 359.466)">
      <g transform="matrix(1, 0, 0, 1, -67, -359.47)" filter="url(#Rectangle_9-2)">
        <rect id="Rectangle_9-6" data-name="Rectangle 9" width="231" height="81" rx="40.5" transform="translate(67 359)" fill="#ff9419"/>
      </g>
      <path id="button-3" data-name="button" d="M4.539-39.99H9.317a9.268,9.268,0,0,1,5.771,1.531,5.233,5.233,0,0,1,1.969,4.391,5.589,5.589,0,0,1-.791,2.911,5.754,5.754,0,0,1-2.3,2.137A7.764,7.764,0,0,1,17.746-26.6a5.943,5.943,0,0,1,1.3,3.836A6.392,6.392,0,0,1,16.855-17.8,8.129,8.129,0,0,1,11.2-15.83H4.539Zm2.389,2.355V-29.9h1.38A8.752,8.752,0,0,0,13.019-30.9a3.5,3.5,0,0,0,1.548-3.163q0-3.567-4.846-3.567Zm0,10.162v9.287H9.923a10.4,10.4,0,0,0,3.819-.522,4.621,4.621,0,0,0,2-1.615,3.835,3.835,0,0,0,.774-2.238,4.457,4.457,0,0,0-.437-2.019,4.559,4.559,0,0,0-1.3-1.548,5.858,5.858,0,0,0-2.053-1.009,19.358,19.358,0,0,0-4.459-.336ZM38.761-15.83H36.439v-3.2a8.163,8.163,0,0,1-6.7,3.668,6.334,6.334,0,0,1-3.634-1.094,5.946,5.946,0,0,1-2.288-2.86,15.359,15.359,0,0,1-.673-5.2V-33.7h2.288v8.513a20.311,20.311,0,0,0,.286,4.24A5.226,5.226,0,0,0,26.6-19.06a3.775,3.775,0,0,0,1.5,1.178,5.41,5.41,0,0,0,2.2.4,5.5,5.5,0,0,0,2.541-.639,6.222,6.222,0,0,0,2.12-1.783,6.46,6.46,0,0,0,1.178-2.355,24.73,24.73,0,0,0,.3-4.879V-33.7h2.322Zm9.456-2.827q0,.909.236,1.077a2.59,2.59,0,0,0,1.211.168h1.38v1.952a14.373,14.373,0,0,1-2.221.236,2.947,2.947,0,0,1-2.221-.74,3.268,3.268,0,0,1-.707-2.322v-13.46H42.731V-33.7h3.163v-6.9h2.322v6.9H51.85v1.952H48.216Zm11.407,0q0,.909.236,1.077a2.59,2.59,0,0,0,1.211.168h1.38v1.952a14.373,14.373,0,0,1-2.221.236,2.947,2.947,0,0,1-2.221-.74,3.268,3.268,0,0,1-.707-2.322v-13.46H54.139V-33.7H57.3v-6.9h2.322v6.9h3.634v1.952H59.623Zm6.225-5.99a9.318,9.318,0,0,1,2.709-6.73,8.841,8.841,0,0,1,6.6-2.793,8.841,8.841,0,0,1,6.6,2.793,9.278,9.278,0,0,1,2.709,6.7A9.281,9.281,0,0,1,81.782-18a8.817,8.817,0,0,1-6.612,2.776A8.871,8.871,0,0,1,68.541-18,9.21,9.21,0,0,1,65.849-24.646Zm16.286.034a7.188,7.188,0,0,0-2.069-5.132,6.562,6.562,0,0,0-4.913-2.17,6.509,6.509,0,0,0-4.9,2.17A7.26,7.26,0,0,0,68.2-24.579,7.1,7.1,0,0,0,70.189-19.5a6.529,6.529,0,0,0,4.93,2.086,6.665,6.665,0,0,0,4.98-2.1A7.06,7.06,0,0,0,82.135-24.612Zm6.6-9.085h2.322v3.2a8.163,8.163,0,0,1,6.7-3.668,6.334,6.334,0,0,1,3.634,1.094,5.946,5.946,0,0,1,2.288,2.86,15.36,15.36,0,0,1,.673,5.2v9.186h-2.288v-8.513a20.311,20.311,0,0,0-.286-4.24,5.226,5.226,0,0,0-.875-1.884,3.775,3.775,0,0,0-1.5-1.178,5.41,5.41,0,0,0-2.2-.4,5.5,5.5,0,0,0-2.541.639,6.222,6.222,0,0,0-2.12,1.783,6.46,6.46,0,0,0-1.178,2.355,24.73,24.73,0,0,0-.3,4.879v6.562H88.73Z" transform="translate(61.137 66.164)" fill="#fff"/>
    </g>
    <g id="dark_blue_button-2" data-name="dark blue button" transform="translate(67 479.207)">
      <g transform="matrix(1, 0, 0, 1, -67, -479.21)" filter="url(#Rectangle_9-3)">
        <rect id="Rectangle_9-7" data-name="Rectangle 9" width="231" height="77" rx="38.5" transform="translate(67 479)" fill="#ff9419"/>
      </g>
      <path id="button-4" data-name="button" d="M4.539-39.99H9.317a9.268,9.268,0,0,1,5.771,1.531,5.233,5.233,0,0,1,1.969,4.391,5.589,5.589,0,0,1-.791,2.911,5.754,5.754,0,0,1-2.3,2.137A7.764,7.764,0,0,1,17.746-26.6a5.943,5.943,0,0,1,1.3,3.836A6.392,6.392,0,0,1,16.855-17.8,8.129,8.129,0,0,1,11.2-15.83H4.539Zm2.389,2.355V-29.9h1.38A8.752,8.752,0,0,0,13.019-30.9a3.5,3.5,0,0,0,1.548-3.163q0-3.567-4.846-3.567Zm0,10.162v9.287H9.923a10.4,10.4,0,0,0,3.819-.522,4.621,4.621,0,0,0,2-1.615,3.835,3.835,0,0,0,.774-2.238,4.457,4.457,0,0,0-.437-2.019,4.559,4.559,0,0,0-1.3-1.548,5.858,5.858,0,0,0-2.053-1.009,19.358,19.358,0,0,0-4.459-.336ZM38.761-15.83H36.439v-3.2a8.163,8.163,0,0,1-6.7,3.668,6.334,6.334,0,0,1-3.634-1.094,5.946,5.946,0,0,1-2.288-2.86,15.359,15.359,0,0,1-.673-5.2V-33.7h2.288v8.513a20.311,20.311,0,0,0,.286,4.24A5.226,5.226,0,0,0,26.6-19.06a3.775,3.775,0,0,0,1.5,1.178,5.41,5.41,0,0,0,2.2.4,5.5,5.5,0,0,0,2.541-.639,6.222,6.222,0,0,0,2.12-1.783,6.46,6.46,0,0,0,1.178-2.355,24.73,24.73,0,0,0,.3-4.879V-33.7h2.322Zm9.456-2.827q0,.909.236,1.077a2.59,2.59,0,0,0,1.211.168h1.38v1.952a14.373,14.373,0,0,1-2.221.236,2.947,2.947,0,0,1-2.221-.74,3.268,3.268,0,0,1-.707-2.322v-13.46H42.731V-33.7h3.163v-6.9h2.322v6.9H51.85v1.952H48.216Zm11.407,0q0,.909.236,1.077a2.59,2.59,0,0,0,1.211.168h1.38v1.952a14.373,14.373,0,0,1-2.221.236,2.947,2.947,0,0,1-2.221-.74,3.268,3.268,0,0,1-.707-2.322v-13.46H54.139V-33.7H57.3v-6.9h2.322v6.9h3.634v1.952H59.623Zm6.225-5.99a9.318,9.318,0,0,1,2.709-6.73,8.841,8.841,0,0,1,6.6-2.793,8.841,8.841,0,0,1,6.6,2.793,9.278,9.278,0,0,1,2.709,6.7A9.281,9.281,0,0,1,81.782-18a8.817,8.817,0,0,1-6.612,2.776A8.871,8.871,0,0,1,68.541-18,9.21,9.21,0,0,1,65.849-24.646Zm16.286.034a7.188,7.188,0,0,0-2.069-5.132,6.562,6.562,0,0,0-4.913-2.17,6.509,6.509,0,0,0-4.9,2.17A7.26,7.26,0,0,0,68.2-24.579,7.1,7.1,0,0,0,70.189-19.5a6.529,6.529,0,0,0,4.93,2.086,6.665,6.665,0,0,0,4.98-2.1A7.06,7.06,0,0,0,82.135-24.612Zm6.6-9.085h2.322v3.2a8.163,8.163,0,0,1,6.7-3.668,6.334,6.334,0,0,1,3.634,1.094,5.946,5.946,0,0,1,2.288,2.86,15.36,15.36,0,0,1,.673,5.2v9.186h-2.288v-8.513a20.311,20.311,0,0,0-.286-4.24,5.226,5.226,0,0,0-.875-1.884,3.775,3.775,0,0,0-1.5-1.178,5.41,5.41,0,0,0-2.2-.4,5.5,5.5,0,0,0-2.541.639,6.222,6.222,0,0,0-2.12,1.783,6.46,6.46,0,0,0-1.178,2.355,24.73,24.73,0,0,0-.3,4.879v6.562H88.73Z" transform="translate(61.137 64.526)" fill="#e6810c"/>
    </g>
    <g id="search_bar-3" data-name="search bar" transform="translate(668.634 330.378)">
      <g transform="matrix(1, 0, 0, 1, -668.63, -330.38)" filter="url(#Rectangle_16-3)">
        <rect id="Rectangle_16-17" data-name="Rectangle 16" width="53.106" height="51.306" rx="25.653" transform="translate(668.63 330.38)" fill="#23d1e4"/>
      </g>
      <g id="magnifying_glass-2" data-name="magnifying glass" transform="translate(13.042 12.242)">
        <g id="Path_19-3" data-name="Path 19" fill="none" stroke-linecap="round">
          <path d="M11.231,0A11.231,11.231,0,1,1,0,11.231,11.231,11.231,0,0,1,11.231,0Z" stroke="none"/>
          <path d="M 11.23092460632324 4.999998092651367 C 7.795174598693848 4.999998092651367 4.999994277954102 7.795177459716797 4.999994277954102 11.23092746734619 C 4.999994277954102 14.66667747497559 7.795174598693848 17.46185684204102 11.23092460632324 17.46185684204102 C 14.66666412353516 17.46185684204102 17.46184539794922 14.66667747497559 17.46184539794922 11.23092746734619 C 17.46184539794922 7.795177459716797 14.66666412353516 4.999998092651367 11.23092460632324 4.999998092651367 M 11.23092460632324 -1.9073486328125e-06 C 17.43359375 -1.9073486328125e-06 22.46184539794922 5.028257369995117 22.46184539794922 11.23092746734619 C 22.46184539794922 17.43359756469727 17.43359375 22.46185684204102 11.23092460632324 22.46185684204102 C 5.028255462646484 22.46185684204102 -5.7220458984375e-06 17.43359756469727 -5.7220458984375e-06 11.23092746734619 C -5.7220458984375e-06 5.028257369995117 5.028255462646484 -1.9073486328125e-06 11.23092460632324 -1.9073486328125e-06 Z" stroke="none" fill="#fff7f7"/>
        </g>
        <path id="Path_20-3" data-name="Path 20" d="M0,0,8.663,8.929" transform="translate(17.68 18.518)" fill="#ac7f24" stroke="#fff7f7" stroke-linecap="round" stroke-width="5"/>
      </g>
    </g>
    <g id="Group_22" data-name="Group 22" transform="translate(657.833 130.556)">
      <g id="Polygon_1" data-name="Polygon 1" transform="translate(0 0)" fill="#e85845">
        <path d="M 53.96553039550781 56.60642623901367 L 18.04247093200684 56.60642623901367 C 14.72272205352783 56.60642623901367 11.78000164031982 54.8729362487793 10.17069149017334 51.9693489074707 C 8.561381340026855 49.06574630737305 8.651021957397461 45.65157699584961 10.41049194335938 42.8364372253418 L 28.37201118469238 14.09797763824463 C 29.22565078735352 12.73215770721436 30.36097145080566 11.6646671295166 31.74645233154297 10.92516708374023 C 33.04223251342773 10.2335376739502 34.51447296142578 9.86796760559082 36.00400161743164 9.86796760559082 C 37.4935302734375 9.86796760559082 38.96576309204102 10.2335376739502 40.26155090332031 10.92516708374023 C 41.64702224731445 11.6646671295166 42.78234100341797 12.73215770721436 43.63598251342773 14.09797763824463 L 61.59751129150391 42.8364372253418 C 63.35698318481445 45.65157699584961 63.44662094116211 49.06574630737305 61.83731079101562 51.9693489074707 C 60.22800064086914 54.8729362487793 57.28528213500977 56.60642623901367 53.96553039550781 56.60642623901367 Z" stroke="none"/>
        <path d="M 36.00399017333984 10.86795806884766 C 34.67813110351562 10.86795806884766 33.36872100830078 11.19279861450195 32.21732330322266 11.80735778808594 C 30.9881706237793 12.46341705322266 29.97973251342773 13.41241836547852 29.22001266479492 14.62797927856445 L 11.25849151611328 43.36643981933594 C 9.694522857666016 45.86877822875977 9.614841461181641 48.90359497070312 11.04533004760742 51.48456573486328 C 12.475830078125 54.06553649902344 15.09158325195312 55.60641860961914 18.04247283935547 55.60641860961914 L 53.96553039550781 55.60641860961914 C 56.91641998291016 55.60641860961914 59.53217315673828 54.06553649902344 60.96266937255859 51.48456573486328 C 62.39316177368164 48.90359497070312 62.31348037719727 45.86877822875977 60.74951171875 43.36643981933594 L 42.78797912597656 14.62797927856445 C 42.02825927734375 13.41241836547852 41.01982116699219 12.46341705322266 39.79067230224609 11.80735778808594 C 38.6392707824707 11.19279861450195 37.32986068725586 10.86795806884766 36.00399017333984 10.86795806884766 M 36.00399780273438 8.867958068847656 C 39.26482009887695 8.867958068847656 42.52564239501953 10.43463134765625 44.48398208618164 13.56797790527344 L 62.44551086425781 42.30643463134766 C 66.60831451416016 48.9669189453125 61.81988143920898 57.60641860961914 53.96553039550781 57.60641860961914 L 18.04247283935547 57.60641860961914 C 10.1881217956543 57.60641860961914 5.399688720703125 48.9669189453125 9.562492370605469 42.30643463134766 L 27.52401351928711 13.56797790527344 C 29.48235321044922 10.43463134765625 32.7431755065918 8.867958068847656 36.00399780273438 8.867958068847656 Z" stroke="none" fill="#e85845"/>
      </g>
      <text id="_" data-name="!" transform="translate(30.603 48.902)" fill="#080707" font-size="35" font-family="STHeitiSC-Medium, Heiti SC" font-weight="500"><tspan x="0" y="0">!</tspan></text>
    </g>
    <g id="Group_28" data-name="Group 28" transform="translate(832.305 219.941)">
      <g id="email_form_block" data-name="email form block" transform="translate(0 0)">
        <rect id="Rectangle_16-18" data-name="Rectangle 16" width="382" height="53" rx="14" transform="translate(-0.305 0.059)" fill="#fff"/>
      </g>
      <path id="Path_40" data-name="Path 40" d="M.4-17.92v-1.575H9.266v1.575h-3.6V-3.338H4.023V-17.92ZM21.395-7.209l1.305.675a6.162,6.162,0,0,1-5.716,3.6A5.866,5.866,0,0,1,12.529-4.79a6.27,6.27,0,0,1-1.755-4.467,6.287,6.287,0,0,1,1.766-4.478A5.769,5.769,0,0,1,16.906-15.6a5.99,5.99,0,0,1,4.365,1.733,6.536,6.536,0,0,1,1.834,4.726H12.349A4.98,4.98,0,0,0,13.71-5.667a4.238,4.238,0,0,0,3.139,1.316A4.86,4.86,0,0,0,21.395-7.209Zm0-3.263a4.2,4.2,0,0,0-1.575-2.678,4.635,4.635,0,0,0-2.9-.968q-3.375,0-4.41,3.645Zm8.236,2.138-3.465,5H24.343l4.365-6.3L24.77-15.287h1.845l3.015,4.32,2.993-4.32h1.845L30.553-9.661l4.433,6.323H33.119ZM39.667-5.228q0,.608.158.72a1.732,1.732,0,0,0,.81.113h.923v1.305a9.612,9.612,0,0,1-1.485.158,1.971,1.971,0,0,1-1.485-.5,2.185,2.185,0,0,1-.473-1.553v-9H36v-1.305h2.115V-19.9h1.553v4.613H42.1v1.305h-2.43Z" transform="translate(18.617 36.992)" fill="#d8d8d8"/>
    </g>
    <g id="Group_29" data-name="Group 29" transform="translate(832.305 130.395)">
      <g id="name_form_block" data-name="name form block" transform="translate(0 0)">
        <g transform="matrix(1, 0, 0, 1, -832.3, -130.39)" filter="url(#Rectangle_16-4)">
          <rect id="Rectangle_16-19" data-name="Rectangle 16" width="382" height="52" rx="14" transform="translate(832 130)" fill="#fff"/>
        </g>
      </g>
      <path id="Path_41" data-name="Path 41" d="M.4-17.92v-1.575H9.266v1.575h-3.6V-3.338H4.023V-17.92ZM21.395-7.209l1.305.675a6.162,6.162,0,0,1-5.716,3.6A5.866,5.866,0,0,1,12.529-4.79a6.27,6.27,0,0,1-1.755-4.467,6.287,6.287,0,0,1,1.766-4.478A5.769,5.769,0,0,1,16.906-15.6a5.99,5.99,0,0,1,4.365,1.733,6.536,6.536,0,0,1,1.834,4.726H12.349A4.98,4.98,0,0,0,13.71-5.667a4.238,4.238,0,0,0,3.139,1.316A4.86,4.86,0,0,0,21.395-7.209Zm0-3.263a4.2,4.2,0,0,0-1.575-2.678,4.635,4.635,0,0,0-2.9-.968q-3.375,0-4.41,3.645Zm8.236,2.138-3.465,5H24.343l4.365-6.3L24.77-15.287h1.845l3.015,4.32,2.993-4.32h1.845L30.553-9.661l4.433,6.323H33.119ZM39.667-5.228q0,.608.158.72a1.732,1.732,0,0,0,.81.113h.923v1.305a9.612,9.612,0,0,1-1.485.158,1.971,1.971,0,0,1-1.485-.5,2.185,2.185,0,0,1-.473-1.553v-9H36v-1.305h2.115V-19.9h1.553v4.613H42.1v1.305h-2.43Z" transform="translate(18.617 37.428)"/>
    </g>
    <g id="Group_23" data-name="Group 23" transform="translate(1134.162 315.681)">
      <line id="Line_12" data-name="Line 12" x2="43.047" transform="translate(0 0)" fill="none" stroke="#000" stroke-linecap="round" stroke-width="6"/>
      <line id="Line_13" data-name="Line 13" x2="43.047" transform="translate(0 15.322)" fill="none" stroke="#000" stroke-linecap="round" stroke-width="6"/>
      <line id="Line_14" data-name="Line 14" x2="43.047" transform="translate(0 30.643)" fill="none" stroke="#000" stroke-linecap="round" stroke-width="6"/>
    </g>
    <g id="search_bar-4" data-name="search bar" transform="translate(408.505 424.889)">
      <g transform="matrix(1, 0, 0, 1, -408.5, -424.89)" filter="url(#Rectangle_16-5)">
        <rect id="Rectangle_16-20" data-name="Rectangle 16" width="234.926" height="51.306" rx="25.653" transform="translate(408.5 424.89)" fill="#fd9426"/>
      </g>
      <g id="magnifying_glass-3" data-name="magnifying glass" transform="translate(186.964 10.137)">
        <g id="Path_19-4" data-name="Path 19" fill="none" stroke-linecap="round">
          <path d="M11.231,0A11.231,11.231,0,1,1,0,11.231,11.231,11.231,0,0,1,11.231,0Z" stroke="none"/>
          <path d="M 11.23092460632324 4.999998092651367 C 7.795174598693848 4.999998092651367 4.999994277954102 7.795177459716797 4.999994277954102 11.23092746734619 C 4.999994277954102 14.66667747497559 7.795174598693848 17.46185684204102 11.23092460632324 17.46185684204102 C 14.66666412353516 17.46185684204102 17.46184539794922 14.66667747497559 17.46184539794922 11.23092746734619 C 17.46184539794922 7.795177459716797 14.66666412353516 4.999998092651367 11.23092460632324 4.999998092651367 M 11.23092460632324 -1.9073486328125e-06 C 17.43359375 -1.9073486328125e-06 22.46184539794922 5.028257369995117 22.46184539794922 11.23092746734619 C 22.46184539794922 17.43359756469727 17.43359375 22.46185684204102 11.23092460632324 22.46185684204102 C 5.028255462646484 22.46185684204102 -5.7220458984375e-06 17.43359756469727 -5.7220458984375e-06 11.23092746734619 C -5.7220458984375e-06 5.028257369995117 5.028255462646484 -1.9073486328125e-06 11.23092460632324 -1.9073486328125e-06 Z" stroke="none" fill="#fff"/>
        </g>
        <path id="Path_20-4" data-name="Path 20" d="M0,0,8.663,8.929" transform="translate(17.68 18.518)" fill="none" stroke="#fff" stroke-linecap="round" stroke-width="5"/>
      </g>
      <path id="search-2" data-name="search" d="M.364-9.732l1.272-.751Q2.971-8.022,4.744-8.022A2.833,2.833,0,0,0,6.7-8.752a2.339,2.339,0,0,0,.813-1.815A2.811,2.811,0,0,0,6.83-12.3a12.619,12.619,0,0,0-2.284-2.075A18.351,18.351,0,0,1,2.4-16.167a3.952,3.952,0,0,1-.813-1.272A3.779,3.779,0,0,1,1.323-18.8a3.328,3.328,0,0,1,1.032-2.471,3.56,3.56,0,0,1,2.6-1.012,3.766,3.766,0,0,1,2.148.615,7.069,7.069,0,0,1,1.773,1.825l-1.21.939a7.451,7.451,0,0,0-1.21-1.314,2.315,2.315,0,0,0-1.533-.521A2.068,2.068,0,0,0,3.44-20.2a1.812,1.812,0,0,0-.574,1.377,2.2,2.2,0,0,0,.511,1.45,15.31,15.31,0,0,0,2.315,1.95,12.405,12.405,0,0,1,2.628,2.461,3.963,3.963,0,0,1,.824,2.378A3.775,3.775,0,0,1,7.883-7.761a4.123,4.123,0,0,1-2.93,1.2Q2.012-6.562.364-9.732Zm21.023-.793L22.6-9.9a5.711,5.711,0,0,1-5.3,3.337,5.437,5.437,0,0,1-4.13-1.721,5.811,5.811,0,0,1-1.627-4.14,5.828,5.828,0,0,1,1.637-4.15A5.347,5.347,0,0,1,17.226-18.3,5.552,5.552,0,0,1,21.273-16.7a6.057,6.057,0,0,1,1.7,4.38H13A4.616,4.616,0,0,0,14.265-9.1a3.928,3.928,0,0,0,2.909,1.22A4.5,4.5,0,0,0,21.387-10.525Zm0-3.024a3.891,3.891,0,0,0-1.46-2.482,4.3,4.3,0,0,0-2.69-.9q-3.128,0-4.088,3.379Zm15.267-4.463V-6.938h-1.4v-1.9a5.561,5.561,0,0,1-4.338,2.273A5.5,5.5,0,0,1,26.8-8.3a5.773,5.773,0,0,1-1.679-4.15,5.685,5.685,0,0,1,1.689-4.13A5.471,5.471,0,0,1,30.856-18.3a5.211,5.211,0,0,1,4.4,2.315v-2.023Zm-1.314,5.59a4.408,4.408,0,0,0-1.272-3.2,4.189,4.189,0,0,0-3.118-1.3,4.126,4.126,0,0,0-3.118,1.345A4.474,4.474,0,0,0,26.56-12.4a4.436,4.436,0,0,0,1.293,3.181,4.145,4.145,0,0,0,3.1,1.345,4.225,4.225,0,0,0,3.1-1.293A4.412,4.412,0,0,0,35.34-12.423Zm3.984-5.59h1.46v1.606a5.592,5.592,0,0,1,1.137-1.439,1.879,1.879,0,0,1,1.231-.459,2.834,2.834,0,0,1,1.366.375l-.751,1.21a1.241,1.241,0,0,0-.647-.188,1.624,1.624,0,0,0-1.22.667,4.2,4.2,0,0,0-.845,1.721,17.91,17.91,0,0,0-.271,3.827v3.754h-1.46Zm17.645,2.294-1.126.709a4.739,4.739,0,0,0-4-1.94,4.7,4.7,0,0,0-3.358,1.283,4.2,4.2,0,0,0-1.356,3.181,4.472,4.472,0,0,0,1.335,3.254,4.542,4.542,0,0,0,3.379,1.356,4.919,4.919,0,0,0,4-1.94l1.126.751a5.4,5.4,0,0,1-2.242,1.856,7.183,7.183,0,0,1-3.035.647,5.874,5.874,0,0,1-4.286-1.689,5.566,5.566,0,0,1-1.721-4.13,5.7,5.7,0,0,1,1.742-4.182A6.056,6.056,0,0,1,51.9-18.3a6.511,6.511,0,0,1,2.972.688A5.014,5.014,0,0,1,56.969-15.718Zm2.67-6.57h1.439v6.257a5.059,5.059,0,0,1,4.15-2.273,3.926,3.926,0,0,1,2.252.678A3.686,3.686,0,0,1,68.9-15.854a9.52,9.52,0,0,1,.417,3.222v5.694H67.877v-5.277a17.5,17.5,0,0,0-.1-2.357,3.4,3.4,0,0,0-.459-1.231,2.328,2.328,0,0,0-.949-.886,3.144,3.144,0,0,0-1.439-.3,3.493,3.493,0,0,0-1.616.4,3.857,3.857,0,0,0-1.314,1.105,4,4,0,0,0-.73,1.46A15.328,15.328,0,0,0,61.077-11v4.067H59.638Z" transform="translate(22.254 39.473)" fill="#fff"/>
      <g id="magnifying_glass-4" data-name="magnifying glass" transform="translate(186.964 10.137)">
        <g id="Path_19-5" data-name="Path 19" fill="none" stroke-linecap="round">
          <path d="M11.231,0A11.231,11.231,0,1,1,0,11.231,11.231,11.231,0,0,1,11.231,0Z" stroke="none"/>
          <path d="M 11.23092460632324 4.999998092651367 C 7.795174598693848 4.999998092651367 4.999994277954102 7.795177459716797 4.999994277954102 11.23092746734619 C 4.999994277954102 14.66667747497559 7.795174598693848 17.46185684204102 11.23092460632324 17.46185684204102 C 14.66666412353516 17.46185684204102 17.46184539794922 14.66667747497559 17.46184539794922 11.23092746734619 C 17.46184539794922 7.795177459716797 14.66666412353516 4.999998092651367 11.23092460632324 4.999998092651367 M 11.23092460632324 -1.9073486328125e-06 C 17.43359375 -1.9073486328125e-06 22.46184539794922 5.028257369995117 22.46184539794922 11.23092746734619 C 22.46184539794922 17.43359756469727 17.43359375 22.46185684204102 11.23092460632324 22.46185684204102 C 5.028255462646484 22.46185684204102 -5.7220458984375e-06 17.43359756469727 -5.7220458984375e-06 11.23092746734619 C -5.7220458984375e-06 5.028257369995117 5.028255462646484 -1.9073486328125e-06 11.23092460632324 -1.9073486328125e-06 Z" stroke="none" fill="#fff"/>
        </g>
        <path id="Path_20-5" data-name="Path 20" d="M0,0,8.663,8.929" transform="translate(17.68 18.518)" fill="none" stroke="#fff" stroke-linecap="round" stroke-width="5"/>
      </g>
    </g>
    <g id="search_bar-5" data-name="search bar" transform="translate(670.434 424.889)">
      <g transform="matrix(1, 0, 0, 1, -670.43, -424.89)" filter="url(#Rectangle_16-6)">
        <rect id="Rectangle_16-21" data-name="Rectangle 16" width="53.106" height="51.306" rx="25.653" transform="translate(670.43 424.89)" fill="#fd9426"/>
      </g>
      <g id="magnifying_glass-5" data-name="magnifying glass" transform="translate(13.042 12.242)">
        <g id="Path_19-6" data-name="Path 19" fill="none" stroke-linecap="round">
          <path d="M11.231,0A11.231,11.231,0,1,1,0,11.231,11.231,11.231,0,0,1,11.231,0Z" stroke="none"/>
          <path d="M 11.23092460632324 4.999998092651367 C 7.795174598693848 4.999998092651367 4.999994277954102 7.795177459716797 4.999994277954102 11.23092746734619 C 4.999994277954102 14.66667747497559 7.795174598693848 17.46185684204102 11.23092460632324 17.46185684204102 C 14.66666412353516 17.46185684204102 17.46184539794922 14.66667747497559 17.46184539794922 11.23092746734619 C 17.46184539794922 7.795177459716797 14.66666412353516 4.999998092651367 11.23092460632324 4.999998092651367 M 11.23092460632324 -1.9073486328125e-06 C 17.43359375 -1.9073486328125e-06 22.46184539794922 5.028257369995117 22.46184539794922 11.23092746734619 C 22.46184539794922 17.43359756469727 17.43359375 22.46185684204102 11.23092460632324 22.46185684204102 C 5.028255462646484 22.46185684204102 -5.7220458984375e-06 17.43359756469727 -5.7220458984375e-06 11.23092746734619 C -5.7220458984375e-06 5.028257369995117 5.028255462646484 -1.9073486328125e-06 11.23092460632324 -1.9073486328125e-06 Z" stroke="none" fill="#fff"/>
        </g>
        <path id="Path_20-6" data-name="Path 20" d="M0,0,8.663,8.929" transform="translate(17.68 18.518)" fill="none" stroke="#fff" stroke-linecap="round" stroke-width="5"/>
      </g>
    </g>
    <g id="search_bar-6" data-name="search bar" transform="translate(406.705 235.868)">
      <g transform="matrix(1, 0, 0, 1, -406.7, -235.87)" filter="url(#Rectangle_16-7)">
        <rect id="Rectangle_16-22" data-name="Rectangle 16" width="234.926" height="51.306" rx="25.653" transform="translate(406.7 235.87)" fill="#cf9bb2"/>
      </g>
      <g id="magnifying_glass-6" data-name="magnifying glass" transform="translate(186.964 10.137)">
        <g id="Path_19-7" data-name="Path 19" fill="none" stroke-linecap="round">
          <path d="M11.231,0A11.231,11.231,0,1,1,0,11.231,11.231,11.231,0,0,1,11.231,0Z" stroke="none"/>
          <path d="M 11.23092460632324 4.999998092651367 C 7.795174598693848 4.999998092651367 4.999994277954102 7.795177459716797 4.999994277954102 11.23092746734619 C 4.999994277954102 14.66667747497559 7.795174598693848 17.46185684204102 11.23092460632324 17.46185684204102 C 14.66666412353516 17.46185684204102 17.46184539794922 14.66667747497559 17.46184539794922 11.23092746734619 C 17.46184539794922 7.795177459716797 14.66666412353516 4.999998092651367 11.23092460632324 4.999998092651367 M 11.23092460632324 -1.9073486328125e-06 C 17.43359375 -1.9073486328125e-06 22.46184539794922 5.028257369995117 22.46184539794922 11.23092746734619 C 22.46184539794922 17.43359756469727 17.43359375 22.46185684204102 11.23092460632324 22.46185684204102 C 5.028255462646484 22.46185684204102 -5.7220458984375e-06 17.43359756469727 -5.7220458984375e-06 11.23092746734619 C -5.7220458984375e-06 5.028257369995117 5.028255462646484 -1.9073486328125e-06 11.23092460632324 -1.9073486328125e-06 Z" stroke="none" fill="#fff"/>
        </g>
        <path id="Path_20-7" data-name="Path 20" d="M0,0,8.663,8.929" transform="translate(17.68 18.518)" fill="none" stroke="#fff" stroke-linecap="round" stroke-width="5"/>
      </g>
      <path id="search-3" data-name="search" d="M.364-9.732l1.272-.751Q2.971-8.022,4.744-8.022A2.833,2.833,0,0,0,6.7-8.752a2.339,2.339,0,0,0,.813-1.815A2.811,2.811,0,0,0,6.83-12.3a12.619,12.619,0,0,0-2.284-2.075A18.351,18.351,0,0,1,2.4-16.167a3.952,3.952,0,0,1-.813-1.272A3.779,3.779,0,0,1,1.323-18.8a3.328,3.328,0,0,1,1.032-2.471,3.56,3.56,0,0,1,2.6-1.012,3.766,3.766,0,0,1,2.148.615,7.069,7.069,0,0,1,1.773,1.825l-1.21.939a7.451,7.451,0,0,0-1.21-1.314,2.315,2.315,0,0,0-1.533-.521A2.068,2.068,0,0,0,3.44-20.2a1.812,1.812,0,0,0-.574,1.377,2.2,2.2,0,0,0,.511,1.45,15.31,15.31,0,0,0,2.315,1.95,12.405,12.405,0,0,1,2.628,2.461,3.963,3.963,0,0,1,.824,2.378A3.775,3.775,0,0,1,7.883-7.761a4.123,4.123,0,0,1-2.93,1.2Q2.012-6.562.364-9.732Zm21.023-.793L22.6-9.9a5.711,5.711,0,0,1-5.3,3.337,5.437,5.437,0,0,1-4.13-1.721,5.811,5.811,0,0,1-1.627-4.14,5.828,5.828,0,0,1,1.637-4.15A5.347,5.347,0,0,1,17.226-18.3,5.552,5.552,0,0,1,21.273-16.7a6.057,6.057,0,0,1,1.7,4.38H13A4.616,4.616,0,0,0,14.265-9.1a3.928,3.928,0,0,0,2.909,1.22A4.5,4.5,0,0,0,21.387-10.525Zm0-3.024a3.891,3.891,0,0,0-1.46-2.482,4.3,4.3,0,0,0-2.69-.9q-3.128,0-4.088,3.379Zm15.267-4.463V-6.938h-1.4v-1.9a5.561,5.561,0,0,1-4.338,2.273A5.5,5.5,0,0,1,26.8-8.3a5.773,5.773,0,0,1-1.679-4.15,5.685,5.685,0,0,1,1.689-4.13A5.471,5.471,0,0,1,30.856-18.3a5.211,5.211,0,0,1,4.4,2.315v-2.023Zm-1.314,5.59a4.408,4.408,0,0,0-1.272-3.2,4.189,4.189,0,0,0-3.118-1.3,4.126,4.126,0,0,0-3.118,1.345A4.474,4.474,0,0,0,26.56-12.4a4.436,4.436,0,0,0,1.293,3.181,4.145,4.145,0,0,0,3.1,1.345,4.225,4.225,0,0,0,3.1-1.293A4.412,4.412,0,0,0,35.34-12.423Zm3.984-5.59h1.46v1.606a5.592,5.592,0,0,1,1.137-1.439,1.879,1.879,0,0,1,1.231-.459,2.834,2.834,0,0,1,1.366.375l-.751,1.21a1.241,1.241,0,0,0-.647-.188,1.624,1.624,0,0,0-1.22.667,4.2,4.2,0,0,0-.845,1.721,17.91,17.91,0,0,0-.271,3.827v3.754h-1.46Zm17.645,2.294-1.126.709a4.739,4.739,0,0,0-4-1.94,4.7,4.7,0,0,0-3.358,1.283,4.2,4.2,0,0,0-1.356,3.181,4.472,4.472,0,0,0,1.335,3.254,4.542,4.542,0,0,0,3.379,1.356,4.919,4.919,0,0,0,4-1.94l1.126.751a5.4,5.4,0,0,1-2.242,1.856,7.183,7.183,0,0,1-3.035.647,5.874,5.874,0,0,1-4.286-1.689,5.566,5.566,0,0,1-1.721-4.13,5.7,5.7,0,0,1,1.742-4.182A6.056,6.056,0,0,1,51.9-18.3a6.511,6.511,0,0,1,2.972.688A5.014,5.014,0,0,1,56.969-15.718Zm2.67-6.57h1.439v6.257a5.059,5.059,0,0,1,4.15-2.273,3.926,3.926,0,0,1,2.252.678A3.686,3.686,0,0,1,68.9-15.854a9.52,9.52,0,0,1,.417,3.222v5.694H67.877v-5.277a17.5,17.5,0,0,0-.1-2.357,3.4,3.4,0,0,0-.459-1.231,2.328,2.328,0,0,0-.949-.886,3.144,3.144,0,0,0-1.439-.3,3.493,3.493,0,0,0-1.616.4,3.857,3.857,0,0,0-1.314,1.105,4,4,0,0,0-.73,1.46A15.328,15.328,0,0,0,61.077-11v4.067H59.638Z" transform="translate(22.253 39.473)" fill="#fff"/>
    </g>
    <g id="search_bar-7" data-name="search bar" transform="translate(668.634 235.868)">
      <g transform="matrix(1, 0, 0, 1, -668.63, -235.87)" filter="url(#Rectangle_16-8)">
        <rect id="Rectangle_16-23" data-name="Rectangle 16" width="53.106" height="51.306" rx="25.653" transform="translate(668.63 235.87)" fill="#cf9bb2"/>
      </g>
      <g id="magnifying_glass-7" data-name="magnifying glass" transform="translate(13.042 12.242)">
        <g id="Path_19-8" data-name="Path 19" fill="none" stroke-linecap="round">
          <path d="M11.231,0A11.231,11.231,0,1,1,0,11.231,11.231,11.231,0,0,1,11.231,0Z" stroke="none"/>
          <path d="M 11.23092460632324 4.999998092651367 C 7.795174598693848 4.999998092651367 4.999994277954102 7.795177459716797 4.999994277954102 11.23092746734619 C 4.999994277954102 14.66667747497559 7.795174598693848 17.46185684204102 11.23092460632324 17.46185684204102 C 14.66666412353516 17.46185684204102 17.46184539794922 14.66667747497559 17.46184539794922 11.23092746734619 C 17.46184539794922 7.795177459716797 14.66666412353516 4.999998092651367 11.23092460632324 4.999998092651367 M 11.23092460632324 -1.9073486328125e-06 C 17.43359375 -1.9073486328125e-06 22.46184539794922 5.028257369995117 22.46184539794922 11.23092746734619 C 22.46184539794922 17.43359756469727 17.43359375 22.46185684204102 11.23092460632324 22.46185684204102 C 5.028255462646484 22.46185684204102 -5.7220458984375e-06 17.43359756469727 -5.7220458984375e-06 11.23092746734619 C -5.7220458984375e-06 5.028257369995117 5.028255462646484 -1.9073486328125e-06 11.23092460632324 -1.9073486328125e-06 Z" stroke="none" fill="#fff"/>
        </g>
        <path id="Path_20-8" data-name="Path 20" d="M0,0,8.663,8.929" transform="translate(17.68 18.518)" fill="none" stroke="#fff" stroke-linecap="round" stroke-width="5"/>
      </g>
    </g>
    <g id="Group_25" data-name="Group 25" transform="translate(495.815 135.056)">
      <g id="Rectangle_13-3" data-name="Rectangle 13" transform="translate(0 0)" fill="#23d1e4" stroke="#23d1e4" stroke-width="1">
        <rect width="54.006" height="53.106" rx="16" stroke="none"/>
        <rect x="0.5" y="0.5" width="53.006" height="52.106" rx="15.5" fill="none"/>
      </g>
      <g id="checkmark-2" data-name="checkmark" transform="matrix(0.998, 0.07, -0.07, 0.998, 15.039, 17.11)">
        <line id="Line_1-2" data-name="Line 1" x2="9.984" y2="7.048" transform="translate(0 9.89)" fill="none" stroke="#fff" stroke-linecap="round" stroke-width="6"/>
        <g id="Group_21-2" data-name="Group 21" transform="translate(9.984 0)">
          <line id="Line_2-2" data-name="Line 2" x1="14.494" y2="16.938" transform="translate(0 0)" fill="none" stroke="#fff" stroke-linecap="round" stroke-width="6"/>
        </g>
      </g>
    </g>
    <g id="empty_check_box-2" data-name="empty check box" transform="translate(412.105 135.056)" fill="#fff">
      <path d="M 39.60440063476562 52.35591506958008 L 14.4015998840332 52.35591506958008 C 10.75512981414795 52.35591506958008 7.326910495758057 50.93590545654297 4.748460292816162 48.35745620727539 C 2.170010328292847 45.77900695800781 0.7500002384185791 42.35078430175781 0.7500002384185791 38.70431518554688 L 0.7500002384185791 14.4016056060791 C 0.7500002384185791 10.75512599945068 2.170010328292847 7.326915740966797 4.748460292816162 4.748465538024902 C 7.326910495758057 2.170015573501587 10.75512981414795 0.7500056028366089 14.4015998840332 0.7500056028366089 L 39.60440063476562 0.7500056028366089 C 43.25086975097656 0.7500056028366089 46.6790885925293 2.170015573501587 49.25754165649414 4.748465538024902 C 51.83599090576172 7.326915740966797 53.25600051879883 10.75512599945068 53.25600051879883 14.4016056060791 L 53.25600051879883 38.70431518554688 C 53.25600051879883 42.35078430175781 51.83599090576172 45.77900695800781 49.25754165649414 48.35745620727539 C 46.6790885925293 50.93590545654297 43.25086975097656 52.35591506958008 39.60440063476562 52.35591506958008 Z" stroke="none"/>
      <path d="M 14.4015998840332 1.499996185302734 C 10.95545959472656 1.499996185302734 7.715579986572266 2.841995239257812 5.278789520263672 5.278785705566406 C 2.841999053955078 7.715583801269531 1.5 10.9554557800293 1.5 14.40160751342773 L 1.5 38.70431518554688 C 1.5 42.15045547485352 2.841999053955078 45.39032745361328 5.278789520263672 47.82711410522461 C 7.715579986572266 50.2639045715332 10.95545959472656 51.60590744018555 14.4015998840332 51.60590744018555 L 39.60440063476562 51.60590744018555 C 43.05054092407227 51.60590744018555 46.29042053222656 50.2639045715332 48.72721099853516 47.82711410522461 C 51.16400146484375 45.39032745361328 52.50600051879883 42.15045547485352 52.50600051879883 38.70431518554688 L 52.50600051879883 14.40160751342773 C 52.50600051879883 10.95546722412109 51.16400146484375 7.715583801269531 48.72721099853516 5.278785705566406 C 46.29042053222656 2.841995239257812 43.05054092407227 1.499996185302734 39.60440063476562 1.499996185302734 L 14.4015998840332 1.499996185302734 M 14.4015998840332 -3.814697265625e-06 L 39.60440063476562 -3.814697265625e-06 C 47.55818176269531 -3.814697265625e-06 54.00600051879883 6.44781494140625 54.00600051879883 14.40160751342773 L 54.00600051879883 38.70431518554688 C 54.00600051879883 46.65809631347656 47.55818176269531 53.10590744018555 39.60440063476562 53.10590744018555 L 14.4015998840332 53.10590744018555 C 6.447811126708984 53.10590744018555 0 46.65809631347656 0 38.70431518554688 L 0 14.40160751342773 C 0 6.44781494140625 6.447811126708984 -3.814697265625e-06 14.4015998840332 -3.814697265625e-06 Z" stroke="none" fill="#ab7e2e"/>
    </g>
    <g id="x_check_box-2" data-name="x check box" transform="translate(579.524 135.056)">
      <g id="Rectangle_13-4" data-name="Rectangle 13" transform="translate(0 0)" fill="#ff9419" stroke="#ff9419" stroke-width="1">
        <rect width="53.106" height="53.106" rx="16" stroke="none"/>
        <rect x="0.5" y="0.5" width="52.106" height="52.106" rx="15.5" fill="none"/>
      </g>
      <g id="X-2" data-name="X" transform="translate(15.592 15.591)">
        <line id="Line_4-2" data-name="Line 4" x2="21.811" y2="21.828" transform="translate(0)" fill="none" stroke="#fff" stroke-linecap="round" stroke-width="6"/>
        <path id="Path_18-2" data-name="Path 18" d="M21.749,0,0,21.828" transform="translate(0)" fill="none" stroke="#fff" stroke-linecap="round" stroke-width="6"/>
      </g>
    </g>
    <g id="Group_24" data-name="Group 24" transform="translate(657.833 130.556)">
      <g id="Polygon_1-2" data-name="Polygon 1" transform="translate(0 0)" fill="#e85845">
        <path d="M 53.96553039550781 56.60642623901367 L 18.04247093200684 56.60642623901367 C 14.72272205352783 56.60642623901367 11.78000164031982 54.8729362487793 10.17069149017334 51.9693489074707 C 8.561381340026855 49.06574630737305 8.651021957397461 45.65157699584961 10.41049194335938 42.8364372253418 L 28.37201118469238 14.09797763824463 C 29.22565078735352 12.73215770721436 30.36097145080566 11.6646671295166 31.74645233154297 10.92516708374023 C 33.04223251342773 10.2335376739502 34.51447296142578 9.86796760559082 36.00400161743164 9.86796760559082 C 37.4935302734375 9.86796760559082 38.96576309204102 10.2335376739502 40.26155090332031 10.92516708374023 C 41.64702224731445 11.6646671295166 42.78234100341797 12.73215770721436 43.63598251342773 14.09797763824463 L 61.59751129150391 42.8364372253418 C 63.35698318481445 45.65157699584961 63.44662094116211 49.06574630737305 61.83731079101562 51.9693489074707 C 60.22800064086914 54.8729362487793 57.28528213500977 56.60642623901367 53.96553039550781 56.60642623901367 Z" stroke="none"/>
        <path d="M 36.00399017333984 10.86795806884766 C 34.67813110351562 10.86795806884766 33.36872100830078 11.19279861450195 32.21732330322266 11.80735778808594 C 30.9881706237793 12.46341705322266 29.97973251342773 13.41241836547852 29.22001266479492 14.62797927856445 L 11.25849151611328 43.36643981933594 C 9.694522857666016 45.86877822875977 9.614841461181641 48.90359497070312 11.04533004760742 51.48456573486328 C 12.475830078125 54.06553649902344 15.09158325195312 55.60641860961914 18.04247283935547 55.60641860961914 L 53.96553039550781 55.60641860961914 C 56.91641998291016 55.60641860961914 59.53217315673828 54.06553649902344 60.96266937255859 51.48456573486328 C 62.39316177368164 48.90359497070312 62.31348037719727 45.86877822875977 60.74951171875 43.36643981933594 L 42.78797912597656 14.62797927856445 C 42.02825927734375 13.41241836547852 41.01982116699219 12.46341705322266 39.79067230224609 11.80735778808594 C 38.6392707824707 11.19279861450195 37.32986068725586 10.86795806884766 36.00399017333984 10.86795806884766 M 36.00399780273438 8.867958068847656 C 39.26482009887695 8.867958068847656 42.52564239501953 10.43463134765625 44.48398208618164 13.56797790527344 L 62.44551086425781 42.30643463134766 C 66.60831451416016 48.9669189453125 61.81988143920898 57.60641860961914 53.96553039550781 57.60641860961914 L 18.04247283935547 57.60641860961914 C 10.1881217956543 57.60641860961914 5.399688720703125 48.9669189453125 9.562492370605469 42.30643463134766 L 27.52401351928711 13.56797790527344 C 29.48235321044922 10.43463134765625 32.7431755065918 8.867958068847656 36.00399780273438 8.867958068847656 Z" stroke="none" fill="#e85845"/>
      </g>
      <text id="_2" data-name="!" transform="translate(30.603 48.902)" fill="#fff" font-size="35" font-family="STHeitiSC-Medium, Heiti SC" font-weight="500"><tspan x="0" y="0">!</tspan></text>
    </g>
    <g id="search_bar-8" data-name="search bar" transform="translate(993.695 468.795)">
      <g id="Group_30" data-name="Group 30" transform="translate(0 0)">
        <g transform="matrix(1, 0, 0, 1, -993.7, -468.79)" filter="url(#Rectangle_16-9)">
          <rect id="Rectangle_16-24" data-name="Rectangle 16" width="104" height="44" rx="19" transform="translate(994 469)" fill="#cf9bb2"/>
        </g>
      </g>
    </g>
    <g id="search_bar-9" data-name="search bar" transform="translate(871.871 468.795)">
      <g transform="matrix(1, 0, 0, 1, -871.87, -468.8)" filter="url(#Rectangle_16-10)">
        <rect id="Rectangle_16-25" data-name="Rectangle 16" width="105" height="44" rx="19" transform="translate(872 469)" fill="#23d1e4"/>
      </g>
    </g>
    <g id="Group_31" data-name="Group 31" transform="translate(871.871 548.97)">
      <g transform="matrix(1, 0, 0, 1, -871.87, -548.97)" filter="url(#Rectangle_16-11)">
        <rect id="Rectangle_16-26" data-name="Rectangle 16" width="105" height="43" rx="19" transform="translate(872 549)" fill="#e85845"/>
      </g>
    </g>
    <path id="Path_38" data-name="Path 38" d="M2.175-19.495H3.818v14.6h6.211v1.553H2.175Zm22.052,4.208V-3.338H22.72V-5.386a6,6,0,0,1-4.681,2.453A5.933,5.933,0,0,1,13.6-4.812,6.229,6.229,0,0,1,11.784-9.29a6.133,6.133,0,0,1,1.823-4.455A5.9,5.9,0,0,1,17.972-15.6a5.622,5.622,0,0,1,4.748,2.5v-2.183ZM22.81-9.256a4.756,4.756,0,0,0-1.373-3.454,4.519,4.519,0,0,0-3.364-1.406,4.451,4.451,0,0,0-3.364,1.451,4.827,4.827,0,0,0-1.373,3.432,4.786,4.786,0,0,0,1.4,3.432,4.473,4.473,0,0,0,3.342,1.451,4.559,4.559,0,0,0,3.342-1.4A4.76,4.76,0,0,0,22.81-9.256Zm5,5.918V-19.9h1.508v6.661A6.005,6.005,0,0,1,34.106-15.6a5.819,5.819,0,0,1,4.354,1.856,6.207,6.207,0,0,1,1.789,4.467A6.184,6.184,0,0,1,38.427-4.8a5.885,5.885,0,0,1-4.365,1.868,5.706,5.706,0,0,1-4.748-2.61v2.205Zm1.418-6.053A4.927,4.927,0,0,0,30.6-5.858a4.455,4.455,0,0,0,3.353,1.44,4.458,4.458,0,0,0,3.364-1.463A4.832,4.832,0,0,0,38.7-9.313a4.9,4.9,0,0,0-1.35-3.432,4.4,4.4,0,0,0-3.375-1.463,4.578,4.578,0,0,0-3.387,1.373A4.69,4.69,0,0,0,29.223-9.391ZM53.1-7.209l1.305.675a6.162,6.162,0,0,1-5.716,3.6A5.866,5.866,0,0,1,44.232-4.79a6.27,6.27,0,0,1-1.755-4.467,6.287,6.287,0,0,1,1.766-4.478A5.769,5.769,0,0,1,48.609-15.6a5.99,5.99,0,0,1,4.365,1.733,6.536,6.536,0,0,1,1.834,4.726H44.052a4.98,4.98,0,0,0,1.361,3.477,4.238,4.238,0,0,0,3.139,1.316A4.86,4.86,0,0,0,53.1-7.209Zm0-3.263a4.2,4.2,0,0,0-1.575-2.678,4.635,4.635,0,0,0-2.9-.968q-3.375,0-4.41,3.645ZM57.441-19.9h1.53V-3.338h-1.53Z" transform="translate(893.949 501.76)" fill="#fff"/>
    <path id="Path_39" data-name="Path 39" d="M2.175-19.495H3.818v14.6h6.211v1.553H2.175Zm22.052,4.208V-3.338H22.72V-5.386a6,6,0,0,1-4.681,2.453A5.933,5.933,0,0,1,13.6-4.812,6.229,6.229,0,0,1,11.784-9.29a6.133,6.133,0,0,1,1.823-4.455A5.9,5.9,0,0,1,17.972-15.6a5.622,5.622,0,0,1,4.748,2.5v-2.183ZM22.81-9.256a4.756,4.756,0,0,0-1.373-3.454,4.519,4.519,0,0,0-3.364-1.406,4.451,4.451,0,0,0-3.364,1.451,4.827,4.827,0,0,0-1.373,3.432,4.786,4.786,0,0,0,1.4,3.432,4.473,4.473,0,0,0,3.342,1.451,4.559,4.559,0,0,0,3.342-1.4A4.76,4.76,0,0,0,22.81-9.256Zm5,5.918V-19.9h1.508v6.661A6.005,6.005,0,0,1,34.106-15.6a5.819,5.819,0,0,1,4.354,1.856,6.207,6.207,0,0,1,1.789,4.467A6.184,6.184,0,0,1,38.427-4.8a5.885,5.885,0,0,1-4.365,1.868,5.706,5.706,0,0,1-4.748-2.61v2.205Zm1.418-6.053A4.927,4.927,0,0,0,30.6-5.858a4.455,4.455,0,0,0,3.353,1.44,4.458,4.458,0,0,0,3.364-1.463A4.832,4.832,0,0,0,38.7-9.313a4.9,4.9,0,0,0-1.35-3.432,4.4,4.4,0,0,0-3.375-1.463,4.578,4.578,0,0,0-3.387,1.373A4.69,4.69,0,0,0,29.223-9.391ZM53.1-7.209l1.305.675a6.162,6.162,0,0,1-5.716,3.6A5.866,5.866,0,0,1,44.232-4.79a6.27,6.27,0,0,1-1.755-4.467,6.287,6.287,0,0,1,1.766-4.478A5.769,5.769,0,0,1,48.609-15.6a5.99,5.99,0,0,1,4.365,1.733,6.536,6.536,0,0,1,1.834,4.726H44.052a4.98,4.98,0,0,0,1.361,3.477,4.238,4.238,0,0,0,3.139,1.316A4.86,4.86,0,0,0,53.1-7.209Zm0-3.263a4.2,4.2,0,0,0-1.575-2.678,4.635,4.635,0,0,0-2.9-.968q-3.375,0-4.41,3.645ZM57.441-19.9h1.53V-3.338h-1.53Z" transform="translate(1015.463 501.76)" fill="#fff"/>
    <g id="sort_by_bar-2" data-name="sort by bar" transform="translate(868.553 389.529)">
      <g id="search_bar-10" data-name="search bar" transform="translate(0 0)">
        <rect id="Rectangle_16-27" data-name="Rectangle 16" width="233.126" height="42.305" rx="17" fill="#fff"/>
      </g>
      <g id="back_arrow-2" data-name="back arrow" transform="translate(204.044 26.473) rotate(-90)">
        <line id="Line_10-2" data-name="Line 10" y1="7.669" x2="7.003" transform="translate(0 0)" fill="none" stroke="#d8d8d8" stroke-linecap="round" stroke-width="5"/>
        <path id="Path_23-2" data-name="Path 23" d="M0,0,6.991,7.42" transform="translate(0.012 7.736)" fill="none" stroke="#d8d8d8" stroke-linecap="round" stroke-width="5"/>
      </g>
      <path id="Path_33-2" data-name="Path 33" d="M5.684-14.21A4.861,4.861,0,0,0,4.62-15.344,1.816,1.816,0,0,0,3.6-15.633a1.383,1.383,0,0,0-.985.375,1.263,1.263,0,0,0-.4.962,1.525,1.525,0,0,0,.375,1.025A12.1,12.1,0,0,0,4.315-11.84,8.885,8.885,0,0,1,6.294-9.971,3.125,3.125,0,0,1,6.92-8.125a2.937,2.937,0,0,1-.978,2.2A3.2,3.2,0,0,1,3.666-5,3.963,3.963,0,0,1,.084-7.546L1.226-8.2Q2.243-6.311,3.51-6.311A2.019,2.019,0,0,0,4.9-6.827a1.57,1.57,0,0,0,.579-1.2A2.083,2.083,0,0,0,5-9.337a9.456,9.456,0,0,0-1.674-1.517,14.853,14.853,0,0,1-1.635-1.369,3.024,3.024,0,0,1-.649-1,2.96,2.96,0,0,1-.2-1.064,2.628,2.628,0,0,1,.79-1.932,2.762,2.762,0,0,1,2.041-.79,2.917,2.917,0,0,1,1.689.493,5.839,5.839,0,0,1,1.408,1.463Zm7.258.188a4.207,4.207,0,0,1,3.136,1.33A4.419,4.419,0,0,1,17.369-9.5a4.421,4.421,0,0,1-1.275,3.183A4.2,4.2,0,0,1,12.942-5a4.23,4.23,0,0,1-3.16-1.322A4.406,4.406,0,0,1,8.5-9.5a4.419,4.419,0,0,1,1.29-3.191A4.225,4.225,0,0,1,12.942-14.022Zm0,7.79a2.966,2.966,0,0,0,2.213-.946,3.166,3.166,0,0,0,.915-2.284,3.245,3.245,0,0,0-.931-2.315,2.945,2.945,0,0,0-2.206-.978,2.921,2.921,0,0,0-2.2.978,3.269,3.269,0,0,0-.923,2.323,3.193,3.193,0,0,0,.892,2.284A2.956,2.956,0,0,0,12.942-6.232Zm9.792-7.446-.673,1.095a1.1,1.1,0,0,0-.516-.141,1.125,1.125,0,0,0-.876.477A3.174,3.174,0,0,0,20.083-11a13.266,13.266,0,0,0-.2,2.792v2.925H18.573V-13.8h1.314v.923a3.3,3.3,0,0,1,.79-.86,1.535,1.535,0,0,1,.907-.282A2.485,2.485,0,0,1,22.734-13.678Zm5.037,1H26.082V-6.7q0,.328.094.4a.947.947,0,0,0,.469.07H27.4v1.111A7.553,7.553,0,0,1,26.254-5a1.493,1.493,0,0,1-1.111-.368,1.616,1.616,0,0,1-.36-1.165v-6.147h-1.47V-13.8h1.47V-17.01h1.3V-13.8h1.689Zm6.632.125a4.155,4.155,0,0,1,3.191-1.47A4.186,4.186,0,0,1,40.731-12.7a4.421,4.421,0,0,1,1.275,3.183,4.4,4.4,0,0,1-1.3,3.191A4.223,4.223,0,0,1,37.571-5a4.005,4.005,0,0,1-3.168-1.6v1.314H33.136V-17.01H34.4Zm3.113,6.3a2.993,2.993,0,0,0,2.26-.985,3.253,3.253,0,0,0,.931-2.307,3.3,3.3,0,0,0-.907-2.307,2.955,2.955,0,0,0-2.268-.985,3.076,3.076,0,0,0-2.276.923,3.164,3.164,0,0,0-.915,2.323,3.309,3.309,0,0,0,.923,2.37A2.991,2.991,0,0,0,37.516-6.248ZM51-13.8,45.947-2.259H44.6l1.642-3.754L42.788-13.8h1.345l2.8,6.241L49.639-13.8Z" transform="translate(14.566 32.751)" fill="#d8d8d8"/>
    </g>
    <g id="Group_32" data-name="Group 32" transform="translate(993.695 548.97)">
      <rect id="Rectangle_30" data-name="Rectangle 30" width="104" height="43" rx="19" transform="translate(0.305 0.03)" fill="#fff"/>
    </g>
    <path id="Path_37" data-name="Path 37" d="M.325-6.353,1.7-7.164q1.44,2.655,3.353,2.655A3.057,3.057,0,0,0,7.166-5.3a2.524,2.524,0,0,0,.878-1.958A3.033,3.033,0,0,0,7.3-9.121,13.615,13.615,0,0,0,4.837-11.36,19.8,19.8,0,0,1,2.519-13.3a4.264,4.264,0,0,1-.878-1.373,4.078,4.078,0,0,1-.281-1.474,3.59,3.59,0,0,1,1.114-2.667,3.84,3.84,0,0,1,2.8-1.091,4.063,4.063,0,0,1,2.318.664,7.627,7.627,0,0,1,1.913,1.969L8.2-16.255A8.039,8.039,0,0,0,6.9-17.672a2.5,2.5,0,0,0-1.654-.563,2.231,2.231,0,0,0-1.6.585,1.955,1.955,0,0,0-.619,1.485A2.372,2.372,0,0,0,3.577-14.6a16.518,16.518,0,0,0,2.5,2.1A13.384,13.384,0,0,1,8.91-9.841,4.276,4.276,0,0,1,9.8-7.276,4.073,4.073,0,0,1,8.437-4.227,4.449,4.449,0,0,1,5.276-2.933Q2.1-2.933.325-6.353Zm24.528-8.933V-3.338H23.345V-5.386a6,6,0,0,1-4.681,2.453A5.933,5.933,0,0,1,14.22-4.812,6.229,6.229,0,0,1,12.409-9.29a6.133,6.133,0,0,1,1.823-4.455A5.9,5.9,0,0,1,18.6-15.6a5.622,5.622,0,0,1,4.748,2.5v-2.183ZM23.435-9.256a4.756,4.756,0,0,0-1.373-3.454A4.519,4.519,0,0,0,18.7-14.117a4.451,4.451,0,0,0-3.364,1.451,4.827,4.827,0,0,0-1.373,3.432,4.786,4.786,0,0,0,1.4,3.432A4.473,4.473,0,0,0,18.7-4.351a4.559,4.559,0,0,0,3.342-1.4A4.76,4.76,0,0,0,23.435-9.256ZM28.093-19.9h1.53V-3.338h-1.53ZM42.877-7.209l1.305.675a6.162,6.162,0,0,1-5.716,3.6A5.866,5.866,0,0,1,34.011-4.79a6.27,6.27,0,0,1-1.755-4.467,6.287,6.287,0,0,1,1.766-4.478A5.769,5.769,0,0,1,38.388-15.6a5.99,5.99,0,0,1,4.365,1.733,6.535,6.535,0,0,1,1.834,4.726H33.831a4.98,4.98,0,0,0,1.361,3.477,4.238,4.238,0,0,0,3.139,1.316A4.86,4.86,0,0,0,42.877-7.209Zm0-3.263A4.2,4.2,0,0,0,41.3-13.149a4.635,4.635,0,0,0-2.9-.968q-3.375,0-4.41,3.645Z" transform="translate(901.335 580.969)" fill="#fff"/>
    <path id="Path_36" data-name="Path 36" d="M.325-6.353,1.7-7.164q1.44,2.655,3.353,2.655A3.057,3.057,0,0,0,7.166-5.3a2.524,2.524,0,0,0,.878-1.958A3.033,3.033,0,0,0,7.3-9.121,13.615,13.615,0,0,0,4.837-11.36,19.8,19.8,0,0,1,2.519-13.3a4.264,4.264,0,0,1-.878-1.373,4.078,4.078,0,0,1-.281-1.474,3.59,3.59,0,0,1,1.114-2.667,3.84,3.84,0,0,1,2.8-1.091,4.063,4.063,0,0,1,2.318.664,7.627,7.627,0,0,1,1.913,1.969L8.2-16.255A8.039,8.039,0,0,0,6.9-17.672a2.5,2.5,0,0,0-1.654-.563,2.231,2.231,0,0,0-1.6.585,1.955,1.955,0,0,0-.619,1.485A2.372,2.372,0,0,0,3.577-14.6a16.518,16.518,0,0,0,2.5,2.1A13.384,13.384,0,0,1,8.91-9.841,4.276,4.276,0,0,1,9.8-7.276,4.073,4.073,0,0,1,8.437-4.227,4.449,4.449,0,0,1,5.276-2.933Q2.1-2.933.325-6.353Zm12.061-2.88a6.231,6.231,0,0,1,1.811-4.5,5.912,5.912,0,0,1,4.41-1.868,5.912,5.912,0,0,1,4.41,1.868A6.2,6.2,0,0,1,24.83-9.256,6.207,6.207,0,0,1,23.041-4.79,5.9,5.9,0,0,1,18.62-2.933,5.932,5.932,0,0,1,14.187-4.79,6.159,6.159,0,0,1,12.386-9.234Zm10.891.023a4.807,4.807,0,0,0-1.384-3.432,4.388,4.388,0,0,0-3.285-1.451,4.353,4.353,0,0,0-3.274,1.451,4.855,4.855,0,0,0-1.373,3.454,4.746,4.746,0,0,0,1.328,3.4,4.366,4.366,0,0,0,3.3,1.4A4.457,4.457,0,0,0,21.916-5.8,4.721,4.721,0,0,0,23.278-9.211ZM27.463-19.9h1.53V-3.338h-1.53Zm16.652,0V-3.338H42.607V-5.386a6.01,6.01,0,0,1-4.692,2.453A5.928,5.928,0,0,1,33.471-4.8a6.224,6.224,0,0,1-1.8-4.478,6.146,6.146,0,0,1,1.823-4.467A5.9,5.9,0,0,1,37.859-15.6a5.622,5.622,0,0,1,4.748,2.5v-6.8ZM42.7-9.234a4.837,4.837,0,0,0-1.35-3.465,4.468,4.468,0,0,0-3.375-1.418,4.454,4.454,0,0,0-3.387,1.451,4.835,4.835,0,0,0-1.361,3.42,4.811,4.811,0,0,0,1.4,3.432,4.408,4.408,0,0,0,3.3,1.463,4.676,4.676,0,0,0,3.342-1.384A4.646,4.646,0,0,0,42.7-9.234Zm9.969,0a6.231,6.231,0,0,1,1.811-4.5,5.912,5.912,0,0,1,4.41-1.868,5.912,5.912,0,0,1,4.41,1.868A6.2,6.2,0,0,1,65.11-9.256,6.207,6.207,0,0,1,63.321-4.79,5.9,5.9,0,0,1,58.9-2.933,5.932,5.932,0,0,1,54.466-4.79,6.159,6.159,0,0,1,52.666-9.234Zm10.891.023a4.807,4.807,0,0,0-1.384-3.432,4.388,4.388,0,0,0-3.285-1.451,4.353,4.353,0,0,0-3.274,1.451,4.855,4.855,0,0,0-1.373,3.454,4.746,4.746,0,0,0,1.328,3.4,4.366,4.366,0,0,0,3.3,1.4A4.457,4.457,0,0,0,62.2-5.8,4.721,4.721,0,0,0,63.557-9.211ZM78.229-3.338H76.676V-5.476A5.459,5.459,0,0,1,72.2-3.023a4.236,4.236,0,0,1-2.43-.731,3.977,3.977,0,0,1-1.53-1.913,10.271,10.271,0,0,1-.45-3.477v-6.143h1.53v5.693a13.582,13.582,0,0,0,.191,2.835,3.494,3.494,0,0,0,.585,1.26,2.525,2.525,0,0,0,1,.788,3.618,3.618,0,0,0,1.474.27,3.681,3.681,0,0,0,1.7-.428,4.161,4.161,0,0,0,1.418-1.193,4.32,4.32,0,0,0,.788-1.575,16.538,16.538,0,0,0,.2-3.263v-4.388h1.553Zm6.323-1.89q0,.608.158.72a1.732,1.732,0,0,0,.81.113h.923v1.305a9.612,9.612,0,0,1-1.485.158,1.971,1.971,0,0,1-1.485-.5A2.185,2.185,0,0,1,83-4.981v-9H80.884v-1.305H83V-19.9h1.553v4.613h2.43v1.305h-2.43Z" transform="translate(1002.146 580.969)" fill="#d8d8d8"/>
    <g id="dark_blue_button-3" data-name="dark blue button" transform="translate(67 596.866)">
      <g transform="matrix(1, 0, 0, 1, -67, -596.87)" filter="url(#Rectangle_9-4)">
        <rect id="Rectangle_9-8" data-name="Rectangle 9" width="231" height="79" rx="39.5" transform="translate(67 597)" fill="#e85845"/>
      </g>
      <path id="button-5" data-name="button" d="M4.539-39.99H9.317a9.268,9.268,0,0,1,5.771,1.531,5.233,5.233,0,0,1,1.969,4.391,5.589,5.589,0,0,1-.791,2.911,5.754,5.754,0,0,1-2.3,2.137A7.764,7.764,0,0,1,17.746-26.6a5.943,5.943,0,0,1,1.3,3.836A6.392,6.392,0,0,1,16.855-17.8,8.129,8.129,0,0,1,11.2-15.83H4.539Zm2.389,2.355V-29.9h1.38A8.752,8.752,0,0,0,13.019-30.9a3.5,3.5,0,0,0,1.548-3.163q0-3.567-4.846-3.567Zm0,10.162v9.287H9.923a10.4,10.4,0,0,0,3.819-.522,4.621,4.621,0,0,0,2-1.615,3.835,3.835,0,0,0,.774-2.238,4.457,4.457,0,0,0-.437-2.019,4.559,4.559,0,0,0-1.3-1.548,5.858,5.858,0,0,0-2.053-1.009,19.358,19.358,0,0,0-4.459-.336ZM38.761-15.83H36.439v-3.2a8.163,8.163,0,0,1-6.7,3.668,6.334,6.334,0,0,1-3.634-1.094,5.946,5.946,0,0,1-2.288-2.86,15.359,15.359,0,0,1-.673-5.2V-33.7h2.288v8.513a20.311,20.311,0,0,0,.286,4.24A5.226,5.226,0,0,0,26.6-19.06a3.775,3.775,0,0,0,1.5,1.178,5.41,5.41,0,0,0,2.2.4,5.5,5.5,0,0,0,2.541-.639,6.222,6.222,0,0,0,2.12-1.783,6.46,6.46,0,0,0,1.178-2.355,24.73,24.73,0,0,0,.3-4.879V-33.7h2.322Zm9.456-2.827q0,.909.236,1.077a2.59,2.59,0,0,0,1.211.168h1.38v1.952a14.373,14.373,0,0,1-2.221.236,2.947,2.947,0,0,1-2.221-.74,3.268,3.268,0,0,1-.707-2.322v-13.46H42.731V-33.7h3.163v-6.9h2.322v6.9H51.85v1.952H48.216Zm11.407,0q0,.909.236,1.077a2.59,2.59,0,0,0,1.211.168h1.38v1.952a14.373,14.373,0,0,1-2.221.236,2.947,2.947,0,0,1-2.221-.74,3.268,3.268,0,0,1-.707-2.322v-13.46H54.139V-33.7H57.3v-6.9h2.322v6.9h3.634v1.952H59.623Zm6.225-5.99a9.318,9.318,0,0,1,2.709-6.73,8.841,8.841,0,0,1,6.6-2.793,8.841,8.841,0,0,1,6.6,2.793,9.278,9.278,0,0,1,2.709,6.7A9.281,9.281,0,0,1,81.782-18a8.817,8.817,0,0,1-6.612,2.776A8.871,8.871,0,0,1,68.541-18,9.21,9.21,0,0,1,65.849-24.646Zm16.286.034a7.188,7.188,0,0,0-2.069-5.132,6.562,6.562,0,0,0-4.913-2.17,6.509,6.509,0,0,0-4.9,2.17A7.26,7.26,0,0,0,68.2-24.579,7.1,7.1,0,0,0,70.189-19.5a6.529,6.529,0,0,0,4.93,2.086,6.665,6.665,0,0,0,4.98-2.1A7.06,7.06,0,0,0,82.135-24.612Zm6.6-9.085h2.322v3.2a8.163,8.163,0,0,1,6.7-3.668,6.334,6.334,0,0,1,3.634,1.094,5.946,5.946,0,0,1,2.288,2.86,15.36,15.36,0,0,1,.673,5.2v9.186h-2.288v-8.513a20.311,20.311,0,0,0-.286-4.24,5.226,5.226,0,0,0-.875-1.884,3.775,3.775,0,0,0-1.5-1.178,5.41,5.41,0,0,0-2.2-.4,5.5,5.5,0,0,0-2.541.639,6.222,6.222,0,0,0-2.12,1.783,6.46,6.46,0,0,0-1.178,2.355,24.73,24.73,0,0,0-.3,4.879v6.562H88.73Z" transform="translate(61.137 65.49)" fill="#fff"/>
    </g>
    <g id="search_bar-11" data-name="search bar" transform="translate(670.434 519.399)">
      <g transform="matrix(1, 0, 0, 1, -670.43, -519.4)" filter="url(#Rectangle_16-12)">
        <rect id="Rectangle_16-28" data-name="Rectangle 16" width="53.106" height="51.306" rx="25.653" transform="translate(670.43 519.4)" fill="none"/>
      </g>
      <g id="magnifying_glass-8" data-name="magnifying glass" transform="translate(13.042 12.242)">
        <g transform="matrix(1, 0, 0, 1, -683.48, -531.64)" filter="url(#Path_19)">
          <g id="Path_19-9" data-name="Path 19" transform="translate(683.48 531.64)" fill="none" stroke-linecap="round">
            <path d="M11.231,0A11.231,11.231,0,1,1,0,11.231,11.231,11.231,0,0,1,11.231,0Z" stroke="none"/>
            <path d="M 11.23092460632324 4.999998092651367 C 7.795174598693848 4.999998092651367 4.999994277954102 7.795177459716797 4.999994277954102 11.23092746734619 C 4.999994277954102 14.66667747497559 7.795174598693848 17.46185684204102 11.23092460632324 17.46185684204102 C 14.66666412353516 17.46185684204102 17.46184539794922 14.66667747497559 17.46184539794922 11.23092746734619 C 17.46184539794922 7.795177459716797 14.66666412353516 4.999998092651367 11.23092460632324 4.999998092651367 M 11.23092460632324 -1.9073486328125e-06 C 17.43359375 -1.9073486328125e-06 22.46184539794922 5.028257369995117 22.46184539794922 11.23092746734619 C 22.46184539794922 17.43359756469727 17.43359375 22.46185684204102 11.23092460632324 22.46185684204102 C 5.028255462646484 22.46185684204102 -5.7220458984375e-06 17.43359756469727 -5.7220458984375e-06 11.23092746734619 C -5.7220458984375e-06 5.028257369995117 5.028255462646484 -1.9073486328125e-06 11.23092460632324 -1.9073486328125e-06 Z" stroke="none" fill="#000"/>
          </g>
        </g>
        <g transform="matrix(1, 0, 0, 1, -683.48, -531.64)" filter="url(#Path_20)">
          <path id="Path_20-9" data-name="Path 20" d="M0,0,8.663,8.929" transform="translate(701.16 550.16)" fill="none" stroke="#000" stroke-linecap="round" stroke-width="5"/>
        </g>
      </g>
    </g>
    <g id="Group_34" data-name="Group 34" transform="translate(408.505 519.399)">
      <g id="search_bar-12" data-name="search bar" transform="translate(0 0)">
        <g transform="matrix(1, 0, 0, 1, -408.5, -519.4)" filter="url(#Rectangle_16-13)">
          <rect id="Rectangle_16-29" data-name="Rectangle 16" width="234.926" height="51.306" rx="25.653" transform="translate(408.5 519.4)" fill="#fff"/>
        </g>
        <g id="magnifying_glass-9" data-name="magnifying glass" transform="translate(186.964 10.137)">
          <path id="Path_19-10" data-name="Path 19" d="M11.231,0A11.231,11.231,0,1,1,0,11.231,11.231,11.231,0,0,1,11.231,0Z" fill="none"/>
          <path id="Path_20-10" data-name="Path 20" d="M0,0,8.663,8.929" transform="translate(17.68 18.518)" fill="none"/>
        </g>
        <path id="search-4" data-name="search" d="M.364-9.732l1.272-.751Q2.971-8.022,4.744-8.022A2.833,2.833,0,0,0,6.7-8.752a2.339,2.339,0,0,0,.813-1.815A2.811,2.811,0,0,0,6.83-12.3a12.619,12.619,0,0,0-2.284-2.075A18.351,18.351,0,0,1,2.4-16.167a3.952,3.952,0,0,1-.813-1.272A3.779,3.779,0,0,1,1.323-18.8a3.328,3.328,0,0,1,1.032-2.471,3.56,3.56,0,0,1,2.6-1.012,3.766,3.766,0,0,1,2.148.615,7.069,7.069,0,0,1,1.773,1.825l-1.21.939a7.451,7.451,0,0,0-1.21-1.314,2.315,2.315,0,0,0-1.533-.521A2.068,2.068,0,0,0,3.44-20.2a1.812,1.812,0,0,0-.574,1.377,2.2,2.2,0,0,0,.511,1.45,15.31,15.31,0,0,0,2.315,1.95,12.405,12.405,0,0,1,2.628,2.461,3.963,3.963,0,0,1,.824,2.378A3.775,3.775,0,0,1,7.883-7.761a4.123,4.123,0,0,1-2.93,1.2Q2.012-6.562.364-9.732Zm21.023-.793L22.6-9.9a5.711,5.711,0,0,1-5.3,3.337,5.437,5.437,0,0,1-4.13-1.721,5.811,5.811,0,0,1-1.627-4.14,5.828,5.828,0,0,1,1.637-4.15A5.347,5.347,0,0,1,17.226-18.3,5.552,5.552,0,0,1,21.273-16.7a6.057,6.057,0,0,1,1.7,4.38H13A4.616,4.616,0,0,0,14.265-9.1a3.928,3.928,0,0,0,2.909,1.22A4.5,4.5,0,0,0,21.387-10.525Zm0-3.024a3.891,3.891,0,0,0-1.46-2.482,4.3,4.3,0,0,0-2.69-.9q-3.128,0-4.088,3.379Zm15.267-4.463V-6.938h-1.4v-1.9a5.561,5.561,0,0,1-4.338,2.273A5.5,5.5,0,0,1,26.8-8.3a5.773,5.773,0,0,1-1.679-4.15,5.685,5.685,0,0,1,1.689-4.13A5.471,5.471,0,0,1,30.856-18.3a5.211,5.211,0,0,1,4.4,2.315v-2.023Zm-1.314,5.59a4.408,4.408,0,0,0-1.272-3.2,4.189,4.189,0,0,0-3.118-1.3,4.126,4.126,0,0,0-3.118,1.345A4.474,4.474,0,0,0,26.56-12.4a4.436,4.436,0,0,0,1.293,3.181,4.145,4.145,0,0,0,3.1,1.345,4.225,4.225,0,0,0,3.1-1.293A4.412,4.412,0,0,0,35.34-12.423Zm3.984-5.59h1.46v1.606a5.592,5.592,0,0,1,1.137-1.439,1.879,1.879,0,0,1,1.231-.459,2.834,2.834,0,0,1,1.366.375l-.751,1.21a1.241,1.241,0,0,0-.647-.188,1.624,1.624,0,0,0-1.22.667,4.2,4.2,0,0,0-.845,1.721,17.91,17.91,0,0,0-.271,3.827v3.754h-1.46Zm17.645,2.294-1.126.709a4.739,4.739,0,0,0-4-1.94,4.7,4.7,0,0,0-3.358,1.283,4.2,4.2,0,0,0-1.356,3.181,4.472,4.472,0,0,0,1.335,3.254,4.542,4.542,0,0,0,3.379,1.356,4.919,4.919,0,0,0,4-1.94l1.126.751a5.4,5.4,0,0,1-2.242,1.856,7.183,7.183,0,0,1-3.035.647,5.874,5.874,0,0,1-4.286-1.689,5.566,5.566,0,0,1-1.721-4.13,5.7,5.7,0,0,1,1.742-4.182A6.056,6.056,0,0,1,51.9-18.3a6.511,6.511,0,0,1,2.972.688A5.014,5.014,0,0,1,56.969-15.718Zm2.67-6.57h1.439v6.257a5.059,5.059,0,0,1,4.15-2.273,3.926,3.926,0,0,1,2.252.678A3.686,3.686,0,0,1,68.9-15.854a9.52,9.52,0,0,1,.417,3.222v5.694H67.877v-5.277a17.5,17.5,0,0,0-.1-2.357,3.4,3.4,0,0,0-.459-1.231,2.328,2.328,0,0,0-.949-.886,3.144,3.144,0,0,0-1.439-.3,3.493,3.493,0,0,0-1.616.4,3.857,3.857,0,0,0-1.314,1.105,4,4,0,0,0-.73,1.46A15.328,15.328,0,0,0,61.077-11v4.067H59.638Z" transform="translate(22.253 39.473)" fill="#8d8d8d"/>
      </g>
      <g id="magnifying_glass-10" data-name="magnifying glass" transform="translate(186.964 10.137)">
        <g id="Path_19-11" data-name="Path 19" fill="none" stroke-linecap="round">
          <path d="M11.231,0A11.231,11.231,0,1,1,0,11.231,11.231,11.231,0,0,1,11.231,0Z" stroke="none"/>
          <path d="M 11.23092460632324 4.999998092651367 C 7.795174598693848 4.999998092651367 4.999994277954102 7.795177459716797 4.999994277954102 11.23092746734619 C 4.999994277954102 14.66667747497559 7.795174598693848 17.46185684204102 11.23092460632324 17.46185684204102 C 14.66666412353516 17.46185684204102 17.46184539794922 14.66667747497559 17.46184539794922 11.23092746734619 C 17.46184539794922 7.795177459716797 14.66666412353516 4.999998092651367 11.23092460632324 4.999998092651367 M 11.23092460632324 -1.9073486328125e-06 C 17.43359375 -1.9073486328125e-06 22.46184539794922 5.028257369995117 22.46184539794922 11.23092746734619 C 22.46184539794922 17.43359756469727 17.43359375 22.46185684204102 11.23092460632324 22.46185684204102 C 5.028255462646484 22.46185684204102 -5.7220458984375e-06 17.43359756469727 -5.7220458984375e-06 11.23092746734619 C -5.7220458984375e-06 5.028257369995117 5.028255462646484 -1.9073486328125e-06 11.23092460632324 -1.9073486328125e-06 Z" stroke="none" fill="#000"/>
        </g>
        <path id="Path_20-11" data-name="Path 20" d="M0,0,8.663,8.929" transform="translate(17.68 18.518)" fill="none" stroke="#000" stroke-linecap="round" stroke-width="5"/>
      </g>
    </g>
    <g id="search_bar-13" data-name="search bar" transform="translate(871.871 627.062)">
      <g id="Group_33" data-name="Group 33" transform="translate(0 0)">
        <g transform="matrix(1, 0, 0, 1, -871.87, -627.06)" filter="url(#Rectangle_16-14)">
          <rect id="Rectangle_16-30" data-name="Rectangle 16" width="226" height="44" rx="19" transform="translate(872 627)" fill="#fff"/>
        </g>
      </g>
    </g>
    <path id="Path_42" data-name="Path 42" d="M2.175-19.495H3.818v14.6h6.211v1.553H2.175Zm22.052,4.208V-3.338H22.72V-5.386a6,6,0,0,1-4.681,2.453A5.933,5.933,0,0,1,13.6-4.812,6.229,6.229,0,0,1,11.784-9.29a6.133,6.133,0,0,1,1.823-4.455A5.9,5.9,0,0,1,17.972-15.6a5.622,5.622,0,0,1,4.748,2.5v-2.183ZM22.81-9.256a4.756,4.756,0,0,0-1.373-3.454,4.519,4.519,0,0,0-3.364-1.406,4.451,4.451,0,0,0-3.364,1.451,4.827,4.827,0,0,0-1.373,3.432,4.786,4.786,0,0,0,1.4,3.432,4.473,4.473,0,0,0,3.342,1.451,4.559,4.559,0,0,0,3.342-1.4A4.76,4.76,0,0,0,22.81-9.256Zm4.3-6.031h1.575v1.733a6.033,6.033,0,0,1,1.226-1.553,2.028,2.028,0,0,1,1.328-.5,3.058,3.058,0,0,1,1.474.405l-.81,1.305a1.338,1.338,0,0,0-.7-.2,1.752,1.752,0,0,0-1.316.72,4.535,4.535,0,0,0-.911,1.856,19.323,19.323,0,0,0-.293,4.129v4.05H27.108Zm17.822,0h1.553v9.226a11.1,11.1,0,0,1-.428,3.6A4.969,4.969,0,0,1,44.817-.548,5.451,5.451,0,0,1,42.86.622a7.526,7.526,0,0,1-2.52.405q-4.681,0-6.166-3.735h1.665a4.657,4.657,0,0,0,4.433,2.34,5.562,5.562,0,0,0,2.622-.585,3.516,3.516,0,0,0,1.575-1.5A6.62,6.62,0,0,0,44.93-5.3v-.518A5.831,5.831,0,0,1,42.747-4.1a6.441,6.441,0,0,1-2.655.563,5.814,5.814,0,0,1-4.343-1.778A5.8,5.8,0,0,1,34.016-9.5a5.8,5.8,0,0,1,1.845-4.3,6.162,6.162,0,0,1,4.467-1.8,5.856,5.856,0,0,1,4.6,2.385ZM45-9.5a4.462,4.462,0,0,0-1.328-3.285,4.462,4.462,0,0,0-3.285-1.328,4.575,4.575,0,0,0-3.443,1.429,4.593,4.593,0,0,0-1.373,3.274A4.22,4.22,0,0,0,36.9-6.275a4.666,4.666,0,0,0,3.4,1.294,4.7,4.7,0,0,0,3.387-1.26A4.315,4.315,0,0,0,45-9.5Zm14.672,2.3,1.305.675a6.162,6.162,0,0,1-5.716,3.6A5.866,5.866,0,0,1,50.8-4.79a6.27,6.27,0,0,1-1.755-4.467,6.287,6.287,0,0,1,1.766-4.478A5.769,5.769,0,0,1,55.18-15.6a5.99,5.99,0,0,1,4.365,1.733,6.535,6.535,0,0,1,1.834,4.726H50.623a4.98,4.98,0,0,0,1.361,3.477,4.238,4.238,0,0,0,3.139,1.316A4.86,4.86,0,0,0,59.669-7.209Zm0-3.263a4.2,4.2,0,0,0-1.575-2.678,4.635,4.635,0,0,0-2.9-.968q-3.375,0-4.41,3.645ZM70.11-19.495h1.643v14.6h6.211v1.553H70.11Zm22.052,4.208V-3.338H90.655V-5.386a6,6,0,0,1-4.681,2.453A5.933,5.933,0,0,1,81.53-4.812,6.229,6.229,0,0,1,79.719-9.29a6.133,6.133,0,0,1,1.823-4.455A5.9,5.9,0,0,1,85.907-15.6a5.622,5.622,0,0,1,4.748,2.5v-2.183ZM90.745-9.256a4.756,4.756,0,0,0-1.373-3.454,4.519,4.519,0,0,0-3.364-1.406,4.451,4.451,0,0,0-3.364,1.451,4.827,4.827,0,0,0-1.373,3.432,4.786,4.786,0,0,0,1.4,3.432,4.473,4.473,0,0,0,3.342,1.451,4.559,4.559,0,0,0,3.342-1.4A4.76,4.76,0,0,0,90.745-9.256Zm5,5.918V-19.9h1.508v6.661a6.005,6.005,0,0,1,4.793-2.363,5.819,5.819,0,0,1,4.354,1.856,6.207,6.207,0,0,1,1.789,4.467A6.184,6.184,0,0,1,106.362-4.8,5.885,5.885,0,0,1,102-2.933a5.706,5.706,0,0,1-4.748-2.61v2.205Zm1.418-6.053a4.927,4.927,0,0,0,1.373,3.533,4.455,4.455,0,0,0,3.353,1.44,4.458,4.458,0,0,0,3.364-1.463,4.832,4.832,0,0,0,1.384-3.432,4.9,4.9,0,0,0-1.35-3.432,4.4,4.4,0,0,0-3.375-1.463,4.578,4.578,0,0,0-3.387,1.373A4.69,4.69,0,0,0,97.158-9.391Zm23.875,2.183,1.305.675a6.162,6.162,0,0,1-5.716,3.6,5.866,5.866,0,0,1-4.455-1.856,6.27,6.27,0,0,1-1.755-4.467,6.287,6.287,0,0,1,1.766-4.478,5.769,5.769,0,0,1,4.365-1.868,5.99,5.99,0,0,1,4.365,1.733,6.535,6.535,0,0,1,1.834,4.726H111.987a4.98,4.98,0,0,0,1.361,3.477,4.238,4.238,0,0,0,3.139,1.316A4.86,4.86,0,0,0,121.033-7.209Zm0-3.263a4.2,4.2,0,0,0-1.575-2.678,4.635,4.635,0,0,0-2.9-.968q-3.375,0-4.41,3.645Zm4.343-9.429h1.53V-3.338h-1.53Z" transform="translate(920.536 660.425)"/>
  </g>
</svg>
