<svg xmlns="http://www.w3.org/2000/svg" xmlns:xlink="http://www.w3.org/1999/xlink" width="428" height="926" viewBox="0 0 428 926">
  <defs>
    <clipPath id="clip-path">
      <rect id="Rectangle_34" data-name="Rectangle 34" width="428" height="926" fill="none" stroke="#707070" stroke-width="1"/>
    </clipPath>
    <clipPath id="clip-iPhone:_Home">
      <rect width="428" height="926"/>
    </clipPath>
  </defs>
  <g id="iPhone:_Home" data-name="iPhone: Home" clip-path="url(#clip-iPhone:_Home)">
    <rect width="428" height="926" fill="#feb858"/>
    <g id="Status_Bar" data-name="Status Bar" transform="translate(-14)">
      <rect id="Frame" width="442" height="43" fill="#fff" opacity="0.001"/>
    </g>
    <g id="logo" transform="translate(75.118 391.286)">
      <path id="Path_5" data-name="Path 5" d="M17.941,0V136.639l-5.713,10.707S-18.769,57.1,17.941,0Z" transform="matrix(0.829, -0.559, 0.559, 0.829, 80.879, 21.273)" fill="none" stroke="#fff" stroke-miterlimit="10" stroke-width="1.5"/>
      <path id="Path_6" data-name="Path 6" d="M0,0V136.639l5.713,10.707S36.71,57.1,0,0Z" transform="matrix(0.829, -0.559, 0.559, 0.829, 97.545, 10.032)" fill="none" stroke="#fff" stroke-miterlimit="10" stroke-width="1.5"/>
      <g id="Logo-2" data-name="Logo" transform="translate(-2.528 33)">
        <path id="Path_41" data-name="Path 41" d="M25.122.632q-7.742,0-12.561-2.094A15.823,15.823,0,0,1,5.332-7.268a17.907,17.907,0,0,1-2.8-8.374H8.69a9.223,9.223,0,0,0,2.528,6.123,13.718,13.718,0,0,0,6.043,3.436,29.12,29.12,0,0,0,8.256,1.106q6.636,0,10.507-2.33A7.569,7.569,0,0,0,39.9-14.22a5.652,5.652,0,0,0-1.936-4.464,15.27,15.27,0,0,0-5.135-2.8q-3.2-1.106-6.991-2.014t-7.624-1.935a38.151,38.151,0,0,1-7.031-2.607,14.508,14.508,0,0,1-5.135-4.069,10.053,10.053,0,0,1-1.935-6.359A12.838,12.838,0,0,1,9.045-48.9q4.938-4.029,14.733-4.029a27.234,27.234,0,0,1,11.455,2.094,15.841,15.841,0,0,1,6.754,5.49A14.686,14.686,0,0,1,44.477-38H38.394a9.773,9.773,0,0,0-3.95-6.676Q30.968-47.4,23.779-47.4a24.548,24.548,0,0,0-7.189.869,10.8,10.8,0,0,0-4.227,2.251A7.272,7.272,0,0,0,10.389-41.4a8.794,8.794,0,0,0-.514,2.844,5.248,5.248,0,0,0,1.936,4.227,15.657,15.657,0,0,0,5.135,2.686,72.982,72.982,0,0,0,7.07,1.936q3.871.869,7.7,1.935a38.234,38.234,0,0,1,7.031,2.686,14.688,14.688,0,0,1,5.135,4.148,10.354,10.354,0,0,1,1.936,6.478A12.866,12.866,0,0,1,40.29-3.278Q34.76.632,25.122.632Zm44,0A16.074,16.074,0,0,1,61.462-1.3a14.906,14.906,0,0,1-5.885-5.767,18.355,18.355,0,0,1-2.252-9.44V-39.5H59.25v22.831a12.028,12.028,0,0,0,3.12,8.65A10.486,10.486,0,0,0,70.31-4.74a11.85,11.85,0,0,0,6-1.541,11.828,11.828,0,0,0,4.306-4.227,11.85,11.85,0,0,0,1.619-6.241V-39.5h5.925V0H82.239V-6.162a19.825,19.825,0,0,1-5.214,4.819A14.4,14.4,0,0,1,69.125.632ZM98.434,0V-39.5h5.925v9.717a16.518,16.518,0,0,1,1.225-2.725,14.881,14.881,0,0,1,2.646-3.437,15.076,15.076,0,0,1,4.384-2.963,14.846,14.846,0,0,1,6.281-1.224h.395v5.925h-.711a12.311,12.311,0,0,0-7.623,2.41,15.542,15.542,0,0,0-4.9,6.241,19.948,19.948,0,0,0-1.7,8.177V0Zm29.941,0V-34.286h-6.794V-39.5h6.794v-3.476q0-6.478,3.911-9.717t10.7-3.239h.474v5.609h-.79q-4.108,0-6.241,1.857T134.3-42.5v3h9.164v5.214H134.3V0Zm44.793.632a24.757,24.757,0,0,1-13.509-3.595,23.838,23.838,0,0,1-8.73-9.677,29.781,29.781,0,0,1-3.042-13.509,29.781,29.781,0,0,1,3.042-13.509,23.838,23.838,0,0,1,8.73-9.678,24.757,24.757,0,0,1,13.509-3.595,26.13,26.13,0,0,1,10.665,2.094,23.756,23.756,0,0,1,8.058,5.728,23.942,23.942,0,0,1,4.977,8.453h-6.241a16.529,16.529,0,0,0-6.241-7.663,18.971,18.971,0,0,0-10.744-2.844,19.864,19.864,0,0,0-10.784,2.8,17.985,17.985,0,0,0-6.755,7.545,24.194,24.194,0,0,0-2.291,10.665A24.265,24.265,0,0,0,156.1-15.524a17.932,17.932,0,0,0,6.755,7.584,19.864,19.864,0,0,0,10.784,2.8,18.971,18.971,0,0,0,10.744-2.844,16.529,16.529,0,0,0,6.241-7.663h6.241a24.488,24.488,0,0,1-4.977,8.414,23.5,23.5,0,0,1-8.058,5.767A26.13,26.13,0,0,1,173.168.632Zm31.047-46.768v-7.742h6.4v7.742ZM204.452,0V-39.5h5.925V0Zm20.461,0V-34.286h-8.058V-39.5h8.058V-53.641h5.925V-39.5h9.085v5.214h-9.085V0Zm25.6,15.642L257.7-.553,241.582-39.5h6.557L260.858-7.11,273.814-39.5h6.478L256.908,15.642Z" transform="translate(0 65)" fill="#fff"/>
      </g>
    </g>
    <g id="Home_Indicator" data-name="Home Indicator" transform="translate(0 892)">
      <rect id="Frame-2" data-name="Frame" width="428" height="34" fill="#fff" opacity="0"/>
      <rect id="Home_Indicator-2" data-name="Home Indicator" width="187" height="5" rx="2.5" transform="translate(121 21)" fill="#fff"/>
    </g>
    <g id="Status_Bar-2" data-name="Status Bar-2" transform="translate(-2.364 -0.118)">
      <g id="Battery" transform="translate(388.654 13.544)">
        <g id="Border" opacity="0.35">
          <path id="Path_69" data-name="Path 69" d="M338.527,13.483h20.646a3.251,3.251,0,0,1,3.3,3.193V23.86a3.251,3.251,0,0,1-3.3,3.193H338.527a3.25,3.25,0,0,1-3.3-3.193V16.676A3.25,3.25,0,0,1,338.527,13.483Z" transform="translate(-335.223 -13.483)" fill="none"/>
          <path id="Path_70" data-name="Path 70" d="M338.439,14h20.646a2.642,2.642,0,0,1,2.685,2.6v7.183a2.641,2.641,0,0,1-2.685,2.6H338.439a2.641,2.641,0,0,1-2.685-2.6V16.591A2.642,2.642,0,0,1,338.439,14Z" transform="translate(-335.135 -13.398)" fill="none" stroke="#fff" stroke-miterlimit="10" stroke-width="1"/>
        </g>
        <path id="Cap" d="M359.653,17.248v4.789a2.565,2.565,0,0,0,0-4.789" transform="translate(-331.16 -12.857)" fill="#fff" opacity="0.4" style="isolation: isolate"/>
        <path id="Capacity" d="M339,15.536h19a1.625,1.625,0,0,1,1.652,1.6V22.72a1.625,1.625,0,0,1-1.652,1.6H339a1.625,1.625,0,0,1-1.652-1.6V17.133A1.625,1.625,0,0,1,339,15.536Z" transform="translate(-334.87 -13.142)" fill="#fff"/>
      </g>
      <path id="Wifi" d="M323.124,26.651a.392.392,0,0,1-.275-.111l-2.485-2.421a.362.362,0,0,1-.116-.276.369.369,0,0,1,.124-.272,4.369,4.369,0,0,1,5.5,0,.367.367,0,0,1,.026.532l-.015.016-2.48,2.421A.4.4,0,0,1,323.124,26.651Zm4.364-4.249a.4.4,0,0,1-.266-.1,6.263,6.263,0,0,0-8.191,0,.4.4,0,0,1-.267.1.392.392,0,0,1-.273-.11l-1.437-1.4a.376.376,0,0,1-.006-.545l.006-.006a9.137,9.137,0,0,1,12.13,0,.379.379,0,0,1,.124.275.371.371,0,0,1-.118.275l-1.431,1.4A.387.387,0,0,1,327.489,22.4Zm3.306-3.225a.381.381,0,0,1-.267-.1,11.022,11.022,0,0,0-14.81,0,.39.39,0,0,1-.538,0h0l-1.437-1.4a.378.378,0,0,1,0-.547h0a13.9,13.9,0,0,1,18.757,0,.379.379,0,0,1,0,.547h0l-1.438,1.4A.391.391,0,0,1,330.8,19.178Z" transform="translate(49.839 0.061)" fill="#fff"/>
      <path id="Cellular_Connection" data-name="Cellular Connection" d="M310.079,26.6h-1.239a1.218,1.218,0,0,1-1.239-1.2V15.024a1.219,1.219,0,0,1,1.239-1.2h1.239a1.22,1.22,0,0,1,1.24,1.2V25.4A1.219,1.219,0,0,1,310.079,26.6Zm-5.781,0h-1.239a1.218,1.218,0,0,1-1.239-1.2V17.818a1.219,1.219,0,0,1,1.239-1.2H304.3a1.219,1.219,0,0,1,1.239,1.2V25.4a1.217,1.217,0,0,1-1.237,1.2Zm-5.781,0h-1.239a1.218,1.218,0,0,1-1.239-1.2v-4.79a1.219,1.219,0,0,1,1.239-1.2h1.239a1.219,1.219,0,0,1,1.239,1.2V25.4a1.218,1.218,0,0,1-1.239,1.2Zm-5.78,0H291.5a1.218,1.218,0,0,1-1.239-1.2v-2.4a1.218,1.218,0,0,1,1.239-1.2h1.239a1.218,1.218,0,0,1,1.239,1.2v2.4A1.218,1.218,0,0,1,292.736,26.6Z" transform="translate(45.953 0.118)" fill="#fff"/>
      <g id="Time_Style" data-name="Time Style" transform="translate(18.937 13.544)">
        <g id="Time" transform="translate(0 -2)" style="isolation: isolate">
          <text id="_9:41" data-name="9:41" transform="translate(0 13)" fill="#fff" font-size="17" font-family="Helvetica" letter-spacing="-0.019em" style="isolation: isolate"><tspan x="0" y="0">9:41</tspan></text>
        </g>
      </g>
    </g>
  </g>
</svg>
