<svg xmlns="http://www.w3.org/2000/svg" xmlns:xlink="http://www.w3.org/1999/xlink" width="375" height="812" viewBox="0 0 375 812">
  <defs>
    <filter id="Path_1" x="-7.11" y="166.044" width="388.687" height="433.486" filterUnits="userSpaceOnUse">
      <feOffset input="SourceAlpha"/>
      <feGaussianBlur stdDeviation="5" result="blur"/>
      <feFlood flood-color="#2bd826"/>
      <feComposite operator="in" in2="blur"/>
      <feComposite in="SourceGraphic"/>
    </filter>
    <radialGradient id="radial-gradient" cx="0.5" cy="0.5" r="0.5" gradientUnits="objectBoundingBox">
      <stop offset="0" stop-color="#f4f4f4"/>
      <stop offset="1" stop-color="#7a7a7a"/>
    </radialGradient>
    <filter id="Button_Shape" x="9.5" y="330.5" width="357" height="59" filterUnits="userSpaceOnUse">
      <feOffset dy="2" input="SourceAlpha"/>
      <feGaussianBlur stdDeviation="2.5" result="blur-2"/>
      <feFlood flood-color="#2bd826"/>
      <feComposite operator="in" in2="blur-2"/>
      <feComposite in="SourceGraphic"/>
    </filter>
    <filter id="Button_Shape-2" x="12.5" y="403.5" width="351" height="53" filterUnits="userSpaceOnUse">
      <feOffset dy="2" input="SourceAlpha"/>
      <feGaussianBlur stdDeviation="1.5" result="blur-3"/>
      <feFlood flood-color="#2bd826"/>
      <feComposite operator="in" in2="blur-3"/>
      <feComposite in="SourceGraphic"/>
    </filter>
    <clipPath id="clip-iPhone_X_XS_11_Pro_2">
      <rect width="375" height="812"/>
    </clipPath>
  </defs>
  <g id="iPhone_X_XS_11_Pro_2" data-name="iPhone X/XS/11 Pro – 2" clip-path="url(#clip-iPhone_X_XS_11_Pro_2)">
    <rect width="375" height="812" fill="#0a0909"/>
    <g transform="matrix(1, 0, 0, 1, 0, 0)" filter="url(#Path_1)">
      <path id="Path_1-2" data-name="Path 1" d="M97.839,339.5l-4.977-50.642L72.726,254.847l36.254,39.8,25.92,32.4,12.158-38.19v-22.6l13.283,31.616,9.74,17.468,20.9-31.686,31.469-60.382-27.5,77.379,9.08,22.48,39-15.732,20.106-18.544,25.123-22.6-53.474,84.217,53.474,3.515,61.73-14.491-61.73,27.379-45.229,27.6,30.264,22.354,59.146,22.41H253.7l34.55,66.852,28.129,38.955-53.252-53.29-40.684-29-27.5,55.369,9.08,108.249L160.34,491.761l-39.951,92.75L134.9,511.332l-14.511-56.425L77.682,475.458l-62.042,52.4L38.327,499.03l34.4-76.632L-8.3,386.778l46.625,7.7,34.4-7.7L3.18,294.644l43.259,32.4Z" transform="translate(16.39 -42)" fill="#2bd826" stroke="#2bd826" stroke-width="1" opacity="0.15"/>
    </g>
    <g id="Home_Indicator" data-name="Home Indicator" transform="translate(0 778)">
      <rect id="Home_Indicator_background" data-name="Home Indicator background" width="375" height="34" fill="rgba(0,0,0,0)"/>
      <rect id="Home_Indicator-2" data-name="Home Indicator" width="134" height="5" rx="2.5" transform="translate(121 20)" fill="#fff"/>
    </g>
    <g id="Status_Bar" data-name="Status Bar">
      <rect id="Frame" width="375" height="44" fill="#fff" opacity="0.001"/>
      <g id="Status_Bar-2" data-name="Status Bar" transform="translate(21 13)">
        <g id="Battery" transform="translate(315 3)">
          <g id="Border" transform="translate(0.333 0.333)" fill="none" stroke="#fff" stroke-miterlimit="10" stroke-width="1" opacity="0.35">
            <rect width="22" height="11.333" rx="2.667" stroke="none"/>
            <rect x="0.5" y="0.5" width="21" height="10.333" rx="2.167" fill="none"/>
          </g>
          <path id="Cap" d="M0,0V4A2.17,2.17,0,0,0,1.328,2,2.17,2.17,0,0,0,0,0" transform="translate(23.333 4)" fill="#fff" opacity="0.4"/>
          <rect id="Capacity" width="18" height="7.333" rx="1.333" transform="translate(2.333 2.333)" fill="#fff"/>
        </g>
        <path id="Wifi" d="M7.667,11a.314.314,0,0,1-.222-.093L5.439,8.885a.31.31,0,0,1-.094-.231.316.316,0,0,1,.1-.227,3.437,3.437,0,0,1,4.437,0,.315.315,0,0,1,.009.458L7.889,10.907A.314.314,0,0,1,7.667,11ZM11.19,7.451a.313.313,0,0,1-.215-.086,4.928,4.928,0,0,0-6.612,0,.313.313,0,0,1-.215.086.308.308,0,0,1-.22-.091L2.768,6.189a.322.322,0,0,1,0-.46,7.192,7.192,0,0,1,9.791,0,.323.323,0,0,1,.1.23.319.319,0,0,1-.095.23L11.409,7.36A.309.309,0,0,1,11.19,7.451Zm2.669-2.693a.3.3,0,0,1-.215-.088,8.68,8.68,0,0,0-11.955,0,.307.307,0,0,1-.435,0L.094,3.5a.323.323,0,0,1,0-.457,10.948,10.948,0,0,1,15.141,0,.323.323,0,0,1,0,.457l-1.161,1.17A.306.306,0,0,1,13.859,4.758Z" transform="translate(295 3.331)" fill="#fff"/>
        <path id="Cellular_Connection" data-name="Cellular Connection" d="M16,10.667H15a1,1,0,0,1-1-1V1a1,1,0,0,1,1-1h1a1,1,0,0,1,1,1V9.667A1,1,0,0,1,16,10.667Zm-4.667,0h-1a1,1,0,0,1-1-1V3.334a1,1,0,0,1,1-1h1a1,1,0,0,1,1,1V9.667A1,1,0,0,1,11.334,10.667Zm-4.667,0h-1a1,1,0,0,1-1-1v-4a1,1,0,0,1,1-1h1a1,1,0,0,1,1,1v4A1,1,0,0,1,6.666,10.667ZM2,10.667H1a1,1,0,0,1-1-1v-2a1,1,0,0,1,1-1H2a1,1,0,0,1,1,1v2A1,1,0,0,1,2,10.667Z" transform="translate(273 3.667)" fill="#fff"/>
        <g id="Time_Style" data-name="Time Style">
          <text id="Time" fill="#fff" font-size="15" font-family="Helvetica" letter-spacing="-0.02em"><tspan x="12.853" y="12">9:41</tspan></text>
        </g>
      </g>
    </g>
    <path id="Path_123" data-name="Path 123" d="M710.439,256.319" transform="translate(-445)" fill="none" stroke="#707070" stroke-width="1"/>
    <path id="Path_126" data-name="Path 126" d="M588.617,242.878" transform="translate(-445)" fill="none" stroke="#707070" stroke-width="1"/>
    <g id="Component_25_1" data-name="Component 25 – 1" transform="matrix(0.777, -0.629, 0.629, 0.777, 42.081, 270.911)" opacity="0.742">
      <g id="Component_22_7" data-name="Component 22 – 7" transform="translate(0 148.534) rotate(-90)">
        <g id="Component_23_1" data-name="Component 23 – 1" transform="matrix(0.998, 0.07, -0.07, 0.998, 8.25, 0)">
          <g id="Component_21_1" data-name="Component 21 – 1" style="isolation: isolate">
            <path id="Path_111" data-name="Path 111" d="M299.743,992.848v30.514a90.349,90.349,0,0,0-21.735-7.474c-13.019-2.791-30.342-3.692-30.342-3.692a234.009,234.009,0,0,0,28.887-8.127A141.13,141.13,0,0,0,299.743,992.848Z" transform="translate(-247.666 -950.048)" stroke="rgba(0,0,0,0.64)" stroke-width="0.5" fill="url(#radial-gradient)"/>
            <path id="Path_112" data-name="Path 112" d="M52.367,10.012c-7.191-1.781-13.13-2.1-18.4-1.334-10.1,1.467-18.943,12.99-18.943,12.99s-6.82-2.08-8.967,8.4,5.293,14.093,5.293,14.093-7.417,5.713-8.97,11.263,1.009,16.06,6.459,20.5c5.09,5.626,10.64,3.48,10.64,3.48s1.894,8.089,9.543,8.857,10.119-8.216,10.119-8.216,6.97,9.507,16.985-.733S61.8,60.28,61.8,60.28s11.087-.916,15.655-7.3,2.616-18.248,2.616-18.248,6.735-6,.838-18.884S66.137,5.019,66.137,5.019s-3.215-4.3-8.3-2.7S52.367,10.012,52.367,10.012Z" transform="translate(19.24 60.608) rotate(-48)" stroke="#000" stroke-width="0.5" fill="url(#radial-gradient)"/>
          </g>
          <path id="Path_114" data-name="Path 114" d="M240.318,1030.245c11.712-.286,31.481-9.813,31.481-9.813" transform="translate(-229.198 -968.912)" fill="#fff" stroke="#b7b7b7" stroke-width="0.25"/>
          <path id="Path_115" data-name="Path 115" d="M233.063,1020.6a106.524,106.524,0,0,1,14.349.62,55.421,55.421,0,0,1,9.609,2.133" transform="translate(-215.45 -957.852)" fill="#fff" stroke="#939393" stroke-width="0.25"/>
          <path id="Path_116" data-name="Path 116" d="M237.656,1021.741c12.3-.215,27.554-5.412,27.554-5.412" transform="translate(-223.459 -959.727)" fill="#fff" stroke="#9e9e9e" stroke-width="0.25"/>
          <path id="Path_117" data-name="Path 117" d="M269.43,1033.053s-1.434-9.632,2.542-15.327,10.663-8.363,10.663-8.363a26.5,26.5,0,0,0-9.5,9.084C269.669,1024.383,269.43,1033.053,269.43,1033.053Z" transform="translate(-219.741 -975.79)" fill="rgba(93,93,93,0.55)" stroke="#767676" stroke-width="0.25"/>
          <path id="Path_118" data-name="Path 118" d="M268.79,1053.363A13.156,13.156,0,0,0,278.5,1061c7.57,1.608,13.236-4.531,13.236-4.531a8.954,8.954,0,0,0,1.816,1.17c1.616.851,5.067,1.8,8.982-1.17,5.932-4.5,0-12.716,0-12.716s11.85.689,11.152-11.335-8.451-12.149-8.451-12.149,6.351,6.587,5.284,13.6c-.887,5.828-8.3,7.984-10.3,8.9-.065.034-.272.111-.272.111s3.992,6.51-.378,10.122a6.556,6.556,0,0,1-8.351.364s-5.722,4.349-11.331,4.349S268.79,1053.363,268.79,1053.363Z" transform="translate(-202.191 -961.194)" fill="rgba(255,255,255,0.64)" stroke="#d3d3d3" stroke-width="0.25" opacity="0.267"/>
          <path id="Path_119" data-name="Path 119" d="M301.5,1027.7s3.6-6.365,1.523-9.7-8.871-6.561-8.871-6.561-.632-5.15-2.845-7.953a9.963,9.963,0,0,0-6.007-3.26,17.923,17.923,0,0,1,4.414,4.794,30.848,30.848,0,0,1,2.9,7.127s5.389,2.868,7.61,6.755S301.5,1027.7,301.5,1027.7Z" transform="translate(-198.735 -983.29)" fill="#626262" stroke="#626262" stroke-width="0.25"/>
          <path id="Path_120" data-name="Path 120" d="M232.7,1021.673s5.132-1.31,8.291-.981a36.544,36.544,0,0,1,5.311.963" transform="translate(-205.18 -960.079)" fill="#fff" stroke="#9a9a9a" stroke-width="0.25"/>
          <path id="Path_121" data-name="Path 121" d="M3.072,7.188S-.13,3.537.993-.222,6.713-3.97,6.713-3.97,3.574-2.367,2.664.422,3.072,7.188,3.072,7.188Z" transform="translate(61.134 21.139)" fill="#5d5d5d" stroke="#5d5d5d" stroke-width="0.25"/>
          <path id="Path_124" data-name="Path 124" d="M294.841,1016.005s2.12-3.656.9-5.569-5.225-3.768-5.225-3.768a10.865,10.865,0,0,0-1.676-4.568,5.926,5.926,0,0,0-3.538-1.872,8.113,8.113,0,0,1,2.612,2.93,12.29,12.29,0,0,1,.926,4.371,16.978,16.978,0,0,1,4.661,3.9A7.857,7.857,0,0,1,294.841,1016.005Z" transform="translate(-200.369 -972.976)" fill="#fff" stroke="rgba(255,255,255,0.98)" stroke-width="0.25" opacity="0.758"/>
          <path id="Path_129" data-name="Path 129" d="M268.79,1042.258a8.724,8.724,0,0,0,6.435,5.072c5.015,1.069,8.769-3.011,8.769-3.011a5.928,5.928,0,0,0,1.2.778,5.375,5.375,0,0,0,5.95-.778c3.93-2.993,0-8.45,0-8.45s7.85.458,7.388-7.531-5.6-8.073-5.6-8.073,4.207,4.377,3.5,9.037c-.587,3.873-5.5,5.305-6.822,5.914-.043.023-.18.074-.18.074s2.645,4.326-.25,6.726a4.333,4.333,0,0,1-5.532.242s-3.791,2.89-7.506,2.89S268.79,1042.258,268.79,1042.258Z" transform="translate(-198.585 -959.546)" fill="#d8d8d8" stroke="#d9d9d9" stroke-width="0.25"/>
        </g>
      </g>
      <path id="Path_125" data-name="Path 125" d="M641.137,259.922s1.878,3.875-3.548,6.736a12.121,12.121,0,0,1-10.7,0s-2.9,5.418-10.593,2.743-9.974-12.985-9.974-12.985,5.033,6.831,9.974,8.764,9.788-1.03,9.788-1.03,5.37,1.057,9.133,0A11.719,11.719,0,0,0,641.137,259.922Z" transform="translate(-564.579 -180.15)" fill="#fff" stroke="#fff" stroke-width="0.25" opacity="0.777"/>
      <path id="Path_128" data-name="Path 128" d="M644.836,267.59s3.216,4.466-2.166,9.262-8.1.775-8.1.775,4.352-.787,6.919-3.3S644.836,267.59,644.836,267.59Z" transform="translate(-563.579 -181.15)" fill="rgba(255,255,255,0.6)" stroke="#d2d2d2" stroke-width="0.25" opacity="0.595"/>
    </g>
    <g id="Component_24_1" data-name="Component 24 – 1" transform="translate(237.092 385.871) rotate(-141)" opacity="0.747">
      <g id="Component_22_8" data-name="Component 22 – 8" transform="translate(125.468 0) rotate(90)">
        <g id="Component_23_1-2" data-name="Component 23 – 1" transform="translate(6.19 0) rotate(3)">
          <g id="Component_21_1-2" data-name="Component 21 – 1" style="isolation: isolate">
            <path id="Path_111-2" data-name="Path 111" d="M299.743,992.848v30.514a90.349,90.349,0,0,0-21.735-7.474c-13.019-2.791-30.342-3.692-30.342-3.692a234.009,234.009,0,0,0,28.887-8.127A141.13,141.13,0,0,0,299.743,992.848Z" transform="translate(-247.666 -950.048)" stroke="rgba(0,0,0,0.64)" stroke-width="0.5" fill="url(#radial-gradient)"/>
            <path id="Path_112-2" data-name="Path 112" d="M52.367,10.012c-7.191-1.781-13.13-2.1-18.4-1.334-10.1,1.467-18.943,12.99-18.943,12.99s-6.82-2.08-8.967,8.4,5.293,14.093,5.293,14.093-7.417,5.713-8.97,11.263,1.009,16.06,6.459,20.5c5.09,5.626,10.64,3.48,10.64,3.48s1.894,8.089,9.543,8.857,10.119-8.216,10.119-8.216,6.97,9.507,16.985-.733S61.8,60.28,61.8,60.28s11.087-.916,15.655-7.3,2.616-18.248,2.616-18.248,6.735-6,.838-18.884S66.137,5.019,66.137,5.019s-3.215-4.3-8.3-2.7S52.367,10.012,52.367,10.012Z" transform="translate(19.24 60.608) rotate(-48)" stroke="#000" stroke-width="0.5" fill="url(#radial-gradient)"/>
          </g>
          <path id="Path_114-2" data-name="Path 114" d="M240.318,1030.245c11.712-.286,31.481-9.813,31.481-9.813" transform="translate(-229.198 -968.912)" fill="#fff" stroke="#b7b7b7" stroke-width="0.25"/>
          <path id="Path_115-2" data-name="Path 115" d="M233.063,1020.6a106.524,106.524,0,0,1,14.349.62,55.421,55.421,0,0,1,9.609,2.133" transform="translate(-215.45 -957.852)" fill="#fff" stroke="#939393" stroke-width="0.25"/>
          <path id="Path_116-2" data-name="Path 116" d="M237.656,1021.741c12.3-.215,27.554-5.412,27.554-5.412" transform="translate(-223.459 -959.727)" fill="#fff" stroke="#9e9e9e" stroke-width="0.25"/>
          <path id="Path_117-2" data-name="Path 117" d="M269.43,1033.053s-1.434-9.632,2.542-15.327,10.663-8.363,10.663-8.363a26.5,26.5,0,0,0-9.5,9.084C269.669,1024.383,269.43,1033.053,269.43,1033.053Z" transform="translate(-219.741 -975.79)" fill="rgba(93,93,93,0.55)" stroke="#767676" stroke-width="0.25"/>
          <path id="Path_118-2" data-name="Path 118" d="M268.79,1053.363A13.156,13.156,0,0,0,278.5,1061c7.57,1.608,13.236-4.531,13.236-4.531a8.954,8.954,0,0,0,1.816,1.17c1.616.851,5.067,1.8,8.982-1.17,5.932-4.5,0-12.716,0-12.716s11.85.689,11.152-11.335-8.451-12.149-8.451-12.149,6.351,6.587,5.284,13.6c-.887,5.828-8.3,7.984-10.3,8.9-.065.034-.272.111-.272.111s3.992,6.51-.378,10.122a6.556,6.556,0,0,1-8.351.364s-5.722,4.349-11.331,4.349S268.79,1053.363,268.79,1053.363Z" transform="translate(-202.191 -961.194)" fill="rgba(255,255,255,0.64)" stroke="#d3d3d3" stroke-width="0.25" opacity="0.267"/>
          <path id="Path_119-2" data-name="Path 119" d="M301.5,1027.7s3.6-6.365,1.523-9.7-8.871-6.561-8.871-6.561-.632-5.15-2.845-7.953a9.963,9.963,0,0,0-6.007-3.26,17.923,17.923,0,0,1,4.414,4.794,30.848,30.848,0,0,1,2.9,7.127s5.389,2.868,7.61,6.755S301.5,1027.7,301.5,1027.7Z" transform="translate(-198.735 -983.29)" fill="#626262" stroke="#626262" stroke-width="0.25"/>
          <path id="Path_120-2" data-name="Path 120" d="M232.7,1021.673s5.132-1.31,8.291-.981a36.544,36.544,0,0,1,5.311.963" transform="translate(-205.18 -960.079)" fill="#fff" stroke="#9a9a9a" stroke-width="0.25"/>
          <path id="Path_121-2" data-name="Path 121" d="M3.072,7.188S-.13,3.537.993-.222,6.713-3.97,6.713-3.97,3.574-2.367,2.664.422,3.072,7.188,3.072,7.188Z" transform="translate(61.134 21.139)" fill="#5d5d5d" stroke="#5d5d5d" stroke-width="0.25"/>
          <path id="Path_124-2" data-name="Path 124" d="M294.841,1016.005s2.12-3.656.9-5.569-5.225-3.768-5.225-3.768a10.865,10.865,0,0,0-1.676-4.568,5.926,5.926,0,0,0-3.538-1.872,8.113,8.113,0,0,1,2.612,2.93,12.29,12.29,0,0,1,.926,4.371,16.978,16.978,0,0,1,4.661,3.9A7.857,7.857,0,0,1,294.841,1016.005Z" transform="translate(-200.369 -972.976)" fill="#fff" stroke="rgba(255,255,255,0.98)" stroke-width="0.25" opacity="0.758"/>
          <path id="Path_129-2" data-name="Path 129" d="M268.79,1042.258a8.724,8.724,0,0,0,6.435,5.072c5.015,1.069,8.769-3.011,8.769-3.011a5.928,5.928,0,0,0,1.2.778,5.375,5.375,0,0,0,5.95-.778c3.93-2.993,0-8.45,0-8.45s7.85.458,7.388-7.531-5.6-8.073-5.6-8.073,4.207,4.377,3.5,9.037c-.587,3.873-5.5,5.305-6.822,5.914-.043.023-.18.074-.18.074s2.645,4.326-.25,6.726a4.333,4.333,0,0,1-5.532.242s-3.791,2.89-7.506,2.89S268.79,1042.258,268.79,1042.258Z" transform="translate(-198.585 -959.546)" fill="#d8d8d8" stroke="#d9d9d9" stroke-width="0.25"/>
        </g>
      </g>
      <path id="Path_130" data-name="Path 130" d="M641.137,259.922s1.878,3.875-3.548,6.736a12.121,12.121,0,0,1-10.7,0s-2.9,5.418-10.593,2.743-9.974-12.985-9.974-12.985,5.033,6.831,9.974,8.764,9.788-1.03,9.788-1.03,5.37,1.057,9.133,0A11.719,11.719,0,0,0,641.137,259.922Z" transform="translate(636.835 434.791) rotate(-170)" fill="#fff" stroke="#fff" stroke-width="0.25" opacity="0.777"/>
      <path id="Path_131" data-name="Path 131" d="M644.836,267.59s3.216,4.466-2.166,9.262-8.1.775-8.1.775,4.352-.787,6.919-3.3S644.836,267.59,644.836,267.59Z" transform="matrix(-1, 0, 0, -1, 689.618, 328.689)" fill="rgba(255,255,255,0.6)" stroke="#d2d2d2" stroke-width="0.25" opacity="0.595"/>
    </g>
    <g id="Component_12_1" data-name="Component 12 – 1" transform="translate(17 336)">
      <g transform="matrix(1, 0, 0, 1, -17, -336)" filter="url(#Button_Shape)">
        <rect id="Button_Shape-3" data-name="Button Shape" width="342" height="44" rx="6" transform="translate(17 336)" fill="#2bd826"/>
      </g>
      <path id="Path_149" data-name="Path 149" d="M-32.288-1.92H-43.9V-25.344h2.784V-4.576h8.832Zm20-8.256h-15.3a6.743,6.743,0,0,0,1.936,4.624,5.841,5.841,0,0,0,4.24,1.744q4.192,0,6.4-4.128l2.24,1.152A10.948,10.948,0,0,1-16.32-2.672a8.8,8.8,0,0,1-4.9,1.328,8.559,8.559,0,0,1-6.5-2.7,9.133,9.133,0,0,1-2.56-6.512A9.158,9.158,0,0,1-27.7-17.088a8.438,8.438,0,0,1,6.384-2.72,8.617,8.617,0,0,1,6.368,2.576A9.887,9.887,0,0,1-12.288-10.176Zm-2.944-2.336A5.62,5.62,0,0,0-17.408-16a6.414,6.414,0,0,0-3.9-1.248q-4.48,0-5.952,4.736Zm21.5-6.848L-1.7-1.344h-.64L-10.368-19.36h2.784L-2.048-6.752,3.488-19.36ZM26.24-10.176h-15.3A6.743,6.743,0,0,0,12.88-5.552a5.841,5.841,0,0,0,4.24,1.744q4.192,0,6.4-4.128l2.24,1.152a10.948,10.948,0,0,1-3.552,4.112,8.8,8.8,0,0,1-4.9,1.328,8.559,8.559,0,0,1-6.5-2.7,9.133,9.133,0,0,1-2.56-6.512,9.158,9.158,0,0,1,2.576-6.528,8.438,8.438,0,0,1,6.384-2.72,8.617,8.617,0,0,1,6.368,2.576A9.887,9.887,0,0,1,26.24-10.176ZM23.3-12.512A5.62,5.62,0,0,0,21.12-16a6.414,6.414,0,0,0-3.9-1.248q-4.48,0-5.952,4.736ZM32.16-1.92H29.536v-24H32.16ZM45.344-17.312l-1.7,1.76a5.366,5.366,0,0,0-3.456-1.76,2.353,2.353,0,0,0-1.664.624,2.014,2.014,0,0,0-.672,1.536,2.109,2.109,0,0,0,.752,1.6,13.654,13.654,0,0,0,2.672,1.7,9.891,9.891,0,0,1,2.96,2.224,4.421,4.421,0,0,1,1.04,2.976A5.106,5.106,0,0,1,43.728-2.88,5.225,5.225,0,0,1,39.9-1.344a6.462,6.462,0,0,1-5.28-2.688l1.664-1.856a4.785,4.785,0,0,0,3.52,2.016,2.953,2.953,0,0,0,2.08-.8,2.476,2.476,0,0,0,.864-1.872,2.333,2.333,0,0,0-.784-1.792,12.559,12.559,0,0,0-2.688-1.68,8.944,8.944,0,0,1-2.88-2.128,4.633,4.633,0,0,1-.976-3.072,4.35,4.35,0,0,1,1.392-3.248,5.074,5.074,0,0,1,3.68-1.344Q42.784-19.808,45.344-17.312Z" transform="translate(171 34)" fill="#fff"/>
    </g>
    <g id="Component_13_1" data-name="Component 13 – 1" transform="translate(17 406)">
      <g transform="matrix(1, 0, 0, 1, -17, -406)" filter="url(#Button_Shape-2)">
        <rect id="Button_Shape-4" data-name="Button Shape" width="342" height="44" rx="6" transform="translate(17 406)" fill="#2bd826"/>
      </g>
      <path id="Path_150" data-name="Path 150" d="M-67.114-1.38h-1.978V-18.216h1.978Zm14.191,0h-1.886V-7.36a13.213,13.213,0,0,0-.2-2.818,3.7,3.7,0,0,0-.575-1.265,2.315,2.315,0,0,0-.966-.771,3.6,3.6,0,0,0-1.426-.253,3.558,3.558,0,0,0-1.645.414A4.138,4.138,0,0,0-61-10.9a4.32,4.32,0,0,0-.793,1.564,15.864,15.864,0,0,0-.219,3.312V-1.38h-1.909V-13.915h1.909v1.886a5.616,5.616,0,0,1,4.416-2.208,4.494,4.494,0,0,1,2.461.7A4.336,4.336,0,0,1-53.475-11.6a9.757,9.757,0,0,1,.552,3.783Zm13.777-12.535L-44.873-.966h-.46l-5.773-12.949h2l3.979,9.062,3.979-9.062Zm2.714-4.715a1.422,1.422,0,0,1,1.047.425,1.409,1.409,0,0,1,.425,1.035,1.409,1.409,0,0,1-.425,1.035,1.409,1.409,0,0,1-1.035.425,1.39,1.39,0,0,1-1.035-.437,1.42,1.42,0,0,1-.425-1.024,1.42,1.42,0,0,1,.425-1.024A1.377,1.377,0,0,1-36.432-18.63Zm.966,17.25h-1.909V-13.915h1.909Zm8.694-10.879h-2.484v8.786q0,.483.138.586a1.392,1.392,0,0,0,.69.1h1.1V-1.15A11.105,11.105,0,0,1-29-.966a2.2,2.2,0,0,1-1.633-.541,2.376,2.376,0,0,1-.529-1.714v-9.039h-2.162v-1.656h2.162V-18.63h1.909v4.715h2.484ZM-12.4-7.314H-23.391A4.846,4.846,0,0,0-22-3.99a4.2,4.2,0,0,0,3.047,1.253,4.99,4.99,0,0,0,4.6-2.967l1.61.828A7.869,7.869,0,0,1-15.295-1.92a6.326,6.326,0,0,1-3.519.954,6.152,6.152,0,0,1-4.669-1.943,6.565,6.565,0,0,1-1.84-4.681,6.582,6.582,0,0,1,1.852-4.692,6.065,6.065,0,0,1,4.588-1.955,6.193,6.193,0,0,1,4.577,1.852A7.106,7.106,0,0,1-12.4-7.314Zm-2.116-1.679A4.039,4.039,0,0,0-16.077-11.5a4.61,4.61,0,0,0-2.806-.9q-3.22,0-4.278,3.4Zm19.32-.483H-1.817v8.1H-3.795V-18.216h8.6v1.955H-1.817v4.83H4.807Zm7.59-4.255-.989,1.61a1.619,1.619,0,0,0-.759-.207,1.655,1.655,0,0,0-1.288.7A4.667,4.667,0,0,0,8.5-9.786a19.506,19.506,0,0,0-.288,4.106v4.3H6.279V-13.915H8.211v1.357a4.848,4.848,0,0,1,1.161-1.265,2.257,2.257,0,0,1,1.334-.414A3.654,3.654,0,0,1,12.4-13.731Zm2.346-4.9a1.422,1.422,0,0,1,1.047.425,1.409,1.409,0,0,1,.425,1.035,1.409,1.409,0,0,1-.425,1.035,1.409,1.409,0,0,1-1.035.425,1.39,1.39,0,0,1-1.035-.437,1.42,1.42,0,0,1-.425-1.024,1.42,1.42,0,0,1,.425-1.024A1.377,1.377,0,0,1,14.743-18.63Zm.966,17.25H13.8V-13.915h1.909ZM30.981-7.314H19.987A4.846,4.846,0,0,0,21.379-3.99a4.2,4.2,0,0,0,3.047,1.253,4.99,4.99,0,0,0,4.6-2.967l1.61.828A7.869,7.869,0,0,1,28.083-1.92a6.326,6.326,0,0,1-3.519.954A6.152,6.152,0,0,1,19.9-2.909a6.565,6.565,0,0,1-1.84-4.681,6.582,6.582,0,0,1,1.852-4.692A6.065,6.065,0,0,1,24.5-14.237a6.193,6.193,0,0,1,4.577,1.852A7.106,7.106,0,0,1,30.981-7.314ZM28.865-8.993A4.039,4.039,0,0,0,27.3-11.5a4.61,4.61,0,0,0-2.806-.9q-3.22,0-4.278,3.4ZM44.574-1.38H42.688V-7.36a13.213,13.213,0,0,0-.2-2.818,3.7,3.7,0,0,0-.575-1.265,2.315,2.315,0,0,0-.966-.771,3.6,3.6,0,0,0-1.426-.253,3.558,3.558,0,0,0-1.645.414A4.138,4.138,0,0,0,36.5-10.9a4.32,4.32,0,0,0-.793,1.564,15.864,15.864,0,0,0-.219,3.312V-1.38H33.58V-13.915h1.909v1.886a5.616,5.616,0,0,1,4.416-2.208,4.494,4.494,0,0,1,2.461.7A4.336,4.336,0,0,1,44.022-11.6a9.757,9.757,0,0,1,.552,3.783Zm15.548,0H58.259V-3.22A6.224,6.224,0,0,1,53.533-.966a6.11,6.11,0,0,1-4.565-1.955,6.518,6.518,0,0,1-1.886-4.692,6.438,6.438,0,0,1,1.909-4.681,6.28,6.28,0,0,1,4.658-1.944,5.779,5.779,0,0,1,4.611,2.231V-18.63h1.863Zm-6.44-1.357a4.578,4.578,0,0,0,3.243-1.357,4.543,4.543,0,0,0,1.426-3.438,4.844,4.844,0,0,0-1.322-3.473A4.406,4.406,0,0,0,53.694-12.4a4.41,4.41,0,0,0-3.358,1.437A4.786,4.786,0,0,0,48.99-7.578a4.762,4.762,0,0,0,1.38,3.392A4.412,4.412,0,0,0,53.682-2.737ZM69.9-12.443l-1.219,1.265a3.857,3.857,0,0,0-2.484-1.265,1.691,1.691,0,0,0-1.2.448,1.447,1.447,0,0,0-.483,1.1,1.516,1.516,0,0,0,.54,1.15,9.814,9.814,0,0,0,1.921,1.219,7.109,7.109,0,0,1,2.128,1.6,3.178,3.178,0,0,1,.747,2.139A3.67,3.67,0,0,1,68.736-2.07a3.755,3.755,0,0,1-2.749,1.1A4.645,4.645,0,0,1,62.192-2.9l1.2-1.334a3.439,3.439,0,0,0,2.53,1.449,2.123,2.123,0,0,0,1.5-.575A1.78,1.78,0,0,0,68.034-4.7a1.677,1.677,0,0,0-.563-1.288A9.027,9.027,0,0,0,65.538-7.2a6.428,6.428,0,0,1-2.07-1.53,3.33,3.33,0,0,1-.7-2.208,3.126,3.126,0,0,1,1-2.335,3.647,3.647,0,0,1,2.645-.966A5.213,5.213,0,0,1,69.9-12.443Z" transform="translate(172 33)" fill="#fff"/>
    </g>
  </g>
</svg>
