<svg xmlns="http://www.w3.org/2000/svg" xmlns:xlink="http://www.w3.org/1999/xlink" width="428" height="926" viewBox="0 0 428 926">
  <defs>
    <clipPath id="clip-path">
      <rect id="Rectangle_34" data-name="Rectangle 34" width="428" height="926" fill="none" stroke="#707070" stroke-width="1"/>
    </clipPath>
    <clipPath id="clip-iPhone:_Home">
      <rect width="428" height="926"/>
    </clipPath>
  </defs>
  <g id="iPhone:_Home" data-name="iPhone: Home" clip-path="url(#clip-iPhone:_Home)">
    <rect width="428" height="926" fill="#feb858"/>
    <g id="Status_Bar" data-name="Status Bar" transform="translate(-14 -7)">
      <rect id="Frame" width="442" height="43" fill="#fff" opacity="0.001"/>
      <g id="Status_Bar-2" data-name="Status Bar" transform="translate(21 13)">
        <g id="Battery" transform="translate(382.672 2.833)">
          <rect id="Border" width="22" height="11.333" rx="2.667" fill="#fff" opacity="0.35"/>
          <path id="Cap" d="M0,0V4A2.17,2.17,0,0,0,1.328,2,2.17,2.17,0,0,0,0,0" transform="translate(23 3.667)" fill="#fff" opacity="0.4"/>
          <rect id="Capacity" width="18" height="7.333" rx="1.333" transform="translate(2 2)" fill="#fff"/>
        </g>
        <path id="Wifi" d="M7.667,11a.314.314,0,0,1-.222-.093L5.439,8.885a.31.31,0,0,1-.094-.231.316.316,0,0,1,.1-.227,3.437,3.437,0,0,1,4.437,0,.315.315,0,0,1,.009.458L7.889,10.907A.314.314,0,0,1,7.667,11ZM11.19,7.451a.313.313,0,0,1-.215-.086,4.928,4.928,0,0,0-6.612,0,.313.313,0,0,1-.215.086.308.308,0,0,1-.22-.091L2.768,6.189a.322.322,0,0,1,0-.46,7.192,7.192,0,0,1,9.791,0,.323.323,0,0,1,.1.23.319.319,0,0,1-.095.23L11.409,7.36A.309.309,0,0,1,11.19,7.451Zm2.669-2.693a.3.3,0,0,1-.215-.088,8.68,8.68,0,0,0-11.955,0,.307.307,0,0,1-.435,0L.094,3.5a.323.323,0,0,1,0-.457,10.948,10.948,0,0,1,15.141,0,.323.323,0,0,1,0,.457l-1.161,1.17A.306.306,0,0,1,13.859,4.758Z" transform="translate(362.339 2.831)" fill="#fff"/>
        <path id="Cellular_Connection" data-name="Cellular Connection" d="M16,10.667H15a1,1,0,0,1-1-1V1a1,1,0,0,1,1-1h1a1,1,0,0,1,1,1V9.667A1,1,0,0,1,16,10.667Zm-4.667,0h-1a1,1,0,0,1-1-1V3.334a1,1,0,0,1,1-1h1a1,1,0,0,1,1,1V9.667A1,1,0,0,1,11.334,10.667Zm-4.667,0h-1a1,1,0,0,1-1-1v-4a1,1,0,0,1,1-1h1a1,1,0,0,1,1,1v4A1,1,0,0,1,6.666,10.667ZM2,10.667H1a1,1,0,0,1-1-1v-2a1,1,0,0,1,1-1H2a1,1,0,0,1,1,1v2A1,1,0,0,1,2,10.667Z" transform="translate(340.339 3.167)" fill="#fff"/>
        <g id="Time_Style" data-name="Time Style">
          <path id="Time" d="M14.845,9.466a1.667,1.667,0,0,0,.842,1.509,1.865,1.865,0,0,0,.908.22,2.041,2.041,0,0,0,1.611-.787,6.479,6.479,0,0,0,.945-3.2,2.443,2.443,0,0,1-1.088.978,3.459,3.459,0,0,1-1.4.282,3.123,3.123,0,0,1-2.4-.945,3.42,3.42,0,0,1-.883-2.432,3.893,3.893,0,0,1,.872-2.512A3.1,3.1,0,0,1,16.83,1.5a3.161,3.161,0,0,1,3.164,2.065A7.281,7.281,0,0,1,20.477,6.4,9.364,9.364,0,0,1,19.9,9.817a3.348,3.348,0,0,1-3.252,2.476,3.149,3.149,0,0,1-2.336-.806,2.755,2.755,0,0,1-.8-2.021Zm2-2.153A2.245,2.245,0,0,0,18.276,6.8a2.187,2.187,0,0,0,.648-1.805,2.309,2.309,0,0,0-.582-1.725A2.037,2.037,0,0,0,16.859,2.7a1.936,1.936,0,0,0-1.534.648,2.535,2.535,0,0,0-.568,1.732,2.484,2.484,0,0,0,.5,1.63A1.944,1.944,0,0,0,16.845,7.313Zm5.713-3.054h1.531v1.6H22.558Zm0,6.145h1.531V12H22.558Zm7.163-2.117V3.533L26.359,8.287ZM29.743,12V9.437h-4.6V8.147l4.8-6.665h1.113v6.8h1.545v1.15H31.061V12Zm4.5-7.427V3.563A5.371,5.371,0,0,0,36.233,3.1a2.292,2.292,0,0,0,.842-1.542h1.04V12H36.709V4.573Z" fill="#fff"/>
        </g>
      </g>
    </g>
    <g id="logo" transform="translate(75.118 391.286)">
      <path id="Path_5" data-name="Path 5" d="M17.941,0V136.639l-5.713,10.707S-18.769,57.1,17.941,0Z" transform="matrix(0.829, -0.559, 0.559, 0.829, 80.879, 21.273)" fill="none" stroke="#fff" stroke-miterlimit="10" stroke-width="1.5"/>
      <path id="Path_6" data-name="Path 6" d="M0,0V136.639l5.713,10.707S36.71,57.1,0,0Z" transform="matrix(0.829, -0.559, 0.559, 0.829, 97.545, 10.032)" fill="none" stroke="#fff" stroke-miterlimit="10" stroke-width="1.5"/>
      <g id="Logo-2" data-name="Logo" transform="translate(-2.528 33)">
        <path id="Path_41" data-name="Path 41" d="M25.122.632q-7.742,0-12.561-2.094A15.823,15.823,0,0,1,5.332-7.268a17.907,17.907,0,0,1-2.8-8.374H8.69a9.223,9.223,0,0,0,2.528,6.123,13.718,13.718,0,0,0,6.043,3.436,29.12,29.12,0,0,0,8.256,1.106q6.636,0,10.507-2.33A7.569,7.569,0,0,0,39.9-14.22a5.652,5.652,0,0,0-1.936-4.464,15.27,15.27,0,0,0-5.135-2.8q-3.2-1.106-6.991-2.014t-7.624-1.935a38.151,38.151,0,0,1-7.031-2.607,14.508,14.508,0,0,1-5.135-4.069,10.053,10.053,0,0,1-1.935-6.359A12.838,12.838,0,0,1,9.045-48.9q4.938-4.029,14.733-4.029a27.234,27.234,0,0,1,11.455,2.094,15.841,15.841,0,0,1,6.754,5.49A14.686,14.686,0,0,1,44.477-38H38.394a9.773,9.773,0,0,0-3.95-6.676Q30.968-47.4,23.779-47.4a24.548,24.548,0,0,0-7.189.869,10.8,10.8,0,0,0-4.227,2.251A7.272,7.272,0,0,0,10.389-41.4a8.794,8.794,0,0,0-.514,2.844,5.248,5.248,0,0,0,1.936,4.227,15.657,15.657,0,0,0,5.135,2.686,72.982,72.982,0,0,0,7.07,1.936q3.871.869,7.7,1.935a38.234,38.234,0,0,1,7.031,2.686,14.688,14.688,0,0,1,5.135,4.148,10.354,10.354,0,0,1,1.936,6.478A12.866,12.866,0,0,1,40.29-3.278Q34.76.632,25.122.632Zm44,0A16.074,16.074,0,0,1,61.462-1.3a14.906,14.906,0,0,1-5.885-5.767,18.355,18.355,0,0,1-2.252-9.44V-39.5H59.25v22.831a12.028,12.028,0,0,0,3.12,8.65A10.486,10.486,0,0,0,70.31-4.74a11.85,11.85,0,0,0,6-1.541,11.828,11.828,0,0,0,4.306-4.227,11.85,11.85,0,0,0,1.619-6.241V-39.5h5.925V0H82.239V-6.162a19.825,19.825,0,0,1-5.214,4.819A14.4,14.4,0,0,1,69.125.632ZM98.434,0V-39.5h5.925v9.717a16.518,16.518,0,0,1,1.225-2.725,14.881,14.881,0,0,1,2.646-3.437,15.076,15.076,0,0,1,4.384-2.963,14.846,14.846,0,0,1,6.281-1.224h.395v5.925h-.711a12.311,12.311,0,0,0-7.623,2.41,15.542,15.542,0,0,0-4.9,6.241,19.948,19.948,0,0,0-1.7,8.177V0Zm29.941,0V-34.286h-6.794V-39.5h6.794v-3.476q0-6.478,3.911-9.717t10.7-3.239h.474v5.609h-.79q-4.108,0-6.241,1.857T134.3-42.5v3h9.164v5.214H134.3V0Zm44.793.632a24.757,24.757,0,0,1-13.509-3.595,23.838,23.838,0,0,1-8.73-9.677,29.781,29.781,0,0,1-3.042-13.509,29.781,29.781,0,0,1,3.042-13.509,23.838,23.838,0,0,1,8.73-9.678,24.757,24.757,0,0,1,13.509-3.595,26.13,26.13,0,0,1,10.665,2.094,23.756,23.756,0,0,1,8.058,5.728,23.942,23.942,0,0,1,4.977,8.453h-6.241a16.529,16.529,0,0,0-6.241-7.663,18.971,18.971,0,0,0-10.744-2.844,19.864,19.864,0,0,0-10.784,2.8,17.985,17.985,0,0,0-6.755,7.545,24.194,24.194,0,0,0-2.291,10.665A24.265,24.265,0,0,0,156.1-15.524a17.932,17.932,0,0,0,6.755,7.584,19.864,19.864,0,0,0,10.784,2.8,18.971,18.971,0,0,0,10.744-2.844,16.529,16.529,0,0,0,6.241-7.663h6.241a24.488,24.488,0,0,1-4.977,8.414,23.5,23.5,0,0,1-8.058,5.767A26.13,26.13,0,0,1,173.168.632Zm31.047-46.768v-7.742h6.4v7.742ZM204.452,0V-39.5h5.925V0Zm20.461,0V-34.286h-8.058V-39.5h8.058V-53.641h5.925V-39.5h9.085v5.214h-9.085V0Zm25.6,15.642L257.7-.553,241.582-39.5h6.557L260.858-7.11,273.814-39.5h6.478L256.908,15.642Z" transform="translate(0 65)" fill="#fff"/>
      </g>
    </g>
    <g id="Home_Indicator" data-name="Home Indicator" transform="translate(0 892)">
      <rect id="Frame-2" data-name="Frame" width="428" height="34" fill="#fff" opacity="0"/>
      <rect id="Home_Indicator-2" data-name="Home Indicator" width="187" height="5" rx="2.5" transform="translate(121 21)" fill="#fff"/>
    </g>
  </g>
</svg>
