<svg xmlns="http://www.w3.org/2000/svg" viewBox="0 0 252 144"><defs><style>.cls-1{fill:#eaeaea;}.cls-2{fill:#bce05a;}.cls-3{fill:#fdd9ae;stroke-miterlimit:4;}.cls-3,.cls-4,.cls-5{stroke:#f5b54f;}.cls-3,.cls-4,.cls-5,.cls-7,.cls-8,.cls-9{stroke-width:0.25px;}.cls-4,.cls-5{fill:none;}.cls-6{fill:#c8f427;}.cls-7,.cls-8,.cls-9{fill:#fde2ae;stroke:#f8c676;}.cls-9{stroke-miterlimit:3.98;}</style></defs><g id="Layer_2" data-name="Layer 2"><g id="Layer_3" data-name="Layer 3"><rect class="cls-1" width="252" height="144"/><path id="Path_1-2" data-name="Path 1-2" class="cls-2" d="M116,57.25l-.32-8.16-2.9-5.63,5.43,6.71,3.84,5.44,2.31-6,.21-3.62,1.83,5.19,1.39,2.89,3.64-4.87,5.62-9.37L131.92,52l1.24,3.69,6.39-2.15,3.39-2.77,4.24-3.38-9.36,13,8.52,1.07,10-1.73-10.14,3.79-7.5,4,4.63,3.86,9.25,4.15L140,74.69l4.89,11,4.13,6.5-8-9-6.24-5-4.93,8.6.43,17.41-5.71-22-7.28,14.46,3-11.57-1.78-9.17-7,2.88-10.43,7.8,3.9-4.4,6.24-11.94L98.57,63.8,106,65.48l5.58-.91-10.26-15.4,6.62,5.59Z"/><g id="Component_2_1" data-name="Component 2 1"><g id="Component_1_1" data-name="Component 1 1"><path id="Path_2-2" data-name="Path 2-2" class="cls-3" d="M111.68,65.69c1-1.85.35-3.59,3.37-5.06,1.23-.59,2.24-1.5,4.42-1.7a8.89,8.89,0,0,1,4.3.9,7.64,7.64,0,0,1,2.28-.91c1.12-.19,1.47.19,2.19.14a10.21,10.21,0,0,1,2-.15c.89.08,1,.36,1.54.48,2.89.6,2.54,1.49,3.54,2.85.56.77,1.14-.29,1.89,2a21.6,21.6,0,0,1,1.31,4.15,4.81,4.81,0,0,1-.21,3c-.4,1.39-.07,1.83-1.62,3.26a9.33,9.33,0,0,1-4.58,2.46,8.24,8.24,0,0,1-4.16.11A16.56,16.56,0,0,1,123.79,76s-3.57-.06-4.73-.61c-3.09-1.45-2.39-3-2.39-3s-.54,0-1.6,0c-1.58.24-1.45.08-2.65-.52s-1-1.22-1.41-2.4a3,3,0,0,1-.34-1.85A4.51,4.51,0,0,1,111.68,65.69Z"/><path id="Path_3-2" data-name="Path 3-2" class="cls-4" d="M111.23,70.35a4.13,4.13,0,0,1,1.87-3.09c2.13-1.73,2.9-.92,2.9-.92a5.78,5.78,0,0,1,2.26-2.58c1.7-1,1.94-.42,1.94-.42a6.34,6.34,0,0,1,.77-1.93c.55-.79,2.79-1.5,2.79-1.5"/><path id="Path_4-2" data-name="Path 4-2" class="cls-4" d="M129.66,61.58s-.36-.11-.78-.13a1.39,1.39,0,0,0-.57.09,2.59,2.59,0,0,0-1,1.17,20.81,20.81,0,0,0-.76,2.34,5.56,5.56,0,0,0-1.88.73,9.29,9.29,0,0,0-1.47,1.47,5.45,5.45,0,0,0-2.77,1c-.35.33-2.25,2-2.3,2.85s-1.55,1.32-1.55,1.32"/><path id="Path_6-2" data-name="Path 6-2" class="cls-4" d="M115.8,72.39c0-.65-1.52-1.61-1.63-2.51s1.13-2,1.53-2.3c1.88-1.56,3-1.06,3-1.06s-.41-.81,1.09-1.76,1.9-.35,1.9-.35a10.48,10.48,0,0,1,.89-1.73c.47-.71,2-.39,2-.39s.76-1.84,4.1-1,2,2.94,2,2.94a4.4,4.4,0,0,1-3.46,2.7,10.54,10.54,0,0,1-1.93,3.28,2,2,0,0,1-2.17.24,3.73,3.73,0,0,1-1.6,2.71,3.09,3.09,0,0,1-2.94-.41,2.72,2.72,0,0,1-.9.41,3,3,0,0,1-1,0"/><path id="Path_7" data-name="Path 7" class="cls-4" d="M127.33,62.65s-2.06-1-2.65.59a1.66,1.66,0,0,0,0,1.36s-.92.12-1.16.57,0,.63-.6.8-1.83-.13-3,.34a3.74,3.74,0,0,0-1.77,1.54s-1.18.52-1.49,1.17.12.91.28,1.44a1,1,0,0,0,1.21.66"/><path id="Path_9-2" data-name="Path 9-2" class="cls-4" d="M118.71,75.26a4.65,4.65,0,0,0,3.11-.38,9.7,9.7,0,0,0,2.9-2.74A5.62,5.62,0,0,0,127,70.53a6.76,6.76,0,0,0,1-2.73,10.85,10.85,0,0,0,2.22-1.35,2.92,2.92,0,0,0,1-1.49,6,6,0,0,0,3-.07c1.12-.49-.12-3.14-.12-3.14"/><path id="Path_10" data-name="Path 10" class="cls-4" d="M127.76,61.09a3.24,3.24,0,0,1,1.86-.77.94.94,0,0,1,1,1.07,2.62,2.62,0,0,1,1.41-.33,2.39,2.39,0,0,1,1.22.71,3.74,3.74,0,0,1,1.14,0,2.17,2.17,0,0,1,1,.6"/><path id="Path_11" data-name="Path 11" class="cls-4" d="M123.14,70.45a2.61,2.61,0,0,1-.28-.17,1.16,1.16,0,0,1-.29-.37"/><path id="Path_12" data-name="Path 12" class="cls-4" d="M127.2,66.91l-.28,0a1.28,1.28,0,0,1-.27,0"/><path id="Path_13" data-name="Path 13" class="cls-4" d="M121.66,64.43c0,.21-.06.14-.11.42a.65.65,0,0,0,0,.39"/><path id="Path_14" data-name="Path 14" class="cls-4" d="M134.23,64.86c-.39,2.65-.57,4.66-1.7,5.64a7.56,7.56,0,0,1-2.82,1,3.68,3.68,0,0,1-4.49,1.66l-2.9,1.38"/><path id="Path_15" data-name="Path 15" class="cls-5" d="M122.61,62.59c-.51-1,.56-1.82,1.1-2a2.14,2.14,0,0,1,1.71,0,2.65,2.65,0,0,1,1.24-.75,2.36,2.36,0,0,1,1.38.3,3.72,3.72,0,0,1,2.2-.49A2.79,2.79,0,0,1,131.83,61"/><path id="Path_16" data-name="Path 16" class="cls-4" d="M125.39,60.56c.31.16.36.26.36.26"/><path id="Path_17" data-name="Path 17" class="cls-4" d="M118.19,67.71c0,.21-.06.14-.11.42a.65.65,0,0,0,0,.39"/><path id="Path_18" data-name="Path 18" class="cls-4" d="M120.2,63.33c0,.22,0,.14,0,.42a1.27,1.27,0,0,0,0,.39"/><path id="Path_19" data-name="Path 19" class="cls-4" d="M116,66.28c0,.2-.06.14-.11.41a.77.77,0,0,0,0,.37"/><path id="Path_20" data-name="Path 20" class="cls-4" d="M113.34,67.07c.51-.95,0-1.92.84-2.76a3.16,3.16,0,0,1,2.41-.62,5,5,0,0,1,2-2.67,3.36,3.36,0,0,1,2.77,0"/><path id="Path_21" data-name="Path 21" class="cls-4" d="M116.58,63.68c0,.2-.09.19-.14.46a.59.59,0,0,0,0,.37"/><path id="Path_22-2" data-name="Path 22-2" class="cls-4" d="M112.36,67.89c-.58-1,1.15-3.94,1.69-4.48A4.94,4.94,0,0,1,116.52,62"/><path id="Path_23" data-name="Path 23" class="cls-4" d="M115.8,62.87a6.94,6.94,0,0,1,3-2.53c1.65-.51,1.78.43,1.78.43"/><path id="Path_24-2" data-name="Path 24-2" class="cls-4" d="M118.4,70.5c.53,0,1.52.94,2.21.61,1-.48,2-2.67,2-2.67a4.91,4.91,0,0,0,2.25-.22c1-.41,1.37-2.24,1.37-2.24s2.91-1.48,3.21-2.68S127.77,62,127.77,62"/><path id="Path_25" data-name="Path 25" class="cls-4" d="M122.81,68.47a3,3,0,0,1-.83-.17"/><path id="Path_26" data-name="Path 26" class="cls-4" d="M127.1,70.38a4,4,0,0,0,2.59-1.74,2.53,2.53,0,0,0,.38-1.11,3.85,3.85,0,0,0,2.28-.43,2.82,2.82,0,0,0,.73-1.94"/><path id="Path_28-2" data-name="Path 28-2" class="cls-4" d="M137.71,65.66c-.39,2.67.27,2.45-.66,4.27s-3.85,2.31-3.85,2.31a4.82,4.82,0,0,1-1.94,1.67,4.73,4.73,0,0,1-2.56,0,4.83,4.83,0,0,1-2.49,1,3.25,3.25,0,0,1-2-1.2"/><path id="Path_29-2" data-name="Path 29-2" class="cls-4" d="M133.74,67.89c1.92-.64,2.31-1.17,2.75-2.24s-1.84-2-1.84-2"/><path id="Path_30" data-name="Path 30" class="cls-4" d="M129.66,71.59a1.86,1.86,0,0,0,.19-.34,1.16,1.16,0,0,0,.08-.32"/><path id="Path_31" data-name="Path 31" class="cls-4" d="M130.07,67.57s0-.18,0-.33V67"/><path id="Path_32" data-name="Path 32" class="cls-4" d="M124.72,72.15l-.28.11-.49.14"/><path id="Path_33" data-name="Path 33" class="cls-4" d="M133.29,72.23a1.46,1.46,0,0,1-.36,0l-.32-.07"/><path id="Path_34" data-name="Path 34" class="cls-4" d="M126.58,65s0,.24,0,.32"/><path id="Path_35-2" data-name="Path 35-2" class="cls-4" d="M137.2,69.63c-.38.73.09,2.17-.67,3a7.38,7.38,0,0,1-3.35,1.63,4.68,4.68,0,0,1-1.94,1.65c-1.12.42-3.17-.35-3.17-.35a22.13,22.13,0,0,1-3.39.35,10.62,10.62,0,0,1-3-.91"/><path id="Path_36" data-name="Path 36" class="cls-4" d="M133.29,74.24a1.45,1.45,0,0,1-.36,0,1.65,1.65,0,0,1-.32-.06"/><path id="Path_37" data-name="Path 37" class="cls-4" d="M128.09,75.58l-.26-.11a.91.91,0,0,1-.24-.2"/><path id="Path_40" data-name="Path 40" class="cls-4" d="M129.82,76a1.94,1.94,0,0,0,1.46.92,8.94,8.94,0,0,0,2.75-.33"/><path id="Path_27-2" data-name="Path 27-2" class="cls-4" d="M134.23,64.86c-.39,2.65-.57,4.66-1.7,5.64a7.56,7.56,0,0,1-2.82,1A5.44,5.44,0,0,1,128.26,73a3.71,3.71,0,0,1-.49.24,4.81,4.81,0,0,1-2.55,0l-2.9,1.38"/></g><path id="Path_44" data-name="Path 44" class="cls-2" d="M110.5,71.87l3.08-2.64,2,.88,2.12-1.64,5.23-.73-5.23,1.49-2.12,2.06H113l-1.46,1.84"/><path id="Path_45" data-name="Path 45" class="cls-2" d="M132.64,58.27l-1.19,3.23-2,.87v2.32l.52-2,2-.32,2.37-3.45"/><path id="Path_46" data-name="Path 46" class="cls-2" d="M116.37,57.37l1.87,4.71,4.19.48,3.25,5.12-2.57-5.6-4.31-.83-.56-3.88"/><path id="Path_47" data-name="Path 47" class="cls-2" d="M138.25,78.17l-4.42-3.85L132,66.75l2.7,6.38,6.54,3.14"/><path id="Path_48-2" data-name="Path 48-2" class="cls-6" d="M126.08,73.41l4.06,17.84L127,73.41"/><path id="Path_49-2" data-name="Path 49-2" class="cls-6" d="M127.14,61l-.37-18.17.86,15.5.12,2.22c0,.66,0,.21,0,.48"/></g><path id="Path_50-2" data-name="Path 50-2" class="cls-6" d="M134,66.56l.92-.23,21.9-6.72-23,7.78"/><path id="Path_51-2" data-name="Path 51-2" class="cls-6" d="M116.26,65.61,104.82,52.13l12.62,12.14"/><path id="Path_54-2" data-name="Path 54-2" class="cls-7" d="M139,75.34a.53.53,0,0,0,.14.4c.13.12.37,0,.45,0a.35.35,0,0,0,.19-.1c.06-.09,0-.15,0-.23a.45.45,0,0,0-.1-.4c-.05,0-.14-.17-.27-.17s-.19.13-.28.17A.31.31,0,0,0,139,75.34Z"/><path id="Path_60-2" data-name="Path 60-2" class="cls-7" d="M128.38,51.51a1,1,0,0,0,.27.74c.25.22.73.06.88,0a.75.75,0,0,0,.37-.2c.12-.15.07-.26.1-.41a.8.8,0,0,0-.2-.75c-.09-.08-.26-.31-.52-.31s-.37.23-.55.31A.6.6,0,0,0,128.38,51.51Z"/><path id="Path_62-2" data-name="Path 62-2" class="cls-7" d="M132.76,58.87a.7.7,0,0,0,.06.35c.06.11.17,0,.2,0a.15.15,0,0,0,.09-.09,1.19,1.19,0,0,0,0-.56s-.05-.15-.12-.15-.08.12-.12.15A.37.37,0,0,0,132.76,58.87Z"/><path id="Path_63-2" data-name="Path 63-2" class="cls-7" d="M132.39,60.2a.38.38,0,0,0,.09.25c.09.07.25,0,.3,0a.24.24,0,0,0,.13-.07c0-.05,0-.09,0-.14a.23.23,0,0,0-.07-.25s-.08-.11-.17-.11-.13.08-.19.11A.2.2,0,0,0,132.39,60.2Z"/><path id="Path_91-2" data-name="Path 91-2" class="cls-7" d="M122.91,80a.93.93,0,0,0,.27.74c.25.23.73.07.88,0a.66.66,0,0,0,.37-.19c.12-.15.07-.26.1-.42a.93.93,0,0,0-.73-1c-.26,0-.36.23-.54.31A.58.58,0,0,0,122.91,80Z"/><path id="Path_92-2" data-name="Path 92-2" class="cls-7" d="M121.46,78.36a.89.89,0,0,0,.14.55c.14.16.41,0,.49,0a.33.33,0,0,0,.2-.15.62.62,0,0,0,.06-.3.71.71,0,0,0-.11-.55c0-.06-.14-.23-.29-.23s-.2.17-.3.23A.46.46,0,0,0,121.46,78.36Z"/><path id="Path_93-2" data-name="Path 93-2" class="cls-7" d="M107.58,72a.69.69,0,0,0,.32.62,1.48,1.48,0,0,0,1,0,.87.87,0,0,0,.44-.16c.14-.13.08-.22.12-.35a.56.56,0,0,0-.24-.63,1,1,0,0,0-.62-.27c-.31,0-.43.2-.64.27C107.58,71.59,107.58,71.85,107.58,72Z"/><path id="Path_96-2" data-name="Path 96-2" class="cls-7" d="M107,53.48a1.3,1.3,0,0,0,.25.86c.24.27.69.08.84,0a.62.62,0,0,0,.35-.22c.11-.18.07-.31.1-.49a1.06,1.06,0,0,0-.2-.86c-.08-.09-.24-.36-.49-.36s-.35.27-.52.36A.73.73,0,0,0,107,53.48Z"/><path id="Path_97-2" data-name="Path 97-2" class="cls-7" d="M140.42,70.29a1,1,0,0,0,.27.74c.25.23.73.07.88,0a.66.66,0,0,0,.37-.19c.12-.15.07-.26.1-.42a.78.78,0,0,0-.2-.74.8.8,0,0,0-.53-.31c-.26,0-.36.23-.54.31A.58.58,0,0,0,140.42,70.29Z"/><path id="Path_98" data-name="Path 98" class="cls-7" d="M145,66.51a.43.43,0,0,0,.17.38c.16.12.47,0,.57,0a.48.48,0,0,0,.23-.1c.08-.08.05-.14.07-.22a.35.35,0,0,0-.13-.38.54.54,0,0,0-.34-.16c-.17,0-.23.12-.35.16A.29.29,0,0,0,145,66.51Z"/><path id="Path_100-2" data-name="Path 100-2" class="cls-7" d="M133.68,58.7a.21.21,0,0,0,.15.2,1,1,0,0,0,.48,0l.21-.06c.06,0,0-.07,0-.11s0-.16-.11-.2a.57.57,0,0,0-.29-.08.92.92,0,0,0-.29.08C133.68,58.57,133.68,58.66,133.68,58.7Z"/><path id="Path_104-2" data-name="Path 104-2" class="cls-7" d="M135.13,74.55a.49.49,0,0,0,.11.35c.1.11.29,0,.35,0a.22.22,0,0,0,.14-.09c.05-.07,0-.12.05-.2a.45.45,0,0,0-.09-.35s-.1-.15-.2-.15-.15.11-.22.15A.29.29,0,0,0,135.13,74.55Z"/><path id="Path_105-2" data-name="Path 105-2" class="cls-7" d="M136.22,75.94a.52.52,0,0,0,.19.44c.18.14.52,0,.63,0a.47.47,0,0,0,.26-.11c.09-.09.06-.16.08-.25a.46.46,0,0,0-.15-.45.59.59,0,0,0-.37-.18c-.19,0-.26.14-.38.18A.36.36,0,0,0,136.22,75.94Z"/><path id="Path_106-2" data-name="Path 106-2" class="cls-7" d="M115.43,70.5a.23.23,0,0,0,.06.18c.06,0,.18,0,.22,0a.2.2,0,0,0,.09-.05s0-.06,0-.1a.16.16,0,0,0,0-.17.2.2,0,0,0-.12-.08c-.07,0-.09.06-.14.08A.13.13,0,0,0,115.43,70.5Z"/><path id="Path_107-2" data-name="Path 107-2" class="cls-8" d="M133.64,83a2.66,2.66,0,0,0,1.27,1.59c.77.35,1.71-.43,2-.72.13-.14.53-.31.66-.78s-.07-.7-.14-1.1a2.17,2.17,0,0,0-1.13-1.66c-.26-.11-.85-.54-1.45-.33s-.62.87-1,1.21A1.57,1.57,0,0,0,133.64,83Z"/><path id="Path_108-2" data-name="Path 108-2" class="cls-8" d="M116.05,56.56a2.82,2.82,0,0,0,.67,1.15c.34.3.65-.11.73-.26a.62.62,0,0,0,.19-.44,2.17,2.17,0,0,0-.17-.72,2.41,2.41,0,0,0-.62-1.18c-.12-.1-.4-.44-.62-.36s-.16.5-.26.68A1.49,1.49,0,0,0,116.05,56.56Z"/><path id="Path_109-2" data-name="Path 109-2" class="cls-8" d="M102.67,62.21A1.61,1.61,0,0,0,104,63.36a4.49,4.49,0,0,0,2.69-1,2.75,2.75,0,0,0,1-.79c.25-.43,0-.6,0-.93a1.33,1.33,0,0,0-1.17-1.24,3,3,0,0,0-1.81,0c-.82.29-1,.86-1.44,1.21C102.34,61.3,102.56,61.92,102.67,62.21Z"/><path id="Path_103-2" data-name="Path 103-2" class="cls-7" d="M117.62,59.08a.32.32,0,0,0,.07.23c.07.07.21,0,.25,0a.24.24,0,0,0,.11-.06.31.31,0,0,0,0-.13.24.24,0,0,0-.06-.23s-.07-.1-.15-.1-.1.07-.15.1A.18.18,0,0,0,117.62,59.08Z"/><path id="Path_94-2" data-name="Path 94-2" class="cls-7" d="M112.76,70.45a.32.32,0,0,0,.16.29.89.89,0,0,0,.56,0,.49.49,0,0,0,.23-.08c.07-.06.05-.1.07-.16a.26.26,0,0,0-.13-.3.66.66,0,0,0-.33-.12c-.17,0-.23.09-.34.12S112.76,70.39,112.76,70.45Z"/><path id="Path_132-2" data-name="Path 132-2" class="cls-7" d="M101.27,79.11a1.88,1.88,0,0,0,.42,1.33c.4.41,1.16.13,1.4,0a1,1,0,0,0,.58-.35c.19-.27.12-.47.17-.75a1.58,1.58,0,0,0-.33-1.34c-.14-.14-.4-.56-.82-.56s-.58.42-.86.56A1.1,1.1,0,0,0,101.27,79.11Z"/><path id="Path_133-2" data-name="Path 133-2" class="cls-9" d="M138,54.36a1.91,1.91,0,0,0,.29,1.36c.35.45,1.13.24,1.38.14a1,1,0,0,0,.62-.28c.21-.26.16-.46.23-.73a1.55,1.55,0,0,0-.18-1.37c-.13-.15-.35-.59-.77-.63s-.61.36-.9.46A1.13,1.13,0,0,0,138,54.36Z"/><path d="M64.75,78.5l-1.22,0-1-.11V65a3,3,0,0,0-.62,0,.73.73,0,0,0-.35.2,1.24,1.24,0,0,0-.22.35,1,1,0,0,0-.09.41L60.1,66a2.29,2.29,0,0,1,.63-1.57,1.87,1.87,0,0,1,.75-.43,4.33,4.33,0,0,1,1.08-.16l5.5,0a6.6,6.6,0,0,1,3.45,1,6.69,6.69,0,0,1,2.36,2.61,8.07,8.07,0,0,1,.85,3.74,6.82,6.82,0,0,1-2.11,5.45q-2.11,1.84-6.29,1.84Zm6.89-2.71a5.66,5.66,0,0,0,1.82-4.54A7.09,7.09,0,0,0,72.75,68a5.12,5.12,0,0,0-2-2.17,5.48,5.48,0,0,0-2.93-.78h-4V77.24l.63,0c.81.06,1.45.08,1.93.08A7.89,7.89,0,0,0,71.64,75.79Z"/><path d="M77.44,66.22a.83.83,0,0,1-.27-.62.87.87,0,0,1,.27-.64.85.85,0,0,1,.62-.26.89.89,0,0,1,.9.9.85.85,0,0,1-.26.62.87.87,0,0,1-.64.27A.83.83,0,0,1,77.44,66.22ZM79,77.08a.65.65,0,0,0,.47.2.63.63,0,0,0,.61-.36l.93.7a1.45,1.45,0,0,1-.59.59,1.8,1.8,0,0,1-1,.25A1.9,1.9,0,0,1,78,77.93a1.78,1.78,0,0,1-.55-1.36V67.85h1.26v8.74A.68.68,0,0,0,79,77.08Z"/><path d="M85.7,83.79a3.07,3.07,0,0,1-1.15-1.14,3.36,3.36,0,0,1,.77-4.19,4.26,4.26,0,0,1-2.61-1.88,6.25,6.25,0,0,1-1-3.56,6,6,0,0,1,.65-2.84,4.71,4.71,0,0,1,1.84-1.89,5.43,5.43,0,0,1,2.74-.67,7.64,7.64,0,0,1,1.16.06l1.26.15h1.19v13a3.49,3.49,0,0,1-.89,2.48,3.08,3.08,0,0,1-2.34.94A3.21,3.21,0,0,1,85.7,83.79ZM88,76.63a4.18,4.18,0,0,0,1-1,1.91,1.91,0,0,0,.37-1V68.94l-1.91-.1h-.69a3.33,3.33,0,0,0-1.9.56,3.75,3.75,0,0,0-1.33,1.53A4.77,4.77,0,0,0,83,73.12a5.33,5.33,0,0,0,.42,2.13,3.83,3.83,0,0,0,1.14,1.55,2.41,2.41,0,0,0,1.55.56A3,3,0,0,0,88,76.63Zm.79,5.77a2.71,2.71,0,0,0,.53-1.68V76.65a4.66,4.66,0,0,0-.3.43,3.1,3.1,0,0,1-.62.68,6.8,6.8,0,0,1-1.2.8l-.65.4A2.28,2.28,0,0,0,85.43,81,1.89,1.89,0,0,0,86,82.43a2,2,0,0,0,1.41.56A1.64,1.64,0,0,0,88.76,82.4Z"/><path d="M93.75,66.22a.85.85,0,0,1-.26-.62.9.9,0,0,1,.26-.64.89.89,0,0,1,.62-.26.9.9,0,0,1,.91.9.83.83,0,0,1-.27.62.84.84,0,0,1-.64.27A.86.86,0,0,1,93.75,66.22Zm1.52,10.86a.65.65,0,0,0,.47.2.64.64,0,0,0,.61-.36l.92.7a1.39,1.39,0,0,1-.59.59,1.76,1.76,0,0,1-.94.25,1.94,1.94,0,0,1-1.39-.53,1.81,1.81,0,0,1-.54-1.36V67.85h1.26v8.74A.64.64,0,0,0,95.27,77.08Z"/><path d="M99.52,77.75a3.7,3.7,0,0,1-.67-2.42V65.23h1.26v2.66h3.29V69h-3.29v6.3c0,1.4.5,2.1,1.51,2.1a2,2,0,0,0,1.85-1.28l.94.65a3.51,3.51,0,0,1-1.15,1.32,3,3,0,0,1-1.64.44A2.58,2.58,0,0,1,99.52,77.75Z"/><path d="M107.37,77.83a4.58,4.58,0,0,1-1.55-2,6.68,6.68,0,0,1-.53-2.68,6.28,6.28,0,0,1,.63-2.87,4.65,4.65,0,0,1,1.81-1.94,5.23,5.23,0,0,1,2.75-.7c.32,0,.73,0,1.22.06s.92.08,1.3.13h1.26v8.68a.94.94,0,0,0,.2.64.67.67,0,0,0,.5.22.68.68,0,0,0,.6-.36l.91.71a1.78,1.78,0,0,1-.71.62,2.08,2.08,0,0,1-.89.18,1.88,1.88,0,0,1-1.29-.5,1.6,1.6,0,0,1-.56-1.22,3.31,3.31,0,0,1-1.32,1.28,3.89,3.89,0,0,1-1.85.44A4.18,4.18,0,0,1,107.37,77.83Zm4.2-.86a3,3,0,0,0,1.14-1.22A3.17,3.17,0,0,0,113,74.4V68.9l-1.38,0-1.22,0A3.49,3.49,0,0,0,107.52,70a4.88,4.88,0,0,0-1,3.13,5.26,5.26,0,0,0,.86,3,2.78,2.78,0,0,0,2.46,1.25A3.25,3.25,0,0,0,111.57,77Z"/><path d="M119.77,77.08a.67.67,0,0,0,.48.2.64.64,0,0,0,.61-.36l.92.7a1.39,1.39,0,0,1-.59.59,1.76,1.76,0,0,1-.94.25,1.93,1.93,0,0,1-1.39-.53,1.82,1.82,0,0,1-.55-1.36V63.11h1.26V76.59A.68.68,0,0,0,119.77,77.08Z"/><path d="M133.3,78.5l-1.23,0-1-.11V65a3,3,0,0,0-.62,0,.66.66,0,0,0-.34.2,1.3,1.3,0,0,0-.32.76l-1.15,0a2.2,2.2,0,0,1,.63-1.57A1.83,1.83,0,0,1,130,64a4.41,4.41,0,0,1,1.08-.16l5.5,0a6.51,6.51,0,0,1,5.81,3.61,8.07,8.07,0,0,1,.85,3.74,6.82,6.82,0,0,1-2.11,5.45c-1.41,1.23-3.5,1.84-6.29,1.84Zm6.89-2.71A5.65,5.65,0,0,0,142,71.25a7.09,7.09,0,0,0-.7-3.24,5.21,5.21,0,0,0-2-2.17,5.46,5.46,0,0,0-2.93-.78h-4V77.24l.63,0c.81.06,1.46.08,1.93.08A7.93,7.93,0,0,0,140.19,75.79Z"/><path d="M147.57,77.91a4.14,4.14,0,0,1-1.65-1.79,5.91,5.91,0,0,1-.56-2.6,7.38,7.38,0,0,1,.54-2.77,5.2,5.2,0,0,1,1.61-2.21,4.14,4.14,0,0,1,2.64-.86,4.67,4.67,0,0,1,1.91.4,3.43,3.43,0,0,1,1.4,1.14,2.89,2.89,0,0,1,.51,1.7,2.71,2.71,0,0,1-1.32,2.4,6.52,6.52,0,0,1-3.65.83l-2.32,0a3.87,3.87,0,0,0,1.09,2.46,3.43,3.43,0,0,0,2.46.84,5.35,5.35,0,0,0,3.32-1.07l.63.84a6.34,6.34,0,0,1-1.81,1,6.14,6.14,0,0,1-2.14.37A5.11,5.11,0,0,1,147.57,77.91Zm5.14-7a1.81,1.81,0,0,0-.72-1.57,3,3,0,0,0-1.78-.51,3,3,0,0,0-2,.67A4.18,4.18,0,0,0,147,71.15a5,5,0,0,0-.4,1.91h2.65C151.56,73.06,152.71,72.34,152.71,70.9Z"/><path d="M155.57,77l.69-.84a6.91,6.91,0,0,0,1.59,1,4.12,4.12,0,0,0,1.69.35,2.67,2.67,0,0,0,1.77-.54,1.78,1.78,0,0,0,.64-1.46,1.49,1.49,0,0,0-.28-1,2,2,0,0,0-.76-.6c-.31-.15-.88-.4-1.69-.73s-1.31-.58-1.72-.8a2.94,2.94,0,0,1-1-.83,2.07,2.07,0,0,1-.35-1.25,2.47,2.47,0,0,1,.88-2,3.56,3.56,0,0,1,2.35-.74,5.49,5.49,0,0,1,1.5.21,3.66,3.66,0,0,1,1.27.61l-.52.9a4.15,4.15,0,0,0-2.19-.59,2.54,2.54,0,0,0-1.49.38,1.24,1.24,0,0,0-.52,1.07,1.27,1.27,0,0,0,.28.86,2.13,2.13,0,0,0,.74.56c.3.15.8.36,1.5.64a14.75,14.75,0,0,1,1.86.87,3.16,3.16,0,0,1,1,1,2.47,2.47,0,0,1,.36,1.37,2.89,2.89,0,0,1-1,2.32,4,4,0,0,1-2.69.87A5.81,5.81,0,0,1,155.57,77Z"/><path d="M165.38,66.22a.85.85,0,0,1-.26-.62.9.9,0,0,1,.26-.64.89.89,0,0,1,.62-.26.9.9,0,0,1,.91.9.83.83,0,0,1-.27.62.84.84,0,0,1-.64.27A.86.86,0,0,1,165.38,66.22Zm1.52,10.86a.65.65,0,0,0,.47.2.64.64,0,0,0,.61-.36l.92.7a1.39,1.39,0,0,1-.59.59,1.76,1.76,0,0,1-.94.25,1.94,1.94,0,0,1-1.39-.53,1.81,1.81,0,0,1-.54-1.36V67.85h1.26v8.74A.64.64,0,0,0,166.9,77.08Z"/><path d="M173.65,83.79a3.1,3.1,0,0,1-1.16-1.14,3.35,3.35,0,0,1,.78-4.19,4.23,4.23,0,0,1-2.61-1.88,6.25,6.25,0,0,1-1-3.56,6,6,0,0,1,.65-2.84,4.65,4.65,0,0,1,1.84-1.89,5.43,5.43,0,0,1,2.74-.67,7.48,7.48,0,0,1,1.15.06l1.26.15h1.2v13a3.49,3.49,0,0,1-.89,2.48,3.09,3.09,0,0,1-2.35.94A3.2,3.2,0,0,1,173.65,83.79Zm2.27-7.16a4.18,4.18,0,0,0,1-1,1.91,1.91,0,0,0,.37-1V68.94l-1.91-.1h-.7a3.33,3.33,0,0,0-1.9.56,3.82,3.82,0,0,0-1.33,1.53,4.89,4.89,0,0,0-.48,2.19,5.33,5.33,0,0,0,.42,2.13,3.9,3.9,0,0,0,1.13,1.55,2.45,2.45,0,0,0,1.56.56A3,3,0,0,0,175.92,76.63Zm.78,5.77a2.71,2.71,0,0,0,.54-1.68V76.65s-.13.17-.31.43a2.87,2.87,0,0,1-.62.68,7,7,0,0,1-1.19.8l-.65.4A2.28,2.28,0,0,0,173.38,81a1.92,1.92,0,0,0,.57,1.41,2,2,0,0,0,1.42.56A1.62,1.62,0,0,0,176.7,82.4Z"/><path d="M192.34,77.62a1.39,1.39,0,0,1-.59.59,1.8,1.8,0,0,1-.95.25,1.9,1.9,0,0,1-1.38-.53,1.78,1.78,0,0,1-.55-1.36V71.3c0-1.68-.75-2.52-2.27-2.52a3,3,0,0,0-1.82.53,7.3,7.3,0,0,0-1.56,1.61v7.43H182V71a3.1,3.1,0,0,0-.88-2.44l.84-.84a2.75,2.75,0,0,1,.73.72,3.15,3.15,0,0,1,.49,1,4.41,4.41,0,0,1,1.59-1.4,4.5,4.5,0,0,1,2-.43,3.58,3.58,0,0,1,2.44.79,3.13,3.13,0,0,1,1,2.32v5.84a.68.68,0,0,0,.2.49.65.65,0,0,0,.47.2.63.63,0,0,0,.61-.36Z"/></g></g></svg>