<?xml version="1.0" encoding="utf-8"?>
<!-- Generator: Adobe Illustrator 25.4.1, SVG Export Plug-In . SVG Version: 6.00 Build 0)  -->
<svg version="1.1" id="Layer_1" xmlns="http://www.w3.org/2000/svg" xmlns:xlink="http://www.w3.org/1999/xlink" x="0px" y="0px"
	 viewBox="0 0 252 144" style="enable-background:new 0 0 252 144;" xml:space="preserve">
<style type="text/css">
	.st0{fill:#FFFFFF;}
	.st1{fill:#23D1E4;}
	.st2{fill:#2B2927;}
</style>
<g id="Layer_2_00000007386277148248615120000004774041641420450467_">
	<g id="Layer_2-2">
		<g>
			<g id="ON_slider">
				<path id="Rectangle_14-2" class="st0" d="M111.1,47.6h8.5c2.6,0,4.6,2.1,4.6,4.6l0,0c0,2.6-2.1,4.6-4.6,4.6h-8.5
					c-2.6,0-4.6-2.1-4.6-4.6l0,0C106.4,49.7,108.5,47.6,111.1,47.6L111.1,47.6z"/>
				<ellipse id="Ellipse_2-2" class="st1" cx="119.7" cy="52.3" rx="4" ry="3.9"/>
				<path id="ON" class="st2" d="M108.9,52.5c0-0.3,0.1-0.5,0.2-0.7c0.1-0.2,0.3-0.4,0.5-0.5c0.2-0.1,0.4-0.2,0.7-0.2
					c0.3,0,0.5,0.1,0.7,0.2c0.2,0.1,0.4,0.3,0.5,0.5c0.1,0.2,0.2,0.5,0.2,0.7c0,0.3-0.1,0.5-0.2,0.7c-0.1,0.2-0.3,0.4-0.5,0.5
					c-0.2,0.1-0.5,0.2-0.7,0.2c-0.3,0-0.5-0.1-0.7-0.2s-0.4-0.3-0.5-0.5C109,52.9,108.9,52.7,108.9,52.5z M111.3,52.5
					c0-0.3-0.1-0.6-0.3-0.8c-0.4-0.4-1-0.5-1.5-0.1c0,0,0,0-0.1,0.1c-0.2,0.2-0.3,0.5-0.3,0.8c0,0.6,0.5,1,1.1,1.1
					c0.3,0,0.5-0.1,0.8-0.3C111.2,53,111.3,52.7,111.3,52.5z M112.1,53.8v-2.6l0,0l1.6,2v-2h0.3v2.6l0,0l-1.6-1.9v1.9H112.1z"/>
			</g>
			<g id="OFF_slider">
				<path id="Rectangle_15-2" class="st1" d="M131.1,47.8h8.5c2.6,0,4.6,2.1,4.6,4.6l0,0c0,2.6-2.1,4.6-4.6,4.6l0,0h-8.5
					c-2.6,0-4.6-2.1-4.6-4.6l0,0C126.4,49.9,128.5,47.8,131.1,47.8L131.1,47.8z"/>
				<circle id="Ellipse_3-2" class="st0" cx="131.1" cy="52.5" r="3.9"/>
				<path id="OFF" class="st0" d="M136.3,52.6c0-0.3,0.1-0.5,0.2-0.7c0.1-0.2,0.3-0.4,0.5-0.5c0.2-0.1,0.5-0.2,0.7-0.2
					c0.3,0,0.5,0.1,0.7,0.2c0.2,0.1,0.4,0.3,0.5,0.5c0.1,0.2,0.2,0.4,0.2,0.7s-0.1,0.5-0.2,0.7c-0.1,0.2-0.3,0.4-0.5,0.5
					c-0.2,0.1-0.5,0.2-0.7,0.2c-0.3,0-0.5-0.1-0.7-0.2c-0.2-0.1-0.4-0.3-0.5-0.5C136.4,53.1,136.3,52.9,136.3,52.6z M138.7,52.6
					c0-0.3-0.1-0.6-0.3-0.8s-0.5-0.3-0.8-0.3c-0.6,0-1,0.5-1,1.1c0,0.3,0.1,0.6,0.3,0.8c0.4,0.4,1.1,0.4,1.5,0
					C138.6,53.2,138.7,52.9,138.7,52.6z M139.5,51.3h1.3v0.3h-1v0.8h1v0.3h-1v1.2h-0.3L139.5,51.3z M141.1,51.3h1.3v0.3h-1v0.8h1
					v0.3h-1v1.2h-0.3L141.1,51.3z"/>
			</g>
		</g>
		<g>
			<path d="M85.6,79c-0.8-0.5-1.5-1.2-1.9-2.1C83.3,76,83.1,75,83.1,74v-7c0-0.2-0.1-0.5-0.2-0.7S82.6,66,82.3,66
				c-0.4,0-0.7,0.2-0.9,0.6l-0.9-0.7c0.2-0.3,0.4-0.6,0.7-0.8c0.8-0.5,1.9-0.4,2.6,0.3c0.4,0.4,0.6,1,0.6,1.5v6.9
				c0,0.8,0.2,1.6,0.5,2.3c0.3,0.7,0.8,1.3,1.4,1.7c0.7,0.4,1.4,0.6,2.2,0.6c0.8,0,1.6-0.2,2.3-0.7c0.6-0.4,1.1-1,1.4-1.7
				s0.4-1.5,0.4-2.2v-8.7h1.3v8.8c0,1-0.2,1.9-0.6,2.8s-1,1.6-1.8,2.2c-0.9,0.6-1.9,0.9-3,0.8C87.5,79.8,86.5,79.5,85.6,79z"/>
			<path d="M97.8,65.2H99v14.4h-1.3V65.2H97.8z"/>
			<path d="M112.4,79.7h-1.2l-1-0.1V66.2c-0.2,0-0.4,0-0.6,0.1c-0.1,0-0.3,0.1-0.3,0.2c-0.1,0.1-0.2,0.2-0.2,0.3
				c-0.1,0.1-0.1,0.3-0.1,0.4h-1.2c0-0.6,0.2-1.2,0.6-1.6c0.2-0.2,0.5-0.3,0.8-0.4c0.4-0.1,0.7-0.2,1.1-0.2h5.5
				c2.5,0,4.7,1.4,5.8,3.6c0.6,1.2,0.9,2.4,0.9,3.7c0.1,2-0.6,4-2.1,5.4c-1.4,1.2-3.5,1.8-6.3,1.8C113.5,79.7,112.9,79.7,112.4,79.7
				z M119.3,77c1.3-1.2,1.9-2.8,1.8-4.5c0-1.1-0.2-2.2-0.7-3.2c-0.4-0.9-1.1-1.7-2-2.2s-1.9-0.8-2.9-0.8h-4v12.1h0.6
				c0.8,0.1,1.4,0.1,1.9,0.1C115.9,78.6,117.8,78.1,119.3,77z"/>
			<path d="M126.6,79.1c-0.7-0.4-1.3-1-1.6-1.8c-0.4-0.8-0.6-1.7-0.6-2.6s0.2-1.9,0.5-2.8s0.9-1.6,1.6-2.2c0.8-0.6,1.7-0.9,2.6-0.9
				c0.7,0,1.3,0.1,1.9,0.4c0.6,0.2,1,0.6,1.4,1.1s0.5,1.1,0.5,1.7c0,1-0.5,1.9-1.3,2.4c-1.1,0.6-2.4,0.9-3.6,0.8h-2.3
				c0.1,0.9,0.4,1.8,1.1,2.5c0.7,0.6,1.6,0.9,2.5,0.8c0.6,0,1.2-0.1,1.8-0.3c0.6-0.2,1.1-0.5,1.6-0.8l0.6,0.8
				c-0.5,0.4-1.2,0.8-1.8,1c-0.7,0.2-1.4,0.4-2.1,0.4C128.4,79.8,127.5,79.5,126.6,79.1z M131.8,72.1c0-0.6-0.2-1.2-0.7-1.6
				c-1.2-0.7-2.7-0.7-3.8,0.2c-0.5,0.4-0.9,1-1.2,1.7c-0.3,0.6-0.4,1.3-0.4,1.9h2.6C130.6,74.2,131.8,73.5,131.8,72.1L131.8,72.1z"
				/>
			<path d="M134.6,78.1l0.7-0.8c0.5,0.4,1,0.7,1.6,1c0.5,0.2,1.1,0.3,1.7,0.3c0.6,0,1.3-0.2,1.8-0.5c0.4-0.4,0.7-0.9,0.6-1.5
				c0-0.4-0.1-0.7-0.3-1s-0.5-0.5-0.8-0.6c-0.3-0.2-0.9-0.4-1.7-0.7s-1.3-0.6-1.7-0.8c-0.4-0.2-0.7-0.5-1-0.8
				c-0.3-0.4-0.4-0.8-0.4-1.2c0-0.8,0.3-1.5,0.9-2c0.7-0.5,1.5-0.8,2.4-0.8c0.5,0,1,0.1,1.5,0.2s0.9,0.3,1.3,0.6l-0.5,0.9
				c-0.7-0.4-1.4-0.6-2.2-0.6c-0.5,0-1,0.1-1.5,0.4c-0.3,0.2-0.5,0.6-0.5,1.1c0,0.3,0.1,0.6,0.3,0.9c0.2,0.2,0.5,0.4,0.7,0.6
				c0.3,0.2,0.8,0.4,1.5,0.6c0.6,0.2,1.3,0.5,1.9,0.9c0.4,0.2,0.7,0.6,1,0.9c0.3,0.4,0.4,0.9,0.4,1.4c0,0.9-0.3,1.7-1,2.3
				c-0.8,0.6-1.7,0.9-2.7,0.9C137.1,79.7,135.7,79.1,134.6,78.1z"/>
			<path d="M144.5,67.4c-0.2-0.2-0.3-0.4-0.3-0.6s0.1-0.5,0.3-0.6c0.2-0.2,0.4-0.3,0.6-0.3c0.2,0,0.5,0.1,0.6,0.3
				c0.2,0.2,0.3,0.4,0.3,0.6s-0.1,0.5-0.3,0.6c-0.2,0.2-0.4,0.3-0.6,0.3C144.9,67.7,144.6,67.6,144.5,67.4z M146,78.2
				c0.1,0.1,0.3,0.2,0.5,0.2c0.3,0,0.5-0.1,0.6-0.3l0.9,0.7c-0.1,0.3-0.3,0.5-0.6,0.6c-0.3,0.2-0.6,0.2-0.9,0.2
				c-0.5,0-1-0.2-1.4-0.5c-0.4-0.4-0.6-0.8-0.6-1.4V69h1.3v8.7C145.8,77.9,145.8,78.1,146,78.2z"/>
			<path d="M152.7,85c-0.5-0.3-0.9-0.7-1.1-1.1c-0.3-0.5-0.4-1-0.4-1.6c0-1,0.4-2,1.2-2.6c-1.1-0.3-2-0.9-2.6-1.9
				c-0.7-1.1-1-2.3-1-3.6c0-1,0.2-2,0.7-2.8c0.4-0.8,1-1.5,1.8-1.9c0.8-0.5,1.8-0.7,2.7-0.7c0.4,0,0.8,0,1.2,0.1l1.3,0.1h1.2v13
				c0,0.9-0.3,1.8-0.9,2.5c-0.6,0.6-1.5,1-2.3,0.9C153.8,85.4,153.2,85.3,152.7,85z M155,77.8c0.4-0.3,0.7-0.6,1-1
				c0.2-0.3,0.3-0.6,0.4-1v-5.7l-2-0.1h-0.7c-0.7,0-1.3,0.2-1.9,0.6c-0.6,0.4-1.1,0.9-1.4,1.5c-0.3,0.7-0.5,1.4-0.5,2.2
				c0,0.7,0.1,1.5,0.4,2.1c0.2,0.6,0.6,1.2,1.2,1.6c0.4,0.4,1,0.6,1.6,0.6C153.8,78.5,154.5,78.3,155,77.8L155,77.8z M155.8,83.6
				c0.4-0.5,0.6-1.1,0.5-1.7v-4.1c0,0-0.1,0.2-0.3,0.4c-0.2,0.3-0.4,0.5-0.6,0.7c-0.4,0.3-0.8,0.6-1.2,0.8l-0.6,0.4
				c-0.7,0.4-1.1,1.2-1.1,2.1c0,0.5,0.2,1,0.6,1.4c0.4,0.4,0.9,0.6,1.4,0.6C155,84.2,155.5,84,155.8,83.6L155.8,83.6z"/>
			<path d="M171.5,78.8c-0.1,0.3-0.3,0.5-0.6,0.6c-0.8,0.5-1.8,0.3-2.4-0.3c-0.4-0.4-0.6-0.8-0.6-1.4v-5.3c0-1.7-0.8-2.5-2.3-2.5
				c-0.6,0-1.3,0.2-1.8,0.5c-0.6,0.5-1.1,1-1.6,1.6v7.4H161V72c0.1-0.9-0.2-1.8-0.9-2.4l0.8-0.8c0.3,0.2,0.5,0.4,0.7,0.7
				c0.2,0.3,0.4,0.6,0.5,1c0.8-1.2,2.1-1.9,3.6-1.8c0.9,0,1.7,0.2,2.4,0.8c0.6,0.6,1,1.4,1,2.3v5.8c0,0.2,0.1,0.4,0.2,0.5
				c0.1,0.1,0.3,0.2,0.5,0.2c0.3,0,0.5-0.1,0.6-0.3L171.5,78.8z"/>
		</g>
	</g>
</g>
</svg>
