<?xml version="1.0" encoding="utf-8"?>
<!-- Generator: Adobe Illustrator 25.4.1, SVG Export Plug-In . SVG Version: 6.00 Build 0)  -->
<svg version="1.1" id="Layer_1" xmlns="http://www.w3.org/2000/svg" xmlns:xlink="http://www.w3.org/1999/xlink" x="0px" y="0px"
	 viewBox="0 0 252 144" style="enable-background:new 0 0 252 144;" xml:space="preserve">
<style type="text/css">
	.st0{fill:#846546;}
	.st1{fill:none;stroke:#EAEAEA;stroke-linecap:round;stroke-miterlimit:10;}
	.st2{fill:none;stroke:#846546;stroke-linecap:round;stroke-miterlimit:10;}
</style>
<g>
	<g id="Layer_2_00000070822929132658773790000009018481252455651519_">
		<g id="Layer_3">
			<g>
				<path d="M64.5,81.6h-1.2l-1-0.1V68.1c-0.2,0-0.4,0-0.6,0c-0.1,0-0.3,0.1-0.3,0.2c-0.1,0.1-0.2,0.2-0.2,0.3
					c-0.1,0.1-0.1,0.3-0.1,0.4h-1.2c0-0.6,0.2-1.1,0.6-1.6c0.2-0.2,0.5-0.3,0.8-0.4c0.4-0.1,0.7-0.2,1.1-0.2h5.5
					c1.2,0,2.4,0.4,3.4,1s1.8,1.5,2.4,2.6c0.6,1.2,0.9,2.4,0.9,3.7c0.2,2-0.6,4-2.1,5.4c-1.4,1.2-3.5,1.8-6.3,1.8L64.5,81.6z
					 M71.4,78.9c1.3-1.2,1.9-2.8,1.8-4.5c0-1.1-0.2-2.2-0.7-3.2c-0.4-0.9-1.1-1.7-2-2.2s-1.9-0.8-2.9-0.8h-4v12.2h0.6
					c0.8,0.1,1.4,0.1,1.9,0.1C68,80.6,69.9,80,71.4,78.9z"/>
				<path d="M77.2,69.3c-0.2-0.2-0.3-0.4-0.3-0.6s0.1-0.5,0.3-0.6c0.2-0.2,0.4-0.3,0.6-0.3c0.5,0,0.9,0.4,0.9,0.9l0,0
					c0,0.2-0.1,0.5-0.3,0.6c-0.2,0.2-0.4,0.3-0.6,0.3C77.6,69.6,77.4,69.5,77.2,69.3z M78.8,80.2c0.1,0.1,0.3,0.2,0.5,0.2
					c0.3,0,0.5-0.1,0.6-0.4l0.9,0.7c-0.1,0.3-0.3,0.5-0.6,0.6c-0.3,0.2-0.6,0.3-1,0.2c-0.5,0-1-0.2-1.4-0.5
					c-0.4-0.4-0.6-0.8-0.6-1.4v-8.7h1.3v8.7C78.5,79.9,78.6,80.1,78.8,80.2z"/>
				<path d="M85.5,86.9c-0.5-0.3-0.9-0.7-1.1-1.1c-0.8-1.4-0.5-3.2,0.8-4.2c-1.1-0.3-2-0.9-2.6-1.9c-0.7-1.1-1-2.3-1-3.6
					c0-1,0.2-2,0.7-2.8c0.4-0.8,1.1-1.4,1.8-1.9c0.8-0.5,1.8-0.7,2.7-0.7c0.4,0,0.8,0,1.2,0.1l1.3,0.2h1.2v13c0,0.9-0.3,1.8-0.9,2.5
					c-0.6,0.6-1.5,1-2.3,0.9C86.5,87.3,86,87.2,85.5,86.9z M87.8,79.7c0.4-0.3,0.7-0.6,1-1c0.2-0.3,0.3-0.6,0.4-1V72l-1.9-0.1h-0.7
					c-0.7,0-1.3,0.2-1.9,0.6s-1,0.9-1.3,1.5c-0.4,0.7-0.5,1.4-0.5,2.2c0,0.7,0.1,1.5,0.4,2.1c0.2,0.6,0.6,1.1,1.1,1.6
					c0.4,0.4,1,0.6,1.6,0.6C86.6,80.4,87.3,80.2,87.8,79.7z M88.6,85.5c0.4-0.5,0.5-1.1,0.5-1.7v-4.1c-0.1,0.1-0.2,0.3-0.3,0.4
					c-0.2,0.3-0.4,0.5-0.6,0.7c-0.4,0.3-0.8,0.6-1.2,0.8L86.4,82c-0.7,0.4-1.1,1.2-1.1,2c0,0.5,0.2,1.1,0.6,1.4
					c0.4,0.4,0.9,0.6,1.4,0.6C87.7,86.1,88.2,85.9,88.6,85.5L88.6,85.5z"/>
				<path d="M93.5,69.3c-0.2-0.2-0.3-0.4-0.3-0.6s0.1-0.5,0.3-0.6c0.2-0.2,0.4-0.3,0.6-0.3c0.5,0,0.9,0.4,0.9,0.9l0,0
					c0,0.2-0.1,0.5-0.3,0.6c-0.2,0.2-0.4,0.3-0.6,0.3C93.9,69.6,93.7,69.5,93.5,69.3z M95.1,80.2c0.1,0.1,0.3,0.2,0.5,0.2
					c0.3,0,0.5-0.1,0.6-0.4l0.9,0.7c-0.1,0.3-0.3,0.5-0.6,0.6c-0.3,0.2-0.6,0.3-0.9,0.2c-0.5,0-1-0.2-1.4-0.5
					c-0.4-0.4-0.6-0.9-0.5-1.4v-8.7H95v8.7C94.8,79.9,94.9,80.1,95.1,80.2z"/>
				<path d="M99.3,80.8c-0.5-0.7-0.7-1.6-0.7-2.4V68.3h1.3V71h3.3v1.1h-3.3v6.3c0,1.4,0.5,2.1,1.5,2.1c0.8,0,1.6-0.5,1.8-1.3
					l0.9,0.7c-0.3,0.5-0.7,1-1.1,1.3c-0.5,0.3-1.1,0.5-1.6,0.4C100.6,81.7,99.8,81.4,99.3,80.8z"/>
				<path d="M107.2,80.9c-0.7-0.5-1.2-1.2-1.6-2s-0.5-1.8-0.5-2.7c0-1,0.2-2,0.6-2.9c0.4-0.8,1-1.5,1.8-1.9c0.8-0.5,1.8-0.7,2.8-0.7
					c0.3,0,0.7,0,1.2,0.1s0.9,0.1,1.3,0.1h1.3v8.7c0,0.2,0.1,0.5,0.2,0.6s0.3,0.2,0.5,0.2c0.3,0,0.5-0.1,0.6-0.4l0.9,0.7
					c-0.2,0.3-0.4,0.5-0.7,0.6c-0.3,0.1-0.6,0.2-0.9,0.2c-0.5,0-0.9-0.2-1.3-0.5s-0.6-0.8-0.6-1.2c-0.3,0.5-0.8,1-1.3,1.3
					c-0.6,0.3-1.2,0.4-1.9,0.4C108.8,81.7,107.9,81.4,107.2,80.9z M111.4,80.1c0.5-0.3,0.9-0.7,1.1-1.2c0.2-0.4,0.3-0.9,0.3-1.3V72
					h-1.4h-1.2c-1.1-0.1-2.1,0.3-2.9,1.1c-0.7,0.9-1,2-1,3.1s0.3,2.1,0.9,3c0.5,0.8,1.5,1.3,2.5,1.2
					C110.2,80.5,110.8,80.4,111.4,80.1L111.4,80.1z"/>
				<path d="M119.6,80.2c0.1,0.1,0.3,0.2,0.5,0.2c0.3,0,0.5-0.1,0.6-0.4l0.9,0.7c-0.1,0.3-0.3,0.5-0.6,0.6c-0.3,0.2-0.6,0.3-0.9,0.2
					c-0.5,0-1-0.2-1.4-0.5c-0.4-0.4-0.6-0.8-0.6-1.4V66.2h1.3v13.5C119.3,79.9,119.4,80,119.6,80.2z"/>
				<path d="M133.1,81.6h-1.2l-1-0.1V68.1c-0.2,0-0.4,0-0.6,0c-0.1,0-0.2,0.1-0.3,0.2c-0.2,0.2-0.3,0.5-0.3,0.8h-1.1
					c0-0.6,0.2-1.2,0.6-1.6c0.2-0.2,0.5-0.3,0.7-0.4c0.4-0.1,0.7-0.2,1.1-0.2h5.5c2.5,0,4.7,1.4,5.8,3.6c0.6,1.2,0.9,2.4,0.9,3.7
					c0.2,2-0.6,4-2.1,5.4c-1.4,1.2-3.5,1.8-6.3,1.8L133.1,81.6z M140,78.9c1.3-1.2,1.9-2.8,1.8-4.5c0-1.1-0.2-2.2-0.7-3.2
					c-0.4-0.9-1.1-1.7-2-2.2s-1.9-0.8-2.9-0.8h-4v12.2h0.6c0.8,0.1,1.5,0.1,1.9,0.1C136.6,80.5,138.5,80,140,78.9z"/>
				<path d="M147.4,81c-0.7-0.4-1.3-1-1.6-1.8c-0.4-0.8-0.6-1.7-0.6-2.6s0.2-1.9,0.5-2.8c0.3-0.9,0.9-1.6,1.6-2.2
					c0.8-0.6,1.7-0.9,2.6-0.9c0.7,0,1.3,0.1,1.9,0.4c0.6,0.2,1,0.6,1.4,1.1c0.3,0.5,0.5,1.1,0.5,1.7c0,1-0.5,1.9-1.3,2.4
					c-1.1,0.6-2.4,0.9-3.6,0.8h-2.3c0.1,0.9,0.4,1.8,1.1,2.5c0.7,0.6,1.6,0.9,2.5,0.8c1.2,0,2.4-0.4,3.3-1.1l0.6,0.8
					c-0.5,0.4-1.2,0.8-1.8,1c-0.7,0.2-1.4,0.4-2.1,0.4C149.1,81.7,148.2,81.5,147.4,81z M152.5,74c0-0.6-0.2-1.2-0.7-1.6
					s-1.1-0.5-1.8-0.5c-0.7,0-1.4,0.2-2,0.7c-0.5,0.4-0.9,1-1.2,1.7c-0.3,0.6-0.4,1.3-0.4,1.9h2.6C151.3,76.2,152.5,75.4,152.5,74
					L152.5,74z"/>
				<path d="M155.4,80.1l0.7-0.8c0.5,0.4,1,0.7,1.6,1c0.5,0.2,1.1,0.4,1.7,0.3c0.6,0,1.3-0.2,1.8-0.5c0.4-0.4,0.7-0.9,0.6-1.5
					c0-0.4-0.1-0.7-0.3-1c-0.2-0.3-0.5-0.5-0.8-0.6c-0.3-0.2-0.9-0.4-1.7-0.7c-0.8-0.3-1.3-0.6-1.7-0.8c-0.4-0.2-0.7-0.5-1-0.8
					c-0.2-0.4-0.4-0.8-0.4-1.2c0-0.8,0.3-1.5,0.9-2c0.7-0.5,1.5-0.8,2.4-0.7c0.5,0,1,0.1,1.5,0.2s0.9,0.3,1.3,0.6l-0.5,0.9
					c-0.7-0.4-1.4-0.6-2.2-0.6c-0.5,0-1,0.1-1.5,0.4c-0.3,0.2-0.5,0.6-0.5,1.1c0,0.3,0.1,0.6,0.3,0.9c0.2,0.2,0.5,0.4,0.7,0.6
					c0.3,0.2,0.8,0.4,1.5,0.6c0.6,0.2,1.3,0.5,1.9,0.9c0.4,0.3,0.7,0.6,1,1c0.3,0.4,0.4,0.9,0.4,1.4c0,0.9-0.3,1.7-1,2.3
					c-0.8,0.6-1.7,0.9-2.7,0.9C157.8,81.7,156.4,81.1,155.4,80.1z"/>
				<path d="M165.2,69.3c-0.2-0.2-0.3-0.4-0.3-0.6s0.1-0.5,0.3-0.6c0.2-0.2,0.4-0.3,0.6-0.3c0.5,0,0.9,0.4,0.9,0.9l0,0
					c0,0.2-0.1,0.5-0.3,0.6c-0.2,0.2-0.4,0.3-0.6,0.3C165.5,69.6,165.3,69.5,165.2,69.3z M166.7,80.2c0.1,0.1,0.3,0.2,0.5,0.2
					c0.3,0,0.5-0.1,0.6-0.4l0.9,0.7c-0.1,0.3-0.3,0.5-0.6,0.6c-0.3,0.2-0.6,0.3-0.9,0.2c-0.5,0-1-0.2-1.4-0.5
					c-0.4-0.4-0.6-0.9-0.5-1.4v-8.7h1.3v8.7C166.5,79.9,166.5,80.1,166.7,80.2L166.7,80.2z"/>
				<path d="M173.4,86.9c-0.5-0.3-0.9-0.7-1.2-1.1c-0.8-1.4-0.4-3.2,0.8-4.2c-1.1-0.3-2-0.9-2.6-1.9c-0.7-1.1-1-2.3-1-3.6
					c0-1,0.2-2,0.6-2.8s1.1-1.5,1.8-1.9c0.8-0.5,1.8-0.7,2.7-0.7c0.4,0,0.8,0,1.1,0.1l1.3,0.2h1.2v13c0,0.9-0.3,1.8-0.9,2.5
					c-0.6,0.6-1.5,1-2.4,0.9C174.5,87.3,173.9,87.2,173.4,86.9z M175.7,79.7c0.4-0.3,0.7-0.6,1-1c0.2-0.3,0.3-0.6,0.4-1V72l-1.9-0.1
					h-0.7c-0.7,0-1.3,0.2-1.9,0.6s-1,0.9-1.3,1.5c-0.3,0.7-0.5,1.4-0.5,2.2c0,0.7,0.1,1.5,0.4,2.1c0.2,0.6,0.6,1.1,1.1,1.6
					c0.4,0.4,1,0.6,1.6,0.6C174.5,80.4,175.2,80.2,175.7,79.7z M176.5,85.5c0.4-0.5,0.6-1.1,0.5-1.7v-4.1c0,0-0.1,0.2-0.3,0.4
					c-0.2,0.3-0.4,0.5-0.6,0.7c-0.4,0.3-0.8,0.6-1.2,0.8l-0.6,0.4c-0.7,0.4-1.1,1.2-1.1,2c0,0.5,0.2,1,0.6,1.4s0.9,0.6,1.4,0.6
					C175.7,86.1,176.2,85.9,176.5,85.5z"/>
				<path d="M192.1,80.7c-0.1,0.3-0.3,0.5-0.6,0.6c-0.3,0.2-0.6,0.3-0.9,0.2c-0.5,0-1-0.2-1.4-0.5c-0.4-0.4-0.6-0.8-0.6-1.4v-5.3
					c0-1.7-0.8-2.5-2.3-2.5c-0.6,0-1.3,0.2-1.8,0.5c-0.6,0.5-1.1,1-1.6,1.6v7.4h-1.2v-7.4c0.1-0.9-0.2-1.8-0.9-2.4l0.8-0.8
					c0.3,0.2,0.5,0.4,0.7,0.7c0.2,0.3,0.4,0.6,0.5,1c0.4-0.6,1-1.1,1.6-1.4s1.3-0.4,2-0.4c0.9,0,1.8,0.2,2.4,0.8
					c0.6,0.6,1,1.4,1,2.3v5.8c0,0.2,0.1,0.4,0.2,0.5s0.3,0.2,0.5,0.2c0.3,0,0.5-0.1,0.6-0.4L192.1,80.7z"/>
			</g>
		</g>
	</g>
	<g>
		<g>
			<path class="st0" d="M113.9,49.5L116,59c0.1,0.5,0.8,1.1,1.5,1.1h17c0.7,0,1.3-0.4,1.5-1.1l2.1-9.6c0.1-0.8-0.5-1.5-1.5-1.5
				h-21.3C114.4,48,113.8,48.7,113.9,49.5z"/>
			<g>
				<g>
					<line class="st1" x1="113.6" y1="48" x2="122.4" y2="60.8"/>
					<line class="st1" x1="119.5" y1="47.3" x2="129.3" y2="60.8"/>
					<line class="st1" x1="125.9" y1="47.3" x2="136" y2="60.1"/>
					<line class="st1" x1="132.3" y1="47.3" x2="137.4" y2="53.7"/>
				</g>
				<g>
					<line class="st1" x1="138.1" y1="48" x2="129.3" y2="60.8"/>
					<line class="st1" x1="132.3" y1="47.3" x2="122.4" y2="60.8"/>
					<line class="st1" x1="125.9" y1="47.3" x2="116" y2="60.1"/>
					<line class="st1" x1="119.5" y1="47.3" x2="114.3" y2="53.7"/>
				</g>
			</g>
		</g>
		<line class="st2" x1="119.2" y1="45.1" x2="124.8" y2="40.1"/>
		<line class="st2" x1="132.8" y1="45.1" x2="127.2" y2="40.1"/>
		<line class="st2" x1="113.4" y1="46.8" x2="138.6" y2="46.8"/>
	</g>
</g>
</svg>
