<svg xmlns="http://www.w3.org/2000/svg" viewBox="0 0 252 144"><defs><style>.cls-1{fill:#eaeaea;}.cls-2{fill:#fff;}.cls-2,.cls-3{stroke:#fff;stroke-miterlimit:10;stroke-width:0.5px;}.cls-3{fill:#97ea75;}.cls-4{fill:#17ffa0;opacity:0.47;}.cls-5{fill:#32c682;opacity:0.34;}</style></defs><g id="Layer_2" data-name="Layer 2"><g id="Layer_1-2" data-name="Layer 1"><rect class="cls-1" width="252" height="144"/><ellipse class="cls-2" cx="152.73" cy="87.5" rx="2.37" ry="4.85" transform="translate(-21.14 114.92) rotate(-38.77)"/><line class="cls-3" x1="149.63" y1="82.36" x2="149.35" y2="80.85"/><line class="cls-3" x1="148.34" y1="83.47" x2="146.86" y2="82.84"/><ellipse class="cls-2" cx="146.58" cy="82.72" rx="0.32" ry="0.31" transform="translate(-19.5 110.02) rotate(-38.77)"/><ellipse class="cls-2" cx="149.29" cy="80.54" rx="0.32" ry="0.31" transform="translate(-17.54 111.24) rotate(-38.77)"/><ellipse class="cls-2" cx="149.91" cy="83.99" rx="1.69" ry="1.64" transform="translate(-19.57 112.39) rotate(-38.77)"/><path class="cls-4" d="M152.28,85.6,151,84.05c-.38-.47-.05-1.36.72-2l0,0a7.67,7.67,0,0,1,3.42-1.62h0c1.2-.2,1.83.61,1.34,1.74h0a8.53,8.53,0,0,1-2.53,3.2h0C153.36,85.89,152.59,86,152.28,85.6Z"/><path class="cls-5" d="M152,85.36l-.31-1.78c-.1-.54.42-1.09,1.15-1.24h0a4.93,4.93,0,0,1,2.85.24h0a1.12,1.12,0,0,1,.31,2h0A5.63,5.63,0,0,1,153.24,86h0A1,1,0,0,1,152,85.36Z"/><path class="cls-4" d="M151,86.62l-1.24-1.55c-.38-.47-1.32-.35-2.09.27h0a7.69,7.69,0,0,0-2.33,3h0c-.45,1.13.21,1.91,1.42,1.68h0a8.68,8.68,0,0,0,3.67-1.78h0C151.06,87.73,151.32,87,151,86.62Z"/><path class="cls-5" d="M150.83,86.31l-1.67-.69a1.24,1.24,0,0,0-1.46.86h0a4.89,4.89,0,0,0-.38,2.83h0a1.12,1.12,0,0,0,1.86.73h0a5.66,5.66,0,0,0,2-2.41h0C151.38,87.07,151.25,86.48,150.83,86.31Z"/><ellipse class="cls-2" cx="76.81" cy="60.95" rx="2.25" ry="4.61" transform="matrix(0.91, -0.42, 0.42, 0.91, -18.44, 37.64)"/><line class="cls-3" x1="75.14" y1="55.49" x2="75.23" y2="54.03"/><line class="cls-3" x1="73.7" y1="56.21" x2="72.48" y2="55.29"/><ellipse class="cls-2" cx="72.24" cy="55.11" rx="0.3" ry="0.29" transform="translate(-16.41 35.2) rotate(-24.68)"/><ellipse class="cls-2" cx="75.25" cy="53.73" rx="0.3" ry="0.29" transform="translate(-15.56 36.33) rotate(-24.68)"/><ellipse class="cls-2" cx="75.02" cy="57.06" rx="1.61" ry="1.56" transform="translate(-16.97 36.54) rotate(-24.68)"/><path class="cls-4" d="M76.84,59.09l-.79-1.72c-.24-.52.26-1.26,1.12-1.66h0a7.29,7.29,0,0,1,3.53-.7h0c1.16.09,1.55,1,.84,1.92h0a8.27,8.27,0,0,1-3.08,2.36h0C77.77,59.61,77,59.52,76.84,59.09Z"/><path class="cls-5" d="M76.64,58.81l.13-1.71c0-.52.64-.92,1.35-.88h0a4.66,4.66,0,0,1,2.57.87h0a1.08,1.08,0,0,1-.17,1.9h0a5.57,5.57,0,0,1-2.9.65h0C77.06,59.61,76.61,59.24,76.64,58.81Z"/><path class="cls-4" d="M75.43,59.74,74.64,58c-.24-.52-1.13-.63-2-.23h0A7.29,7.29,0,0,0,69.79,60h0c-.68.94-.25,1.81.92,1.88h0a8.23,8.23,0,0,0,3.8-.79h0C75.22,60.78,75.63,60.17,75.43,59.74Z"/><path class="cls-5" d="M75.34,59.41l-1.38-1a1.19,1.19,0,0,0-1.55.45h0a4.64,4.64,0,0,0-1,2.53h0a1.07,1.07,0,0,0,1.55,1.1h0a5.4,5.4,0,0,0,2.37-1.77h0A.93.93,0,0,0,75.34,59.41Z"/><path d="M68.64,68.19H69.9V81.38h7.29v1.18H68.64Z"/><path d="M80.68,82.07a4.75,4.75,0,0,1-1.81-1.93,5.89,5.89,0,0,1-.66-2.81,6,6,0,0,1,.67-2.83,5,5,0,0,1,1.82-2,5.37,5.37,0,0,1,5.3,0,5,5,0,0,1,1.82,1.94,6.33,6.33,0,0,1,0,5.63A4.93,4.93,0,0,1,86,82.06a5.06,5.06,0,0,1-2.66.71A5.13,5.13,0,0,1,80.68,82.07Zm5.48-1.64a4.51,4.51,0,0,0,1.06-3.12,5,5,0,0,0-.48-2.26,3.65,3.65,0,0,0-1.36-1.52,3.71,3.71,0,0,0-2-.55,3.76,3.76,0,0,0-2,.55A3.53,3.53,0,0,0,80,75.07a5.14,5.14,0,0,0-.48,2.26A5,5,0,0,0,80,79.56a3.67,3.67,0,0,0,1.36,1.53,3.84,3.84,0,0,0,2,.54A3.54,3.54,0,0,0,86.16,80.43Z"/><path d="M94.34,88a3.14,3.14,0,0,1-1.57-2.76A3.21,3.21,0,0,1,94,82.66a4.25,4.25,0,0,1-2.61-1.88,6.33,6.33,0,0,1-1-3.56A5.94,5.94,0,0,1,91,74.39a4.71,4.71,0,0,1,1.84-1.89,5.46,5.46,0,0,1,2.74-.68,7.3,7.3,0,0,1,1.16.07L98,72h1.19V85a3.45,3.45,0,0,1-.89,2.48,3.06,3.06,0,0,1-2.34,1A3.31,3.31,0,0,1,94.34,88Zm2.27-7.17a4.24,4.24,0,0,0,1-1,1.94,1.94,0,0,0,.36-1V73.15L96,73h-.69a3.41,3.41,0,0,0-1.9.56,3.75,3.75,0,0,0-1.33,1.53,4.78,4.78,0,0,0-.49,2.2A5.33,5.33,0,0,0,92,79.46,3.86,3.86,0,0,0,93.17,81a2.42,2.42,0,0,0,1.55.57A3,3,0,0,0,96.61,80.83Zm.79,5.78a2.65,2.65,0,0,0,.53-1.68V80.85s-.13.18-.3.44A3.63,3.63,0,0,1,97,82a7.41,7.41,0,0,1-1.2.8,7.4,7.4,0,0,0-.65.4,2.26,2.26,0,0,0-1.09,2,1.89,1.89,0,0,0,.58,1.41,1.92,1.92,0,0,0,1.41.57A1.67,1.67,0,0,0,97.4,86.61Z"/><path d="M104.31,82.07a4.71,4.71,0,0,1-1.82-1.93,6.4,6.4,0,0,1,0-5.64,4.92,4.92,0,0,1,1.83-2,5.07,5.07,0,0,1,7.12,1.94,6.33,6.33,0,0,1,0,5.63,4.89,4.89,0,0,1-1.83,1.94,5,5,0,0,1-2.66.71A5.09,5.09,0,0,1,104.31,82.07Zm5.48-1.64a4.55,4.55,0,0,0,1.06-3.12,5,5,0,0,0-.48-2.26A3.67,3.67,0,0,0,107,73a3.72,3.72,0,0,0-2,.55,3.55,3.55,0,0,0-1.37,1.54,5.14,5.14,0,0,0-.48,2.26,5,5,0,0,0,.48,2.23A3.7,3.7,0,0,0,105,81.09a3.8,3.8,0,0,0,2,.54A3.57,3.57,0,0,0,109.79,80.43Z"/><path d="M124.32,82.7l-1.23,0-1-.1V69.24a3.06,3.06,0,0,0-.62.05.9.9,0,0,0-.34.2,1,1,0,0,0-.22.35,1,1,0,0,0-.1.41l-1.15,0a2.32,2.32,0,0,1,.63-1.58,2,2,0,0,1,.74-.43,4,4,0,0,1,1.09-.15l5.5,0a6.65,6.65,0,0,1,3.44,1,6.51,6.51,0,0,1,2.36,2.62,8,8,0,0,1,.85,3.74,6.85,6.85,0,0,1-2.11,5.45q-2.1,1.83-6.29,1.83C125.37,82.72,124.85,82.72,124.32,82.7ZM131.21,80A5.62,5.62,0,0,0,133,75.46a7.13,7.13,0,0,0-.7-3.25,5.31,5.31,0,0,0-2-2.17,5.51,5.51,0,0,0-2.93-.78h-4.06V81.44l.63,0c.82.06,1.46.09,1.94.09A7.89,7.89,0,0,0,131.21,80Z"/><path d="M138.59,82.11a4.14,4.14,0,0,1-1.65-1.79,5.86,5.86,0,0,1-.56-2.59,7.4,7.4,0,0,1,.54-2.78,5.28,5.28,0,0,1,1.62-2.2,4.06,4.06,0,0,1,2.63-.86,4.48,4.48,0,0,1,1.91.4,3.27,3.27,0,0,1,1.4,1.13,2.92,2.92,0,0,1,.51,1.7,2.71,2.71,0,0,1-1.32,2.41,6.69,6.69,0,0,1-3.65.83l-2.31,0a3.81,3.81,0,0,0,1.08,2.46,3.46,3.46,0,0,0,2.47.84,5.35,5.35,0,0,0,3.31-1.07l.63.84a6.48,6.48,0,0,1-1.81,1,6.36,6.36,0,0,1-2.13.37A5.08,5.08,0,0,1,138.59,82.11Zm5.14-7a1.78,1.78,0,0,0-.72-1.56,2.92,2.92,0,0,0-1.77-.52,3,3,0,0,0-2,.67A4.18,4.18,0,0,0,138,75.35a5.24,5.24,0,0,0-.4,1.91h2.65C142.59,77.26,143.73,76.54,143.73,75.1Z"/><path d="M146.59,81.17l.69-.84a7,7,0,0,0,1.59,1,4.15,4.15,0,0,0,1.69.34,2.65,2.65,0,0,0,1.77-.53,1.81,1.81,0,0,0,.64-1.46,1.54,1.54,0,0,0-.28-1,2.2,2.2,0,0,0-.76-.6c-.31-.15-.87-.39-1.69-.73a17.7,17.7,0,0,1-1.72-.8,2.79,2.79,0,0,1-1-.83,2.06,2.06,0,0,1-.36-1.25,2.46,2.46,0,0,1,.88-2,3.51,3.51,0,0,1,2.35-.75,5.43,5.43,0,0,1,1.5.21,4,4,0,0,1,1.28.61l-.53.9a4.11,4.11,0,0,0-2.18-.58,2.56,2.56,0,0,0-1.5.37,1.25,1.25,0,0,0-.52,1.08,1.29,1.29,0,0,0,.28.86,2.2,2.2,0,0,0,.74.55c.3.15.8.36,1.5.64a17.27,17.27,0,0,1,1.86.87,3.16,3.16,0,0,1,1,.95,2.49,2.49,0,0,1,.36,1.38,2.9,2.9,0,0,1-1,2.32,4,4,0,0,1-2.7.87A5.82,5.82,0,0,1,146.59,81.17Z"/><path d="M156.41,70.43a.84.84,0,0,1-.27-.62.85.85,0,0,1,.27-.64.82.82,0,0,1,.62-.26.86.86,0,0,1,.64.26.88.88,0,0,1,.26.64.87.87,0,0,1-.26.62.9.9,0,0,1-.64.26A.85.85,0,0,1,156.41,70.43Zm1.51,10.86a.64.64,0,0,0,.47.19.63.63,0,0,0,.61-.35l.92.69a1.34,1.34,0,0,1-.58.6,2.05,2.05,0,0,1-2.33-.28,1.8,1.8,0,0,1-.55-1.37V72.06h1.26v8.73A.7.7,0,0,0,157.92,81.29Z"/><path d="M164.67,88a3.29,3.29,0,0,1-.38-5.34,4.2,4.2,0,0,1-2.61-1.88,6.25,6.25,0,0,1-1-3.56,5.94,5.94,0,0,1,.65-2.83,4.71,4.71,0,0,1,1.84-1.89,5.43,5.43,0,0,1,2.74-.68,7.06,7.06,0,0,1,1.15.07l1.26.14h1.2V85a3.49,3.49,0,0,1-.89,2.48,3.09,3.09,0,0,1-2.34,1A3.31,3.31,0,0,1,164.67,88Zm2.27-7.17a4,4,0,0,0,.95-1,1.88,1.88,0,0,0,.37-1V73.15L166.35,73h-.69a3.39,3.39,0,0,0-1.9.56,3.84,3.84,0,0,0-1.34,1.53,4.9,4.9,0,0,0-.48,2.2,5.33,5.33,0,0,0,.42,2.13A3.94,3.94,0,0,0,163.49,81a2.46,2.46,0,0,0,1.56.57A3,3,0,0,0,166.94,80.83Zm.79,5.78a2.71,2.71,0,0,0,.53-1.68V80.85s-.13.18-.3.44a3.63,3.63,0,0,1-.62.68,7.41,7.41,0,0,1-1.2.8,7.4,7.4,0,0,0-.65.4,2.26,2.26,0,0,0-1.09,2,1.89,1.89,0,0,0,.58,1.41,1.92,1.92,0,0,0,1.41.57A1.67,1.67,0,0,0,167.73,86.61Z"/><path d="M183.36,81.82a1.36,1.36,0,0,1-.59.6,1.85,1.85,0,0,1-.94.24,1.93,1.93,0,0,1-1.39-.52,1.83,1.83,0,0,1-.54-1.37V75.5c0-1.68-.76-2.52-2.27-2.52a3,3,0,0,0-1.83.54,7.21,7.21,0,0,0-1.55,1.6v7.44H173V75.18a3.08,3.08,0,0,0-.89-2.43l.84-.84a2.44,2.44,0,0,1,.73.71,3.25,3.25,0,0,1,.49,1,4.46,4.46,0,0,1,1.59-1.39,4.37,4.37,0,0,1,2-.43,3.61,3.61,0,0,1,2.44.78,3.19,3.19,0,0,1,1,2.32v5.84a.69.69,0,0,0,.19.5.68.68,0,0,0,.48.19.64.64,0,0,0,.61-.35Z"/><ellipse class="cls-2" cx="112.42" cy="82.43" rx="1.56" ry="3.2" transform="translate(-3.92 159.23) rotate(-69.68)"/><line class="cls-3" x1="108.93" y1="80.57" x2="108.25" y2="79.81"/><line class="cls-3" x1="108.57" y1="81.63" x2="107.52" y2="81.78"/><ellipse class="cls-2" cx="107.32" cy="81.81" rx="0.21" ry="0.2" transform="translate(-6.66 154.05) rotate(-69.68)"/><ellipse class="cls-2" cx="108.12" cy="79.66" rx="0.21" ry="0.2" transform="translate(-4.13 153.39) rotate(-69.68)"/><ellipse class="cls-2" cx="109.64" cy="81.4" rx="1.12" ry="1.08" transform="translate(-4.77 155.95) rotate(-69.68)"/><path class="cls-4" d="M111.52,81.51l-1.23-.46c-.37-.14-.49-.75-.26-1.36v0a5.12,5.12,0,0,1,1.39-2.08h0c.61-.52,1.24-.27,1.35.54h0a5.78,5.78,0,0,1-.35,2.67h0C112.23,81.3,111.83,81.62,111.52,81.51Z"/><path class="cls-5" d="M111.29,81.46l-.78-.9a.82.82,0,0,1,.23-1.09h0a3.24,3.24,0,0,1,1.69-.83h0a.74.74,0,0,1,.84,1h0a3.71,3.71,0,0,1-1.1,1.74h0A.63.63,0,0,1,111.29,81.46Z"/><path class="cls-4" d="M111.15,82.51l-1.23-.45c-.37-.14-.86.24-1.09.86h0a5,5,0,0,0-.31,2.48h0c.13.8.77,1,1.37.48h0a5.71,5.71,0,0,0,1.48-2.26h0C111.55,83.13,111.46,82.62,111.15,82.51Z"/><path class="cls-5" d="M110.94,82.4l-1.17.17a.83.83,0,0,0-.54,1h0A3.24,3.24,0,0,0,110,85.3h0a.74.74,0,0,0,1.3-.22h0a3.73,3.73,0,0,0,.29-2h0C111.51,82.64,111.23,82.35,110.94,82.4Z"/></g></g></svg>