<svg xmlns="http://www.w3.org/2000/svg" viewBox="0 0 252 144"><defs><style>.cls-1{fill:#eaeaea;}.cls-2{fill:#fff;}.cls-3{fill:#23d1e4;}.cls-4{fill:#2b2927;}.cls-5,.cls-6{fill:none;}.cls-5{stroke:#23d1e4;}.cls-6{stroke:#fff;stroke-linecap:round;stroke-miterlimit:4;stroke-width:0.75px;}</style></defs><g id="Layer_2" data-name="Layer 2"><g id="Layer_2-2" data-name="Layer 2"><rect class="cls-1" width="252" height="144"/><path d="M75.38,78.93a6.56,6.56,0,0,1-5.1-1.86q-1.71-1.86-1.71-5.56V58.91h1.81V71.12a7,7,0,0,0,1.24,4.53,5.46,5.46,0,0,0,7.5,0,7,7,0,0,0,1.24-4.53V58.91h1.82v12.6a8,8,0,0,1-1.7,5.56A6.59,6.59,0,0,1,75.38,78.93Z"/><path d="M88.29,78.55V58.91H90.1V78.55Z"/><path d="M102.62,78.55V58.91h4.43a10,10,0,0,1,3.89.75,9.64,9.64,0,0,1,3.15,2.09,9.47,9.47,0,0,1,2.1,3.13,9.7,9.7,0,0,1,.76,3.86,9.91,9.91,0,0,1-.75,3.86,9.58,9.58,0,0,1-5.26,5.2,10,10,0,0,1-3.89.75Zm1.81-1.62h2.45a8.13,8.13,0,0,0,3.21-.63,7.82,7.82,0,0,0,2.6-1.74,8,8,0,0,0,1.74-2.6,8.86,8.86,0,0,0,0-6.46,8.05,8.05,0,0,0-7.55-5h-2.45Z"/><path d="M127.18,78.93a6.83,6.83,0,0,1-3.42-.85,6.21,6.21,0,0,1-2.36-2.3,6.37,6.37,0,0,1-.86-3.28A6.55,6.55,0,0,1,121,70a6.38,6.38,0,0,1,1.37-2.08,6.26,6.26,0,0,1,2-1.39A6.12,6.12,0,0,1,127,66a6.48,6.48,0,0,1,3.22.79A5.91,5.91,0,0,1,132.4,69a6.53,6.53,0,0,1,.88,3.22,1.55,1.55,0,0,1,0,.23,1,1,0,0,1,0,.22h-11a4.87,4.87,0,0,0,.64,2.52,4.57,4.57,0,0,0,1.77,1.72,5.19,5.19,0,0,0,2.58.63,5.33,5.33,0,0,0,2.48-.58,5.2,5.2,0,0,0,1.84-1.66l1.28.69a6,6,0,0,1-2.36,2.2A7,7,0,0,1,127.18,78.93Zm-4.82-7.62h9.18a4.33,4.33,0,0,0-.8-2A4.61,4.61,0,0,0,127,67.42a4.82,4.82,0,0,0-2.19.49,4.35,4.35,0,0,0-2.42,3.4Z"/><path d="M140.43,78.93A4.76,4.76,0,0,1,136,76.12l.93-1a4.63,4.63,0,0,0,1.48,1.81,3.4,3.4,0,0,0,2,.65,3,3,0,0,0,1.37-.31,2.44,2.44,0,0,0,1-.88,2.5,2.5,0,0,0,.38-1.38,1.74,1.74,0,0,0-.35-1.14,2.85,2.85,0,0,0-1-.72c-.44-.2-1-.43-1.67-.69a14.55,14.55,0,0,1-1.5-.7,3.73,3.73,0,0,1-1.19-1,2.37,2.37,0,0,1-.47-1.53,2.82,2.82,0,0,1,.5-1.67,3.36,3.36,0,0,1,1.38-1.16,4.56,4.56,0,0,1,2-.42,4.36,4.36,0,0,1,1.92.44,5.16,5.16,0,0,1,1.61,1.25l-.8,1a3.31,3.31,0,0,0-2.72-1.44,2.51,2.51,0,0,0-1.63.52,1.72,1.72,0,0,0-.62,1.37,1.41,1.41,0,0,0,.39,1,3.7,3.7,0,0,0,1,.69c.42.19.88.38,1.37.57a18.27,18.27,0,0,1,1.87.81,3.23,3.23,0,0,1,1.23,1,2.9,2.9,0,0,1,.44,1.69,3.84,3.84,0,0,1-.57,2.12,3.67,3.67,0,0,1-1.59,1.37A5.29,5.29,0,0,1,140.43,78.93Z"/><path d="M149.92,63.92a1,1,0,0,1-.57-.16,1.12,1.12,0,0,1-.56-1,1.1,1.1,0,0,1,.15-.57,1.15,1.15,0,0,1,.41-.41,1.16,1.16,0,0,1,1.14,0,1.21,1.21,0,0,1,.41.4,1,1,0,0,1,.16.56,1.09,1.09,0,0,1-.16.59,1.15,1.15,0,0,1-.41.41A1,1,0,0,1,149.92,63.92Zm-.87,14.63V66.36h1.74V78.55Z"/><path d="M161.31,85.09a7.88,7.88,0,0,1-3.91-.9A5.64,5.64,0,0,1,155,81.55l1.47-.68a4.25,4.25,0,0,0,1.85,2,5.82,5.82,0,0,0,3,.75,5.46,5.46,0,0,0,2.49-.56,4.26,4.26,0,0,0,1.74-1.6,4.77,4.77,0,0,0,.63-2.51V76a5.54,5.54,0,0,1-2.08,2.16,5.66,5.66,0,0,1-3,.79,5.79,5.79,0,0,1-3.08-.84,6,6,0,0,1-2.18-2.29,6.91,6.91,0,0,1-.8-3.35,6.82,6.82,0,0,1,.8-3.32A6,6,0,0,1,158,66.82a6.13,6.13,0,0,1,6.07-.07,5.44,5.44,0,0,1,2.06,2.14V66.36h1.74V78.88a6.67,6.67,0,0,1-.8,3.41,5.11,5.11,0,0,1-2.27,2.09A8,8,0,0,1,161.31,85.09Zm.23-7.67a4.67,4.67,0,0,0,2.44-.64A4.49,4.49,0,0,0,165.65,75a5.7,5.7,0,0,0,0-5.13A4.43,4.43,0,0,0,164,68.13a4.65,4.65,0,0,0-6.52,1.76,5.7,5.7,0,0,0,0,5.13,4.47,4.47,0,0,0,1.66,1.76A4.68,4.68,0,0,0,161.54,77.42Z"/><path d="M173,78.55V66.36h1.74V68a4.08,4.08,0,0,1,1.54-1.45,5.21,5.21,0,0,1,2.56-.59,4.82,4.82,0,0,1,2.44.58,3.76,3.76,0,0,1,1.57,1.7,5.93,5.93,0,0,1,.55,2.68v7.61h-1.74V71.27a4.19,4.19,0,0,0-.88-2.88,3.14,3.14,0,0,0-2.48-1,3.78,3.78,0,0,0-1.91.45A3.15,3.15,0,0,0,175.2,69a3.06,3.06,0,0,0-.43,1.59v7.94Z"/><g id="ON_slider" data-name="ON slider"><path id="Rectangle_14-2" data-name="Rectangle 14-2" class="cls-2" d="M53.65,57.83h7a3.81,3.81,0,0,1,3.81,3.81h0a3.82,3.82,0,0,1-3.81,3.81h-7a3.81,3.81,0,0,1-3.81-3.81h0A3.8,3.8,0,0,1,53.65,57.83Z"/><ellipse id="Ellipse_2-2" data-name="Ellipse 2-2" class="cls-3" cx="60.7" cy="61.64" rx="3.25" ry="3.18"/><path id="ON" class="cls-4" d="M51.86,61.78a1.18,1.18,0,0,1,.14-.55,1,1,0,0,1,.4-.4,1.08,1.08,0,0,1,1.1,0,1,1,0,0,1,.4.39,1.08,1.08,0,0,1,.15.55,1.15,1.15,0,0,1-.14.55,1.1,1.1,0,0,1-.4.4,1,1,0,0,1-.55.14.94.94,0,0,1-.55-.14,1,1,0,0,1-.4-.39A1.08,1.08,0,0,1,51.86,61.78Zm2,0a.85.85,0,0,0-.26-.63.84.84,0,0,0-.62-.25.77.77,0,0,0-.62.26.81.81,0,0,0-.25.63.84.84,0,0,0,.25.63.87.87,0,0,0,.63.25.82.82,0,0,0,.62-.25.85.85,0,0,0,.25-.64Zm.64,1V60.74h0l1.38,1.59V60.74h.21v2.07h-.05l-1.37-1.57v1.57Z"/></g><g id="OFF_slider" data-name="OFF slider"><path id="Rectangle_15-2" data-name="Rectangle 15-2" class="cls-3" d="M53.43,70.55h7a3.81,3.81,0,0,1,3.81,3.8h0a3.81,3.81,0,0,1-3.81,3.81h-7a3.8,3.8,0,0,1-3.81-3.81h0A3.8,3.8,0,0,1,53.43,70.55Z"/><circle id="Ellipse_3-2" data-name="Ellipse 3-2" class="cls-2" cx="53.43" cy="74.35" r="3.18"/><path id="OFF" class="cls-2" d="M57.73,74.5a1.11,1.11,0,0,1,.55-1,1.11,1.11,0,0,1,.54-.14,1.19,1.19,0,0,1,.56.14,1,1,0,0,1,.4.4,1.08,1.08,0,0,1,0,1.1,1.1,1.1,0,0,1-.4.4,1.12,1.12,0,0,1-.55.14,1.18,1.18,0,0,1-.55-.14,1.11,1.11,0,0,1-.55-.94Zm2,0a.88.88,0,0,0-.26-.63.88.88,0,0,0-1.25,0,.93.93,0,0,0-.25.63.89.89,0,0,0,.88.89.89.89,0,0,0,.62-.25.86.86,0,0,0,.26-.64Zm.63-1h1v.21h-.83v.64h.83v.21h-.83v1h-.21Zm1.4,0h1v.21H62v.64h.83v.21H62v1h-.21Z"/></g><g id="Group_25" data-name="Group 25"><g id="Rectangle_13" data-name="Rectangle 13"><rect class="cls-3" x="188.21" y="71.11" width="7.18" height="7.06" rx="1.91"/><rect class="cls-5" x="188.27" y="71.17" width="7.06" height="6.94" rx="1.85"/></g><g id="checkmark"><line id="Line_1" data-name="Line 1" class="cls-6" x1="190.11" y1="74.69" x2="191.37" y2="75.72"/><g id="Group_21" data-name="Group 21"><line id="Line_2" data-name="Line 2" class="cls-6" x1="193.45" y1="73.61" x2="191.37" y2="75.72"/></g></g></g></g></g></svg>