<?xml version="1.0" encoding="utf-8"?>
<!-- Generator: Adobe Illustrator 25.4.1, SVG Export Plug-In . SVG Version: 6.00 Build 0)  -->
<svg version="1.1" id="Layer_1" xmlns="http://www.w3.org/2000/svg" xmlns:xlink="http://www.w3.org/1999/xlink" x="0px" y="0px"
	 viewBox="0 0 252 144" style="enable-background:new 0 0 252 144;" xml:space="preserve">
<style type="text/css">
	.st0{fill:#FFFFFF;}
	.st1{fill:#23D1E4;}
	.st2{fill:#2B2927;}
	.st3{fill:none;stroke:#23D1E4;}
	.st4{fill:none;stroke:#FFFFFF;stroke-width:0.75;stroke-linecap:round;}
</style>
<g id="Layer_2_00000007386277148248615120000004774041641420450467_">
	<g id="Layer_2-2">
		<g id="ON_slider">
			<path id="Rectangle_14-2" class="st0" d="M72.2,63.8h5.2c1.6,0,2.8,1.3,2.8,2.8l0,0c0,1.6-1.3,2.8-2.8,2.8h-5.2
				c-1.6,0-2.8-1.3-2.8-2.8l0,0C69.4,65.1,70.6,63.8,72.2,63.8L72.2,63.8z"/>
			<ellipse id="Ellipse_2-2" class="st1" cx="77.5" cy="66.7" rx="2.4" ry="2.4"/>
			<path id="ON" class="st2" d="M70.9,66.8c0-0.1,0-0.3,0.1-0.4c0.1-0.1,0.2-0.2,0.3-0.3c0.1-0.1,0.3-0.1,0.4-0.1
				c0.1,0,0.3,0,0.4,0.1c0.1,0.1,0.2,0.2,0.3,0.3c0.1,0.1,0.1,0.3,0.1,0.4c0,0.1,0,0.3-0.1,0.4c-0.1,0.1-0.2,0.2-0.3,0.3
				c-0.1,0.1-0.3,0.1-0.4,0.1c-0.1,0-0.3,0-0.4-0.1c-0.1-0.1-0.2-0.2-0.3-0.3C70.9,67.1,70.9,66.9,70.9,66.8z M72.3,66.8
				c0-0.2-0.1-0.3-0.2-0.5c-0.2-0.3-0.6-0.3-0.9,0c0,0,0,0,0,0c-0.1,0.1-0.2,0.3-0.2,0.5c0,0.4,0.3,0.6,0.7,0.7
				c0.2,0,0.3-0.1,0.5-0.2C72.3,67.1,72.4,67,72.3,66.8z M72.8,67.6V66l0,0l1,1.2V66H74v1.6l0,0l-1-1.2v1.2L72.8,67.6z"/>
		</g>
		<g id="OFF_slider">
			<path id="Rectangle_15-2" class="st1" d="M72.1,73.3h5.2c1.6,0,2.8,1.3,2.8,2.8l0,0c0,1.6-1.3,2.8-2.8,2.8l0,0h-5.2
				c-1.6,0-2.8-1.3-2.8-2.8l0,0C69.2,74.6,70.5,73.3,72.1,73.3C72,73.3,72,73.3,72.1,73.3z"/>
			<circle id="Ellipse_3-2" class="st0" cx="72.1" cy="76.2" r="2.4"/>
			<path id="OFF" class="st0" d="M75.3,76.3c0-0.1,0-0.3,0.1-0.4c0.1-0.1,0.2-0.2,0.3-0.3c0.1-0.1,0.3-0.1,0.4-0.1
				c0.1,0,0.3,0,0.4,0.1c0.1,0.1,0.2,0.2,0.3,0.3c0.1,0.1,0.1,0.3,0.1,0.4c0,0.1,0,0.3-0.1,0.4c-0.1,0.1-0.2,0.2-0.3,0.3
				c-0.1,0.1-0.3,0.1-0.4,0.1c-0.1,0-0.3,0-0.4-0.1c-0.1-0.1-0.2-0.2-0.3-0.3C75.3,76.5,75.3,76.4,75.3,76.3z M76.7,76.3
				c0-0.2-0.1-0.3-0.2-0.5c-0.1-0.1-0.3-0.2-0.5-0.2c-0.4,0-0.7,0.3-0.7,0.7c0,0.2,0.1,0.3,0.2,0.5c0.3,0.3,0.7,0.3,0.9,0
				C76.7,76.6,76.7,76.4,76.7,76.3z M77.2,75.5H78v0.2h-0.6v0.5H78v0.2h-0.6V77h-0.2L77.2,75.5z M78.2,75.5H79v0.2h-0.6v0.5H79v0.2
				h-0.6V77h-0.2L78.2,75.5z"/>
		</g>
		<g id="Group_25">
			<g id="Rectangle_13">
				<path class="st1" d="M178.9,72.7h2.5c0.8,0,1.4,0.6,1.4,1.4v2.4c0,0.8-0.6,1.4-1.4,1.4h-2.5c-0.8,0-1.4-0.6-1.4-1.4v-2.4
					C177.4,73.4,178.1,72.7,178.9,72.7z"/>
				<path class="st3" d="M178.9,72.8h2.5c0.8,0,1.4,0.6,1.4,1.4v2.4c0,0.8-0.6,1.4-1.4,1.4h-2.5c-0.8,0-1.4-0.6-1.4-1.4v-2.4
					C177.5,73.4,178.1,72.8,178.9,72.8z"/>
			</g>
			<g id="checkmark">
				<line id="Line_1" class="st4" x1="178.9" y1="75.4" x2="179.8" y2="76.2"/>
				<g id="Group_21">
					<line id="Line_2" class="st4" x1="181.4" y1="74.6" x2="179.8" y2="76.2"/>
				</g>
			</g>
		</g>
		<path d="M88.1,79c-0.8-0.5-1.5-1.2-1.9-2.1C85.8,76,85.6,75,85.6,74v-7c0-0.2-0.1-0.5-0.2-0.7c-0.1-0.2-0.3-0.3-0.6-0.3
			c-0.4,0-0.7,0.2-0.9,0.6l-0.9-0.7c0.2-0.3,0.4-0.6,0.7-0.8c0.8-0.5,1.9-0.4,2.6,0.3c0.4,0.4,0.6,1,0.6,1.5v6.9
			c0,0.8,0.2,1.6,0.5,2.3c0.3,0.7,0.8,1.3,1.4,1.7c0.7,0.4,1.4,0.6,2.2,0.6c0.8,0,1.6-0.2,2.3-0.7c0.6-0.4,1.1-1,1.4-1.7
			c0.3-0.7,0.4-1.5,0.4-2.2v-8.7h1.3v8.8c0,1-0.2,1.9-0.6,2.8c-0.4,0.9-1,1.6-1.8,2.2c-0.9,0.6-1.9,0.9-3,0.8
			C90,79.8,89,79.5,88.1,79z"/>
		<path d="M100.3,65.2h1.3v14.4h-1.3V65.2z"/>
		<path d="M114.9,79.7h-1.2l-1-0.1V66.2c-0.2,0-0.4,0-0.6,0.1c-0.1,0-0.3,0.1-0.3,0.2c-0.1,0.1-0.2,0.2-0.2,0.3
			c-0.1,0.1-0.1,0.3-0.1,0.4h-1.2c0-0.6,0.2-1.2,0.6-1.6c0.2-0.2,0.5-0.3,0.8-0.4c0.4-0.1,0.7-0.2,1.1-0.2h5.5
			c2.5,0,4.7,1.4,5.8,3.6c0.6,1.2,0.9,2.4,0.8,3.7c0.1,2-0.6,4-2.1,5.4c-1.4,1.2-3.5,1.8-6.3,1.8C116,79.7,115.4,79.7,114.9,79.7z
			 M121.8,77c1.3-1.2,1.9-2.8,1.8-4.5c0-1.1-0.2-2.2-0.7-3.2c-0.4-0.9-1.1-1.7-2-2.2c-0.9-0.5-1.9-0.8-2.9-0.8h-4v12.1h0.6
			c0.8,0.1,1.4,0.1,1.9,0.1C118.4,78.6,120.3,78.1,121.8,77z"/>
		<path d="M129.2,79.1c-0.7-0.4-1.3-1-1.7-1.8c-0.4-0.8-0.6-1.7-0.6-2.6c0-0.9,0.2-1.9,0.5-2.8c0.3-0.9,0.9-1.6,1.6-2.2
			c0.8-0.6,1.7-0.9,2.6-0.9c0.7,0,1.3,0.1,1.9,0.4c0.6,0.2,1,0.6,1.4,1.1c0.4,0.5,0.5,1.1,0.5,1.7c0,1-0.5,1.9-1.3,2.4
			c-1.1,0.6-2.4,0.9-3.6,0.8h-2.3c0.1,0.9,0.4,1.8,1.1,2.5c0.7,0.6,1.6,0.9,2.5,0.8c0.6,0,1.2-0.1,1.8-0.3c0.6-0.2,1.1-0.5,1.6-0.8
			l0.6,0.8c-0.5,0.4-1.2,0.8-1.8,1c-0.7,0.2-1.4,0.4-2.1,0.4C130.9,79.8,130,79.5,129.2,79.1z M134.3,72.1c0-0.6-0.2-1.2-0.7-1.6
			c-1.2-0.7-2.7-0.7-3.8,0.2c-0.5,0.4-0.9,1-1.2,1.7c-0.3,0.6-0.4,1.3-0.4,1.9h2.6C133.2,74.2,134.3,73.5,134.3,72.1L134.3,72.1z"/>
		<path d="M137.2,78.1l0.7-0.8c0.5,0.4,1,0.7,1.6,1c0.5,0.2,1.1,0.3,1.7,0.3c0.6,0,1.3-0.2,1.8-0.5c0.4-0.4,0.7-0.9,0.6-1.5
			c0-0.4-0.1-0.7-0.3-1c-0.2-0.3-0.5-0.5-0.8-0.6c-0.3-0.2-0.9-0.4-1.7-0.7s-1.3-0.6-1.7-0.8c-0.4-0.2-0.7-0.5-1-0.8
			c-0.3-0.4-0.4-0.8-0.4-1.2c0-0.8,0.3-1.5,0.9-2c0.7-0.5,1.5-0.8,2.4-0.8c0.5,0,1,0.1,1.5,0.2c0.5,0.1,0.9,0.3,1.3,0.6l-0.5,0.9
			c-0.7-0.4-1.4-0.6-2.2-0.6c-0.5,0-1,0.1-1.5,0.4c-0.3,0.2-0.5,0.6-0.5,1.1c0,0.3,0.1,0.6,0.3,0.9c0.2,0.2,0.5,0.4,0.7,0.6
			c0.3,0.2,0.8,0.4,1.5,0.6c0.6,0.2,1.3,0.5,1.9,0.9c0.4,0.2,0.7,0.6,1,0.9c0.3,0.4,0.4,0.9,0.4,1.4c0,0.9-0.3,1.7-1,2.3
			c-0.8,0.6-1.7,0.9-2.7,0.9C139.6,79.7,138.2,79.1,137.2,78.1z"/>
		<path d="M147,67.4c-0.2-0.2-0.3-0.4-0.3-0.6c0-0.2,0.1-0.5,0.3-0.6c0.2-0.2,0.4-0.3,0.6-0.3c0.2,0,0.5,0.1,0.6,0.3
			c0.2,0.2,0.3,0.4,0.3,0.6c0,0.2-0.1,0.5-0.3,0.6c-0.2,0.2-0.4,0.3-0.6,0.3C147.4,67.7,147.2,67.6,147,67.4z M148.5,78.2
			c0.1,0.1,0.3,0.2,0.5,0.2c0.3,0,0.5-0.1,0.6-0.3l0.9,0.7c-0.1,0.3-0.3,0.5-0.6,0.6c-0.3,0.2-0.6,0.2-0.9,0.2c-0.5,0-1-0.2-1.4-0.5
			c-0.4-0.4-0.6-0.8-0.6-1.4V69h1.3v8.7C148.3,77.9,148.4,78.1,148.5,78.2z"/>
		<path d="M155.3,85c-0.5-0.3-0.9-0.7-1.1-1.1c-0.3-0.5-0.4-1-0.4-1.6c0-1,0.4-2,1.2-2.6c-1.1-0.3-2-0.9-2.6-1.9
			c-0.7-1.1-1-2.3-1-3.6c0-1,0.2-2,0.7-2.8c0.4-0.8,1-1.5,1.8-1.9c0.8-0.5,1.8-0.7,2.7-0.7c0.4,0,0.8,0,1.2,0.1l1.3,0.1h1.2v13
			c0,0.9-0.3,1.8-0.9,2.5c-0.6,0.6-1.5,1-2.3,0.9C156.3,85.4,155.8,85.3,155.3,85z M157.5,77.8c0.4-0.3,0.7-0.6,1-1
			c0.2-0.3,0.3-0.6,0.4-1v-5.7l-2-0.1h-0.7c-0.7,0-1.3,0.2-1.9,0.6c-0.6,0.4-1.1,0.9-1.4,1.5c-0.3,0.7-0.5,1.4-0.5,2.2
			c0,0.7,0.1,1.5,0.4,2.1c0.2,0.6,0.6,1.2,1.2,1.6c0.4,0.4,1,0.6,1.6,0.6C156.3,78.5,157,78.3,157.5,77.8L157.5,77.8z M158.3,83.6
			c0.4-0.5,0.6-1.1,0.5-1.7v-4.1c0,0-0.1,0.2-0.3,0.4c-0.2,0.3-0.4,0.5-0.6,0.7c-0.4,0.3-0.8,0.6-1.2,0.8l-0.6,0.4
			c-0.7,0.4-1.1,1.2-1.1,2.1c0,0.5,0.2,1,0.6,1.4c0.4,0.4,0.9,0.6,1.4,0.6C157.5,84.2,158,84,158.3,83.6L158.3,83.6z"/>
		<path d="M174,78.8c-0.1,0.3-0.3,0.5-0.6,0.6c-0.8,0.5-1.8,0.3-2.4-0.3c-0.4-0.4-0.6-0.8-0.6-1.4v-5.3c0-1.7-0.8-2.5-2.3-2.5
			c-0.6,0-1.3,0.2-1.8,0.5c-0.6,0.5-1.1,1-1.6,1.6v7.4h-1.3v-7.4c0.1-0.9-0.2-1.8-0.9-2.4l0.8-0.8c0.3,0.2,0.5,0.4,0.7,0.7
			c0.2,0.3,0.4,0.6,0.5,1c0.8-1.2,2.1-1.9,3.6-1.8c0.9,0,1.7,0.2,2.4,0.8c0.6,0.6,1,1.4,1,2.3v5.8c0,0.2,0.1,0.4,0.2,0.5
			c0.1,0.1,0.3,0.2,0.5,0.2c0.3,0,0.5-0.1,0.6-0.3L174,78.8z"/>
	</g>
</g>
</svg>
