<?xml version="1.0" encoding="utf-8"?>
<!-- Generator: Adobe Illustrator 25.4.1, SVG Export Plug-In . SVG Version: 6.00 Build 0)  -->
<svg version="1.1" id="Layer_1" xmlns="http://www.w3.org/2000/svg" xmlns:xlink="http://www.w3.org/1999/xlink" x="0px" y="0px"
	 viewBox="0 0 252 144" style="enable-background:new 0 0 252 144;" xml:space="preserve">
<style type="text/css">
	.st0{fill:#BCE05A;}
	.st1{fill:#FDD9AE;stroke:#F5B54F;stroke-width:0.25;}
	.st2{fill:none;stroke:#F5B54F;stroke-width:0.25;}
	.st3{fill:#C8F427;}
	.st4{fill:#FDE2AE;stroke:#F8C676;stroke-width:0.25;}
	.st5{fill:#FDE2AE;stroke:#F8C676;stroke-width:0.25;stroke-miterlimit:3.98;}
</style>
<g id="Layer_2_00000070822929132658773790000009018481252455651519_">
	<g id="Layer_3">
		<path id="Path_1-2" class="st0" d="M116,57.2l-0.3-8.2l-2.9-5.6l5.4,6.7l3.8,5.4l2.3-6l0.2-3.6l1.8,5.2l1.4,2.9l3.6-4.9l5.6-9.4
			L131.9,52l1.2,3.7l6.4-2.2l3.4-2.8l4.2-3.4l-9.4,13l8.5,1.1l10-1.7l-10.1,3.8l-7.5,4l4.6,3.9l9.2,4.2L140,74.7l4.9,11l4.1,6.5
			l-8-9l-6.2-5l-4.9,8.6l0.4,17.4l-5.7-22l-7.3,14.5l3-11.6l-1.8-9.2l-7,2.9l-10.4,7.8l3.9-4.4l6.2-11.9l-12.7-6.5l7.4,1.7l5.6-0.9
			l-10.3-15.4l6.6,5.6L116,57.2z"/>
		<g id="Component_2_1">
			<g id="Component_1_1">
				<path id="Path_2-2" class="st1" d="M111.7,65.7c1-1.8,0.3-3.6,3.4-5.1c1.2-0.6,2.2-1.5,4.4-1.7c1.5-0.1,3,0.2,4.3,0.9
					c0.7-0.4,1.5-0.7,2.3-0.9c1.1-0.2,1.5,0.2,2.2,0.1c0.7-0.1,1.3-0.2,2-0.2c0.9,0.1,1,0.4,1.5,0.5c2.9,0.6,2.5,1.5,3.5,2.8
					c0.6,0.8,1.1-0.3,1.9,2c0.6,1.3,1,2.7,1.3,4.2c0.3,1,0.2,2-0.2,3c-0.4,1.4-0.1,1.8-1.6,3.3c-1.3,1.2-2.9,2.1-4.6,2.5
					c-1.4,0.4-2.8,0.4-4.2,0.1c-1.4-0.2-2.8-0.6-4.2-1.2c0,0-3.6-0.1-4.7-0.6c-3.1-1.4-2.4-3-2.4-3s-0.5,0-1.6,0
					c-1.6,0.2-1.4,0.1-2.7-0.5s-1-1.2-1.4-2.4c-0.3-0.6-0.4-1.2-0.3-1.8C110.8,66.9,111.2,66.2,111.7,65.7z"/>
				<path id="Path_3-2" class="st2" d="M111.2,70.3c0.1-1.3,0.8-2.4,1.9-3.1c2.1-1.7,2.9-0.9,2.9-0.9c0.5-1.1,1.3-2,2.3-2.6
					c1.7-1,1.9-0.4,1.9-0.4c0.1-0.7,0.4-1.3,0.8-1.9c0.6-0.8,2.8-1.5,2.8-1.5"/>
				<path id="Path_4-2" class="st2" d="M129.7,61.6c0,0-0.4-0.1-0.8-0.1c-0.2,0-0.4,0-0.6,0.1c-0.4,0.3-0.8,0.7-1,1.2
					c-0.3,0.8-0.6,1.5-0.8,2.3c-0.7,0.1-1.3,0.4-1.9,0.7c-0.5,0.4-1,0.9-1.5,1.5c-1,0.1-2,0.4-2.8,1c-0.3,0.3-2.2,2-2.3,2.8
					s-1.6,1.3-1.6,1.3"/>
				<path id="Path_6-2" class="st2" d="M115.8,72.4c0-0.7-1.5-1.6-1.6-2.5s1.1-2,1.5-2.3c1.9-1.6,3-1.1,3-1.1s-0.4-0.8,1.1-1.8
					s1.9-0.3,1.9-0.3c0.2-0.6,0.5-1.2,0.9-1.7c0.5-0.7,2-0.4,2-0.4s0.8-1.8,4.1-1c3.3,0.8,2,2.9,2,2.9c-0.6,1.5-1.9,2.5-3.5,2.7
					c-0.4,1.2-1.1,2.3-1.9,3.3c-0.6,0.5-1.5,0.6-2.2,0.2c-0.1,1.1-0.7,2.1-1.6,2.7c-1,0.4-2.1,0.2-2.9-0.4c-0.3,0.2-0.6,0.3-0.9,0.4
					c-0.3,0.1-0.7,0.1-1,0"/>
				<path id="Path_7" class="st2" d="M127.3,62.7c0,0-2.1-1-2.7,0.6c-0.2,0.4-0.2,0.9,0,1.4c0,0-0.9,0.1-1.2,0.6s0,0.6-0.6,0.8
					s-1.8-0.1-3,0.3c-0.7,0.3-1.4,0.9-1.8,1.5c0,0-1.2,0.5-1.5,1.2s0.1,0.9,0.3,1.4c0.2,0.5,0.7,0.8,1.2,0.7"/>
				<path id="Path_9-2" class="st2" d="M118.7,75.3c1,0.2,2.1,0.1,3.1-0.4c1.1-0.7,2.1-1.6,2.9-2.7c0.9-0.3,1.7-0.9,2.3-1.6
					c0.5-0.8,0.9-1.8,1-2.7c0.8-0.4,1.5-0.8,2.2-1.3c0.5-0.4,0.8-0.9,1-1.5c1,0.2,2,0.2,3-0.1c1.1-0.5-0.1-3.1-0.1-3.1"/>
				<path id="Path_10" class="st2" d="M127.8,61.1c0.5-0.4,1.2-0.7,1.9-0.8c0.5,0,1,0.4,1,0.9c0,0.1,0,0.1,0,0.2
					c0.4-0.2,0.9-0.4,1.4-0.3c0.5,0.1,0.9,0.4,1.2,0.7c0.4-0.1,0.8-0.1,1.1,0c0.4,0.1,0.7,0.3,1,0.6"/>
				<path id="Path_11" class="st2" d="M123.1,70.4c-0.1-0.1-0.2-0.1-0.3-0.2c-0.1-0.1-0.2-0.2-0.3-0.4"/>
				<path id="Path_12" class="st2" d="M127.2,66.9h-0.3c-0.1,0-0.2,0-0.3,0"/>
				<path id="Path_13" class="st2" d="M121.7,64.4c0,0.2-0.1,0.1-0.1,0.4c0,0.1,0,0.3,0,0.4"/>
				<path id="Path_14" class="st2" d="M134.2,64.9c-0.4,2.7-0.6,4.7-1.7,5.6c-0.9,0.5-1.8,0.9-2.8,1c-0.9,1.6-2.8,2.3-4.5,1.7
					l-2.9,1.4"/>
				<path id="Path_15" class="st2" d="M122.6,62.6c-0.5-1,0.6-1.8,1.1-2c0.5-0.2,1.2-0.2,1.7,0c0.3-0.4,0.8-0.6,1.2-0.8
					c0.5,0,1,0.1,1.4,0.3c0.7-0.4,1.4-0.6,2.2-0.5c0.7,0.2,1.3,0.7,1.6,1.4"/>
				<path id="Path_16" class="st2" d="M125.4,60.6c0.3,0.2,0.4,0.3,0.4,0.3"/>
				<path id="Path_17" class="st2" d="M118.2,67.7c0,0.2-0.1,0.1-0.1,0.4c0,0.1,0,0.3,0,0.4"/>
				<path id="Path_18" class="st2" d="M120.2,63.3c0,0.2,0,0.1,0,0.4c0,0.1,0,0.3,0,0.4"/>
				<path id="Path_19" class="st2" d="M116,66.3c0,0.2-0.1,0.1-0.1,0.4c0,0.1,0,0.2,0,0.4"/>
				<path id="Path_20" class="st2" d="M113.3,67.1c0.5-0.9,0-1.9,0.8-2.8c0.7-0.5,1.6-0.8,2.4-0.6c0.3-1.1,1-2,2-2.7
					c0.9-0.4,1.9-0.4,2.8,0"/>
				<path id="Path_21" class="st2" d="M116.6,63.7c0,0.2-0.1,0.2-0.1,0.5c0,0.1,0,0.2,0,0.4"/>
				<path id="Path_22-2" class="st2" d="M112.4,67.9c-0.6-1,1.2-3.9,1.7-4.5c0.7-0.7,1.5-1.2,2.5-1.4"/>
				<path id="Path_23" class="st2" d="M115.8,62.9c0.7-1.1,1.8-2,3-2.5c1.7-0.5,1.8,0.4,1.8,0.4"/>
				<path id="Path_24-2" class="st2" d="M118.4,70.5c0.5,0,1.5,0.9,2.2,0.6c1-0.5,2-2.7,2-2.7c0.8,0.1,1.5,0,2.2-0.2
					c1-0.4,1.4-2.2,1.4-2.2s2.9-1.5,3.2-2.7s-1.7-1.3-1.7-1.3"/>
				<path id="Path_25" class="st2" d="M122.8,68.5c-0.3,0-0.6-0.1-0.8-0.2"/>
				<path id="Path_26" class="st2" d="M127.1,70.4c1.1-0.2,2-0.8,2.6-1.7c0.2-0.3,0.3-0.7,0.4-1.1c0.8,0.1,1.6-0.1,2.3-0.4
					c0.5-0.5,0.7-1.2,0.7-1.9"/>
				<path id="Path_28-2" class="st2" d="M137.7,65.7c-0.4,2.7,0.3,2.4-0.7,4.3s-3.9,2.3-3.9,2.3c-0.5,0.7-1.2,1.3-1.9,1.7
					c-0.8,0.2-1.7,0.2-2.6,0c-0.7,0.6-1.6,0.9-2.5,1c-0.8-0.1-1.5-0.6-2-1.2"/>
				<path id="Path_29-2" class="st2" d="M133.7,67.9c1.9-0.6,2.3-1.2,2.8-2.2s-1.8-2-1.8-2"/>
				<path id="Path_30" class="st2" d="M129.7,71.6c0.1-0.1,0.1-0.2,0.2-0.3c0-0.1,0.1-0.2,0.1-0.3"/>
				<path id="Path_31" class="st2" d="M130.1,67.6c0,0,0-0.2,0-0.3V67"/>
				<path id="Path_32" class="st2" d="M124.7,72.2l-0.3,0.1l-0.5,0.1"/>
				<path id="Path_33" class="st2" d="M133.3,72.2c-0.1,0-0.2,0-0.4,0l-0.3-0.1"/>
				<path id="Path_34" class="st2" d="M126.6,65c0,0,0,0.2,0,0.3"/>
				<path id="Path_35-2" class="st2" d="M137.2,69.6c-0.4,0.7,0.1,2.2-0.7,3c-1,0.8-2.1,1.4-3.4,1.6c-0.5,0.7-1.2,1.3-1.9,1.7
					c-1.1,0.4-3.2-0.3-3.2-0.3c-1.1,0.2-2.3,0.3-3.4,0.3c-1-0.2-2.1-0.5-3-0.9"/>
				<path id="Path_36" class="st2" d="M133.3,74.2c-0.1,0-0.2,0-0.4,0c-0.1,0-0.2,0-0.3-0.1"/>
				<path id="Path_37" class="st2" d="M128.1,75.6l-0.3-0.1c-0.1-0.1-0.2-0.1-0.2-0.2"/>
				<path id="Path_40" class="st2" d="M129.8,76c0.3,0.5,0.9,0.9,1.5,0.9c0.9,0,1.9-0.1,2.8-0.3"/>
				<path id="Path_27-2" class="st2" d="M134.2,64.9c-0.4,2.7-0.6,4.7-1.7,5.6c-0.9,0.5-1.8,0.9-2.8,1c-0.4,0.6-0.9,1.1-1.4,1.5
					c-0.2,0.1-0.3,0.2-0.5,0.2c-0.8,0.2-1.7,0.2-2.6,0l-2.9,1.4"/>
			</g>
			<path id="Path_44" class="st0" d="M110.5,71.9l3.1-2.6l2,0.9l2.1-1.6l5.2-0.7l-5.2,1.5l-2.1,2.1H113l-1.5,1.8"/>
			<path id="Path_45" class="st0" d="M132.6,58.3l-1.2,3.2l-2,0.9v2.3l0.5-2l2-0.3l2.4-3.5"/>
			<path id="Path_46" class="st0" d="M116.4,57.4l1.9,4.7l4.2,0.5l3.2,5.1l-2.6-5.6l-4.3-0.8l-0.6-3.9"/>
			<path id="Path_47" class="st0" d="M138.2,78.2l-4.4-3.8l-1.8-7.6l2.7,6.4l6.5,3.1"/>
			<path id="Path_48-2" class="st3" d="M126.1,73.4l4.1,17.8L127,73.4"/>
			<path id="Path_49-2" class="st3" d="M127.1,61l-0.4-18.2l0.9,15.5l0.1,2.2c0,0.7,0,0.2,0,0.5"/>
		</g>
		<path id="Path_50-2" class="st3" d="M134,66.6l0.9-0.2l21.9-6.7l-23,7.8"/>
		<path id="Path_51-2" class="st3" d="M116.3,65.6l-11.4-13.5l12.6,12.1"/>
		<path id="Path_54-2" class="st4" d="M139,75.3c0,0.1,0,0.3,0.1,0.4c0.1,0.1,0.4,0,0.4,0c0.1,0,0.1,0,0.2-0.1c0.1-0.1,0-0.2,0-0.2
			c0-0.1,0-0.3-0.1-0.4c-0.1,0-0.1-0.2-0.3-0.2s-0.2,0.1-0.3,0.2C139,75.1,139,75.2,139,75.3z"/>
		<path id="Path_60-2" class="st4" d="M128.4,51.5c0,0.3,0.1,0.5,0.3,0.7c0.2,0.2,0.7,0.1,0.9,0c0.1,0,0.3-0.1,0.4-0.2
			c0.1-0.2,0.1-0.3,0.1-0.4c0.1-0.3,0-0.6-0.2-0.8c-0.1-0.1-0.3-0.3-0.5-0.3s-0.4,0.2-0.6,0.3C128.5,51,128.3,51.2,128.4,51.5z"/>
		<path id="Path_62-2" class="st4" d="M132.8,58.9c0,0.1,0,0.2,0.1,0.3c0.1,0.1,0.2,0,0.2,0c0,0,0.1,0,0.1-0.1c0-0.2,0-0.4,0-0.6
			c0,0-0.1-0.2-0.1-0.2s-0.1,0.1-0.1,0.2C132.8,58.6,132.7,58.8,132.8,58.9z"/>
		<path id="Path_63-2" class="st4" d="M132.4,60.2c0,0.1,0,0.2,0.1,0.2c0.1,0.1,0.2,0,0.3,0c0,0,0.1,0,0.1-0.1c0,0,0-0.1,0-0.1
			c0-0.1,0-0.2-0.1-0.2c0,0-0.1-0.1-0.2-0.1s-0.1,0.1-0.2,0.1C132.4,60,132.4,60.1,132.4,60.2z"/>
		<path id="Path_91-2" class="st4" d="M122.9,80c0,0.3,0.1,0.5,0.3,0.7c0.2,0.2,0.7,0.1,0.9,0c0.1,0,0.3-0.1,0.4-0.2
			c0.1-0.2,0.1-0.3,0.1-0.4c0-0.5-0.3-0.9-0.7-1c-0.3,0-0.4,0.2-0.5,0.3C123,79.5,122.9,79.8,122.9,80z"/>
		<path id="Path_92-2" class="st4" d="M121.5,78.4c0,0.2,0,0.4,0.1,0.6c0.1,0.2,0.4,0,0.5,0c0.1,0,0.2-0.1,0.2-0.2
			c0-0.1,0.1-0.2,0.1-0.3c0-0.2,0-0.4-0.1-0.6c0-0.1-0.1-0.2-0.3-0.2s-0.2,0.2-0.3,0.2C121.5,78,121.4,78.2,121.5,78.4z"/>
		<path id="Path_93-2" class="st4" d="M107.6,72c0,0.2,0.1,0.5,0.3,0.6c0.3,0.1,0.7,0.1,1,0c0.2,0,0.3-0.1,0.4-0.2
			c0.1-0.1,0.1-0.2,0.1-0.3c0.1-0.2,0-0.5-0.2-0.6c-0.2-0.2-0.4-0.3-0.6-0.3c-0.3,0-0.4,0.2-0.6,0.3C107.6,71.6,107.6,71.8,107.6,72
			z"/>
		<path id="Path_96-2" class="st4" d="M107,53.5c0,0.3,0.1,0.6,0.2,0.9c0.2,0.3,0.7,0.1,0.8,0c0.1,0,0.3-0.1,0.3-0.2
			c0.1-0.2,0.1-0.3,0.1-0.5c0.1-0.3,0-0.6-0.2-0.9c-0.1-0.1-0.2-0.4-0.5-0.4s-0.3,0.3-0.5,0.4C107.1,52.9,107,53.2,107,53.5z"/>
		<path id="Path_97-2" class="st4" d="M140.4,70.3c0,0.3,0.1,0.5,0.3,0.7c0.2,0.2,0.7,0.1,0.9,0c0.1,0,0.3-0.1,0.4-0.2
			c0.1-0.2,0.1-0.3,0.1-0.4c0.1-0.3,0-0.5-0.2-0.7c-0.1-0.2-0.3-0.3-0.5-0.3c-0.3,0-0.4,0.2-0.5,0.3C140.5,69.8,140.4,70,140.4,70.3
			z"/>
		<path id="Path_98" class="st4" d="M145,66.5c0,0.1,0.1,0.3,0.2,0.4c0.2,0.1,0.5,0,0.6,0c0.1,0,0.2,0,0.2-0.1
			c0.1-0.1,0.1-0.1,0.1-0.2c0-0.1,0-0.3-0.1-0.4c-0.1-0.1-0.2-0.1-0.3-0.2c-0.2,0-0.2,0.1-0.4,0.2C145.1,66.2,145,66.4,145,66.5z"/>
		<path id="Path_100-2" class="st4" d="M133.7,58.7c0,0.1,0.1,0.2,0.1,0.2c0.2,0,0.3,0,0.5,0l0.2-0.1c0.1,0,0-0.1,0-0.1
			s0-0.2-0.1-0.2c-0.1-0.1-0.2-0.1-0.3-0.1c-0.1,0-0.2,0-0.3,0.1C133.7,58.6,133.7,58.7,133.7,58.7z"/>
		<path id="Path_104-2" class="st4" d="M135.1,74.6c0,0.1,0,0.3,0.1,0.3c0.1,0.1,0.3,0,0.4,0c0.1,0,0.1,0,0.1-0.1
			c0.1-0.1,0-0.1,0.1-0.2c0-0.1,0-0.3-0.1-0.3c0,0-0.1-0.2-0.2-0.2s-0.1,0.1-0.2,0.2C135.2,74.3,135.1,74.4,135.1,74.6z"/>
		<path id="Path_105-2" class="st4" d="M136.2,75.9c0,0.2,0.1,0.3,0.2,0.4c0.2,0.1,0.5,0,0.6,0c0.1,0,0.2,0,0.3-0.1
			c0.1-0.1,0.1-0.2,0.1-0.2c0-0.2,0-0.3-0.1-0.4c-0.1-0.1-0.2-0.2-0.4-0.2c-0.2,0-0.3,0.1-0.4,0.2C136.3,75.6,136.2,75.8,136.2,75.9
			z"/>
		<path id="Path_106-2" class="st4" d="M115.4,70.5c0,0.1,0,0.1,0.1,0.2c0.1,0,0.2,0,0.2,0c0,0,0.1,0,0.1-0.1c0,0,0-0.1,0-0.1
			c0-0.1,0-0.1,0-0.2c0,0-0.1-0.1-0.1-0.1c-0.1,0-0.1,0.1-0.1,0.1C115.5,70.4,115.4,70.4,115.4,70.5z"/>
		<path id="Path_107-2" class="st4" d="M133.6,83c0.2,0.7,0.7,1.2,1.3,1.6c0.8,0.3,1.7-0.4,2-0.7c0.1-0.1,0.5-0.3,0.7-0.8
			s-0.1-0.7-0.1-1.1c-0.1-0.7-0.5-1.3-1.1-1.7c-0.3-0.1-0.9-0.5-1.4-0.3s-0.6,0.9-1,1.2C133.4,81.7,133.3,82.4,133.6,83z"/>
		<path id="Path_108-2" class="st4" d="M116.1,56.6c0.1,0.4,0.4,0.8,0.7,1.2c0.3,0.3,0.7-0.1,0.7-0.3c0.1-0.1,0.2-0.3,0.2-0.4
			c0-0.2-0.1-0.5-0.2-0.7c-0.1-0.4-0.3-0.9-0.6-1.2c-0.1-0.1-0.4-0.4-0.6-0.4s-0.2,0.5-0.3,0.7C115.8,55.8,115.9,56.2,116.1,56.6z"
			/>
		<path id="Path_109-2" class="st4" d="M102.7,62.2c0.2,0.6,0.7,1.1,1.3,1.2c1,0,1.9-0.4,2.7-1c0.4-0.2,0.7-0.5,1-0.8
			c0.2-0.4,0-0.6,0-0.9c0-0.6-0.5-1.2-1.2-1.2c-0.6-0.2-1.2-0.2-1.8,0c-0.8,0.3-1,0.9-1.4,1.2C102.3,61.3,102.6,61.9,102.7,62.2z"/>
		<path id="Path_103-2" class="st4" d="M117.6,59.1c0,0.1,0,0.2,0.1,0.2c0.1,0.1,0.2,0,0.2,0c0,0,0.1,0,0.1-0.1c0,0,0-0.1,0-0.1
			c0-0.1,0-0.2-0.1-0.2c0,0-0.1-0.1-0.2-0.1s-0.1,0.1-0.2,0.1C117.6,58.9,117.6,59,117.6,59.1z"/>
		<path id="Path_94-2" class="st4" d="M112.8,70.4c0,0.1,0.1,0.2,0.2,0.3c0.2,0.1,0.4,0.1,0.6,0c0.1,0,0.2,0,0.2-0.1
			c0.1-0.1,0.1-0.1,0.1-0.2c0-0.1,0-0.2-0.1-0.3c-0.1-0.1-0.2-0.1-0.3-0.1c-0.2,0-0.2,0.1-0.3,0.1S112.8,70.4,112.8,70.4z"/>
		<path id="Path_132-2" class="st4" d="M101.3,79.1c0,0.5,0.1,1,0.4,1.3c0.4,0.4,1.2,0.1,1.4,0c0.2,0,0.4-0.2,0.6-0.3
			c0.2-0.3,0.1-0.5,0.2-0.8c0.1-0.5,0-1-0.3-1.3c-0.1-0.1-0.4-0.6-0.8-0.6s-0.6,0.4-0.9,0.6C101.4,78.2,101.2,78.7,101.3,79.1z"/>
		<path id="Path_133-2" class="st5" d="M138,54.4c-0.1,0.5,0,1,0.3,1.4c0.4,0.5,1.1,0.2,1.4,0.1c0.2,0,0.5-0.1,0.6-0.3
			c0.2-0.3,0.2-0.5,0.2-0.7c0.2-0.5,0.1-1-0.2-1.4c-0.1-0.2-0.4-0.6-0.8-0.6s-0.6,0.4-0.9,0.5C138.3,53.5,138,53.9,138,54.4z"/>
		<path d="M64.8,78.5h-1.2l-1-0.1V65c-0.2,0-0.4,0-0.6,0c-0.1,0-0.3,0.1-0.3,0.2c-0.1,0.1-0.2,0.2-0.2,0.3c-0.1,0.1-0.1,0.3-0.1,0.4
			l-1.2,0c0-0.6,0.2-1.1,0.6-1.6c0.2-0.2,0.5-0.3,0.8-0.4c0.4-0.1,0.7-0.2,1.1-0.2h5.5c1.2,0,2.4,0.4,3.4,1c1,0.6,1.8,1.5,2.4,2.6
			c0.6,1.2,0.9,2.4,0.8,3.7c0.2,2-0.6,4-2.1,5.4c-1.4,1.2-3.5,1.8-6.3,1.8L64.8,78.5z M71.6,75.8c1.3-1.2,1.9-2.8,1.8-4.5
			c0-1.1-0.2-2.2-0.7-3.2c-0.4-0.9-1.1-1.7-2-2.2c-0.9-0.5-1.9-0.8-2.9-0.8h-4v12.2h0.6c0.8,0.1,1.4,0.1,1.9,0.1
			C68.3,77.5,70.1,76.9,71.6,75.8z"/>
		<path d="M77.4,66.2c-0.2-0.2-0.3-0.4-0.3-0.6c0-0.2,0.1-0.5,0.3-0.6c0.2-0.2,0.4-0.3,0.6-0.3c0.5,0,0.9,0.4,0.9,0.9c0,0,0,0,0,0
			c0,0.2-0.1,0.5-0.3,0.6c-0.2,0.2-0.4,0.3-0.6,0.3C77.8,66.5,77.6,66.4,77.4,66.2z M79,77.1c0.1,0.1,0.3,0.2,0.5,0.2
			c0.3,0,0.5-0.1,0.6-0.4l0.9,0.7c-0.1,0.3-0.3,0.5-0.6,0.6c-0.3,0.2-0.6,0.3-1,0.2c-0.5,0-1-0.2-1.4-0.5c-0.4-0.4-0.6-0.8-0.6-1.4
			v-8.7h1.3v8.7C78.7,76.8,78.8,77,79,77.1z"/>
		<path d="M85.7,83.8c-0.5-0.3-0.9-0.7-1.2-1.1c-0.8-1.4-0.5-3.2,0.8-4.2c-1.1-0.3-2-0.9-2.6-1.9c-0.7-1.1-1-2.3-1-3.6
			c0-1,0.2-2,0.7-2.8c0.4-0.8,1.1-1.4,1.8-1.9c0.8-0.5,1.8-0.7,2.7-0.7c0.4,0,0.8,0,1.2,0.1l1.3,0.2h1.2v13c0,0.9-0.3,1.8-0.9,2.5
			c-0.6,0.6-1.5,1-2.3,0.9C86.7,84.2,86.2,84.1,85.7,83.8z M88,76.6c0.4-0.3,0.7-0.6,1-1c0.2-0.3,0.3-0.6,0.4-1v-5.7l-1.9-0.1h-0.7
			c-0.7,0-1.3,0.2-1.9,0.6c-0.6,0.4-1,0.9-1.3,1.5c-0.4,0.7-0.5,1.4-0.5,2.2c0,0.7,0.1,1.5,0.4,2.1c0.2,0.6,0.6,1.1,1.1,1.6
			c0.4,0.4,1,0.6,1.6,0.6C86.8,77.3,87.5,77.1,88,76.6z M88.8,82.4c0.4-0.5,0.5-1.1,0.5-1.7v-4.1c-0.1,0.1-0.2,0.3-0.3,0.4
			c-0.2,0.3-0.4,0.5-0.6,0.7c-0.4,0.3-0.8,0.6-1.2,0.8L86.5,79c-0.7,0.4-1.1,1.2-1.1,2c0,0.5,0.2,1.1,0.6,1.4
			c0.4,0.4,0.9,0.6,1.4,0.6C87.9,83,88.4,82.8,88.8,82.4L88.8,82.4z"/>
		<path d="M93.8,66.2c-0.2-0.2-0.3-0.4-0.3-0.6c0-0.2,0.1-0.5,0.3-0.6c0.2-0.2,0.4-0.3,0.6-0.3c0.5,0,0.9,0.4,0.9,0.9c0,0,0,0,0,0
			c0,0.2-0.1,0.5-0.3,0.6c-0.2,0.2-0.4,0.3-0.6,0.3C94.1,66.5,93.9,66.4,93.8,66.2z M95.3,77.1c0.1,0.1,0.3,0.2,0.5,0.2
			c0.3,0,0.5-0.1,0.6-0.4l0.9,0.7c-0.1,0.3-0.3,0.5-0.6,0.6c-0.3,0.2-0.6,0.3-0.9,0.2c-0.5,0-1-0.2-1.4-0.5
			c-0.4-0.4-0.6-0.9-0.5-1.4v-8.7h1.3v8.7C95.1,76.8,95.1,77,95.3,77.1z"/>
		<path d="M99.5,77.8c-0.5-0.7-0.7-1.6-0.7-2.4V65.2h1.3v2.7h3.3V69h-3.3v6.3c0,1.4,0.5,2.1,1.5,2.1c0.8,0,1.6-0.5,1.8-1.3l0.9,0.7
			c-0.3,0.5-0.7,1-1.2,1.3c-0.5,0.3-1.1,0.5-1.6,0.4C100.8,78.6,100.1,78.3,99.5,77.8z"/>
		<path d="M107.4,77.8c-0.7-0.5-1.2-1.2-1.6-2c-0.4-0.8-0.5-1.8-0.5-2.7c0-1,0.2-2,0.6-2.9c0.4-0.8,1-1.5,1.8-1.9
			c0.8-0.5,1.8-0.7,2.8-0.7c0.3,0,0.7,0,1.2,0.1s0.9,0.1,1.3,0.1h1.3v8.7c0,0.2,0.1,0.5,0.2,0.6c0.1,0.1,0.3,0.2,0.5,0.2
			c0.3,0,0.5-0.1,0.6-0.4l0.9,0.7c-0.2,0.3-0.4,0.5-0.7,0.6c-0.3,0.1-0.6,0.2-0.9,0.2c-0.5,0-0.9-0.2-1.3-0.5
			c-0.4-0.3-0.6-0.8-0.6-1.2c-0.3,0.5-0.8,1-1.3,1.3c-0.6,0.3-1.2,0.4-1.8,0.4C109,78.6,108.1,78.3,107.4,77.8z M111.6,77
			c0.5-0.3,0.9-0.7,1.1-1.2c0.2-0.4,0.3-0.9,0.3-1.3v-5.5h-1.4h-1.2c-1.1-0.1-2.1,0.3-2.9,1.1c-0.7,0.9-1,2-1,3.1
			c0,1.1,0.3,2.1,0.9,3c0.5,0.8,1.5,1.3,2.5,1.2C110.4,77.4,111,77.3,111.6,77L111.6,77z"/>
		<path d="M119.8,77.1c0.1,0.1,0.3,0.2,0.5,0.2c0.3,0,0.5-0.1,0.6-0.4l0.9,0.7c-0.1,0.3-0.3,0.5-0.6,0.6c-0.3,0.2-0.6,0.3-0.9,0.2
			c-0.5,0-1-0.2-1.4-0.5c-0.4-0.4-0.6-0.8-0.6-1.4V63.1h1.3v13.5C119.6,76.8,119.6,77,119.8,77.1z"/>
		<path d="M133.3,78.5h-1.2l-1-0.1V65c-0.2,0-0.4,0-0.6,0c-0.1,0-0.2,0.1-0.3,0.2c-0.2,0.2-0.3,0.5-0.3,0.8h-1.1
			c0-0.6,0.2-1.2,0.6-1.6c0.2-0.2,0.5-0.3,0.7-0.4c0.4-0.1,0.7-0.2,1.1-0.2h5.5c2.5,0,4.7,1.4,5.8,3.6c0.6,1.2,0.9,2.4,0.9,3.7
			c0.2,2-0.6,4-2.1,5.4c-1.4,1.2-3.5,1.8-6.3,1.8L133.3,78.5z M140.2,75.8c1.3-1.2,1.9-2.8,1.8-4.5c0-1.1-0.2-2.2-0.7-3.2
			c-0.4-0.9-1.1-1.7-2-2.2c-0.9-0.5-1.9-0.8-2.9-0.8h-4v12.2h0.6c0.8,0.1,1.5,0.1,1.9,0.1C136.8,77.5,138.7,76.9,140.2,75.8z"/>
		<path d="M147.6,77.9c-0.7-0.4-1.3-1-1.6-1.8c-0.4-0.8-0.6-1.7-0.6-2.6c0-0.9,0.2-1.9,0.5-2.8c0.3-0.9,0.9-1.6,1.6-2.2
			c0.8-0.6,1.7-0.9,2.6-0.9c0.7,0,1.3,0.1,1.9,0.4c0.6,0.2,1,0.6,1.4,1.1c0.3,0.5,0.5,1.1,0.5,1.7c0,1-0.5,1.9-1.3,2.4
			c-1.1,0.6-2.4,0.9-3.6,0.8h-2.3c0.1,0.9,0.4,1.8,1.1,2.5c0.7,0.6,1.6,0.9,2.5,0.8c1.2,0,2.4-0.4,3.3-1.1l0.6,0.8
			c-0.5,0.4-1.2,0.8-1.8,1c-0.7,0.2-1.4,0.4-2.1,0.4C149.3,78.6,148.4,78.4,147.6,77.9z M152.7,70.9c0-0.6-0.2-1.2-0.7-1.6
			c-0.5-0.4-1.1-0.5-1.8-0.5c-0.7,0-1.4,0.2-2,0.7c-0.5,0.4-0.9,1-1.2,1.7c-0.3,0.6-0.4,1.3-0.4,1.9h2.6
			C151.6,73.1,152.7,72.3,152.7,70.9L152.7,70.9z"/>
		<path d="M155.6,77l0.7-0.8c0.5,0.4,1,0.7,1.6,1c0.5,0.2,1.1,0.4,1.7,0.3c0.6,0,1.3-0.2,1.8-0.5c0.4-0.4,0.7-0.9,0.6-1.5
			c0-0.4-0.1-0.7-0.3-1c-0.2-0.3-0.5-0.5-0.8-0.6c-0.3-0.2-0.9-0.4-1.7-0.7s-1.3-0.6-1.7-0.8c-0.4-0.2-0.7-0.5-1-0.8
			c-0.2-0.4-0.4-0.8-0.4-1.2c0-0.8,0.3-1.5,0.9-2c0.7-0.5,1.5-0.8,2.4-0.7c0.5,0,1,0.1,1.5,0.2c0.5,0.1,0.9,0.3,1.3,0.6l-0.5,0.9
			c-0.7-0.4-1.4-0.6-2.2-0.6c-0.5,0-1,0.1-1.5,0.4c-0.3,0.2-0.5,0.6-0.5,1.1c0,0.3,0.1,0.6,0.3,0.9c0.2,0.2,0.5,0.4,0.7,0.6
			c0.3,0.2,0.8,0.4,1.5,0.6c0.6,0.2,1.3,0.5,1.9,0.9c0.4,0.3,0.7,0.6,1,1c0.3,0.4,0.4,0.9,0.4,1.4c0,0.9-0.3,1.7-1,2.3
			c-0.8,0.6-1.7,0.9-2.7,0.9C158,78.6,156.6,78,155.6,77z"/>
		<path d="M165.4,66.2c-0.2-0.2-0.3-0.4-0.3-0.6c0-0.2,0.1-0.5,0.3-0.6c0.2-0.2,0.4-0.3,0.6-0.3c0.5,0,0.9,0.4,0.9,0.9c0,0,0,0,0,0
			c0,0.2-0.1,0.5-0.3,0.6c-0.2,0.2-0.4,0.3-0.6,0.3C165.8,66.5,165.5,66.4,165.4,66.2z M166.9,77.1c0.1,0.1,0.3,0.2,0.5,0.2
			c0.3,0,0.5-0.1,0.6-0.4l0.9,0.7c-0.1,0.3-0.3,0.5-0.6,0.6c-0.3,0.2-0.6,0.3-0.9,0.2c-0.5,0-1-0.2-1.4-0.5
			c-0.4-0.4-0.6-0.9-0.5-1.4v-8.7h1.3v8.7C166.7,76.8,166.8,77,166.9,77.1L166.9,77.1z"/>
		<path d="M173.6,83.8c-0.5-0.3-0.9-0.7-1.2-1.1c-0.8-1.4-0.4-3.2,0.8-4.2c-1.1-0.3-2-0.9-2.6-1.9c-0.7-1.1-1-2.3-1-3.6
			c0-1,0.2-2,0.6-2.8c0.4-0.8,1.1-1.5,1.8-1.9c0.8-0.5,1.8-0.7,2.7-0.7c0.4,0,0.8,0,1.1,0.1l1.3,0.2h1.2v13c0,0.9-0.3,1.8-0.9,2.5
			c-0.6,0.6-1.5,1-2.4,0.9C174.7,84.2,174.1,84.1,173.6,83.8z M175.9,76.6c0.4-0.3,0.7-0.6,1-1c0.2-0.3,0.3-0.6,0.4-1v-5.7l-1.9-0.1
			h-0.7c-0.7,0-1.3,0.2-1.9,0.6c-0.6,0.4-1,0.9-1.3,1.5c-0.3,0.7-0.5,1.4-0.5,2.2c0,0.7,0.1,1.5,0.4,2.1c0.2,0.6,0.6,1.1,1.1,1.6
			c0.4,0.4,1,0.6,1.6,0.6C174.8,77.3,175.4,77.1,175.9,76.6z M176.7,82.4c0.4-0.5,0.6-1.1,0.5-1.7v-4.1c0,0-0.1,0.2-0.3,0.4
			c-0.2,0.3-0.4,0.5-0.6,0.7c-0.4,0.3-0.8,0.6-1.2,0.8l-0.6,0.4c-0.7,0.4-1.1,1.2-1.1,2c0,0.5,0.2,1,0.6,1.4
			c0.4,0.4,0.9,0.6,1.4,0.6C175.9,83,176.4,82.8,176.7,82.4z"/>
		<path d="M192.3,77.6c-0.1,0.3-0.3,0.5-0.6,0.6c-0.3,0.2-0.6,0.3-0.9,0.2c-0.5,0-1-0.2-1.4-0.5c-0.4-0.4-0.6-0.8-0.6-1.4v-5.3
			c0-1.7-0.8-2.5-2.3-2.5c-0.6,0-1.3,0.2-1.8,0.5c-0.6,0.5-1.1,1-1.6,1.6v7.4H182V71c0.1-0.9-0.2-1.8-0.9-2.4l0.8-0.8
			c0.3,0.2,0.5,0.4,0.7,0.7c0.2,0.3,0.4,0.6,0.5,1c0.4-0.6,1-1.1,1.6-1.4c0.6-0.3,1.3-0.4,2-0.4c0.9,0,1.8,0.2,2.4,0.8
			c0.6,0.6,1,1.4,1,2.3v5.8c0,0.2,0.1,0.4,0.2,0.5c0.1,0.1,0.3,0.2,0.5,0.2c0.3,0,0.5-0.1,0.6-0.4L192.3,77.6z"/>
	</g>
</g>
</svg>
