<svg xmlns="http://www.w3.org/2000/svg" viewBox="0 0 252 144"><defs><style>.cls-1{fill:#eaeaea;}.cls-2{fill:#fff;}.cls-2,.cls-3{stroke:#fff;stroke-miterlimit:10;stroke-width:0.5px;}.cls-3{fill:#97ea75;}.cls-4{fill:#17ffa0;opacity:0.47;}.cls-5{fill:#32c682;opacity:0.34;}</style></defs><g id="Layer_2" data-name="Layer 2"><g id="Layer_1-2" data-name="Layer 1"><rect class="cls-1" width="252" height="144"/><ellipse class="cls-2" cx="153.73" cy="86.5" rx="2.37" ry="4.85" transform="translate(-20.29 115.33) rotate(-38.77)"/><line class="cls-3" x1="150.63" y1="81.36" x2="150.35" y2="79.85"/><line class="cls-3" x1="149.34" y1="82.47" x2="147.86" y2="81.84"/><ellipse class="cls-2" cx="147.58" cy="81.72" rx="0.32" ry="0.31" transform="translate(-18.65 110.43) rotate(-38.77)"/><ellipse class="cls-2" cx="150.29" cy="79.54" rx="0.32" ry="0.31" transform="translate(-16.69 111.64) rotate(-38.77)"/><ellipse class="cls-2" cx="150.91" cy="82.99" rx="1.69" ry="1.64" transform="translate(-18.72 112.79) rotate(-38.77)"/><path class="cls-4" d="M153.28,84.6,152,83.05c-.38-.47-.05-1.36.72-2l0,0a7.67,7.67,0,0,1,3.42-1.62h0c1.2-.2,1.83.61,1.34,1.74h0a8.53,8.53,0,0,1-2.53,3.2h0C154.36,84.89,153.59,85,153.28,84.6Z"/><path class="cls-5" d="M153,84.36l-.31-1.78c-.1-.54.42-1.09,1.15-1.24h0a4.93,4.93,0,0,1,2.85.24h0a1.12,1.12,0,0,1,.31,2h0A5.63,5.63,0,0,1,154.24,85h0A1,1,0,0,1,153,84.36Z"/><path class="cls-4" d="M152,85.62l-1.24-1.55c-.38-.47-1.32-.35-2.09.27h0a7.69,7.69,0,0,0-2.33,3h0c-.45,1.13.21,1.91,1.42,1.68h0a8.68,8.68,0,0,0,3.67-1.78h0C152.06,86.73,152.32,86,152,85.62Z"/><path class="cls-5" d="M151.83,85.31l-1.67-.69a1.24,1.24,0,0,0-1.46.86h0a4.89,4.89,0,0,0-.38,2.83h0a1.12,1.12,0,0,0,1.86.73h0a5.66,5.66,0,0,0,2-2.41h0C152.38,86.07,152.25,85.48,151.83,85.31Z"/><path d="M71.06,82.15V67.75h1.32V81h6v1.16Z"/><path d="M85.53,82.43a5.27,5.27,0,0,1-2.52-.6,4.52,4.52,0,0,1-1.77-1.67,5,5,0,0,1,0-5A4.52,4.52,0,0,1,83,73.54a5.59,5.59,0,0,1,5,0,4.61,4.61,0,0,1,1.78,1.67,5,5,0,0,1,0,5,4.61,4.61,0,0,1-1.78,1.67A5.27,5.27,0,0,1,85.53,82.43Zm0-1.13a3.73,3.73,0,0,0,1.87-.46,3.37,3.37,0,0,0,1.29-1.28,4,4,0,0,0,0-3.75,3.37,3.37,0,0,0-1.29-1.28,4,4,0,0,0-3.74,0,3.37,3.37,0,0,0-1.29,1.28,4,4,0,0,0,0,3.74,3.33,3.33,0,0,0,1.29,1.29A3.73,3.73,0,0,0,85.53,81.3Z"/><path d="M97.5,87a5.63,5.63,0,0,1-2.86-.67,4.07,4.07,0,0,1-1.74-1.94L94,83.86a3.26,3.26,0,0,0,1.36,1.47,4.34,4.34,0,0,0,2.17.54,4,4,0,0,0,1.83-.4,3,3,0,0,0,1.27-1.18,3.47,3.47,0,0,0,.47-1.84V80.27a4.11,4.11,0,0,1-3.7,2.16,4.26,4.26,0,0,1-2.26-.61,4.46,4.46,0,0,1-1.6-1.68,5,5,0,0,1-.59-2.45,5,5,0,0,1,.59-2.44,4.39,4.39,0,0,1,1.59-1.69,4.49,4.49,0,0,1,4.45-.06,4,4,0,0,1,1.52,1.58V73.22h1.27V82.4a5,5,0,0,1-.58,2.5,3.78,3.78,0,0,1-1.67,1.54A6.07,6.07,0,0,1,97.5,87Zm.17-5.63a3.39,3.39,0,0,0,1.79-.47,3.23,3.23,0,0,0,1.22-1.29,4.17,4.17,0,0,0,0-3.77,3.23,3.23,0,0,0-1.22-1.29,3.67,3.67,0,0,0-3.56,0,3.3,3.3,0,0,0-1.22,1.29,3.88,3.88,0,0,0-.45,1.89,4,4,0,0,0,.44,1.88,3.32,3.32,0,0,0,1.23,1.29A3.39,3.39,0,0,0,97.67,81.33Z"/><path d="M123.26,82.15V67.75h3.25a7.24,7.24,0,0,1,5.16,2.08,7.12,7.12,0,0,1,1.55,2.3,7.56,7.56,0,0,1,0,5.66,7.05,7.05,0,0,1-1.54,2.29,7,7,0,0,1-2.31,1.53,7.54,7.54,0,0,1-2.86.54ZM124.59,81h1.8a6.12,6.12,0,0,0,2.35-.46,5.87,5.87,0,0,0,3.18-3.19,6.17,6.17,0,0,0,.45-2.37,6.09,6.09,0,0,0-.45-2.36,5.81,5.81,0,0,0-1.27-1.91,5.68,5.68,0,0,0-1.91-1.28,5.93,5.93,0,0,0-2.35-.46h-1.8Z"/><path d="M141.28,82.43a5,5,0,0,1-2.51-.62A4.53,4.53,0,0,1,137,80.13a4.78,4.78,0,0,1-.62-2.41,4.73,4.73,0,0,1,2.87-4.42,5,5,0,0,1,4.18.22,4.37,4.37,0,0,1,1.65,1.6,4.91,4.91,0,0,1,.64,2.36.86.86,0,0,1,0,.17,1.37,1.37,0,0,1,0,.16h-8.05a3.63,3.63,0,0,0,.47,1.85,3.49,3.49,0,0,0,1.3,1.26,4.09,4.09,0,0,0,3.71,0,3.63,3.63,0,0,0,1.35-1.21l.94.5a4.36,4.36,0,0,1-1.73,1.62A5.18,5.18,0,0,1,141.28,82.43Zm-3.54-5.58h6.73a3.16,3.16,0,0,0-.58-1.48,3.32,3.32,0,0,0-1.19-1,3.37,3.37,0,0,0-1.58-.37,3.47,3.47,0,0,0-1.61.37,3.21,3.21,0,0,0-1.19,1A3.26,3.26,0,0,0,137.74,76.85Z"/><path d="M151,82.43a3.45,3.45,0,0,1-3.27-2.06l.68-.73A3.38,3.38,0,0,0,149.49,81a2.53,2.53,0,0,0,1.5.48,2.23,2.23,0,0,0,1-.23,1.86,1.86,0,0,0,.74-.65,1.84,1.84,0,0,0,.27-1,1.24,1.24,0,0,0-.26-.84,2,2,0,0,0-.75-.52c-.33-.15-.73-.32-1.22-.51a10,10,0,0,1-1.1-.51,2.75,2.75,0,0,1-.88-.73,1.76,1.76,0,0,1-.34-1.12,2.17,2.17,0,0,1,.36-1.23,2.46,2.46,0,0,1,1-.84,3.31,3.31,0,0,1,1.47-.31,3.1,3.1,0,0,1,1.41.32,3.78,3.78,0,0,1,1.18.91l-.58.75a2.42,2.42,0,0,0-2-1.06,1.81,1.81,0,0,0-1.19.38,1.26,1.26,0,0,0-.46,1,1,1,0,0,0,.29.74,2.36,2.36,0,0,0,.75.51c.31.14.65.28,1,.42a11.46,11.46,0,0,1,1.37.59,2.49,2.49,0,0,1,.9.75,2.11,2.11,0,0,1,.32,1.25,2.79,2.79,0,0,1-.42,1.55,2.67,2.67,0,0,1-1.16,1A3.92,3.92,0,0,1,151,82.43Z"/><path d="M158,71.43a.86.86,0,0,1-.71-.42.8.8,0,0,1,0-.84.86.86,0,0,1,.3-.3.81.81,0,0,1,.41-.11.82.82,0,0,1,.42.11,1,1,0,0,1,.31.3.81.81,0,0,1,.11.41.89.89,0,0,1-.11.43.81.81,0,0,1-.31.3A.74.74,0,0,1,158,71.43Zm-.64,10.72V73.22h1.28v8.93Z"/><path d="M166.31,87a5.67,5.67,0,0,1-2.87-.67,4.07,4.07,0,0,1-1.74-1.94l1.08-.49a3.21,3.21,0,0,0,1.36,1.47,4.31,4.31,0,0,0,2.17.54,4,4,0,0,0,1.82-.4,3,3,0,0,0,1.28-1.18,3.47,3.47,0,0,0,.47-1.84V80.27a4.27,4.27,0,0,1-1.54,1.59,4.44,4.44,0,0,1-4.42,0,4.38,4.38,0,0,1-1.6-1.68,5,5,0,0,1-.59-2.45,5,5,0,0,1,.59-2.44,4.39,4.39,0,0,1,1.59-1.69,4.21,4.21,0,0,1,2.29-.62,4.29,4.29,0,0,1,2.16.56,4.05,4.05,0,0,1,1.52,1.58V73.22h1.27V82.4a5,5,0,0,1-.58,2.5,3.75,3.75,0,0,1-1.68,1.54A6,6,0,0,1,166.31,87Zm.17-5.63a3.44,3.44,0,0,0,1.79-.47,3.3,3.3,0,0,0,1.22-1.29,4.17,4.17,0,0,0,0-3.77,3.3,3.3,0,0,0-1.22-1.29,3.67,3.67,0,0,0-3.56,0,3.23,3.23,0,0,0-1.22,1.29,3.88,3.88,0,0,0-.45,1.89,4,4,0,0,0,.44,1.88,3.3,3.3,0,0,0,1.22,1.29A3.43,3.43,0,0,0,166.48,81.33Z"/><path d="M174.9,82.15V73.22h1.28v1.22a2.93,2.93,0,0,1,1.13-1.07,3.79,3.79,0,0,1,1.88-.43,3.62,3.62,0,0,1,1.79.42,2.85,2.85,0,0,1,1.15,1.25,4.38,4.38,0,0,1,.4,2v5.57h-1.27V76.82a3.13,3.13,0,0,0-.65-2.12,2.32,2.32,0,0,0-1.82-.72,2.76,2.76,0,0,0-1.4.32,2.35,2.35,0,0,0-.9.87,2.22,2.22,0,0,0-.31,1.16v5.82Z"/><path d="M109.61,82.34a5.27,5.27,0,0,1-2.52-.6,4.6,4.6,0,0,1-2.43-4.15,4.57,4.57,0,0,1,2.43-4.14,5.51,5.51,0,0,1,5,0,4.83,4.83,0,0,1,1.78,6.61,4.57,4.57,0,0,1-1.78,1.68A5.27,5.27,0,0,1,109.61,82.34Zm0-1.13a3.84,3.84,0,0,0,1.87-.46,3.37,3.37,0,0,0,1.29-1.28,4,4,0,0,0,0-3.75,3.37,3.37,0,0,0-1.29-1.28,3.73,3.73,0,0,0-1.87-.46,3.67,3.67,0,0,0-1.86.46,3.47,3.47,0,0,0-1.3,1.28,4,4,0,0,0,0,3.74,3.43,3.43,0,0,0,1.3,1.29A3.77,3.77,0,0,0,109.61,81.21Z"/><ellipse class="cls-2" cx="113.42" cy="82.43" rx="1.56" ry="3.2" transform="translate(-3.26 160.17) rotate(-69.68)"/><line class="cls-3" x1="109.93" y1="80.57" x2="109.25" y2="79.81"/><line class="cls-3" x1="109.57" y1="81.63" x2="108.52" y2="81.78"/><ellipse class="cls-2" cx="108.32" cy="81.81" rx="0.21" ry="0.2" transform="translate(-6.01 154.98) rotate(-69.68)"/><ellipse class="cls-2" cx="109.12" cy="79.66" rx="0.21" ry="0.2" transform="translate(-3.47 154.33) rotate(-69.68)"/><ellipse class="cls-2" cx="110.64" cy="81.4" rx="1.12" ry="1.08" transform="translate(-4.11 156.89) rotate(-69.68)"/><path class="cls-4" d="M112.52,81.51l-1.23-.46c-.37-.14-.49-.75-.26-1.36v0a5.12,5.12,0,0,1,1.39-2.08h0c.61-.52,1.24-.27,1.35.54h0a5.78,5.78,0,0,1-.35,2.67h0C113.23,81.3,112.83,81.62,112.52,81.51Z"/><path class="cls-5" d="M112.29,81.46l-.78-.9a.82.82,0,0,1,.23-1.09h0a3.24,3.24,0,0,1,1.69-.83h0a.74.74,0,0,1,.84,1h0a3.71,3.71,0,0,1-1.1,1.74h0A.63.63,0,0,1,112.29,81.46Z"/><path class="cls-4" d="M112.15,82.51l-1.23-.45c-.37-.14-.86.24-1.09.86h0a5,5,0,0,0-.31,2.48h0c.13.8.77,1,1.37.48h0a5.71,5.71,0,0,0,1.48-2.26h0C112.55,83.13,112.46,82.62,112.15,82.51Z"/><path class="cls-5" d="M111.94,82.4l-1.17.17a.83.83,0,0,0-.54,1h0A3.24,3.24,0,0,0,111,85.3h0a.74.74,0,0,0,1.3-.22h0a3.73,3.73,0,0,0,.29-2h0C112.51,82.64,112.23,82.35,111.94,82.4Z"/><ellipse class="cls-2" cx="76.81" cy="60.95" rx="2.25" ry="4.61" transform="matrix(0.91, -0.42, 0.42, 0.91, -18.44, 37.64)"/><line class="cls-3" x1="75.14" y1="55.49" x2="75.23" y2="54.03"/><line class="cls-3" x1="73.7" y1="56.21" x2="72.48" y2="55.29"/><ellipse class="cls-2" cx="72.24" cy="55.11" rx="0.3" ry="0.29" transform="translate(-16.41 35.2) rotate(-24.68)"/><ellipse class="cls-2" cx="75.25" cy="53.73" rx="0.3" ry="0.29" transform="translate(-15.56 36.33) rotate(-24.68)"/><ellipse class="cls-2" cx="75.02" cy="57.06" rx="1.61" ry="1.56" transform="translate(-16.97 36.54) rotate(-24.68)"/><path class="cls-4" d="M76.84,59.09l-.79-1.72c-.24-.52.26-1.26,1.12-1.66h0a7.29,7.29,0,0,1,3.53-.7h0c1.16.09,1.55,1,.84,1.92h0a8.27,8.27,0,0,1-3.08,2.36h0C77.77,59.61,77,59.52,76.84,59.09Z"/><path class="cls-5" d="M76.64,58.81l.13-1.71c0-.52.64-.92,1.35-.88h0a4.66,4.66,0,0,1,2.57.87h0a1.08,1.08,0,0,1-.17,1.9h0a5.57,5.57,0,0,1-2.9.65h0C77.06,59.61,76.61,59.24,76.64,58.81Z"/><path class="cls-4" d="M75.43,59.74,74.64,58c-.24-.52-1.13-.63-2-.23h0A7.29,7.29,0,0,0,69.79,60h0c-.68.94-.25,1.81.92,1.88h0a8.23,8.23,0,0,0,3.8-.79h0C75.22,60.78,75.63,60.17,75.43,59.74Z"/><path class="cls-5" d="M75.34,59.41l-1.38-1a1.19,1.19,0,0,0-1.55.45h0a4.64,4.64,0,0,0-1,2.53h0a1.07,1.07,0,0,0,1.55,1.1h0a5.4,5.4,0,0,0,2.37-1.77h0A.93.93,0,0,0,75.34,59.41Z"/></g></g></svg>