<svg xmlns="http://www.w3.org/2000/svg" viewBox="0 0 252 144"><defs><style>.cls-1{fill:#eaeaea;}.cls-2{fill:#fff;}.cls-3{fill:#23d1e4;}.cls-4{fill:#2b2927;}.cls-5,.cls-6{fill:none;}.cls-5{stroke:#23d1e4;}.cls-6{stroke:#fff;stroke-linecap:round;stroke-miterlimit:4;stroke-width:0.75px;}</style></defs><g id="Layer_2" data-name="Layer 2"><g id="Layer_2-2" data-name="Layer 2"><rect class="cls-1" width="252" height="144"/><g id="ON_slider" data-name="ON slider"><path id="Rectangle_14-2" data-name="Rectangle 14-2" class="cls-2" d="M72.21,63.85h5.21a2.84,2.84,0,0,1,2.84,2.83h0a2.84,2.84,0,0,1-2.84,2.84H72.21a2.84,2.84,0,0,1-2.83-2.84h0A2.83,2.83,0,0,1,72.21,63.85Z"/><ellipse id="Ellipse_2-2" data-name="Ellipse 2-2" class="cls-3" cx="77.47" cy="66.68" rx="2.42" ry="2.37"/><path id="ON" class="cls-4" d="M70.88,66.79a.84.84,0,0,1,.11-.41.72.72,0,0,1,.3-.3.8.8,0,0,1,.4-.11.88.88,0,0,1,.42.11.92.92,0,0,1,.3.29.76.76,0,0,1,.1.41.72.72,0,0,1-.1.41.79.79,0,0,1-.3.3.84.84,0,0,1-.41.11.87.87,0,0,1-.41-.11.83.83,0,0,1-.3-.29A.87.87,0,0,1,70.88,66.79Zm1.47,0a.58.58,0,0,0-.19-.46.64.64,0,0,0-.93,0,.67.67,0,0,0-.19.47.68.68,0,0,0,.66.66.66.66,0,0,0,.46-.19.63.63,0,0,0,.19-.48Zm.47.78V66h0l1,1.19V66H74v1.55h0l-1-1.17v1.17Z"/></g><g id="OFF_slider" data-name="OFF slider"><path id="Rectangle_15-2" data-name="Rectangle 15-2" class="cls-3" d="M72.05,73.32h5.21a2.84,2.84,0,0,1,2.84,2.84h0A2.84,2.84,0,0,1,77.26,79H72.05a2.84,2.84,0,0,1-2.84-2.83h0A2.84,2.84,0,0,1,72.05,73.32Z"/><circle id="Ellipse_3-2" data-name="Ellipse 3-2" class="cls-2" cx="72.05" cy="76.16" r="2.37"/><path id="OFF" class="cls-2" d="M75.26,76.26a.87.87,0,0,1,.11-.41.76.76,0,0,1,.29-.3.87.87,0,0,1,.41-.11.84.84,0,0,1,.41.11.72.72,0,0,1,.3.3.8.8,0,0,1,.11.4.81.81,0,0,1-.11.41.76.76,0,0,1-.29.3.87.87,0,0,1-.41.11.81.81,0,0,1-.41-.11.76.76,0,0,1-.3-.29A.81.81,0,0,1,75.26,76.26Zm1.47,0a.67.67,0,0,0-.19-.47.65.65,0,0,0-.47-.2.67.67,0,0,0-.65.67.7.7,0,0,0,.19.47.66.66,0,0,0,.93,0,.64.64,0,0,0,.19-.47Zm.47-.78H78v.16h-.62v.48H78v.15h-.62V77H77.2Zm1,0H79v.16H78.4v.48H79v.15H78.4V77h-.16Z"/></g><g id="Group_25" data-name="Group 25"><g id="Rectangle_13" data-name="Rectangle 13"><rect class="cls-3" x="177.44" y="72.74" width="5.34" height="5.26" rx="1.43"/><rect class="cls-5" x="177.49" y="72.78" width="5.26" height="5.17" rx="1.38"/></g><g id="checkmark"><line id="Line_1" data-name="Line 1" class="cls-6" x1="178.86" y1="75.41" x2="179.8" y2="76.17"/><g id="Group_21" data-name="Group 21"><line id="Line_2" data-name="Line 2" class="cls-6" x1="181.35" y1="74.6" x2="179.8" y2="76.17"/></g></g></g><path d="M88.14,79a5.15,5.15,0,0,1-1.87-2.11,6.61,6.61,0,0,1-.64-2.92V67a1.15,1.15,0,0,0-.2-.69.64.64,0,0,0-.56-.28,1,1,0,0,0-.86.55l-.94-.67a2,2,0,0,1,.69-.76,2.09,2.09,0,0,1,2.57.3A2.2,2.2,0,0,1,86.89,67v6.89a5.58,5.58,0,0,0,.48,2.35,3.92,3.92,0,0,0,1.42,1.67,4,4,0,0,0,2.24.62,3.9,3.9,0,0,0,2.31-.67,4,4,0,0,0,1.36-1.74,5.62,5.62,0,0,0,.44-2.23V65.16H96.4v8.76a6.79,6.79,0,0,1-.59,2.82A5,5,0,0,1,94,78.9a5.09,5.09,0,0,1-3,.83A5.32,5.32,0,0,1,88.14,79Z"/><path d="M100.29,65.16h1.28V79.52h-1.28Z"/><path d="M114.91,79.67l-1.23,0-1-.11V66.21a3,3,0,0,0-.62.05.82.82,0,0,0-.35.2,1.17,1.17,0,0,0-.22.35,1.09,1.09,0,0,0-.09.41l-1.16,0a2.3,2.3,0,0,1,.63-1.58,2,2,0,0,1,.75-.43,4.26,4.26,0,0,1,1.08-.16l5.5,0A6.46,6.46,0,0,1,124,68.67a8.14,8.14,0,0,1,.85,3.74,6.84,6.84,0,0,1-2.11,5.44q-2.11,1.84-6.29,1.84C116,79.69,115.44,79.69,114.91,79.67ZM121.8,77a5.63,5.63,0,0,0,1.82-4.53,7.11,7.11,0,0,0-.71-3.25,5.18,5.18,0,0,0-2-2.17,5.48,5.48,0,0,0-2.93-.78H114V78.41l.63,0c.81.06,1.45.09,1.93.09A7.89,7.89,0,0,0,121.8,77Z"/><path d="M129.18,79.08a4.14,4.14,0,0,1-1.65-1.79,5.91,5.91,0,0,1-.55-2.6,7.57,7.57,0,0,1,.53-2.77,5.28,5.28,0,0,1,1.62-2.2,4.07,4.07,0,0,1,2.64-.86,4.54,4.54,0,0,1,1.91.4,3.3,3.3,0,0,1,1.39,1.13,2.85,2.85,0,0,1,.52,1.7,2.7,2.7,0,0,1-1.33,2.41,6.61,6.61,0,0,1-3.65.82l-2.31,0a3.91,3.91,0,0,0,1.08,2.46,3.47,3.47,0,0,0,2.47.84,5.78,5.78,0,0,0,1.75-.26,6,6,0,0,0,1.57-.81l.63.84a6.54,6.54,0,0,1-1.82,1,6.35,6.35,0,0,1-2.13.36A5.08,5.08,0,0,1,129.18,79.08Zm5.15-7a1.8,1.8,0,0,0-.73-1.57,3.31,3.31,0,0,0-3.76.16,4.06,4.06,0,0,0-1.2,1.66,5,5,0,0,0-.4,1.91h2.64Q134.33,74.23,134.33,72.07Z"/><path d="M137.18,78.14l.7-.84a7.52,7.52,0,0,0,1.58,1,4.18,4.18,0,0,0,1.69.34,2.74,2.74,0,0,0,1.78-.53,1.84,1.84,0,0,0,.64-1.46,1.54,1.54,0,0,0-.29-1,2.26,2.26,0,0,0-.75-.6c-.32-.15-.88-.4-1.69-.73s-1.32-.58-1.72-.8a2.83,2.83,0,0,1-1-.83,2.06,2.06,0,0,1-.36-1.25,2.48,2.48,0,0,1,.88-2,3.53,3.53,0,0,1,2.36-.75,5.54,5.54,0,0,1,1.5.21,3.75,3.75,0,0,1,1.27.61l-.53.9a4.11,4.11,0,0,0-2.18-.58,2.54,2.54,0,0,0-1.49.37,1.26,1.26,0,0,0-.53,1.07,1.32,1.32,0,0,0,.29.87,2.3,2.3,0,0,0,.73.55c.3.15.8.36,1.5.64a14.1,14.1,0,0,1,1.86.87,3.06,3.06,0,0,1,1,.95,2.4,2.4,0,0,1,.37,1.37,2.89,2.89,0,0,1-1,2.32,4,4,0,0,1-2.7.88A5.84,5.84,0,0,1,137.18,78.14Z"/><path d="M147,67.4a.87.87,0,0,1-.26-.62.88.88,0,0,1,.26-.64.84.84,0,0,1,.62-.27.85.85,0,0,1,.64.27.84.84,0,0,1,.26.64.83.83,0,0,1-.26.62.88.88,0,0,1-.64.26A.87.87,0,0,1,147,67.4Zm1.51,10.85a.63.63,0,0,0,.48.2.63.63,0,0,0,.6-.35l.93.69a1.36,1.36,0,0,1-.59.6,1.88,1.88,0,0,1-.94.24,1.91,1.91,0,0,1-1.39-.53,1.82,1.82,0,0,1-.55-1.36V69h1.26v8.74A.66.66,0,0,0,148.51,78.25Z"/><path d="M155.26,85a3.07,3.07,0,0,1-1.15-1.14,3.14,3.14,0,0,1-.42-1.61,3.19,3.19,0,0,1,1.2-2.58,4.24,4.24,0,0,1-2.62-1.88,6.33,6.33,0,0,1-1-3.56,5.83,5.83,0,0,1,.66-2.83,4.51,4.51,0,0,1,1.83-1.89,5.46,5.46,0,0,1,2.74-.68,6.25,6.25,0,0,1,1.16.07l1.26.14h1.2V82a3.45,3.45,0,0,1-.9,2.48,3.05,3.05,0,0,1-2.34.94A3.21,3.21,0,0,1,155.26,85Zm2.27-7.16a4.43,4.43,0,0,0,1-1,2,2,0,0,0,.37-1V70.12L156.94,70h-.69a3.41,3.41,0,0,0-1.9.56A3.75,3.75,0,0,0,153,72.1a4.91,4.91,0,0,0-.49,2.2,5.33,5.33,0,0,0,.42,2.13A3.86,3.86,0,0,0,154.09,78a2.42,2.42,0,0,0,1.55.57A3,3,0,0,0,157.53,77.8Zm.79,5.78a2.73,2.73,0,0,0,.54-1.68V77.82s-.13.18-.31.43a3.13,3.13,0,0,1-.62.69,6.86,6.86,0,0,1-1.2.79l-.65.4A2.31,2.31,0,0,0,155,82.19a1.89,1.89,0,0,0,.58,1.41,1.94,1.94,0,0,0,1.42.57A1.65,1.65,0,0,0,158.32,83.58Z"/><path d="M174,78.79a1.34,1.34,0,0,1-.58.6A2,2,0,0,1,171,79.1a1.78,1.78,0,0,1-.55-1.36V72.47c0-1.68-.76-2.52-2.27-2.52a3.16,3.16,0,0,0-1.83.53,7.51,7.51,0,0,0-1.55,1.61v7.43h-1.26V72.15a3.07,3.07,0,0,0-.88-2.43l.84-.84a2.53,2.53,0,0,1,.72.71,3.18,3.18,0,0,1,.5,1,4.15,4.15,0,0,1,3.57-1.83,3.59,3.59,0,0,1,2.43.79,3.19,3.19,0,0,1,1,2.32v5.84a.66.66,0,0,0,.2.49.61.61,0,0,0,.47.2.65.65,0,0,0,.61-.35Z"/></g></g></svg>