<svg xmlns="http://www.w3.org/2000/svg" viewBox="0 0 252 144"><defs><style>.cls-1{fill:#eaeaea;}.cls-2{fill:#bce05a;}.cls-3{fill:#fdd9ae;stroke-miterlimit:4;}.cls-3,.cls-4,.cls-5{stroke:#f5b54f;}.cls-3,.cls-4,.cls-5,.cls-7,.cls-8,.cls-9{stroke-width:0.25px;}.cls-4,.cls-5{fill:none;}.cls-6{fill:#c8f427;}.cls-7,.cls-8,.cls-9{fill:#fde2ae;stroke:#f8c676;}.cls-9{stroke-miterlimit:3.98;}</style></defs><g id="Layer_2" data-name="Layer 2"><g id="Layer_3" data-name="Layer 3"><rect class="cls-1" width="252" height="144"/><path id="Path_1-2" data-name="Path 1-2" class="cls-2" d="M112.72,53.87,112.3,43l-3.85-7.48,7.21,8.92,5.1,7.21,3.07-8,.28-4.81,2.43,6.89,1.85,3.84,4.84-6.47,7.46-12.44-6.83,16.1,1.65,4.9L144,48.88l4.51-3.68,5.63-4.49L141.7,57.94,153,59.36l13.3-2.3-13.47,5-10,5.3,6.15,5.13,12.29,5.52-16.74-1,6.5,14.65,5.49,8.64-10.65-12-8.28-6.68-6.55,11.42.56,23.13L124.08,87l-9.66,19.21,4-15.37-2.37-12.19-9.34,3.83L92.86,92.88,98.05,87l8.28-15.86-16.77-8.6,9.81,2.23,7.41-1.2L93.16,43.14,102,50.57Z"/><g id="Component_2_1" data-name="Component 2 1"><g id="Component_1_1" data-name="Component 1 1"><path id="Path_2-2" data-name="Path 2-2" class="cls-3" d="M107,65.09c1.31-2.46.47-4.77,4.48-6.72,1.64-.79,3-2,5.87-2.27A11.78,11.78,0,0,1,123,57.31a10.31,10.31,0,0,1,3-1.22c1.48-.25,2,.26,2.9.2a12.46,12.46,0,0,1,2.66-.2c1.17.1,1.29.47,2,.63,3.83.8,3.37,2,4.69,3.79.75,1,1.53-.39,2.52,2.65a29.59,29.59,0,0,1,1.74,5.51,6.38,6.38,0,0,1-.28,4c-.52,1.85-.09,2.43-2.15,4.33a12.3,12.3,0,0,1-6.08,3.27c-1.76.52-2.77.53-5.53.15a22.17,22.17,0,0,1-5.52-1.7s-4.74-.08-6.28-.81c-4.1-1.93-3.18-4-3.18-4s-.72-.06-2.13-.07c-2.09.32-1.92.12-3.52-.69s-1.35-1.61-1.86-3.18a4,4,0,0,1-.46-2.46A6,6,0,0,1,107,65.09Z"/><path id="Path_3-2" data-name="Path 3-2" class="cls-4" d="M106.38,71.28a5.49,5.49,0,0,1,2.47-4.1c2.84-2.31,3.87-1.22,3.87-1.22a7.63,7.63,0,0,1,3-3.43c2.25-1.4,2.57-.56,2.57-.56a8.45,8.45,0,0,1,1-2.57c.72-1,3.71-2,3.71-2"/><path id="Path_4-2" data-name="Path 4-2" class="cls-4" d="M130.87,59.64a10.55,10.55,0,0,0-1-.19,1.79,1.79,0,0,0-.76.13,3.34,3.34,0,0,0-1.29,1.56,25.67,25.67,0,0,0-1,3.1,7.34,7.34,0,0,0-2.5,1,11.72,11.72,0,0,0-2,2,7.28,7.28,0,0,0-3.69,1.34c-.46.43-3,2.71-3,3.78s-2.06,1.76-2.06,1.76"/><path id="Path_6-2" data-name="Path 6-2" class="cls-4" d="M112.44,74c.07-.88-2-2.15-2.16-3.34s1.5-2.63,2-3.06c2.51-2.07,4-1.4,4-1.4s-.53-1.09,1.45-2.34,2.53-.46,2.53-.46a15.65,15.65,0,0,1,1.17-2.31c.64-.94,2.74-.52,2.74-.52s1-2.45,5.43-1.36,2.62,3.92,2.62,3.92a7.19,7.19,0,0,1-1.83,2.41,7,7,0,0,1-2.77,1.17S126.4,69.9,125,71.07a2.6,2.6,0,0,1-2.88.31A5,5,0,0,1,120,75a4.1,4.1,0,0,1-3.91-.55,3.27,3.27,0,0,1-1.18.55,4.06,4.06,0,0,1-1.39,0"/><path id="Path_7" data-name="Path 7" class="cls-4" d="M127.76,61.06s-2.73-1.32-3.51.78a2.2,2.2,0,0,0,0,1.8s-1.23.17-1.54.76,0,.84-.81,1.07-2.42-.18-4,.44a4.89,4.89,0,0,0-2.35,2s-1.58.69-2,1.55.16,1.22.37,1.91a1.42,1.42,0,0,0,1.62.89"/><path id="Path_9-2" data-name="Path 9-2" class="cls-4" d="M116.31,77.8a6.17,6.17,0,0,0,4.14-.5,13,13,0,0,0,3.85-3.64,7.49,7.49,0,0,0,3-2.14,9,9,0,0,0,1.39-3.63,14.43,14.43,0,0,0,3-1.79,3.89,3.89,0,0,0,1.32-2,8,8,0,0,0,3.95-.09c1.49-.65-.16-4.18-.16-4.18"/><path id="Path_10" data-name="Path 10" class="cls-4" d="M128.34,59a4.37,4.37,0,0,1,2.47-1,1.25,1.25,0,0,1,1.37,1.42,3.58,3.58,0,0,1,1.88-.44,3.23,3.23,0,0,1,1.61,1,5.16,5.16,0,0,1,1.51,0,3,3,0,0,1,1.28.8"/><path id="Path_11" data-name="Path 11" class="cls-4" d="M122.2,71.41a2.88,2.88,0,0,1-.38-.22,1.76,1.76,0,0,1-.37-.49"/><path id="Path_12" data-name="Path 12" class="cls-4" d="M127.6,66.7l-.37,0-.37-.07"/><path id="Path_13" data-name="Path 13" class="cls-4" d="M120.23,63.41c0,.28-.08.19-.15.56a.92.92,0,0,0,0,.52"/><path id="Path_14" data-name="Path 14" class="cls-4" d="M136.93,64c-.51,3.52-.75,6.19-2.26,7.49a10,10,0,0,1-3.75,1.37,6.22,6.22,0,0,1-2.57,2.2,6.34,6.34,0,0,1-3.39,0l-3.85,1.84"/><path id="Path_15" data-name="Path 15" class="cls-5" d="M121.5,61c-.69-1.34.73-2.42,1.46-2.67a2.86,2.86,0,0,1,2.27,0,3.53,3.53,0,0,1,1.65-1,3.22,3.22,0,0,1,1.83.4,5,5,0,0,1,2.93-.65,3.66,3.66,0,0,1,2.1,1.84"/><path id="Path_16" data-name="Path 16" class="cls-4" d="M125.19,58.28c.41.21.48.34.48.34"/><path id="Path_17" data-name="Path 17" class="cls-4" d="M115.62,67.77c-.05.29-.07.19-.14.57a.89.89,0,0,0,0,.51"/><path id="Path_18" data-name="Path 18" class="cls-4" d="M118.29,62c0,.28,0,.19-.06.56a2.26,2.26,0,0,0,0,.52"/><path id="Path_19" data-name="Path 19" class="cls-4" d="M112.72,65.87c0,.28-.08.19-.15.54a.89.89,0,0,0,0,.51"/><path id="Path_20" data-name="Path 20" class="cls-4" d="M109.18,66.93c.68-1.27,0-2.56,1.11-3.68s3.2-.82,3.2-.82.82-2.63,2.62-3.54a4.46,4.46,0,0,1,3.68,0"/><path id="Path_21" data-name="Path 21" class="cls-4" d="M113.49,62.42c0,.27-.13.26-.19.61a.82.82,0,0,0,0,.49"/><path id="Path_22-2" data-name="Path 22-2" class="cls-4" d="M107.87,68c-.76-1.34,1.54-5.23,2.26-6a6.48,6.48,0,0,1,3.28-1.87"/><path id="Path_23" data-name="Path 23" class="cls-4" d="M112.45,61.35s1.77-2.7,4-3.37,2.36.58,2.36.58"/><path id="Path_24-2" data-name="Path 24-2" class="cls-4" d="M115.9,71.48c.71,0,2,1.24,2.93.82,1.37-.65,2.66-3.55,2.66-3.55a6.62,6.62,0,0,0,3-.3c1.33-.54,1.82-3,1.82-3s3.87-2,4.27-3.56-2.21-1.7-2.21-1.7"/><path id="Path_25" data-name="Path 25" class="cls-4" d="M121.76,68.78a3.49,3.49,0,0,1-1.1-.23"/><path id="Path_26" data-name="Path 26" class="cls-4" d="M127.46,71.32A5.25,5.25,0,0,0,130.91,69a3.39,3.39,0,0,0,.5-1.47,5.11,5.11,0,0,0,3-.58,3.76,3.76,0,0,0,1-2.58"/><path id="Path_28-2" data-name="Path 28-2" class="cls-4" d="M141.55,65.05c-.52,3.54.37,3.26-.87,5.68s-5.12,3.07-5.12,3.07A6.29,6.29,0,0,1,133,76a6.37,6.37,0,0,1-3.4,0,6.41,6.41,0,0,1-3.31,1.31,4.36,4.36,0,0,1-2.7-1.59"/><path id="Path_29-2" data-name="Path 29-2" class="cls-4" d="M136.29,68c2.55-.84,3.06-1.55,3.64-3s-2.44-2.62-2.44-2.62"/><path id="Path_30" data-name="Path 30" class="cls-4" d="M130.86,72.93a2.51,2.51,0,0,0,.26-.45,1.58,1.58,0,0,0,.1-.43"/><path id="Path_31" data-name="Path 31" class="cls-4" d="M131.41,67.59s0-.24,0-.43a2,2,0,0,0,0-.35"/><path id="Path_32" data-name="Path 32" class="cls-4" d="M124.29,73.67l-.37.14-.65.2"/><path id="Path_33" data-name="Path 33" class="cls-4" d="M135.68,73.78a1.83,1.83,0,0,1-.47,0,2.17,2.17,0,0,1-.43-.08"/><path id="Path_34" data-name="Path 34" class="cls-4" d="M126.77,64.21s0,.32-.06.42"/><path id="Path_35-2" data-name="Path 35-2" class="cls-4" d="M140.88,70.33c-.5,1,.12,2.87-.9,4-1.39,1.54-4.44,2.15-4.44,2.15a6.3,6.3,0,0,1-2.57,2.2c-1.49.55-4.22-.46-4.22-.46a29.06,29.06,0,0,1-4.51.46,14.07,14.07,0,0,1-3.93-1.21"/><path id="Path_36" data-name="Path 36" class="cls-4" d="M135.68,76.45a1.83,1.83,0,0,1-.47,0,3.25,3.25,0,0,1-.43-.08"/><path id="Path_37" data-name="Path 37" class="cls-4" d="M128.78,78.23l-.35-.15a1,1,0,0,1-.32-.26"/><path id="Path_40" data-name="Path 40" class="cls-4" d="M131.08,78.76A2.57,2.57,0,0,0,133,80a12.07,12.07,0,0,0,3.65-.44"/><path id="Path_27-2" data-name="Path 27-2" class="cls-4" d="M136.94,64c-.52,3.52-.76,6.19-2.27,7.49a10,10,0,0,1-3.75,1.37A7.12,7.12,0,0,1,129,74.73a3.56,3.56,0,0,1-.65.32,6.34,6.34,0,0,1-3.39,0l-3.86,1.84"/></g><path id="Path_44" data-name="Path 44" class="cls-2" d="M105.41,73.31l4.08-3.51,2.7,1.17L115,68.78l6.95-1-6.95,2-2.82,2.73h-3.48L106.77,75"/><path id="Path_45" data-name="Path 45" class="cls-2" d="M134.82,55.23l-1.58,4.29-2.6,1.16v3.08l.68-2.66,2.67-.42,3.16-4.59"/><path id="Path_46" data-name="Path 46" class="cls-2" d="M113.2,54l2.5,6.26,5.56.63,4.31,6.8-3.4-7.43-5.73-1.11L115.7,54"/><path id="Path_47" data-name="Path 47" class="cls-2" d="M142.27,81.67l-5.87-5.11L134,66.49,137.6,75l8.69,4.18"/><path id="Path_48-2" data-name="Path 48-2" class="cls-6" d="M126.11,75.35l5.38,23.7-4.11-23.7"/><path id="Path_49-2" data-name="Path 49-2" class="cls-6" d="M127.51,58.81,127,34.67l1.13,20.59.16,3a5.41,5.41,0,0,1,0,.63"/></g><path id="Path_50-2" data-name="Path 50-2" class="cls-6" d="M136.69,66.25l1.21-.3L167,57,136.51,67.35"/><path id="Path_51-2" data-name="Path 51-2" class="cls-6" d="M113.06,65,97.86,47.07l16.77,16.14"/><path d="M41.66,79.31V59.74h4.41a9.94,9.94,0,0,1,3.88.75,9.63,9.63,0,0,1,5.24,5.2,10.17,10.17,0,0,1,0,7.69,9.54,9.54,0,0,1-2.1,3.12A9.44,9.44,0,0,1,50,78.57a10,10,0,0,1-3.89.74Zm1.8-1.61h2.45a8.29,8.29,0,0,0,3.2-.62,8.06,8.06,0,0,0,2.59-1.73,7.94,7.94,0,0,0,1.73-2.6,8.67,8.67,0,0,0,0-6.44A8,8,0,0,0,49.11,62a8.29,8.29,0,0,0-3.2-.62H43.46Z"/><path d="M61.31,64.73a1.1,1.1,0,0,1-.57-.15,1.08,1.08,0,0,1-.4-.42,1.08,1.08,0,0,1,0-1.13,1.12,1.12,0,0,1,.4-.41,1.16,1.16,0,0,1,1.14,0,1.21,1.21,0,0,1,.41.4,1,1,0,0,1,.16.56,1,1,0,0,1-.16.58,1.1,1.1,0,0,1-1,.57Zm-.87,14.58V67.17h1.73V79.31Z"/><path d="M72.66,85.84a7.8,7.8,0,0,1-3.89-.9,5.48,5.48,0,0,1-2.36-2.64l1.46-.67a4.3,4.3,0,0,0,1.85,2,5.84,5.84,0,0,0,2.94.74,5.43,5.43,0,0,0,2.49-.55,4.17,4.17,0,0,0,1.73-1.6,4.74,4.74,0,0,0,.64-2.5v-3a5.64,5.64,0,0,1-5,2.94,5.71,5.71,0,0,1-3.06-.83,5.84,5.84,0,0,1-2.17-2.29,6.73,6.73,0,0,1-.8-3.33,6.82,6.82,0,0,1,.79-3.32,6,6,0,0,1,2.17-2.29,5.82,5.82,0,0,1,3.11-.84,5.69,5.69,0,0,1,2.94.77,5.35,5.35,0,0,1,2.06,2.13V67.17h1.73V79.65a6.76,6.76,0,0,1-.8,3.4,5,5,0,0,1-2.27,2.08A8.09,8.09,0,0,1,72.66,85.84Zm.24-7.65a4.55,4.55,0,0,0,2.43-.64A4.44,4.44,0,0,0,77,75.8a5.68,5.68,0,0,0,0-5.12,4.44,4.44,0,0,0-1.66-1.75,4.64,4.64,0,0,0-6.5,1.75,5.39,5.39,0,0,0-.61,2.57,5.33,5.33,0,0,0,.6,2.55,4.51,4.51,0,0,0,1.66,1.75A4.58,4.58,0,0,0,72.9,78.19Z"/><path d="M85.2,64.73a1.14,1.14,0,0,1-1-1.7,1.15,1.15,0,0,1,.41-.41,1.09,1.09,0,0,1,.56-.15,1.11,1.11,0,0,1,.58.15,1.21,1.21,0,0,1,.41.4,1.09,1.09,0,0,1,.15.56,1.12,1.12,0,0,1-1.14,1.15Zm-.86,14.58V67.17h1.73V79.31Z"/><path d="M94.22,79.69a2.58,2.58,0,0,1-2.12-.92,4,4,0,0,1-.75-2.59V68.47H90.12v-1.3h1.23V62.62h1.73v4.55h3v1.3h-3v7.62a2.59,2.59,0,0,0,.39,1.54,1.3,1.3,0,0,0,1.12.53,2,2,0,0,0,1.23-.39l.44,1.38a3.77,3.77,0,0,1-1,.4A4.53,4.53,0,0,1,94.22,79.69Z"/><path d="M105.18,79.69a5.72,5.72,0,0,1-3.07-.83,6,6,0,0,1-2.18-2.3,7.33,7.33,0,0,1,0-6.64,6.1,6.1,0,0,1,2.16-2.29,6.16,6.16,0,0,1,6.09-.07,5,5,0,0,1,2,2.13V67.17H112V79.31h-1.74V76.75a5.78,5.78,0,0,1-2.09,2.16A5.67,5.67,0,0,1,105.18,79.69Zm.43-1.5a4.47,4.47,0,0,0,4.07-2.39,5.72,5.72,0,0,0,0-5.12A4.44,4.44,0,0,0,108,68.93a4.9,4.9,0,0,0-4.84,0,4.44,4.44,0,0,0-1.66,1.75,5.68,5.68,0,0,0,0,5.12,4.5,4.5,0,0,0,4.08,2.39Z"/><path d="M117.05,79.31V58.91h1.73v20.4Z"/><path d="M130.63,79.31V59.74h4.42a10,10,0,0,1,3.88.75,9.66,9.66,0,0,1,5.23,5.2,9.65,9.65,0,0,1,.76,3.85,9.78,9.78,0,0,1-.75,3.84,9.49,9.49,0,0,1-5.24,5.19,10,10,0,0,1-3.88.74Zm1.81-1.61h2.44a8.22,8.22,0,0,0,3.2-.62,8.1,8.1,0,0,0,2.6-1.73,7.92,7.92,0,0,0,1.72-2.6,8.67,8.67,0,0,0,0-6.44,8,8,0,0,0-1.72-2.6,8.13,8.13,0,0,0-2.6-1.74,8.22,8.22,0,0,0-3.2-.62h-2.44Z"/><path d="M155.12,79.69a6.87,6.87,0,0,1-3.41-.84,6.09,6.09,0,0,1-2.35-2.29,6.34,6.34,0,0,1-.86-3.27,6.47,6.47,0,0,1,1.86-4.62,6.65,6.65,0,0,1,2-1.39,6.31,6.31,0,0,1,2.48-.49,6.47,6.47,0,0,1,3.21.78,5.91,5.91,0,0,1,2.23,2.18A6.63,6.63,0,0,1,161.2,73a1.55,1.55,0,0,1,0,.23,1,1,0,0,1,0,.22H150.22a4.93,4.93,0,0,0,.64,2.51,4.69,4.69,0,0,0,1.76,1.72,5.28,5.28,0,0,0,2.57.62,5.19,5.19,0,0,0,2.48-.58A5,5,0,0,0,159.5,76l1.28.69a6,6,0,0,1-2.35,2.19A7.06,7.06,0,0,1,155.12,79.69Zm-4.8-7.59h9.14a4.24,4.24,0,0,0-.79-2,4.57,4.57,0,0,0-1.62-1.37,4.68,4.68,0,0,0-2.14-.5,5,5,0,0,0-2.19.49,4.45,4.45,0,0,0-1.61,1.37A4.23,4.23,0,0,0,150.32,72.1Z"/><path d="M168.33,79.69a4.83,4.83,0,0,1-2.66-.73,4.73,4.73,0,0,1-1.79-2.07l.92-1a4.72,4.72,0,0,0,1.49,1.81,3.42,3.42,0,0,0,2,.64,3,3,0,0,0,1.37-.31,2.47,2.47,0,0,0,1-.88,2.45,2.45,0,0,0,.38-1.37,1.74,1.74,0,0,0-.35-1.14,3.17,3.17,0,0,0-1-.72c-.45-.2-1-.43-1.67-.68a13.63,13.63,0,0,1-1.5-.7,3.73,3.73,0,0,1-1.19-1,2.42,2.42,0,0,1-.47-1.52,2.91,2.91,0,0,1,.5-1.67,3.34,3.34,0,0,1,1.38-1.15,4.54,4.54,0,0,1,2-.42,4.23,4.23,0,0,1,1.92.44,5.24,5.24,0,0,1,1.61,1.24l-.8,1a3.29,3.29,0,0,0-2.72-1.44,2.45,2.45,0,0,0-1.62.53,1.69,1.69,0,0,0-.62,1.36,1.4,1.4,0,0,0,.39,1,3.2,3.2,0,0,0,1,.69c.42.19.88.38,1.37.57.71.27,1.33.54,1.86.8a3.37,3.37,0,0,1,1.22,1,2.84,2.84,0,0,1,.44,1.69,3.8,3.8,0,0,1-.57,2.11,3.65,3.65,0,0,1-1.58,1.37A5.39,5.39,0,0,1,168.33,79.69Z"/><path d="M177.78,64.73a1.14,1.14,0,0,1-1-1.7,1.15,1.15,0,0,1,.41-.41,1.09,1.09,0,0,1,.56-.15,1.11,1.11,0,0,1,.58.15,1.21,1.21,0,0,1,.41.4,1.09,1.09,0,0,1,.15.56,1.12,1.12,0,0,1-1.14,1.15Zm-.86,14.58V67.17h1.73V79.31Z"/><path d="M189.14,85.84a7.77,7.77,0,0,1-3.89-.9,5.55,5.55,0,0,1-2.37-2.64l1.46-.67a4.32,4.32,0,0,0,1.86,2,5.84,5.84,0,0,0,2.94.74,5.42,5.42,0,0,0,2.48-.55,4.2,4.2,0,0,0,1.74-1.6,4.74,4.74,0,0,0,.63-2.5v-3a5.61,5.61,0,0,1-2.08,2.16,5.71,5.71,0,0,1-2.95.78,5.77,5.77,0,0,1-3.07-.83,6,6,0,0,1-2.17-2.29,6.83,6.83,0,0,1-.8-3.33,6.93,6.93,0,0,1,.79-3.32,6.2,6.2,0,0,1,2.17-2.29,5.83,5.83,0,0,1,3.12-.84,5.65,5.65,0,0,1,2.93.77A5.35,5.35,0,0,1,194,69.69V67.17h1.73V79.65a6.76,6.76,0,0,1-.79,3.4,5.09,5.09,0,0,1-2.27,2.08A8.13,8.13,0,0,1,189.14,85.84Zm.24-7.65a4.5,4.5,0,0,0,4.09-2.39,5.76,5.76,0,0,0,0-5.12,4.5,4.5,0,0,0-4.08-2.39,4.53,4.53,0,0,0-4.09,2.39,5.76,5.76,0,0,0,0,5.12A4.44,4.44,0,0,0,187,77.55,4.56,4.56,0,0,0,189.38,78.19Z"/><path d="M200.82,79.31V67.17h1.74v1.66a3.94,3.94,0,0,1,1.54-1.45,5,5,0,0,1,2.55-.59,4.8,4.8,0,0,1,2.43.58,3.79,3.79,0,0,1,1.57,1.69,6.05,6.05,0,0,1,.55,2.67v7.58h-1.74V72.07a4.19,4.19,0,0,0-.88-2.88,3.12,3.12,0,0,0-2.47-1,3.91,3.91,0,0,0-1.91.44A3.22,3.22,0,0,0,203,69.82a3.09,3.09,0,0,0-.42,1.58v7.91Z"/><path id="Path_54-2" data-name="Path 54-2" class="cls-7" d="M143.22,77.91a.68.68,0,0,0,.18.53c.17.16.5,0,.6,0a.35.35,0,0,0,.25-.14c.08-.11.05-.18.07-.29a.59.59,0,0,0-.14-.54c-.06,0-.17-.22-.35-.22s-.25.17-.37.22A.42.42,0,0,0,143.22,77.91Z"/><path id="Path_60-2" data-name="Path 60-2" class="cls-7" d="M129.16,46.25a1.24,1.24,0,0,0,.36,1c.33.3,1,.09,1.17,0a.84.84,0,0,0,.49-.26c.16-.2.1-.35.14-.55a1,1,0,0,0-.28-1c-.11-.1-.34-.41-.69-.41s-.48.31-.72.41A.79.79,0,0,0,129.16,46.25Z"/><path id="Path_62-2" data-name="Path 62-2" class="cls-7" d="M135,56a1.09,1.09,0,0,0,.08.47c.08.14.22,0,.27,0s.08,0,.11-.12a.84.84,0,0,0,0-.27.88.88,0,0,0-.07-.48s-.08-.19-.16-.19-.11.15-.16.19A.54.54,0,0,0,135,56Z"/><path id="Path_63-2" data-name="Path 63-2" class="cls-7" d="M134.49,57.79a.44.44,0,0,0,.12.33c.12.11.33,0,.4,0a.38.38,0,0,0,.17-.08c0-.07,0-.12,0-.19a.36.36,0,0,0-.09-.34s-.11-.13-.23-.13-.17.1-.25.13A.28.28,0,0,0,134.49,57.79Z"/><path id="Path_91-2" data-name="Path 91-2" class="cls-7" d="M121.89,84.05a1.26,1.26,0,0,0,.36,1c.33.29,1,.08,1.17,0a1,1,0,0,0,.49-.26c.16-.2.1-.35.14-.55a1.08,1.08,0,0,0-.28-1c-.11-.1-.34-.41-.69-.41s-.49.31-.72.41A.8.8,0,0,0,121.89,84.05Z"/><path id="Path_92-2" data-name="Path 92-2" class="cls-7" d="M120,81.92a1.24,1.24,0,0,0,.2.73c.18.22.53.07.64,0a.44.44,0,0,0,.27-.19.84.84,0,0,0,.08-.41,1,1,0,0,0-.15-.73c-.06-.08-.19-.3-.38-.3s-.27.22-.4.3A.64.64,0,0,0,120,81.92Z"/><path id="Path_93-2" data-name="Path 93-2" class="cls-7" d="M101.53,73.44a.91.91,0,0,0,.42.83,1.92,1.92,0,0,0,1.38,0,1.27,1.27,0,0,0,.59-.21c.18-.17.11-.3.16-.47a.75.75,0,0,0-.33-.84,1.35,1.35,0,0,0-.81-.35c-.42,0-.58.26-.85.35C101.53,72.92,101.53,73.28,101.53,73.44Z"/><path id="Path_96-2" data-name="Path 96-2" class="cls-7" d="M100.8,48.87a1.81,1.81,0,0,0,.34,1.15c.32.34.92.1,1.11,0a.87.87,0,0,0,.47-.3c.15-.24.09-.41.13-.65a1.4,1.4,0,0,0-.26-1.15c-.11-.12-.32-.48-.66-.48s-.46.36-.68.48A1,1,0,0,0,100.8,48.87Z"/><path id="Path_97-2" data-name="Path 97-2" class="cls-7" d="M145.16,71.21a1.27,1.27,0,0,0,.35,1c.34.3,1,.09,1.17,0a.9.9,0,0,0,.5-.26c.15-.2.09-.35.13-.55a1,1,0,0,0-.27-1c-.12-.1-.34-.41-.69-.41s-.49.31-.72.41A.78.78,0,0,0,145.16,71.21Z"/><path id="Path_98" data-name="Path 98" class="cls-7" d="M151.29,66.18a.58.58,0,0,0,.23.5.92.92,0,0,0,.75,0,.61.61,0,0,0,.32-.13c.1-.1.06-.18.09-.29a.48.48,0,0,0-.18-.51.73.73,0,0,0-.44-.21c-.23,0-.31.16-.47.21A.4.4,0,0,0,151.29,66.18Z"/><path id="Path_100-2" data-name="Path 100-2" class="cls-7" d="M136.21,55.8a.27.27,0,0,0,.2.26,1.16,1.16,0,0,0,.64,0,.76.76,0,0,0,.26-.06c.09-.06.06-.1.08-.15s0-.22-.15-.27a.76.76,0,0,0-.38-.11,1.14,1.14,0,0,0-.39.11C136.21,55.63,136.21,55.75,136.21,55.8Z"/><path id="Path_104-2" data-name="Path 104-2" class="cls-7" d="M138.13,76.86a.71.71,0,0,0,.14.47c.13.15.39,0,.47,0a.33.33,0,0,0,.19-.12c.07-.1,0-.17.06-.26a.63.63,0,0,0-.11-.48s-.14-.19-.28-.19-.19.15-.28.19A.4.4,0,0,0,138.13,76.86Z"/><path id="Path_105-2" data-name="Path 105-2" class="cls-7" d="M139.58,78.71a.7.7,0,0,0,.26.59c.23.18.69,0,.83,0a.66.66,0,0,0,.35-.16c.11-.12.07-.2.1-.33a.56.56,0,0,0-.2-.59.76.76,0,0,0-.49-.24c-.25,0-.35.18-.51.24A.47.47,0,0,0,139.58,78.71Z"/><path id="Path_106-2" data-name="Path 106-2" class="cls-7" d="M112,71.48a.34.34,0,0,0,.09.24c.08.07.24,0,.29,0a.34.34,0,0,0,.12-.06s0-.09,0-.14a.23.23,0,0,0-.07-.23.23.23,0,0,0-.17-.1c-.08,0-.11.07-.17.1A.18.18,0,0,0,112,71.48Z"/><path id="Path_107-2" data-name="Path 107-2" class="cls-8" d="M136.15,88.09a3.51,3.51,0,0,0,1.68,2.11c1,.46,2.27-.58,2.65-1,.18-.19.7-.41.88-1s-.09-.94-.18-1.47a2.93,2.93,0,0,0-1.5-2.2c-.35-.15-1.14-.72-1.93-.43s-.83,1.15-1.26,1.59A2.12,2.12,0,0,0,136.15,88.09Z"/><path id="Path_108-2" data-name="Path 108-2" class="cls-8" d="M112.78,53a3.88,3.88,0,0,0,.89,1.53c.46.4.86-.14,1-.35a.8.8,0,0,0,.25-.58,3.06,3.06,0,0,0-.22-1,3.2,3.2,0,0,0-.83-1.57c-.15-.13-.53-.58-.82-.47s-.21.66-.35.9A2,2,0,0,0,112.78,53Z"/><path id="Path_109-2" data-name="Path 109-2" class="cls-8" d="M95,60.47A2.21,2.21,0,0,0,96.79,62c1.24.22,3-.9,3.59-1.3a3.86,3.86,0,0,0,1.32-1.06c.33-.57,0-.79,0-1.23a1.77,1.77,0,0,0-1.54-1.65,4.1,4.1,0,0,0-2.42,0c-1.08.39-1.26,1.15-1.9,1.61C94.56,59.26,94.86,60.09,95,60.47Z"/><path id="Path_103-2" data-name="Path 103-2" class="cls-7" d="M114.86,56.31a.45.45,0,0,0,.1.31c.1.09.28,0,.34,0a.29.29,0,0,0,.14-.08c0-.07,0-.11,0-.18a.35.35,0,0,0-.07-.31s-.1-.13-.2-.13-.14.1-.2.13A.26.26,0,0,0,114.86,56.31Z"/><path id="Path_94-2" data-name="Path 94-2" class="cls-7" d="M108.4,71.41a.42.42,0,0,0,.23.39,1.14,1.14,0,0,0,.73,0,.81.81,0,0,0,.31-.1c.1-.08.06-.14.09-.22a.34.34,0,0,0-.17-.39.8.8,0,0,0-.44-.17c-.22,0-.31.13-.45.17C108.4,71.17,108.4,71.33,108.4,71.41Z"/><path id="Path_132-2" data-name="Path 132-2" class="cls-7" d="M93.14,82.92a2.56,2.56,0,0,0,.56,1.77c.53.54,1.54.16,1.86,0a1.42,1.42,0,0,0,.78-.46c.25-.37.15-.63.21-1a2.1,2.1,0,0,0-.43-1.79c-.18-.18-.54-.74-1.1-.74s-.76.56-1.13.74A1.48,1.48,0,0,0,93.14,82.92Z"/><path id="Path_133-2" data-name="Path 133-2" class="cls-9" d="M141.89,50a2.54,2.54,0,0,0,.39,1.81c.47.59,1.5.31,1.83.18a1.33,1.33,0,0,0,.82-.38c.28-.33.21-.61.31-1a2.06,2.06,0,0,0-.25-1.82c-.16-.2-.46-.79-1-.84s-.81.47-1.2.62A1.5,1.5,0,0,0,141.89,50Z"/></g></g></svg>