<svg xmlns="http://www.w3.org/2000/svg" viewBox="0 0 252 144"><defs><style>.cls-1{fill:#eaeaea;}.cls-2{fill:#fff;}.cls-2,.cls-3{stroke:#fff;stroke-width:0.5px;}.cls-2,.cls-3,.cls-4{stroke-miterlimit:10;}.cls-3{fill:#97ea75;}.cls-4{fill:#15ffdd;stroke:#15ffdd;opacity:0.47;}.cls-5{fill:#31c9ba;opacity:0.34;}</style></defs><g id="Layer_2" data-name="Layer 2"><g id="Layer_1-2" data-name="Layer 1"><rect class="cls-1" width="252" height="144"/><ellipse class="cls-2" cx="162.6" cy="84.43" rx="3.22" ry="6.59" transform="translate(-17.04 120.43) rotate(-38.77)"/><line class="cls-3" x1="158.39" y1="77.45" x2="158.01" y2="75.39"/><line class="cls-3" x1="156.64" y1="78.95" x2="154.64" y2="78.1"/><ellipse class="cls-2" cx="154.25" cy="77.93" rx="0.43" ry="0.42" transform="translate(-14.81 113.77) rotate(-38.77)"/><ellipse class="cls-2" cx="157.93" cy="74.97" rx="0.43" ry="0.42" transform="translate(-12.15 115.42) rotate(-38.77)"/><ellipse class="cls-2" cx="158.77" cy="79.67" rx="2.3" ry="2.23" transform="translate(-14.9 116.99) rotate(-38.77)"/><path class="cls-4" d="M162,81.85l-1.69-2.11c-.51-.64-.08-1.85,1-2.69l0,0A10.52,10.52,0,0,1,166,74.82h0c1.64-.28,2.49.83,1.82,2.37h0a11.76,11.76,0,0,1-3.44,4.35h0C163.46,82.24,162.42,82.37,162,81.85Z"/><path class="cls-5" d="M161.63,81.52l-.43-2.41c-.13-.74.57-1.49,1.57-1.7h0a6.68,6.68,0,0,1,3.87.32h0a1.53,1.53,0,0,1,.43,2.68h0a7.77,7.77,0,0,1-3.79,1.91h0C162.48,82.48,161.73,82.13,161.63,81.52Z"/><path class="cls-4" d="M160.27,83.23l-1.69-2.1c-.52-.65-1.79-.48-2.84.37h0a10.57,10.57,0,0,0-3.17,4.07h0c-.62,1.54.28,2.61,1.93,2.29h0a11.85,11.85,0,0,0,5-2.42h0C160.33,84.75,160.69,83.76,160.27,83.23Z"/><path class="cls-5" d="M160,82.81l-2.26-.94a1.71,1.71,0,0,0-2,1.17v0a6.56,6.56,0,0,0-.52,3.85h0a1.52,1.52,0,0,0,2.52,1h0a7.65,7.65,0,0,0,2.68-3.28h0A1.32,1.32,0,0,0,160,82.81Z"/><path d="M50.24,78.53V59h1.81v18h8.2v1.59Z"/><path d="M69.92,78.91a7.21,7.21,0,0,1-3.43-.82,6.57,6.57,0,0,1-2.41-9,6.19,6.19,0,0,1,2.41-2.27,7.56,7.56,0,0,1,6.85,0,6.56,6.56,0,0,1,2.41,9,6.29,6.29,0,0,1-2.41,2.28A7.2,7.2,0,0,1,69.92,78.91Zm0-1.55a5.05,5.05,0,0,0,2.53-.63A4.57,4.57,0,0,0,74.21,75a5.38,5.38,0,0,0,0-5.09,4.6,4.6,0,0,0-1.76-1.74,5.42,5.42,0,0,0-5.07,0,4.6,4.6,0,0,0-1.76,1.74,5.36,5.36,0,0,0,0,5.08,4.6,4.6,0,0,0,1.76,1.74A5.06,5.06,0,0,0,69.92,77.36Z"/><path d="M86.18,85.05a7.8,7.8,0,0,1-3.89-.9,5.5,5.5,0,0,1-2.36-2.63l1.46-.68a4.3,4.3,0,0,0,1.85,2,5.84,5.84,0,0,0,2.94.74A5.43,5.43,0,0,0,88.67,83a4.17,4.17,0,0,0,1.73-1.6,4.74,4.74,0,0,0,.64-2.5V76a5.68,5.68,0,0,1-5,3,5.72,5.72,0,0,1-3.06-.84,5.88,5.88,0,0,1-2.17-2.28,7.35,7.35,0,0,1,0-6.65,6,6,0,0,1,2.17-2.3A5.82,5.82,0,0,1,86,66a5.69,5.69,0,0,1,2.94.77A5.41,5.41,0,0,1,91,68.9V66.38h1.73V78.86a6.73,6.73,0,0,1-.8,3.4,5.11,5.11,0,0,1-2.27,2.09A8.1,8.1,0,0,1,86.18,85.05Zm.24-7.65a4.55,4.55,0,0,0,2.43-.64A4.44,4.44,0,0,0,90.51,75a5.68,5.68,0,0,0,0-5.12,4.44,4.44,0,0,0-1.66-1.75,4.64,4.64,0,0,0-6.5,1.75,5.39,5.39,0,0,0-.61,2.57,5.33,5.33,0,0,0,.6,2.55A4.46,4.46,0,0,0,84,76.76,4.52,4.52,0,0,0,86.42,77.4Z"/><path d="M121.2,78.53V59h4.41a10,10,0,0,1,3.88.75,9.67,9.67,0,0,1,3.14,2.08,9.67,9.67,0,0,1,2.85,7,9.74,9.74,0,0,1-.75,3.84,9.49,9.49,0,0,1-5.24,5.19,9.94,9.94,0,0,1-3.88.75Zm1.8-1.62h2.44a8.31,8.31,0,0,0,3.21-.62,8.17,8.17,0,0,0,2.59-1.73A7.92,7.92,0,0,0,133,72a8.67,8.67,0,0,0,0-6.44,8,8,0,0,0-1.72-2.6,8.2,8.2,0,0,0-2.59-1.74,8.31,8.31,0,0,0-3.21-.62H123Z"/><path d="M145.68,78.91a6.87,6.87,0,0,1-3.41-.85,6.16,6.16,0,0,1-2.35-2.29,6.34,6.34,0,0,1-.86-3.27,6.55,6.55,0,0,1,.5-2.55A6.42,6.42,0,0,1,143,66.49a6.24,6.24,0,0,1,2.48-.49,6.42,6.42,0,0,1,3.21.79A6,6,0,0,1,150.89,69a6.51,6.51,0,0,1,.87,3.21,1.55,1.55,0,0,1,0,.23,1,1,0,0,1,0,.22H140.78a4.93,4.93,0,0,0,.64,2.51,4.64,4.64,0,0,0,1.77,1.72,5.23,5.23,0,0,0,2.57.62,5.17,5.17,0,0,0,2.47-.58,5,5,0,0,0,1.83-1.65l1.28.69A5.91,5.91,0,0,1,149,78.12,7,7,0,0,1,145.68,78.91Zm-4.8-7.6H150a4.35,4.35,0,0,0-.8-2,4.57,4.57,0,0,0-1.62-1.37,4.65,4.65,0,0,0-2.14-.5,4.88,4.88,0,0,0-2.18.49,4.4,4.4,0,0,0-1.62,1.37A4.23,4.23,0,0,0,140.88,71.31Z"/><path d="M158.89,78.91a4.73,4.73,0,0,1-4.45-2.8l.93-1a4.7,4.7,0,0,0,1.48,1.81,3.43,3.43,0,0,0,2,.65,3.13,3.13,0,0,0,1.37-.31A2.46,2.46,0,0,0,161.62,75a1.74,1.74,0,0,0-.35-1.14,3,3,0,0,0-1-.72c-.45-.2-1-.42-1.67-.68a13.48,13.48,0,0,1-1.49-.7,3.77,3.77,0,0,1-1.2-1,2.41,2.41,0,0,1-.46-1.52,2.9,2.9,0,0,1,.49-1.67,3.41,3.41,0,0,1,1.38-1.15,4.57,4.57,0,0,1,2-.42,4.36,4.36,0,0,1,1.92.44,5.27,5.27,0,0,1,1.61,1.24l-.8,1a3.28,3.28,0,0,0-2.72-1.43,2.4,2.4,0,0,0-1.61.52,1.68,1.68,0,0,0-.63,1.36,1.39,1.39,0,0,0,.39,1,3.44,3.44,0,0,0,1,.69c.42.19.88.38,1.37.57a19,19,0,0,1,1.86.81,3.37,3.37,0,0,1,1.23,1,2.92,2.92,0,0,1,.43,1.69,3.72,3.72,0,0,1-.57,2.11,3.68,3.68,0,0,1-1.58,1.38A5.39,5.39,0,0,1,158.89,78.91Z"/><path d="M168.35,63.94a1.1,1.1,0,0,1-.57-.15,1.18,1.18,0,0,1-.41-.42,1.14,1.14,0,0,1,0-1.13,1.24,1.24,0,0,1,.41-.41,1.16,1.16,0,0,1,1.14,0,1.15,1.15,0,0,1,.41.41,1,1,0,0,1,.15.55,1.12,1.12,0,0,1-1.13,1.15Zm-.87,14.59V66.38h1.73V78.53Z"/><path d="M179.7,85.05a7.8,7.8,0,0,1-3.89-.9,5.5,5.5,0,0,1-2.36-2.63l1.46-.68a4.3,4.3,0,0,0,1.85,2,5.84,5.84,0,0,0,2.94.74,5.46,5.46,0,0,0,2.49-.55,4.23,4.23,0,0,0,1.73-1.6,4.74,4.74,0,0,0,.63-2.5V76a5.54,5.54,0,0,1-2.08,2.16,5.69,5.69,0,0,1-2.95.79,5.78,5.78,0,0,1-3.07-.84,6,6,0,0,1-2.17-2.28,6.9,6.9,0,0,1-.8-3.34,6.76,6.76,0,0,1,.8-3.31,6.05,6.05,0,0,1,2.16-2.3,5.86,5.86,0,0,1,3.12-.84,5.65,5.65,0,0,1,2.93.77,5.28,5.28,0,0,1,2.06,2.13V66.38h1.73V78.86a6.73,6.73,0,0,1-.79,3.4,5.17,5.17,0,0,1-2.27,2.09A8.13,8.13,0,0,1,179.7,85.05Zm.24-7.65a4.57,4.57,0,0,0,2.43-.64A4.51,4.51,0,0,0,184,75a5.68,5.68,0,0,0,0-5.12,4.75,4.75,0,0,0-6.5-1.75,4.44,4.44,0,0,0-1.66,1.75,5.28,5.28,0,0,0-.61,2.57,5.33,5.33,0,0,0,.6,2.55,4.44,4.44,0,0,0,1.66,1.75A4.56,4.56,0,0,0,179.94,77.4Z"/><path d="M191.39,78.53V66.38h1.73V68a4.08,4.08,0,0,1,1.54-1.45,5.06,5.06,0,0,1,2.55-.59,4.8,4.8,0,0,1,2.43.58,3.84,3.84,0,0,1,1.57,1.69,6.05,6.05,0,0,1,.55,2.67v7.59H200V71.28a4.24,4.24,0,0,0-.87-2.88,3.16,3.16,0,0,0-2.48-1,3.91,3.91,0,0,0-1.91.44A3.19,3.19,0,0,0,193.55,69a3,3,0,0,0-.43,1.58v7.92Z"/><path d="M102.65,78.78A7.1,7.1,0,0,1,99.22,78a6.15,6.15,0,0,1-2.41-2.28,6.79,6.79,0,0,1,0-6.72,6.27,6.27,0,0,1,2.41-2.27,7.56,7.56,0,0,1,6.85,0,6.58,6.58,0,0,1,2.42,9A6.17,6.17,0,0,1,106.07,78,7.09,7.09,0,0,1,102.65,78.78Zm0-1.54a5.09,5.09,0,0,0,2.54-.63,4.57,4.57,0,0,0,1.75-1.74,5.38,5.38,0,0,0,0-5.09A4.57,4.57,0,0,0,105.19,68a5.44,5.44,0,0,0-5.08,0,4.6,4.6,0,0,0-1.76,1.74,5.07,5.07,0,0,0-.64,2.54,5.13,5.13,0,0,0,.64,2.55,4.6,4.6,0,0,0,1.76,1.74A5.06,5.06,0,0,0,102.65,77.24Z"/><ellipse class="cls-2" cx="107.82" cy="78.9" rx="2.12" ry="4.34" transform="translate(-3.61 152.62) rotate(-69.68)"/><line class="cls-3" x1="103.07" y1="76.38" x2="102.16" y2="75.34"/><line class="cls-3" x1="102.59" y1="77.82" x2="101.17" y2="78.01"/><ellipse class="cls-2" cx="100.89" cy="78.05" rx="0.29" ry="0.28" transform="translate(-7.34 145.57) rotate(-69.68)"/><ellipse class="cls-2" cx="101.97" cy="75.13" rx="0.29" ry="0.28" transform="translate(-3.89 144.67) rotate(-69.68)"/><ellipse class="cls-2" cx="104.04" cy="77.5" rx="1.52" ry="1.47" transform="translate(-4.76 148.16) rotate(-69.68)"/><path class="cls-4" d="M106.6,77.64,104.93,77c-.51-.19-.67-1-.36-1.86v0a6.83,6.83,0,0,1,1.88-2.82h0c.83-.71,1.69-.37,1.83.72h0a7.8,7.8,0,0,1-.47,3.63h0C107.56,77.37,107,77.8,106.6,77.64Z"/><path class="cls-5" d="M106.28,77.58l-1.06-1.22a1.12,1.12,0,0,1,.32-1.49h0a4.45,4.45,0,0,1,2.3-1.13h0A1,1,0,0,1,109,75.11h0a5,5,0,0,1-1.49,2.36h0A.87.87,0,0,1,106.28,77.58Z"/><path class="cls-4" d="M106.09,79l-1.67-.62c-.5-.19-1.17.34-1.48,1.17v0a6.85,6.85,0,0,0-.42,3.37h0c.17,1.08,1,1.38,1.87.65h0a8,8,0,0,0,2-3.06h0C106.64,79.85,106.51,79.16,106.09,79Z"/><path class="cls-5" d="M105.81,78.86l-1.6.23a1.14,1.14,0,0,0-.73,1.34h0a4.53,4.53,0,0,0,1,2.36h0a1,1,0,0,0,1.77-.3h0a5.1,5.1,0,0,0,.4-2.76h0C106.59,79.19,106.21,78.8,105.81,78.86Z"/><ellipse class="cls-2" cx="58.06" cy="49.71" rx="3.06" ry="6.27" transform="translate(-15.45 28.79) rotate(-24.68)"/><line class="cls-3" x1="55.79" y1="42.29" x2="55.92" y2="40.3"/><line class="cls-3" x1="53.83" y1="43.26" x2="52.18" y2="42.02"/><ellipse class="cls-2" cx="51.86" cy="41.77" rx="0.41" ry="0.4" transform="translate(-12.71 25.47) rotate(-24.68)"/><ellipse class="cls-2" cx="55.94" cy="39.9" rx="0.41" ry="0.4" transform="translate(-11.55 27.01) rotate(-24.68)"/><ellipse class="cls-2" cx="55.64" cy="44.42" rx="2.19" ry="2.12" transform="translate(-13.47 27.29) rotate(-24.68)"/><path class="cls-4" d="M58.1,47.18,57,44.85c-.33-.72.35-1.73,1.52-2.26l0,0a10,10,0,0,1,4.8-1h0c1.57.13,2.1,1.35,1.13,2.61h0a11.09,11.09,0,0,1-4.18,3.22h0C59.37,47.88,58.37,47.76,58.1,47.18Z"/><path class="cls-5" d="M57.84,46.79,58,44.47a1.61,1.61,0,0,1,1.83-1.2h0a6.3,6.3,0,0,1,3.5,1.19h0A1.46,1.46,0,0,1,63.13,47h0a7.36,7.36,0,0,1-3.93.88h0C58.4,47.88,57.8,47.38,57.84,46.79Z"/><path class="cls-4" d="M56.19,48.06l-1.07-2.34c-.33-.71-1.54-.85-2.71-.31h0a9.83,9.83,0,0,0-3.86,3h0c-.93,1.27-.35,2.47,1.24,2.56h0a11.22,11.22,0,0,0,5.17-1.08h0C55.9,49.47,56.46,48.64,56.19,48.06Z"/><path class="cls-5" d="M56.06,47.61l-1.87-1.38a1.61,1.61,0,0,0-2.11.61v0a6.28,6.28,0,0,0-1.38,3.43h0a1.46,1.46,0,0,0,2.11,1.5h0A7.43,7.43,0,0,0,56,49.38h0A1.26,1.26,0,0,0,56.06,47.61Z"/></g></g></svg>