<?xml version="1.0" encoding="utf-8"?>
<!-- Generator: Adobe Illustrator 25.4.1, SVG Export Plug-In . SVG Version: 6.00 Build 0)  -->
<svg version="1.1" id="Layer_1" xmlns="http://www.w3.org/2000/svg" xmlns:xlink="http://www.w3.org/1999/xlink" x="0px" y="0px"
	 viewBox="0 0 252 144" style="enable-background:new 0 0 252 144;" xml:space="preserve">
<style type="text/css">
	.st0{fill:#FFFFFF;stroke:#FFFFFF;stroke-width:0.5;stroke-miterlimit:10;}
	.st1{fill:none;stroke:#FFFFFF;stroke-width:0.5;stroke-miterlimit:10;}
	.st2{opacity:0.47;fill:#17FFA0;enable-background:new    ;}
	.st3{opacity:0.34;fill:#32C682;enable-background:new    ;}
	.st4{fill:#FFFFFF;stroke:#FFFFFF;stroke-width:0.5011;stroke-miterlimit:10.0225;}
</style>
<g id="Layer_2_00000041289987891362140030000004059993191917725574_">
	<g id="Layer_1-2">
		
			<ellipse transform="matrix(0.7797 -0.6262 0.6262 0.7797 -21.1416 114.9188)" class="st0" cx="152.7" cy="87.5" rx="2.4" ry="4.8"/>
		<line class="st1" x1="149.6" y1="82.4" x2="149.4" y2="80.8"/>
		<line class="st1" x1="148.3" y1="83.5" x2="146.9" y2="82.8"/>
		
			<ellipse transform="matrix(0.7797 -0.6262 0.6262 0.7797 -19.5057 110.0166)" class="st0" cx="146.6" cy="82.7" rx="0.3" ry="0.3"/>
		
			<ellipse transform="matrix(0.7797 -0.6262 0.6262 0.7797 -17.5461 111.2326)" class="st0" cx="149.3" cy="80.5" rx="0.3" ry="0.3"/>
		<ellipse transform="matrix(0.7797 -0.6262 0.6262 0.7797 -19.5722 112.3775)" class="st0" cx="149.9" cy="84" rx="1.7" ry="1.6"/>
		<path class="st2" d="M152.3,85.6l-1.3-1.5c-0.4-0.5-0.1-1.4,0.7-2l0,0c1-0.8,2.2-1.4,3.4-1.6l0,0c1.2-0.2,1.8,0.6,1.3,1.7l0,0
			c-0.6,1.3-1.4,2.4-2.5,3.2l0,0C153.4,85.9,152.6,86,152.3,85.6z"/>
		<path class="st3" d="M152,85.4l-0.3-1.8c-0.1-0.5,0.4-1.1,1.1-1.2l0,0c1-0.2,1.9-0.1,2.9,0.2l0,0c0.6,0.2,0.9,0.8,0.8,1.4
			c-0.1,0.2-0.2,0.5-0.4,0.6l0,0c-0.8,0.7-1.7,1.2-2.8,1.4l0,0C152.7,86.2,152.2,85.9,152,85.4z"/>
		<path class="st2" d="M151,86.6l-1.2-1.6c-0.4-0.5-1.3-0.3-2.1,0.3l0,0c-1,0.8-1.8,1.8-2.3,3l0,0c-0.4,1.1,0.2,1.9,1.4,1.7l0,0
			c1.3-0.3,2.6-0.9,3.7-1.8l0,0C151.1,87.7,151.3,87,151,86.6z"/>
		<path class="st3" d="M150.8,86.3l-1.7-0.7c-0.6-0.1-1.3,0.2-1.5,0.9l0,0c-0.4,0.9-0.5,1.9-0.4,2.8l0,0c0.1,0.6,0.6,1.1,1.2,1
			c0.2,0,0.5-0.1,0.6-0.3l0,0c0.9-0.6,1.6-1.4,2-2.4l0,0C151.4,87.1,151.2,86.5,150.8,86.3z"/>
		<ellipse transform="matrix(0.908 -0.4191 0.4191 0.908 -18.405 37.8911)" class="st4" cx="77.1" cy="60.8" rx="2.3" ry="4.6"/>
		<line class="st1" x1="75.1" y1="55.5" x2="75.2" y2="54"/>
		<line class="st1" x1="73.7" y1="56.2" x2="72.5" y2="55.3"/>
		<ellipse transform="matrix(0.9087 -0.4175 0.4175 0.9087 -16.413 35.1991)" class="st0" cx="72.2" cy="55.1" rx="0.3" ry="0.3"/>
		<ellipse transform="matrix(0.9087 -0.4175 0.4175 0.9087 -15.5616 36.3293)" class="st0" cx="75.3" cy="53.7" rx="0.3" ry="0.3"/>
		<ellipse transform="matrix(0.9087 -0.4175 0.4175 0.9087 -16.9737 36.5382)" class="st0" cx="75" cy="57.1" rx="1.6" ry="1.6"/>
		<path class="st2" d="M76.8,59.1L76,57.4c-0.2-0.5,0.3-1.3,1.1-1.7l0,0c1.1-0.5,2.3-0.8,3.5-0.7l0,0c1.2,0.1,1.6,1,0.8,1.9l0,0
			c-0.8,1-1.9,1.8-3.1,2.4l0,0C77.8,59.6,77,59.5,76.8,59.1z"/>
		<path class="st3" d="M76.6,58.8l0.1-1.7c0-0.5,0.6-0.9,1.3-0.9l0,0c0.9,0,1.8,0.3,2.6,0.9l0,0c0.5,0.3,0.6,1,0.3,1.5
			c-0.1,0.2-0.3,0.3-0.5,0.4l0,0c-0.9,0.5-1.9,0.7-2.9,0.7l0,0C77.1,59.6,76.6,59.2,76.6,58.8z"/>
		<path class="st2" d="M75.4,59.7L74.6,58c-0.2-0.5-1.1-0.6-2-0.2l0,0c-1.1,0.5-2.1,1.3-2.8,2.2l0,0c-0.7,0.9-0.2,1.8,0.9,1.9l0,0
			c1.3,0,2.6-0.2,3.8-0.8l0,0C75.2,60.8,75.6,60.2,75.4,59.7z"/>
		<path class="st3" d="M75.3,59.4l-1.4-1c-0.6-0.3-1.2-0.1-1.6,0.5l0,0c-0.6,0.7-0.9,1.6-1,2.5l0,0c-0.1,0.6,0.3,1.1,0.9,1.2
			c0.2,0,0.4,0,0.6-0.1l0,0c0.9-0.4,1.8-1,2.4-1.8l0,0C75.7,60.4,75.7,59.8,75.3,59.4z"/>
		<path d="M68.6,68.2h1.3v13.2h7.3v1.2h-8.6V68.2z"/>
		<path d="M80.7,82.1c-0.8-0.5-1.4-1.1-1.8-1.9c-0.4-0.9-0.7-1.8-0.7-2.8c0-1,0.2-2,0.7-2.8c0.4-0.8,1-1.5,1.8-2
			c1.6-0.9,3.7-0.9,5.3,0c0.8,0.5,1.4,1.1,1.8,1.9c0.9,1.8,0.9,3.9,0,5.6c-0.4,0.8-1,1.5-1.8,2c-0.8,0.5-1.7,0.7-2.7,0.7
			C82.4,82.8,81.5,82.5,80.7,82.1z M86.2,80.4c0.7-0.9,1.1-2,1.1-3.1c0-0.8-0.1-1.6-0.5-2.3c-0.3-0.6-0.8-1.2-1.4-1.5
			c-0.6-0.4-1.3-0.6-2-0.6c-0.7,0-1.4,0.2-2,0.6c-0.6,0.4-1.1,0.9-1.4,1.5c-0.3,0.7-0.5,1.5-0.5,2.3c0,0.8,0.2,1.5,0.5,2.2
			c0.3,0.6,0.8,1.2,1.4,1.5c0.6,0.4,1.3,0.5,2,0.5C84.4,81.7,85.5,81.2,86.2,80.4z"/>
		<path d="M94.3,88c-1-0.6-1.6-1.6-1.6-2.8c0-1,0.4-2,1.2-2.6c-1.1-0.3-2-0.9-2.6-1.9c-0.7-1.1-1-2.3-1-3.6c0-1,0.2-2,0.6-2.8
			c0.4-0.8,1.1-1.4,1.8-1.9c0.8-0.5,1.8-0.7,2.7-0.7c0.4,0,0.8,0,1.2,0.1L98,72h1.2v13c0,0.9-0.3,1.8-0.9,2.5c-0.6,0.7-1.5,1-2.3,1
			C95.4,88.5,94.8,88.3,94.3,88z M96.6,80.8c0.4-0.3,0.7-0.6,1-1c0.2-0.3,0.3-0.6,0.4-1v-5.7L96,73h-0.7c-0.7,0-1.3,0.2-1.9,0.6
			c-0.6,0.4-1,0.9-1.3,1.5c-0.3,0.7-0.5,1.4-0.5,2.2c0,0.7,0.1,1.5,0.4,2.2c0.3,0.6,0.7,1.1,1.2,1.5c0.4,0.4,1,0.6,1.6,0.6
			C95.4,81.6,96.1,81.3,96.6,80.8z M97.4,86.6c0.4-0.5,0.6-1.1,0.5-1.7v-4.1c0,0-0.1,0.2-0.3,0.4c-0.2,0.3-0.4,0.5-0.6,0.7
			c-0.4,0.3-0.8,0.6-1.2,0.8c-0.2,0.1-0.4,0.3-0.7,0.4c-0.7,0.4-1.1,1.2-1.1,2c0,0.5,0.2,1,0.6,1.4c0.4,0.4,0.9,0.6,1.4,0.6
			C96.6,87.2,97.1,87,97.4,86.6z"/>
		<path d="M104.3,82.1c-0.8-0.5-1.4-1.1-1.8-1.9c-0.9-1.8-0.9-3.9,0-5.6c0.4-0.8,1-1.5,1.8-2c2.4-1.5,5.5-0.7,7,1.7
			c0.1,0.1,0.1,0.2,0.1,0.3c0.9,1.8,0.9,3.9,0,5.6c-0.4,0.8-1.1,1.5-1.8,1.9c-0.8,0.5-1.7,0.7-2.7,0.7
			C106,82.7,105.1,82.5,104.3,82.1z M109.8,80.4c0.7-0.9,1.1-2,1.1-3.1c0-0.8-0.1-1.6-0.5-2.3c-0.6-1.3-1.9-2.1-3.4-2
			c-0.7,0-1.4,0.2-2,0.6c-0.6,0.4-1.1,0.9-1.4,1.5c-0.3,0.7-0.5,1.5-0.5,2.3c0,0.8,0.2,1.5,0.5,2.2c0.3,0.6,0.8,1.1,1.4,1.5
			c0.6,0.4,1.3,0.5,2,0.5C108.1,81.7,109.1,81.2,109.8,80.4z"/>
		<path d="M124.3,82.7h-1.2l-1-0.1V69.2c-0.2,0-0.4,0-0.6,0.1c-0.1,0-0.2,0.1-0.3,0.2c-0.1,0.1-0.2,0.2-0.2,0.3
			c-0.1,0.1-0.1,0.3-0.1,0.4h-1.2c0-0.6,0.2-1.2,0.6-1.6c0.2-0.2,0.5-0.3,0.7-0.4c0.4-0.1,0.7-0.2,1.1-0.2h5.5c1.2,0,2.4,0.4,3.4,1
			c1,0.6,1.8,1.5,2.4,2.6c0.6,1.2,0.9,2.4,0.9,3.7c0.1,2-0.6,4-2.1,5.4c-1.4,1.2-3.5,1.8-6.3,1.8C125.4,82.7,124.8,82.7,124.3,82.7z
			 M131.2,80c1.3-1.2,1.9-2.8,1.8-4.5c0-1.1-0.2-2.2-0.7-3.2c-0.4-0.9-1.1-1.7-2-2.2c-0.9-0.5-1.9-0.8-2.9-0.8h-4.1v12.2h0.6
			c0.8,0.1,1.5,0.1,1.9,0.1C127.8,81.7,129.7,81.1,131.2,80z"/>
		<path d="M138.6,82.1c-0.7-0.4-1.3-1-1.6-1.8c-0.4-0.8-0.6-1.7-0.6-2.6c0-1,0.2-1.9,0.5-2.8c0.3-0.9,0.9-1.6,1.6-2.2
			c0.7-0.6,1.7-0.9,2.6-0.9c0.7,0,1.3,0.1,1.9,0.4c0.6,0.2,1,0.6,1.4,1.1c0.3,0.5,0.5,1.1,0.5,1.7c0,1-0.5,1.9-1.3,2.4
			c-1.1,0.6-2.4,0.9-3.6,0.8h-2.3c0,0.9,0.4,1.8,1.1,2.5c0.7,0.6,1.6,0.9,2.5,0.8c1.2,0,2.4-0.4,3.3-1.1l0.6,0.8
			c-0.5,0.4-1.2,0.8-1.8,1c-0.7,0.2-1.4,0.4-2.1,0.4C140.3,82.8,139.4,82.6,138.6,82.1z M143.7,75.1c0-0.6-0.2-1.2-0.7-1.6
			c-0.5-0.4-1.1-0.5-1.8-0.5c-0.7,0-1.4,0.2-2,0.7c-0.5,0.4-1,1-1.2,1.6c-0.3,0.6-0.4,1.3-0.4,1.9h2.6
			C142.6,77.3,143.7,76.5,143.7,75.1L143.7,75.1z"/>
		<path d="M146.6,81.2l0.7-0.8c0.5,0.4,1,0.7,1.6,1c0.5,0.2,1.1,0.3,1.7,0.3c0.6,0,1.3-0.1,1.8-0.5c0.4-0.4,0.7-0.9,0.6-1.5
			c0-0.4-0.1-0.7-0.3-1c-0.2-0.3-0.5-0.5-0.8-0.6c-0.3-0.2-0.9-0.4-1.7-0.7c-0.6-0.2-1.2-0.5-1.7-0.8c-0.4-0.2-0.7-0.5-1-0.8
			c-0.3-0.4-0.4-0.8-0.4-1.2c0-0.8,0.3-1.5,0.9-2c0.7-0.5,1.5-0.8,2.4-0.8c0.5,0,1,0.1,1.5,0.2c0.5,0.1,0.9,0.3,1.3,0.6l-0.5,0.9
			c-0.7-0.4-1.4-0.6-2.2-0.6c-0.5,0-1.1,0.1-1.5,0.4c-0.3,0.2-0.5,0.7-0.5,1.1c0,0.3,0.1,0.6,0.3,0.9c0.2,0.2,0.5,0.4,0.7,0.6
			c0.3,0.2,0.8,0.4,1.5,0.6c0.6,0.3,1.3,0.5,1.9,0.9c0.4,0.2,0.7,0.6,1,0.9c0.3,0.4,0.4,0.9,0.4,1.4c0,0.9-0.3,1.7-1,2.3
			c-0.8,0.6-1.7,0.9-2.7,0.9C149,82.7,147.6,82.2,146.6,81.2z"/>
		<path d="M156.4,70.4c-0.2-0.2-0.3-0.4-0.3-0.6c0-0.2,0.1-0.5,0.3-0.6c0.2-0.2,0.4-0.3,0.6-0.3c0.2,0,0.5,0.1,0.6,0.3
			c0.2,0.2,0.3,0.4,0.3,0.6c0,0.2-0.1,0.5-0.3,0.6c-0.2,0.2-0.4,0.3-0.6,0.3C156.8,70.7,156.6,70.6,156.4,70.4z M157.9,81.3
			c0.1,0.1,0.3,0.2,0.5,0.2c0.3,0,0.5-0.1,0.6-0.3l0.9,0.7c-0.1,0.3-0.3,0.5-0.6,0.6c-0.8,0.4-1.7,0.3-2.3-0.3
			c-0.4-0.4-0.6-0.9-0.6-1.4v-8.7h1.3v8.7C157.7,81,157.8,81.2,157.9,81.3z"/>
		<path d="M164.7,88c-1.5-0.9-2-3-1.1-4.5c0.2-0.3,0.4-0.6,0.7-0.8c-1.1-0.3-2-0.9-2.6-1.9c-0.7-1.1-1-2.3-1-3.6c0-1,0.2-2,0.6-2.8
			c0.4-0.8,1.1-1.4,1.8-1.9c0.8-0.5,1.8-0.7,2.7-0.7c0.4,0,0.8,0,1.1,0.1l1.3,0.1h1.2v13c0,0.9-0.3,1.8-0.9,2.5
			c-0.6,0.7-1.5,1-2.3,1C165.7,88.5,165.2,88.3,164.7,88z M166.9,80.8c0.4-0.3,0.7-0.6,0.9-1c0.2-0.3,0.3-0.6,0.4-1v-5.7l-1.9-0.2
			h-0.7c-0.7,0-1.3,0.2-1.9,0.6c-0.6,0.4-1,0.9-1.3,1.5c-0.3,0.7-0.5,1.4-0.5,2.2c0,0.7,0.1,1.5,0.4,2.1c0.2,0.6,0.6,1.2,1.1,1.6
			c0.4,0.4,1,0.6,1.6,0.6C165.7,81.6,166.4,81.3,166.9,80.8z M167.7,86.6c0.4-0.5,0.5-1.1,0.5-1.7v-4.1c0,0-0.1,0.2-0.3,0.4
			c-0.2,0.3-0.4,0.5-0.6,0.7c-0.4,0.3-0.8,0.6-1.2,0.8c-0.2,0.1-0.4,0.3-0.6,0.4c-0.7,0.4-1.1,1.2-1.1,2c0,0.5,0.2,1,0.6,1.4
			c0.4,0.4,0.9,0.6,1.4,0.6C166.9,87.2,167.4,87,167.7,86.6z"/>
		<path d="M183.4,81.8c-0.1,0.3-0.3,0.5-0.6,0.6c-0.3,0.2-0.6,0.2-0.9,0.2c-0.5,0-1-0.2-1.4-0.5c-0.4-0.4-0.6-0.9-0.5-1.4v-5.3
			c0-1.7-0.8-2.5-2.3-2.5c-0.7,0-1.3,0.2-1.8,0.5c-0.6,0.4-1.1,1-1.6,1.6v7.4H173v-7.4c0.1-0.9-0.3-1.8-0.9-2.4l0.8-0.8
			c0.3,0.2,0.5,0.4,0.7,0.7c0.2,0.3,0.4,0.6,0.5,1c0.4-0.6,1-1.1,1.6-1.4c0.6-0.3,1.3-0.4,2-0.4c0.9,0,1.7,0.2,2.4,0.8
			c0.6,0.6,1,1.4,1,2.3v5.8c0,0.2,0.1,0.4,0.2,0.5c0.1,0.1,0.3,0.2,0.5,0.2c0.3,0,0.5-0.1,0.6-0.3L183.4,81.8z"/>
		
			<ellipse transform="matrix(0.3473 -0.9378 0.9378 0.3473 -3.9208 159.2292)" class="st0" cx="112.4" cy="82.4" rx="1.6" ry="3.2"/>
		<line class="st1" x1="108.9" y1="80.6" x2="108.2" y2="79.8"/>
		<line class="st1" x1="108.6" y1="81.6" x2="107.5" y2="81.8"/>
		
			<ellipse transform="matrix(0.3473 -0.9378 0.9378 0.3473 -6.6703 154.0537)" class="st0" cx="107.3" cy="81.8" rx="0.2" ry="0.2"/>
		
			<ellipse transform="matrix(0.3473 -0.9378 0.9378 0.3473 -4.1309 153.3882)" class="st0" cx="108.1" cy="79.7" rx="0.2" ry="0.2"/>
		
			<ellipse transform="matrix(0.3473 -0.9378 0.9378 0.3473 -4.7697 155.9482)" class="st0" cx="109.6" cy="81.4" rx="1.1" ry="1.1"/>
		<path class="st2" d="M111.5,81.5l-1.2-0.5c-0.4-0.1-0.5-0.8-0.3-1.4l0,0c0.3-0.8,0.8-1.5,1.4-2.1l0,0c0.6-0.5,1.2-0.3,1.3,0.5l0,0
			c0.1,0.9,0,1.8-0.3,2.7l0,0C112.2,81.3,111.8,81.6,111.5,81.5z"/>
		<path class="st3" d="M111.3,81.5l-0.8-0.9c-0.2-0.4-0.1-0.8,0.2-1.1l0,0c0.5-0.4,1.1-0.7,1.7-0.8l0,0c0.4-0.1,0.8,0.2,0.9,0.6
			c0,0.1,0,0.3,0,0.4l0,0c-0.2,0.7-0.6,1.3-1.1,1.7l0,0C111.9,81.6,111.6,81.7,111.3,81.5z"/>
		<path class="st2" d="M111.2,82.5l-1.2-0.4c-0.4-0.1-0.9,0.2-1.1,0.9l0,0c-0.3,0.8-0.4,1.6-0.3,2.5l0,0c0.1,0.8,0.8,1,1.4,0.5l0,0
			c0.7-0.6,1.2-1.4,1.5-2.3l0,0C111.6,83.1,111.5,82.6,111.2,82.5z"/>
		<path class="st3" d="M110.9,82.4l-1.2,0.2c-0.4,0.1-0.7,0.6-0.5,1l0,0c0.1,0.6,0.3,1.2,0.8,1.7l0,0c0.2,0.3,0.7,0.4,1,0.2
			c0.1-0.1,0.2-0.2,0.3-0.4l0,0c0.3-0.6,0.4-1.3,0.3-2l0,0C111.5,82.6,111.2,82.3,110.9,82.4z"/>
	</g>
</g>
</svg>
