<svg xmlns="http://www.w3.org/2000/svg" viewBox="0 0 252 144"><defs><style>.cls-1{fill:#eaeaea;}.cls-2{fill:#fff;}.cls-3{fill:#23d1e4;}.cls-4{fill:#2b2927;}.cls-5,.cls-6{fill:none;}.cls-5{stroke:#23d1e4;}.cls-6{stroke:#fff;stroke-linecap:round;stroke-miterlimit:4;stroke-width:0.75px;}</style></defs><g id="Layer_2" data-name="Layer 2"><g id="Layer_2-2" data-name="Layer 2"><rect class="cls-1" width="252" height="144"/><path d="M90.9,77.56a4.91,4.91,0,0,1-3.8-1.38A5.91,5.91,0,0,1,85.83,72V62.65h1.35v9.1a5.17,5.17,0,0,0,.92,3.37,4.07,4.07,0,0,0,5.59,0,5.23,5.23,0,0,0,.92-3.37v-9.1H96V72a5.91,5.91,0,0,1-1.27,4.14A4.93,4.93,0,0,1,90.9,77.56Z"/><path d="M100.52,77.28V62.65h1.35V77.28Z"/><path d="M111.19,77.28V62.65h3.3a7.49,7.49,0,0,1,2.9.56,7.3,7.3,0,0,1,2.34,1.55A7.26,7.26,0,0,1,121.86,70a7.34,7.34,0,0,1-.55,2.87,7.2,7.2,0,0,1-1.57,2.33,7.08,7.08,0,0,1-2.35,1.55,7.49,7.49,0,0,1-2.9.56Zm1.35-1.21h1.82a6,6,0,0,0,4.34-1.76A6,6,0,0,0,120,72.37a6.52,6.52,0,0,0,0-4.81,6,6,0,0,0-3.23-3.24,6.15,6.15,0,0,0-2.4-.46h-1.82Z"/><path d="M129.49,77.56a5.13,5.13,0,0,1-2.55-.63,4.66,4.66,0,0,1-1.76-1.71,4.72,4.72,0,0,1-.64-2.45,4.8,4.8,0,0,1,.37-1.9,4.93,4.93,0,0,1,1-1.54,4.72,4.72,0,0,1,1.53-1,4.63,4.63,0,0,1,1.85-.37,4.75,4.75,0,0,1,2.4.59,4.4,4.4,0,0,1,1.67,1.62,4.93,4.93,0,0,1,.65,2.4.86.86,0,0,1,0,.17,1.15,1.15,0,0,1,0,.16h-8.17a3.63,3.63,0,0,0,.48,1.88A3.36,3.36,0,0,0,127.62,76a4.18,4.18,0,0,0,3.77,0,3.77,3.77,0,0,0,1.37-1.24l1,.52A4.48,4.48,0,0,1,132,77,5.23,5.23,0,0,1,129.49,77.56Zm-3.59-5.67h6.83a3.18,3.18,0,0,0-.59-1.51A3.44,3.44,0,0,0,129.33,69a3.52,3.52,0,0,0-1.63.37,3.15,3.15,0,0,0-1.21,1A3.2,3.2,0,0,0,125.9,71.89Z"/><path d="M139.36,77.56a3.66,3.66,0,0,1-2-.54A3.7,3.7,0,0,1,136,75.47l.69-.75a3.69,3.69,0,0,0,1.11,1.36,2.59,2.59,0,0,0,1.52.48,2.31,2.31,0,0,0,1-.23,1.84,1.84,0,0,0,.75-.66,1.91,1.91,0,0,0,.27-1,1.25,1.25,0,0,0-.26-.85,2.17,2.17,0,0,0-.76-.53c-.33-.15-.75-.32-1.24-.51a10.46,10.46,0,0,1-1.12-.53,2.69,2.69,0,0,1-.89-.74,1.73,1.73,0,0,1-.35-1.14,2.13,2.13,0,0,1,.37-1.24,2.58,2.58,0,0,1,1-.86,3.4,3.4,0,0,1,1.49-.32,3.19,3.19,0,0,1,1.43.33,3.81,3.81,0,0,1,1.2.93l-.59.76a2.47,2.47,0,0,0-2-1.08,1.81,1.81,0,0,0-1.21.39,1.27,1.27,0,0,0-.47,1,1.06,1.06,0,0,0,.29.76,2.46,2.46,0,0,0,.77.51l1,.43a12.8,12.8,0,0,1,1.39.6,2.51,2.51,0,0,1,.92.77,2.14,2.14,0,0,1,.33,1.26,2.74,2.74,0,0,1-1.61,2.6A4,4,0,0,1,139.36,77.56Z"/><path d="M146.42,66.38a.88.88,0,0,1-.42-.11.83.83,0,0,1-.42-.74.88.88,0,0,1,.11-.42.92.92,0,0,1,.31-.31.88.88,0,0,1,.42-.11.89.89,0,0,1,.43.11.92.92,0,0,1,.31.31.81.81,0,0,1,.11.41.84.84,0,0,1-.42.75A.89.89,0,0,1,146.42,66.38Zm-.65,10.9V68.2h1.3v9.08Z"/><path d="M154.91,82.15a5.8,5.8,0,0,1-2.91-.67,4.2,4.2,0,0,1-1.77-2l1.09-.5a3.22,3.22,0,0,0,1.39,1.49,4.3,4.3,0,0,0,2.2.55,4,4,0,0,0,1.85-.41,3.11,3.11,0,0,0,1.3-1.19,3.58,3.58,0,0,0,.47-1.87V75.36a4.16,4.16,0,0,1-3.76,2.2,4.37,4.37,0,0,1-2.29-.62,4.45,4.45,0,0,1-1.62-1.71,5.49,5.49,0,0,1,0-5,4.62,4.62,0,0,1,1.62-1.72,4.43,4.43,0,0,1,2.33-.62,4.31,4.31,0,0,1,2.19.57,4.09,4.09,0,0,1,1.54,1.6V68.2h1.3v9.33a5,5,0,0,1-.6,2.54,3.84,3.84,0,0,1-1.7,1.56A6,6,0,0,1,154.91,82.15Zm.17-5.71A3.43,3.43,0,0,0,156.9,76a3.26,3.26,0,0,0,1.24-1.31,4,4,0,0,0,.45-1.9,4,4,0,0,0-.45-1.92,3.26,3.26,0,0,0-1.24-1.31,3.65,3.65,0,0,0-3.62,0A3.33,3.33,0,0,0,152,70.83a4,4,0,0,0-.45,1.92,4,4,0,0,0,.45,1.9A3.26,3.26,0,0,0,153.28,76,3.41,3.41,0,0,0,155.08,76.44Z"/><path d="M163.64,77.28V68.2h1.29v1.24a2.94,2.94,0,0,1,1.15-1.08,3.77,3.77,0,0,1,1.91-.44,3.63,3.63,0,0,1,1.82.43A2.86,2.86,0,0,1,171,69.61a4.54,4.54,0,0,1,.41,2v5.67h-1.3V71.86a3.17,3.17,0,0,0-.65-2.15,2.37,2.37,0,0,0-1.86-.74,2.87,2.87,0,0,0-1.42.33,2.41,2.41,0,0,0-.91.88,2.32,2.32,0,0,0-.32,1.18v5.92Z"/><g id="ON_slider" data-name="ON slider"><path id="Rectangle_14-2" data-name="Rectangle 14-2" class="cls-2" d="M74.71,61.85h5.21a2.84,2.84,0,0,1,2.84,2.83h0a2.84,2.84,0,0,1-2.84,2.84H74.71a2.84,2.84,0,0,1-2.83-2.84h0A2.83,2.83,0,0,1,74.71,61.85Z"/><ellipse id="Ellipse_2-2" data-name="Ellipse 2-2" class="cls-3" cx="79.97" cy="64.68" rx="2.42" ry="2.37"/><path id="ON" class="cls-4" d="M73.38,64.79a.84.84,0,0,1,.11-.41.72.72,0,0,1,.3-.3.8.8,0,0,1,.4-.11.88.88,0,0,1,.42.11.92.92,0,0,1,.3.29.76.76,0,0,1,.1.41.72.72,0,0,1-.1.41.79.79,0,0,1-.3.3.84.84,0,0,1-.41.11.87.87,0,0,1-.41-.11.83.83,0,0,1-.3-.29A.87.87,0,0,1,73.38,64.79Zm1.47,0a.58.58,0,0,0-.19-.46.64.64,0,0,0-.93,0,.67.67,0,0,0-.19.47.68.68,0,0,0,.66.66.66.66,0,0,0,.46-.19.63.63,0,0,0,.19-.48Zm.47.78V64h0l1,1.19V64h.15v1.55h0l-1-1.17v1.17Z"/></g><g id="OFF_slider" data-name="OFF slider"><path id="Rectangle_15-2" data-name="Rectangle 15-2" class="cls-3" d="M74.55,71.32h5.21a2.84,2.84,0,0,1,2.84,2.84h0A2.84,2.84,0,0,1,79.76,77H74.55a2.84,2.84,0,0,1-2.84-2.83h0A2.84,2.84,0,0,1,74.55,71.32Z"/><circle id="Ellipse_3-2" data-name="Ellipse 3-2" class="cls-2" cx="74.55" cy="74.16" r="2.37"/><path id="OFF" class="cls-2" d="M77.76,74.26a.87.87,0,0,1,.11-.41.76.76,0,0,1,.29-.3.87.87,0,0,1,.41-.11.84.84,0,0,1,.41.11.72.72,0,0,1,.3.3.8.8,0,0,1,.11.4.81.81,0,0,1-.11.41A.76.76,0,0,1,79,75a.87.87,0,0,1-.41.11.81.81,0,0,1-.41-.11.76.76,0,0,1-.3-.29A.81.81,0,0,1,77.76,74.26Zm1.47,0a.67.67,0,0,0-.19-.47.65.65,0,0,0-.47-.2.67.67,0,0,0-.65.67.7.7,0,0,0,.19.47.66.66,0,0,0,.93,0,.64.64,0,0,0,.19-.47Zm.47-.78h.77v.16h-.62v.48h.62v.15h-.62V75H79.7Zm1,0h.78v.16H80.9v.48h.62v.15H80.9V75h-.16Z"/></g><g id="Group_25" data-name="Group 25"><g id="Rectangle_13" data-name="Rectangle 13"><rect class="cls-3" x="174.94" y="71.74" width="5.34" height="5.26" rx="1.43"/><rect class="cls-5" x="174.99" y="71.78" width="5.26" height="5.17" rx="1.38"/></g><g id="checkmark"><line id="Line_1" data-name="Line 1" class="cls-6" x1="176.36" y1="74.41" x2="177.3" y2="75.17"/><g id="Group_21" data-name="Group 21"><line id="Line_2" data-name="Line 2" class="cls-6" x1="178.85" y1="73.6" x2="177.3" y2="75.17"/></g></g></g></g></g></svg>