<?xml version="1.0" encoding="utf-8"?>
<!-- Generator: Adobe Illustrator 25.4.1, SVG Export Plug-In . SVG Version: 6.00 Build 0)  -->
<svg version="1.1" id="Layer_1" xmlns="http://www.w3.org/2000/svg" xmlns:xlink="http://www.w3.org/1999/xlink" x="0px" y="0px"
	 viewBox="0 0 252 144" style="enable-background:new 0 0 252 144;" xml:space="preserve">
<style type="text/css">
	.st0{fill:#FFFFFF;stroke:#FFFFFF;stroke-width:0.5011;stroke-miterlimit:10.0235;}
	.st1{fill:none;stroke:#FFFFFF;stroke-width:0.5;stroke-miterlimit:10;}
	.st2{fill:#FFFFFF;stroke:#FFFFFF;stroke-width:0.5;stroke-miterlimit:10.0002;}
	.st3{opacity:0.47;fill:#17FFA0;enable-background:new    ;}
	.st4{opacity:0.34;fill:#32C682;enable-background:new    ;}
	.st5{fill:#FFFFFF;stroke:#FFFFFF;stroke-width:0.5;stroke-miterlimit:10.0009;}
	.st6{fill:#FFFFFF;stroke:#FFFFFF;stroke-width:0.5;stroke-miterlimit:10.0004;}
</style>
<g id="Layer_1-2">
	<ellipse transform="matrix(0.908 -0.4191 0.4191 0.908 -20.9853 34.6498)" class="st0" cx="68.4" cy="65.1" rx="2.9" ry="5.9"/>
	<line class="st1" x1="65.8" y1="58.4" x2="66" y2="56.5"/>
	<line class="st1" x1="64.1" y1="59.3" x2="62.5" y2="58.2"/>
	<ellipse class="st2" cx="62.1" cy="57.9" rx="0.4" ry="0.4"/>
	<ellipse class="st2" cx="65.4" cy="56.2" rx="0.3" ry="0.3"/>
	<ellipse class="st2" cx="65.7" cy="60.5" rx="2" ry="2"/>
	<path class="st3" d="M68,63l-1-2.2c-0.3-0.6,0.4-1.7,1.4-2.2l0,0c1.4-0.6,2.9-1,4.5-0.9l0,0c1.5,0.1,2,1.3,1,2.4l0,0
		c-1,1.3-2.4,2.3-4,3.1l0,0C69.3,63.6,68.3,63.5,68,63z"/>
	<path class="st4" d="M67.8,62.6l0.1-2.2c0-0.6,0.8-1.1,1.7-1.1l0,0c1.1,0,2.3,0.4,3.3,1.1l0,0c0.6,0.4,0.8,1.3,0.4,1.9
		c-0.1,0.3-0.4,0.4-0.6,0.5l0,0c-1.1,0.6-2.4,0.9-3.7,0.9l0,0C68.4,63.6,67.8,63.1,67.8,62.6z"/>
	<ellipse transform="matrix(0.5169 -0.8561 0.8561 0.5169 14.0833 200.9382)" class="st0" cx="185.1" cy="88" rx="2.9" ry="5.9"/>
	<line class="st1" x1="179.2" y1="83.9" x2="178.2" y2="82.2"/>
	<line class="st1" x1="178.2" y1="85.6" x2="176.3" y2="85.5"/>
	<ellipse class="st2" cx="175.9" cy="85.6" rx="0.4" ry="0.4"/>
	<ellipse class="st2" cx="177.6" cy="82.3" rx="0.3" ry="0.3"/>
	<ellipse class="st2" cx="180.3" cy="85.6" rx="2" ry="2"/>
	<path class="st3" d="M183.6,86.5l-2.1-1.2c-0.6-0.4-0.6-1.6-0.1-2.6l0,0c0.8-1.3,1.9-2.5,3.2-3.2l0,0c1.3-0.8,2.4-0.1,2.2,1.4l0,0
		c-0.1,1.6-0.7,3.3-1.6,4.8l0,0C185,86.3,184.1,86.7,183.6,86.5z"/>
	<path class="st4" d="M183.1,86.3l-1.1-1.9c-0.4-0.5,0-1.4,0.7-1.9l0,0c1-0.6,2.1-1,3.4-0.9l0,0c0.7,0,1.3,0.6,1.4,1.4
		c0,0.3-0.1,0.5-0.2,0.8l0,0c-0.6,1.2-1.5,2.1-2.6,2.8l0,0C184.2,86.8,183.4,86.7,183.1,86.3z"/>
	<path class="st3" d="M182.5,88.1l-2.1-1.2c-0.6-0.4-1.6,0.2-2.3,1.2l0,0c-0.8,1.3-1.3,2.9-1.4,4.3l0,0c-0.1,1.5,1.1,2,2.3,1.4l0,0
		c1.4-0.9,2.6-2.1,3.4-3.6l0,0C183.1,89.4,183.1,88.5,182.5,88.1z"/>
	<path class="st4" d="M182.2,87.8l-2.2-0.1c-0.8,0.1-1.3,0.8-1.3,1.7l0,0c-0.1,1.2,0.2,2.3,0.7,3.4l0,0c0.3,0.7,1.1,0.9,1.8,0.6
		c0.2-0.1,0.4-0.3,0.6-0.5l0,0c0.7-1.1,1.2-2.3,1.2-3.6l0,0C183.3,88.6,182.9,88,182.2,87.8z"/>
	<path class="st3" d="M66.2,63.8l-1-2.2c-0.3-0.6-1.4-0.8-2.6-0.3l0,0C61.3,62,60,63,59.1,64.1l0,0c-0.9,1.1-0.3,2.3,1.1,2.4l0,0
		c1.7,0,3.3-0.3,4.8-1l0,0C66,65.2,66.5,64.4,66.2,63.8z"/>
	<path class="st4" d="M66.1,63.4l-1.8-1.3c-0.8-0.4-1.5-0.1-2,0.6l0,0c-0.8,0.9-1.1,2-1.3,3.2l0,0c-0.1,0.8,0.4,1.4,1.1,1.5
		c0.3,0,0.5,0,0.8-0.1l0,0C64,66.8,65.2,66,66,65l0,0C66.6,64.7,66.6,63.9,66.1,63.4z"/>
	<g>
		<path d="M68.6,66.3h1.3v13.2h7.3v1.2h-8.6C68.6,80.7,68.6,66.3,68.6,66.3z"/>
		<path d="M80.7,80.2c-0.8-0.5-1.4-1.1-1.8-1.9c-0.4-0.9-0.7-1.8-0.7-2.8s0.2-2,0.7-2.8c0.4-0.8,1-1.5,1.8-2c1.6-0.9,3.7-0.9,5.3,0
			c0.8,0.5,1.4,1.1,1.8,1.9c0.9,1.8,0.9,3.9,0,5.6c-0.4,0.8-1,1.5-1.8,2s-1.7,0.7-2.7,0.7C82.4,80.9,81.5,80.6,80.7,80.2z
			 M86.2,78.5c0.7-0.9,1.1-2,1.1-3.1c0-0.8-0.1-1.6-0.5-2.3c-0.3-0.6-0.8-1.2-1.4-1.5c-0.6-0.4-1.3-0.6-2-0.6s-1.4,0.2-2,0.6
			c-0.6,0.4-1.1,0.9-1.4,1.5c-0.3,0.7-0.5,1.5-0.5,2.3s0.2,1.5,0.5,2.2c0.3,0.6,0.8,1.2,1.4,1.5c0.6,0.4,1.3,0.5,2,0.5
			C84.4,79.8,85.5,79.3,86.2,78.5z"/>
		<path d="M94.3,86.1c-1-0.6-1.6-1.6-1.6-2.8c0-1,0.4-2,1.2-2.6c-1.1-0.3-2-0.9-2.6-1.9c-0.7-1.1-1-2.3-1-3.6c0-1,0.2-2,0.6-2.8
			c0.4-0.8,1.1-1.4,1.8-1.9c0.8-0.5,1.8-0.7,2.7-0.7c0.4,0,0.8,0,1.2,0.1l1.4,0.2h1.2v13c0,0.9-0.3,1.8-0.9,2.5
			c-0.6,0.7-1.5,1-2.3,1C95.4,86.6,94.8,86.4,94.3,86.1z M96.6,78.9c0.4-0.3,0.7-0.6,1-1c0.2-0.3,0.3-0.6,0.4-1v-5.7l-2-0.1h-0.7
			c-0.7,0-1.3,0.2-1.9,0.6c-0.6,0.4-1,0.9-1.3,1.5c-0.3,0.7-0.5,1.4-0.5,2.2c0,0.7,0.1,1.5,0.4,2.2c0.3,0.6,0.7,1.1,1.2,1.5
			c0.4,0.4,1,0.6,1.6,0.6C95.4,79.7,96.1,79.4,96.6,78.9z M97.4,84.7c0.4-0.5,0.6-1.1,0.5-1.7v-4.1c0,0-0.1,0.2-0.3,0.4
			c-0.2,0.3-0.4,0.5-0.6,0.7c-0.4,0.3-0.8,0.6-1.2,0.8c-0.2,0.1-0.4,0.3-0.7,0.4c-0.7,0.4-1.1,1.2-1.1,2c0,0.5,0.2,1,0.6,1.4
			c0.4,0.4,0.9,0.6,1.4,0.6C96.6,85.3,97.1,85.1,97.4,84.7z"/>
		<path d="M104.3,80.2c-0.8-0.5-1.4-1.1-1.8-1.9c-0.9-1.8-0.9-3.9,0-5.6c0.4-0.8,1-1.5,1.8-2c2.4-1.5,5.5-0.7,7,1.7
			c0.1,0.1,0.1,0.2,0.1,0.3c0.9,1.8,0.9,3.9,0,5.6c-0.4,0.8-1.1,1.5-1.8,1.9c-0.8,0.5-1.7,0.7-2.7,0.7
			C106,80.8,105.1,80.6,104.3,80.2z M109.8,78.5c0.7-0.9,1.1-2,1.1-3.1c0-0.8-0.1-1.6-0.5-2.3c-0.6-1.3-1.9-2.1-3.4-2
			c-0.7,0-1.4,0.2-2,0.6c-0.6,0.4-1.1,0.9-1.4,1.5c-0.3,0.7-0.5,1.5-0.5,2.3s0.2,1.5,0.5,2.2c0.3,0.6,0.8,1.1,1.4,1.5
			c0.6,0.4,1.3,0.5,2,0.5C108.1,79.8,109.1,79.3,109.8,78.5z"/>
		<path d="M124.3,80.8h-1.2l-1-0.1V67.3c-0.2,0-0.4,0-0.6,0.1c-0.1,0-0.2,0.1-0.3,0.2s-0.2,0.2-0.2,0.3c-0.1,0.1-0.1,0.3-0.1,0.4
			h-1.2c0-0.6,0.2-1.2,0.6-1.6c0.2-0.2,0.5-0.3,0.7-0.4c0.4-0.1,0.7-0.2,1.1-0.2h5.5c1.2,0,2.4,0.4,3.4,1s1.8,1.5,2.4,2.6
			c0.6,1.2,0.9,2.4,0.9,3.7c0.1,2-0.6,4-2.1,5.4c-1.4,1.2-3.5,1.8-6.3,1.8C125.4,80.8,124.8,80.8,124.3,80.8z M131.2,78.1
			c1.3-1.2,1.9-2.8,1.8-4.5c0-1.1-0.2-2.2-0.7-3.2c-0.4-0.9-1.1-1.7-2-2.2s-1.9-0.8-2.9-0.8h-4.1v12.2h0.6c0.8,0.1,1.5,0.1,1.9,0.1
			C127.8,79.8,129.7,79.2,131.2,78.1z"/>
		<path d="M138.6,80.2c-0.7-0.4-1.3-1-1.6-1.8c-0.4-0.8-0.6-1.7-0.6-2.6c0-1,0.2-1.9,0.5-2.8s0.9-1.6,1.6-2.2
			c0.7-0.6,1.7-0.9,2.6-0.9c0.7,0,1.3,0.1,1.9,0.4c0.6,0.2,1,0.6,1.4,1.1c0.3,0.5,0.5,1.1,0.5,1.7c0,1-0.5,1.9-1.3,2.4
			c-1.1,0.6-2.4,0.9-3.6,0.8h-2.3c0,0.9,0.4,1.8,1.1,2.5c0.7,0.6,1.6,0.9,2.5,0.8c1.2,0,2.4-0.4,3.3-1.1l0.6,0.8
			c-0.5,0.4-1.2,0.8-1.8,1c-0.7,0.2-1.4,0.4-2.1,0.4C140.3,80.9,139.4,80.7,138.6,80.2z M143.7,73.2c0-0.6-0.2-1.2-0.7-1.6
			s-1.1-0.5-1.8-0.5s-1.4,0.2-2,0.7c-0.5,0.4-1,1-1.2,1.6c-0.3,0.6-0.4,1.3-0.4,1.9h2.6C142.6,75.4,143.7,74.6,143.7,73.2
			L143.7,73.2z"/>
		<path d="M146.6,79.3l0.7-0.8c0.5,0.4,1,0.7,1.6,1c0.5,0.2,1.1,0.3,1.7,0.3c0.6,0,1.3-0.1,1.8-0.5c0.4-0.4,0.7-0.9,0.6-1.5
			c0-0.4-0.1-0.7-0.3-1s-0.5-0.5-0.8-0.6c-0.3-0.2-0.9-0.4-1.7-0.7c-0.6-0.2-1.2-0.5-1.7-0.8c-0.4-0.2-0.7-0.5-1-0.8
			c-0.3-0.4-0.4-0.8-0.4-1.2c0-0.8,0.3-1.5,0.9-2c0.7-0.5,1.5-0.8,2.4-0.8c0.5,0,1,0.1,1.5,0.2s0.9,0.3,1.3,0.6l-0.5,0.9
			c-0.7-0.4-1.4-0.6-2.2-0.6c-0.5,0-1.1,0.1-1.5,0.4c-0.3,0.2-0.5,0.7-0.5,1.1c0,0.3,0.1,0.6,0.3,0.9c0.2,0.2,0.5,0.4,0.7,0.6
			c0.3,0.2,0.8,0.4,1.5,0.6c0.6,0.3,1.3,0.5,1.9,0.9c0.4,0.2,0.7,0.6,1,0.9c0.3,0.4,0.4,0.9,0.4,1.4c0,0.9-0.3,1.7-1,2.3
			c-0.8,0.6-1.7,0.9-2.7,0.9C149,80.8,147.6,80.3,146.6,79.3z"/>
		<path d="M156.4,68.5c-0.2-0.2-0.3-0.4-0.3-0.6s0.1-0.5,0.3-0.6c0.2-0.2,0.4-0.3,0.6-0.3c0.2,0,0.5,0.1,0.6,0.3
			c0.2,0.2,0.3,0.4,0.3,0.6s-0.1,0.5-0.3,0.6c-0.2,0.2-0.4,0.3-0.6,0.3C156.8,68.8,156.6,68.7,156.4,68.5z M157.9,79.4
			c0.1,0.1,0.3,0.2,0.5,0.2c0.3,0,0.5-0.1,0.6-0.3l0.9,0.7c-0.1,0.3-0.3,0.5-0.6,0.6c-0.8,0.4-1.7,0.3-2.3-0.3
			c-0.4-0.4-0.6-0.9-0.6-1.4v-8.7h1.3v8.7C157.7,79.1,157.8,79.3,157.9,79.4z"/>
		<path d="M164.7,86.1c-1.5-0.9-2-3-1.1-4.5c0.2-0.3,0.4-0.6,0.7-0.8c-1.1-0.3-2-0.9-2.6-1.9c-0.7-1.1-1-2.3-1-3.6
			c0-1,0.2-2,0.6-2.8c0.4-0.8,1.1-1.4,1.8-1.9c0.8-0.5,1.8-0.7,2.7-0.7c0.4,0,0.8,0,1.1,0.1l1.3,0.1h1.2v13c0,0.9-0.3,1.8-0.9,2.5
			c-0.6,0.7-1.5,1-2.3,1C165.7,86.6,165.2,86.4,164.7,86.1z M166.9,78.9c0.4-0.3,0.7-0.6,0.9-1c0.2-0.3,0.3-0.6,0.4-1v-5.7l-1.9-0.2
			h-0.7c-0.7,0-1.3,0.2-1.9,0.6c-0.6,0.4-1,0.9-1.3,1.5c-0.3,0.7-0.5,1.4-0.5,2.2c0,0.7,0.1,1.5,0.4,2.1c0.2,0.6,0.6,1.2,1.1,1.6
			c0.4,0.4,1,0.6,1.6,0.6C165.7,79.7,166.4,79.4,166.9,78.9z M167.7,84.7c0.4-0.5,0.5-1.1,0.5-1.7v-4.1c0,0-0.1,0.2-0.3,0.4
			c-0.2,0.3-0.4,0.5-0.6,0.7c-0.4,0.3-0.8,0.6-1.2,0.8c-0.2,0.1-0.4,0.3-0.6,0.4c-0.7,0.4-1.1,1.2-1.1,2c0,0.5,0.2,1,0.6,1.4
			c0.4,0.4,0.9,0.6,1.4,0.6C166.9,85.3,167.4,85.1,167.7,84.7z"/>
		<path d="M183.4,79.9c-0.1,0.3-0.3,0.5-0.6,0.6c-0.3,0.2-0.6,0.2-0.9,0.2c-0.5,0-1-0.2-1.4-0.5c-0.4-0.4-0.6-0.9-0.5-1.4v-5.3
			c0-1.7-0.8-2.5-2.3-2.5c-0.7,0-1.3,0.2-1.8,0.5c-0.6,0.4-1.1,1-1.6,1.6v7.4H173v-7.4c0.1-0.9-0.3-1.8-0.9-2.4l0.8-0.8
			c0.3,0.2,0.5,0.4,0.7,0.7c0.2,0.3,0.4,0.6,0.5,1c0.4-0.6,1-1.1,1.6-1.4s1.3-0.4,2-0.4c0.9,0,1.7,0.2,2.4,0.8c0.6,0.6,1,1.4,1,2.3
			v5.8c0,0.2,0.1,0.4,0.2,0.5c0.1,0.1,0.3,0.2,0.5,0.2c0.3,0,0.5-0.1,0.6-0.3L183.4,79.9z"/>
	</g>
	<ellipse transform="matrix(0.8246 -0.5658 0.5658 0.8246 -26.6436 83.7384)" class="st5" cx="121.7" cy="84.8" rx="5.3" ry="2.7"/>
	<line class="st1" x1="115.9" y1="87.8" x2="114.1" y2="88"/>
	<line class="st1" x1="117" y1="89.2" x2="116.2" y2="90.9"/>
	<ellipse class="st6" cx="116.1" cy="91.2" rx="0.3" ry="0.3"/>
	<ellipse class="st6" cx="116.8" cy="82.4" rx="0.3" ry="0.3"/>
	<ellipse class="st6" cx="117.7" cy="87.6" rx="1.8" ry="1.8"/>
	<path class="st3" d="M119.6,85.1l-1.8,1.2c-0.5,0.4-1.6-0.1-2.2-0.9l0,0c-0.8-1.2-1.3-2.5-1.5-3.9l0,0c-0.1-1.3,0.7-1.9,1.9-1.3
		l0,0c1.3,0.7,2.4,1.7,3.4,3l0,0C120,84,120,84.8,119.6,85.1z"/>
	<path class="st4" d="M119.4,85.4l-2,0.2c-0.7-0.1-1.2-0.6-1.3-1.3l0,0c-0.1-1.1,0.1-2.2,0.5-3.1l0,0c0.2-0.6,1-0.9,1.7-0.6
		c0.1,0.1,0.4,0.3,0.5,0.4l0,0c0.8,0.9,1.2,2.1,1.3,3.1l0,0C120.1,84.7,120,85.2,119.4,85.4z"/>
	<path class="st3" d="M120.7,86.5l-1.7,1.2c-0.5,0.4-0.6,1.4,0.2,2.4l0,0c0.8,1.2,1.8,2.1,3.1,2.8l0,0c1.2,0.6,2.1-0.1,2-1.4l0,0
		c-0.1-1.5-0.8-3-1.7-4.2l0,0C121.9,86.5,121.1,86.2,120.7,86.5z"/>
	<path class="st4" d="M120.3,86.8l-0.9,1.8c-0.2,0.6,0.1,1.5,0.9,1.6l0,0c0.9,0.4,1.9,0.7,3.1,0.5l0,0c0.6,0,1.2-0.6,1.2-1.2
		c0-0.2-0.1-0.5-0.3-0.8l0,0c-0.5-1-1.4-1.8-2.4-2.3l0,0C121.1,86.2,120.4,86.3,120.3,86.8z"/>
</g>
</svg>
