<svg xmlns="http://www.w3.org/2000/svg" xmlns:xlink="http://www.w3.org/1999/xlink" width="1280" height="800" viewBox="0 0 1280 800">
  <defs>
    <linearGradient id="linear-gradient" x1="0.5" x2="1.136" y2="1.473" gradientUnits="objectBoundingBox">
      <stop offset="0" stop-color="#85d535"/>
      <stop offset="0.296" stop-color="#71b62d"/>
      <stop offset="1" stop-color="#436b1b"/>
    </linearGradient>
    <linearGradient id="linear-gradient-2" x1="0.861" y1="0.117" x2="-0.247" y2="0.718" gradientUnits="objectBoundingBox">
      <stop offset="0" stop-color="#85d535"/>
      <stop offset="0.672" stop-color="#71b62d"/>
      <stop offset="1" stop-color="#436b1b"/>
    </linearGradient>
    <linearGradient id="linear-gradient-3" x1="0.5" x2="1.607" y2="1.118" gradientUnits="objectBoundingBox">
      <stop offset="0" stop-color="#85d535"/>
      <stop offset="0.585" stop-color="#71b62d"/>
      <stop offset="1" stop-color="#436b1b"/>
    </linearGradient>
    <linearGradient id="linear-gradient-4" x1="0.5" x2="-0.461" y2="1" gradientUnits="objectBoundingBox">
      <stop offset="0" stop-color="#85d535"/>
      <stop offset="0.612" stop-color="#71b62d"/>
      <stop offset="1" stop-color="#436b1b"/>
    </linearGradient>
    <linearGradient id="linear-gradient-5" x2="0.788" y2="1.662" xlink:href="#linear-gradient"/>
    <linearGradient id="linear-gradient-6" x2="1.124" y2="1.487" xlink:href="#linear-gradient"/>
    <linearGradient id="linear-gradient-7" x2="-0.284" y2="1.595" xlink:href="#linear-gradient"/>
    <linearGradient id="linear-gradient-8" x2="0" y2="1.617" xlink:href="#linear-gradient"/>
    <linearGradient id="linear-gradient-10" x2="-0.931" y2="1" xlink:href="#linear-gradient"/>
    <linearGradient id="linear-gradient-12" x1="0.5" x2="0" y2="1.617" gradientUnits="objectBoundingBox">
      <stop offset="0" stop-color="#85d535"/>
      <stop offset="0.449" stop-color="#71b62d"/>
      <stop offset="1" stop-color="#436b1b"/>
    </linearGradient>
    <linearGradient id="linear-gradient-13" x1="-0.285" y1="1.051" x2="1.306" y2="-0.287" gradientUnits="objectBoundingBox">
      <stop offset="0" stop-color="#85d535"/>
      <stop offset="0.544" stop-color="#71b62d"/>
      <stop offset="0.722" stop-color="#68a729"/>
      <stop offset="1" stop-color="#436b1b"/>
    </linearGradient>
    <linearGradient id="linear-gradient-14" x1="0.141" y1="0.241" x2="1.263" y2="-0.28" gradientUnits="objectBoundingBox">
      <stop offset="0" stop-color="#7cded7"/>
      <stop offset="0.669" stop-color="#579b97"/>
      <stop offset="1" stop-color="#3e6f6c"/>
    </linearGradient>
    <linearGradient id="linear-gradient-15" x1="0.863" x2="-0.578" y2="-0.763" gradientUnits="objectBoundingBox">
      <stop offset="0" stop-color="#7cded7"/>
      <stop offset="0.743" stop-color="#49827e"/>
      <stop offset="1" stop-color="#3e6f6c"/>
    </linearGradient>
    <linearGradient id="linear-gradient-16" x1="0.5" x2="0.429" y2="1.978" gradientUnits="objectBoundingBox">
      <stop offset="0" stop-color="#7cded7"/>
      <stop offset="1" stop-color="#3e6f6c"/>
    </linearGradient>
    <linearGradient id="linear-gradient-18" x1="0.212" x2="1.044" y2="1" gradientUnits="objectBoundingBox">
      <stop offset="0" stop-color="#7cded7"/>
      <stop offset="0.538" stop-color="#61ada8"/>
      <stop offset="1" stop-color="#3e6f6c"/>
    </linearGradient>
    <linearGradient id="linear-gradient-19" x1="0.115" x2="1.454" y2="0.385" gradientUnits="objectBoundingBox">
      <stop offset="0" stop-color="#7cded7"/>
      <stop offset="0.474" stop-color="#66b7b1"/>
      <stop offset="1" stop-color="#3e6f6c"/>
    </linearGradient>
    <linearGradient id="linear-gradient-20" x1="1" y1="0.132" x2="-0.56" y2="0.654" xlink:href="#linear-gradient-16"/>
    <linearGradient id="linear-gradient-23" x1="0.936" y1="-0.126" x2="-0.499" y2="0.323" gradientUnits="objectBoundingBox">
      <stop offset="0" stop-color="#7cded7"/>
      <stop offset="0.892" stop-color="#4f8d89"/>
      <stop offset="1" stop-color="#3e6f6c"/>
    </linearGradient>
    <linearGradient id="linear-gradient-26" x1="0.074" y1="1.22" x2="1.252" y2="-0.397" gradientUnits="objectBoundingBox">
      <stop offset="0" stop-color="#7cded7"/>
      <stop offset="0.711" stop-color="#5da6a1"/>
      <stop offset="1" stop-color="#3e6f6c"/>
    </linearGradient>
    <clipPath id="clip-Logo">
      <rect width="1280" height="800"/>
    </clipPath>
  </defs>
  <g id="Logo" clip-path="url(#clip-Logo)">
    <rect width="1280" height="800" fill="#eaeaea"/>
    <circle id="Ellipse_14" data-name="Ellipse 14" cx="141" cy="141" r="141" transform="translate(113.962 259)" fill="#fff"/>
    <g id="top_left_logo" data-name="top left logo" transform="translate(131.58 295)">
      <path id="trunk" d="M82.177,139.489C64.848,92.29,86.063,45.04,86.063,45.04l-15.34-6.467c-24.731,44.733-5.886,100.916-5.886,100.916Z" transform="translate(10.855 -2.86)" fill="#70ad32" stroke="#395a0d" stroke-miterlimit="10" stroke-width="0.2"/>
      <g id="pot" transform="translate(44.737 130.603)">
        <path id="Path_16" data-name="Path 16" d="M13.312,0H59.98A13.312,13.312,0,0,1,73.292,13.312V64.421A13.312,13.312,0,0,1,59.98,77.733H13.312A13.458,13.458,0,0,1,6.3,75.741,13.2,13.2,0,0,1,0,64.421V13.312A13.312,13.312,0,0,1,13.312,0Z" fill="#a67d3d" stroke="#7e5c28" stroke-width="0.2"/>
      </g>
      <path id="leaf" d="M95.607,66.763s-14.291,22.059-54.656,5.91c0,0-12.149-4.325-12.13,5.912.019,6.2,8.091,10.235,8.091,10.235S85.352,117.077,95.607,66.763Z" transform="translate(-22.747 29.64)" stroke="#395a0d" stroke-miterlimit="10" stroke-width="0.2" fill="url(#linear-gradient)"/>
      <path id="leaf-2" d="M65.316,66.763s14.293,22.059,54.658,5.91c0,0,12.147-4.325,12.13,5.912-.019,6.2-8.093,10.235-8.093,10.235S75.57,117.077,65.316,66.763Z" transform="translate(19.328 29.64)" stroke="#395a0d" stroke-miterlimit="10" stroke-width="0.2" fill="url(#linear-gradient-2)"/>
      <path id="leaf-3" d="M83.873,82.867s-56.512,0-40.363-44.4c0,0,3.546-10.928,12.11-8.073,0,0,8.291,2.807,6.622,9.617-2.583,10.56-14.7,26.7,21.633,38.817Z" transform="translate(-9.158 -12.843)" stroke="#395a0d" stroke-miterlimit="10" stroke-width="0.2" fill="url(#linear-gradient-3)"/>
      <path id="leaf-4" d="M65.644,75.751s55,13,49.5-33.921c0,0-.937-11.451-9.925-10.638,0,0-8.717.822-8.661,7.839.086,10.872,8.16,29.374-29.984,32.8Z" transform="translate(19.706 -11.418)" stroke="#395a0d" stroke-miterlimit="10" stroke-width="0.2" fill="url(#linear-gradient-4)"/>
      <path id="leaf-5" d="M94.825,68.4S76.5,75.3,44.2,59.152c0,0-12.269-8.073-16.145-4.037-6.355,6.612,4.035,16.149,4.035,16.149S48.238,91.444,94.825,68.4Z" transform="translate(-26 14.908)" stroke="#395a0d" stroke-miterlimit="10" stroke-width="0.2" fill="url(#linear-gradient-5)"/>
      <path id="leaf-6" d="M83.755,70.587s-22.832,28.539-39.952,0c0,0-6.958-13.027,0-17.12,7.66-4.506,11.413,5.707,11.413,5.707S60.925,76.3,83.755,66.8Z" transform="translate(-9.04 12.987)" stroke="#395a0d" stroke-miterlimit="10" stroke-width="0.2" fill="url(#linear-gradient-6)"/>
      <path id="leaf-7" d="M67.191,68.4s18.328,6.9,50.622-9.245c0,0,12.269-8.073,16.145-4.037,6.355,6.612-4.032,16.149-4.032,16.149S113.776,91.444,67.191,68.4Z" transform="translate(21.49 14.908)" stroke="#395a0d" stroke-miterlimit="10" stroke-width="0.2" fill="url(#linear-gradient-7)"/>
      <path id="leaf-8" d="M73.706,61.224S50.375,43.316,56.442,31.369c4.5-8.859,12.427-2.153,12.427-2.153s6.3,4.523,5.5,11.434C73.685,46.429,71.48,47.912,73.706,61.224Z" transform="translate(7.937 -16.452)" stroke="#395a0d" stroke-miterlimit="10" stroke-width="0.2" fill="url(#linear-gradient-8)"/>
      <path id="leaf-9" d="M70.205,54.642s29.054-2.607,23.947-17.923c-4.035-12.11-19.114.36-19.114.36S78.009,44.79,70.205,54.642Z" transform="translate(24.965 -11.097)" stroke="#395a0d" stroke-miterlimit="10" stroke-width="0.2" fill="url(#linear-gradient-8)"/>
      <path id="leaf-10" d="M64.454,70.587s22.834,28.539,39.954,0c0,0,6.956-13.027,0-17.12-7.66-4.506-11.415,5.707-11.415,5.707S87.286,76.3,64.454,66.8Z" transform="translate(18.335 12.987)" stroke="#395a0d" stroke-miterlimit="10" stroke-width="0.2" fill="url(#linear-gradient-10)"/>
      <path id="leaf-11" d="M82.416,43.76s4.635-8.265,4.635-12.3c0-8.073-8.924-11.682-16.145-8.073-8.073,4.035-4.037,16.147-4.037,16.147S78.377,31.649,82.416,43.76Z" transform="translate(19.956 -21.985)" stroke="#395a0d" stroke-miterlimit="10" stroke-width="0.2" fill="url(#linear-gradient-8)"/>
      <path id="leaf-12" d="M65.928,71.508C94.46,55.858,86.744,35.539,86.744,35.539S82.919,23.36,70.668,31.22c-14.39,9.236-4.741,40.288-4.741,40.288Z" transform="translate(16.383 -14.384)" stroke="#395a0d" stroke-miterlimit="10" stroke-width="0.2" fill="url(#linear-gradient-12)"/>
      <rect id="pot-2" width="51.034" height="68.623" rx="11" transform="translate(63.341 135.263)" fill="#b18e59"/>
      <path id="pot-3" d="M77.361,86.638h0a7.677,7.677,0,0,1,7.677,7.677v45.409a7.677,7.677,0,0,1-7.677,7.677h0a7.677,7.677,0,0,1-7.675-7.677V94.315A7.677,7.677,0,0,1,77.361,86.638Z" transform="translate(24.367 52.555)" fill="#c4a676"/>
      <path id="leaf-13" d="M78.5,73.723s-2.127,24.093-17.962,27.26c-20.181,4.032-12.108,16.145-12.108,16.145s8.071,12.11,22.364,2.28c14.323-9.856,9.929-45.685,9.929-45.685Z" transform="translate(-1.974 37.665)" stroke="#395a0d" stroke-miterlimit="10" stroke-width="0.2" fill="url(#linear-gradient-13)"/>
      <g id="title_text" data-name="title text" transform="translate(169.175 59.02)">
        <path id="peachy_plant" data-name="peachy plant" d="M102.8,46.158h10.928a63.275,63.275,0,0,1,12.239.728,14.327,14.327,0,0,1,5.356,2.622,13.272,13.272,0,0,1,3.824,4.736,14.434,14.434,0,0,1,1.384,6.411,14.764,14.764,0,0,1-1.348,6.411,12.312,12.312,0,0,1-3.86,4.7,15.628,15.628,0,0,1-6.157,2.622,72.6,72.6,0,0,1-12.9.764h-3.206V99.488H102.8Zm6.265,22.95h8.306q7.36.145,10.018-2.332a8.11,8.11,0,0,0,2.659-6.194q0-8.306-12.239-8.306h-8.743Zm74.825,11.583H149.063a15.356,15.356,0,0,0,4.407,10.528,13.3,13.3,0,0,0,9.654,3.972q9.546,0,14.573-9.4l5.1,2.624a24.929,24.929,0,0,1-8.089,9.361,20.046,20.046,0,0,1-11.148,3.025,19.488,19.488,0,0,1-14.788-6.157,21.763,21.763,0,0,1,.037-29.689,19.2,19.2,0,0,1,14.534-6.194,19.616,19.616,0,0,1,14.5,5.865Q183.67,70.491,183.889,80.691Zm-6.7-5.318a12.8,12.8,0,0,0-4.954-7.942,14.624,14.624,0,0,0-8.889-2.842q-10.2,0-13.553,10.784ZM231.32,99.488h-5.9V93.66q-6.485,7.14-14.937,7.141a19.385,19.385,0,0,1-14.461-6.231,20.657,20.657,0,0,1-6.011-14.864,20.339,20.339,0,0,1,6.048-14.788,19.889,19.889,0,0,1,14.754-6.157,18.306,18.306,0,0,1,14.608,7.068V59.782h5.9Zm-20.4-4.3a14.23,14.23,0,0,0,10.42-4.373,14.784,14.784,0,0,0,4.37-10.892A15.033,15.033,0,0,0,221.412,69a14.137,14.137,0,0,0-10.53-4.409,13.927,13.927,0,0,0-10.528,4.553,15.493,15.493,0,0,0,.073,21.495A14.031,14.031,0,0,0,210.918,95.191Zm69.07-3.789a20.273,20.273,0,0,1-8.2,6.995,25.263,25.263,0,0,1-10.965,2.4,21.022,21.022,0,0,1-15.337-6.048,19.941,19.941,0,0,1-6.157-14.791,20.475,20.475,0,0,1,6.194-14.971,21.62,21.62,0,0,1,16.029-6.231A22.978,22.978,0,0,1,272.3,61.313a18.977,18.977,0,0,1,7.686,7.139l-4.736,2.986a16.728,16.728,0,0,0-13.914-6.919,15.91,15.91,0,0,0-11.367,4.334A14.2,14.2,0,0,0,245.38,79.6a15.141,15.141,0,0,0,4.517,11,15.388,15.388,0,0,0,11.441,4.59A17.386,17.386,0,0,0,275.325,88.2Zm42.768,8.086h-6.048V80.547a62.416,62.416,0,0,0-.327-7.8,11.751,11.751,0,0,0-1.494-4.263,7.839,7.839,0,0,0-3.169-3.059,10.168,10.168,0,0,0-4.81-1.057,11.538,11.538,0,0,0-5.354,1.311,13.11,13.11,0,0,0-4.37,3.643,13.668,13.668,0,0,0-2.515,4.954,50.221,50.221,0,0,0-.691,10.491V99.488H287.93V44.845h6.048V65.756a17.79,17.79,0,0,1,13.987-6.995,14.245,14.245,0,0,1,7.8,2.222,13.751,13.751,0,0,1,5.247,6.121q1.747,3.9,1.748,11.985Zm43.132-39.706-23.534,53.769h-6.265l7.649-17.486-16.1-36.283H333.9l13.04,29.071,12.605-29.071ZM102.8,135.044h10.928a63.444,63.444,0,0,1,12.239.728,14.331,14.331,0,0,1,5.356,2.624,13.247,13.247,0,0,1,3.824,4.734,14.446,14.446,0,0,1,1.384,6.411,14.765,14.765,0,0,1-1.348,6.411,12.3,12.3,0,0,1-3.86,4.7,15.632,15.632,0,0,1-6.157,2.624,73.011,73.011,0,0,1-12.9.764h-3.206v24.334H102.8Zm6.265,22.95h8.306q7.36.145,10.018-2.332a8.105,8.105,0,0,0,2.659-6.192q0-8.306-12.239-8.306h-8.743Zm40.946,30.382h-5.974V133.732h5.974Zm48.522,0h-5.9v-5.828q-6.485,7.14-14.935,7.139a19.384,19.384,0,0,1-14.463-6.228,20.669,20.669,0,0,1-6.011-14.864A20.353,20.353,0,0,1,163.27,153.8a19.9,19.9,0,0,1,14.754-6.155,18.307,18.307,0,0,1,14.608,7.066v-6.048h5.9Zm-20.4-4.3a14.218,14.218,0,0,0,10.418-4.37,14.788,14.788,0,0,0,4.373-10.894,15.051,15.051,0,0,0-4.3-10.928,14.141,14.141,0,0,0-10.528-4.407,13.916,13.916,0,0,0-10.528,4.553,15.484,15.484,0,0,0,.073,21.493A14.031,14.031,0,0,0,178.134,184.076Zm65.061,4.3h-5.974V169.432a41.73,41.73,0,0,0-.62-8.924,11.689,11.689,0,0,0-1.821-4.009,7.33,7.33,0,0,0-3.059-2.439,11.379,11.379,0,0,0-4.517-.8,11.252,11.252,0,0,0-5.21,1.313,13.1,13.1,0,0,0-4.37,3.643,13.667,13.667,0,0,0-2.515,4.954,50.215,50.215,0,0,0-.691,10.491v14.717h-6.048V148.667h6.048v5.974a17.781,17.781,0,0,1,13.988-6.993,14.21,14.21,0,0,1,7.8,2.222,13.721,13.721,0,0,1,5.247,6.119q1.747,3.9,1.748,11.985Zm27.54-34.462h-7.869v27.831q0,1.531.437,1.858a4.425,4.425,0,0,0,2.187.329h3.5V189.1a35,35,0,0,1-5.318.583,6.95,6.95,0,0,1-5.173-1.712,7.537,7.537,0,0,1-1.677-5.428V153.914H249.97v-5.247h6.848V133.732h6.048v14.935h7.869Z" transform="translate(-102.799 -44.845)" fill="#080808"/>
      </g>
    </g>
    <g id="Group_27" data-name="Group 27" transform="translate(9.156 99)">
      <circle id="Ellipse_15" data-name="Ellipse 15" cx="141" cy="141" r="141" transform="translate(708 160)" fill="#fff"/>
      <g id="Group_26" data-name="Group 26" transform="translate(-47.622 95.642)">
        <g id="Group_25" data-name="Group 25">
          <g id="Group_24" data-name="Group 24" transform="translate(-126 32)">
            <g id="right_top_logo" data-name="right top logo" transform="translate(146.801 -28.625)">
              <g id="top_right_logo" data-name="top right logo" transform="translate(752.821 90.625)">
                <path id="trunk-2" data-name="trunk" d="M82.214,139.646c-17.356-47.272,3.892-94.6,3.892-94.6L70.743,38.573c-24.769,44.8-5.9,101.073-5.9,101.073Z" transform="translate(10.963 -2.805)" fill="#6db2ae" stroke="#266f6a" stroke-miterlimit="10" stroke-width="0.2"/>
                <g id="pot-2-2" data-name="pot" transform="translate(44.807 130.807)">
                  <path id="Path_16-2" data-name="Path 16" d="M13.333,0H60.073A13.333,13.333,0,0,1,73.406,13.333V64.522A13.333,13.333,0,0,1,60.073,77.855H13.333a13.479,13.479,0,0,1-7.02-2A13.225,13.225,0,0,1,0,64.522V13.333A13.333,13.333,0,0,1,13.333,0Z" transform="translate(0 0)" fill="#a67d3d" stroke="#7e5c28" stroke-width="0.2"/>
                </g>
                <path id="leaf-2-2" data-name="leaf" d="M95.711,66.763S81.4,88.856,40.969,72.682c0,0-12.168-4.332-12.148,5.921.019,6.208,8.1,10.251,8.1,10.251S85.44,117.155,95.711,66.763Z" transform="translate(-22.738 29.791)" stroke="#266f6a" stroke-miterlimit="10" stroke-width="0.2" fill="url(#linear-gradient-14)"/>
                <path id="leaf-2-3" data-name="leaf-2" d="M65.316,66.763s14.315,22.093,54.743,5.919c0,0,12.166-4.332,12.148,5.921-.019,6.208-8.105,10.251-8.105,10.251S75.586,117.155,65.316,66.763Z" transform="translate(19.46 29.791)" stroke="#266f6a" stroke-miterlimit="10" stroke-width="0.2" fill="url(#linear-gradient-15)"/>
                <path id="leaf-3-2" data-name="leaf-3" d="M83.94,82.95s-56.6,0-40.426-44.473c0,0,3.551-10.945,12.129-8.086,0,0,8.3,2.812,6.633,9.632C59.689,50.6,47.558,66.769,83.943,78.9Z" transform="translate(-9.109 -12.817)" stroke="#266f6a" stroke-miterlimit="10" stroke-width="0.2" fill="url(#linear-gradient-16)"/>
                <path id="leaf-4-2" data-name="leaf-4" d="M65.644,75.821s55.084,13.024,49.577-33.974c0,0-.938-11.469-9.94-10.654,0,0-8.731.824-8.675,7.851.086,10.889,8.172,29.42-30.03,32.849Z" transform="translate(19.84 -11.387)" stroke="#266f6a" stroke-miterlimit="10" stroke-width="0.2" fill="url(#linear-gradient-16)"/>
                <path id="leaf-5-2" data-name="leaf-5" d="M94.932,68.419s-18.356,6.913-50.7-9.259c0,0-12.289-8.086-16.17-4.043C21.7,61.739,32.1,71.291,32.1,71.291S48.272,91.5,94.932,68.419Z" transform="translate(-26 15.016)" stroke="#266f6a" stroke-miterlimit="10" stroke-width="0.2" fill="url(#linear-gradient-18)"/>
                <path id="leaf-6-2" data-name="leaf-6" d="M83.822,70.615s-22.867,28.584-40.014,0c0,0-6.969-13.048,0-17.147,7.672-4.513,11.43,5.716,11.43,5.716s5.718,17.151,28.584,7.642Z" transform="translate(-8.99 13.089)" stroke="#266f6a" stroke-miterlimit="10" stroke-width="0.2" fill="url(#linear-gradient-19)"/>
                <path id="leaf-7-2" data-name="leaf-7" d="M67.191,68.419s18.356,6.913,50.7-9.259c0,0,12.289-8.086,16.17-4.043,6.365,6.622-4.039,16.174-4.039,16.174S113.848,91.5,67.191,68.419Z" transform="translate(21.628 15.016)" stroke="#266f6a" stroke-miterlimit="10" stroke-width="0.2" fill="url(#linear-gradient-20)"/>
                <path id="leaf-8-2" data-name="leaf-8" d="M73.735,61.278s-23.368-17.936-17.291-29.9C60.946,22.5,68.89,29.22,68.89,29.22s6.311,4.53,5.5,11.452C73.713,46.46,71.505,47.945,73.735,61.278Z" transform="translate(8.035 -16.436)" stroke="#266f6a" stroke-miterlimit="10" stroke-width="0.2" fill="url(#linear-gradient-16)"/>
                <path id="leaf-9-2" data-name="leaf-9" d="M70.205,54.678s29.1-2.611,23.984-17.951c-4.041-12.129-19.143.36-19.143.36S78.021,44.811,70.205,54.678Z" transform="translate(25.113 -11.066)" stroke="#266f6a" stroke-miterlimit="10" stroke-width="0.2" fill="url(#linear-gradient-16)"/>
                <path id="leaf-10-2" data-name="leaf-10" d="M64.454,70.615s22.869,28.584,40.016,0c0,0,6.967-13.048,0-17.147-7.672-4.513-11.433,5.716-11.433,5.716s-5.716,17.151-28.584,7.642Z" transform="translate(18.464 13.089)" stroke="#266f6a" stroke-miterlimit="10" stroke-width="0.2" fill="url(#linear-gradient-23)"/>
                <path id="leaf-11-2" data-name="leaf-11" d="M82.441,43.794s4.642-8.278,4.642-12.321c0-8.086-8.938-11.7-16.17-8.086-8.086,4.041-4.043,16.172-4.043,16.172S78.4,31.665,82.441,43.794Z" transform="translate(20.09 -21.985)" stroke="#266f6a" stroke-miterlimit="10" stroke-width="0.2" fill="url(#linear-gradient-16)"/>
                <path id="leaf-12-2" data-name="leaf-12" d="M65.933,71.575C94.51,55.9,86.782,35.55,86.782,35.55s-3.832-12.2-16.1-4.325c-14.413,9.25-4.748,40.35-4.748,40.35Z" transform="translate(16.506 -14.362)" stroke="#266f6a" stroke-miterlimit="10" stroke-width="0.2" fill="url(#linear-gradient-16)"/>
                <rect id="pot-2-3" data-name="pot-2" width="51.113" height="68.73" rx="11" transform="translate(63.439 135.474)" fill="#b18e59"/>
                <path id="pot-3-2" data-name="pot-3" d="M77.373,86.638h0a7.689,7.689,0,0,1,7.689,7.689v45.48a7.689,7.689,0,0,1-7.689,7.689h0a7.689,7.689,0,0,1-7.687-7.689V94.327A7.689,7.689,0,0,1,77.373,86.638Z" transform="translate(24.513 52.772)" fill="#c4a676"/>
                <path id="leaf-13-2" data-name="leaf-13" d="M78.553,73.723s-2.13,24.131-17.99,27.3c-20.213,4.039-12.127,16.17-12.127,16.17s8.084,12.129,22.4,2.283c14.346-9.871,9.945-45.756,9.945-45.756Z" transform="translate(-1.904 37.838)" stroke="#266f6a" stroke-miterlimit="10" stroke-width="0.2" fill="url(#linear-gradient-26)"/>
              </g>
            </g>
          </g>
          <g id="title_text-2" data-name="title text" transform="translate(943.609 159.492)">
            <path id="peachy_plant-2" data-name="peachy plant" d="M102.8,46.158h10.928a63.275,63.275,0,0,1,12.239.728,14.327,14.327,0,0,1,5.356,2.622,13.272,13.272,0,0,1,3.824,4.736,14.434,14.434,0,0,1,1.384,6.411,14.764,14.764,0,0,1-1.348,6.411,12.312,12.312,0,0,1-3.86,4.7,15.628,15.628,0,0,1-6.157,2.622,72.6,72.6,0,0,1-12.9.764h-3.206V99.488H102.8Zm6.265,22.95h8.306q7.36.145,10.018-2.332a8.11,8.11,0,0,0,2.659-6.194q0-8.306-12.239-8.306h-8.743Zm74.825,11.583H149.063a15.356,15.356,0,0,0,4.407,10.528,13.3,13.3,0,0,0,9.654,3.972q9.546,0,14.573-9.4l5.1,2.624a24.929,24.929,0,0,1-8.089,9.361,20.046,20.046,0,0,1-11.148,3.025,19.488,19.488,0,0,1-14.788-6.157,21.763,21.763,0,0,1,.037-29.689,19.2,19.2,0,0,1,14.534-6.194,19.616,19.616,0,0,1,14.5,5.865Q183.67,70.491,183.889,80.691Zm-6.7-5.318a12.8,12.8,0,0,0-4.954-7.942,14.624,14.624,0,0,0-8.889-2.842q-10.2,0-13.553,10.784ZM231.32,99.488h-5.9V93.66q-6.485,7.14-14.937,7.141a19.385,19.385,0,0,1-14.461-6.231,20.657,20.657,0,0,1-6.011-14.864,20.339,20.339,0,0,1,6.048-14.788,19.889,19.889,0,0,1,14.754-6.157,18.306,18.306,0,0,1,14.608,7.068V59.782h5.9Zm-20.4-4.3a14.23,14.23,0,0,0,10.42-4.373,14.784,14.784,0,0,0,4.37-10.892A15.033,15.033,0,0,0,221.412,69a14.137,14.137,0,0,0-10.53-4.409,13.927,13.927,0,0,0-10.528,4.553,15.493,15.493,0,0,0,.073,21.495A14.031,14.031,0,0,0,210.918,95.191Zm69.07-3.789a20.273,20.273,0,0,1-8.2,6.995,25.263,25.263,0,0,1-10.965,2.4,21.022,21.022,0,0,1-15.337-6.048,19.941,19.941,0,0,1-6.157-14.791,20.475,20.475,0,0,1,6.194-14.971,21.62,21.62,0,0,1,16.029-6.231A22.978,22.978,0,0,1,272.3,61.313a18.977,18.977,0,0,1,7.686,7.139l-4.736,2.986a16.728,16.728,0,0,0-13.914-6.919,15.91,15.91,0,0,0-11.367,4.334A14.2,14.2,0,0,0,245.38,79.6a15.141,15.141,0,0,0,4.517,11,15.388,15.388,0,0,0,11.441,4.59A17.386,17.386,0,0,0,275.325,88.2Zm42.768,8.086h-6.048V80.547a62.416,62.416,0,0,0-.327-7.8,11.751,11.751,0,0,0-1.494-4.263,7.839,7.839,0,0,0-3.169-3.059,10.168,10.168,0,0,0-4.81-1.057,11.538,11.538,0,0,0-5.354,1.311,13.11,13.11,0,0,0-4.37,3.643,13.668,13.668,0,0,0-2.515,4.954,50.221,50.221,0,0,0-.691,10.491V99.488H287.93V44.845h6.048V65.756a17.79,17.79,0,0,1,13.987-6.995,14.245,14.245,0,0,1,7.8,2.222,13.751,13.751,0,0,1,5.247,6.121q1.747,3.9,1.748,11.985Zm43.132-39.706-23.534,53.769h-6.265l7.649-17.486-16.1-36.283H333.9l13.04,29.071,12.605-29.071ZM102.8,135.044h10.928a63.444,63.444,0,0,1,12.239.728,14.331,14.331,0,0,1,5.356,2.624,13.247,13.247,0,0,1,3.824,4.734,14.446,14.446,0,0,1,1.384,6.411,14.765,14.765,0,0,1-1.348,6.411,12.3,12.3,0,0,1-3.86,4.7,15.632,15.632,0,0,1-6.157,2.624,73.011,73.011,0,0,1-12.9.764h-3.206v24.334H102.8Zm6.265,22.95h8.306q7.36.145,10.018-2.332a8.105,8.105,0,0,0,2.659-6.192q0-8.306-12.239-8.306h-8.743Zm40.946,30.382h-5.974V133.732h5.974Zm48.522,0h-5.9v-5.828q-6.485,7.14-14.935,7.139a19.384,19.384,0,0,1-14.463-6.228,20.669,20.669,0,0,1-6.011-14.864A20.353,20.353,0,0,1,163.27,153.8a19.9,19.9,0,0,1,14.754-6.155,18.307,18.307,0,0,1,14.608,7.066v-6.048h5.9Zm-20.4-4.3a14.218,14.218,0,0,0,10.418-4.37,14.788,14.788,0,0,0,4.373-10.894,15.051,15.051,0,0,0-4.3-10.928,14.141,14.141,0,0,0-10.528-4.407,13.916,13.916,0,0,0-10.528,4.553,15.484,15.484,0,0,0,.073,21.493A14.031,14.031,0,0,0,178.134,184.076Zm65.061,4.3h-5.974V169.432a41.73,41.73,0,0,0-.62-8.924,11.689,11.689,0,0,0-1.821-4.009,7.33,7.33,0,0,0-3.059-2.439,11.379,11.379,0,0,0-4.517-.8,11.252,11.252,0,0,0-5.21,1.313,13.1,13.1,0,0,0-4.37,3.643,13.667,13.667,0,0,0-2.515,4.954,50.215,50.215,0,0,0-.691,10.491v14.717h-6.048V148.667h6.048v5.974a17.781,17.781,0,0,1,13.988-6.993,14.21,14.21,0,0,1,7.8,2.222,13.721,13.721,0,0,1,5.247,6.119q1.747,3.9,1.748,11.985Zm27.54-34.462h-7.869v27.831q0,1.531.437,1.858a4.425,4.425,0,0,0,2.187.329h3.5V189.1a35,35,0,0,1-5.318.583,6.95,6.95,0,0,1-5.173-1.712,7.537,7.537,0,0,1-1.677-5.428V153.914H249.97v-5.247h6.848V133.732h6.048v14.935h7.869Z" transform="translate(-102.799 -44.845)"/>
          </g>
        </g>
      </g>
    </g>
    <line id="Line_12" data-name="Line 12" y1="484" transform="translate(640.5 170.5)" fill="none" stroke="#030303" stroke-width="2"/>
  </g>
</svg>
