<?xml version="1.0" encoding="utf-8"?>
<!-- Generator: Adobe Illustrator 25.4.1, SVG Export Plug-In . SVG Version: 6.00 Build 0)  -->
<svg version="1.1" id="Layer_1" xmlns="http://www.w3.org/2000/svg" xmlns:xlink="http://www.w3.org/1999/xlink" x="0px" y="0px"
	 viewBox="0 0 252 144" style="enable-background:new 0 0 252 144;" xml:space="preserve">
<style type="text/css">
	.st0{fill:none;stroke:#FFFFFF;stroke-width:0.5;stroke-miterlimit:10;}
	.st1{fill:#A69DCE;stroke:#F1F1F1;stroke-width:1.2;stroke-miterlimit:10;}
	.st2{fill:#B28CBF;stroke:#F1F1F1;stroke-width:1.2;stroke-miterlimit:10;}
	.st3{fill:#CF9BB2;stroke:#F1F1F1;stroke-width:1.2;stroke-miterlimit:10;}
	.st4{fill:#E5BD7F;stroke:#F1F1F1;stroke-width:1.2;stroke-miterlimit:10;}
	.st5{display:none;}
	.st6{display:inline;}
	.st7{fill:none;stroke:#FFFDFE;stroke-width:1.2;stroke-linecap:round;stroke-miterlimit:10;}
	.st8{fill:#FFFFFF;stroke:#FFFFFF;stroke-width:0.5;stroke-miterlimit:10.0002;}
</style>
<line class="st0" x1="54.8" y1="51.9" x2="55.1" y2="49.6"/>
<line class="st0" x1="52.8" y1="53" x2="50.8" y2="51.7"/>
<g>
	<path class="st1" d="M143.4,92.6c-0.7,0.7-5.5,7.2-3.8,15.1c2.8,14.4,24.1,22,29.9,16.5c2.4-2.1,2.1-6.5-2.8-13.8
		c1-0.3,6.5-1.7,9.3-6.5c2.4-4.5,2.4-10.3,0-13.8C170.5,81.9,152,82.3,143.4,92.6z"/>
	<path class="st2" d="M139.9,58.9c-11.3-3.8-24.1-1-32.3,7.2c-7.6,7.6-13.4,21.7-6.2,33.4c6.5,11,22.4,14.4,33,8.6
		c7.6-3.8,10.3-11.3,11-13.8c8.9,6.5,21.7,6.5,29.9,0c7.6-5.8,11-16.2,8.3-26.1"/>
	<path class="st3" d="M151.3,29c4.8-4.5,11.7-5.2,17.9-2.4c5.8,2.8,10,8.9,9.3,15.8c10,3.8,13.4,15.1,9.3,22
		c-3.1,5.8-11.3,8.9-18.9,6.2c-3.8,6.2-12,8.9-18.9,6.2c-7.2-2.8-11-10.7-9.3-18.2"/>
	<path class="st4" d="M101.7,98.8c-14.4,6.2-28.9-1-35.4-13.1c-5.8-10.3-4.8-23.4,2.8-32.7c-1.7-10,2.8-19.3,11-24.4
		c10.7-6.5,22.4-1.7,23.4-1c2.1-1.7,13.4-11.7,28.9-9.3c2.8,0.3,15.1,2.8,21.7,13.8c0.7,1.7,5.2,11,0,19.3c-4.5,7.2-12,7.9-13.8,8.3
		c-1-0.3-16.5-4.8-29.2,5.5C101.4,72.7,95.6,84.4,101.7,98.8z"/>
</g>
<g class="st5">
	<g class="st6">
		<line class="st7" x1="69.5" y1="65" x2="78.1" y2="68"/>
		<line class="st7" x1="90.6" y1="38.2" x2="95.6" y2="45.6"/>
		<line class="st7" x1="125.8" y1="30.3" x2="125.8" y2="39.3"/>
	</g>
	<g class="st6">
		<line class="st7" x1="72.5" y1="98.4" x2="80.7" y2="95.6"/>
	</g>
	<g class="st6">
		<line class="st7" x1="173.2" y1="99.9" x2="164.6" y2="97.1"/>
	</g>
	<g class="st6">
		<line class="st7" x1="182.5" y1="66.5" x2="174.1" y2="69.3"/>
		<line class="st7" x1="161.6" y1="39.7" x2="156.4" y2="47.1"/>
	</g>
</g>
<ellipse class="st8" cx="50.3" cy="51.3" rx="0.5" ry="0.5"/>
<ellipse class="st8" cx="54.3" cy="49.2" rx="0.4" ry="0.4"/>
</svg>
