<?xml version="1.0" encoding="utf-8"?>
<!-- Generator: Adobe Illustrator 25.4.1, SVG Export Plug-In . SVG Version: 6.00 Build 0)  -->
<svg version="1.1" id="Layer_1" xmlns="http://www.w3.org/2000/svg" xmlns:xlink="http://www.w3.org/1999/xlink" x="0px" y="0px"
	 viewBox="0 0 252 144" style="enable-background:new 0 0 252 144;" xml:space="preserve">
<style type="text/css">
	.st0{fill:none;stroke:#FFFFFF;stroke-width:0.5;stroke-miterlimit:10;}
	.st1{fill:#A69DCE;stroke:#F1F1F1;stroke-width:1.2;stroke-miterlimit:10;}
	.st2{fill:#B28CBF;stroke:#F1F1F1;stroke-width:1.2;stroke-miterlimit:10;}
	.st3{fill:#CF9BB2;stroke:#F1F1F1;stroke-width:1.2;stroke-miterlimit:10;}
	.st4{fill:#E5BD7F;stroke:#F1F1F1;stroke-width:1.2;stroke-miterlimit:10;}
	.st5{display:none;}
	.st6{display:inline;}
	.st7{fill:none;stroke:#FFFDFE;stroke-width:1.2;stroke-linecap:round;stroke-miterlimit:10;}
	.st8{fill:#FFFFFF;stroke:#FFFFFF;stroke-width:0.5;stroke-miterlimit:10.0002;}
</style>
<line class="st0" x1="54.8" y1="51.9" x2="55.1" y2="49.6"/>
<line class="st0" x1="52.8" y1="53" x2="50.8" y2="51.7"/>
<g>
	<g>
		<path class="st1" d="M130.5,43.3c-0.2,0.2-1.6,2.1-1.1,4.4c0.8,4.2,7,6.4,8.7,4.8c0.7-0.6,0.6-1.9-0.8-4c0.3-0.1,1.9-0.5,2.7-1.9
			c0.7-1.3,0.7-3,0-4C138.4,40.2,133,40.3,130.5,43.3z"/>
		<path class="st2" d="M129.5,33.5c-3.3-1.1-7-0.3-9.4,2.1c-2.2,2.2-3.9,6.3-1.8,9.7c1.9,3.2,6.5,4.2,9.6,2.5c2.2-1.1,3-3.3,3.2-4
			c2.6,1.9,6.3,1.9,8.7,0c2.2-1.7,3.2-4.7,2.4-7.6"/>
		<path class="st3" d="M132.8,24.8c1.4-1.3,3.4-1.5,5.2-0.7c1.7,0.8,2.9,2.6,2.7,4.6c2.9,1.1,3.9,4.4,2.7,6.4
			c-0.9,1.7-3.3,2.6-5.5,1.8c-1.1,1.8-3.5,2.6-5.5,1.8c-2.1-0.8-3.2-3.1-2.7-5.3"/>
		<path class="st4" d="M118.4,45.1c-4.2,1.8-8.4-0.3-10.3-3.8c-1.7-3-1.4-6.8,0.8-9.5c-0.5-2.9,0.8-5.6,3.2-7.1
			c3.1-1.9,6.5-0.5,6.8-0.3c0.6-0.5,3.9-3.4,8.4-2.7c0.8,0.1,4.4,0.8,6.3,4c0.2,0.5,1.5,3.2,0,5.6c-1.3,2.1-3.5,2.3-4,2.4
			c-0.3-0.1-4.8-1.4-8.5,1.6C118.3,37.5,116.6,40.9,118.4,45.1z"/>
	</g>
	<g class="st5">
		<g class="st6">
			<line class="st7" x1="99.8" y1="30.4" x2="103.8" y2="31.8"/>
			<line class="st7" x1="109.6" y1="18" x2="111.9" y2="21.4"/>
			<line class="st7" x1="125.9" y1="14.3" x2="125.9" y2="18.5"/>
		</g>
		<g class="st6">
			<line class="st7" x1="101.2" y1="45.9" x2="105" y2="44.6"/>
		</g>
		<g class="st6">
			<line class="st7" x1="147.9" y1="46.6" x2="143.9" y2="45.3"/>
		</g>
		<g class="st6">
			<line class="st7" x1="152.2" y1="31.1" x2="148.3" y2="32.4"/>
			<line class="st7" x1="142.5" y1="18.7" x2="140.1" y2="22.1"/>
		</g>
	</g>
</g>
<ellipse class="st8" cx="50.3" cy="51.3" rx="0.5" ry="0.5"/>
<ellipse class="st8" cx="54.3" cy="49.2" rx="0.4" ry="0.4"/>
<g>
	<path d="M47,82.5V61.9h1.4v19.4h8.9v1.2H47z"/>
	<path d="M67.7,82.9c-1.3,0-2.5-0.3-3.6-0.9s-1.9-1.4-2.5-2.4s-0.9-2.2-0.9-3.5s0.3-2.5,0.9-3.5c0.6-1,1.5-1.8,2.5-2.4
		c1.1-0.6,2.2-0.9,3.6-0.9c1.3,0,2.5,0.3,3.5,0.9c1.1,0.6,1.9,1.4,2.5,2.4c0.6,1,0.9,2.2,0.9,3.5s-0.3,2.5-0.9,3.5s-1.5,1.8-2.5,2.4
		S69,82.9,67.7,82.9z M67.7,81.7c1.1,0,2-0.2,2.9-0.7c0.8-0.5,1.5-1.1,2-2c0.5-0.8,0.7-1.8,0.7-2.9c0-1.1-0.2-2-0.7-2.9
		c-0.5-0.8-1.2-1.5-2-2c-0.8-0.5-1.8-0.7-2.9-0.7s-2,0.2-2.9,0.7c-0.8,0.5-1.5,1.1-2,2c-0.5,0.8-0.7,1.8-0.7,2.9
		c0,1.1,0.2,2,0.7,2.9c0.5,0.8,1.2,1.5,2,2C65.7,81.5,66.6,81.7,67.7,81.7z"/>
	<path d="M84.9,89.4c-1.6,0-2.9-0.3-4-1s-1.9-1.6-2.5-2.8l1.2-0.5c0.4,0.9,1.1,1.7,2.1,2.3c1,0.6,2.1,0.9,3.3,0.9c1,0,2-0.2,2.8-0.6
		c0.8-0.4,1.5-1,2-1.8c0.5-0.8,0.7-1.7,0.7-2.8v-3.5c-0.5,1-1.3,1.9-2.3,2.5c-1,0.6-2.1,0.9-3.2,0.9c-1.2,0-2.3-0.3-3.3-0.9
		c-1-0.6-1.7-1.4-2.3-2.4c-0.6-1-0.8-2.2-0.8-3.5c0-1.3,0.3-2.5,0.8-3.5c0.6-1,1.3-1.8,2.3-2.4c1-0.6,2.1-0.9,3.3-0.9
		c1.2,0,2.3,0.3,3.2,0.9s1.7,1.4,2.2,2.5v-2.9h1.3v13.1c0,1.5-0.3,2.7-0.9,3.6s-1.4,1.7-2.4,2.2C87.4,89.2,86.2,89.4,84.9,89.4z
		 M85.1,81.8c1,0,2-0.2,2.8-0.7c0.8-0.5,1.4-1.1,1.9-2c0.5-0.9,0.7-1.8,0.7-2.9s-0.2-2.1-0.7-2.9c-0.5-0.9-1.1-1.5-1.9-2
		s-1.7-0.7-2.8-0.7c-1,0-1.9,0.2-2.7,0.7c-0.8,0.5-1.4,1.1-1.9,2c-0.5,0.8-0.7,1.8-0.7,2.9s0.2,2.1,0.7,2.9c0.5,0.8,1.1,1.5,1.9,2
		C83.2,81.5,84.1,81.8,85.1,81.8z"/>
	<path d="M103.2,82.9c-1.3,0-2.5-0.3-3.6-0.9c-1.1-0.6-1.9-1.4-2.5-2.4s-0.9-2.2-0.9-3.5s0.3-2.5,0.9-3.5c0.6-1,1.5-1.8,2.5-2.4
		c1.1-0.6,2.2-0.9,3.6-0.9c1.3,0,2.5,0.3,3.5,0.9c1.1,0.6,1.9,1.4,2.5,2.4c0.6,1,0.9,2.2,0.9,3.5s-0.3,2.5-0.9,3.5
		c-0.6,1-1.5,1.8-2.5,2.4C105.7,82.6,104.5,82.9,103.2,82.9z M103.2,81.7c1.1,0,2-0.2,2.9-0.7s1.5-1.1,2-2s0.7-1.8,0.7-2.9
		c0-1.1-0.2-2-0.7-2.9c-0.5-0.8-1.2-1.5-2-2c-0.8-0.5-1.8-0.7-2.9-0.7c-1.1,0-2,0.2-2.9,0.7c-0.8,0.5-1.5,1.1-2,2
		c-0.5,0.8-0.7,1.8-0.7,2.9c0,1.1,0.2,2,0.7,2.9s1.2,1.5,2,2S102.1,81.7,103.2,81.7z"/>
	<path d="M121.9,82.5V61.9h4.4c1.5,0,2.8,0.3,4.1,0.8s2.4,1.3,3.3,2.2c0.9,0.9,1.7,2,2.2,3.3c0.5,1.2,0.8,2.6,0.8,4
		c0,1.5-0.3,2.8-0.8,4.1s-1.3,2.3-2.2,3.3c-0.9,0.9-2,1.7-3.3,2.2s-2.6,0.8-4.1,0.8H121.9z M123.2,81.3h2.9c1.3,0,2.5-0.2,3.6-0.7
		c1.1-0.5,2.1-1.1,2.9-1.9c0.8-0.8,1.5-1.8,1.9-2.9c0.5-1.1,0.7-2.3,0.7-3.6s-0.2-2.5-0.7-3.6c-0.5-1.1-1.1-2.1-1.9-2.9
		c-0.8-0.8-1.8-1.5-2.9-1.9c-1.1-0.5-2.3-0.7-3.6-0.7h-2.9V81.3z"/>
	<path d="M147.7,82.9c-1.3,0-2.5-0.3-3.6-0.9s-1.9-1.4-2.5-2.4s-0.9-2.2-0.9-3.4c0-1,0.2-1.9,0.5-2.7c0.3-0.8,0.8-1.6,1.4-2.2
		c0.6-0.6,1.3-1.1,2.1-1.5c0.8-0.4,1.7-0.5,2.6-0.5c1.2,0,2.3,0.3,3.3,0.8s1.8,1.3,2.4,2.3s0.9,2.1,1,3.3c0,0.1,0,0.2,0,0.2
		s0,0.1,0,0.2h-12c0,1.1,0.2,2,0.7,2.9s1.2,1.5,2,2c0.9,0.5,1.8,0.7,2.9,0.7c1,0,2-0.2,2.8-0.7c0.8-0.4,1.5-1.1,2-1.9l1,0.6
		c-0.6,1-1.4,1.7-2.5,2.3C150.1,82.7,149,82.9,147.7,82.9z M142.2,75.2h10.6c-0.1-0.9-0.4-1.7-0.9-2.4c-0.5-0.7-1.1-1.3-1.9-1.7
		c-0.8-0.4-1.6-0.6-2.5-0.6c-0.9,0-1.8,0.2-2.5,0.6c-0.8,0.4-1.4,1-1.9,1.7C142.6,73.5,142.3,74.3,142.2,75.2z"/>
	<path d="M161.7,82.9c-1,0-2-0.3-2.8-0.8c-0.8-0.6-1.4-1.3-1.8-2.4l0.8-0.7c0.4,0.9,0.9,1.6,1.5,2c0.7,0.5,1.4,0.7,2.2,0.7
		c0.6,0,1.1-0.1,1.6-0.4c0.5-0.2,0.9-0.6,1.2-1s0.4-1,0.4-1.6c0-0.6-0.1-1-0.4-1.3c-0.3-0.3-0.6-0.6-1.1-0.8
		c-0.5-0.2-1.1-0.5-1.8-0.8c-0.6-0.2-1.1-0.5-1.6-0.7c-0.5-0.3-1-0.6-1.3-1c-0.3-0.4-0.5-1-0.5-1.6c0-0.6,0.2-1.2,0.5-1.7
		c0.3-0.5,0.8-0.9,1.4-1.2c0.6-0.3,1.2-0.4,2-0.4c0.7,0,1.4,0.2,2,0.5s1.1,0.8,1.6,1.4l-0.7,0.7c-0.7-1.1-1.6-1.6-2.9-1.6
		c-0.8,0-1.4,0.2-1.8,0.6c-0.5,0.4-0.7,0.9-0.7,1.6c0,0.5,0.1,0.8,0.4,1.1s0.6,0.5,1.1,0.8s0.9,0.4,1.5,0.6c0.8,0.3,1.4,0.6,2,0.9
		c0.6,0.3,1,0.6,1.3,1.1s0.5,1,0.5,1.8c0,0.8-0.2,1.6-0.6,2.2s-0.9,1.1-1.6,1.4C163.3,82.8,162.6,82.9,161.7,82.9z"/>
	<path d="M171.4,67.2c-0.2,0-0.3,0-0.5-0.1s-0.3-0.2-0.3-0.3c-0.1-0.1-0.1-0.3-0.1-0.5c0-0.2,0-0.3,0.1-0.5c0.1-0.1,0.2-0.2,0.3-0.3
		c0.1-0.1,0.3-0.1,0.5-0.1c0.2,0,0.3,0,0.5,0.1c0.1,0.1,0.2,0.2,0.3,0.3c0.1,0.1,0.1,0.3,0.1,0.5c0,0.2,0,0.3-0.1,0.5
		s-0.2,0.3-0.3,0.3S171.6,67.2,171.4,67.2z M170.7,82.5V69.7h1.3v12.8H170.7z"/>
	<path d="M183.2,89.4c-1.6,0-2.9-0.3-4-1c-1.1-0.6-1.9-1.6-2.5-2.8l1.2-0.5c0.4,0.9,1.1,1.7,2.1,2.3c1,0.6,2.1,0.9,3.3,0.9
		c1,0,2-0.2,2.8-0.6c0.8-0.4,1.5-1,2-1.8s0.7-1.7,0.7-2.8v-3.5c-0.5,1-1.3,1.9-2.3,2.5s-2.1,0.9-3.2,0.9c-1.2,0-2.3-0.3-3.3-0.9
		c-1-0.6-1.7-1.4-2.3-2.4c-0.6-1-0.8-2.2-0.8-3.5c0-1.3,0.3-2.5,0.8-3.5s1.3-1.8,2.3-2.4s2.1-0.9,3.3-0.9c1.2,0,2.3,0.3,3.2,0.9
		s1.7,1.4,2.2,2.5v-2.9h1.3v13.1c0,1.5-0.3,2.7-0.8,3.6c-0.6,1-1.4,1.7-2.4,2.2C185.7,89.2,184.5,89.4,183.2,89.4z M183.4,81.8
		c1,0,2-0.2,2.8-0.7c0.8-0.5,1.4-1.1,1.9-2c0.5-0.9,0.7-1.8,0.7-2.9s-0.2-2.1-0.7-2.9c-0.5-0.9-1.1-1.5-1.9-2s-1.7-0.7-2.8-0.7
		c-1,0-1.9,0.2-2.7,0.7s-1.4,1.1-1.9,2c-0.5,0.8-0.7,1.8-0.7,2.9s0.2,2.1,0.7,2.9s1.1,1.5,1.9,2S182.4,81.8,183.4,81.8z"/>
	<path d="M195.6,82.5V69.7h1.3v1.8c0.3-0.6,0.8-1.1,1.6-1.6c0.7-0.4,1.6-0.7,2.7-0.7c1,0,1.8,0.2,2.5,0.6s1.2,1,1.6,1.8
		s0.6,1.7,0.6,2.9v8h-1.3v-7.7c0-1.4-0.3-2.5-1-3.2c-0.7-0.7-1.6-1.1-2.8-1.1c-0.8,0-1.5,0.2-2.1,0.5c-0.6,0.3-1,0.8-1.4,1.3
		c-0.3,0.5-0.5,1.1-0.5,1.7v8.5H195.6z"/>
</g>
</svg>
