<svg id="Layer_1" data-name="Layer 1" xmlns="http://www.w3.org/2000/svg" viewBox="0 0 140 140"><defs><style>.cls-1{fill:#e2eada;}.cls-2{fill:#ffe6f0;stroke:#ff8597;stroke-width:2px;}.cls-11,.cls-2,.cls-3,.cls-5,.cls-6,.cls-7,.cls-8{stroke-linecap:round;}.cls-11,.cls-12,.cls-13,.cls-2,.cls-3,.cls-4,.cls-5,.cls-6,.cls-7,.cls-8,.cls-9{stroke-miterlimit:10;}.cls-13,.cls-3{fill:none;}.cls-3,.cls-8{stroke:#000;}.cls-4,.cls-5,.cls-6{fill:#aebfa5;}.cls-11,.cls-4,.cls-5,.cls-6,.cls-9{stroke:#aebfa5;}.cls-6{stroke-width:0.3px;}.cls-7{fill:#ffdede;stroke:#e2eada;}.cls-8{fill:#b2764d;stroke-width:1.2px;}.cls-10,.cls-11,.cls-9{fill:#efb6b6;}.cls-12{fill:#232222;stroke:#232222;stroke-width:0.25px;}.cls-13{stroke:#fc6d7b;}</style></defs><circle class="cls-1" cx="70" cy="70" r="70"/><path class="cls-2" d="M130,26" transform="translate(-56 -2)"/><path class="cls-2" d="M123,26" transform="translate(-56 -2)"/><path class="cls-3" d="M88.63,102.71a48.93,48.93,0,1,1,74.55,2.07" transform="translate(-56 -2)"/><path class="cls-4" d="M120.05,82.78,124.65,54c0-.26.37-.46.77-.46h2.37a.74.74,0,0,1,.77.46l5.09,28.74c.06.31-.3.58-.77.58H120.82C120.36,83.35,120,83.08,120.05,82.78Z" transform="translate(-56 -2)"/><rect class="cls-5" x="69.57" y="36.68" width="1.7" height="11.91" rx="0.85"/><rect class="cls-4" x="66.01" y="50.94" width="8.74" height="2.33" rx="1.17"/><line class="cls-5" x1="70.43" y1="36.68" x2="70.43" y2="30.72"/><line class="cls-6" x1="70.43" y1="30.72" x2="70.43" y2="25.62"/><rect class="cls-4" x="67.02" y="43.49" width="6.81" height="2.33" rx="1.17"/><rect class="cls-4" x="65.32" y="45.44" width="10.21" height="2.33" rx="1.17"/><path d="M110.62,87l2.86,12.86a1.9,1.9,0,0,0,1.92,1.36h22.68A1.9,1.9,0,0,0,140,99.81L142.82,87a1.77,1.77,0,0,0-1.92-2H112.53A1.77,1.77,0,0,0,110.62,87Z" transform="translate(-56 -2)"/><line class="cls-7" x1="54.36" y1="82.96" x2="65.98" y2="100.01"/><line class="cls-7" x1="62.11" y1="82.18" x2="75.29" y2="100.01"/><line class="cls-7" x1="70.63" y1="82.18" x2="84.09" y2="99.18"/><line class="cls-7" x1="79.16" y1="82.18" x2="86.14" y2="90.71"/><line class="cls-7" x1="86.91" y1="82.96" x2="75.29" y2="100.01"/><line class="cls-7" x1="79.16" y1="82.18" x2="65.98" y2="100.01"/><line class="cls-7" x1="70.63" y1="82.18" x2="57.46" y2="99.24"/><line class="cls-7" x1="62.11" y1="82.18" x2="55.13" y2="90.71"/><line class="cls-8" x1="61.68" y1="79.12" x2="69.21" y2="72.5"/><line class="cls-8" x1="79.84" y1="79.12" x2="72.31" y2="72.5"/><line class="cls-8" x1="53.9" y1="81.45" x2="87.62" y2="81.45"/><ellipse class="cls-9" cx="106.33" cy="80.25" rx="0.23" ry="1.46" transform="translate(-82.76 84.11) rotate(-39.57)"/><path class="cls-10" d="M105.2,80.61s-3.21-2.81-4.78.92C100.42,81.53,103.62,84.34,105.2,80.61Z" transform="translate(-56 -2)"/><path class="cls-10" d="M104.75,84.57s-1.46-2.49,1.22-3.06C106,81.51,107.43,84,104.75,84.57Z" transform="translate(-56 -2)"/><path class="cls-10" d="M106.83,79.27s-2.16-3.68,1.8-4.52C108.63,74.75,110.79,78.42,106.83,79.27Z" transform="translate(-56 -2)"/><path class="cls-10" d="M110.8,79.57s-2.17-1.9-3.24.62C107.56,80.19,109.73,82.1,110.8,79.57Z" transform="translate(-56 -2)"/><ellipse class="cls-11" cx="106.99" cy="66.85" rx="1.22" ry="0.2" transform="translate(-49.48 141.15) rotate(-69.21)"/><path class="cls-10" d="M106.24,66.06s.77-3.74-2.82-3.31C103.42,62.75,102.65,66.49,106.24,66.06Z" transform="translate(-56 -2)"/><path class="cls-10" d="M103,67.46s1.29-2.24,2.92-.41C105.89,67.05,104.6,69.29,103,67.46Z" transform="translate(-56 -2)"/><path class="cls-10" d="M108,66.73s1.9-3.31,4.31-.6C112.32,66.13,110.41,69.43,108,66.73Z" transform="translate(-56 -2)"/><path class="cls-10" d="M109.53,70s.52-2.53-1.92-2.24C107.61,67.71,107.09,70.24,109.53,70Z" transform="translate(-56 -2)"/><path class="cls-12" d="M112.28,99.75a11.74,11.74,0,0,0-1.81,1.73,6.94,6.94,0,0,1,1.39,1.12,6.63,6.63,0,0,1,.9,1.25,5.07,5.07,0,0,1,.49,1.24,5.09,5.09,0,0,1-.35,3.43,4.85,4.85,0,0,1-1.31,1.62,5.48,5.48,0,0,1-1.86,1,7.57,7.57,0,0,1-2.18.32,11,11,0,0,1-2.49-.29c-.37.8-.78,1.59-1.22,2.38a22.72,22.72,0,0,1-1.43,2.26,17.12,17.12,0,0,1-1.67,2,11.27,11.27,0,0,1-1.95,1.61,9,9,0,0,1-2.25,1.07,8.28,8.28,0,0,1-2.57.39,6.76,6.76,0,0,1-2.46-.43,5.53,5.53,0,0,1-2-1.25,5.79,5.79,0,0,1-1.27-2,7.4,7.4,0,0,1-.46-2.71,11,11,0,0,1,.68-3.83,13.38,13.38,0,0,1,1.87-3.44,15.87,15.87,0,0,1,2.79-2.89,19.16,19.16,0,0,1,7.39-3.67,16.65,16.65,0,0,1,4.08-.51,14.06,14.06,0,0,1,2.83.26,11.64,11.64,0,0,1,2.2.69,12.1,12.1,0,0,1,1.13-.87,8.28,8.28,0,0,1,1.27-.74ZM103.94,110c.41-.86.82-1.68,1.22-2.48s.81-1.54,1.23-2.25a22.92,22.92,0,0,1,1.29-2,15.26,15.26,0,0,1,1.45-1.73,9.31,9.31,0,0,0-1.92-.51,15.7,15.7,0,0,0-2.23-.16,13.06,13.06,0,0,0-3.18.39,17,17,0,0,0-3,1.07,18.42,18.42,0,0,0-2.75,1.6,20.66,20.66,0,0,0-2.43,2,20.39,20.39,0,0,0-2,2.27,16.81,16.81,0,0,0-1.55,2.4,13.16,13.16,0,0,0-1,2.38,8.28,8.28,0,0,0-.34,2.23,5,5,0,0,0,.38,1.93,4.7,4.7,0,0,0,1,1.55,4.75,4.75,0,0,0,1.58,1,5.3,5.3,0,0,0,2,.38,6.88,6.88,0,0,0,3.06-.67,9,9,0,0,0,2.51-1.91,17.66,17.66,0,0,0,2.19-3c.69-1.16,1.39-2.46,2.11-3.89a12.07,12.07,0,0,1-2.6-1.41l.22-.38c.43.22.87.42,1.31.61A11.42,11.42,0,0,0,103.94,110Zm8-4.55a3.77,3.77,0,0,0-.52-2A4.23,4.23,0,0,0,110,102a25.8,25.8,0,0,0-2.33,3.69c-.74,1.4-1.5,3-2.29,4.67a6.93,6.93,0,0,0,.78.1c.26,0,.53,0,.79,0a5,5,0,0,0,1.93-.37,4.92,4.92,0,0,0,1.59-1,5.06,5.06,0,0,0,1.09-1.59A5.13,5.13,0,0,0,112,105.47Z" transform="translate(-56 -2)"/><path class="cls-12" d="M114.9,110.44c-.11.23-.28.53-.49.91l-.68,1.25c-.24.46-.48.93-.73,1.43s-.48,1-.68,1.44a13.14,13.14,0,0,0-.49,1.33,3.54,3.54,0,0,0-.19,1,.67.67,0,0,0,.16.53.65.65,0,0,0,.46.14,1.88,1.88,0,0,0,1.07-.36,5.56,5.56,0,0,0,1-.94,12.67,12.67,0,0,0,1-1.34l1-1.52.48.38c-.26.47-.55,1-.88,1.49a10,10,0,0,1-1.09,1.47,6.09,6.09,0,0,1-1.33,1.12,2.92,2.92,0,0,1-1.58.44,1.58,1.58,0,0,1-1.24-.48,1.84,1.84,0,0,1-.43-1.25,4.79,4.79,0,0,1,.42-1.88,12.63,12.63,0,0,1,1-1.94,20.2,20.2,0,0,1,1.35-1.84l1.35-1.61Zm2.51-3a1.26,1.26,0,0,1-.13.55,2,2,0,0,1-.81.9,1.09,1.09,0,0,1-.51.14.41.41,0,0,1-.35-.16.71.71,0,0,1-.12-.41,2.05,2.05,0,0,1,.08-.51,2.56,2.56,0,0,1,.24-.56,1.89,1.89,0,0,1,.39-.45.8.8,0,0,1,.53-.19.61.61,0,0,1,.48.22A.69.69,0,0,1,117.41,107.46Z" transform="translate(-56 -2)"/><path class="cls-12" d="M124,110.76a.82.82,0,0,0-.34-.68,1.83,1.83,0,0,0-1.08-.25,3.15,3.15,0,0,0-1.22.26,5.13,5.13,0,0,0-1.17.72,6.87,6.87,0,0,0-1.06,1.09,7.62,7.62,0,0,0-.84,1.37,8,8,0,0,0-.57,1.56,7.18,7.18,0,0,0-.2,1.66,3.78,3.78,0,0,0,.14,1.14,2,2,0,0,0,.42.76,1.54,1.54,0,0,0,.64.43,2.82,2.82,0,0,0,.85.12,4.08,4.08,0,0,0,1.8-.41,8.13,8.13,0,0,0,1.66-1.08A11.21,11.21,0,0,0,124.5,116a17.36,17.36,0,0,0,1.18-1.62l.5.38a14,14,0,0,1-1.55,2.14,9.94,9.94,0,0,1-1.68,1.54,6.65,6.65,0,0,1-1.74.92,5.15,5.15,0,0,1-1.73.31,4.13,4.13,0,0,1-1.28-.2,3,3,0,0,1-1.08-.61,2.92,2.92,0,0,1-.74-1,4,4,0,0,1-.27-1.53,6.41,6.41,0,0,1,.3-2,7.4,7.4,0,0,1,.81-1.73,7.64,7.64,0,0,1,1.16-1.43,9,9,0,0,1,1.37-1.08,6.71,6.71,0,0,1,1.45-.67,4.46,4.46,0,0,1,1.38-.24,2.71,2.71,0,0,1,1.07.18,2,2,0,0,1,.66.44,1.45,1.45,0,0,1,.33.53,1.65,1.65,0,0,1,.09.49,2.87,2.87,0,0,1-.1.68,3,3,0,0,1-.26.67,1.58,1.58,0,0,1-.42.5.84.84,0,0,1-.54.2.72.72,0,0,1-.51-.19.65.65,0,0,1-.21-.49,1.08,1.08,0,0,1,.14-.48,1.08,1.08,0,0,1,.33-.3,1.23,1.23,0,0,1,.63-.14H124A1.33,1.33,0,0,0,124,110.76Z" transform="translate(-56 -2)"/><path class="cls-12" d="M136.88,112.4a3.51,3.51,0,0,1-.2,1.17,7.23,7.23,0,0,1-.51,1.19c-.2.4-.42.79-.65,1.18s-.46.75-.66,1.11a7.54,7.54,0,0,0-.51,1,2.26,2.26,0,0,0-.2.89.51.51,0,0,0,.13.42.48.48,0,0,0,.3.11,1.9,1.9,0,0,0,1.14-.51,9.52,9.52,0,0,0,1.28-1.27c.43-.51.86-1.06,1.29-1.66s.82-1.17,1.17-1.71l.49.38a7.42,7.42,0,0,0-.39.64c-.19.32-.42.68-.7,1.08s-.59.84-.93,1.28a11.84,11.84,0,0,1-1.11,1.22,6.73,6.73,0,0,1-1.22.92,2.46,2.46,0,0,1-1.25.36,1.76,1.76,0,0,1-.66-.12,1.45,1.45,0,0,1-.5-.33,1.6,1.6,0,0,1-.33-.51,1.54,1.54,0,0,1-.12-.61,3.3,3.3,0,0,1,.23-1.13,10.09,10.09,0,0,1,.59-1.26c.23-.43.48-.86.76-1.29s.53-.85.77-1.24.42-.76.58-1.1a2,2,0,0,0,.24-.86,1.09,1.09,0,0,0-.23-.7.72.72,0,0,0-.62-.28,2,2,0,0,0-1,.35,8.46,8.46,0,0,0-1.27,1c-.46.46-1,1-1.52,1.69s-1.15,1.42-1.79,2.27l-1.07,1.43c-.16.19-.31.39-.46.6s-.3.41-.46.61l-.43.58c-.13.18-.25.34-.36.47l-1.18-.48,1.57-2.16c.22-.3.45-.63.69-1s.46-.71.69-1.08l.65-1.12c.2-.38.4-.74.58-1.1a9.33,9.33,0,0,0,.53-1.34,3.23,3.23,0,0,0,.15-.85.69.69,0,0,0-.13-.48.61.61,0,0,0-.38-.11,1,1,0,0,0-.58.26,5.32,5.32,0,0,0-.68.67,10.74,10.74,0,0,0-.71.93c-.23.34-.46.69-.67,1l-.61,1c-.19.31-.34.55-.47.74l-.48-.38c.46-.71.87-1.37,1.24-2a16.15,16.15,0,0,1,1.07-1.54,5.56,5.56,0,0,1,1-1,1.71,1.71,0,0,1,1-.35,1.4,1.4,0,0,1,1.05.47,1.78,1.78,0,0,1,.33.57,2.37,2.37,0,0,1,.12.78,3.14,3.14,0,0,1-.08.73,10.72,10.72,0,0,1,1.1-1,6.68,6.68,0,0,1,.94-.59,3.74,3.74,0,0,1,.79-.32,2.87,2.87,0,0,1,.66-.09,2.29,2.29,0,0,1,.59.09,1.52,1.52,0,0,1,.63.35,2,2,0,0,1,.51.7A2.8,2.8,0,0,1,136.88,112.4Z" transform="translate(-56 -2)"/><path class="cls-12" d="M143,110.44l-.49.91-.68,1.25c-.24.46-.49.93-.74,1.43s-.47,1-.68,1.44-.36.92-.49,1.33a3.84,3.84,0,0,0-.18,1,.67.67,0,0,0,.16.53.64.64,0,0,0,.45.14,1.89,1.89,0,0,0,1.08-.36,5.89,5.89,0,0,0,1-.94,12.65,12.65,0,0,0,1-1.34l1-1.52.49.38c-.26.47-.55,1-.88,1.49a10.05,10.05,0,0,1-1.1,1.47,6,6,0,0,1-1.32,1.12,3,3,0,0,1-1.59.44,1.56,1.56,0,0,1-1.23-.48,1.79,1.79,0,0,1-.43-1.25,5,5,0,0,1,.41-1.88,13.56,13.56,0,0,1,1-1.94,20.3,20.3,0,0,1,1.36-1.84l1.35-1.61Zm2.51-3a1.28,1.28,0,0,1-.14.55,1.87,1.87,0,0,1-.34.52,2.07,2.07,0,0,1-.46.38,1.09,1.09,0,0,1-.51.14.41.41,0,0,1-.35-.16.71.71,0,0,1-.12-.41,1.68,1.68,0,0,1,.08-.51,1.86,1.86,0,0,1,.24-.56,1.89,1.89,0,0,1,.39-.45.78.78,0,0,1,.52-.19.64.64,0,0,1,.49.22A.69.69,0,0,1,145.49,107.46Z" transform="translate(-56 -2)"/><path class="cls-12" d="M152.1,110.76a.79.79,0,0,0-.34-.68,1.83,1.83,0,0,0-1.08-.25,3.1,3.1,0,0,0-1.21.26,5.41,5.41,0,0,0-1.18.72,7.28,7.28,0,0,0-1,1.09,7.66,7.66,0,0,0-.85,1.37,8.74,8.74,0,0,0-.56,1.56,6.69,6.69,0,0,0-.21,1.66,3.75,3.75,0,0,0,.15,1.14,2.11,2.11,0,0,0,.41.76,1.58,1.58,0,0,0,.65.43,2.75,2.75,0,0,0,.84.12,4.08,4.08,0,0,0,1.8-.41,7.87,7.87,0,0,0,1.66-1.08,11.28,11.28,0,0,0,1.45-1.48c.44-.55.83-1.09,1.18-1.62l.49.38a14,14,0,0,1-1.54,2.14,10.77,10.77,0,0,1-1.68,1.54,6.65,6.65,0,0,1-1.74.92,5.16,5.16,0,0,1-1.74.31,4.23,4.23,0,0,1-1.28-.2,3.07,3.07,0,0,1-1.07-.61,2.81,2.81,0,0,1-.74-1,4,4,0,0,1-.27-1.53,6.41,6.41,0,0,1,.3-2,7.8,7.8,0,0,1,.8-1.73,8,8,0,0,1,2.54-2.51,6.5,6.5,0,0,1,1.45-.67,4.45,4.45,0,0,1,1.37-.24,2.77,2.77,0,0,1,1.08.18,2.06,2.06,0,0,1,.66.44,1.3,1.3,0,0,1,.32.53,1.65,1.65,0,0,1,.09.49,2.83,2.83,0,0,1-.09.68,3.58,3.58,0,0,1-.26.67,1.72,1.72,0,0,1-.42.5.88.88,0,0,1-.54.2.72.72,0,0,1-.51-.19.63.63,0,0,1-.22-.49s0-.07,0-.16a.94.94,0,0,1,.13-.32,1,1,0,0,1,.33-.3,1.19,1.19,0,0,1,.62-.14H152A1.12,1.12,0,0,0,152.1,110.76Z" transform="translate(-56 -2)"/><path class="cls-12" d="M161.32,115.71h.23a3,3,0,0,0,.69-.07,2,2,0,0,0,.57-.24,2.11,2.11,0,0,0,.5-.42,3.79,3.79,0,0,0,.47-.64l.48.38a3.93,3.93,0,0,1-1.33,1.27,2.91,2.91,0,0,1-1.44.37,1.85,1.85,0,0,1-.5-.06,8.88,8.88,0,0,1-1.24,1.65,7.11,7.11,0,0,1-1.34,1.11,5.58,5.58,0,0,1-1.35.62,4.53,4.53,0,0,1-1.25.19,3,3,0,0,1-1.1-.2,2.47,2.47,0,0,1-.86-.6,2.72,2.72,0,0,1-.56-.93,3.3,3.3,0,0,1-.21-1.21,4.71,4.71,0,0,1,.22-1.36,7.88,7.88,0,0,1,.58-1.39,10.72,10.72,0,0,1,.87-1.32,12.1,12.1,0,0,1,1.07-1.19,12.35,12.35,0,0,1,1.2-1,7.14,7.14,0,0,1,1.23-.72l.43.56a10.31,10.31,0,0,0-1.44,1.29,11.74,11.74,0,0,0-1.33,1.7,10,10,0,0,0-1,1.93,5.27,5.27,0,0,0-.38,1.94,2,2,0,0,0,.37,1.31,1.4,1.4,0,0,0,1.14.46,3,3,0,0,0,1.17-.24,5,5,0,0,0,1.13-.66,7.51,7.51,0,0,0,1.06-1,14.67,14.67,0,0,0,1-1.21,2.49,2.49,0,0,1-.69-.61,4.11,4.11,0,0,1-.5-.87,5.68,5.68,0,0,1-.3-1.06,6.23,6.23,0,0,1-.1-1.15,4,4,0,0,1,.15-1.12,3.16,3.16,0,0,1,.41-.91,2,2,0,0,1,.61-.63,1.38,1.38,0,0,1,.76-.23,1.18,1.18,0,0,1,.67.2,1.59,1.59,0,0,1,.5.53,2.64,2.64,0,0,1,.31.82,4.51,4.51,0,0,1,.11,1,7.38,7.38,0,0,1-.07.89,8.3,8.3,0,0,1-.19,1c-.09.33-.19.65-.31,1A4,4,0,0,1,161.32,115.71Zm-1.82-3.34a5.09,5.09,0,0,0,.07.84,4.44,4.44,0,0,0,.21.89,3.68,3.68,0,0,0,.38.8,1.83,1.83,0,0,0,.56.58,6.76,6.76,0,0,0,.41-1c.11-.32.21-.64.28-.94a6.09,6.09,0,0,0,.16-.86,6.21,6.21,0,0,0,.05-.69,3.45,3.45,0,0,0-.07-.74,2.32,2.32,0,0,0-.18-.58,1.15,1.15,0,0,0-.28-.39.59.59,0,0,0-.37-.14.81.81,0,0,0-.5.18,1.58,1.58,0,0,0-.39.48,2.88,2.88,0,0,0-.24.7A3.77,3.77,0,0,0,159.5,112.37Z" transform="translate(-56 -2)"/><path class="cls-13" d="M76.29,102.71" transform="translate(-56 -2)"/><path class="cls-4" d="M129.87,48.11a3.16,3.16,0,0,0-1.7-.5h-3.49a3.13,3.13,0,0,0-1.69.5h0a2.64,2.64,0,0,0-1.24,2.2v.34a2.58,2.58,0,0,0,.9,2l.25.22a3.06,3.06,0,0,0,2,.75h3a3.06,3.06,0,0,0,2-.75l.25-.22a2.59,2.59,0,0,0,.91-2v-.34a2.67,2.67,0,0,0-1.24-2.2Z" transform="translate(-56 -2)"/></svg>