<?xml version="1.0" encoding="utf-8"?>
<!-- Generator: Adobe Illustrator 25.4.1, SVG Export Plug-In . SVG Version: 6.00 Build 0)  -->
<svg version="1.1" id="Layer_1" xmlns="http://www.w3.org/2000/svg" xmlns:xlink="http://www.w3.org/1999/xlink" x="0px" y="0px"
	 viewBox="0 0 252 144" style="enable-background:new 0 0 252 144;" xml:space="preserve">
<style type="text/css">
	.st0{fill:#FFFFFF;}
	.st1{fill:none;stroke:#070707;stroke-width:0.5;stroke-miterlimit:10;}
</style>
<g id="Layer_2_00000070822929132658773790000009018481252455651519_">
	<g id="Layer_3">
		<g>
			
				<rect x="112.3" y="43.2" transform="matrix(0.2899 -0.9571 0.9571 0.2899 37.8779 158.8725)" class="st0" width="27.4" height="21.5"/>
			<line class="st1" x1="121.6" y1="42.1" x2="136.7" y2="46.6"/>
			<line class="st1" x1="120.5" y1="45.9" x2="127.3" y2="48"/>
			<line class="st1" x1="135.5" y1="50.5" x2="128.7" y2="48.5"/>
			<line class="st1" x1="119.4" y1="49.8" x2="134.4" y2="54.4"/>
			<line class="st1" x1="118.2" y1="53.7" x2="133.2" y2="58.3"/>
			<line class="st1" x1="115.6" y1="62.2" x2="120.3" y2="63.7"/>
			<line class="st1" x1="116.9" y1="58" x2="126.3" y2="60.8"/>
		</g>
		<g>
			<path d="M93.2,66.7c-0.1,0-0.2,0.1-0.3,0.2c-0.1,0.1-0.2,0.2-0.2,0.3c-0.1,0.1-0.1,0.3-0.1,0.4h-1.1c0-0.6,0.2-1.1,0.6-1.5
				c0.2-0.2,0.4-0.3,0.7-0.4s0.6-0.1,1-0.2h4.5c0.6,0,1.1,0.1,1.6,0.3c0.7,0.3,1.2,0.8,1.6,1.5s0.6,1.5,0.6,2.3
				c0,0.7-0.1,1.3-0.4,1.9s-0.7,1-1.2,1.4c-0.5,0.3-1,0.5-1.7,0.5h-0.5l0.3,0.1c0.1,0,0.2,0.1,0.4,0.2s0.3,0.2,0.4,0.3l2.9,4
				c0.2,0.2,0.3,0.3,0.5,0.3c0.3,0,0.5-0.1,0.6-0.4l1,0.7c-0.2,0.2-0.4,0.4-0.7,0.6c-0.3,0.1-0.6,0.2-0.9,0.2
				c-0.6,0-1.1-0.3-1.5-0.8L99,75.4c-0.4-0.5-0.8-0.9-1.1-1.2s-0.9-0.4-1.6-0.5v-1.1H98c0.9,0,1.6-0.3,2.1-0.8s0.8-1.2,0.8-2.1
				s-0.2-1.6-0.7-2.2s-1.1-0.8-1.9-0.8H95v12.7h-1.2V66.6C93.5,66.6,93.3,66.6,93.2,66.7z"/>
			<path d="M106.8,78.9c-0.7-0.4-1.2-1-1.6-1.7s-0.5-1.6-0.5-2.5s0.2-1.8,0.5-2.7s0.9-1.6,1.6-2.1s1.5-0.8,2.5-0.8
				c0.7,0,1.3,0.1,1.8,0.4s1,0.6,1.3,1.1s0.5,1,0.5,1.6c0,1-0.4,1.8-1.3,2.3s-2,0.8-3.5,0.8h-2.2c0.1,1,0.5,1.8,1,2.4
				s1.4,0.8,2.4,0.8c0.6,0,1.2-0.1,1.7-0.3c0.5-0.2,1-0.4,1.5-0.8l0.6,0.8c-0.5,0.4-1.1,0.7-1.8,1c-0.7,0.2-1.3,0.4-2.1,0.4
				C108.4,79.5,107.5,79.3,106.8,78.9z M111.8,72.1c0-0.7-0.2-1.2-0.7-1.5s-1-0.5-1.7-0.5c-0.8,0-1.4,0.2-1.9,0.6s-0.9,1-1.2,1.6
				c-0.3,0.6-0.4,1.2-0.4,1.8h2.5C110.7,74.2,111.8,73.5,111.8,72.1z"/>
			<path d="M114.5,78l0.7-0.8c0.5,0.4,1,0.7,1.5,1s1,0.3,1.6,0.3c0.7,0,1.3-0.2,1.7-0.5c0.4-0.3,0.6-0.8,0.6-1.4
				c0-0.4-0.1-0.7-0.3-0.9c-0.2-0.2-0.4-0.4-0.7-0.6c-0.3-0.1-0.8-0.4-1.6-0.7c-0.7-0.3-1.3-0.6-1.7-0.8c-0.4-0.2-0.7-0.5-0.9-0.8
				s-0.3-0.7-0.3-1.2c0-0.8,0.3-1.4,0.8-1.9s1.3-0.7,2.3-0.7c0.5,0,1,0.1,1.4,0.2s0.9,0.3,1.2,0.6l-0.5,0.9
				c-0.6-0.4-1.3-0.6-2.1-0.6c-0.6,0-1.1,0.1-1.4,0.4c-0.3,0.2-0.5,0.6-0.5,1c0,0.3,0.1,0.6,0.3,0.8c0.2,0.2,0.4,0.4,0.7,0.5
				c0.3,0.1,0.8,0.3,1.4,0.6c0.8,0.3,1.4,0.6,1.8,0.8s0.8,0.6,1,0.9c0.2,0.4,0.4,0.8,0.4,1.3c0,0.9-0.3,1.7-1,2.2
				c-0.7,0.6-1.5,0.8-2.6,0.8C117,79.6,115.7,79,114.5,78z"/>
			<path d="M134.1,78.7c-0.2,0.3-0.4,0.5-0.7,0.6c-0.2,0.1-0.5,0.2-0.9,0.2c-0.5,0-0.9-0.2-1.2-0.5c-0.4-0.3-0.5-0.7-0.5-1.2
				c-0.9,1.1-2.1,1.6-3.4,1.6c-1,0-1.8-0.2-2.4-0.7s-0.9-1.2-0.9-2.2v-4.3c0-1.1-0.3-1.8-0.8-2.3l0.8-0.8c0.3,0.2,0.6,0.5,0.9,0.9
				s0.4,0.9,0.4,1.4V76c0,0.8,0.2,1.4,0.5,1.8s0.9,0.6,1.7,0.6c0.7,0,1.4-0.2,1.9-0.5s1-0.8,1.3-1.5v-7.2h1.2v8.4
				c0,0.3,0.1,0.5,0.2,0.6c0.1,0.1,0.3,0.2,0.5,0.2s0.4-0.1,0.6-0.3L134.1,78.7z"/>
			<path d="M151.3,78.6c-0.1,0.2-0.3,0.4-0.6,0.6s-0.6,0.2-0.9,0.2c-0.5,0-1-0.2-1.3-0.5c-0.4-0.3-0.5-0.8-0.5-1.3v-5.4
				c0-0.7-0.2-1.3-0.5-1.6c-0.3-0.3-0.8-0.5-1.4-0.5c-1.2,0-2.2,0.7-2.9,2v7.2H142v-6.8c0-0.8-0.2-1.3-0.5-1.8
				c-0.3-0.4-0.8-0.6-1.5-0.6c-0.6,0-1.2,0.2-1.7,0.6s-0.9,0.8-1.1,1.4v7.2H136v-7.1c0-1.1-0.3-1.8-0.8-2.3l0.8-0.8
				c0.2,0.2,0.5,0.4,0.7,0.7s0.4,0.6,0.5,0.9c0.4-0.5,0.8-1,1.3-1.2c0.5-0.3,1.1-0.4,1.8-0.4s1.2,0.2,1.7,0.5s0.8,0.8,1.1,1.4
				c0.4-0.6,0.8-1,1.4-1.4c0.5-0.3,1.1-0.5,1.8-0.5c1,0,1.7,0.3,2.3,0.9s0.9,1.4,0.9,2.3v5.4c0,0.2,0.1,0.3,0.2,0.5
				c0.1,0.1,0.3,0.2,0.5,0.2c0.3,0,0.5-0.1,0.6-0.3L151.3,78.6z"/>
			<path d="M154.2,78.9c-0.7-0.4-1.2-1-1.6-1.7c-0.4-0.7-0.5-1.6-0.5-2.5s0.2-1.8,0.5-2.7s0.9-1.6,1.6-2.1s1.5-0.8,2.5-0.8
				c0.7,0,1.3,0.1,1.8,0.4s1,0.6,1.3,1.1s0.5,1,0.5,1.6c0,1-0.4,1.8-1.3,2.3s-2,0.8-3.5,0.8h-2.2c0.1,1,0.5,1.8,1,2.4
				s1.4,0.8,2.4,0.8c0.6,0,1.2-0.1,1.7-0.3c0.5-0.2,1-0.4,1.5-0.8l0.6,0.8c-0.5,0.4-1.1,0.7-1.8,1s-1.3,0.4-2.1,0.4
				C155.7,79.5,154.9,79.3,154.2,78.9z M159.1,72.1c0-0.7-0.2-1.2-0.7-1.5s-1-0.5-1.7-0.5c-0.8,0-1.4,0.2-1.9,0.6s-0.9,1-1.2,1.6
				s-0.4,1.2-0.4,1.8h2.5C158,74.2,159.1,73.5,159.1,72.1z M156.1,67.2l2.4-3.3l1,0.8l-2.8,3.1L156.1,67.2z"/>
		</g>
	</g>
</g>
</svg>
