<svg xmlns="http://www.w3.org/2000/svg" xmlns:xlink="http://www.w3.org/1999/xlink" width="375" height="812" viewBox="0 0 375 812">
  <defs>
    <filter id="Path_8" x="78" y="588" width="220" height="89" filterUnits="userSpaceOnUse">
      <feOffset dy="3" input="SourceAlpha"/>
      <feGaussianBlur stdDeviation="3" result="blur"/>
      <feFlood flood-color="#fff" flood-opacity="0.161"/>
      <feComposite operator="in" in2="blur"/>
      <feComposite in="SourceGraphic"/>
    </filter>
    <clipPath id="clip-splash_screen">
      <rect width="375" height="812"/>
    </clipPath>
  </defs>
  <g id="splash_screen" data-name="splash screen" clip-path="url(#clip-splash_screen)">
    <rect width="375" height="812" fill="#242424"/>
    <g id="button" transform="translate(0 -17)">
      <g transform="matrix(1, 0, 0, 1, 0, 17)" filter="url(#Path_8)">
        <g id="Path_8-2" data-name="Path 8" transform="translate(87 594)" fill="#fff">
          <path d="M 166.5 69.5 L 35.5 69.5 C 30.90936851501465 69.5 26.45684242248535 68.60126495361328 22.26613235473633 66.8287353515625 C 18.21760559082031 65.11634063720703 14.5813684463501 62.66460418701172 11.4583683013916 59.54162979125977 C 8.335394859313965 56.41863250732422 5.883657932281494 52.78239440917969 4.171263217926025 48.73386764526367 C 2.398736953735352 44.54315948486328 1.5 40.09063339233398 1.5 35.5 C 1.5 30.90936851501465 2.398736953735352 26.45684242248535 4.171263217926025 22.26613235473633 C 5.883657932281494 18.21760559082031 8.335394859313965 14.5813684463501 11.4583683013916 11.4583683013916 C 14.5813684463501 8.335394859313965 18.21760559082031 5.883657932281494 22.26613235473633 4.171263217926025 C 26.45684242248535 2.398736953735352 30.90936851501465 1.5 35.5 1.5 L 166.5 1.5 C 171.0906372070312 1.5 175.5431518554688 2.398736953735352 179.7338714599609 4.171263217926025 C 183.7823944091797 5.883657932281494 187.4186248779297 8.335394859313965 190.5416259765625 11.4583683013916 C 193.6646118164062 14.5813684463501 196.1163482666016 18.21760559082031 197.8287353515625 22.26613235473633 C 199.6012573242188 26.45684242248535 200.5 30.90936851501465 200.5 35.5 C 200.5 40.09063339233398 199.6012573242188 44.54315948486328 197.8287353515625 48.73386764526367 C 196.1163482666016 52.78239440917969 193.6646118164062 56.41863250732422 190.5416259765625 59.54162979125977 C 187.4186248779297 62.66460418701172 183.7823944091797 65.11634063720703 179.7338714599609 66.8287353515625 C 175.5431518554688 68.60126495361328 171.0906372070312 69.5 166.5 69.5 Z" stroke="none"/>
          <path d="M 35.5 3 C 31.11119079589844 3 26.85527038574219 3.85888671875 22.85044860839844 5.552780151367188 C 18.98072814941406 7.189529418945312 15.50474548339844 9.533306121826172 12.51902770996094 12.51902770996094 C 9.533309936523438 15.5047492980957 7.189529418945312 18.98072052001953 5.552780151367188 22.85044479370117 C 3.85888671875 26.85527801513672 3 31.1111946105957 3 35.5 C 3 39.8888053894043 3.85888671875 44.14472198486328 5.552780151367188 48.14955520629883 C 7.189529418945312 52.01927947998047 9.533309936523438 55.4952507019043 12.51902770996094 58.48097229003906 C 15.50474548339844 61.46669387817383 18.98072814941406 63.81047058105469 22.85044860839844 65.44721984863281 C 26.85527038574219 67.14111328125 31.11119079589844 68 35.5 68 L 166.5 68 C 170.8888092041016 68 175.1447143554688 67.14111328125 179.1495513916016 65.44721984863281 C 183.0192718505859 63.81047058105469 186.4952545166016 61.46669387817383 189.4809722900391 58.48097229003906 C 192.4666900634766 55.4952507019043 194.8104705810547 52.01927947998047 196.4472198486328 48.14955520629883 C 198.14111328125 44.14472198486328 199 39.8888053894043 199 35.5 C 199 31.1111946105957 198.14111328125 26.85527801513672 196.4472198486328 22.85044479370117 C 194.8104705810547 18.98072052001953 192.4666900634766 15.5047492980957 189.4809722900391 12.51902770996094 C 186.4952545166016 9.533306121826172 183.0192718505859 7.189529418945312 179.1495513916016 5.552780151367188 C 175.1447143554688 3.85888671875 170.8888092041016 3 166.5 3 L 35.5 3 M 35.5 0 L 166.5 0 C 186.1061096191406 0 202 15.89389038085938 202 35.5 C 202 55.10610961914062 186.1061096191406 71 166.5 71 L 35.5 71 C 15.89389038085938 71 0 55.10610961914062 0 35.5 C 0 15.89389038085938 15.89389038085938 0 35.5 0 Z" stroke="none" fill="#fff"/>
        </g>
      </g>
      <path id="start_shopping" data-name="start shopping" d="M9.546-15.869v-1.157h2.066v5.132H9.546v-1.168a4.1,4.1,0,0,0-3.594-1.977,3.483,3.483,0,0,0-2.134.562,1.906,1.906,0,0,0-.741,1.617,1.806,1.806,0,0,0,.7,1.539,6.216,6.216,0,0,0,2.151.9l1.988.528a7.747,7.747,0,0,1,2.914,1.336,3.939,3.939,0,0,1,1.325,1.763,6.581,6.581,0,0,1,.309,2.078,4.762,4.762,0,0,1-1.437,3.65A5.4,5.4,0,0,1,7.176.281,6.144,6.144,0,0,1,2.987-1.4V0H.876V-6.166H2.987v1.494Q4.5-1.887,6.94-1.887a3.114,3.114,0,0,0,2.212-.736,2.7,2.7,0,0,0,.786-2.072q0-1.819-2.561-2.527l-2.111-.6A7.562,7.562,0,0,1,1.9-9.58,4.008,4.008,0,0,1,.809-12.511a4.5,4.5,0,0,1,1.32-3.465,5.137,5.137,0,0,1,3.644-1.23A6.1,6.1,0,0,1,9.546-15.869ZM19.114-11.8v2.078H16.958v6.188a2.433,2.433,0,0,0,.208,1.252A.823.823,0,0,0,17.879-2a3.763,3.763,0,0,0,1.235-.213v2.1A6.557,6.557,0,0,1,17.374.2a2.652,2.652,0,0,1-2.1-.736,3.86,3.86,0,0,1-.64-2.521V-9.726H13.095V-11.8h1.539v-1.786l2.325-2.123V-11.8ZM30.76-7.637v5.57h1.977V0H28.716V-1.449A5.245,5.245,0,0,1,24.965.2,4.016,4.016,0,0,1,22.972-.3a4.027,4.027,0,0,1-1.449-1.353,3.408,3.408,0,0,1-.545-1.881,3.405,3.405,0,0,1,.6-1.982A3.923,3.923,0,0,1,23.2-6.862a4.865,4.865,0,0,1,2.055-.472A5.641,5.641,0,0,1,28.48-6.323V-7.592A2.76,2.76,0,0,0,27.9-9.568a2.61,2.61,0,0,0-1.92-.6,3.291,3.291,0,0,0-1.578.343,2.738,2.738,0,0,0-1.05,1.039l-2.224-.55a4.972,4.972,0,0,1,2.033-2.094,6.322,6.322,0,0,1,3.043-.691,4.785,4.785,0,0,1,3.465,1.078A4.606,4.606,0,0,1,30.76-7.637ZM25.28-1.583a4.579,4.579,0,0,0,3.2-1.426V-4.391A4.933,4.933,0,0,0,25.448-5.57a2.348,2.348,0,0,0-1.589.578,1.843,1.843,0,0,0-.668,1.454,1.849,1.849,0,0,0,.584,1.4A2.093,2.093,0,0,0,25.28-1.583ZM38.352-4.739v2.673h2.572V0H33.68V-2.066h2.37V-9.726H33.68V-11.8h4.211V-9.13a4.663,4.663,0,0,1,1.758-2.207,5.94,5.94,0,0,1,3-.623h.528v2.347h-.505a6.155,6.155,0,0,0-2.808.494A2.416,2.416,0,0,0,38.65-7.625,10.692,10.692,0,0,0,38.352-4.739ZM50.38-11.8v2.078H48.224v6.188a2.433,2.433,0,0,0,.208,1.252A.823.823,0,0,0,49.145-2a3.763,3.763,0,0,0,1.235-.213v2.1A6.557,6.557,0,0,1,48.639.2a2.652,2.652,0,0,1-2.1-.736,3.86,3.86,0,0,1-.64-2.521V-9.726H44.36V-11.8H45.9v-1.786l2.325-2.123V-11.8Zm14.981.505V-11.8h2.021v3.919H65.361V-8.6A3.193,3.193,0,0,0,62.6-10.051a2.588,2.588,0,0,0-1.5.4A1.223,1.223,0,0,0,60.51-8.6a1.053,1.053,0,0,0,.444.9,5.343,5.343,0,0,0,1.993.573l1.561.3Q68-6.188,68-3.4A3.158,3.158,0,0,1,66.737-.786,5.291,5.291,0,0,1,63.385.2a5.645,5.645,0,0,1-1.634-.241,5.023,5.023,0,0,1-1.342-.6V0H58.342V-4.043h2.066v.4a2.084,2.084,0,0,0,.949,1.37,3.21,3.21,0,0,0,1.814.517,3.412,3.412,0,0,0,1.786-.4,1.3,1.3,0,0,0,.651-1.185.925.925,0,0,0-.517-.859,8.236,8.236,0,0,0-2.078-.59l-1.2-.258A4.839,4.839,0,0,1,59.2-6.278a3.116,3.116,0,0,1-.831-2.235,2.956,2.956,0,0,1,.612-1.881,3.781,3.781,0,0,1,1.567-1.174,5.116,5.116,0,0,1,1.965-.393A5.662,5.662,0,0,1,65.361-11.3Zm12.252-.82q3.291,0,3.291,3.56v6.491h2V0H78.58V-7.727a3.227,3.227,0,0,0-.365-1.786,1.288,1.288,0,0,0-1.129-.517,6.319,6.319,0,0,0-3.358,1.516v6.446h2.044V0h-6.48V-2.066H71.4V-14.88H69.292v-2.044h4.436v6.5A6.359,6.359,0,0,1,77.614-12.118ZM96.593-5.885a6.2,6.2,0,0,1-.82,3.145A6.1,6.1,0,0,1,93.539-.483a6.073,6.073,0,0,1-3.133.831,6.24,6.24,0,0,1-3.2-.831A5.866,5.866,0,0,1,84.987-2.74a6.369,6.369,0,0,1-.792-3.145A6.464,6.464,0,0,1,84.987-9.1a5.713,5.713,0,0,1,2.207-2.218,6.393,6.393,0,0,1,3.212-.8,6.022,6.022,0,0,1,3.156.848A6.141,6.141,0,0,1,95.785-9,6.2,6.2,0,0,1,96.593-5.885ZM90.405-1.909a3.518,3.518,0,0,0,1.9-.539A3.746,3.746,0,0,0,93.651-3.9a4.173,4.173,0,0,0,.483-1.988,4.128,4.128,0,0,0-.483-1.965A3.873,3.873,0,0,0,92.3-9.316a3.477,3.477,0,0,0-1.92-.556,3.491,3.491,0,0,0-1.9.545,3.852,3.852,0,0,0-1.359,1.466,4.117,4.117,0,0,0-.494,1.977,4.117,4.117,0,0,0,.494,1.977,3.781,3.781,0,0,0,1.37,1.46A3.575,3.575,0,0,0,90.405-1.909Zm21.72-3.931a6.484,6.484,0,0,1-.764,3.088,5.889,5.889,0,0,1-2.083,2.269,5.379,5.379,0,0,1-2.926.831,5.612,5.612,0,0,1-4.144-1.819V3.223h2.3V5.29H97.75V3.223h2.134V-9.726H97.907V-11.8h4.3v1.887a5.867,5.867,0,0,1,1.932-1.539,5.161,5.161,0,0,1,2.257-.505,5.441,5.441,0,0,1,2.976.825A5.658,5.658,0,0,1,111.4-8.906,6.587,6.587,0,0,1,112.125-5.84Zm-5.806,4.065a2.9,2.9,0,0,0,1.741-.562,3.753,3.753,0,0,0,1.213-1.527,4.892,4.892,0,0,0,.438-2.044,4.229,4.229,0,0,0-.483-2,3.837,3.837,0,0,0-1.325-1.46,3.419,3.419,0,0,0-1.9-.545,3.507,3.507,0,0,0-1.977.578,3.927,3.927,0,0,0-1.359,1.533,4.585,4.585,0,0,0-.483,2.1,3.682,3.682,0,0,0,1.162,2.886A4.276,4.276,0,0,0,106.319-1.774ZM127.646-5.84a6.484,6.484,0,0,1-.764,3.088A5.889,5.889,0,0,1,124.8-.483a5.379,5.379,0,0,1-2.926.831,5.612,5.612,0,0,1-4.144-1.819V3.223h2.3V5.29h-6.761V3.223H115.4V-9.726h-1.977V-11.8h4.3v1.887a5.867,5.867,0,0,1,1.932-1.539,5.161,5.161,0,0,1,2.257-.505,5.441,5.441,0,0,1,2.976.825,5.658,5.658,0,0,1,2.027,2.229A6.587,6.587,0,0,1,127.646-5.84Zm-5.806,4.065a2.9,2.9,0,0,0,1.741-.562,3.753,3.753,0,0,0,1.213-1.527,4.892,4.892,0,0,0,.438-2.044,4.229,4.229,0,0,0-.483-2,3.837,3.837,0,0,0-1.325-1.46,3.419,3.419,0,0,0-1.9-.545,3.507,3.507,0,0,0-1.977.578,3.927,3.927,0,0,0-1.359,1.533,4.585,4.585,0,0,0-.483,2.1,3.682,3.682,0,0,0,1.162,2.886A4.276,4.276,0,0,0,121.839-1.774Zm11.545-14a1.35,1.35,0,0,1-.416.988,1.35,1.35,0,0,1-.988.416,1.313,1.313,0,0,1-.977-.416,1.369,1.369,0,0,1-.4-.988,1.369,1.369,0,0,1,.4-.988,1.313,1.313,0,0,1,.977-.416,1.358,1.358,0,0,1,1,.4A1.358,1.358,0,0,1,133.384-15.779Zm1.662,13.712V0h-5.963V-2.066h1.842V-9.726h-1.842V-11.8h4.167v9.737ZM147.669-7.94v5.874h1.977V0h-4.3V-7.794a2.993,2.993,0,0,0-.32-1.595,1.166,1.166,0,0,0-1.05-.483,5.871,5.871,0,0,0-3.481,1.527v6.278h2.033V0h-6.4V-2.066H138.2V-9.726h-2.078V-11.8h4.369v1.426a7.033,7.033,0,0,1,4.077-1.583,2.778,2.778,0,0,1,2.342.977A4.958,4.958,0,0,1,147.669-7.94Zm13.3-2.156V-11.8H165.4v2.078h-2.134v8.85a6.758,6.758,0,0,1-1.555,4.767A5.889,5.889,0,0,1,157.17,5.57a7.5,7.5,0,0,1-4.829-1.595L153.835,2.3a6.535,6.535,0,0,0,1.623.893,5.149,5.149,0,0,0,1.78.3,3.512,3.512,0,0,0,2.74-1.089,4.131,4.131,0,0,0,.988-2.886v-1.1a5.3,5.3,0,0,1-1.937,1.415,5.772,5.772,0,0,1-2.342.517,5.382,5.382,0,0,1-2.948-.831A5.823,5.823,0,0,1,151.7-2.69a6.294,6.294,0,0,1-.736-3.015,6.491,6.491,0,0,1,.769-3.111,6.058,6.058,0,0,1,2.106-2.291,5.4,5.4,0,0,1,2.965-.854,5.231,5.231,0,0,1,2.184.46A7.005,7.005,0,0,1,160.966-10.1Zm-3.841,8.367a3.7,3.7,0,0,0,1.988-.55,3.815,3.815,0,0,0,1.381-1.482,4.227,4.227,0,0,0,.494-2.01,4.1,4.1,0,0,0-.494-1.943,4.016,4.016,0,0,0-1.37-1.5,3.494,3.494,0,0,0-1.954-.573,3.5,3.5,0,0,0-1.92.55A3.788,3.788,0,0,0,153.9-7.76a4.306,4.306,0,0,0-.483,2.01,4.456,4.456,0,0,0,.46,2.021,3.6,3.6,0,0,0,1.308,1.46A3.533,3.533,0,0,0,157.125-1.729Z" transform="translate(105 655)" fill="#020202"/>
    </g>
    <path id="Pickled_Gourmet" data-name="Pickled Gourmet" d="M-90.241-36.124a15.729,15.729,0,0,1-4.4,11.579q-4.4,4.438-14.907,4.507h-6.864V-6.518h6.795V0h-21.217V-6.518h6.518V-45.727h-6.518v-6.518h19.449q7.87,0,12.5,1.7a12.093,12.093,0,0,1,6.639,5.183A18.411,18.411,0,0,1-90.241-36.124Zm-8.008-.173q0-4.888-2.877-7.159t-9.846-2.271h-5.443v19.379h4.888a27.046,27.046,0,0,0,7.7-.884A7.263,7.263,0,0,0-99.6-30.282,11.341,11.341,0,0,0-98.249-36.3Zm25-12.411a4.167,4.167,0,0,1-1.283,3.051,4.167,4.167,0,0,1-3.051,1.283A4.054,4.054,0,0,1-80.6-45.658a4.225,4.225,0,0,1-1.248-3.051A4.225,4.225,0,0,1-80.6-51.759a4.054,4.054,0,0,1,3.016-1.283A4.191,4.191,0,0,1-74.5-51.794,4.191,4.191,0,0,1-73.253-48.708Zm5.131,42.33V0H-86.531V-6.379h5.686V-30.022h-5.686v-6.414h12.862V-6.379ZM-35.743-33.8v-2.635h6.379v13.8h-6.379a8.315,8.315,0,0,0-3.189-6.084,10.342,10.342,0,0,0-6.414-2.1,9.816,9.816,0,0,0-5.6,1.664,10.987,10.987,0,0,0-3.831,4.507,14.261,14.261,0,0,0-1.352,6.206A14.009,14.009,0,0,0-53.077-9.1a10,10,0,0,0,8.043,3.623q7.731,0,10.92-7.176l5.963,2.843q-5.027,10.886-17.2,10.886a18.278,18.278,0,0,1-9.672-2.565,17.372,17.372,0,0,1-6.535-7.038,21.315,21.315,0,0,1-2.305-9.915,20.227,20.227,0,0,1,2.34-9.707,17.24,17.24,0,0,1,6.431-6.812,17.437,17.437,0,0,1,9.118-2.444A15.319,15.319,0,0,1-35.743-33.8ZM1.8-30.473H-3.952v-5.963H16.225v5.963H10.608l-13.625,11.3L9.846-6.379h6.379V0H6.76L-11.475-18.374v12H-5.3V0H-25.169V-6.379h6.518V-45.935h-6.518v-6.31h13.694V-19.31ZM37.892-6.379V0H18.721V-6.379h6.448V-45.935H18.721v-6.31H32.345V-6.379ZM81.331-16.4H50.789A12.778,12.778,0,0,0,54.845-8.13,12.044,12.044,0,0,0,63.165-5.1a15.176,15.176,0,0,0,6.691-1.491,13.026,13.026,0,0,0,5.166-4.576l6.31,2.843A19.213,19.213,0,0,1,73.513-1.3,23.545,23.545,0,0,1,62.992,1.075a21.754,21.754,0,0,1-10.47-2.461A17.8,17.8,0,0,1,45.4-8.251a19.431,19.431,0,0,1-2.548-9.915,19.572,19.572,0,0,1,2.513-9.88,18.057,18.057,0,0,1,6.882-6.882,19.187,19.187,0,0,1,9.638-2.479,19.255,19.255,0,0,1,10.036,2.548,17.809,17.809,0,0,1,6.743,7.28A25.766,25.766,0,0,1,81.331-16.4ZM62.021-31.444a10.344,10.344,0,0,0-7.107,2.721A12.509,12.509,0,0,0,51-21.529H73.808a12.7,12.7,0,0,0-4.264-7.194A11.393,11.393,0,0,0,62.021-31.444Zm69.3,25.065V0H117.628V-5.339A17.154,17.154,0,0,1,104.559.624,17.433,17.433,0,0,1,95.25-1.855,17.044,17.044,0,0,1,88.975-8.6a19.991,19.991,0,0,1-2.236-9.43,20.248,20.248,0,0,1,2.375-9.707,18.385,18.385,0,0,1,6.57-7.055,16.842,16.842,0,0,1,9.083-2.617,16.22,16.22,0,0,1,6.708,1.421,20.354,20.354,0,0,1,6.154,4.472V-45.935h-7.038v-6.31h14.145V-6.379Zm-25.412.624a10.62,10.62,0,0,0,6-1.768,12.359,12.359,0,0,0,4.195-4.715,13.528,13.528,0,0,0,1.525-6.31,12.788,12.788,0,0,0-1.525-6.206,11.484,11.484,0,0,0-4.229-4.437,11.59,11.59,0,0,0-6.1-1.629A10.228,10.228,0,0,0,99.9-29.069a12.311,12.311,0,0,0-4.073,4.646,13.325,13.325,0,0,0-1.491,6.188,13.275,13.275,0,0,0,1.525,6.379,11.587,11.587,0,0,0,4.16,4.472A10.979,10.979,0,0,0,105.911-5.755ZM-109.447,33.51V27.755h6.656V44.916h-6.656a18.041,18.041,0,0,0-7.228-8.043,19.624,19.624,0,0,0-10.383-3.016,18.308,18.308,0,0,0-9.638,2.548,17.492,17.492,0,0,0-6.57,7.02,21.581,21.581,0,0,0-2.34,10.158,22.107,22.107,0,0,0,2.461,10.574,17.892,17.892,0,0,0,6.847,7.176,19.437,19.437,0,0,0,10,2.565,19.978,19.978,0,0,0,7.922-1.56,15.915,15.915,0,0,0,6.067-4.437,13.337,13.337,0,0,0,3-6.587h-9.6V54.727h19.033v1.7a24.392,24.392,0,0,1-3.4,13,22.32,22.32,0,0,1-9.378,8.494,29.985,29.985,0,0,1-13.434,2.947,31.151,31.151,0,0,1-14.89-3.415,23.764,23.764,0,0,1-9.811-9.551A28.819,28.819,0,0,1-154.2,53.652a27.834,27.834,0,0,1,3.415-13.833,24.509,24.509,0,0,1,9.412-9.516,26.976,26.976,0,0,1,13.59-3.415A26.946,26.946,0,0,1-109.447,33.51ZM-55.5,61.834a19.132,19.132,0,0,1-2.531,9.707,18.827,18.827,0,0,1-6.9,6.968,18.747,18.747,0,0,1-9.672,2.565,19.261,19.261,0,0,1-9.88-2.565,18.108,18.108,0,0,1-6.847-6.968,19.662,19.662,0,0,1-2.444-9.707,19.955,19.955,0,0,1,2.444-9.915,17.634,17.634,0,0,1,6.812-6.847,19.733,19.733,0,0,1,9.915-2.479,18.589,18.589,0,0,1,9.742,2.617A18.957,18.957,0,0,1-58,52.231,19.14,19.14,0,0,1-55.5,61.834Zm-19.1,12.272a10.86,10.86,0,0,0,5.859-1.664,11.564,11.564,0,0,0,4.16-4.472A12.883,12.883,0,0,0-63.1,61.834a12.742,12.742,0,0,0-1.491-6.067,11.955,11.955,0,0,0-4.16-4.524,10.735,10.735,0,0,0-5.928-1.716,10.777,10.777,0,0,0-5.859,1.681,11.89,11.89,0,0,0-4.195,4.524,12.709,12.709,0,0,0-1.525,6.1,12.709,12.709,0,0,0,1.525,6.1A11.672,11.672,0,0,0-80.5,72.442,11.035,11.035,0,0,0-74.605,74.106Zm40.839.277q4.819,0,10.435-4.68V49.978H-29.78V43.564h13.625V73.621h6.24V80H-23.332V75.805q-6.31,4.819-12,4.819-5.131,0-7.575-3.051T-45.346,67.45V49.978h-5.1V43.564h12.272V68.941a6.727,6.727,0,0,0,1.023,4.125A4.019,4.019,0,0,0-33.767,74.384ZM7.627,65.37v8.251h7.939V80H-6.795V73.621H.52V49.978H-6.795V43.564h13v8.251Q8.39,46.927,11.631,45T20.9,43.079h1.629v7.246h-1.56q-5.824,0-8.667,1.525A7.457,7.457,0,0,0,8.546,56.46,33.006,33.006,0,0,0,7.627,65.37ZM32,73.621V49.978H25.862V43.564H39.14v4.611q6.414-5.1,12.584-5.1,6.31,0,8.667,5.686,7-5.686,13.208-5.686a9.523,9.523,0,0,1,7.02,2.6q2.617,2.6,2.617,7.974V73.621h6.379V80H76.131V56.911a25.069,25.069,0,0,0-.243-3.883A4.564,4.564,0,0,0,74.623,50.5a4.386,4.386,0,0,0-3.241-1.04,11.584,11.584,0,0,0-4.611,1.179,25.605,25.605,0,0,0-5.547,3.536V73.621h6.171V80H54.047V56.01q0-3.5-1.057-5.027a3.936,3.936,0,0,0-3.484-1.525q-3.952,0-10.366,4.715V73.621h6.414V80H25.446V73.621ZM131.877,63.6H101.334a12.778,12.778,0,0,0,4.056,8.268,12.044,12.044,0,0,0,8.32,3.033,15.176,15.176,0,0,0,6.691-1.491,13.026,13.026,0,0,0,5.166-4.576l6.31,2.843a19.213,19.213,0,0,1-7.818,7.02,23.545,23.545,0,0,1-10.522,2.375,21.754,21.754,0,0,1-10.47-2.461,17.8,17.8,0,0,1-7.124-6.864,20.62,20.62,0,0,1-.035-19.8,18.057,18.057,0,0,1,6.882-6.882,20.5,20.5,0,0,1,19.674.069,17.809,17.809,0,0,1,6.743,7.28A25.766,25.766,0,0,1,131.877,63.6Zm-19.31-15.046a10.344,10.344,0,0,0-7.107,2.721,12.509,12.509,0,0,0-3.917,7.194h22.812a12.7,12.7,0,0,0-4.264-7.194A11.393,11.393,0,0,0,112.567,48.556Zm42.954-4.992v6.414h-6.656v19.1q0,2.981.641,3.865a2.539,2.539,0,0,0,2.2.884,11.616,11.616,0,0,0,3.813-.659v6.483a20.241,20.241,0,0,1-5.374.971q-4.507,0-6.483-2.271t-1.976-7.783V49.978h-4.75V43.564h4.75V38.052l7.176-6.552V43.564Z" transform="translate(188 423)" fill="#fdfdfd"/>
    <g id="Status_Bar" data-name="Status Bar">
      <rect id="Frame" width="375" height="44" fill="#fff" opacity="0.001"/>
      <g id="Status_Bar-2" data-name="Status Bar" transform="translate(21 13)">
        <g id="Battery" transform="translate(315.672 3.333)">
          <g id="Border" fill="#fff" stroke="#000" stroke-miterlimit="10" stroke-width="1" opacity="0.35">
            <rect width="22" height="11.333" rx="2.667" stroke="none"/>
            <rect x="0.5" y="0.5" width="21" height="10.333" rx="2.167" fill="none"/>
          </g>
          <path id="Cap" d="M0,0V4A2.17,2.17,0,0,0,1.328,2,2.17,2.17,0,0,0,0,0" transform="translate(23 3.667)" fill="#fff" opacity="0.4"/>
          <rect id="Capacity" width="18" height="7.333" rx="1.333" transform="translate(2 2)" fill="#fff"/>
        </g>
        <path id="Wifi" d="M7.667,11a.314.314,0,0,1-.222-.093L5.439,8.885a.31.31,0,0,1-.094-.231.316.316,0,0,1,.1-.227,3.437,3.437,0,0,1,4.437,0,.315.315,0,0,1,.009.458L7.889,10.907A.314.314,0,0,1,7.667,11ZM11.19,7.451a.313.313,0,0,1-.215-.086,4.928,4.928,0,0,0-6.612,0,.313.313,0,0,1-.215.086.308.308,0,0,1-.22-.091L2.768,6.189a.322.322,0,0,1,0-.46,7.192,7.192,0,0,1,9.791,0,.323.323,0,0,1,.1.23.319.319,0,0,1-.095.23L11.409,7.36A.309.309,0,0,1,11.19,7.451Zm2.669-2.693a.3.3,0,0,1-.215-.088,8.68,8.68,0,0,0-11.955,0,.307.307,0,0,1-.435,0L.094,3.5a.323.323,0,0,1,0-.457,10.948,10.948,0,0,1,15.141,0,.323.323,0,0,1,0,.457l-1.161,1.17A.306.306,0,0,1,13.859,4.758Z" transform="translate(295.339 3.331)" fill="#fff"/>
        <path id="Cellular_Connection" data-name="Cellular Connection" d="M16,10.667H15a1,1,0,0,1-1-1V1a1,1,0,0,1,1-1h1a1,1,0,0,1,1,1V9.667A1,1,0,0,1,16,10.667Zm-4.667,0h-1a1,1,0,0,1-1-1V3.334a1,1,0,0,1,1-1h1a1,1,0,0,1,1,1V9.667A1,1,0,0,1,11.334,10.667Zm-4.667,0h-1a1,1,0,0,1-1-1v-4a1,1,0,0,1,1-1h1a1,1,0,0,1,1,1v4A1,1,0,0,1,6.666,10.667ZM2,10.667H1a1,1,0,0,1-1-1v-2a1,1,0,0,1,1-1H2a1,1,0,0,1,1,1v2A1,1,0,0,1,2,10.667Z" transform="translate(273.339 3.667)" fill="#fff"/>
        <g id="Time_Style" data-name="Time Style">
          <text id="Time" fill="#fff" font-size="15" font-family="Helvetica" letter-spacing="-0.02em"><tspan x="12.853" y="12">9:41</tspan></text>
        </g>
      </g>
    </g>
    <g id="Home_Indicator" data-name="Home Indicator" transform="translate(0 778)">
      <rect id="Frame-2" data-name="Frame" width="375" height="34" fill="#fff" opacity="0"/>
      <rect id="Home_Indicator-2" data-name="Home Indicator" width="134" height="5" rx="2.5" transform="translate(121 21)" fill="#fff"/>
    </g>
    <g id="pickle_jar" data-name="pickle jar">
      <g id="pickle_jar-2" data-name="pickle jar" transform="translate(23.572 103.304)">
        <g id="jar_contents" data-name="jar contents" transform="translate(0 25.633)">
          <g id="jar" transform="translate(1.559 0)" fill="#86c458" stroke="#4ca71c" stroke-width="1">
            <rect width="97.722" height="164.55" rx="31" stroke="none"/>
            <rect x="0.5" y="0.5" width="96.722" height="163.55" rx="30.5" fill="none"/>
          </g>
          <path id="pickle" d="M7.143,17.146C1.094,32.009-1.365,54.448.741,71.5s20.754,28.882,18.745,8.029c-1.137-11.8-1.669-20.719-.133-31.8,1.132-8.171,3.49-17.694,7.7-30.577C36.743-12.54,13.191,2.282,7.143,17.146Z" transform="translate(8.454 62.389)" fill="#58b41f" stroke="#479f1a" stroke-width="1"/>
          <g id="Group_3" data-name="Group 3" transform="translate(45.289 133.431) rotate(166)">
            <g id="Ellipse_1" data-name="Ellipse 1" transform="translate(15.711 34.729)" fill="#54a720" stroke="#4b9b18" stroke-width="1">
              <circle cx="2.067" cy="2.067" r="2.067" stroke="none"/>
              <circle cx="2.067" cy="2.067" r="1.567" fill="none"/>
            </g>
            <g id="Ellipse_2" data-name="Ellipse 2" transform="translate(7.442 40.517)" fill="#54a720" stroke="#4b9b18" stroke-width="1">
              <circle cx="2.067" cy="2.067" r="2.067" stroke="none"/>
              <circle cx="2.067" cy="2.067" r="1.567" fill="none"/>
            </g>
            <g id="Ellipse_3" data-name="Ellipse 3" transform="translate(14.884 42.998)" fill="#54a720" stroke="#4b9b18" stroke-width="1">
              <ellipse cx="1.654" cy="1.654" rx="1.654" ry="1.654" stroke="none"/>
              <ellipse cx="1.654" cy="1.654" rx="1.154" ry="1.154" fill="none"/>
            </g>
            <g id="Ellipse_4" data-name="Ellipse 4" transform="translate(8.269 52.094)" fill="#54a720" stroke="#4b9b18" stroke-width="1">
              <ellipse cx="1.654" cy="1.654" rx="1.654" ry="1.654" stroke="none"/>
              <ellipse cx="1.654" cy="1.654" rx="1.154" ry="1.154" fill="none"/>
            </g>
            <g id="Ellipse_5" data-name="Ellipse 5" transform="translate(16.538 22.326)" fill="#54a720" stroke="#4b9b18" stroke-width="1">
              <ellipse cx="1.654" cy="1.654" rx="1.654" ry="1.654" stroke="none"/>
              <ellipse cx="1.654" cy="1.654" rx="1.154" ry="1.154" fill="none"/>
            </g>
            <g id="Ellipse_6" data-name="Ellipse 6" transform="translate(22.326 28.941)" fill="#54a720" stroke="#4b9b18" stroke-width="1">
              <ellipse cx="1.654" cy="1.654" rx="1.654" ry="1.654" stroke="none"/>
              <ellipse cx="1.654" cy="1.654" rx="1.154" ry="1.154" fill="none"/>
            </g>
            <g id="Ellipse_7" data-name="Ellipse 7" transform="translate(0 53.748)" fill="#54a720" stroke="#4b9b18" stroke-width="1">
              <ellipse cx="1.654" cy="1.654" rx="1.654" ry="1.654" stroke="none"/>
              <ellipse cx="1.654" cy="1.654" rx="1.154" ry="1.154" fill="none"/>
            </g>
            <g id="Ellipse_8" data-name="Ellipse 8" transform="translate(4.134 61.189)" fill="#54a720" stroke="#4b9b18" stroke-width="1">
              <ellipse cx="1.654" cy="1.654" rx="1.654" ry="1.654" stroke="none"/>
              <ellipse cx="1.654" cy="1.654" rx="1.154" ry="1.154" fill="none"/>
            </g>
            <g id="Ellipse_12" data-name="Ellipse 12" transform="translate(25.633 19.018)" fill="#8ce653" stroke="#74d934" stroke-width="1">
              <ellipse cx="1.654" cy="1.654" rx="1.654" ry="1.654" stroke="none"/>
              <ellipse cx="1.654" cy="1.654" rx="1.154" ry="1.154" fill="none"/>
            </g>
            <g id="Ellipse_13" data-name="Ellipse 13" transform="translate(20.672 11.576)" fill="#8ce653" stroke="#74d934" stroke-width="1">
              <ellipse cx="1.654" cy="1.654" rx="1.654" ry="1.654" stroke="none"/>
              <ellipse cx="1.654" cy="1.654" rx="1.154" ry="1.154" fill="none"/>
            </g>
            <g id="Ellipse_14" data-name="Ellipse 14" transform="translate(27.287 0)" fill="#8ce653" stroke="#74d934" stroke-width="1">
              <ellipse cx="1.654" cy="1.654" rx="1.654" ry="1.654" stroke="none"/>
              <ellipse cx="1.654" cy="1.654" rx="1.154" ry="1.154" fill="none"/>
            </g>
          </g>
          <path id="pickle-2" data-name="pickle" d="M7.143,17.146C1.094,32.009-1.365,54.448.741,71.5s20.754,28.882,18.745,8.029c-1.137-11.8-1.669-20.719-.133-31.8,1.132-8.171,3.49-17.694,7.7-30.577C36.743-12.54,13.191,2.282,7.143,17.146Z" transform="matrix(0.809, -0.588, 0.588, 0.809, 1.155, 89.596)" fill="#58b41f" stroke="#479f1a" stroke-width="1"/>
          <path id="pickle-3" data-name="pickle" d="M6,14.407C.919,26.9-1.147,45.752.623,60.078s17.439,24.269,15.751,6.747c-.955-9.918-1.4-17.409-.112-26.724.951-6.866,2.933-14.867,6.468-25.694C30.874-10.537,11.084,1.917,6,14.407Z" transform="matrix(-0.978, -0.208, 0.208, -0.978, 29.648, 82.494)" fill="#58b41f" stroke="#479f1a" stroke-width="1"/>
          <g id="pickle_bumps" data-name="pickle bumps" transform="matrix(0.996, -0.087, 0.087, 0.996, 10.91, 17.997)">
            <g id="Ellipse_1-2" data-name="Ellipse 1" transform="translate(12.765 28.217)" fill="#54a720" stroke="#4b9b18" stroke-width="1">
              <circle cx="1.68" cy="1.68" r="1.68" stroke="none"/>
              <circle cx="1.68" cy="1.68" r="1.18" fill="none"/>
            </g>
            <g id="Ellipse_2-2" data-name="Ellipse 2" transform="translate(6.047 32.92)" fill="#54a720" stroke="#4b9b18" stroke-width="1">
              <circle cx="1.68" cy="1.68" r="1.68" stroke="none"/>
              <circle cx="1.68" cy="1.68" r="1.18" fill="none"/>
            </g>
            <g id="Ellipse_3-2" data-name="Ellipse 3" transform="translate(12.093 34.936)" fill="#54a720" stroke="#4b9b18" stroke-width="1">
              <ellipse cx="1.344" cy="1.344" rx="1.344" ry="1.344" stroke="none"/>
              <ellipse cx="1.344" cy="1.344" rx="0.844" ry="0.844" fill="none"/>
            </g>
            <g id="Ellipse_4-2" data-name="Ellipse 4" transform="translate(6.718 42.326)" fill="#54a720" stroke="#4b9b18" stroke-width="1">
              <ellipse cx="1.344" cy="1.344" rx="1.344" ry="1.344" stroke="none"/>
              <ellipse cx="1.344" cy="1.344" rx="0.844" ry="0.844" fill="none"/>
            </g>
            <g id="Ellipse_5-2" data-name="Ellipse 5" transform="translate(13.437 18.14)" fill="#54a720" stroke="#4b9b18" stroke-width="1">
              <ellipse cx="1.344" cy="1.344" rx="1.344" ry="1.344" stroke="none"/>
              <ellipse cx="1.344" cy="1.344" rx="0.844" ry="0.844" fill="none"/>
            </g>
            <g id="Ellipse_6-2" data-name="Ellipse 6" transform="translate(18.14 23.515)" fill="#54a720" stroke="#4b9b18" stroke-width="1">
              <ellipse cx="1.344" cy="1.344" rx="1.344" ry="1.344" stroke="none"/>
              <ellipse cx="1.344" cy="1.344" rx="0.844" ry="0.844" fill="none"/>
            </g>
            <g id="Ellipse_7-2" data-name="Ellipse 7" transform="translate(0 43.67)" fill="#54a720" stroke="#4b9b18" stroke-width="1">
              <ellipse cx="1.344" cy="1.344" rx="1.344" ry="1.344" stroke="none"/>
              <ellipse cx="1.344" cy="1.344" rx="0.844" ry="0.844" fill="none"/>
            </g>
            <g id="Ellipse_8-2" data-name="Ellipse 8" transform="translate(3.359 49.717)" fill="#54a720" stroke="#4b9b18" stroke-width="1">
              <ellipse cx="1.344" cy="1.344" rx="1.344" ry="1.344" stroke="none"/>
              <ellipse cx="1.344" cy="1.344" rx="0.844" ry="0.844" fill="none"/>
            </g>
            <g id="Ellipse_12-2" data-name="Ellipse 12" transform="translate(20.827 15.452)" fill="#8ce653" stroke="#74d934" stroke-width="1">
              <ellipse cx="1.344" cy="1.344" rx="1.344" ry="1.344" stroke="none"/>
              <ellipse cx="1.344" cy="1.344" rx="0.844" ry="0.844" fill="none"/>
            </g>
            <g id="Ellipse_13-2" data-name="Ellipse 13" transform="translate(16.796 9.406)" fill="#8ce653" stroke="#74d934" stroke-width="1">
              <ellipse cx="1.344" cy="1.344" rx="1.344" ry="1.344" stroke="none"/>
              <ellipse cx="1.344" cy="1.344" rx="0.844" ry="0.844" fill="none"/>
            </g>
            <g id="Ellipse_14-2" data-name="Ellipse 14" transform="translate(22.171 0)" fill="#8ce653" stroke="#74d934" stroke-width="1">
              <ellipse cx="1.344" cy="1.344" rx="1.344" ry="1.344" stroke="none"/>
              <ellipse cx="1.344" cy="1.344" rx="0.844" ry="0.844" fill="none"/>
            </g>
          </g>
          <path id="pickle-4" data-name="pickle" d="M6,14.407C.919,26.9-1.147,45.752.623,60.078s17.439,24.269,15.751,6.747c-.955-9.918-1.4-17.409-.112-26.724.951-6.866,2.933-14.867,6.468-25.694C30.874-10.537,11.084,1.917,6,14.407Z" transform="matrix(-0.848, 0.53, -0.53, -0.848, 82.797, 80.014)" fill="#58b41f" stroke="#479f1a" stroke-width="1"/>
          <g id="pickle_bumps-2" data-name="pickle bumps" transform="matrix(0.53, -0.848, 0.848, 0.53, 24.28, 48.767)">
            <g id="Ellipse_1-3" data-name="Ellipse 1" transform="translate(12.765 28.217)" fill="#54a720" stroke="#4b9b18" stroke-width="1">
              <circle cx="1.68" cy="1.68" r="1.68" stroke="none"/>
              <circle cx="1.68" cy="1.68" r="1.18" fill="none"/>
            </g>
            <g id="Ellipse_2-3" data-name="Ellipse 2" transform="translate(6.047 32.92)" fill="#54a720" stroke="#4b9b18" stroke-width="1">
              <circle cx="1.68" cy="1.68" r="1.68" stroke="none"/>
              <circle cx="1.68" cy="1.68" r="1.18" fill="none"/>
            </g>
            <g id="Ellipse_3-3" data-name="Ellipse 3" transform="translate(12.093 34.936)" fill="#54a720" stroke="#4b9b18" stroke-width="1">
              <circle cx="1.344" cy="1.344" r="1.344" stroke="none"/>
              <circle cx="1.344" cy="1.344" r="0.844" fill="none"/>
            </g>
            <g id="Ellipse_4-3" data-name="Ellipse 4" transform="translate(6.718 42.326)" fill="#54a720" stroke="#4b9b18" stroke-width="1">
              <circle cx="1.344" cy="1.344" r="1.344" stroke="none"/>
              <circle cx="1.344" cy="1.344" r="0.844" fill="none"/>
            </g>
            <g id="Ellipse_5-3" data-name="Ellipse 5" transform="translate(13.437 18.14)" fill="#54a720" stroke="#4b9b18" stroke-width="1">
              <circle cx="1.344" cy="1.344" r="1.344" stroke="none"/>
              <circle cx="1.344" cy="1.344" r="0.844" fill="none"/>
            </g>
            <g id="Ellipse_6-3" data-name="Ellipse 6" transform="translate(18.14 23.515)" fill="#54a720" stroke="#4b9b18" stroke-width="1">
              <circle cx="1.344" cy="1.344" r="1.344" stroke="none"/>
              <circle cx="1.344" cy="1.344" r="0.844" fill="none"/>
            </g>
            <g id="Ellipse_7-3" data-name="Ellipse 7" transform="translate(0 43.67)" fill="#54a720" stroke="#4b9b18" stroke-width="1">
              <circle cx="1.344" cy="1.344" r="1.344" stroke="none"/>
              <circle cx="1.344" cy="1.344" r="0.844" fill="none"/>
            </g>
            <g id="Ellipse_8-3" data-name="Ellipse 8" transform="translate(3.359 49.717)" fill="#54a720" stroke="#4b9b18" stroke-width="1">
              <circle cx="1.344" cy="1.344" r="1.344" stroke="none"/>
              <circle cx="1.344" cy="1.344" r="0.844" fill="none"/>
            </g>
            <g id="Ellipse_12-3" data-name="Ellipse 12" transform="translate(20.827 15.452)" fill="#8ce653" stroke="#74d934" stroke-width="1">
              <circle cx="1.344" cy="1.344" r="1.344" stroke="none"/>
              <circle cx="1.344" cy="1.344" r="0.844" fill="none"/>
            </g>
            <g id="Ellipse_13-3" data-name="Ellipse 13" transform="translate(16.796 9.406)" fill="#8ce653" stroke="#74d934" stroke-width="1">
              <circle cx="1.344" cy="1.344" r="1.344" stroke="none"/>
              <circle cx="1.344" cy="1.344" r="0.844" fill="none"/>
            </g>
            <g id="Ellipse_14-3" data-name="Ellipse 14" transform="translate(22.171 0)" fill="#8ce653" stroke="#74d934" stroke-width="1">
              <circle cx="1.344" cy="1.344" r="1.344" stroke="none"/>
              <circle cx="1.344" cy="1.344" r="0.844" fill="none"/>
            </g>
          </g>
          <g id="pickle_bumps-3" data-name="pickle bumps" transform="translate(42.944 7.364)">
            <path id="pickle-5" data-name="pickle" d="M7.547,18.117C1.156,33.824-1.442,57.534.783,75.55s21.93,30.519,19.807,8.484c-1.2-12.472-1.764-21.893-.141-33.606,1.2-8.634,3.688-18.7,8.133-32.31C38.826-13.251,13.939,2.411,7.547,18.117Z" transform="matrix(-0.966, -0.259, 0.259, -0.966, 29.968, 100.551)" fill="#58b41f" stroke="#479f1a" stroke-width="1"/>
            <g id="Ellipse_1-4" data-name="Ellipse 1" transform="translate(27.396 54.652)" fill="#54a720" stroke="#479f1a" stroke-width="1">
              <circle cx="2.067" cy="2.067" r="2.067" stroke="none"/>
              <circle cx="2.067" cy="2.067" r="1.567" fill="none"/>
            </g>
            <g id="Ellipse_2-4" data-name="Ellipse 2" transform="translate(19.127 60.44)" fill="#54a720" stroke="#479f1a" stroke-width="1">
              <circle cx="2.067" cy="2.067" r="2.067" stroke="none"/>
              <circle cx="2.067" cy="2.067" r="1.567" fill="none"/>
            </g>
            <g id="Ellipse_3-4" data-name="Ellipse 3" transform="translate(26.569 62.921)" fill="#54a720" stroke="#479f1a" stroke-width="1">
              <ellipse cx="1.654" cy="1.654" rx="1.654" ry="1.654" stroke="none"/>
              <ellipse cx="1.654" cy="1.654" rx="1.154" ry="1.154" fill="none"/>
            </g>
            <g id="Ellipse_4-4" data-name="Ellipse 4" transform="translate(19.954 72.016)" fill="#54a720" stroke="#479f1a" stroke-width="1">
              <ellipse cx="1.654" cy="1.654" rx="1.654" ry="1.654" stroke="none"/>
              <ellipse cx="1.654" cy="1.654" rx="1.154" ry="1.154" fill="none"/>
            </g>
            <g id="Ellipse_5-4" data-name="Ellipse 5" transform="translate(28.223 42.249)" fill="#54a720" stroke="#479f1a" stroke-width="1">
              <ellipse cx="1.654" cy="1.654" rx="1.654" ry="1.654" stroke="none"/>
              <ellipse cx="1.654" cy="1.654" rx="1.154" ry="1.154" fill="none"/>
            </g>
            <g id="Ellipse_6-4" data-name="Ellipse 6" transform="translate(34.011 48.864)" fill="#54a720" stroke="#479f1a" stroke-width="1">
              <ellipse cx="1.654" cy="1.654" rx="1.654" ry="1.654" stroke="none"/>
              <ellipse cx="1.654" cy="1.654" rx="1.154" ry="1.154" fill="none"/>
            </g>
            <g id="Ellipse_7-4" data-name="Ellipse 7" transform="translate(11.685 73.67)" fill="#58b41f" stroke="#479f1a" stroke-width="1">
              <ellipse cx="1.654" cy="1.654" rx="1.654" ry="1.654" stroke="none"/>
              <ellipse cx="1.654" cy="1.654" rx="1.154" ry="1.154" fill="none"/>
            </g>
            <g id="Ellipse_8-4" data-name="Ellipse 8" transform="translate(15.819 81.112)" fill="#58b41f" stroke="#479f1a" stroke-width="1">
              <ellipse cx="1.654" cy="1.654" rx="1.654" ry="1.654" stroke="none"/>
              <ellipse cx="1.654" cy="1.654" rx="1.154" ry="1.154" fill="none"/>
            </g>
            <g id="Ellipse_12-4" data-name="Ellipse 12" transform="translate(37.318 38.941)" fill="#58b41f" stroke="#479f1a" stroke-width="1">
              <ellipse cx="1.654" cy="1.654" rx="1.654" ry="1.654" stroke="none"/>
              <ellipse cx="1.654" cy="1.654" rx="1.154" ry="1.154" fill="none"/>
            </g>
            <g id="Ellipse_13-4" data-name="Ellipse 13" transform="translate(32.357 31.499)" fill="#8ce653" stroke="#74d934" stroke-width="1">
              <ellipse cx="1.654" cy="1.654" rx="1.654" ry="1.654" stroke="none"/>
              <ellipse cx="1.654" cy="1.654" rx="1.154" ry="1.154" fill="none"/>
            </g>
            <g id="Ellipse_14-4" data-name="Ellipse 14" transform="translate(38.972 19.923)" fill="#8ce653" stroke="#74d934" stroke-width="1">
              <ellipse cx="1.654" cy="1.654" rx="1.654" ry="1.654" stroke="none"/>
              <ellipse cx="1.654" cy="1.654" rx="1.154" ry="1.154" fill="none"/>
            </g>
            <g id="Ellipse_9" data-name="Ellipse 9" transform="translate(37.318 38.941)" fill="#54a720" stroke="#479f1a" stroke-width="1">
              <ellipse cx="1.654" cy="1.654" rx="1.654" ry="1.654" stroke="none"/>
              <ellipse cx="1.654" cy="1.654" rx="1.154" ry="1.154" fill="none"/>
            </g>
          </g>
          <path id="pickle-6" data-name="pickle" d="M7.143,17.146C1.094,32.009-1.365,54.448.741,71.5s20.754,28.882,18.745,8.029c-1.137-11.8-1.669-20.719-.133-31.8,1.132-8.171,3.49-17.694,7.7-30.577C36.743-12.54,13.191,2.282,7.143,17.146Z" transform="matrix(-0.951, -0.309, 0.309, -0.951, 71.199, 162.796)" fill="#58b41f" stroke="#479f0f" stroke-width="1"/>
          <g id="pickle_bumps-4" data-name="pickle bumps" transform="translate(56.283 82.688)">
            <g id="Ellipse_1-5" data-name="Ellipse 1" transform="translate(15.711 34.729)" fill="#54a720" stroke="#4b9b18" stroke-width="1">
              <circle cx="2.067" cy="2.067" r="2.067" stroke="none"/>
              <circle cx="2.067" cy="2.067" r="1.567" fill="none"/>
            </g>
            <g id="Ellipse_2-5" data-name="Ellipse 2" transform="translate(7.442 40.517)" fill="#54a720" stroke="#4b9b18" stroke-width="1">
              <circle cx="2.067" cy="2.067" r="2.067" stroke="none"/>
              <circle cx="2.067" cy="2.067" r="1.567" fill="none"/>
            </g>
            <g id="Ellipse_3-5" data-name="Ellipse 3" transform="translate(14.884 42.998)" fill="#54a720" stroke="#4b9b18" stroke-width="1">
              <ellipse cx="1.654" cy="1.654" rx="1.654" ry="1.654" stroke="none"/>
              <ellipse cx="1.654" cy="1.654" rx="1.154" ry="1.154" fill="none"/>
            </g>
            <g id="Ellipse_4-5" data-name="Ellipse 4" transform="translate(8.269 52.094)" fill="#54a720" stroke="#4b9b18" stroke-width="1">
              <ellipse cx="1.654" cy="1.654" rx="1.654" ry="1.654" stroke="none"/>
              <ellipse cx="1.654" cy="1.654" rx="1.154" ry="1.154" fill="none"/>
            </g>
            <g id="Ellipse_5-5" data-name="Ellipse 5" transform="translate(16.538 22.326)" fill="#54a720" stroke="#4b9b18" stroke-width="1">
              <ellipse cx="1.654" cy="1.654" rx="1.654" ry="1.654" stroke="none"/>
              <ellipse cx="1.654" cy="1.654" rx="1.154" ry="1.154" fill="none"/>
            </g>
            <g id="Ellipse_6-5" data-name="Ellipse 6" transform="translate(22.326 28.941)" fill="#54a720" stroke="#4b9b18" stroke-width="1">
              <ellipse cx="1.654" cy="1.654" rx="1.654" ry="1.654" stroke="none"/>
              <ellipse cx="1.654" cy="1.654" rx="1.154" ry="1.154" fill="none"/>
            </g>
            <g id="Ellipse_7-5" data-name="Ellipse 7" transform="translate(0 53.748)" fill="#54a720" stroke="#4b9b18" stroke-width="1">
              <ellipse cx="1.654" cy="1.654" rx="1.654" ry="1.654" stroke="none"/>
              <ellipse cx="1.654" cy="1.654" rx="1.154" ry="1.154" fill="none"/>
            </g>
            <g id="Ellipse_8-5" data-name="Ellipse 8" transform="translate(4.134 61.189)" fill="#54a720" stroke="#4b9b18" stroke-width="1">
              <ellipse cx="1.654" cy="1.654" rx="1.654" ry="1.654" stroke="none"/>
              <ellipse cx="1.654" cy="1.654" rx="1.154" ry="1.154" fill="none"/>
            </g>
            <g id="Ellipse_12-5" data-name="Ellipse 12" transform="translate(25.633 19.018)" fill="#8ce653" stroke="#74d934" stroke-width="1">
              <ellipse cx="1.654" cy="1.654" rx="1.654" ry="1.654" stroke="none"/>
              <ellipse cx="1.654" cy="1.654" rx="1.154" ry="1.154" fill="none"/>
            </g>
            <g id="Ellipse_13-5" data-name="Ellipse 13" transform="translate(20.672 11.576)" fill="#8ce653" stroke="#74d934" stroke-width="1">
              <ellipse cx="1.654" cy="1.654" rx="1.654" ry="1.654" stroke="none"/>
              <ellipse cx="1.654" cy="1.654" rx="1.154" ry="1.154" fill="none"/>
            </g>
            <g id="Ellipse_14-5" data-name="Ellipse 14" transform="translate(27.287 0)" fill="#8ce653" stroke="#74d934" stroke-width="1">
              <ellipse cx="1.654" cy="1.654" rx="1.654" ry="1.654" stroke="none"/>
              <ellipse cx="1.654" cy="1.654" rx="1.154" ry="1.154" fill="none"/>
            </g>
          </g>
          <g id="pickle_bumps-5" data-name="pickle bumps" transform="translate(72.359 124.39) rotate(128)">
            <g id="Ellipse_1-6" data-name="Ellipse 1" transform="translate(15.711 34.729)" fill="#54a720" stroke="#4b9b18" stroke-width="1">
              <circle cx="2.067" cy="2.067" r="2.067" stroke="none"/>
              <circle cx="2.067" cy="2.067" r="1.567" fill="none"/>
            </g>
            <g id="Ellipse_2-6" data-name="Ellipse 2" transform="translate(7.442 40.517)" fill="#54a720" stroke="#4b9b18" stroke-width="1">
              <circle cx="2.067" cy="2.067" r="2.067" stroke="none"/>
              <circle cx="2.067" cy="2.067" r="1.567" fill="none"/>
            </g>
            <g id="Ellipse_3-6" data-name="Ellipse 3" transform="translate(14.884 42.998)" fill="#54a720" stroke="#4b9b18" stroke-width="1">
              <ellipse cx="1.654" cy="1.654" rx="1.654" ry="1.654" stroke="none"/>
              <ellipse cx="1.654" cy="1.654" rx="1.154" ry="1.154" fill="none"/>
            </g>
            <g id="Ellipse_4-6" data-name="Ellipse 4" transform="translate(8.269 52.094)" fill="#54a720" stroke="#4b9b18" stroke-width="1">
              <ellipse cx="1.654" cy="1.654" rx="1.654" ry="1.654" stroke="none"/>
              <ellipse cx="1.654" cy="1.654" rx="1.154" ry="1.154" fill="none"/>
            </g>
            <g id="Ellipse_5-6" data-name="Ellipse 5" transform="translate(16.538 22.326)" fill="#54a720" stroke="#4b9b18" stroke-width="1">
              <ellipse cx="1.654" cy="1.654" rx="1.654" ry="1.654" stroke="none"/>
              <ellipse cx="1.654" cy="1.654" rx="1.154" ry="1.154" fill="none"/>
            </g>
            <g id="Ellipse_6-6" data-name="Ellipse 6" transform="translate(22.326 28.941)" fill="#54a720" stroke="#4b9b18" stroke-width="1">
              <ellipse cx="1.654" cy="1.654" rx="1.654" ry="1.654" stroke="none"/>
              <ellipse cx="1.654" cy="1.654" rx="1.154" ry="1.154" fill="none"/>
            </g>
            <g id="Ellipse_7-6" data-name="Ellipse 7" transform="translate(0 53.748)" fill="#54a720" stroke="#4b9b18" stroke-width="1">
              <ellipse cx="1.654" cy="1.654" rx="1.654" ry="1.654" stroke="none"/>
              <ellipse cx="1.654" cy="1.654" rx="1.154" ry="1.154" fill="none"/>
            </g>
            <g id="Ellipse_8-6" data-name="Ellipse 8" transform="translate(4.134 61.189)" fill="#54a720" stroke="#4b9b18" stroke-width="1">
              <ellipse cx="1.654" cy="1.654" rx="1.654" ry="1.654" stroke="none"/>
              <ellipse cx="1.654" cy="1.654" rx="1.154" ry="1.154" fill="none"/>
            </g>
            <g id="Ellipse_12-6" data-name="Ellipse 12" transform="translate(25.633 19.018)" fill="#8ce653" stroke="#74d934" stroke-width="1">
              <ellipse cx="1.654" cy="1.654" rx="1.654" ry="1.654" stroke="none"/>
              <ellipse cx="1.654" cy="1.654" rx="1.154" ry="1.154" fill="none"/>
            </g>
            <g id="Ellipse_13-6" data-name="Ellipse 13" transform="translate(20.672 11.576)" fill="#8ce653" stroke="#74d934" stroke-width="1">
              <ellipse cx="1.654" cy="1.654" rx="1.654" ry="1.654" stroke="none"/>
              <ellipse cx="1.654" cy="1.654" rx="1.154" ry="1.154" fill="none"/>
            </g>
            <g id="Ellipse_14-6" data-name="Ellipse 14" transform="translate(27.287 0)" fill="#8ce653" stroke="#74d934" stroke-width="1">
              <ellipse cx="1.654" cy="1.654" rx="1.654" ry="1.654" stroke="none"/>
              <ellipse cx="1.654" cy="1.654" rx="1.154" ry="1.154" fill="none"/>
            </g>
          </g>
          <path id="pickle-7" data-name="pickle" d="M6,14.407C.919,26.9-1.147,45.752.623,60.078s17.439,24.269,15.751,6.747c-.955-9.918-1.4-17.409-.112-26.724.951-6.866,2.933-14.867,6.468-25.694C30.874-10.537,11.084,1.917,6,14.407Z" transform="translate(65.753 130.748) rotate(178)" fill="#58b41f" stroke="#479f1a" stroke-width="1"/>
          <g id="pickle_bumps-6" data-name="pickle bumps" transform="translate(32.64 73.686) rotate(-17)">
            <g id="Ellipse_1-7" data-name="Ellipse 1" transform="translate(12.765 28.217)" fill="#54a720" stroke="#4b9b18" stroke-width="1">
              <circle cx="1.68" cy="1.68" r="1.68" stroke="none"/>
              <circle cx="1.68" cy="1.68" r="1.18" fill="none"/>
            </g>
            <g id="Ellipse_2-7" data-name="Ellipse 2" transform="translate(6.047 32.92)" fill="#54a720" stroke="#4b9b18" stroke-width="1">
              <circle cx="1.68" cy="1.68" r="1.68" stroke="none"/>
              <circle cx="1.68" cy="1.68" r="1.18" fill="none"/>
            </g>
            <g id="Ellipse_3-7" data-name="Ellipse 3" transform="translate(12.093 34.936)" fill="#54a720" stroke="#4b9b18" stroke-width="1">
              <circle cx="1.344" cy="1.344" r="1.344" stroke="none"/>
              <circle cx="1.344" cy="1.344" r="0.844" fill="none"/>
            </g>
            <g id="Ellipse_4-7" data-name="Ellipse 4" transform="translate(6.718 42.326)" fill="#54a720" stroke="#4b9b18" stroke-width="1">
              <circle cx="1.344" cy="1.344" r="1.344" stroke="none"/>
              <circle cx="1.344" cy="1.344" r="0.844" fill="none"/>
            </g>
            <g id="Ellipse_5-7" data-name="Ellipse 5" transform="translate(13.437 18.14)" fill="#54a720" stroke="#4b9b18" stroke-width="1">
              <circle cx="1.344" cy="1.344" r="1.344" stroke="none"/>
              <circle cx="1.344" cy="1.344" r="0.844" fill="none"/>
            </g>
            <g id="Ellipse_6-7" data-name="Ellipse 6" transform="translate(18.14 23.515)" fill="#54a720" stroke="#4b9b18" stroke-width="1">
              <circle cx="1.344" cy="1.344" r="1.344" stroke="none"/>
              <circle cx="1.344" cy="1.344" r="0.844" fill="none"/>
            </g>
            <g id="Ellipse_7-7" data-name="Ellipse 7" transform="translate(0 43.67)" fill="#54a720" stroke="#4b9b18" stroke-width="1">
              <circle cx="1.344" cy="1.344" r="1.344" stroke="none"/>
              <circle cx="1.344" cy="1.344" r="0.844" fill="none"/>
            </g>
            <g id="Ellipse_8-7" data-name="Ellipse 8" transform="translate(3.359 49.717)" fill="#54a720" stroke="#4b9b18" stroke-width="1">
              <circle cx="1.344" cy="1.344" r="1.344" stroke="none"/>
              <circle cx="1.344" cy="1.344" r="0.844" fill="none"/>
            </g>
            <g id="Ellipse_12-7" data-name="Ellipse 12" transform="translate(20.827 15.452)" fill="#8ce653" stroke="#74d934" stroke-width="1">
              <circle cx="1.344" cy="1.344" r="1.344" stroke="none"/>
              <circle cx="1.344" cy="1.344" r="0.844" fill="none"/>
            </g>
            <g id="Ellipse_13-7" data-name="Ellipse 13" transform="translate(16.796 9.406)" fill="#8ce653" stroke="#74d934" stroke-width="1">
              <circle cx="1.344" cy="1.344" r="1.344" stroke="none"/>
              <circle cx="1.344" cy="1.344" r="0.844" fill="none"/>
            </g>
            <g id="Ellipse_14-7" data-name="Ellipse 14" transform="translate(22.171 0)" fill="#8ce653" stroke="#74d934" stroke-width="1">
              <circle cx="1.344" cy="1.344" r="1.344" stroke="none"/>
              <circle cx="1.344" cy="1.344" r="0.844" fill="none"/>
            </g>
          </g>
        </g>
      </g>
      <g id="pickle_lid" data-name="pickle lid">
        <g id="Path_7" data-name="Path 7" transform="translate(38.316 114.537)" fill="#86c458">
          <path d="M 62.79629898071289 17.89754295349121 L 7.508257389068604 17.89754295349121 C 3.643887519836426 17.89754295349121 0.499997466802597 15.5280122756958 0.499997466802597 12.61546230316162 L 0.499997466802597 5.782082557678223 C 0.499997466802597 2.869532346725464 3.643887519836426 0.5000024437904358 7.508257389068604 0.5000024437904358 L 62.79629898071289 0.5000024437904358 C 66.66065979003906 0.5000024437904358 69.80453491210938 2.869532346725464 69.80453491210938 5.782082557678223 L 69.80453491210938 12.61546230316162 C 69.80453491210938 15.5280122756958 66.66065979003906 17.89754295349121 62.79629898071289 17.89754295349121 Z" stroke="none"/>
          <path d="M 7.508258819580078 1.000001907348633 C 5.722259521484375 1.000001907348633 4.053443908691406 1.527683258056641 2.809257507324219 2.485832214355469 C 1.642539978027344 3.384312629699707 1 4.55494213104248 1 5.782082557678223 L 1 12.61546230316162 C 1 13.84260177612305 1.642539978027344 15.01323223114014 2.809257507324219 15.91171264648438 C 4.053443908691406 16.8698616027832 5.722259521484375 17.39754295349121 7.508258819580078 17.39754295349121 L 62.79629898071289 17.39754295349121 C 64.58229827880859 17.39754295349121 66.2510986328125 16.8698616027832 67.49528503417969 15.91171264648438 C 68.66199493408203 15.01323223114014 69.30453491210938 13.84260177612305 69.30453491210938 12.61546230316162 L 69.30453491210938 5.782082557678223 C 69.30453491210938 4.55494213104248 68.66199493408203 3.384312629699707 67.49528503417969 2.485822677612305 C 66.2510986328125 1.527683258056641 64.58229827880859 1.000001907348633 62.79629898071289 1.000001907348633 L 7.508258819580078 1.000001907348633 M 7.508258819580078 1.9073486328125e-06 L 62.79629898071289 1.9073486328125e-06 C 66.94298553466797 1.9073486328125e-06 70.30453491210938 2.588722229003906 70.30453491210938 5.782082557678223 L 70.30453491210938 12.61546230316162 C 70.30453491210938 15.80881214141846 66.94298553466797 18.39754295349121 62.79629898071289 18.39754295349121 L 7.508258819580078 18.39754295349121 C 3.361557006835938 18.39754295349121 0 15.80881214141846 0 12.61546230316162 L 0 5.782082557678223 C 0 2.588732719421387 3.361557006835938 1.9073486328125e-06 7.508258819580078 1.9073486328125e-06 Z" stroke="none" fill="#4ca719"/>
        </g>
        <path id="Path_9" data-name="Path 9" d="M0,0H70" transform="translate(38.5 123.5)" fill="none" stroke="#4ca719" stroke-width="1"/>
      </g>
    </g>
    <g id="carrot_jar" data-name="carrot jar">
      <g id="carrot_jar-2" data-name="carrot jar" transform="translate(138.544 103.553)">
        <g id="jar-2" data-name="jar">
          <g id="jar_contents-2" data-name="jar contents" transform="translate(0 25.633)">
            <g id="jar-3" data-name="jar" transform="translate(0 0)" fill="#f5bd55" stroke="#e39700" stroke-width="1">
              <rect width="96.775" height="164.55" rx="31" stroke="none"/>
              <rect x="0.5" y="0.5" width="95.775" height="163.55" rx="30.5" fill="none"/>
            </g>
            <g id="carrot" transform="translate(9.648 19.099) rotate(-3)">
              <path id="Path_5" data-name="Path 5" d="M1.5.334,0,77.52l16.171-.486L11.723,0Z" transform="translate(16.162 78.037) rotate(-178)" fill="#f79106" stroke="#e38420" stroke-width="1"/>
              <line id="Line_5" data-name="Line 5" x1="7.612" transform="translate(10.552 9.034)" fill="none" stroke="#e38421" stroke-width="1"/>
              <line id="Line_6" data-name="Line 6" x1="8.564" transform="translate(8.649 23.308)" fill="none" stroke="#e38421" stroke-width="1"/>
              <line id="Line_7" data-name="Line 7" x1="3.806" transform="translate(11.503 61.37)" fill="none" stroke="#e38421" stroke-width="1"/>
              <line id="Line_8" data-name="Line 8" x1="5.709" transform="translate(10.552 45.193)" fill="none" stroke="#e38421" stroke-width="1"/>
            </g>
            <g id="carrot-2" data-name="carrot" transform="translate(0.532 65.222) rotate(-11)">
              <path id="Path_5-2" data-name="Path 5" d="M1.793.4,0,92.586l19.314-.58L14,0Z" transform="translate(19.303 93.204) rotate(-178)" fill="#f79106" stroke="#e38420" stroke-width="1"/>
              <line id="Line_5-2" data-name="Line 5" x1="9.092" transform="translate(12.602 10.79)" fill="none" stroke="#e38421" stroke-width="1"/>
              <line id="Line_6-2" data-name="Line 6" x1="10.228" transform="translate(10.329 27.838)" fill="none" stroke="#e38421" stroke-width="1"/>
              <line id="Line_7-2" data-name="Line 7" x1="4.546" transform="translate(13.739 73.297)" fill="none" stroke="#e38421" stroke-width="1"/>
              <line id="Line_8-2" data-name="Line 8" x1="6.819" transform="translate(12.602 53.977)" fill="none" stroke="#e38421" stroke-width="1"/>
            </g>
            <g id="carrot-3" data-name="carrot" transform="matrix(0.996, 0.087, -0.087, 0.996, 33.634, 13.834)">
              <path id="Path_5-3" data-name="Path 5" d="M1.793.4,0,92.586l19.314-.58L14,0Z" transform="translate(19.303 93.204) rotate(-178)" fill="#f79106" stroke="#e38420" stroke-width="1"/>
              <line id="Line_5-3" data-name="Line 5" x1="9.092" transform="translate(12.602 10.79)" fill="none" stroke="#e38421" stroke-width="1"/>
              <line id="Line_6-3" data-name="Line 6" x1="10.228" transform="translate(10.329 27.838)" fill="none" stroke="#e38421" stroke-width="1"/>
              <line id="Line_7-3" data-name="Line 7" x1="4.546" transform="translate(13.739 73.297)" fill="none" stroke="#e38421" stroke-width="1"/>
              <line id="Line_8-3" data-name="Line 8" x1="6.819" transform="translate(12.602 53.977)" fill="none" stroke="#e38421" stroke-width="1"/>
            </g>
            <g id="carrot-4" data-name="carrot" transform="translate(58.975 157.483) rotate(180)">
              <path id="Path_5-4" data-name="Path 5" d="M1.436.319,0,74.171l15.473-.465L11.216,0Z" transform="translate(15.463 74.666) rotate(-178)" fill="#f79106" stroke="#e38420" stroke-width="1"/>
              <line id="Line_5-4" data-name="Line 5" x1="7.284" transform="translate(10.096 8.644)" fill="none" stroke="#e38421" stroke-width="1"/>
              <line id="Line_6-4" data-name="Line 6" x1="8.194" transform="translate(8.275 22.301)" fill="none" stroke="#e38421" stroke-width="1"/>
              <line id="Line_7-4" data-name="Line 7" x1="3.642" transform="translate(11.006 58.719)" fill="none" stroke="#e38421" stroke-width="1"/>
              <line id="Line_8-4" data-name="Line 8" x1="5.463" transform="translate(10.096 43.241)" fill="none" stroke="#e38421" stroke-width="1"/>
            </g>
            <g id="carrot-5" data-name="carrot" transform="translate(77.442 104.443) rotate(180)">
              <path id="Path_5-5" data-name="Path 5" d="M1.679.373,0,86.7l18.087-.544L13.112,0Z" transform="translate(18.076 87.283) rotate(-178)" fill="#f79106" stroke="#e38420" stroke-width="1"/>
              <line id="Line_5-5" data-name="Line 5" x1="8.514" transform="translate(11.802 10.105)" fill="none" stroke="#e38421" stroke-width="1"/>
              <line id="Line_6-5" data-name="Line 6" x1="9.579" transform="translate(9.673 26.069)" fill="none" stroke="#e38421" stroke-width="1"/>
              <line id="Line_7-5" data-name="Line 7" x1="4.257" transform="translate(12.866 68.641)" fill="none" stroke="#e38421" stroke-width="1"/>
              <line id="Line_8-5" data-name="Line 8" x1="6.386" transform="translate(11.802 50.548)" fill="none" stroke="#e38421" stroke-width="1"/>
            </g>
            <g id="carrot-6" data-name="carrot" transform="translate(73.923 29.238) rotate(15)">
              <path id="Path_5-6" data-name="Path 5" d="M1.679.373,0,86.7l18.087-.544L13.112,0Z" transform="translate(18.076 87.283) rotate(-178)" fill="#f79106" stroke="#e38420" stroke-width="1"/>
              <line id="Line_5-6" data-name="Line 5" x1="8.514" transform="translate(11.802 10.105)" fill="none" stroke="#e38421" stroke-width="1"/>
              <line id="Line_6-6" data-name="Line 6" x1="9.579" transform="translate(9.673 26.069)" fill="none" stroke="#e38421" stroke-width="1"/>
              <line id="Line_7-6" data-name="Line 7" x1="4.257" transform="translate(12.866 68.641)" fill="none" stroke="#e38421" stroke-width="1"/>
              <line id="Line_8-6" data-name="Line 8" x1="6.386" transform="translate(11.802 50.548)" fill="none" stroke="#e38421" stroke-width="1"/>
            </g>
            <g id="carrot-7" data-name="carrot" transform="matrix(0.97, -0.242, 0.242, 0.97, 50.121, 72.393)">
              <path id="Path_5-7" data-name="Path 5" d="M1.679.373,0,86.7l18.087-.544L13.112,0Z" transform="translate(18.076 87.283) rotate(-178)" fill="#f79106" stroke="#e38420" stroke-width="1"/>
              <line id="Line_5-7" data-name="Line 5" x1="8.514" transform="translate(11.802 10.105)" fill="none" stroke="#e38421" stroke-width="1"/>
              <line id="Line_6-7" data-name="Line 6" x1="9.579" transform="translate(9.673 26.069)" fill="none" stroke="#e38421" stroke-width="1"/>
              <line id="Line_7-7" data-name="Line 7" x1="4.257" transform="translate(12.866 68.641)" fill="none" stroke="#e38421" stroke-width="1"/>
              <line id="Line_8-7" data-name="Line 8" x1="6.386" transform="translate(11.802 50.548)" fill="none" stroke="#e38421" stroke-width="1"/>
            </g>
            <g id="carrot-8" data-name="carrot" transform="translate(18.896 39.531) rotate(-11)">
              <path id="Path_5-8" data-name="Path 5" d="M1.793.4,0,92.586l19.314-.58L14,0Z" transform="translate(19.303 93.204) rotate(-178)" fill="#f79106" stroke="#e38420" stroke-width="1"/>
              <line id="Line_5-8" data-name="Line 5" x1="9.092" transform="translate(12.602 10.79)" fill="none" stroke="#e38421" stroke-width="1"/>
              <line id="Line_6-8" data-name="Line 6" x1="10.228" transform="translate(10.329 27.838)" fill="none" stroke="#e38421" stroke-width="1"/>
              <line id="Line_7-8" data-name="Line 7" x1="4.546" transform="translate(13.739 73.297)" fill="none" stroke="#e38421" stroke-width="1"/>
              <line id="Line_8-8" data-name="Line 8" x1="6.819" transform="translate(12.602 53.977)" fill="none" stroke="#e38421" stroke-width="1"/>
            </g>
          </g>
        </g>
      </g>
      <g id="carrot_lid" data-name="carrot lid" transform="translate(114)">
        <g id="Path_7-2" data-name="Path 7" transform="translate(38.316 114.537)" fill="#f5bd55">
          <path d="M 62.79629898071289 17.89754295349121 L 7.508257389068604 17.89754295349121 C 3.643887519836426 17.89754295349121 0.499997466802597 15.5280122756958 0.499997466802597 12.61546230316162 L 0.499997466802597 5.782082557678223 C 0.499997466802597 2.869532346725464 3.643887519836426 0.5000024437904358 7.508257389068604 0.5000024437904358 L 62.79629898071289 0.5000024437904358 C 66.66065979003906 0.5000024437904358 69.80453491210938 2.869532346725464 69.80453491210938 5.782082557678223 L 69.80453491210938 12.61546230316162 C 69.80453491210938 15.5280122756958 66.66065979003906 17.89754295349121 62.79629898071289 17.89754295349121 Z" stroke="none"/>
          <path d="M 7.508258819580078 1.000001907348633 C 5.722259521484375 1.000001907348633 4.053443908691406 1.527683258056641 2.809257507324219 2.485832214355469 C 1.642539978027344 3.384312629699707 1 4.55494213104248 1 5.782082557678223 L 1 12.61546230316162 C 1 13.84260177612305 1.642539978027344 15.01323223114014 2.809257507324219 15.91171264648438 C 4.053443908691406 16.8698616027832 5.722259521484375 17.39754295349121 7.508258819580078 17.39754295349121 L 62.79629898071289 17.39754295349121 C 64.58229827880859 17.39754295349121 66.2510986328125 16.8698616027832 67.49528503417969 15.91171264648438 C 68.66199493408203 15.01323223114014 69.30453491210938 13.84260177612305 69.30453491210938 12.61546230316162 L 69.30453491210938 5.782082557678223 C 69.30453491210938 4.55494213104248 68.66199493408203 3.384312629699707 67.49528503417969 2.485822677612305 C 66.2510986328125 1.527683258056641 64.58229827880859 1.000001907348633 62.79629898071289 1.000001907348633 L 7.508258819580078 1.000001907348633 M 7.508258819580078 1.9073486328125e-06 L 62.79629898071289 1.9073486328125e-06 C 66.94298553466797 1.9073486328125e-06 70.30453491210938 2.588722229003906 70.30453491210938 5.782082557678223 L 70.30453491210938 12.61546230316162 C 70.30453491210938 15.80881214141846 66.94298553466797 18.39754295349121 62.79629898071289 18.39754295349121 L 7.508258819580078 18.39754295349121 C 3.361557006835938 18.39754295349121 0 15.80881214141846 0 12.61546230316162 L 0 5.782082557678223 C 0 2.588732719421387 3.361557006835938 1.9073486328125e-06 7.508258819580078 1.9073486328125e-06 Z" stroke="none" fill="#e39723"/>
        </g>
        <path id="Path_9-2" data-name="Path 9" d="M0,0H70" transform="translate(38.5 123.5)" fill="none" stroke="#e39723" stroke-width="1"/>
      </g>
    </g>
    <g id="beet_jar" data-name="beet jar">
      <g id="beets" transform="translate(221.103 105.439) rotate(-9)">
        <g id="beet_jar-2" data-name="beet jar" transform="translate(24.741 27.418) rotate(9)">
          <g id="jar-4" data-name="jar" transform="translate(0.078 0)" fill="#e05858" stroke="#c41d1d" stroke-width="1">
            <rect width="95.761" height="164.55" rx="31" stroke="none"/>
            <rect x="0.5" y="0.5" width="94.761" height="163.55" rx="30.5" fill="none"/>
          </g>
          <g id="beet" transform="translate(3.524 83.614)">
            <g id="Ellipse_15" data-name="Ellipse 15" fill="#a01616" stroke="#b51c1c" stroke-width="1">
              <ellipse cx="23.89" cy="24.265" rx="23.89" ry="24.265" stroke="none"/>
              <ellipse cx="23.89" cy="24.265" rx="23.39" ry="23.765" fill="none"/>
            </g>
            <g id="Ellipse_16" data-name="Ellipse 16" transform="translate(4.547 5.192)" fill="#a01616" stroke="#b51c1c" stroke-width="1">
              <ellipse cx="19.229" cy="19.507" rx="19.229" ry="19.507" stroke="none"/>
              <ellipse cx="19.229" cy="19.507" rx="18.729" ry="19.007" fill="none"/>
            </g>
            <g id="Ellipse_17" data-name="Ellipse 17" transform="translate(8.912 9.445)" fill="#a01616" stroke="#b51c1c" stroke-width="1">
              <ellipse cx="15.15" cy="15.225" rx="15.15" ry="15.225" stroke="none"/>
              <ellipse cx="15.15" cy="15.225" rx="14.65" ry="14.725" fill="none"/>
            </g>
            <g id="Ellipse_18" data-name="Ellipse 18" transform="translate(14.609 14.489)" fill="#a01616" stroke="#b51c1c" stroke-width="1">
              <ellipse cx="9.906" cy="10.467" rx="9.906" ry="10.467" stroke="none"/>
              <ellipse cx="9.906" cy="10.467" rx="9.406" ry="9.967" fill="none"/>
            </g>
            <g id="Ellipse_19" data-name="Ellipse 19" transform="translate(19.156 19.681)" fill="#a01616" stroke="#b51c1c" stroke-width="1">
              <ellipse cx="5.244" cy="5.709" rx="5.244" ry="5.709" stroke="none"/>
              <ellipse cx="5.244" cy="5.709" rx="4.744" ry="5.209" fill="none"/>
            </g>
            <g id="Ellipse_20" data-name="Ellipse 20" transform="translate(22.188 23.143)" fill="#ad1a1a" stroke="#b51c1c" stroke-width="1">
              <ellipse cx="2.331" cy="2.379" rx="2.331" ry="2.379" stroke="none"/>
              <ellipse cx="2.331" cy="2.379" rx="1.831" ry="1.879" fill="none"/>
            </g>
          </g>
          <g id="beet-2" data-name="beet" transform="translate(14.676 120.117)">
            <g id="Ellipse_15-2" data-name="Ellipse 15" fill="#a01616" stroke="#b51c1c" stroke-width="1">
              <ellipse cx="19.75" cy="20.059" rx="19.75" ry="20.059" stroke="none"/>
              <ellipse cx="19.75" cy="20.059" rx="19.25" ry="19.559" fill="none"/>
            </g>
            <g id="Ellipse_16-2" data-name="Ellipse 16" transform="translate(3.759 4.293)" fill="#a01616" stroke="#b51c1c" stroke-width="1">
              <ellipse cx="15.896" cy="16.126" rx="15.896" ry="16.126" stroke="none"/>
              <ellipse cx="15.896" cy="16.126" rx="15.396" ry="15.626" fill="none"/>
            </g>
            <g id="Ellipse_17-2" data-name="Ellipse 17" transform="translate(7.367 7.808)" fill="#a01616" stroke="#b51c1c" stroke-width="1">
              <ellipse cx="12.524" cy="12.586" rx="12.524" ry="12.586" stroke="none"/>
              <ellipse cx="12.524" cy="12.586" rx="12.024" ry="12.086" fill="none"/>
            </g>
            <g id="Ellipse_18-2" data-name="Ellipse 18" transform="translate(12.078 11.978)" fill="#a01616" stroke="#b51c1c" stroke-width="1">
              <ellipse cx="8.189" cy="8.653" rx="8.189" ry="8.653" stroke="none"/>
              <ellipse cx="8.189" cy="8.653" rx="7.689" ry="8.153" fill="none"/>
            </g>
            <g id="Ellipse_19-2" data-name="Ellipse 19" transform="translate(15.837 16.27)" fill="#a01616" stroke="#b51c1c" stroke-width="1">
              <ellipse cx="4.335" cy="4.72" rx="4.335" ry="4.72" stroke="none"/>
              <ellipse cx="4.335" cy="4.72" rx="3.835" ry="4.22" fill="none"/>
            </g>
            <g id="Ellipse_20-2" data-name="Ellipse 20" transform="translate(18.342 19.132)" fill="#ad1a1a" stroke="#b51c1c" stroke-width="1">
              <ellipse cx="1.927" cy="1.967" rx="1.927" ry="1.967" stroke="none"/>
              <ellipse cx="1.927" cy="1.967" rx="1.427" ry="1.467" fill="none"/>
            </g>
          </g>
          <g id="beet-3" data-name="beet" transform="translate(44.115 122.501) rotate(-25)">
            <g id="Ellipse_15-3" data-name="Ellipse 15" transform="translate(0 0)" fill="#a01616" stroke="#b51c1c" stroke-width="1">
              <ellipse cx="16.92" cy="21.479" rx="16.92" ry="21.479" stroke="none"/>
              <ellipse cx="16.92" cy="21.479" rx="16.42" ry="20.979" fill="none"/>
            </g>
            <g id="Ellipse_16-3" data-name="Ellipse 16" transform="translate(3.22 4.596)" fill="#a01616" stroke="#b51c1c" stroke-width="1">
              <ellipse cx="13.619" cy="17.267" rx="13.619" ry="17.267" stroke="none"/>
              <ellipse cx="13.619" cy="17.267" rx="13.119" ry="16.767" fill="none"/>
            </g>
            <g id="Ellipse_17-3" data-name="Ellipse 17" transform="translate(6.312 8.361)" fill="#a01616" stroke="#b51c1c" stroke-width="1">
              <ellipse cx="10.73" cy="13.477" rx="10.73" ry="13.477" stroke="none"/>
              <ellipse cx="10.73" cy="13.477" rx="10.23" ry="12.977" fill="none"/>
            </g>
            <g id="Ellipse_18-3" data-name="Ellipse 18" transform="translate(10.347 12.825)" fill="#a01616" stroke="#b51c1c" stroke-width="1">
              <ellipse cx="7.016" cy="9.265" rx="7.016" ry="9.265" stroke="none"/>
              <ellipse cx="7.016" cy="9.265" rx="6.516" ry="8.765" fill="none"/>
            </g>
            <g id="Ellipse_19-3" data-name="Ellipse 19" transform="translate(13.567 17.422)" fill="#a01616" stroke="#b51c1c" stroke-width="1">
              <ellipse cx="3.714" cy="5.054" rx="3.714" ry="5.054" stroke="none"/>
              <ellipse cx="3.714" cy="5.054" rx="3.214" ry="4.554" fill="none"/>
            </g>
            <g id="Ellipse_20-3" data-name="Ellipse 20" transform="translate(15.714 20.486)" fill="#ad1a1a" stroke="#b51c1c" stroke-width="1">
              <ellipse cx="1.651" cy="2.106" rx="1.651" ry="2.106" stroke="none"/>
              <ellipse cx="1.651" cy="2.106" rx="1.151" ry="1.606" fill="none"/>
            </g>
          </g>
          <g id="beet-4" data-name="beet" transform="translate(8.1 8.228)">
            <g id="Ellipse_15-4" data-name="Ellipse 15" fill="#a01616" stroke="#b51c1c" stroke-width="1">
              <ellipse cx="20.271" cy="20.589" rx="20.271" ry="20.589" stroke="none"/>
              <ellipse cx="20.271" cy="20.589" rx="19.771" ry="20.089" fill="none"/>
            </g>
            <g id="Ellipse_16-4" data-name="Ellipse 16" transform="translate(3.858 4.406)" fill="#a01616" stroke="#b51c1c" stroke-width="1">
              <ellipse cx="16.316" cy="16.552" rx="16.316" ry="16.552" stroke="none"/>
              <ellipse cx="16.316" cy="16.552" rx="15.816" ry="16.052" fill="none"/>
            </g>
            <g id="Ellipse_17-4" data-name="Ellipse 17" transform="translate(7.562 8.014)" fill="#a01616" stroke="#b51c1c" stroke-width="1">
              <ellipse cx="12.855" cy="12.918" rx="12.855" ry="12.918" stroke="none"/>
              <ellipse cx="12.855" cy="12.918" rx="12.355" ry="12.418" fill="none"/>
            </g>
            <g id="Ellipse_18-4" data-name="Ellipse 18" transform="translate(12.396 12.294)" fill="#a01616" stroke="#b51c1c" stroke-width="1">
              <ellipse cx="8.405" cy="8.881" rx="8.405" ry="8.881" stroke="none"/>
              <ellipse cx="8.405" cy="8.881" rx="7.905" ry="8.381" fill="none"/>
            </g>
            <g id="Ellipse_19-4" data-name="Ellipse 19" transform="translate(16.254 16.7)" fill="#a01616" stroke="#b51c1c" stroke-width="1">
              <ellipse cx="4.45" cy="4.844" rx="4.45" ry="4.844" stroke="none"/>
              <ellipse cx="4.45" cy="4.844" rx="3.95" ry="4.344" fill="none"/>
            </g>
            <g id="Ellipse_20-4" data-name="Ellipse 20" transform="translate(18.827 19.637)" fill="#ad1a1a" stroke="#b51c1c" stroke-width="1">
              <ellipse cx="1.978" cy="2.019" rx="1.978" ry="2.019" stroke="none"/>
              <ellipse cx="1.978" cy="2.019" rx="1.478" ry="1.519" fill="none"/>
            </g>
          </g>
          <g id="beet-5" data-name="beet" transform="translate(36.971 90.931) rotate(-25)">
            <g id="Ellipse_15-5" data-name="Ellipse 15" transform="translate(0 0)" fill="#a01616" stroke="#b51c1c" stroke-width="1">
              <ellipse cx="22.913" cy="19.966" rx="22.913" ry="19.966" stroke="none"/>
              <ellipse cx="22.913" cy="19.966" rx="22.413" ry="19.466" fill="none"/>
            </g>
            <g id="Ellipse_16-5" data-name="Ellipse 16" transform="translate(4.361 4.273)" fill="#a01616" stroke="#b51c1c" stroke-width="1">
              <ellipse cx="18.442" cy="16.051" rx="18.442" ry="16.051" stroke="none"/>
              <ellipse cx="18.442" cy="16.051" rx="17.942" ry="15.551" fill="none"/>
            </g>
            <g id="Ellipse_17-5" data-name="Ellipse 17" transform="translate(8.547 7.772)" fill="#a01616" stroke="#b51c1c" stroke-width="1">
              <ellipse cx="14.53" cy="12.528" rx="14.53" ry="12.528" stroke="none"/>
              <ellipse cx="14.53" cy="12.528" rx="14.03" ry="12.028" fill="none"/>
            </g>
            <g id="Ellipse_18-5" data-name="Ellipse 18" transform="translate(14.012 11.922)" fill="#a01616" stroke="#b51c1c" stroke-width="1">
              <ellipse cx="9.5" cy="8.613" rx="9.5" ry="8.613" stroke="none"/>
              <ellipse cx="9.5" cy="8.613" rx="9" ry="8.113" fill="none"/>
            </g>
            <g id="Ellipse_19-5" data-name="Ellipse 19" transform="translate(18.372 16.194)" fill="#a01616" stroke="#b51c1c" stroke-width="1">
              <ellipse cx="5.03" cy="4.698" rx="5.03" ry="4.698" stroke="none"/>
              <ellipse cx="5.03" cy="4.698" rx="4.53" ry="4.198" fill="none"/>
            </g>
            <g id="Ellipse_20-5" data-name="Ellipse 20" transform="translate(21.28 19.043)" fill="#ad1a1a" stroke="#b51c1c" stroke-width="1">
              <ellipse cx="2.235" cy="1.957" rx="2.235" ry="1.957" stroke="none"/>
              <ellipse cx="2.235" cy="1.957" rx="1.735" ry="1.457" fill="none"/>
            </g>
          </g>
          <g id="beet-6" data-name="beet" transform="translate(39.727 15.135)">
            <g id="Ellipse_15-6" data-name="Ellipse 15" fill="#a01616" stroke="#b51c1c" stroke-width="1">
              <ellipse cx="23.89" cy="24.265" rx="23.89" ry="24.265" stroke="none"/>
              <ellipse cx="23.89" cy="24.265" rx="23.39" ry="23.765" fill="none"/>
            </g>
            <g id="Ellipse_16-6" data-name="Ellipse 16" transform="translate(4.547 5.192)" fill="#a01616" stroke="#b51c1c" stroke-width="1">
              <ellipse cx="19.229" cy="19.507" rx="19.229" ry="19.507" stroke="none"/>
              <ellipse cx="19.229" cy="19.507" rx="18.729" ry="19.007" fill="none"/>
            </g>
            <g id="Ellipse_17-6" data-name="Ellipse 17" transform="translate(8.912 9.445)" fill="#a01616" stroke="#b51c1c" stroke-width="1">
              <ellipse cx="15.15" cy="15.225" rx="15.15" ry="15.225" stroke="none"/>
              <ellipse cx="15.15" cy="15.225" rx="14.65" ry="14.725" fill="none"/>
            </g>
            <g id="Ellipse_18-6" data-name="Ellipse 18" transform="translate(14.609 14.489)" fill="#a01616" stroke="#b51c1c" stroke-width="1">
              <ellipse cx="9.906" cy="10.467" rx="9.906" ry="10.467" stroke="none"/>
              <ellipse cx="9.906" cy="10.467" rx="9.406" ry="9.967" fill="none"/>
            </g>
            <g id="Ellipse_19-6" data-name="Ellipse 19" transform="translate(19.156 19.681)" fill="#a01616" stroke="#b51c1c" stroke-width="1">
              <ellipse cx="5.244" cy="5.709" rx="5.244" ry="5.709" stroke="none"/>
              <ellipse cx="5.244" cy="5.709" rx="4.744" ry="5.209" fill="none"/>
            </g>
            <g id="Ellipse_20-6" data-name="Ellipse 20" transform="translate(22.188 23.143)" fill="#ad1a1a" stroke="#b51c1c" stroke-width="1">
              <ellipse cx="2.331" cy="2.379" rx="2.331" ry="2.379" stroke="none"/>
              <ellipse cx="2.331" cy="2.379" rx="1.831" ry="1.879" fill="none"/>
            </g>
          </g>
          <g id="beet-7" data-name="beet" transform="matrix(0.891, -0.454, 0.454, 0.891, 2.524, 58.934)">
            <g id="Ellipse_15-7" data-name="Ellipse 15" transform="translate(0 0)" fill="#a01616" stroke="#b51c1c" stroke-width="1">
              <ellipse cx="19.507" cy="23.409" rx="19.507" ry="23.409" stroke="none"/>
              <ellipse cx="19.507" cy="23.409" rx="19.007" ry="22.909" fill="none"/>
            </g>
            <g id="Ellipse_16-7" data-name="Ellipse 16" transform="translate(3.713 5.192)" fill="#a01616" stroke="#b51c1c" stroke-width="1">
              <ellipse cx="15.701" cy="18.651" rx="15.701" ry="18.651" stroke="none"/>
              <ellipse cx="15.701" cy="18.651" rx="15.201" ry="18.151" fill="none"/>
            </g>
            <g id="Ellipse_17-7" data-name="Ellipse 17" transform="translate(7.276 9.445)" fill="#a01616" stroke="#b51c1c" stroke-width="1">
              <ellipse cx="12.37" cy="14.369" rx="12.37" ry="14.369" stroke="none"/>
              <ellipse cx="12.37" cy="14.369" rx="11.87" ry="13.869" fill="none"/>
            </g>
            <g id="Ellipse_18-7" data-name="Ellipse 18" transform="translate(11.929 13.59)" fill="#a01616" stroke="#b51c1c" stroke-width="1">
              <ellipse cx="8.088" cy="10.467" rx="8.088" ry="10.467" stroke="none"/>
              <ellipse cx="8.088" cy="10.467" rx="7.588" ry="9.967" fill="none"/>
            </g>
            <g id="Ellipse_19-7" data-name="Ellipse 19" transform="translate(15.642 18.774)" fill="#a01616" stroke="#b51c1c" stroke-width="1">
              <ellipse cx="4.282" cy="5.709" rx="4.282" ry="5.709" stroke="none"/>
              <ellipse cx="4.282" cy="5.709" rx="3.782" ry="5.209" fill="none"/>
            </g>
            <g id="Ellipse_20-7" data-name="Ellipse 20" transform="translate(18.117 22.238)" fill="#ad1a1a" stroke="#b51c1c" stroke-width="1">
              <ellipse cx="1.903" cy="2.379" rx="1.903" ry="2.379" stroke="none"/>
              <ellipse cx="1.903" cy="2.379" rx="1.403" ry="1.879" fill="none"/>
            </g>
          </g>
          <g id="beet-8" data-name="beet" transform="translate(55.393 53.215)">
            <g id="Ellipse_15-8" data-name="Ellipse 15" fill="#a01616" stroke="#b51c1c" stroke-width="1">
              <ellipse cx="19.117" cy="19.416" rx="19.117" ry="19.416" stroke="none"/>
              <ellipse cx="19.117" cy="19.416" rx="18.617" ry="18.916" fill="none"/>
            </g>
            <g id="Ellipse_16-8" data-name="Ellipse 16" transform="translate(3.638 4.155)" fill="#a01616" stroke="#b51c1c" stroke-width="1">
              <ellipse cx="15.387" cy="15.609" rx="15.387" ry="15.609" stroke="none"/>
              <ellipse cx="15.387" cy="15.609" rx="14.887" ry="15.109" fill="none"/>
            </g>
            <g id="Ellipse_17-8" data-name="Ellipse 17" transform="translate(7.131 7.558)" fill="#a01616" stroke="#b51c1c" stroke-width="1">
              <ellipse cx="12.123" cy="12.183" rx="12.123" ry="12.183" stroke="none"/>
              <ellipse cx="12.123" cy="12.183" rx="11.623" ry="11.683" fill="none"/>
            </g>
            <g id="Ellipse_18-8" data-name="Ellipse 18" transform="translate(11.69 11.594)" fill="#a01616" stroke="#b51c1c" stroke-width="1">
              <ellipse cx="7.926" cy="8.376" rx="7.926" ry="8.376" stroke="none"/>
              <ellipse cx="7.926" cy="8.376" rx="7.426" ry="7.876" fill="none"/>
            </g>
            <g id="Ellipse_19-8" data-name="Ellipse 19" transform="translate(15.329 15.749)" fill="#a01616" stroke="#b51c1c" stroke-width="1">
              <ellipse cx="4.196" cy="4.569" rx="4.196" ry="4.569" stroke="none"/>
              <ellipse cx="4.196" cy="4.569" rx="3.696" ry="4.069" fill="none"/>
            </g>
            <g id="Ellipse_20-8" data-name="Ellipse 20" transform="translate(17.754 18.519)" fill="#ad1a1a" stroke="#b51c1c" stroke-width="1">
              <ellipse cx="1.865" cy="1.904" rx="1.865" ry="1.904" stroke="none"/>
              <ellipse cx="1.865" cy="1.904" rx="1.365" ry="1.404" fill="none"/>
            </g>
          </g>
        </g>
      </g>
      <g id="beet_lid" data-name="beet lid" transform="translate(224 -1)">
        <g id="Path_7-3" data-name="Path 7" transform="translate(38.316 114.537)" fill="#e05858">
          <path d="M 62.79629898071289 17.89754295349121 L 7.508257389068604 17.89754295349121 C 3.643887519836426 17.89754295349121 0.499997466802597 15.5280122756958 0.499997466802597 12.61546230316162 L 0.499997466802597 5.782082557678223 C 0.499997466802597 2.869532346725464 3.643887519836426 0.5000024437904358 7.508257389068604 0.5000024437904358 L 62.79629898071289 0.5000024437904358 C 66.66065979003906 0.5000024437904358 69.80453491210938 2.869532346725464 69.80453491210938 5.782082557678223 L 69.80453491210938 12.61546230316162 C 69.80453491210938 15.5280122756958 66.66065979003906 17.89754295349121 62.79629898071289 17.89754295349121 Z" stroke="none"/>
          <path d="M 7.508258819580078 1.000001907348633 C 5.722259521484375 1.000001907348633 4.053443908691406 1.527683258056641 2.809257507324219 2.485832214355469 C 1.642539978027344 3.384312629699707 1 4.55494213104248 1 5.782082557678223 L 1 12.61546230316162 C 1 13.84260177612305 1.642539978027344 15.01323223114014 2.809257507324219 15.91171264648438 C 4.053443908691406 16.8698616027832 5.722259521484375 17.39754295349121 7.508258819580078 17.39754295349121 L 62.79629898071289 17.39754295349121 C 64.58229827880859 17.39754295349121 66.2510986328125 16.8698616027832 67.49528503417969 15.91171264648438 C 68.66199493408203 15.01323223114014 69.30453491210938 13.84260177612305 69.30453491210938 12.61546230316162 L 69.30453491210938 5.782082557678223 C 69.30453491210938 4.55494213104248 68.66199493408203 3.384312629699707 67.49528503417969 2.485822677612305 C 66.2510986328125 1.527683258056641 64.58229827880859 1.000001907348633 62.79629898071289 1.000001907348633 L 7.508258819580078 1.000001907348633 M 7.508258819580078 1.9073486328125e-06 L 62.79629898071289 1.9073486328125e-06 C 66.94298553466797 1.9073486328125e-06 70.30453491210938 2.588722229003906 70.30453491210938 5.782082557678223 L 70.30453491210938 12.61546230316162 C 70.30453491210938 15.80881214141846 66.94298553466797 18.39754295349121 62.79629898071289 18.39754295349121 L 7.508258819580078 18.39754295349121 C 3.361557006835938 18.39754295349121 0 15.80881214141846 0 12.61546230316162 L 0 5.782082557678223 C 0 2.588732719421387 3.361557006835938 1.9073486328125e-06 7.508258819580078 1.9073486328125e-06 Z" stroke="none" fill="#c41d1d"/>
        </g>
        <path id="Path_9-3" data-name="Path 9" d="M0,0H70" transform="translate(38.5 123.5)" fill="none" stroke="#c41d1d" stroke-width="1"/>
      </g>
    </g>
  </g>
</svg>
