<svg id="Layer_1" data-name="Layer 1" xmlns="http://www.w3.org/2000/svg" viewBox="0 0 252 144"><defs><style>.cls-1{fill:#ff8dbb;}.cls-2{opacity:0.74;}.cls-3{fill:#ef60a8;}.cls-4,.cls-7{fill:none;stroke-linecap:round;stroke-width:2px;}.cls-4{stroke:#ef60a8;}.cls-4,.cls-7,.cls-8{stroke-miterlimit:10;}.cls-5{fill:#ffb6d0;}.cls-6{fill:#ff66ac;}.cls-7{stroke:#ff66ac;}.cls-8{fill:#f995c2;stroke:#fff;}.cls-9{fill:#e567a3;}</style></defs><rect class="cls-1" width="252" height="144"/><path d="M102,86"/><g class="cls-2"><rect class="cls-3" x="160.52" y="39" width="62.91" height="61.33" rx="8.25"/><rect class="cls-3" x="171.85" y="56.61" width="40.25" height="26.11" rx="5.47"/><path class="cls-3" d="M189.07,67.54l-5.53,5.53L178,67.54A3.92,3.92,0,1,1,183.54,62a4.17,4.17,0,0,1,5.18-.71A4.25,4.25,0,0,1,189.07,67.54Z"/><path class="cls-3" d="M206,67.54l-5.53,5.53L195,67.54A3.92,3.92,0,1,1,200.51,62a4.17,4.17,0,0,1,5.18-.71A4.25,4.25,0,0,1,206,67.54Z"/><path class="cls-4" d="M195.61,75.17a3.49,3.49,0,0,1-7,0"/><rect class="cls-3" x="152.95" y="87.68" width="9.01" height="24.77" rx="4.5"/><rect class="cls-3" x="221.99" y="87.68" width="9.01" height="24.77" rx="4.5"/></g><rect class="cls-5" x="154.52" y="33" width="62.91" height="61.33" rx="8.25"/><rect x="165.85" y="50.61" width="40.25" height="26.11" rx="5.47"/><path class="cls-6" d="M183.07,61.54l-5.53,5.53L172,61.54A3.92,3.92,0,1,1,177.54,56a4.17,4.17,0,0,1,5.18-.71A4.25,4.25,0,0,1,183.07,61.54Z"/><path class="cls-6" d="M200,61.54l-5.53,5.53L189,61.54A3.92,3.92,0,1,1,194.51,56a4.17,4.17,0,0,1,5.18-.71A4.25,4.25,0,0,1,200,61.54Z"/><path class="cls-7" d="M189.61,69.17a3.49,3.49,0,0,1-7,0"/><rect x="146.95" y="81.68" width="9.01" height="24.77" rx="4.5"/><rect x="215.99" y="81.68" width="9.01" height="24.77" rx="4.5"/><path class="cls-8" d="M87.05,33.06"/><path d="M22.09,75.07a7.14,7.14,0,0,1-3-.54,3.25,3.25,0,0,1-1.67-1.8A8.58,8.58,0,0,1,17,69.34l.15-6.81H14.59V59.68L17.26,59l.6-4.5h3.51V59h3.78v3.57H21.37v6.78a4,4,0,0,0,.12,1.08,1.7,1.7,0,0,0,.35.67,1.37,1.37,0,0,0,.52.38,2.2,2.2,0,0,0,.6.15l2,.18v3.3Z"/><path d="M28.18,56.59q-.63,0-.63-.6V53.05a.56.56,0,0,1,.63-.63H31.6a.52.52,0,0,1,.42.18.68.68,0,0,1,.15.45V56q0,.6-.57.6Zm-.54,18.48V59h4.44V75.07Z"/><path d="M35.5,75.07V59h3.66l.78,1.65a9.19,9.19,0,0,1,2.27-1.34,7,7,0,0,1,2.8-.58,5.16,5.16,0,0,1,3.06.78,4.1,4.1,0,0,1,1.52,2.08,9.15,9.15,0,0,1,.43,2.9V75.07H45.58V65a2.62,2.62,0,0,0-.28-1.29,1.94,1.94,0,0,0-.8-.78,2.6,2.6,0,0,0-1.23-.27,4.83,4.83,0,0,0-1.21.15,5.29,5.29,0,0,0-1.11.42,7.08,7.08,0,0,0-1,.63V75.07Z"/><path d="M58.39,82.18l1.74-7.11a5.23,5.23,0,0,1-2.37-.51,4.6,4.6,0,0,1-1.7-1.46,7.17,7.17,0,0,1-1-2.35L52,59h4.62l2.55,10.89a2.7,2.7,0,0,0,.39.9,1.44,1.44,0,0,0,.51.46,2.13,2.13,0,0,0,.49.18,2.06,2.06,0,0,0,.35,0L63.82,59h4.5l-4.8,20.25-1.44,3Z"/><path d="M78.16,75.07V59h3.66l.78,1.65a12.66,12.66,0,0,1,2.29-1.35A7.4,7.4,0,0,1,88,58.69a4.68,4.68,0,0,1,2.53.63A4.08,4.08,0,0,1,92,61a12.32,12.32,0,0,1,1.6-1,12.11,12.11,0,0,1,2-.87,6.36,6.36,0,0,1,2.07-.36,5.56,5.56,0,0,1,3.07.73,3.88,3.88,0,0,1,1.58,2.07,9.86,9.86,0,0,1,.45,3.14V75.07H98.32V65A2.62,2.62,0,0,0,98,63.73a1.91,1.91,0,0,0-.79-.78A2.6,2.6,0,0,0,96,62.68a4.77,4.77,0,0,0-1.82.37,8.16,8.16,0,0,0-1.63.89c0,.2.07.39.09.58a5.68,5.68,0,0,1,0,.59v10H88.24V65A2.62,2.62,0,0,0,88,63.73a1.91,1.91,0,0,0-.79-.78,2.6,2.6,0,0,0-1.23-.27,4.91,4.91,0,0,0-1.22.15,5.29,5.29,0,0,0-1.11.42,7,7,0,0,0-1,.63V75.07Z"/><path d="M106.63,56.59q-.63,0-.63-.6V53.05a.56.56,0,0,1,.63-.63h3.42a.52.52,0,0,1,.42.18.68.68,0,0,1,.15.45V56q0,.6-.57.6Zm-.54,18.48V59h4.44V75.07Z"/><path d="M119,75.13a6.41,6.41,0,0,1-2.84-.56,3.49,3.49,0,0,1-1.66-1.71,7.06,7.06,0,0,1-.54-3V52.18h4.44v17a4.5,4.5,0,0,0,.18,1.42,1.42,1.42,0,0,0,.55.77,2.47,2.47,0,0,0,.95.33l1.23.18v3.21Z"/><path d="M130.12,75.22a10.67,10.67,0,0,1-4.26-.71,4.31,4.31,0,0,1-2.3-2.5,14.09,14.09,0,0,1-.7-5,15.31,15.31,0,0,1,.66-5.07,4.23,4.23,0,0,1,2.22-2.52,10.26,10.26,0,0,1,4.23-.72,12.49,12.49,0,0,1,3.84.48,3.5,3.5,0,0,1,2.08,1.68,7.26,7.26,0,0,1,.65,3.39,4.47,4.47,0,0,1-.65,2.56,3.51,3.51,0,0,1-1.81,1.35,8.44,8.44,0,0,1-2.76.41h-4a5.78,5.78,0,0,0,.37,2,1.92,1.92,0,0,0,1.17,1,7.52,7.52,0,0,0,2.48.32H136v2.61c-.78.16-1.64.31-2.57.46A21,21,0,0,1,130.12,75.22ZM127.21,66h3.66a2,2,0,0,0,1.32-.36,1.64,1.64,0,0,0,.42-1.29,3.09,3.09,0,0,0-.27-1.4,1.55,1.55,0,0,0-.84-.75,4.27,4.27,0,0,0-1.53-.22,3.25,3.25,0,0,0-1.62.34,2,2,0,0,0-.87,1.22A8.7,8.7,0,0,0,127.21,66Z"/><path class="cls-9" d="M22.74,94.07a1.54,1.54,0,0,1-1.09-.4,1.43,1.43,0,0,1-.42-1.1V92a1.43,1.43,0,0,1,.48-1.1,2.1,2.1,0,0,1,1.47-.44h1.51v-.4a1,1,0,0,0-.1-.46.58.58,0,0,0-.37-.26,2.76,2.76,0,0,0-.82-.09H21.63v-.94a6.93,6.93,0,0,1,1-.23A7.76,7.76,0,0,1,24,88a4.22,4.22,0,0,1,1.26.17,1.44,1.44,0,0,1,.79.61A2.21,2.21,0,0,1,26.31,90v4H25l-.27-.63a1,1,0,0,1-.26.2,3.93,3.93,0,0,1-.46.23,4.24,4.24,0,0,1-.6.19A3.27,3.27,0,0,1,22.74,94.07Zm.82-1.14.25,0,.29-.07.27-.08.21-.07.11,0V91.27l-1,.07a1,1,0,0,0-.64.22.66.66,0,0,0-.2.51v.24a.66.66,0,0,0,.09.36.51.51,0,0,0,.26.2A1,1,0,0,0,23.56,92.93Z"/><path class="cls-9" d="M27.53,94V88.09h1.26l.37.91a3.65,3.65,0,0,1,.72-.7,1.61,1.61,0,0,1,.95-.28h.25l.24,0v1.67l-.35,0a2,2,0,0,0-.34,0,2,2,0,0,0-.58.07,1.82,1.82,0,0,0-.47.21,1.75,1.75,0,0,0-.42.36V94Z"/><path class="cls-9" d="M34.54,94a2.64,2.64,0,0,1-1.1-.2,1.14,1.14,0,0,1-.61-.66,3.11,3.11,0,0,1-.17-1.24l.06-2.5h-.93v-1l1-.27L33,86.44h1.29v1.65h1.38V89.4H34.28v2.49a1.54,1.54,0,0,0,0,.4.55.55,0,0,0,.13.24.52.52,0,0,0,.19.14.59.59,0,0,0,.22,0l.75.07V94Z"/><path class="cls-9" d="M36.77,87.22c-.15,0-.23-.07-.23-.22V85.93a.2.2,0,0,1,.23-.23H38a.19.19,0,0,1,.15.06.25.25,0,0,1,.06.17V87c0,.15-.07.22-.21.22ZM36.58,94V88.09H38.2V94Z"/><path class="cls-9" d="M39.79,94V89.4H39v-1l.84-.27v-.63a2.61,2.61,0,0,1,.2-1.15,1.12,1.12,0,0,1,.6-.59,2.42,2.42,0,0,1,1-.18,7.3,7.3,0,0,1,.84,0,2.8,2.8,0,0,1,.64.14v1.18l-.44,0h-.48a.89.89,0,0,0-.43.09.51.51,0,0,0-.23.27,1.2,1.2,0,0,0-.07.46v.4h3.16V89.4H41.42V94ZM44,87.22c-.15,0-.23-.07-.23-.22V85.93A.2.2,0,0,1,44,85.7h1.26a.21.21,0,0,1,.16.06.31.31,0,0,1,0,.17V87c0,.15-.07.22-.2.22ZM43.8,94V88.09h1.63V94Z"/><path class="cls-9" d="M49,94.07a3.12,3.12,0,0,1-1-.15,1.82,1.82,0,0,1-.79-.47,2.26,2.26,0,0,1-.51-.92,4.93,4.93,0,0,1-.18-1.45,5.68,5.68,0,0,1,.16-1.5,2.26,2.26,0,0,1,.49-.94,1.79,1.79,0,0,1,.8-.49A3.56,3.56,0,0,1,49,88a8.52,8.52,0,0,1,1,.06,7.25,7.25,0,0,1,1,.21v.94H49.53a2.07,2.07,0,0,0-.81.14,1,1,0,0,0-.45.55,3.86,3.86,0,0,0-.13,1.15,3.63,3.63,0,0,0,.13,1.13.84.84,0,0,0,.46.51,2.12,2.12,0,0,0,.83.13h1.61v.93a5.74,5.74,0,0,1-.63.16c-.25,0-.5.08-.77.11S49.24,94.07,49,94.07Z"/><path class="cls-9" d="M52.27,87.22c-.15,0-.23-.07-.23-.22V85.93a.2.2,0,0,1,.23-.23h1.26a.2.2,0,0,1,.15.06.25.25,0,0,1,.06.17V87c0,.15-.07.22-.21.22ZM52.08,94V88.09H53.7V94Z"/><path class="cls-9" d="M56.21,94.07a1.54,1.54,0,0,1-1.09-.4,1.43,1.43,0,0,1-.42-1.1V92a1.43,1.43,0,0,1,.48-1.1,2.1,2.1,0,0,1,1.47-.44h1.51v-.4a1,1,0,0,0-.1-.46.58.58,0,0,0-.37-.26,2.76,2.76,0,0,0-.82-.09H55.1v-.94a7.09,7.09,0,0,1,1-.23,7.56,7.56,0,0,1,1.36-.1,4.13,4.13,0,0,1,1.26.17,1.46,1.46,0,0,1,.8.61A2.21,2.21,0,0,1,59.79,90v4H58.5l-.27-.63a.86.86,0,0,1-.26.2,3.27,3.27,0,0,1-.46.23,4.24,4.24,0,0,1-.6.19A3.19,3.19,0,0,1,56.21,94.07ZM57,92.93l.24,0,.29-.07.27-.08.21-.07.11,0V91.27l-1,.07a1,1,0,0,0-.63.22.64.64,0,0,0-.21.51v.24a.59.59,0,0,0,.1.36.45.45,0,0,0,.25.2A1,1,0,0,0,57,92.93Z"/><path class="cls-9" d="M62.85,94a2.25,2.25,0,0,1-1-.2,1.29,1.29,0,0,1-.61-.63A2.47,2.47,0,0,1,61,92.1V85.61h1.63v6.25a1.81,1.81,0,0,0,.06.52.5.5,0,0,0,.2.28.91.91,0,0,0,.35.12l.45.07V94Z"/><path class="cls-9" d="M67.49,87.22c-.16,0-.24-.07-.24-.22V85.93c0-.16.08-.23.24-.23h1.25a.18.18,0,0,1,.15.06.25.25,0,0,1,.06.17V87c0,.15-.07.22-.21.22ZM67.29,94V88.09h1.63V94Z"/><path class="cls-9" d="M70.17,94V88.09h1.34l.29.61a3.25,3.25,0,0,1,.83-.49,2.6,2.6,0,0,1,1-.21,1.91,1.91,0,0,1,1.12.28,1.49,1.49,0,0,1,.55.77,3.19,3.19,0,0,1,.16,1.06V94H73.87V90.32a1,1,0,0,0-.11-.48.71.71,0,0,0-.29-.28.93.93,0,0,0-.45-.1,2.22,2.22,0,0,0-.45.05,2.47,2.47,0,0,0-.77.39V94Z"/><path class="cls-9" d="M79,94a2.69,2.69,0,0,1-1.11-.2,1.2,1.2,0,0,1-.61-.66,3.14,3.14,0,0,1-.16-1.24l0-2.5h-.92v-1l1-.27.22-1.65h1.28v1.65h1.39V89.4H78.69v2.49a1.5,1.5,0,0,0,0,.4.67.67,0,0,0,.12.24.56.56,0,0,0,.2.14.54.54,0,0,0,.22,0l.75.07V94Z"/><path class="cls-9" d="M83.48,94.06a4,4,0,0,1-1.56-.26,1.59,1.59,0,0,1-.84-.92,5,5,0,0,1-.26-1.83,5.66,5.66,0,0,1,.24-1.86,1.55,1.55,0,0,1,.81-.92A3.73,3.73,0,0,1,83.42,88a4.51,4.51,0,0,1,1.41.17,1.27,1.27,0,0,1,.77.62A2.77,2.77,0,0,1,85.83,90a1.7,1.7,0,0,1-.23.94,1.31,1.31,0,0,1-.67.5,3,3,0,0,1-1,.14H82.44a2.22,2.22,0,0,0,.13.73.71.71,0,0,0,.43.38,2.66,2.66,0,0,0,.91.12h1.73v1c-.29.06-.6.12-1,.17A7,7,0,0,1,83.48,94.06Zm-1.07-3.4h1.34a.78.78,0,0,0,.49-.13.63.63,0,0,0,.15-.48,1.08,1.08,0,0,0-.1-.51.53.53,0,0,0-.3-.27,1.48,1.48,0,0,0-.57-.09,1.26,1.26,0,0,0-.59.13.72.72,0,0,0-.32.44A3.52,3.52,0,0,0,82.41,90.66Z"/><path class="cls-9" d="M88.75,94a2.27,2.27,0,0,1-1-.2,1.29,1.29,0,0,1-.61-.63,2.62,2.62,0,0,1-.2-1.09V85.61h1.63v6.25a1.48,1.48,0,0,0,.07.52.5.5,0,0,0,.2.28.85.85,0,0,0,.35.12l.45.07V94Z"/><path class="cls-9" d="M92.19,94a2.3,2.3,0,0,1-1-.2,1.33,1.33,0,0,1-.61-.63,2.62,2.62,0,0,1-.2-1.09V85.61H92v6.25a1.48,1.48,0,0,0,.07.52.5.5,0,0,0,.2.28.85.85,0,0,0,.35.12l.45.07V94Z"/><path class="cls-9" d="M94,87.22c-.15,0-.23-.07-.23-.22V85.93A.2.2,0,0,1,94,85.7h1.26a.19.19,0,0,1,.15.06.25.25,0,0,1,.06.17V87c0,.15-.07.22-.21.22ZM93.79,94V88.09h1.62V94Z"/><path class="cls-9" d="M98.2,96.73a2.79,2.79,0,0,1-1-.17,1.66,1.66,0,0,1-.69-.47,1.26,1.26,0,0,1-.25-.78v-.18a1.23,1.23,0,0,1,.27-.8,1.68,1.68,0,0,1,.7-.52,2.53,2.53,0,0,1,.91-.17l.49.5a1.14,1.14,0,0,0-.43.08.61.61,0,0,0-.29.23.62.62,0,0,0-.11.37v.12a.55.55,0,0,0,.22.48,1,1,0,0,0,.63.16h1.12a1.29,1.29,0,0,0,.66-.15.55.55,0,0,0,.24-.48v-.18a.58.58,0,0,0-.09-.33.53.53,0,0,0-.28-.22,1.28,1.28,0,0,0-.49-.08h-1.3A2.45,2.45,0,0,1,97,93.78a1.12,1.12,0,0,1-.48-.91,1.17,1.17,0,0,1,.26-.76,1.28,1.28,0,0,1,.72-.4,1.59,1.59,0,0,1-.56-.45,1.74,1.74,0,0,1-.3-.59,2.32,2.32,0,0,1-.09-.65,2,2,0,0,1,.27-1.08,1.63,1.63,0,0,1,.82-.64A3.77,3.77,0,0,1,99,88.09h3.21V89l-.91.16a1.37,1.37,0,0,1,.2.26,1.49,1.49,0,0,1,.17.38,2,2,0,0,1,.07.59,1.94,1.94,0,0,1-.21.91,1.48,1.48,0,0,1-.68.65,2.6,2.6,0,0,1-1.24.25H98.6a1.3,1.3,0,0,0-.48.08.34.34,0,0,0-.19.32.27.27,0,0,0,.16.26.86.86,0,0,0,.36.07h1.63a3.23,3.23,0,0,1,1.15.18,1.45,1.45,0,0,1,.73.57,1.84,1.84,0,0,1,.25,1v.17a1.76,1.76,0,0,1-.55,1.37,2.45,2.45,0,0,1-1.69.5ZM98.84,91h.62a1,1,0,0,0,.52-.1.53.53,0,0,0,.26-.29,1.09,1.09,0,0,0,.07-.42,1.13,1.13,0,0,0-.09-.49.59.59,0,0,0-.27-.27,1.16,1.16,0,0,0-.44-.07h-.62a1,1,0,0,0-.63.18.8.8,0,0,0-.21.63.86.86,0,0,0,.2.63A.77.77,0,0,0,98.84,91Z"/><path class="cls-9" d="M103.27,87.22c-.16,0-.23-.07-.23-.22V85.93c0-.16.07-.23.23-.23h1.25a.21.21,0,0,1,.16.06.31.31,0,0,1,0,.17V87c0,.15-.07.22-.21.22Zm-.2,6.78V88.09h1.63V94Z"/><path class="cls-9" d="M108.44,94.06a3.89,3.89,0,0,1-1.56-.26,1.64,1.64,0,0,1-.85-.92,5.26,5.26,0,0,1-.25-1.83,5.66,5.66,0,0,1,.24-1.86,1.55,1.55,0,0,1,.81-.92,3.7,3.7,0,0,1,1.55-.26,4.51,4.51,0,0,1,1.41.17,1.3,1.3,0,0,1,.77.62,2.77,2.77,0,0,1,.23,1.24,1.7,1.7,0,0,1-.23.94,1.31,1.31,0,0,1-.67.5,3.08,3.08,0,0,1-1,.14h-1.49a2.19,2.19,0,0,0,.14.73.71.71,0,0,0,.43.38,2.66,2.66,0,0,0,.91.12h1.72v1c-.28.06-.6.12-.94.17A7,7,0,0,1,108.44,94.06Zm-1.07-3.4h1.34a.82.82,0,0,0,.49-.13.63.63,0,0,0,.15-.48,1.08,1.08,0,0,0-.1-.51.52.52,0,0,0-.31-.27,1.42,1.42,0,0,0-.56-.09,1.23,1.23,0,0,0-.59.13.72.72,0,0,0-.32.44A3.13,3.13,0,0,0,107.37,90.66Z"/><path class="cls-9" d="M111.86,94V88.09h1.34l.29.61a3.25,3.25,0,0,1,.83-.49,2.6,2.6,0,0,1,1-.21,1.91,1.91,0,0,1,1.12.28,1.49,1.49,0,0,1,.55.77,3.19,3.19,0,0,1,.16,1.06V94h-1.62V90.32a1,1,0,0,0-.11-.48.71.71,0,0,0-.29-.28.93.93,0,0,0-.45-.1,2.22,2.22,0,0,0-.45.05,2.05,2.05,0,0,0-.41.16,2,2,0,0,0-.36.23V94Z"/><path class="cls-9" d="M120.7,94.07a3.12,3.12,0,0,1-1-.15,1.82,1.82,0,0,1-.79-.47,2.26,2.26,0,0,1-.51-.92,4.93,4.93,0,0,1-.18-1.45,5.68,5.68,0,0,1,.16-1.5,2.26,2.26,0,0,1,.49-.94,1.74,1.74,0,0,1,.8-.49,3.51,3.51,0,0,1,1.07-.14,8.23,8.23,0,0,1,1,.06,7,7,0,0,1,1,.21v.94h-1.55a2,2,0,0,0-.81.14.94.94,0,0,0-.45.55,3.86,3.86,0,0,0-.13,1.15,3.63,3.63,0,0,0,.13,1.13.85.85,0,0,0,.45.51,2.16,2.16,0,0,0,.83.13h1.62v.93a5.41,5.41,0,0,1-.64.16c-.24,0-.49.08-.76.11S121,94.07,120.7,94.07Z"/><path class="cls-9" d="M126.28,94.06a4,4,0,0,1-1.56-.26,1.59,1.59,0,0,1-.84-.92,5,5,0,0,1-.26-1.83,5.66,5.66,0,0,1,.24-1.86,1.55,1.55,0,0,1,.81-.92,3.73,3.73,0,0,1,1.55-.26,4.51,4.51,0,0,1,1.41.17,1.3,1.3,0,0,1,.77.62,2.77,2.77,0,0,1,.23,1.24,1.7,1.7,0,0,1-.23.94,1.31,1.31,0,0,1-.67.5,3,3,0,0,1-1,.14h-1.49a2.48,2.48,0,0,0,.14.73.71.71,0,0,0,.43.38,2.66,2.66,0,0,0,.91.12h1.72v1c-.28.06-.59.12-.94.17A7,7,0,0,1,126.28,94.06Zm-1.07-3.4h1.34a.8.8,0,0,0,.49-.13.63.63,0,0,0,.15-.48,1.08,1.08,0,0,0-.1-.51.53.53,0,0,0-.3-.27,1.48,1.48,0,0,0-.57-.09,1.26,1.26,0,0,0-.59.13.72.72,0,0,0-.32.44A3.52,3.52,0,0,0,125.21,90.66Z"/></svg>