<svg xmlns="http://www.w3.org/2000/svg" xmlns:xlink="http://www.w3.org/1999/xlink" width="2700" height="452" viewBox="0 0 2700 452">
  <defs>
    <clipPath id="clip-Title">
      <rect width="2700" height="452"/>
    </clipPath>
  </defs>
  <g id="Title" clip-path="url(#clip-Title)">
    <rect width="2700" height="452" fill="#eaeaea"/>
    <g id="Title-2" data-name="Title" transform="translate(26 -20.797)">
      <path id="peachy_plant" data-name="peachy plant" d="M9.6-95.04h18q15.36,0,20.16,1.2a23.585,23.585,0,0,1,8.82,4.32,21.829,21.829,0,0,1,6.3,7.8,23.8,23.8,0,0,1,2.28,10.56A24.341,24.341,0,0,1,62.94-60.6a20.29,20.29,0,0,1-6.36,7.74,25.714,25.714,0,0,1-10.14,4.32q-6,1.26-21.24,1.26H19.92V-7.2H9.6Zm10.32,37.8H33.6q12.12.24,16.5-3.84a13.36,13.36,0,0,0,4.38-10.2q0-13.68-20.16-13.68H19.92ZM143.76-38.16H86.4q.6,10.8,7.26,17.34a21.9,21.9,0,0,0,15.9,6.54q15.72,0,24-15.48l8.4,4.32Q136.32-15,128.64-10.02T110.28-5.04q-14.76,0-24.36-10.14a34.25,34.25,0,0,1-9.6-24.42,34.342,34.342,0,0,1,9.66-24.48,31.644,31.644,0,0,1,23.94-10.2q14.28,0,23.88,9.66T143.76-38.16Zm-11.04-8.76A21.075,21.075,0,0,0,124.56-60a24.051,24.051,0,0,0-14.64-4.68q-16.8,0-22.32,17.76ZM222.48-7.2h-9.72v-9.6Q202.08-5.04,188.16-5.04A31.914,31.914,0,0,1,164.34-15.3a34.03,34.03,0,0,1-9.9-24.48,33.52,33.52,0,0,1,9.96-24.36,32.767,32.767,0,0,1,24.3-10.14q14.34,0,24.06,11.64V-72.6h9.72Zm-33.6-7.08a23.429,23.429,0,0,0,17.16-7.2,24.349,24.349,0,0,0,7.2-17.94,24.769,24.769,0,0,0-7.08-18,23.286,23.286,0,0,0-17.34-7.26,22.926,22.926,0,0,0-17.34,7.5,24.93,24.93,0,0,0-7.08,17.7,24.711,24.711,0,0,0,7.2,17.7A23.106,23.106,0,0,0,188.88-14.28Zm114.36-6.24A33.39,33.39,0,0,1,289.74-9a41.564,41.564,0,0,1-18.06,3.96q-15.12,0-25.26-9.96a32.836,32.836,0,0,1-10.14-24.36,33.723,33.723,0,0,1,10.2-24.66q10.2-10.26,26.4-10.26a37.875,37.875,0,0,1,17.7,4.2,31.254,31.254,0,0,1,12.66,11.76l-7.8,4.92q-8.76-11.4-22.92-11.4a26.218,26.218,0,0,0-18.72,7.14,23.364,23.364,0,0,0-7.56,17.7,24.918,24.918,0,0,0,7.44,18.12q7.44,7.56,18.84,7.56,13.68,0,23.04-11.52ZM374.28-7.2h-9.96V-38.4a103.146,103.146,0,0,0-.54-12.84,19.376,19.376,0,0,0-2.46-7.02,12.911,12.911,0,0,0-5.22-5.04,16.778,16.778,0,0,0-7.92-1.74,19.033,19.033,0,0,0-8.82,2.16,21.588,21.588,0,0,0-7.2,6,22.539,22.539,0,0,0-4.14,8.16q-1.14,4.32-1.14,17.28V-7.2h-9.96v-90h9.96v34.44q9.72-11.52,23.04-11.52a23.445,23.445,0,0,1,12.84,3.66,22.623,22.623,0,0,1,8.64,10.08q2.88,6.42,2.88,19.74Zm71.64-65.4L407.16,15.96H396.84l12.6-28.8L382.92-72.6h10.32l21.48,47.88L435.48-72.6Zm39.84-22.44h18q15.36,0,20.16,1.2a23.585,23.585,0,0,1,8.82,4.32,21.828,21.828,0,0,1,6.3,7.8,23.8,23.8,0,0,1,2.28,10.56A24.34,24.34,0,0,1,539.1-60.6a20.29,20.29,0,0,1-6.36,7.74,25.714,25.714,0,0,1-10.14,4.32q-6,1.26-21.24,1.26h-5.28V-7.2H485.76Zm10.32,37.8h13.68q12.12.24,16.5-3.84a13.361,13.361,0,0,0,4.38-10.2q0-13.68-20.16-13.68h-14.4ZM564.12-7.2h-9.84v-90h9.84Zm80.52,0h-9.72v-9.6Q624.24-5.04,610.32-5.04A31.914,31.914,0,0,1,586.5-15.3a34.031,34.031,0,0,1-9.9-24.48,33.52,33.52,0,0,1,9.96-24.36,32.767,32.767,0,0,1,24.3-10.14q14.34,0,24.06,11.64V-72.6h9.72Zm-33.6-7.08a23.429,23.429,0,0,0,17.16-7.2,24.349,24.349,0,0,0,7.2-17.94,24.769,24.769,0,0,0-7.08-18,23.286,23.286,0,0,0-17.34-7.26,22.926,22.926,0,0,0-17.34,7.5,24.93,24.93,0,0,0-7.08,17.7,24.711,24.711,0,0,0,7.2,17.7A23.106,23.106,0,0,0,611.04-14.28ZM718.8-7.2h-9.84V-38.4q0-10.8-1.02-14.7a19.3,19.3,0,0,0-3-6.6,12.078,12.078,0,0,0-5.04-4.02,18.755,18.755,0,0,0-7.44-1.32,18.562,18.562,0,0,0-8.58,2.16,21.589,21.589,0,0,0-7.2,6,22.54,22.54,0,0,0-4.14,8.16q-1.14,4.32-1.14,17.28V-7.2h-9.96V-72.6h9.96v9.84q9.72-11.52,23.04-11.52a23.445,23.445,0,0,1,12.84,3.66,22.623,22.623,0,0,1,8.64,10.08q2.88,6.42,2.88,19.74Zm45.96-56.76H751.8v45.84q0,2.52.72,3.06t3.6.54h5.76V-6a57.942,57.942,0,0,1-8.76.96q-5.76,0-8.52-2.82t-2.76-8.94V-63.96H730.56V-72.6h11.28V-97.2h9.96v24.6h12.96ZM865.68-42.24q0,13.32-2.7,20.46a25.339,25.339,0,0,1-9.6,11.94,27.553,27.553,0,0,1-16.14,4.8,35.434,35.434,0,0,1-13.2-2.34,26.111,26.111,0,0,1-9.78-6.6,25.5,25.5,0,0,1-5.58-9.48Q807-28.68,807-42.24v-52.8h10.32v52.8a109.918,109.918,0,0,0,.48,12.3,17.508,17.508,0,0,0,2.76,7.32,15.926,15.926,0,0,0,6.54,5.64,21.561,21.561,0,0,0,9.66,2.1,17.45,17.45,0,0,0,11.22-3.78,16.99,16.99,0,0,0,6.12-8.76q1.38-4.98,1.38-14.82v-52.8h10.2ZM894.36-7.2H884.04V-95.04h10.32Zm108.84,0H989.52l-36.6-38.88V-7.2H942.36V-95.04h10.56v31.2l33.12-31.2h14.16L957.84-55.56Zm12.48-90a7.422,7.422,0,0,1,5.46,2.22,7.35,7.35,0,0,1,2.22,5.4,7.35,7.35,0,0,1-2.22,5.4,7.35,7.35,0,0,1-5.4,2.22,7.254,7.254,0,0,1-5.4-2.28,7.411,7.411,0,0,1-2.22-5.34,7.411,7.411,0,0,1,2.22-5.34A7.186,7.186,0,0,1,1015.68-97.2Zm5.04,90h-9.96V-72.6h9.96Zm45.36-56.76h-12.96v45.84q0,2.52.72,3.06t3.6.54h5.76V-6a57.941,57.941,0,0,1-8.76.96q-5.76,0-8.52-2.82t-2.76-8.94V-63.96h-11.28V-72.6h11.28V-97.2h9.96v24.6h12.96Z" transform="translate(105.5 249.333)" fill="#7c7c7c"/>
      <path id="author" d="M4.32-42.768h8.424q8.532,0,12.42,1.269a17.631,17.631,0,0,1,6.723,3.942,17.761,17.761,0,0,1,4.347,6.507,24.025,24.025,0,0,1,1.512,8.856,20.8,20.8,0,0,1-2.241,9.477,16.8,16.8,0,0,1-6.372,6.966Q25-3.24,17.064-3.24H4.32ZM8.8-7.668h4.1a50.536,50.536,0,0,0,9.99-.7,12.365,12.365,0,0,0,5.454-2.7,13,13,0,0,0,3.537-4.887A17.086,17.086,0,0,0,33.1-22.626a16.992,16.992,0,0,0-1.431-6.993,13.255,13.255,0,0,0-4.077-5.238,14.486,14.486,0,0,0-6.21-2.7,58.477,58.477,0,0,0-10.206-.675H8.8Zm64.1-9.5H47.088a11.378,11.378,0,0,0,3.267,7.8A9.856,9.856,0,0,0,57.51-6.426q7.074,0,10.8-6.966l3.78,1.944A18.475,18.475,0,0,1,66.1-4.509a14.852,14.852,0,0,1-8.262,2.241A14.444,14.444,0,0,1,46.872-6.831a15.413,15.413,0,0,1-4.32-10.989A15.454,15.454,0,0,1,46.9-28.836a14.24,14.24,0,0,1,10.773-4.59,14.54,14.54,0,0,1,10.746,4.347Q72.738-24.732,72.9-17.172Zm-4.968-3.942A9.484,9.484,0,0,0,64.26-27a10.823,10.823,0,0,0-6.588-2.106q-7.56,0-10.044,7.992Zm26.406-8.1-2.862,2.97q-3.186-2.97-5.832-2.97a3.97,3.97,0,0,0-2.808,1.053A3.4,3.4,0,0,0,81.7-25.569a3.559,3.559,0,0,0,1.269,2.7,23.041,23.041,0,0,0,4.509,2.862,16.691,16.691,0,0,1,5,3.753,7.461,7.461,0,0,1,1.755,5.022A8.616,8.616,0,0,1,91.611-4.86a8.816,8.816,0,0,1-6.453,2.592A10.905,10.905,0,0,1,76.248-6.8l2.808-3.132q2.916,3.4,5.94,3.4a4.984,4.984,0,0,0,3.51-1.35,4.179,4.179,0,0,0,1.458-3.159,3.938,3.938,0,0,0-1.323-3.024A21.193,21.193,0,0,0,84.105-16.9a15.092,15.092,0,0,1-4.86-3.591A7.818,7.818,0,0,1,77.6-25.677a7.34,7.34,0,0,1,2.349-5.481,8.563,8.563,0,0,1,6.21-2.268Q90.018-33.426,94.338-29.214Zm7.29-14.526a3.34,3.34,0,0,1,2.457,1,3.308,3.308,0,0,1,1,2.43,3.308,3.308,0,0,1-1,2.43,3.308,3.308,0,0,1-2.43,1,3.264,3.264,0,0,1-2.43-1.026,3.335,3.335,0,0,1-1-2.4,3.335,3.335,0,0,1,1-2.4A3.234,3.234,0,0,1,101.628-43.74ZM103.9-3.24H99.414V-32.67H103.9Zm36.288-6.912a27.631,27.631,0,0,1-1,8.64,12.1,12.1,0,0,1-3.024,4.752,13.294,13.294,0,0,1-4.86,2.943,18.654,18.654,0,0,1-6.237,1q-11.5,0-15.336-9.72h4.752q3.132,5.616,10.422,5.616a13.45,13.45,0,0,0,5.994-1.3,7.794,7.794,0,0,0,3.726-3.456,15.537,15.537,0,0,0,1.08-6.642v-.27a13.812,13.812,0,0,1-5.076,3.618,15.806,15.806,0,0,1-6.156,1.242A14.342,14.342,0,0,1,113.805-8.1a14.045,14.045,0,0,1-4.239-10.314,14.067,14.067,0,0,1,4.482-10.611,14.943,14.943,0,0,1,10.773-4.4A14.317,14.317,0,0,1,135.7-28.35v-4.32h4.482Zm-4.32-8.262a10.248,10.248,0,0,0-3.1-7.668,10.464,10.464,0,0,0-7.587-3.024,10.724,10.724,0,0,0-7.965,3.267,10.493,10.493,0,0,0-3.213,7.587,9.823,9.823,0,0,0,3.078,7.317,10.831,10.831,0,0,0,7.884,3,10.848,10.848,0,0,0,7.857-2.943A10.01,10.01,0,0,0,135.864-18.414ZM172.908-3.24H168.48V-17.28a31.022,31.022,0,0,0-.459-6.615,8.686,8.686,0,0,0-1.35-2.97,5.435,5.435,0,0,0-2.268-1.809,8.44,8.44,0,0,0-3.348-.594,8.353,8.353,0,0,0-3.861.972,9.715,9.715,0,0,0-3.24,2.7,10.142,10.142,0,0,0-1.863,3.672,37.247,37.247,0,0,0-.513,7.776V-3.24H147.1V-32.67h4.482v4.428q4.374-5.184,10.368-5.184a10.55,10.55,0,0,1,5.778,1.647,10.18,10.18,0,0,1,3.888,4.536q1.3,2.889,1.3,8.883Zm36.126-13.932H183.222a11.378,11.378,0,0,0,3.267,7.8,9.856,9.856,0,0,0,7.155,2.943q7.074,0,10.8-6.966l3.78,1.944a18.475,18.475,0,0,1-5.994,6.939,14.852,14.852,0,0,1-8.262,2.241,14.444,14.444,0,0,1-10.962-4.563,15.413,15.413,0,0,1-4.32-10.989,15.454,15.454,0,0,1,4.347-11.016,14.24,14.24,0,0,1,10.773-4.59,14.54,14.54,0,0,1,10.746,4.347Q208.872-24.732,209.034-17.172Zm-4.968-3.942A9.484,9.484,0,0,0,200.394-27a10.823,10.823,0,0,0-6.588-2.106q-7.56,0-10.044,7.992Zm23.49-11.124-2.322,3.78a3.8,3.8,0,0,0-1.782-.486,3.885,3.885,0,0,0-3.024,1.647,10.957,10.957,0,0,0-2.025,4.32,45.8,45.8,0,0,0-.675,9.639v10.1h-4.536V-32.67h4.536v3.186a11.384,11.384,0,0,1,2.727-2.97,5.3,5.3,0,0,1,3.132-.972A8.579,8.579,0,0,1,227.556-32.238Zm45.306,29h-6.156l-16.47-17.5v17.5h-4.752V-42.768h4.752v14.04l14.9-14.04h6.372L252.45-25Zm33.264,0h-4.374V-7.56q-4.806,5.292-11.07,5.292a14.361,14.361,0,0,1-10.719-4.617A15.314,15.314,0,0,1,275.508-17.9a15.084,15.084,0,0,1,4.482-10.962,14.745,14.745,0,0,1,10.935-4.563,13.568,13.568,0,0,1,10.827,5.238V-32.67h4.374Zm-15.12-3.186a10.543,10.543,0,0,0,7.722-3.24,10.957,10.957,0,0,0,3.24-8.073,11.146,11.146,0,0,0-3.186-8.1,10.479,10.479,0,0,0-7.8-3.267,10.317,10.317,0,0,0-7.8,3.375,11.219,11.219,0,0,0-3.186,7.965A11.12,11.12,0,0,0,283.23-9.8,10.4,10.4,0,0,0,291.006-6.426ZM327.24-28.782h-5.832V-8.154q0,1.134.324,1.377a3.268,3.268,0,0,0,1.62.243h2.592V-2.7A26.074,26.074,0,0,1,322-2.268a5.155,5.155,0,0,1-3.834-1.269,5.579,5.579,0,0,1-1.242-4.023V-28.782H311.85V-32.67h5.076V-43.74h4.482v11.07h5.832ZM357.8-3.24h-4.482V-17.28a46.41,46.41,0,0,0-.243-5.778,8.718,8.718,0,0,0-1.107-3.159,5.81,5.81,0,0,0-2.349-2.268,7.55,7.55,0,0,0-3.564-.783,8.564,8.564,0,0,0-3.969.972,9.715,9.715,0,0,0-3.24,2.7,10.143,10.143,0,0,0-1.863,3.672,37.246,37.246,0,0,0-.513,7.776V-3.24h-4.482v-40.5h4.482v15.5q4.374-5.184,10.368-5.184a10.55,10.55,0,0,1,5.778,1.647,10.18,10.18,0,0,1,3.888,4.536q1.3,2.889,1.3,8.883ZM393.93-17.172H368.118a11.379,11.379,0,0,0,3.267,7.8,9.856,9.856,0,0,0,7.155,2.943q7.074,0,10.8-6.966l3.78,1.944a18.475,18.475,0,0,1-5.994,6.939,14.852,14.852,0,0,1-8.262,2.241A14.443,14.443,0,0,1,367.9-6.831a15.413,15.413,0,0,1-4.32-10.989,15.454,15.454,0,0,1,4.347-11.016,14.24,14.24,0,0,1,10.773-4.59,14.54,14.54,0,0,1,10.746,4.347Q393.768-24.732,393.93-17.172Zm-4.968-3.942A9.484,9.484,0,0,0,385.29-27a10.823,10.823,0,0,0-6.588-2.106q-7.56,0-10.044,7.992Zm23.49-11.124-2.322,3.78a3.8,3.8,0,0,0-1.782-.486,3.885,3.885,0,0,0-3.024,1.647,10.957,10.957,0,0,0-2.025,4.32,45.8,45.8,0,0,0-.675,9.639v10.1h-4.536V-32.67h4.536v3.186a11.383,11.383,0,0,1,2.727-2.97,5.3,5.3,0,0,1,3.132-.972A8.579,8.579,0,0,1,412.452-32.238Zm5.508-11.5a3.34,3.34,0,0,1,2.457,1,3.308,3.308,0,0,1,1,2.43,3.308,3.308,0,0,1-1,2.43,3.308,3.308,0,0,1-2.43,1,3.264,3.264,0,0,1-2.43-1.026,3.335,3.335,0,0,1-1-2.4,3.335,3.335,0,0,1,1-2.4A3.234,3.234,0,0,1,417.96-43.74Zm2.268,40.5h-4.482V-32.67h4.482Zm32.67,0H448.47V-17.28a31.022,31.022,0,0,0-.459-6.615,8.686,8.686,0,0,0-1.35-2.97,5.435,5.435,0,0,0-2.268-1.809,8.44,8.44,0,0,0-3.348-.594,8.353,8.353,0,0,0-3.861.972,9.715,9.715,0,0,0-3.24,2.7,10.143,10.143,0,0,0-1.863,3.672,37.246,37.246,0,0,0-.513,7.776V-3.24h-4.482V-32.67h4.482v4.428q4.374-5.184,10.368-5.184a10.55,10.55,0,0,1,5.778,1.647,10.18,10.18,0,0,1,3.888,4.536q1.3,2.889,1.3,8.883Zm36.126-13.932H463.212a11.379,11.379,0,0,0,3.267,7.8,9.856,9.856,0,0,0,7.155,2.943q7.074,0,10.8-6.966l3.78,1.944a18.475,18.475,0,0,1-5.994,6.939,14.852,14.852,0,0,1-8.262,2.241A14.443,14.443,0,0,1,463-6.831a15.413,15.413,0,0,1-4.32-10.989,15.454,15.454,0,0,1,4.347-11.016,14.24,14.24,0,0,1,10.773-4.59,14.54,14.54,0,0,1,10.746,4.347Q488.862-24.732,489.024-17.172Zm-4.968-3.942A9.484,9.484,0,0,0,480.384-27a10.823,10.823,0,0,0-6.588-2.106q-7.56,0-10.044,7.992Zm41.688-3.78a12.068,12.068,0,0,1,5.7,4,10.065,10.065,0,0,1,1.917,6.156,10.657,10.657,0,0,1-3.591,8.235A13.383,13.383,0,0,1,520.4-3.24h-11.07V-42.768h8.046q6.264,0,9.531,2.565a8.757,8.757,0,0,1,3.267,7.317A8.935,8.935,0,0,1,525.744-24.894Zm-11.826-1.674h1.836q4.86,0,7.263-1.512a5.258,5.258,0,0,0,2.4-4.806q0-5.346-7.4-5.346h-4.1Zm0,18.792h4.428a16.493,16.493,0,0,0,6.048-.81,6.816,6.816,0,0,0,3.024-2.484,6.009,6.009,0,0,0,1.134-3.4,6.623,6.623,0,0,0-.675-3.051,7.01,7.01,0,0,0-2-2.349,9.029,9.029,0,0,0-3.24-1.539,31.211,31.211,0,0,0-6.939-.513h-1.782ZM543.51-3.24h-4.428v-40.5h4.428Zm36.234,0H575.37V-7.56q-4.806,5.292-11.07,5.292a14.361,14.361,0,0,1-10.719-4.617A15.314,15.314,0,0,1,549.126-17.9a15.084,15.084,0,0,1,4.482-10.962,14.745,14.745,0,0,1,10.935-4.563,13.568,13.568,0,0,1,10.827,5.238V-32.67h4.374Zm-15.12-3.186a10.543,10.543,0,0,0,7.722-3.24,10.957,10.957,0,0,0,3.24-8.073,11.146,11.146,0,0,0-3.186-8.1,10.479,10.479,0,0,0-7.8-3.267,10.317,10.317,0,0,0-7.8,3.375,11.219,11.219,0,0,0-3.186,7.965,11.12,11.12,0,0,0,3.24,7.965A10.4,10.4,0,0,0,564.624-6.426ZM602.64-29.214l-2.862,2.97q-3.186-2.97-5.832-2.97a3.97,3.97,0,0,0-2.808,1.053A3.4,3.4,0,0,0,590-25.569a3.559,3.559,0,0,0,1.269,2.7,23.042,23.042,0,0,0,4.509,2.862,16.691,16.691,0,0,1,4.995,3.753,7.461,7.461,0,0,1,1.755,5.022,8.616,8.616,0,0,1-2.619,6.372,8.816,8.816,0,0,1-6.453,2.592A10.905,10.905,0,0,1,584.55-6.8l2.808-3.132q2.916,3.4,5.94,3.4a4.984,4.984,0,0,0,3.51-1.35,4.179,4.179,0,0,0,1.458-3.159,3.938,3.938,0,0,0-1.323-3.024,21.193,21.193,0,0,0-4.536-2.835,15.093,15.093,0,0,1-4.86-3.591,7.818,7.818,0,0,1-1.647-5.184,7.34,7.34,0,0,1,2.349-5.481,8.563,8.563,0,0,1,6.21-2.268Q598.32-33.426,602.64-29.214ZM651.888-3.24h-4.536V-19.278a24.689,24.689,0,0,0-.459-5.616,5.5,5.5,0,0,0-2-3,6.347,6.347,0,0,0-4.05-1.215,7.858,7.858,0,0,0-4.725,1.62,8.359,8.359,0,0,0-3.078,4.4,29.544,29.544,0,0,0-.864,8.235V-3.24H627.8V-18.306a30.985,30.985,0,0,0-.459-6.372,5.6,5.6,0,0,0-2.025-3.186,6.146,6.146,0,0,0-3.942-1.242,7.762,7.762,0,0,0-4.509,1.485,8.906,8.906,0,0,0-3.159,3.888q-1.026,2.4-1.026,7.965V-3.24h-4.428V-32.67h4.428v4.158a11.489,11.489,0,0,1,9.45-4.914,9.972,9.972,0,0,1,5.589,1.647,9.038,9.038,0,0,1,3.591,4.671,13.071,13.071,0,0,1,4.59-4.7,11.323,11.323,0,0,1,5.832-1.62,9.784,9.784,0,0,1,7.182,2.97q2.97,2.97,2.97,11.178Zm36.342,0h-4.374V-7.56q-4.806,5.292-11.07,5.292a14.361,14.361,0,0,1-10.719-4.617A15.314,15.314,0,0,1,657.612-17.9a15.084,15.084,0,0,1,4.482-10.962,14.745,14.745,0,0,1,10.935-4.563,13.568,13.568,0,0,1,10.827,5.238V-32.67h4.374ZM673.11-6.426a10.543,10.543,0,0,0,7.722-3.24,10.957,10.957,0,0,0,3.24-8.073,11.146,11.146,0,0,0-3.186-8.1,10.479,10.479,0,0,0-7.8-3.267,10.317,10.317,0,0,0-7.8,3.375,11.219,11.219,0,0,0-3.186,7.965,11.12,11.12,0,0,0,3.24,7.965A10.4,10.4,0,0,0,673.11-6.426ZM721.6-3.24h-4.428V-17.28a31.024,31.024,0,0,0-.459-6.615,8.686,8.686,0,0,0-1.35-2.97,5.436,5.436,0,0,0-2.268-1.809,8.44,8.44,0,0,0-3.348-.594,8.353,8.353,0,0,0-3.861.972,9.716,9.716,0,0,0-3.24,2.7,10.143,10.143,0,0,0-1.863,3.672,37.248,37.248,0,0,0-.513,7.776V-3.24H695.79V-32.67h4.482v4.428q4.374-5.184,10.368-5.184a10.55,10.55,0,0,1,5.778,1.647,10.181,10.181,0,0,1,3.888,4.536q1.3,2.889,1.3,8.883Z" transform="translate(105.5 334.279)" fill="#9d9d9d"/>
    </g>
    <path id="Path_36" data-name="Path 36" d="M50.82-4.2H44.45L36.54-21.35H15.4L7.56-4.2H.91L25.13-57.47h1.82ZM33.81-27.44,26.04-44.73,18.2-27.44ZM94.64-4.2H88.97V-9.8Q82.74-2.94,74.62-2.94A18.616,18.616,0,0,1,60.725-8.925,19.851,19.851,0,0,1,54.95-23.2a19.553,19.553,0,0,1,5.81-14.21A19.114,19.114,0,0,1,74.935-43.33,17.588,17.588,0,0,1,88.97-36.54v-5.81h5.67ZM75.04-8.33a13.667,13.667,0,0,0,10.01-4.2A14.2,14.2,0,0,0,89.25-23a14.448,14.448,0,0,0-4.13-10.5A13.584,13.584,0,0,0,75-37.73,13.373,13.373,0,0,0,64.89-33.355,14.543,14.543,0,0,0,60.76-23.03,14.415,14.415,0,0,0,64.96-12.7,13.479,13.479,0,0,0,75.04-8.33Z" transform="translate(2125.63 308.15)" fill="#7c7c7c" stroke="#fff" stroke-width="0.5"/>
    <path id="Path_37" data-name="Path 37" d="M18.09-1.8H15.51V-12.21H4.98V-1.8H2.37V-23.76H4.98v9.03H15.51v-9.03h2.58ZM38.67-9.54H24.33A6.321,6.321,0,0,0,26.145-5.2,5.476,5.476,0,0,0,30.12-3.57a6.508,6.508,0,0,0,6-3.87l2.1,1.08A10.264,10.264,0,0,1,34.89-2.5,8.251,8.251,0,0,1,30.3-1.26a8.024,8.024,0,0,1-6.09-2.535A8.563,8.563,0,0,1,21.81-9.9a8.586,8.586,0,0,1,2.415-6.12,7.911,7.911,0,0,1,5.985-2.55,8.078,8.078,0,0,1,5.97,2.415A9.269,9.269,0,0,1,38.67-9.54Zm-2.76-2.19A5.269,5.269,0,0,0,33.87-15a6.013,6.013,0,0,0-3.66-1.17q-4.2,0-5.58,4.44ZM42.99-24.3a1.855,1.855,0,0,1,1.365.555,1.838,1.838,0,0,1,.555,1.35,1.838,1.838,0,0,1-.555,1.35,1.838,1.838,0,0,1-1.35.555,1.813,1.813,0,0,1-1.35-.57A1.853,1.853,0,0,1,41.1-22.4a1.853,1.853,0,0,1,.555-1.335A1.8,1.8,0,0,1,42.99-24.3ZM44.25-1.8H41.76V-18.15h2.49ZM55.59-15.99H52.35V-4.53q0,.63.18.765a1.815,1.815,0,0,0,.9.135h1.44V-1.5a14.485,14.485,0,0,1-2.19.24,2.864,2.864,0,0,1-2.13-.7A3.1,3.1,0,0,1,49.86-4.2V-15.99H47.04v-2.16h2.82V-24.3h2.49v6.15h3.24Zm3.57-8.31a1.855,1.855,0,0,1,1.365.555,1.838,1.838,0,0,1,.555,1.35,1.838,1.838,0,0,1-.555,1.35,1.838,1.838,0,0,1-1.35.555,1.813,1.813,0,0,1-1.35-.57A1.853,1.853,0,0,1,57.27-22.4a1.853,1.853,0,0,1,.555-1.335A1.8,1.8,0,0,1,59.16-24.3ZM60.42-1.8H57.93V-18.15h2.49Zm20.1-17.13A9.322,9.322,0,0,0,78.48-21.1a3.482,3.482,0,0,0-1.965-.555,2.653,2.653,0,0,0-1.89.72,2.421,2.421,0,0,0-.765,1.845,2.926,2.926,0,0,0,.72,1.965A23.215,23.215,0,0,0,77.9-14.385,17.041,17.041,0,0,1,81.69-10.8a5.994,5.994,0,0,1,1.2,3.54,5.632,5.632,0,0,1-1.875,4.215A6.134,6.134,0,0,1,76.65-1.26q-4.38,0-6.87-4.89l2.19-1.26q1.95,3.63,4.38,3.63a3.873,3.873,0,0,0,2.67-.99,3.012,3.012,0,0,0,1.11-2.31,4,4,0,0,0-.93-2.505,18.135,18.135,0,0,0-3.21-2.91,28.486,28.486,0,0,1-3.135-2.625,5.8,5.8,0,0,1-1.245-1.92,5.677,5.677,0,0,1-.39-2.04,5.039,5.039,0,0,1,1.515-3.7A5.3,5.3,0,0,1,76.65-24.3a5.594,5.594,0,0,1,3.24.945,11.2,11.2,0,0,1,2.7,2.805ZM107.61-5.82a11.631,11.631,0,0,1-9.72,4.56,11.631,11.631,0,0,1-8.55-3.3,11.25,11.25,0,0,1-3.33-8.34,11.2,11.2,0,0,1,1.545-5.76A10.981,10.981,0,0,1,91.83-22.8a12.047,12.047,0,0,1,5.895-1.5,12.828,12.828,0,0,1,5.67,1.215,11.007,11.007,0,0,1,4.185,3.555L105.6-18a9.625,9.625,0,0,0-7.71-3.78,8.954,8.954,0,0,0-6.465,2.64,8.67,8.67,0,0,0-2.715,6.465,8.522,8.522,0,0,0,2.655,6.39A9.495,9.495,0,0,0,98.25-3.72a9.426,9.426,0,0,0,7.35-3.63Z" transform="translate(1888.63 298.15)" fill="#7c7c7c" stroke="#fff" stroke-width="0.5"/>
    <line id="Line_12" data-name="Line 12" x2="0.18" y2="169" transform="translate(2061.31 202.65)" fill="none" stroke="#707070" stroke-width="1"/>
    <text id="Typography" transform="translate(1830 141)" fill="#7c7c7c" stroke="#fff" stroke-width="0.5" font-size="80" font-family="STHeitiSC-Medium, Heiti SC" font-weight="500"><tspan x="0" y="0">Typography</tspan></text>
  </g>
</svg>
