<svg id="Layer_1" data-name="Layer 1" xmlns="http://www.w3.org/2000/svg" xmlns:xlink="http://www.w3.org/1999/xlink" viewBox="0 0 375 812"><defs><style>.cls-1{fill:url(#linear-gradient);}.cls-2{fill:#f2c1da;opacity:0.24;}.cls-3{opacity:0.35;}.cls-12,.cls-14,.cls-4,.cls-5{fill:none;}.cls-10,.cls-12,.cls-13,.cls-14,.cls-5{stroke:#fff;}.cls-10,.cls-11,.cls-12,.cls-13,.cls-14,.cls-15,.cls-16,.cls-5{stroke-miterlimit:10;}.cls-11,.cls-13,.cls-6,.cls-7,.cls-9{fill:#fff;}.cls-6{opacity:0.4;}.cls-6,.cls-8,.cls-9{isolation:isolate;}.cls-9{font-size:15.4px;font-family:Helvetica;letter-spacing:-0.02em;}.cls-10{fill:#ee9dc4;}.cls-11{stroke:#ee9dc4;stroke-width:2px;}.cls-12{stroke-width:3px;}.cls-14{stroke-width:0.25px;}.cls-15{fill:#bf4694;stroke:#fad2e4;}.cls-15,.cls-16{stroke-width:14px;}.cls-16{fill:#e6a2c8;stroke:#e73092;}.cls-17{fill:#d93a95;}.cls-18{opacity:0.58;}</style><linearGradient id="linear-gradient" x1="-204.04" y1="401.41" x2="627.62" y2="411.16" gradientUnits="userSpaceOnUse"><stop offset="0" stop-color="#ee9dc4"/><stop offset="0.85" stop-color="#cf4a9b"/></linearGradient></defs><rect class="cls-1" width="375" height="812"/><rect class="cls-2" x="0.44" y="707.9" width="374.82" height="104.1"/><g id="Status_Bar-2" data-name="Status Bar-2"><g id="Battery"><g id="Border" class="cls-3"><path class="cls-4" d="M338.06,14.68h17.7a2.79,2.79,0,0,1,2.83,2.74v6.16a2.79,2.79,0,0,1-2.83,2.74h-17.7a2.79,2.79,0,0,1-2.84-2.74V17.42A2.79,2.79,0,0,1,338.06,14.68Z"/><path class="cls-5" d="M338.06,15.2h17.7a2.26,2.26,0,0,1,2.3,2.22v6.16a2.26,2.26,0,0,1-2.3,2.22h-17.7a2.26,2.26,0,0,1-2.31-2.22V17.42A2.26,2.26,0,0,1,338.06,15.2Z"/></g><path id="Cap" class="cls-6" d="M359.65,18.45v4.1a2.2,2.2,0,0,0,0-4.1"/><path id="Capacity" class="cls-7" d="M338.76,16.74h16.29a1.39,1.39,0,0,1,1.42,1.36v4.8a1.39,1.39,0,0,1-1.42,1.36H338.76a1.39,1.39,0,0,1-1.41-1.36V18.1A1.39,1.39,0,0,1,338.76,16.74Z"/></g><path id="Wifi" class="cls-7" d="M321.77,26a.36.36,0,0,1-.24-.09L319.4,23.8a.35.35,0,0,1-.1-.24.31.31,0,0,1,.11-.23,3.75,3.75,0,0,1,4.71,0,.32.32,0,0,1,0,.46h0L322,25.88A.36.36,0,0,1,321.77,26Zm3.74-3.64a.33.33,0,0,1-.23-.09,5.37,5.37,0,0,0-7,0,.34.34,0,0,1-.46,0L316.57,21a.31.31,0,0,1,0-.46h0a7.84,7.84,0,0,1,10.4,0,.35.35,0,0,1,.1.24.29.29,0,0,1-.1.23l-1.23,1.21A.32.32,0,0,1,325.51,22.33Zm2.84-2.77a.28.28,0,0,1-.23-.09,9.47,9.47,0,0,0-12.7,0,.33.33,0,0,1-.46,0h0l-1.23-1.2a.32.32,0,0,1,0-.47h0a11.92,11.92,0,0,1,16.08,0,.33.33,0,0,1,0,.47h0l-1.24,1.2A.27.27,0,0,1,328.35,19.56Z"/><path id="Cellular_Connection" data-name="Cellular Connection" class="cls-7" d="M307.25,26h-1.06a1,1,0,0,1-1.06-1v-8.9a1,1,0,0,1,1.06-1h1.06a1,1,0,0,1,1.07,1V25A1.05,1.05,0,0,1,307.25,26Zm-4.95,0h-1.07a1,1,0,0,1-1.06-1v-6.5a1,1,0,0,1,1.06-1h1.07a1,1,0,0,1,1.06,1V25a1,1,0,0,1-1.06,1Zm-5,0h-1.06a1.05,1.05,0,0,1-1.07-1V20.84a1,1,0,0,1,1.07-1h1.06a1,1,0,0,1,1.06,1V25a1,1,0,0,1-1.06,1Zm-5,0h-1.06a1,1,0,0,1-1.06-1V22.9a1,1,0,0,1,1.06-1h1.06a1,1,0,0,1,1.06,1V25A1,1,0,0,1,292.38,26Z"/><g id="Time_Style" data-name="Time Style"><g id="Time" class="cls-8"><text class="cls-9" transform="translate(13.94 23.59) scale(1.03 1)">9:41</text></g></g></g><polygon class="cls-7" points="46.5 727.26 41.97 729.06 36.43 725.21 32.31 728.97 36.35 734.51 34.4 738.72 27.8 739.99 27.8 745.5 34.48 746.63 36.4 750.89 32.45 756.25 36.62 760.13 42.1 756.4 46.71 758.35 47.99 764.83 53.43 764.89 54.73 758.43 59.61 756.54 65.03 760.38 69.21 756.31 64.97 751.13 66.57 747.15 73.53 745.87 73.35 740.4 66.92 739.24 64.72 734.7 68.47 729.53 64.53 725.7 59.1 729.13 54.57 727.49 53.32 720.78 47.27 720.76 46.5 727.26"/><circle class="cls-10" cx="50.67" cy="742.83" r="6.91"/><path class="cls-7" d="M29.42,780.35a2,2,0,0,0,.4,1.24,2.68,2.68,0,0,0,2.17.86c1.56,0,2.5-.7,2.5-1.89a1.39,1.39,0,0,0-.75-1.33,6.17,6.17,0,0,0-2.05-.58,7.21,7.21,0,0,1-1.67-.5,2,2,0,0,1-1.21-1.9c0-1.46,1.23-2.42,3.12-2.42a3.25,3.25,0,0,1,2.68,1.08,2.59,2.59,0,0,1,.53,1.24l-.87.13a1.73,1.73,0,0,0-.45-1,2.44,2.44,0,0,0-1.92-.74c-1.35,0-2.29.71-2.29,1.73a1.49,1.49,0,0,0,1.14,1.42,8.79,8.79,0,0,0,1.81.43c1.95.39,2.74,1.1,2.74,2.46,0,1.64-1.2,2.59-3.28,2.59a3.53,3.53,0,0,1-3-1.15,2.92,2.92,0,0,1-.55-1.52Z"/><path class="cls-7" d="M37.41,779.88a2.89,2.89,0,0,0,.51,1.77,2.24,2.24,0,0,0,1.82.85,2.19,2.19,0,0,0,1.69-.71,2,2,0,0,0,.43-.74l.74.3a3.74,3.74,0,0,1-.68,1,3.12,3.12,0,0,1-2.19.82,3,3,0,0,1-3.1-3.32c0-2,1.18-3.34,3-3.34a2.81,2.81,0,0,1,2.91,2.44c0,.1.05.43.1,1Zm4.4-.64a2.33,2.33,0,0,0-.48-1.33,2.1,2.1,0,0,0-1.68-.81c-1.22,0-2,.76-2.21,2.14Z"/><path class="cls-7" d="M45.88,774.86a7.89,7.89,0,0,0-.09,1.29v.47h.62a8.06,8.06,0,0,0,1.29-.07v.78a7.92,7.92,0,0,0-1.29-.07h-.62v4.31a.9.9,0,0,0,.17.66.81.81,0,0,0,.6.21,1.87,1.87,0,0,0,1-.33l.27.7a3.45,3.45,0,0,1-1.4.29,1.57,1.57,0,0,1-1.13-.37,1.45,1.45,0,0,1-.31-1.1v-4.37h-.51a8.22,8.22,0,0,0-1.12.07v-.78a5.72,5.72,0,0,0,1.12.07H45v-.47a8.42,8.42,0,0,0-.09-1.29Z"/><path class="cls-7" d="M50.66,774.86a7.89,7.89,0,0,0-.09,1.29v.47h.61a8.19,8.19,0,0,0,1.3-.07v.78a8,8,0,0,0-1.3-.07h-.61v4.31a1,1,0,0,0,.16.66.84.84,0,0,0,.61.21,1.84,1.84,0,0,0,1-.33l.28.7a3.48,3.48,0,0,1-1.4.29,1.55,1.55,0,0,1-1.13-.37,1.45,1.45,0,0,1-.32-1.1v-4.37h-.5a8.26,8.26,0,0,0-1.13.07v-.78a5.83,5.83,0,0,0,1.13.07h.5v-.47a8.5,8.5,0,0,0-.08-1.29Z"/><path class="cls-7" d="M54.75,774v1H53.69v-1Zm-.06,2.65a8.19,8.19,0,0,0-.08,1.31v3.76a8.94,8.94,0,0,0,.08,1.29h-.95a9.89,9.89,0,0,0,.09-1.29v-3.77a8.28,8.28,0,0,0-.09-1.3Z"/><path class="cls-7" d="M56.56,783a6.44,6.44,0,0,0,.1-1.29v-3.77a6.92,6.92,0,0,0-.1-1.3h.86v.92c0,.12,0,.34,0,.52a2.53,2.53,0,0,1,.62-.85,2.72,2.72,0,0,1,1.92-.71,2.06,2.06,0,0,1,2.3,2.21v3a6.48,6.48,0,0,0,.09,1.28h-1a7.61,7.61,0,0,0,.09-1.29v-2.85a1.5,1.5,0,0,0-1.65-1.7,2.3,2.3,0,0,0-1.85,1,2.36,2.36,0,0,0-.52,1.21v2.31A9,9,0,0,0,57.5,783Z"/><path class="cls-7" d="M70.15,776.62a8.6,8.6,0,0,0-.08,1.31v4.38a3.6,3.6,0,0,1-.66,2.37,3.11,3.11,0,0,1-2.53,1,3.26,3.26,0,0,1-2.73-1.2l.66-.44a2,2,0,0,0,.38.42,2.54,2.54,0,0,0,1.73.59,2.09,2.09,0,0,0,2.23-1.44,6.21,6.21,0,0,0,.23-1.9,2.48,2.48,0,0,1-.56.71,3,3,0,0,1-2,.67,2.9,2.9,0,0,1-3-3.23,3,3,0,0,1,3-3.32,2.61,2.61,0,0,1,2.52,1.38,3,3,0,0,1,0-.5v-.76Zm-3.29,5.8a2.44,2.44,0,0,0,2.45-2.71,2.31,2.31,0,0,0-2.38-2.57c-1.43,0-2.32,1-2.32,2.68S65.46,782.42,66.86,782.42Z"/><path class="cls-7" d="M72.48,781.13a1.35,1.35,0,0,0,.44.9,2.27,2.27,0,0,0,1.51.45c1.14,0,1.85-.47,1.85-1.21a.85.85,0,0,0-.4-.8,4.77,4.77,0,0,0-1.52-.45,4.41,4.41,0,0,1-1.88-.65,1.36,1.36,0,0,1-.56-1.15,1.55,1.55,0,0,1,.53-1.14,2.65,2.65,0,0,1,1.88-.6,2.81,2.81,0,0,1,1.85.54,1.87,1.87,0,0,1,.65,1.07l-.8.14a1.17,1.17,0,0,0-.32-.66,1.92,1.92,0,0,0-1.37-.48c-1,0-1.64.48-1.64,1.15a.79.79,0,0,0,.43.7,5,5,0,0,0,1.42.42,4.24,4.24,0,0,1,2,.71,1.48,1.48,0,0,1,.51,1.16c0,1.16-1,1.88-2.69,1.88a2.89,2.89,0,0,1-2.36-.9,2,2,0,0,1-.39-.93Z"/><ellipse class="cls-7" cx="243.13" cy="743" rx="20.28" ry="19.97"/><polyline class="cls-11" points="252.3 751.09 241.65 744.11 241.78 731.05"/><path class="cls-7" d="M231.08,772.06a7.09,7.09,0,0,0-.09,1.27v6.44a7.11,7.11,0,0,0,.09,1.29h-.94a7,7,0,0,0,.09-1.29v-3.12h-5.58v3.12a6,6,0,0,0,.1,1.29h-.95a6.9,6.9,0,0,0,.1-1.29v-6.42a6.82,6.82,0,0,0-.1-1.29h.95a6.11,6.11,0,0,0-.1,1.27V776h5.58v-2.6a7,7,0,0,0-.09-1.29Z"/><path class="cls-7" d="M233.88,772.06v1h-1v-1Zm0,2.65a7.85,7.85,0,0,0-.09,1.3v3.76a8.81,8.81,0,0,0,.09,1.29h-.91a9.81,9.81,0,0,0,.08-1.29V776a8.25,8.25,0,0,0-.08-1.29Z"/><path class="cls-7" d="M236.09,779.22a1.39,1.39,0,0,0,.42.9,2.14,2.14,0,0,0,1.44.44c1.09,0,1.77-.47,1.77-1.21a.84.84,0,0,0-.39-.79,4.19,4.19,0,0,0-1.44-.46,4,4,0,0,1-1.8-.65,1.37,1.37,0,0,1-.54-1.15,1.59,1.59,0,0,1,.5-1.14,2.54,2.54,0,0,1,1.8-.6,2.64,2.64,0,0,1,1.77.54,2,2,0,0,1,.63,1.07l-.77.14a1.24,1.24,0,0,0-.31-.66,1.78,1.78,0,0,0-1.31-.48c-.92,0-1.57.48-1.57,1.16a.79.79,0,0,0,.42.69,4.33,4.33,0,0,0,1.36.42,4,4,0,0,1,1.91.71,1.53,1.53,0,0,1,.49,1.16c0,1.17-1,1.89-2.57,1.89a2.7,2.7,0,0,1-2.25-.9,2.14,2.14,0,0,1-.38-.94Z"/><path class="cls-7" d="M243.53,772.94a7.89,7.89,0,0,0-.09,1.29v.48H244a6.27,6.27,0,0,0,1.23-.08v.78a7.21,7.21,0,0,0-1.23-.07h-.59v4.31a.94.94,0,0,0,.16.66.75.75,0,0,0,.57.21,1.73,1.73,0,0,0,1-.33l.26.71a3.36,3.36,0,0,1-1.34.28,1.44,1.44,0,0,1-1.08-.37,1.5,1.5,0,0,1-.3-1.1v-4.37h-.48a9.48,9.48,0,0,0-1.08.07v-.78a4.65,4.65,0,0,0,1.08.08h.48v-.48a8.5,8.5,0,0,0-.08-1.29Z"/><path class="cls-7" d="M246.14,777.9a3.1,3.1,0,1,1,3.12,3.31A3,3,0,0,1,246.14,777.9Zm.75,0c0,1.66.9,2.68,2.35,2.68s2.34-1,2.34-2.68-.9-2.68-2.32-2.68S246.89,776.23,246.89,777.88Z"/><path class="cls-7" d="M257.47,775.47a2.8,2.8,0,0,0-.94-.18,1.77,1.77,0,0,0-1.49.77,2,2,0,0,0-.43,1.21v2.5a8.76,8.76,0,0,0,.08,1.29h-.91a10,10,0,0,0,.08-1.29V776a8.17,8.17,0,0,0-.08-1.29h.83v1.08a2.56,2.56,0,0,1,.57-.71,2.3,2.3,0,0,1,1.53-.48,4.67,4.67,0,0,1,1,.11Z"/><path class="cls-7" d="M258.64,776.1a12.07,12.07,0,0,0-.65-1.39h1a6.3,6.3,0,0,0,.39,1.23l1.81,4.2,1.62-4.19a8.11,8.11,0,0,0,.38-1.24h.93l-.58,1.39-2.66,6.58a1.52,1.52,0,0,1-1.54,1.05,5,5,0,0,1-.94-.12l.25-.76a1.45,1.45,0,0,0,.71.2c.41,0,.67-.2.87-.67l.59-1.41Z"/><polyline class="cls-12" points="122.06 742.16 129.53 742.16 137.62 724.05 152.07 760.11 161.43 742.32 167.87 742.33"/><path class="cls-7" d="M123.29,781.54a4.92,4.92,0,0,0-.43-1.16l-2.58-5.3c-.23-.49-.39-.88-.73-1.75.06,1.23.09,1.72.09,2.14v4.75a6.27,6.27,0,0,0,.1,1.32h-1a7.17,7.17,0,0,0,.1-1.32v-6.35a7.51,7.51,0,0,0-.1-1.33H120a5.52,5.52,0,0,0,.42,1.12l3.27,6.78,3.27-6.78a4.63,4.63,0,0,0,.43-1.12h1.22a6.55,6.55,0,0,0-.1,1.33v6.35a6.27,6.27,0,0,0,.1,1.32h-1a8.74,8.74,0,0,0,.09-1.32v-4.75c0-.44,0-.81.07-2.14a16.83,16.83,0,0,1-.7,1.71l-2.6,5.35a5.13,5.13,0,0,0-.45,1.15Z"/><path class="cls-7" d="M131,778.44a2.89,2.89,0,0,0,.52,1.77,2.42,2.42,0,0,0,3.55.14,2,2,0,0,0,.43-.74l.75.3a3.52,3.52,0,0,1-.69,1,3.18,3.18,0,0,1-2.22.82,3,3,0,0,1-3.13-3.32c0-2,1.19-3.34,3-3.34a2.82,2.82,0,0,1,2.94,2.44c0,.1.05.43.1,1Zm4.45-.64a2.34,2.34,0,0,0-.49-1.33,2.12,2.12,0,0,0-1.7-.8A2.19,2.19,0,0,0,131,777.8Z"/><path class="cls-7" d="M142.31,780.63a3.37,3.37,0,0,1-1.23.79,3.62,3.62,0,0,1-1.28.24c-1.33,0-2.16-.67-2.16-1.77s.66-1.67,1.91-2a11.91,11.91,0,0,1,2.76-.26v-.78c0-.81-.58-1.26-1.64-1.26a2.15,2.15,0,0,0-1.62.55,1.68,1.68,0,0,0-.39.71l-.8-.17a2.26,2.26,0,0,1,.62-1,3.06,3.06,0,0,1,2.14-.7c1.58,0,2.42.66,2.42,1.87v3.41a6.6,6.6,0,0,0,.11,1.27h-.84Zm0-2.36a8.1,8.1,0,0,0-2.93.37,1.32,1.32,0,0,0-.94,1.26c0,.69.56,1.14,1.42,1.14a3,3,0,0,0,2.08-.91,1.23,1.23,0,0,0,.37-1Z"/><path class="cls-7" d="M145.46,779.7a1.31,1.31,0,0,0,.44.89,2.3,2.3,0,0,0,1.52.45c1.16,0,1.88-.47,1.88-1.21a.84.84,0,0,0-.41-.79,4.69,4.69,0,0,0-1.53-.46,4.42,4.42,0,0,1-1.9-.65,1.35,1.35,0,0,1-.57-1.15,1.55,1.55,0,0,1,.53-1.14,2.77,2.77,0,0,1,1.9-.6,2.9,2.9,0,0,1,1.88.54,1.93,1.93,0,0,1,.66,1.07l-.82.14a1.12,1.12,0,0,0-.33-.66,1.91,1.91,0,0,0-1.38-.48c-1,0-1.66.48-1.66,1.15a.79.79,0,0,0,.45.7,5,5,0,0,0,1.43.42,4.47,4.47,0,0,1,2,.71,1.49,1.49,0,0,1,.52,1.16c0,1.16-1,1.88-2.73,1.88a2.92,2.92,0,0,1-2.38-.9,2.08,2.08,0,0,1-.4-.93Z"/><path class="cls-7" d="M156.5,780.67a4.12,4.12,0,0,1,0-.53,2.69,2.69,0,0,1-2.56,1.53,2.06,2.06,0,0,1-2.32-2.2v-3a7.89,7.89,0,0,0-.09-1.29h1a8.06,8.06,0,0,0-.09,1.29v2.84A1.52,1.52,0,0,0,154.1,781a2.3,2.3,0,0,0,1.87-1,2.71,2.71,0,0,0,.53-1.23v-2.3a7.32,7.32,0,0,0-.09-1.29h1a8.24,8.24,0,0,0-.09,1.29v3.77a6.81,6.81,0,0,0,.11,1.29h-.88Z"/><path class="cls-7" d="M163.13,776a3,3,0,0,0-1-.18,1.93,1.93,0,0,0-1.58.77,2,2,0,0,0-.46,1.21v2.5a8.71,8.71,0,0,0,.09,1.29h-1a10.13,10.13,0,0,0,.09-1.29v-3.77a8.06,8.06,0,0,0-.09-1.29h.87v1.07a2.73,2.73,0,0,1,.61-.7,2.53,2.53,0,0,1,1.62-.48,5.24,5.24,0,0,1,1,.11Z"/><path class="cls-7" d="M165,778.44a3,3,0,0,0,.52,1.77,2.42,2.42,0,0,0,3.55.14,1.87,1.87,0,0,0,.43-.74l.75.3a3.52,3.52,0,0,1-.69,1,3.18,3.18,0,0,1-2.22.82,3,3,0,0,1-3.13-3.32c0-2,1.19-3.34,3-3.34a2.82,2.82,0,0,1,2.94,2.44c0,.1.05.43.11,1Zm4.45-.64a2.41,2.41,0,0,0-.48-1.33,2.15,2.15,0,0,0-1.7-.8A2.18,2.18,0,0,0,165,777.8Z"/><rect class="cls-13" x="318.4" y="722.02" width="7.09" height="43.26"/><rect class="cls-13" x="331.65" y="727.04" width="7.09" height="38.24"/><rect class="cls-13" x="344.76" y="741.64" width="7.09" height="23.63"/><path class="cls-7" d="M316.22,773.06a7.46,7.46,0,0,0-.1,1.3v6.42a7.12,7.12,0,0,0,.1,1.29h-.9a7,7,0,0,0,.09-1.29v-6.42a7.16,7.16,0,0,0-.09-1.3Z"/><path class="cls-7" d="M317.9,782.07a7.32,7.32,0,0,0,.09-1.29V777a7.88,7.88,0,0,0-.09-1.3h.77v.92c0,.12,0,.34,0,.52a2.46,2.46,0,0,1,.56-.85,2.26,2.26,0,0,1,1.71-.71A2,2,0,0,1,323,777.8v3a7.49,7.49,0,0,0,.08,1.28h-.85a10.57,10.57,0,0,0,.07-1.29v-2.85c0-1.11-.51-1.7-1.47-1.7a2,2,0,0,0-1.65,1,2.44,2.44,0,0,0-.46,1.21v2.31a10.8,10.8,0,0,0,.07,1.29Z"/><path class="cls-7" d="M325.09,780.22a1.38,1.38,0,0,0,.4.9,1.87,1.87,0,0,0,1.34.45c1,0,1.65-.47,1.65-1.21a.88.88,0,0,0-.36-.8,3.86,3.86,0,0,0-1.35-.45,3.62,3.62,0,0,1-1.68-.65,1.43,1.43,0,0,1-.5-1.15,1.65,1.65,0,0,1,.47-1.14,2.23,2.23,0,0,1,1.68-.6,2.34,2.34,0,0,1,1.65.54,1.93,1.93,0,0,1,.58,1.07l-.71.14a1.31,1.31,0,0,0-.29-.66,1.6,1.6,0,0,0-1.22-.48c-.86,0-1.47.48-1.47,1.15a.81.81,0,0,0,.39.7,4.21,4.21,0,0,0,1.27.42c1.12.27,1.48.41,1.79.71a1.58,1.58,0,0,1,.46,1.16c0,1.16-.92,1.88-2.41,1.88a2.43,2.43,0,0,1-2.1-.9,2.12,2.12,0,0,1-.35-.93Z"/><path class="cls-7" d="M331.42,773.06v1h-.94v-1Zm0,2.65a8.19,8.19,0,0,0-.08,1.31v3.76a8.94,8.94,0,0,0,.08,1.29h-.85a11.89,11.89,0,0,0,.08-1.29V777a9.84,9.84,0,0,0-.08-1.3Z"/><path class="cls-7" d="M338.41,775.71a10.12,10.12,0,0,0-.08,1.31v4.38a3.94,3.94,0,0,1-.58,2.37,2.64,2.64,0,0,1-2.26,1,2.8,2.8,0,0,1-2.44-1.2l.6-.44a2,2,0,0,0,.33.42,2.13,2.13,0,0,0,1.55.59,1.87,1.87,0,0,0,2-1.44,7.39,7.39,0,0,0,.2-1.9,2.58,2.58,0,0,1-.49.71,2.51,2.51,0,0,1-1.77.67c-1.67,0-2.7-1.24-2.7-3.23s1.08-3.32,2.71-3.32a2.3,2.3,0,0,1,2.25,1.38,4.57,4.57,0,0,1,0-.5v-.76Zm-2.94,5.8c1.32,0,2.19-1.07,2.19-2.71s-.83-2.57-2.12-2.57-2.07,1-2.07,2.68S334.23,781.51,335.47,781.51Z"/><path class="cls-7" d="M340.05,782.07a8,8,0,0,0,.08-1.29v-6.42a8.3,8.3,0,0,0-.08-1.3h.83a9.89,9.89,0,0,0-.08,1.31v2.17a5.23,5.23,0,0,1,0,.61,2.86,2.86,0,0,1,.58-.86,2.21,2.21,0,0,1,1.69-.7,2,2,0,0,1,2.06,2.19v3a8.53,8.53,0,0,0,.08,1.28h-.85a9,9,0,0,0,.07-1.29V777.9a1.77,1.77,0,0,0-.38-1.24,1.35,1.35,0,0,0-1-.43,1.9,1.9,0,0,0-1.19.41,3.35,3.35,0,0,0-.89,1.29,2.42,2.42,0,0,0-.13.57v2.28a10.38,10.38,0,0,0,.08,1.29Z"/><path class="cls-7" d="M348.34,774a8,8,0,0,0-.08,1.29v.47h.55a6.43,6.43,0,0,0,1.15-.07v.78a6.37,6.37,0,0,0-1.15-.07h-.55v4.31a1,1,0,0,0,.15.66.68.68,0,0,0,.53.21,1.53,1.53,0,0,0,.92-.33l.25.7a2.85,2.85,0,0,1-1.26.29,1.29,1.29,0,0,1-1-.37,1.6,1.6,0,0,1-.28-1.1v-4.37h-.45a6.67,6.67,0,0,0-1,.07v-.78a4.71,4.71,0,0,0,1,.07h.45v-.47a9.79,9.79,0,0,0-.08-1.29Z"/><path class="cls-7" d="M351.49,780.22a1.43,1.43,0,0,0,.39.9,1.88,1.88,0,0,0,1.35.45c1,0,1.65-.47,1.65-1.21a.88.88,0,0,0-.36-.8,4,4,0,0,0-1.35-.45,3.62,3.62,0,0,1-1.68-.65,1.43,1.43,0,0,1-.5-1.15,1.65,1.65,0,0,1,.47-1.14,2.23,2.23,0,0,1,1.68-.6,2.34,2.34,0,0,1,1.65.54,1.93,1.93,0,0,1,.58,1.07l-.71.14a1.31,1.31,0,0,0-.29-.66,1.6,1.6,0,0,0-1.22-.48c-.86,0-1.47.48-1.47,1.15a.81.81,0,0,0,.39.7,4.11,4.11,0,0,0,1.27.42,3.59,3.59,0,0,1,1.79.71,1.58,1.58,0,0,1,.46,1.16c0,1.16-.92,1.88-2.41,1.88a2.43,2.43,0,0,1-2.1-.9,2.12,2.12,0,0,1-.35-.93Z"/><path class="cls-7" d="M23.68,214.56a11.55,11.55,0,0,0-.34-1.4l-1.65-5.55c-.17-.54-.27-1-.43-1.72-.15.73-.28,1.3-.41,1.72l-1.64,5.55a12,12,0,0,0-.35,1.4H17.3a8.86,8.86,0,0,0-.38-1.43l-2.25-7.88a10.73,10.73,0,0,0-.56-1.64H16a8.78,8.78,0,0,0,.25,1.48l1.48,5.65c.11.43.26,1.13.35,1.62.11-.54.31-1.33.41-1.64l1.7-5.71a7.25,7.25,0,0,0,.31-1.4H22a11.86,11.86,0,0,0,.32,1.38L24,210.7c.09.3.18.68.41,1.66.22-1.09.35-1.65.35-1.68l1.46-5.59a7.14,7.14,0,0,0,.25-1.48h1.92a11.34,11.34,0,0,0-.55,1.64l-2.26,7.87a10.54,10.54,0,0,0-.35,1.44Z"/><path class="cls-7" d="M30.68,211a2.79,2.79,0,0,0,.55,1.72,2.48,2.48,0,0,0,3.62.11,2.11,2.11,0,0,0,.43-.77l1.4.48a3.66,3.66,0,0,1-.82,1.23,3.87,3.87,0,0,1-2.79,1c-2.38,0-3.89-1.61-3.89-4.15s1.5-4.16,3.79-4.16a3.56,3.56,0,0,1,3.68,3.28,11.88,11.88,0,0,1,.1,1.22Zm4.53-1.19a2.32,2.32,0,0,0-.68-1.5,2.14,2.14,0,0,0-1.57-.59,2.11,2.11,0,0,0-1.88,1.08,2.56,2.56,0,0,0-.36,1Z"/><path class="cls-7" d="M39.4,211a2.79,2.79,0,0,0,.55,1.72,2.24,2.24,0,0,0,1.86.84,2.27,2.27,0,0,0,1.77-.73,2.11,2.11,0,0,0,.42-.77l1.4.48a3.66,3.66,0,0,1-.82,1.23,3.87,3.87,0,0,1-2.79,1c-2.37,0-3.89-1.61-3.89-4.15s1.5-4.16,3.79-4.16a3.55,3.55,0,0,1,3.68,3.28,11.88,11.88,0,0,1,.1,1.22Zm4.53-1.19a2.27,2.27,0,0,0-.68-1.5,2.14,2.14,0,0,0-1.57-.59,2.11,2.11,0,0,0-1.88,1.08,2.41,2.41,0,0,0-.35,1Z"/><path class="cls-7" d="M48.69,203.61a10.44,10.44,0,0,0-.1,1.73v4.77l2.3-2.2A6.63,6.63,0,0,0,52,206.72h2.26a5.42,5.42,0,0,1-.57.5l-.8.76-2,1.86L53.25,213a12.44,12.44,0,0,0,1.26,1.57H52.36a8.91,8.91,0,0,0-.92-1.48l-1.67-2.36-1.18,1.11v1a10,10,0,0,0,.1,1.71H47a10.24,10.24,0,0,0,.11-1.72v-7.5a10.21,10.21,0,0,0-.11-1.73Z"/><path class="cls-7" d="M60.1,210.64a4,4,0,1,1,4.05,4.15A3.82,3.82,0,0,1,60.1,210.64Zm1.53,0c0,1.82.95,2.93,2.5,2.93s2.49-1.09,2.49-2.89-.93-2.94-2.47-2.94S61.63,208.82,61.63,210.61Z"/><path class="cls-7" d="M70.2,208a10.89,10.89,0,0,0-1.32.08v-1.4a8.46,8.46,0,0,0,1.32.09h.58v-.79a2.44,2.44,0,0,1,.58-1.83,2.76,2.76,0,0,1,2-.65,5,5,0,0,1,1.66.28L74.66,205a2.57,2.57,0,0,0-1.24-.29,1.19,1.19,0,0,0-.92.32,1.65,1.65,0,0,0-.21,1.05v.66H73a13.3,13.3,0,0,0,1.55-.09V208A13.22,13.22,0,0,0,73,208h-.7v4.89a11.61,11.61,0,0,0,.1,1.72H70.68a12.37,12.37,0,0,0,.1-1.74V208Z"/><path class="cls-7" d="M82.56,212.7a11.23,11.23,0,0,0,.11,1.86h-1.8a9.81,9.81,0,0,0,.12-1.85v-7.42a9.58,9.58,0,0,0-.12-1.72c.51,0,.91,0,1.7,0h3.89a13.11,13.11,0,0,0,1.8-.1v1.6a12,12,0,0,0-1.8-.1h-3.9v3.25h3.15a12.35,12.35,0,0,0,1.8-.1v1.6a12.26,12.26,0,0,0-1.8-.1H82.56Z"/><path class="cls-7" d="M90.79,211a2.73,2.73,0,0,0,.55,1.72,2.22,2.22,0,0,0,1.85.84,2.26,2.26,0,0,0,1.77-.73,2.11,2.11,0,0,0,.42-.77l1.41.48a3.53,3.53,0,0,1-.83,1.23,3.83,3.83,0,0,1-2.78,1c-2.38,0-3.89-1.61-3.89-4.15s1.5-4.16,3.79-4.16a3.56,3.56,0,0,1,3.68,3.28,11.88,11.88,0,0,1,.1,1.22Zm4.52-1.19a2.22,2.22,0,0,0-.68-1.5,2.1,2.1,0,0,0-1.57-.59,2.13,2.13,0,0,0-1.88,1.08,2.73,2.73,0,0,0-.35,1Z"/><path class="cls-7" d="M98.38,214.56a13,13,0,0,0,.1-1.78v-7.42a14.09,14.09,0,0,0-.1-1.75h1.68a12.78,12.78,0,0,0-.1,1.76v1.53a9.21,9.21,0,0,1,0,1,3.49,3.49,0,0,1,3-1.34c2.25,0,3.62,1.53,3.62,4s-1.42,4.16-3.72,4.16a3.37,3.37,0,0,1-2.86-1.26.26.26,0,0,1,0,.11,3.06,3.06,0,0,1,0,.4v.57Zm4.33-6.75a2.83,2.83,0,0,0-.13,5.64c1.47,0,2.38-1.09,2.38-2.87S104.11,207.81,102.71,207.81Z"/><path class="cls-7" d="M113.09,208.2a3.85,3.85,0,0,0-1.21-.21,2,2,0,0,0-1.69.74,2.34,2.34,0,0,0-.55,1.42v2.69a13.35,13.35,0,0,0,.09,1.72H108a14.41,14.41,0,0,0,.1-1.72v-4.4a11.7,11.7,0,0,0-.1-1.72h1.63v.63c0,.11,0,.39,0,.5a2.71,2.71,0,0,1,2.59-1.27,5.34,5.34,0,0,1,1.3.14Z"/><path class="cls-7" d="M121.92,206.72a11,11,0,0,0-.11,1.72v4.38a11.15,11.15,0,0,0,.11,1.74h-1.61v-.67c0-.1,0-.3,0-.59a3.26,3.26,0,0,1-2.84,1.4,2.73,2.73,0,0,1-2.38-1,3,3,0,0,1-.45-1.81v-3.41a11.37,11.37,0,0,0-.1-1.71h1.73a11.63,11.63,0,0,0-.1,1.72v3.18c0,1.23.48,1.82,1.51,1.82a2.33,2.33,0,0,0,1.81-.88,3.76,3.76,0,0,0,.79-1.35v-2.77a13.28,13.28,0,0,0-.1-1.72Z"/><path class="cls-7" d="M129.05,213.68a3.73,3.73,0,0,1-1.19.74,4.69,4.69,0,0,1-1.61.28c-1.67,0-2.67-.85-2.67-2.27a2.47,2.47,0,0,1,1.78-2.31,11.19,11.19,0,0,1,3.69-.48V209a1.23,1.23,0,0,0-.35-1,2.13,2.13,0,0,0-1.35-.36c-1.16,0-1.77.37-2.08,1.3l-1.55-.3a2.83,2.83,0,0,1,1-1.44,4.21,4.21,0,0,1,2.66-.74,3.46,3.46,0,0,1,2.52.77,2.29,2.29,0,0,1,.62,1.81v3.83a10.89,10.89,0,0,0,.11,1.67h-1.57Zm0-2.94a8.83,8.83,0,0,0-2.91.38,1.35,1.35,0,0,0-1,1.31c0,.69.52,1.11,1.39,1.11a3.1,3.1,0,0,0,2.06-.83,1.57,1.57,0,0,0,.51-1.19Z"/><path class="cls-7" d="M137.51,208.2a3.85,3.85,0,0,0-1.21-.21,2,2,0,0,0-1.69.74,2.35,2.35,0,0,0-.56,1.42v2.69a13.28,13.28,0,0,0,.1,1.72h-1.72a14.41,14.41,0,0,0,.1-1.72v-4.4a11.7,11.7,0,0,0-.1-1.72h1.62v.63c0,.11,0,.39,0,.5a2.7,2.7,0,0,1,2.58-1.27,5.42,5.42,0,0,1,1.31.14Z"/><path class="cls-7" d="M139,208.41c-.62-1.38-.63-1.4-.79-1.69h1.84a8.11,8.11,0,0,0,.51,1.58l1.85,4.27,1.68-4.27a7.31,7.31,0,0,0,.51-1.58h1.79l-.74,1.69-3.2,7.57a2.1,2.1,0,0,1-.94,1.14,3.14,3.14,0,0,1-1.4.31,5.88,5.88,0,0,1-1.36-.17l.32-1.4a2.17,2.17,0,0,0,1,.26,1.14,1.14,0,0,0,1.06-.75l.52-1.23Z"/><path class="cls-7" d="M153.75,214.56a12.9,12.9,0,0,0-1.72.07,6.16,6.16,0,0,1,.39-1.82,6.6,6.6,0,0,1,1.9-2.6,18.28,18.28,0,0,1,2.26-1.64c1.34-.9,1.74-1.42,1.74-2.27s-.81-1.57-2.08-1.57a2.15,2.15,0,0,0-1.92.87,2.87,2.87,0,0,0-.46,1.34l-1.68-.22a4.11,4.11,0,0,1,.95-2.16,3.89,3.89,0,0,1,3.07-1.18c2.35,0,3.8,1.14,3.8,3a3,3,0,0,1-1.43,2.58c-.43.32-.63.46-1.89,1.3a5.68,5.68,0,0,0-2.66,2.94h4.22a13.84,13.84,0,0,0,1.92-.1v1.59a18.88,18.88,0,0,0-2-.09Z"/><path class="cls-7" d="M163.51,214.56a13.08,13.08,0,0,0-1.73.07,6.45,6.45,0,0,1,.4-1.82,6.67,6.67,0,0,1,1.89-2.6,17.86,17.86,0,0,1,2.27-1.64c1.34-.9,1.74-1.42,1.74-2.27s-.81-1.57-2.08-1.57a2.18,2.18,0,0,0-1.93.87,2.87,2.87,0,0,0-.45,1.34l-1.68-.22a4,4,0,0,1,.95-2.16,3.89,3.89,0,0,1,3.07-1.18c2.34,0,3.8,1.14,3.8,3a3,3,0,0,1-1.43,2.58c-.44.32-.63.46-1.89,1.3a5.64,5.64,0,0,0-2.66,2.94H168a14.1,14.1,0,0,0,1.93-.1v1.59a19,19,0,0,0-2-.09Z"/><path class="cls-7" d="M173.48,214.56c0,1.14-.29,1.61-1.23,2l-.46-.63c.77-.26.91-.47.92-1.35h-1v-1.78h1.81Z"/><path class="cls-7" d="M181.63,214.56a12.9,12.9,0,0,0-1.72.07,6.45,6.45,0,0,1,.4-1.82,6.57,6.57,0,0,1,1.89-2.6,18.28,18.28,0,0,1,2.26-1.64c1.35-.9,1.74-1.42,1.74-2.27s-.8-1.57-2.08-1.57a2.18,2.18,0,0,0-1.92.87,2.87,2.87,0,0,0-.45,1.34l-1.69-.22a4.11,4.11,0,0,1,.95-2.16,3.92,3.92,0,0,1,3.07-1.18c2.35,0,3.81,1.14,3.81,3a3,3,0,0,1-1.43,2.58c-.44.32-.64.46-1.9,1.3a5.73,5.73,0,0,0-2.66,2.94h4.22a13.84,13.84,0,0,0,1.92-.1v1.59a18.88,18.88,0,0,0-2-.09Z"/><path class="cls-7" d="M190.92,213.69a3.82,3.82,0,0,1-.89-1.36,9.44,9.44,0,0,1-.55-3.23,8.28,8.28,0,0,1,.84-3.84,4.16,4.16,0,0,1,6.26-.78,3.53,3.53,0,0,1,.89,1.35,9.32,9.32,0,0,1,.56,3.25,7.42,7.42,0,0,1-1,4.11,4.19,4.19,0,0,1-6.09.5Zm1.16-8.23a2.72,2.72,0,0,0-.6,1,8.37,8.37,0,0,0-.39,2.62,7.1,7.1,0,0,0,.64,3.15,2.22,2.22,0,0,0,2,1.13,2.24,2.24,0,0,0,1.63-.61,2.75,2.75,0,0,0,.65-1.14,8.32,8.32,0,0,0,.38-2.59,7.7,7.7,0,0,0-.58-3.07,2.18,2.18,0,0,0-2.09-1.26A2,2,0,0,0,192.08,205.46Z"/><path class="cls-7" d="M201.15,214.56a13.08,13.08,0,0,0-1.73.07,6.45,6.45,0,0,1,.4-1.82,6.67,6.67,0,0,1,1.89-2.6,17.86,17.86,0,0,1,2.27-1.64c1.34-.9,1.74-1.42,1.74-2.27s-.81-1.57-2.08-1.57a2.18,2.18,0,0,0-1.93.87,2.87,2.87,0,0,0-.45,1.34l-1.68-.22a4,4,0,0,1,.95-2.16,3.88,3.88,0,0,1,3.06-1.18c2.35,0,3.81,1.14,3.81,3a3,3,0,0,1-1.43,2.58c-.44.32-.64.46-1.89,1.3a5.64,5.64,0,0,0-2.66,2.94h4.21a14.1,14.1,0,0,0,1.93-.1v1.59a19,19,0,0,0-2-.09Z"/><path class="cls-7" d="M210.61,203.52a6.62,6.62,0,0,0,1.31.09h1.13a10.27,10.27,0,0,0,1.33-.07,23.06,23.06,0,0,0-.11,2.32v7a11.23,11.23,0,0,0,.11,1.74h-1.82a11.15,11.15,0,0,0,.11-1.74V205H212a10.24,10.24,0,0,0-1.36.09Z"/><rect class="cls-2" x="296.83" y="707.77" width="77.51" height="104.1"/><rect class="cls-2" x="0.44" y="78.58" width="374.82" height="76.81"/><path class="cls-7" d="M147.14,109.25a17,17,0,0,0-.17,2.9v11.28a17.08,17.08,0,0,0,.17,2.89h-3.91a17.38,17.38,0,0,0,.17-2.89V112.15a17.13,17.13,0,0,0-.17-2.9Z"/><path class="cls-7" d="M149.77,126.32a21.19,21.19,0,0,0,.17-2.94v-6.55a18.83,18.83,0,0,0-.17-2.94h3.5v.84c0,.17,0,.45-.05.84a5.81,5.81,0,0,1,4.46-1.93c2.82,0,4.39,1.6,4.39,4.45v5.29a18.51,18.51,0,0,0,.17,2.94h-3.71a22,22,0,0,0,.17-2.94v-4.49c0-1.09-.17-1.57-.68-2a2.13,2.13,0,0,0-1.25-.36,4.43,4.43,0,0,0-3.48,2.54v4.26a21.15,21.15,0,0,0,.17,2.94Z"/><path class="cls-7" d="M167.65,122.25a2.06,2.06,0,0,0,.46,1,2.89,2.89,0,0,0,2.19.71c1.38,0,2.24-.48,2.24-1.26a.93.93,0,0,0-.44-.81,5.37,5.37,0,0,0-1.93-.59,15,15,0,0,1-3.48-1,3.23,3.23,0,0,1-2-3c0-2.41,2-3.88,5.3-3.88a6.12,6.12,0,0,1,4.22,1.28,3.82,3.82,0,0,1,1.25,2.28l-3.41.4c-.13-1-.75-1.4-2-1.4s-2,.42-2,1.11a.94.94,0,0,0,.65.84,8.4,8.4,0,0,0,1.93.55,10.89,10.89,0,0,1,3.69,1.17,3.11,3.11,0,0,1,1.62,2.81c0,2.61-2.13,4.14-5.73,4.14-2.48,0-4.24-.67-5.2-2a4.88,4.88,0,0,1-.83-2Z"/><path class="cls-7" d="M181.6,113.89a17.63,17.63,0,0,0-.17,3v6.51a19.35,19.35,0,0,0,.17,3h-3.75a22.08,22.08,0,0,0,.17-2.94v-6.55a20,20,0,0,0-.17-2.94Zm0-4.64v2.9h-3.69v-2.9Z"/><path class="cls-7" d="M186.35,126.35a3.91,3.91,0,0,0,3.25,1.49,3.64,3.64,0,0,0,3-1.16,4.7,4.7,0,0,0,.66-2.64,5.11,5.11,0,0,1-4.1,1.65c-3.47,0-5.7-2.33-5.7-6a5.64,5.64,0,0,1,5.83-6.07,5.05,5.05,0,0,1,4,1.49,4.28,4.28,0,0,1,0-.54v-.7h3.45a19.09,19.09,0,0,0-.17,2.78v7.11c0,2.54-.57,4.12-1.84,5.15a8.46,8.46,0,0,1-5.15,1.36c-2.68,0-4.31-.63-5.77-2.24Zm1.44-4a3,3,0,0,0,2,.79,3.64,3.64,0,0,0,1.82-.52,3.55,3.55,0,0,0-1.72-6.47c-1.82,0-3,1.41-3,3.55A3.58,3.58,0,0,0,187.79,122.36Z"/><path class="cls-7" d="M199.16,126.32a19.74,19.74,0,0,0,.17-2.94V112.19a17.66,17.66,0,0,0-.17-2.94h3.67a18.91,18.91,0,0,0-.17,2.94v2.54c0,.19,0,.45,0,.84a5.76,5.76,0,0,1,4.46-1.93c2.82,0,4.39,1.6,4.39,4.45v5.29a20,20,0,0,0,.16,2.94h-3.71a20.43,20.43,0,0,0,.17-2.94v-4.49c0-1.09-.17-1.62-.68-2a1.94,1.94,0,0,0-1.23-.34c-1.29,0-2.5.86-3.5,2.54v4.26a22.82,22.82,0,0,0,.17,2.94Z"/><path class="cls-7" d="M219.16,110.64a22,22,0,0,0-.17,2.71v.54h.83a15.54,15.54,0,0,0,2.12-.1v2.94a10.93,10.93,0,0,0-2-.13H219v5.92c0,1,.36,1.35,1.36,1.35a2.88,2.88,0,0,0,1.55-.42l.34,2.75a7.77,7.77,0,0,1-2.72.42c-2.73,0-3.83-.93-3.83-3.26V116.6h-.83a9.86,9.86,0,0,0-1.87.13v-3a10.63,10.63,0,0,0,1.91.12h.79v-.54a19.71,19.71,0,0,0-.17-2.71Z"/><path class="cls-7" d="M226.69,122.25a2.15,2.15,0,0,0,.47,1,2.86,2.86,0,0,0,2.18.71c1.38,0,2.25-.48,2.25-1.26a1,1,0,0,0-.44-.81,5.37,5.37,0,0,0-1.93-.59,14.85,14.85,0,0,1-3.48-1,3.23,3.23,0,0,1-2-3c0-2.41,2-3.88,5.3-3.88a6.14,6.14,0,0,1,4.22,1.28,3.82,3.82,0,0,1,1.25,2.28l-3.41.4c-.13-1-.75-1.4-2-1.4s-2.06.42-2.06,1.11a1,1,0,0,0,.66.84,8.4,8.4,0,0,0,1.93.55,11.07,11.07,0,0,1,3.69,1.17,3.1,3.1,0,0,1,1.61,2.81c0,2.61-2.12,4.14-5.72,4.14-2.49,0-4.25-.67-5.2-2a4.75,4.75,0,0,1-.83-2Z"/><line class="cls-14" x1="44.29" y1="269.92" x2="348.3" y2="269.92"/><line class="cls-14" x1="43.76" y1="341.11" x2="347.78" y2="341.11"/><line class="cls-14" x1="43.76" y1="412.31" x2="347.78" y2="412.31"/><line class="cls-14" x1="44.29" y1="488.91" x2="348.3" y2="488.91"/><path class="cls-7" d="M16.23,493.3a1.85,1.85,0,0,0,.75,1.21,2.9,2.9,0,0,0,1.77.53c1.48,0,2.44-.75,2.44-2s-.92-1.94-2.6-1.94a9.71,9.71,0,0,0-1.37.07v-1.49a7.08,7.08,0,0,0,1.13.09,3.36,3.36,0,0,0,1.73-.38,1.7,1.7,0,0,0,.79-1.49c0-1.07-.75-1.65-2.14-1.65A2.06,2.06,0,0,0,17,487a2.21,2.21,0,0,0-.41.91l-1.68-.31a3.24,3.24,0,0,1,.92-1.61,4.16,4.16,0,0,1,3-1c2.24,0,3.68,1.14,3.68,2.89a2.51,2.51,0,0,1-1,2.06,3.3,3.3,0,0,1-1.35.53,2.89,2.89,0,0,1,2,.89,2.66,2.66,0,0,1,.68,1.94,2.84,2.84,0,0,1-.83,2,4.59,4.59,0,0,1-3.28,1.1,4.37,4.37,0,0,1-3.44-1.25,3.82,3.82,0,0,1-.77-1.48Z"/><path class="cls-7" d="M25.74,495.29a3.78,3.78,0,0,1-.89-1.35,9.54,9.54,0,0,1-.55-3.24,8.28,8.28,0,0,1,.84-3.84A3.83,3.83,0,0,1,28.57,485a3.85,3.85,0,0,1,2.83,1.08,3.57,3.57,0,0,1,.89,1.36,9.28,9.28,0,0,1,.55,3.25,7.42,7.42,0,0,1-1,4.1,3.83,3.83,0,0,1-3.27,1.58A3.85,3.85,0,0,1,25.74,495.29Zm1.16-8.23a2.72,2.72,0,0,0-.6,1.05,8.37,8.37,0,0,0-.39,2.62,7.1,7.1,0,0,0,.64,3.15,2.2,2.2,0,0,0,2,1.13,2.24,2.24,0,0,0,1.63-.61,2.75,2.75,0,0,0,.65-1.14,8.32,8.32,0,0,0,.38-2.59,7.7,7.7,0,0,0-.58-3.07,2.18,2.18,0,0,0-2.09-1.26A2,2,0,0,0,26.9,487.06Z"/><path class="cls-7" d="M21.14,410.4a2,2,0,0,0-2-1.48,2.43,2.43,0,0,0-2.3,1.57,6.63,6.63,0,0,0-.58,2.69,2.86,2.86,0,0,1,.76-.84,3.43,3.43,0,0,1,2.24-.7A3.43,3.43,0,0,1,23,415.31,3.66,3.66,0,0,1,19,419a4.25,4.25,0,0,1-2.75-.91c-1-.87-1.55-2.52-1.55-4.6a7.47,7.47,0,0,1,1.12-4.25,3.82,3.82,0,0,1,3.29-1.61,3.68,3.68,0,0,1,2.7,1,3.49,3.49,0,0,1,.88,1.37Zm-4.64,4.9A2.37,2.37,0,0,0,19,417.69a2.42,2.42,0,0,0,2.08-1.05,2.58,2.58,0,0,0,.34-1.34A2.18,2.18,0,0,0,19,412.92,2.41,2.41,0,0,0,16.5,415.3Z"/><path class="cls-7" d="M25.74,417.92a3.9,3.9,0,0,1-.89-1.36,9.54,9.54,0,0,1-.55-3.24,8.28,8.28,0,0,1,.84-3.84,3.83,3.83,0,0,1,3.43-1.86,3.89,3.89,0,0,1,2.83,1.08,3.64,3.64,0,0,1,.89,1.36,9.28,9.28,0,0,1,.55,3.25,7.39,7.39,0,0,1-1,4.1A3.84,3.84,0,0,1,28.56,419,3.89,3.89,0,0,1,25.74,417.92Zm1.16-8.24a2.8,2.8,0,0,0-.6,1.05,8.42,8.42,0,0,0-.39,2.62,7.07,7.07,0,0,0,.64,3.15,2.21,2.21,0,0,0,2,1.14A2.25,2.25,0,0,0,30.2,417a2.77,2.77,0,0,0,.65-1.13,8.43,8.43,0,0,0,.38-2.6,7.61,7.61,0,0,0-.58-3.06A2.18,2.18,0,0,0,28.56,409,2,2,0,0,0,26.9,409.68Z"/><path class="cls-7" d="M18.38,344.53a2.08,2.08,0,0,0,.45.82,2.22,2.22,0,0,0,1.71.62,2.33,2.33,0,0,0,2.15-1.23,4.92,4.92,0,0,0,.57-1.77c0-.29.07-.65.1-1.26a2.71,2.71,0,0,1-.68.8,3.54,3.54,0,0,1-2.37.77,3.76,3.76,0,0,1-2.75-1,3.64,3.64,0,0,1-1-2.63c0-2.27,1.62-3.78,4.1-3.78a3.78,3.78,0,0,1,3.41,1.89,7,7,0,0,1,.69,3.48c0,2.19-.48,3.89-1.36,4.84a3.76,3.76,0,0,1-3,1.16,4,4,0,0,1-2.52-.73A3.65,3.65,0,0,1,16.74,345ZM20.57,342a2.42,2.42,0,0,0,2.49-2.41,2.38,2.38,0,0,0-2.49-2.41,2.48,2.48,0,0,0-1.77.7,2.33,2.33,0,0,0-.66,1.74A2.2,2.2,0,0,0,20.57,342Z"/><path class="cls-7" d="M27.67,346.21a3.77,3.77,0,0,1-.89-1.36,9.27,9.27,0,0,1-.56-3.24,8.2,8.2,0,0,1,.84-3.83,3.84,3.84,0,0,1,3.44-1.87A3.89,3.89,0,0,1,33.32,337a3.52,3.52,0,0,1,.89,1.36,9.28,9.28,0,0,1,.56,3.25,7.45,7.45,0,0,1-1,4.11,4.18,4.18,0,0,1-6.08.5ZM28.83,338a2.7,2.7,0,0,0-.61,1,8.42,8.42,0,0,0-.38,2.62,7.05,7.05,0,0,0,.63,3.15,2.4,2.4,0,0,0,3.65.52,2.66,2.66,0,0,0,.65-1.13,8.32,8.32,0,0,0,.38-2.59,7.62,7.62,0,0,0-.58-3.07,2.17,2.17,0,0,0-2.09-1.26A2,2,0,0,0,28.83,338Z"/><path class="cls-7" d="M12.46,265.16a6.92,6.92,0,0,0,1.32.08h1.13a8.83,8.83,0,0,0,1.33-.07c-.08.86-.11,1.52-.11,2.33v7a11.32,11.32,0,0,0,.11,1.74H14.42a11.15,11.15,0,0,0,.11-1.74v-7.87h-.71a12.55,12.55,0,0,0-1.36.08Z"/><path class="cls-7" d="M22.52,276.2a11.49,11.49,0,0,0-1.73.07,6.45,6.45,0,0,1,.4-1.82,6.7,6.7,0,0,1,1.89-2.61,21.28,21.28,0,0,1,2.27-1.64c1.34-.89,1.74-1.41,1.74-2.27s-.81-1.57-2.08-1.57a2.21,2.21,0,0,0-1.93.87,2.92,2.92,0,0,0-.45,1.35L21,268.35a4,4,0,0,1,.95-2.15A3.89,3.89,0,0,1,25,265c2.34,0,3.8,1.13,3.8,3a3,3,0,0,1-1.43,2.57c-.44.32-.63.46-1.89,1.3a5.7,5.7,0,0,0-2.66,2.95H27a14,14,0,0,0,1.93-.1v1.58c-.63,0-1.16-.08-2-.08Z"/><path class="cls-7" d="M31.81,275.33a3.77,3.77,0,0,1-.89-1.36,9.26,9.26,0,0,1-.55-3.24,8.21,8.21,0,0,1,.83-3.83A3.85,3.85,0,0,1,34.64,265a3.93,3.93,0,0,1,2.83,1.08,3.64,3.64,0,0,1,.89,1.36,9.51,9.51,0,0,1,.55,3.25,7.3,7.3,0,0,1-1,4.1,3.8,3.8,0,0,1-3.27,1.59A3.86,3.86,0,0,1,31.81,275.33ZM33,267.09a2.7,2.7,0,0,0-.61,1.05,8.42,8.42,0,0,0-.38,2.62,7.19,7.19,0,0,0,.63,3.15,2.4,2.4,0,0,0,3.65.52,2.66,2.66,0,0,0,.65-1.13,8.32,8.32,0,0,0,.39-2.59,7.62,7.62,0,0,0-.58-3.07,2.19,2.19,0,0,0-2.1-1.26A2,2,0,0,0,33,267.09Z"/><line class="cls-15" x1="55.78" y1="566.03" x2="55.78" y2="330.15"/><line class="cls-15" x1="102.62" y1="566.03" x2="102.62" y2="378.74"/><line class="cls-15" x1="149.46" y1="566.03" x2="149.46" y2="393.58"/><line class="cls-16" x1="196.3" y1="566.03" x2="196.3" y2="365.1"/><line class="cls-15" x1="336.81" y1="566.03" x2="336.81" y2="348.69"/><line class="cls-15" x1="289.97" y1="566.03" x2="289.97" y2="282.23"/><line class="cls-15" x1="243.13" y1="566.03" x2="243.13" y2="290.69"/><line class="cls-5" x1="44.29" y1="566.54" x2="348.3" y2="566.54"/><path class="cls-7" d="M54.71,586.17a7.5,7.5,0,0,0-.58-1.72L51.74,579a14.58,14.58,0,0,1-.66-1.89c.05.67.11,1.67.11,2v5.17a11.72,11.72,0,0,0,.11,1.89H49.6a10.78,10.78,0,0,0,.12-1.89v-7.16a11.41,11.41,0,0,0-.12-1.91h2.21a7.78,7.78,0,0,0,.5,1.56L55.43,584l3.11-7.27a7.48,7.48,0,0,0,.5-1.56h2.21a11.49,11.49,0,0,0-.12,1.91v7.16a10,10,0,0,0,.12,1.89h-1.7a13.31,13.31,0,0,0,.11-1.89V579c0-1,.09-1.63.12-1.95a12.43,12.43,0,0,1-.6,1.79l-2.47,5.58a9.22,9.22,0,0,0-.6,1.71Z"/><path class="cls-7" d="M103.07,584.43a9.91,9.91,0,0,0,.11,1.74h-1.81a11.06,11.06,0,0,0,.11-1.74v-7.81h-2a12.64,12.64,0,0,0-1.81.09v-1.59a13.29,13.29,0,0,0,1.8.09H105a12.87,12.87,0,0,0,1.93-.09v1.59a13.3,13.3,0,0,0-1.93-.09h-1.93Z"/><path class="cls-7" d="M151.56,586.17a10.73,10.73,0,0,0-.34-1.4l-1.66-5.55a16.12,16.12,0,0,1-.42-1.72c-.16.73-.28,1.3-.41,1.72l-1.64,5.55a10.25,10.25,0,0,0-.35,1.4h-1.56a12.42,12.42,0,0,0-.38-1.43l-2.25-7.89a11.37,11.37,0,0,0-.57-1.64h1.93a8,8,0,0,0,.25,1.49l1.47,5.64c.12.44.27,1.14.36,1.63.11-.55.31-1.33.41-1.64l1.69-5.72a6.44,6.44,0,0,0,.31-1.4h1.48a8.65,8.65,0,0,0,.32,1.39l1.71,5.7c.1.31.19.69.41,1.67.23-1.09.36-1.65.36-1.68l1.45-5.59a7.93,7.93,0,0,0,.26-1.49h1.92a12.28,12.28,0,0,0-.55,1.64l-2.26,7.87a10.16,10.16,0,0,0-.36,1.45Z"/><path class="cls-17" d="M196.78,584.43a11,11,0,0,0,.11,1.74h-1.81a10.86,10.86,0,0,0,.12-1.74v-7.82h-2a12.41,12.41,0,0,0-1.81.1v-1.59a13.38,13.38,0,0,0,1.8.09h5.56a12.8,12.8,0,0,0,1.92-.09v1.59a12.74,12.74,0,0,0-1.92-.1h-1.94Z"/><path class="cls-7" d="M241.14,584.3a11.37,11.37,0,0,0,.11,1.87h-1.79a11,11,0,0,0,.11-1.85v-7.43a10.8,10.8,0,0,0-.11-1.72c.5,0,.9,0,1.69,0H245a13.2,13.2,0,0,0,1.8-.09v1.59a12,12,0,0,0-1.8-.1h-3.9v3.25h3.15a12.58,12.58,0,0,0,1.8-.09v1.59a12.16,12.16,0,0,0-1.8-.1h-3.15Z"/><path class="cls-7" d="M287.2,582.82a2.05,2.05,0,0,0,.41,1.3,2.68,2.68,0,0,0,2.19.88c1.51,0,2.43-.7,2.43-1.84a1.49,1.49,0,0,0-.75-1.38,8.25,8.25,0,0,0-2.4-.68,5.94,5.94,0,0,1-2.05-.77,2.56,2.56,0,0,1-1.19-2.25c0-1.87,1.51-3.09,3.86-3.09a4,4,0,0,1,3.37,1.37,3.74,3.74,0,0,1,.65,1.57l-1.69.2a1.79,1.79,0,0,0-.45-1,2.35,2.35,0,0,0-1.89-.73c-1.33,0-2.24.68-2.24,1.69a1.43,1.43,0,0,0,1.08,1.39,9.39,9.39,0,0,0,2,.5,5.58,5.58,0,0,1,2.27.89,2.59,2.59,0,0,1,1.08,2.25c0,2.13-1.46,3.31-4.06,3.31a4.41,4.41,0,0,1-3.57-1.32,3.73,3.73,0,0,1-.77-2.06Z"/><path class="cls-7" d="M334.05,582.82a2.11,2.11,0,0,0,.41,1.3,2.71,2.71,0,0,0,2.2.88c1.51,0,2.43-.7,2.43-1.84a1.49,1.49,0,0,0-.75-1.38,8.64,8.64,0,0,0-2.41-.68,6.11,6.11,0,0,1-2.05-.77,2.57,2.57,0,0,1-1.18-2.24c0-1.88,1.51-3.1,3.86-3.1a4,4,0,0,1,3.36,1.37,3.5,3.5,0,0,1,.65,1.57l-1.68.2a1.85,1.85,0,0,0-.45-1,2.38,2.38,0,0,0-1.9-.73c-1.33,0-2.23.69-2.23,1.69a1.43,1.43,0,0,0,1.07,1.39,9.84,9.84,0,0,0,2,.5,5.64,5.64,0,0,1,2.28.89,2.61,2.61,0,0,1,1.07,2.25c0,2.13-1.45,3.31-4.06,3.31a4.38,4.38,0,0,1-3.56-1.32,3.81,3.81,0,0,1-.78-2.06Z"/><path class="cls-7" d="M289.46,640.6a13.71,13.71,0,0,0-.53-1.87l-.81-2.11h-6l-.82,2.11a9.13,9.13,0,0,0-.54,1.87h-2.55a14.69,14.69,0,0,0,1-2.11l4-10.2a10.11,10.11,0,0,0,.58-1.77h2.62a10.73,10.73,0,0,0,.62,1.77l4.05,10.2a18.3,18.3,0,0,0,.95,2.11Zm-4-11.29c-.07-.18-.07-.18-.36-1.08l-.36,1.08-2.07,5.58h4.88Z"/><path class="cls-7" d="M297.41,637.41c.07.24.21.69.43,1.34.26-.89.28-.9.42-1.34l3.16-9a8.35,8.35,0,0,0,.51-1.87h2.55a14.53,14.53,0,0,0-.91,2.12l-3.89,10.2a12.46,12.46,0,0,0-.56,1.76h-2.57a14.07,14.07,0,0,0-.58-1.76l-3.91-10.2a22.94,22.94,0,0,0-.9-2.12h2.54a11.43,11.43,0,0,0,.51,1.87Z"/><path class="cls-7" d="M314.59,635a10,10,0,0,0-1.86.11v-2a13.76,13.76,0,0,0,2.09.11h.78a15.33,15.33,0,0,0,2.06-.09,14.34,14.34,0,0,0-.13,2.18v1.8a13.49,13.49,0,0,0,.13,2.2,11.25,11.25,0,0,1-2.73,1.2,11.07,11.07,0,0,1-2.63.33,6.28,6.28,0,0,1-4.78-1.75,7.94,7.94,0,0,1-1.95-5.58c0-3,1.2-5.35,3.35-6.54a6.65,6.65,0,0,1,3.34-.75,5.84,5.84,0,0,1,4.07,1.45,5.25,5.25,0,0,1,1.34,2.11l-2.07.58C315,628.66,314,628,312,628c-2.69,0-4.36,2.09-4.36,5.47a6.46,6.46,0,0,0,1.36,4.36,4.14,4.14,0,0,0,3.24,1.28,6,6,0,0,0,3.32-.9V635Z"/><path class="cls-7" d="M291.26,653.15a11.62,11.62,0,0,0-2,2.62A27.25,27.25,0,0,0,286,663.1a29.16,29.16,0,0,0-.91,4.52h-2.82a28.33,28.33,0,0,1,2.57-8.28,35.07,35.07,0,0,1,3.75-6h-6.7a19.33,19.33,0,0,0-2.61.14v-2.39a21.53,21.53,0,0,0,2.71.15h6.6a20.06,20.06,0,0,0,2.72-.11Z"/><path class="cls-7" d="M304.75,660a3.93,3.93,0,0,1,1.52,3.28c0,3-2.27,4.7-6.34,4.7s-6.4-1.7-6.4-4.68a3.94,3.94,0,0,1,1.8-3.47,4.52,4.52,0,0,1,2-.79,4,4,0,0,1-1.93-1,3.84,3.84,0,0,1-1.14-2.75c0-2.69,2.16-4.37,5.62-4.37s5.64,1.64,5.64,4.26a3.79,3.79,0,0,1-3,3.89A4.29,4.29,0,0,1,304.75,660ZM296,663.08c0,1.85,1.42,2.92,3.86,2.92s3.92-1.07,3.92-2.92-1.46-3-3.88-3S296,661.21,296,663.08Zm.61-7.73c0,1.68,1.25,2.71,3.29,2.71s3.24-1,3.24-2.68-1.27-2.61-3.26-2.61S296.62,653.78,296.62,655.35Z"/><path class="cls-7" d="M314.68,667.58c-.75,0-1.12,0-1.71,0a9.4,9.4,0,0,0,.12-1.83v-7.57a11.79,11.79,0,0,0-.11-1.62c.48,0,.78,0,1.7,0h3.2c2.15,0,3.33,1,3.33,2.67a2.5,2.5,0,0,1-.77,1.94,3,3,0,0,1-1.14.57,2.53,2.53,0,0,1,1.42.62,2.67,2.67,0,0,1,.88,2.12c0,1.94-1.29,3-3.57,3Zm3.08-6.39c1.18,0,1.87-.61,1.87-1.68s-.65-1.57-1.9-1.57h-3.08v3.25Zm-3.11,5.06h3.2c1.38,0,2.12-.66,2.12-1.88a1.69,1.69,0,0,0-.5-1.34,2.36,2.36,0,0,0-1.67-.53h-3.15Z"/><path class="cls-7" d="M323.39,667.58a10.91,10.91,0,0,0,.11-1.71v-7.56a12.66,12.66,0,0,0-.11-1.73c.54,0,1,0,1.7,0H328c2.4,0,3.7,1.16,3.7,3.26s-1.38,3.45-3.77,3.45h-2.88v2.5a10.66,10.66,0,0,0,.11,1.74Zm4.55-5.59a1.9,1.9,0,0,0,2.15-2.06c0-1.29-.73-2-2.15-2h-2.88v4Z"/><path class="cls-7" d="M338.27,667.58a7.5,7.5,0,0,0-.58-1.72l-2.4-5.47a16.33,16.33,0,0,1-.66-1.89c.06.68.11,1.67.11,2v5.17a10.5,10.5,0,0,0,.12,1.89h-1.7a12,12,0,0,0,.11-1.89v-7.16a12.53,12.53,0,0,0-.11-1.9h2.21a7.23,7.23,0,0,0,.49,1.55l3.13,7.27,3.11-7.27a6.78,6.78,0,0,0,.49-1.55h2.21a12.7,12.7,0,0,0-.11,1.9v7.16a11,11,0,0,0,.11,1.89h-1.7a13.07,13.07,0,0,0,.12-1.89v-5.24c0-1,.08-1.62.11-2a14.65,14.65,0,0,1-.59,1.8l-2.48,5.57a8.48,8.48,0,0,0-.59,1.71Z"/><path class="cls-7" d="M51.65,640.6a9.71,9.71,0,0,0-.75-2.21l-3.07-7a20.5,20.5,0,0,1-.85-2.43c.07.87.14,2.15.14,2.6v6.64a14.13,14.13,0,0,0,.15,2.43H45.09a14.68,14.68,0,0,0,.14-2.43V629a15.32,15.32,0,0,0-.14-2.45h2.83a10.42,10.42,0,0,0,.64,2l4,9.34,4-9.34a10,10,0,0,0,.63-2h2.84A15.33,15.33,0,0,0,59.9,629v9.2a13.33,13.33,0,0,0,.15,2.43H57.87a17.06,17.06,0,0,0,.14-2.43v-6.73c.06-1.27.11-2.09.15-2.51a16.83,16.83,0,0,1-.77,2.31l-3.18,7.16a12,12,0,0,0-.76,2.2Z"/><path class="cls-7" d="M65.05,626.52a12.54,12.54,0,0,0-.14,2.2v9.68a12.27,12.27,0,0,0,.14,2.2H62.72a12.36,12.36,0,0,0,.15-2.2v-9.68a12.14,12.14,0,0,0-.15-2.2Z"/><path class="cls-7" d="M76.28,635.85c.35.54.91,1.44,1.31,2.14-.07-1-.11-1.78-.11-2.45v-6.72a13.72,13.72,0,0,0-.14-2.3h2.27a13.4,13.4,0,0,0-.15,2.32v9.55a12.19,12.19,0,0,0,.15,2.21H77.08A16.94,16.94,0,0,0,76,638.78l-5.16-7.69c-.27-.43-.73-1.18-1.13-2,.07.78.11,1.69.11,2.34v6.65A14.55,14.55,0,0,0,70,640.6H67.72a16.69,16.69,0,0,0,.15-2.48v-9.4a13.19,13.19,0,0,0-.15-2.2h2.46a9.11,9.11,0,0,0,1,1.8Z"/><path class="cls-7" d="M48,657.22c0,.21-.07.53-.13.9a5.22,5.22,0,0,1,3.71-1.34,5.55,5.55,0,0,1,4,1.51A5.16,5.16,0,0,1,57,662.13c0,3.6-2.35,5.82-6.13,5.82a6.06,6.06,0,0,1-4.52-1.66,5.77,5.77,0,0,1-1.33-2.18l2.46-.55a3.22,3.22,0,0,0,.63,1.22,3.55,3.55,0,0,0,2.78,1.13,3.47,3.47,0,0,0,3.69-3.69,3.3,3.3,0,0,0-3.6-3.55,4,4,0,0,0-2.76,1.09,2.15,2.15,0,0,0-.59.91l-2.23-.21c.19-1.22.23-1.45.3-2.17l.46-5a9.55,9.55,0,0,0,.09-1.3v-.38a2.9,2.9,0,0,1,0-.46,20.25,20.25,0,0,0,2.24.09h4.88a15.17,15.17,0,0,0,2.76-.17v2.33a17.6,17.6,0,0,0-2.76-.17h-5Z"/><path class="cls-7" d="M62.66,657.22c0,.21-.06.53-.13.9a5.24,5.24,0,0,1,3.72-1.34,5.52,5.52,0,0,1,4,1.51,5.12,5.12,0,0,1,1.46,3.84c0,3.6-2.35,5.82-6.13,5.82A6,6,0,0,1,61,666.29a5.78,5.78,0,0,1-1.34-2.18l2.46-.55a3.09,3.09,0,0,0,.64,1.22,3.53,3.53,0,0,0,2.78,1.13,3.48,3.48,0,0,0,3.69-3.69,3.3,3.3,0,0,0-3.61-3.55,4,4,0,0,0-2.76,1.09,2.25,2.25,0,0,0-.59.91l-2.23-.21c.19-1.22.24-1.45.3-2.17l.47-5a11.21,11.21,0,0,0,.08-1.3v-.38a2.9,2.9,0,0,1,0-.46,20.45,20.45,0,0,0,2.25.09H68a15.12,15.12,0,0,0,2.75-.17v2.33a17.54,17.54,0,0,0-2.75-.17h-5Z"/><path class="cls-7" d="M80.48,667.58c-.75,0-1.11,0-1.71,0a9.29,9.29,0,0,0,.13-1.83v-7.57a11.79,11.79,0,0,0-.11-1.62c.48,0,.77,0,1.69,0h3.2c2.15,0,3.34,1,3.34,2.67a2.48,2.48,0,0,1-.78,1.93,2.71,2.71,0,0,1-1.13.58,2.53,2.53,0,0,1,1.41.61,2.71,2.71,0,0,1,.88,2.13c0,1.94-1.29,3-3.56,3Zm3.09-6.39c1.17,0,1.86-.61,1.86-1.68s-.65-1.57-1.89-1.57H80.46v3.25Zm-3.11,5.06h3.19c1.39,0,2.12-.66,2.12-1.88a1.69,1.69,0,0,0-.49-1.34,2.39,2.39,0,0,0-1.67-.53H80.46Z"/><path class="cls-7" d="M89.19,667.58a9.75,9.75,0,0,0,.12-1.71v-7.56a11.27,11.27,0,0,0-.12-1.73c.54,0,1,0,1.7,0h2.93c2.39,0,3.69,1.16,3.69,3.26s-1.37,3.45-3.76,3.45H90.86v2.5a9.53,9.53,0,0,0,.12,1.74ZM93.75,662a1.9,1.9,0,0,0,2.15-2.06c0-1.29-.74-2-2.15-2H90.86v4Z"/><path class="cls-7" d="M104.07,667.58a7.5,7.5,0,0,0-.58-1.72l-2.39-5.47a14.58,14.58,0,0,1-.66-1.89c0,.68.11,1.67.11,2v5.17a11.72,11.72,0,0,0,.11,1.89H99a10.78,10.78,0,0,0,.12-1.89v-7.16a11.21,11.21,0,0,0-.12-1.9h2.21a7.91,7.91,0,0,0,.5,1.55l3.12,7.27,3.11-7.27a7.41,7.41,0,0,0,.5-1.55h2.21a11.36,11.36,0,0,0-.12,1.9v7.16a9.88,9.88,0,0,0,.12,1.89h-1.7a13.31,13.31,0,0,0,.11-1.89v-5.24c0-1,.09-1.62.12-2a13,13,0,0,1-.6,1.8l-2.47,5.57a9.22,9.22,0,0,0-.6,1.71Z"/><path class="cls-7" d="M161.44,640.6a9.59,9.59,0,0,0-.74-2.21l-3.07-7a18.39,18.39,0,0,1-.86-2.43c.08.87.15,2.15.15,2.6v6.64a15.44,15.44,0,0,0,.14,2.43h-2.18a14.51,14.51,0,0,0,.15-2.43V629a15.17,15.17,0,0,0-.15-2.45h2.84a10.34,10.34,0,0,0,.63,2l4,9.34,4-9.34a9.37,9.37,0,0,0,.63-2h2.84a15.33,15.33,0,0,0-.15,2.45v9.2a13.33,13.33,0,0,0,.15,2.43h-2.18a17.06,17.06,0,0,0,.14-2.43v-6.73c.06-1.27.11-2.09.15-2.51a18.42,18.42,0,0,1-.76,2.31L164,638.4a11.37,11.37,0,0,0-.77,2.2Z"/><path class="cls-7" d="M182.7,640.6a13.71,13.71,0,0,0-.53-1.87l-.82-2.11h-6l-.82,2.11a8.6,8.6,0,0,0-.55,1.87h-2.54a14.85,14.85,0,0,0,1-2.11l4-10.21a10.72,10.72,0,0,0,.58-1.76h2.62a11,11,0,0,0,.61,1.76l4.06,10.21a18.79,18.79,0,0,0,.94,2.11Zm-4-11.29c-.07-.18-.07-.18-.36-1.08-.31.94-.31.94-.37,1.08l-2.07,5.58h4.89Z"/><path class="cls-7" d="M189.73,638.66a18,18,0,0,0-1.16,1.94h-2.82c1-1.33,1.31-1.67,1.67-2.2l3.79-5.25-3.31-4.61c-.48-.65-1-1.32-1.55-2h2.77a10.94,10.94,0,0,0,1.09,1.89l2.29,3.37,2.21-3.37a11.69,11.69,0,0,0,1.09-1.89h2.77c-.53.63-1,1.24-1.57,2l-3.29,4.6,3.76,5.24c.41.54.77,1,1.73,2.21h-2.83c-.44-.77-.77-1.31-1.18-1.93l-2.73-4.1Z"/><path class="cls-7" d="M156.89,651.07a10.49,10.49,0,0,0,2,.13h1.7a14.6,14.6,0,0,0,2-.11,32.08,32.08,0,0,0-.17,3.49V665a15.73,15.73,0,0,0,.17,2.61h-2.74A15.57,15.57,0,0,0,160,665v-11.8h-1.06a15.37,15.37,0,0,0-2,.13Z"/><path class="cls-7" d="M171.52,651.07a10.56,10.56,0,0,0,2,.13h1.7a14.6,14.6,0,0,0,2-.11,34.82,34.82,0,0,0-.17,3.49V665a16.89,16.89,0,0,0,.17,2.61h-2.73a15.57,15.57,0,0,0,.17-2.61v-11.8h-1.06a15.52,15.52,0,0,0-2,.13Z"/><path class="cls-7" d="M185.9,666.31a5.67,5.67,0,0,1-1.33-2,13.77,13.77,0,0,1-.83-4.85,12.52,12.52,0,0,1,1.25-5.76,5.78,5.78,0,0,1,5.15-2.79,5.86,5.86,0,0,1,4.25,1.62,5.42,5.42,0,0,1,1.33,2,14,14,0,0,1,.83,4.88,11,11,0,0,1-1.53,6.15,6.28,6.28,0,0,1-9.12.75ZM187.64,654a4.21,4.21,0,0,0-.91,1.57,12.91,12.91,0,0,0-.57,3.93,10.66,10.66,0,0,0,1,4.72,3.61,3.61,0,0,0,5.47.78,4.07,4.07,0,0,0,1-1.7,12.84,12.84,0,0,0,.57-3.89,11.39,11.39,0,0,0-.87-4.59,3.27,3.27,0,0,0-3.14-1.89A3,3,0,0,0,187.64,654Z"/><path class="cls-7" d="M204.91,667.58c-.75,0-1.11,0-1.71,0a9.29,9.29,0,0,0,.13-1.83v-7.57a11.79,11.79,0,0,0-.11-1.62c.48,0,.77,0,1.69,0h3.2c2.15,0,3.34,1,3.34,2.67a2.48,2.48,0,0,1-.78,1.93,2.77,2.77,0,0,1-1.13.58,2.53,2.53,0,0,1,1.41.61,2.71,2.71,0,0,1,.88,2.13c0,1.94-1.29,3-3.56,3Zm3.09-6.39c1.17,0,1.86-.61,1.86-1.68s-.65-1.57-1.89-1.57h-3.09v3.25Zm-3.12,5.06h3.2c1.39,0,2.12-.66,2.12-1.88a1.69,1.69,0,0,0-.49-1.34,2.39,2.39,0,0,0-1.67-.53h-3.16Z"/><path class="cls-7" d="M213.62,667.58a9.75,9.75,0,0,0,.12-1.71v-7.56a11.27,11.27,0,0,0-.12-1.73c.54,0,1,0,1.7,0h2.93c2.39,0,3.69,1.16,3.69,3.26s-1.37,3.45-3.76,3.45h-2.89v2.5a10.66,10.66,0,0,0,.11,1.74Zm4.56-5.59a1.9,1.9,0,0,0,2.15-2.06c0-1.29-.74-2-2.15-2h-2.89v4Z"/><path class="cls-7" d="M228.5,667.58a7.5,7.5,0,0,0-.58-1.72l-2.39-5.47a14.58,14.58,0,0,1-.66-1.89c0,.68.11,1.67.11,2v5.17a11.72,11.72,0,0,0,.11,1.89h-1.7a10.78,10.78,0,0,0,.12-1.89v-7.16a11.21,11.21,0,0,0-.12-1.9h2.21a7.91,7.91,0,0,0,.5,1.55l3.12,7.27,3.11-7.27a7.41,7.41,0,0,0,.5-1.55H235a11.36,11.36,0,0,0-.12,1.9v7.16a9.88,9.88,0,0,0,.12,1.89h-1.7a13.31,13.31,0,0,0,.11-1.89v-5.24c0-1,.09-1.62.11-2a13.12,13.12,0,0,1-.59,1.8l-2.47,5.57a9.22,9.22,0,0,0-.6,1.71Z"/><g class="cls-18"><path class="cls-7" d="M39.67,126.2a10,10,0,0,0-.66-2.12l-1.84-4.66c-.19-.47-.4-1.16-.72-2.28.09,1.45.13,2,.13,2.43v4.36a14.85,14.85,0,0,0,.12,2.27H34.17a15.36,15.36,0,0,0,.12-2.27v-7.65a16.22,16.22,0,0,0-.12-2.28h3.36a9.7,9.7,0,0,0,.56,1.94l2.7,7,2.68-7A9.24,9.24,0,0,0,44,114h3.36a16.5,16.5,0,0,0-.12,2.28v7.65a14,14,0,0,0,.12,2.27H44.86a15.54,15.54,0,0,0,.12-2.27v-4.41c0-.36,0-1,.13-2.38-.08.28-.08.28-.25.94-.07.26-.33,1.07-.42,1.29l-1.91,4.73a12.14,12.14,0,0,0-.65,2.1Z"/><path class="cls-7" d="M48.89,121.76A4.43,4.43,0,0,1,53.63,117a4.4,4.4,0,0,1,4.73,4.71,4.47,4.47,0,0,1-4.74,4.77A4.42,4.42,0,0,1,48.89,121.76Zm2.41,0c0,1.77.88,2.85,2.33,2.85s2.32-1,2.32-2.81-.85-2.86-2.3-2.86S51.3,120,51.3,121.73Z"/><path class="cls-7" d="M59.74,126.2a14.6,14.6,0,0,0,.12-2.1v-4.68a12.93,12.93,0,0,0-.12-2.1h2.5v.6c0,.12,0,.31,0,.6a4.12,4.12,0,0,1,3.18-1.38,2.86,2.86,0,0,1,3.14,3.18v3.78a13.74,13.74,0,0,0,.12,2.1H66a15.15,15.15,0,0,0,.12-2.1v-3.21c0-.78-.12-1.13-.49-1.4a1.51,1.51,0,0,0-.89-.25,3.18,3.18,0,0,0-2.49,1.81v3a14.18,14.18,0,0,0,.13,2.1Z"/><path class="cls-7" d="M74,115a14.11,14.11,0,0,0-.13,1.94v.39h.6a10.54,10.54,0,0,0,1.51-.08v2.1a8.72,8.72,0,0,0-1.44-.09H73.9v4.23c0,.71.26,1,1,1a2,2,0,0,0,1.11-.3l.24,2a5.46,5.46,0,0,1-1.94.3c-2,0-2.74-.66-2.74-2.33v-4.83H71a7.8,7.8,0,0,0-1.33.09v-2.11a7.59,7.59,0,0,0,1.36.09h.56v-.39a13.48,13.48,0,0,0-.12-1.94Z"/><path class="cls-7" d="M77.27,126.2a14.6,14.6,0,0,0,.12-2.1v-8a12.93,12.93,0,0,0-.12-2.1h2.62a13,13,0,0,0-.12,2.1v1.82c0,.13,0,.31,0,.6a4.1,4.1,0,0,1,3.18-1.38,2.85,2.85,0,0,1,3.13,3.18v3.78a12.43,12.43,0,0,0,.13,2.1H83.52a13.68,13.68,0,0,0,.13-2.1v-3.21c0-.78-.13-1.16-.49-1.41a1.36,1.36,0,0,0-.88-.24,3.06,3.06,0,0,0-2.5,1.81v3a15.72,15.72,0,0,0,.12,2.1Z"/><path class="cls-7" d="M90,123.29a1.55,1.55,0,0,0,.33.73,2.06,2.06,0,0,0,1.56.51c1,0,1.61-.34,1.61-.9a.69.69,0,0,0-.32-.58,3.81,3.81,0,0,0-1.38-.42,11.06,11.06,0,0,1-2.48-.68,2.3,2.3,0,0,1-1.43-2.14c0-1.73,1.44-2.78,3.79-2.78a4.41,4.41,0,0,1,3,.92,2.76,2.76,0,0,1,.89,1.63l-2.44.29c-.09-.71-.53-1-1.44-1s-1.47.3-1.47.8a.69.69,0,0,0,.47.6,6.21,6.21,0,0,0,1.38.39,7.82,7.82,0,0,1,2.64.84,2.22,2.22,0,0,1,1.15,2c0,1.86-1.52,3-4.09,3-1.78,0-3-.48-3.72-1.42a3.45,3.45,0,0,1-.59-1.44Z"/></g><path id="Home_Indicator-2" data-name="Home Indicator-2" class="cls-7" d="M123,151.27H252a2.5,2.5,0,0,1,2.5,2.5h0a2.5,2.5,0,0,1-2.5,2.5H123a2.5,2.5,0,0,1-2.5-2.5h0A2.5,2.5,0,0,1,123,151.27Z"/><g class="cls-18"><path class="cls-7" d="M288.34,126.2a12.9,12.9,0,0,0-.35-1.56l-1.4-5c-.15-.52-.3-1.29-.44-2a15.83,15.83,0,0,1-.44,2l-1.37,5a8.94,8.94,0,0,0-.35,1.55H281.5a14.82,14.82,0,0,0-.39-1.59l-2.43-8.79a13.46,13.46,0,0,0-.59-1.82H281a8.66,8.66,0,0,0,.24,1.64l1.2,5.22c.09.4.27,1.32.35,1.8.25-1.28.31-1.52.39-1.82l1.48-5.29A9.26,9.26,0,0,0,285,114h2.26c.06.39.18.89.34,1.5l1.49,5.28c.1.38.24,1,.41,1.88a17.14,17.14,0,0,1,.35-1.89l1.19-5.15a9,9,0,0,0,.25-1.62h2.9c-.16.44-.36,1-.57,1.82l-2.43,8.79c-.19.73-.33,1.29-.37,1.59Z"/><path class="cls-7" d="M297.23,122.4a2.48,2.48,0,0,0,.51,1.46,2.16,2.16,0,0,0,1.73.75,2.06,2.06,0,0,0,2.11-1.41l2.19.64a4.12,4.12,0,0,1-1,1.46,4.61,4.61,0,0,1-3.33,1.21,4.55,4.55,0,0,1-3.29-1.18,4.93,4.93,0,0,1-1.33-3.57c0-2.85,1.8-4.74,4.53-4.74a4.08,4.08,0,0,1,4.08,2.68,6.9,6.9,0,0,1,.4,2.34,3,3,0,0,0,0,.36Zm4.24-1.74a2.29,2.29,0,0,0-.42-1,2,2,0,0,0-1.64-.72,2.06,2.06,0,0,0-2.14,1.77Z"/><path class="cls-7" d="M307.24,122.4a2.48,2.48,0,0,0,.52,1.46,2.15,2.15,0,0,0,1.72.75,2.06,2.06,0,0,0,2.11-1.41l2.2.64a4.25,4.25,0,0,1-1,1.46,4.65,4.65,0,0,1-3.34,1.21,4.51,4.51,0,0,1-3.28-1.18,4.89,4.89,0,0,1-1.34-3.57,4.38,4.38,0,0,1,4.53-4.74,4.06,4.06,0,0,1,4.08,2.68,6.88,6.88,0,0,1,.41,2.34,3,3,0,0,0,0,.36Zm4.24-1.74a2.19,2.19,0,0,0-.42-1,2,2,0,0,0-1.64-.72,2.05,2.05,0,0,0-2.13,1.77Z"/><path class="cls-7" d="M317.85,114a14.83,14.83,0,0,0-.11,2.09v4.6l2-2a8.57,8.57,0,0,0,1.24-1.42h3.41c-.71.61-.81.7-1.55,1.42l-2.18,2.06,2.56,3.57a19.9,19.9,0,0,0,1.38,1.83h-3.26a8.48,8.48,0,0,0-1-1.85l-1.39-2.13-1.2,1.14v.78a11.5,11.5,0,0,0,.12,2.06h-2.6a14.08,14.08,0,0,0,.12-2.1v-8a12.87,12.87,0,0,0-.12-2.09Z"/><path class="cls-7" d="M327.83,123.29a1.55,1.55,0,0,0,.33.73,2.06,2.06,0,0,0,1.56.51c1,0,1.61-.34,1.61-.9a.69.69,0,0,0-.32-.58,3.81,3.81,0,0,0-1.38-.42,11.06,11.06,0,0,1-2.48-.68,2.3,2.3,0,0,1-1.43-2.14c0-1.73,1.44-2.78,3.79-2.78a4.38,4.38,0,0,1,3,.92,2.76,2.76,0,0,1,.89,1.63l-2.44.29c-.09-.71-.53-1-1.44-1s-1.47.3-1.47.8a.69.69,0,0,0,.47.6,6.39,6.39,0,0,0,1.38.39,7.73,7.73,0,0,1,2.64.84,2.2,2.2,0,0,1,1.15,2c0,1.86-1.52,3-4.09,3-1.77,0-3-.48-3.71-1.42a3.33,3.33,0,0,1-.59-1.44Z"/></g><path id="Home_Indicator-2-2" data-name="Home Indicator-2" class="cls-7" d="M123,801.18H252a2.5,2.5,0,0,1,2.5,2.5h0a2.5,2.5,0,0,1-2.5,2.5H123a2.5,2.5,0,0,1-2.5-2.5h0A2.5,2.5,0,0,1,123,801.18Z"/></svg>