<?xml version="1.0" encoding="utf-8"?>
<!-- Generator: Adobe Illustrator 25.4.1, SVG Export Plug-In . SVG Version: 6.00 Build 0)  -->
<svg version="1.1" id="Layer_1" xmlns="http://www.w3.org/2000/svg" xmlns:xlink="http://www.w3.org/1999/xlink" x="0px" y="0px"
	 viewBox="0 0 375 812" style="enable-background:new 0 0 375 812;" xml:space="preserve">
<style type="text/css">
	.st0{fill:#B0DBD6;}
	.st1{fill:#71CAC4;}
	.st2{opacity:0.35;}
	.st3{fill:none;}
	.st4{fill:none;stroke:#FFFFFF;stroke-miterlimit:10;}
	.st5{opacity:0.4;fill:#FFFFFF;enable-background:new    ;}
	.st6{fill:#FFFFFF;}
	.st7{font-family:'Helvetica';}
	.st8{font-size:15.3996px;}
	.st9{fill:#71CAC4;stroke:#FFFFFF;stroke-miterlimit:10;}
	.st10{opacity:0.24;fill:#FFF9F8;}
	.st11{fill:none;stroke:#FFFFFF;stroke-width:0.5;stroke-miterlimit:10;}
	.st12{fill:none;stroke:#5ABE89;stroke-width:14;stroke-miterlimit:10;}
	.st13{fill:none;stroke:#71CAC4;stroke-width:14;stroke-miterlimit:10;}
	.st14{fill:#5ABE89;stroke:#33C2DA;stroke-width:14;stroke-miterlimit:10;}
	.st15{fill:none;stroke:#50A3DA;stroke-width:14;stroke-miterlimit:10;}
	.st16{fill:#33C2DA;}
	.st17{opacity:0.72;}
</style>
<rect y="0" class="st0" width="375" height="812"/>
<path class="st1" d="M351.2,166.1H24.9c-13.4,0-24.3-10.9-24.3-24.3V0.9h375v140.9C375.5,155.2,364.7,166.1,351.2,166.1z"/>
<g id="Status_Bar-2_1_" transform="translate(21 13)">
	<g id="Battery_1_" transform="translate(315 3)">
		<g id="Border_1_" transform="translate(0.333 0.333)" class="st2">
			<path class="st3" d="M1.7-1.7h17.7c1.6,0,2.8,1.2,2.8,2.7v6.2c0,1.5-1.3,2.7-2.8,2.7H1.7c-1.6,0-2.8-1.2-2.8-2.7V1.1
				C-1.1-0.4,0.2-1.7,1.7-1.7z"/>
			<path class="st4" d="M1.7-1.1h17.7c1.3,0,2.3,1,2.3,2.2v6.2c0,1.2-1,2.2-2.3,2.2H1.7c-1.3,0-2.3-1-2.3-2.2V1.1
				C-0.6-0.1,0.5-1.1,1.7-1.1z"/>
		</g>
		<path id="Cap_1_" class="st5" d="M23.7,2.4v4.1c0.9-0.3,1.4-1.2,1.4-2.1C25.1,3.6,24.5,2.8,23.7,2.4"/>
		<path id="Capacity_1_" class="st6" d="M2.8,0.7h16.3c0.8,0,1.4,0.6,1.4,1.4v4.8c0,0.8-0.6,1.4-1.4,1.4H2.8C2,8.3,1.3,7.7,1.3,6.9
			V2.1C1.3,1.3,2,0.7,2.8,0.7z"/>
	</g>
	<path id="Wifi_1_" class="st6" d="M300.8,13c-0.1,0-0.2,0-0.2-0.1l-2.1-2.1c-0.1-0.1-0.1-0.1-0.1-0.2c0-0.1,0-0.2,0.1-0.2
		c1.4-1.1,3.4-1.1,4.7,0c0.1,0.1,0.1,0.3,0,0.5c0,0,0,0,0,0l-2.1,2.1C300.9,12.9,300.9,13,300.8,13z M304.5,9.3
		c-0.1,0-0.2,0-0.2-0.1c-2-1.7-5-1.7-7,0c-0.1,0.1-0.1,0.1-0.2,0.1c-0.1,0-0.2,0-0.2-0.1L295.6,8c-0.1-0.1-0.1-0.3,0-0.5
		c0,0,0,0,0,0c2.9-2.6,7.5-2.6,10.4,0c0.1,0.1,0.1,0.1,0.1,0.2c0,0.1,0,0.2-0.1,0.2l-1.2,1.2C304.7,9.3,304.6,9.3,304.5,9.3z
		 M307.3,6.6c-0.1,0-0.2,0-0.2-0.1c-3.6-3.3-9.1-3.3-12.7,0c-0.1,0.1-0.3,0.1-0.5,0c0,0,0,0,0,0l-1.2-1.2c-0.1-0.1-0.1-0.3,0-0.5
		c0,0,0,0,0,0c4.5-4.2,11.6-4.2,16.1,0c0.1,0.1,0.1,0.3,0,0.5c0,0,0,0,0,0l-1.2,1.2C307.5,6.5,307.4,6.6,307.3,6.6z"/>
	<path id="Cellular_Connection_1_" class="st6" d="M286.3,13h-1.1c-0.6,0-1.1-0.5-1.1-1V3.1c0-0.6,0.5-1,1.1-1h1.1
		c0.6,0,1.1,0.5,1.1,1v8.9C287.3,12.5,286.8,13,286.3,13z M281.3,13h-1.1c-0.6,0-1.1-0.5-1.1-1V5.4c0-0.6,0.5-1,1.1-1h1.1
		c0.6,0,1.1,0.5,1.1,1v6.5C282.4,12.5,281.9,13,281.3,13L281.3,13z M276.3,13h-1.1c-0.6,0-1.1-0.5-1.1-1V7.8c0-0.6,0.5-1,1.1-1h1.1
		c0.6,0,1.1,0.5,1.1,1v4.1C277.4,12.5,276.9,13,276.3,13L276.3,13z M271.4,13h-1.1c-0.6,0-1.1-0.5-1.1-1V9.9c0-0.6,0.5-1,1.1-1h1.1
		c0.6,0,1.1,0.5,1.1,1v2.1C272.4,12.5,272,13,271.4,13z"/>
	<g id="Time_Style_1_">
		<text transform="matrix(1.0346 0 0 1 -7.0634 10.5863)" class="st6 st7 st8">9:41</text>
	</g>
</g>
<path class="st1" d="M374.9,811.9H0.1v-84.7c0-10.7,8.7-19.4,19.4-19.4h336.1c10.7,0,19.4,8.7,19.4,19.4V811.9z"/>
<polygon class="st4" points="46.5,727.3 42,729.1 36.4,725.2 32.3,729 36.4,734.5 34.4,738.7 27.8,740 27.8,745.5 34.5,746.6 
	36.4,750.9 32.4,756.2 36.6,760.1 42.1,756.4 46.7,758.3 48,764.8 53.4,764.9 54.7,758.4 59.6,756.5 65,760.4 69.2,756.3 65,751.1 
	66.6,747.1 73.5,745.9 73.4,740.4 66.9,739.2 64.7,734.7 68.5,729.5 64.5,725.7 59.1,729.1 54.6,727.5 53.3,720.8 47.3,720.8 "/>
<circle class="st9" cx="50.7" cy="742.8" r="6.9"/>
<g>
	<path class="st6" d="M29.4,780.4c0,0.6,0.1,0.9,0.4,1.2c0.4,0.6,1.2,0.9,2.2,0.9c1.6,0,2.5-0.7,2.5-1.9c0-0.6-0.3-1.1-0.8-1.3
		c-0.4-0.2-0.6-0.3-2-0.6c-0.8-0.2-1.3-0.3-1.7-0.5c-0.8-0.4-1.2-1.1-1.2-1.9c0-1.5,1.2-2.4,3.1-2.4c1.2,0,2.1,0.4,2.7,1.1
		c0.3,0.3,0.4,0.6,0.5,1.2l-0.9,0.1c-0.1-0.5-0.2-0.7-0.5-1c-0.4-0.5-1.1-0.7-1.9-0.7c-1.4,0-2.3,0.7-2.3,1.7c0,0.7,0.4,1.1,1.1,1.4
		c0.4,0.1,0.4,0.1,1.8,0.4c2,0.4,2.7,1.1,2.7,2.5c0,1.6-1.2,2.6-3.3,2.6c-1.4,0-2.4-0.4-2.9-1.2c-0.3-0.4-0.4-0.8-0.6-1.5
		L29.4,780.4z"/>
	<path class="st6" d="M37.4,779.9c0,0.8,0.2,1.3,0.5,1.8c0.4,0.6,1.1,0.9,1.8,0.9c0.7,0,1.3-0.3,1.7-0.7c0.2-0.2,0.3-0.4,0.4-0.7
		l0.7,0.3c-0.3,0.5-0.4,0.7-0.7,1c-0.6,0.5-1.3,0.8-2.2,0.8c-1.9,0-3.1-1.3-3.1-3.3c0-2,1.2-3.3,3-3.3c1.5,0,2.6,0.9,2.9,2.4
		c0,0.1,0,0.4,0.1,1H37.4z M41.8,779.2c-0.1-0.6-0.2-1-0.5-1.3c-0.4-0.5-1-0.8-1.7-0.8c-1.2,0-2,0.8-2.2,2.1H41.8z"/>
	<path class="st6" d="M45.9,774.9c-0.1,0.4-0.1,0.8-0.1,1.3v0.5h0.6c0.6,0,0.9,0,1.3-0.1v0.8c-0.4-0.1-0.7-0.1-1.3-0.1h-0.6v4.3
		c0,0.3,0.1,0.5,0.2,0.7c0.1,0.1,0.4,0.2,0.6,0.2c0.3,0,0.6-0.1,1-0.3l0.3,0.7c-0.5,0.2-0.9,0.3-1.4,0.3c-0.5,0-0.9-0.1-1.1-0.4
		c-0.2-0.2-0.3-0.6-0.3-1.1v-4.4h-0.5c-0.4,0-0.7,0-1.1,0.1v-0.8c0.3,0.1,0.6,0.1,1.1,0.1H45v-0.5c0-0.5,0-0.9-0.1-1.3H45.9z"/>
	<path class="st6" d="M50.7,774.9c-0.1,0.4-0.1,0.8-0.1,1.3v0.5h0.6c0.6,0,0.9,0,1.3-0.1v0.8c-0.4-0.1-0.7-0.1-1.3-0.1h-0.6v4.3
		c0,0.3,0,0.5,0.2,0.7c0.1,0.1,0.4,0.2,0.6,0.2c0.3,0,0.6-0.1,1-0.3l0.3,0.7c-0.5,0.2-0.9,0.3-1.4,0.3c-0.5,0-0.9-0.1-1.1-0.4
		c-0.2-0.2-0.3-0.6-0.3-1.1v-4.4h-0.5c-0.4,0-0.7,0-1.1,0.1v-0.8c0.3,0.1,0.6,0.1,1.1,0.1h0.5v-0.5c0-0.5,0-0.9-0.1-1.3H50.7z"/>
	<path class="st6" d="M54.7,774v1h-1.1v-1H54.7z M54.7,776.6c-0.1,0.4-0.1,0.7-0.1,1.3v3.8c0,0.5,0,0.8,0.1,1.3h-1
		c0.1-0.5,0.1-0.8,0.1-1.3v-3.8c0-0.5,0-0.9-0.1-1.3H54.7z"/>
	<path class="st6" d="M56.6,783c0.1-0.4,0.1-0.8,0.1-1.3v-3.8c0-0.5,0-0.8-0.1-1.3h0.9v0.9c0,0.1,0,0.3,0,0.5
		c0.2-0.4,0.4-0.6,0.6-0.9c0.5-0.5,1.1-0.7,1.9-0.7c1.5,0,2.3,0.8,2.3,2.2v3c0,0.6,0,0.9,0.1,1.3h-1c0.1-0.5,0.1-0.8,0.1-1.3v-2.8
		c0-1.1-0.6-1.7-1.7-1.7c-0.7,0-1.3,0.3-1.8,1c-0.3,0.4-0.5,0.7-0.5,1.2v2.3c0,0.5,0,0.8,0.1,1.3H56.6z"/>
	<path class="st6" d="M70.2,776.6c-0.1,0.4-0.1,0.7-0.1,1.3v4.4c0,1.1-0.2,1.8-0.7,2.4c-0.5,0.6-1.4,1-2.5,1c-1.2,0-1.9-0.3-2.7-1.2
		l0.7-0.4c0.2,0.2,0.2,0.3,0.4,0.4c0.5,0.4,1,0.6,1.7,0.6c1.2,0,1.9-0.5,2.2-1.4c0.1-0.4,0.1-0.4,0.2-1.9c-0.2,0.3-0.3,0.5-0.6,0.7
		c-0.5,0.4-1.2,0.7-2,0.7c-1.9,0-3-1.2-3-3.2c0-2,1.2-3.3,3-3.3c1.2,0,2,0.4,2.5,1.4c0-0.2,0-0.3,0-0.5v-0.8H70.2z M66.9,782.4
		c1.5,0,2.5-1.1,2.5-2.7c0-1.6-0.9-2.6-2.4-2.6c-1.4,0-2.3,1-2.3,2.7C64.6,781.4,65.5,782.4,66.9,782.4z"/>
	<path class="st6" d="M72.5,781.1c0.1,0.4,0.2,0.7,0.4,0.9c0.3,0.3,0.9,0.4,1.5,0.4c1.1,0,1.9-0.5,1.9-1.2c0-0.4-0.1-0.6-0.4-0.8
		c-0.3-0.2-0.6-0.3-1.5-0.5c-1-0.2-1.5-0.3-1.9-0.6c-0.4-0.3-0.6-0.7-0.6-1.2c0-0.4,0.2-0.8,0.5-1.1c0.4-0.4,1.1-0.6,1.9-0.6
		c0.8,0,1.4,0.2,1.9,0.5c0.3,0.3,0.5,0.5,0.7,1.1l-0.8,0.1c-0.1-0.3-0.2-0.5-0.3-0.7c-0.3-0.3-0.8-0.5-1.4-0.5c-1,0-1.6,0.5-1.6,1.2
		c0,0.3,0.2,0.6,0.4,0.7c0.3,0.2,0.6,0.3,1.4,0.4c1.3,0.3,1.7,0.4,2,0.7c0.3,0.3,0.5,0.7,0.5,1.2c0,1.2-1,1.9-2.7,1.9
		c-1.1,0-1.9-0.3-2.4-0.9c-0.2-0.2-0.3-0.4-0.4-0.9L72.5,781.1z"/>
</g>
<g>
	<ellipse class="st4" cx="243.1" cy="743" rx="20.3" ry="20"/>
	<polyline class="st4" points="252.3,751.1 241.7,744.1 241.8,731.1 	"/>
</g>
<g>
	<path class="st6" d="M231.1,772.1c-0.1,0.5-0.1,0.7-0.1,1.3v6.4c0,0.6,0,0.9,0.1,1.3h-0.9c0.1-0.4,0.1-0.7,0.1-1.3v-3.1h-5.6v3.1
		c0,0.6,0,0.9,0.1,1.3h-0.9c0.1-0.4,0.1-0.7,0.1-1.3v-6.4c0-0.6,0-0.9-0.1-1.3h0.9c-0.1,0.4-0.1,0.7-0.1,1.3v2.6h5.6v-2.6
		c0-0.5,0-0.9-0.1-1.3H231.1z"/>
	<path class="st6" d="M233.9,772.1v1h-1v-1H233.9z M233.8,774.7c-0.1,0.4-0.1,0.7-0.1,1.3v3.8c0,0.5,0,0.8,0.1,1.3h-0.9
		c0.1-0.5,0.1-0.8,0.1-1.3V776c0-0.5,0-0.9-0.1-1.3H233.8z"/>
	<path class="st6" d="M236.1,779.2c0.1,0.4,0.2,0.7,0.4,0.9c0.3,0.3,0.8,0.4,1.4,0.4c1.1,0,1.8-0.5,1.8-1.2c0-0.4-0.1-0.6-0.4-0.8
		c-0.3-0.2-0.6-0.3-1.4-0.5c-1-0.2-1.4-0.3-1.8-0.6c-0.3-0.3-0.5-0.7-0.5-1.2c0-0.4,0.2-0.8,0.5-1.1c0.4-0.4,1-0.6,1.8-0.6
		c0.8,0,1.4,0.2,1.8,0.5c0.3,0.3,0.5,0.5,0.6,1.1l-0.8,0.1c-0.1-0.3-0.1-0.5-0.3-0.7c-0.3-0.3-0.8-0.5-1.3-0.5
		c-0.9,0-1.6,0.5-1.6,1.2c0,0.3,0.2,0.6,0.4,0.7c0.3,0.2,0.6,0.3,1.4,0.4c1.2,0.3,1.6,0.4,1.9,0.7c0.3,0.3,0.5,0.7,0.5,1.2
		c0,1.2-1,1.9-2.6,1.9c-1,0-1.8-0.3-2.3-0.9c-0.2-0.2-0.3-0.4-0.4-0.9L236.1,779.2z"/>
	<path class="st6" d="M243.5,772.9c-0.1,0.4-0.1,0.8-0.1,1.3v0.5h0.6c0.6,0,0.8,0,1.2-0.1v0.8c-0.4-0.1-0.7-0.1-1.2-0.1h-0.6v4.3
		c0,0.3,0,0.5,0.2,0.7c0.1,0.1,0.3,0.2,0.6,0.2c0.3,0,0.6-0.1,1-0.3l0.3,0.7c-0.5,0.2-0.9,0.3-1.3,0.3c-0.5,0-0.9-0.1-1.1-0.4
		c-0.2-0.2-0.3-0.6-0.3-1.1v-4.4h-0.5c-0.4,0-0.7,0-1.1,0.1v-0.8c0.3,0.1,0.6,0.1,1.1,0.1h0.5v-0.5c0-0.5,0-0.9-0.1-1.3H243.5z"/>
	<path class="st6" d="M246.1,777.9c0-2,1.2-3.3,3.1-3.3c1.9,0,3.1,1.3,3.1,3.3c0,2-1.2,3.3-3.1,3.3
		C247.3,781.2,246.1,779.9,246.1,777.9z M246.9,777.9c0,1.7,0.9,2.7,2.3,2.7c1.4,0,2.3-1,2.3-2.7c0-1.7-0.9-2.7-2.3-2.7
		C247.8,775.2,246.9,776.2,246.9,777.9z"/>
	<path class="st6" d="M257.5,775.5c-0.4-0.1-0.6-0.2-0.9-0.2c-0.6,0-1.1,0.3-1.5,0.8c-0.3,0.4-0.4,0.7-0.4,1.2v2.5
		c0,0.5,0,0.8,0.1,1.3h-0.9c0.1-0.5,0.1-0.9,0.1-1.3V776c0-0.6,0-0.9-0.1-1.3h0.8v0.8c0,0,0,0,0,0.1v0.1c0,0.1,0,0.1,0,0.1
		c0.2-0.3,0.4-0.5,0.6-0.7c0.4-0.3,0.9-0.5,1.5-0.5c0.3,0,0.5,0,1,0.1L257.5,775.5z"/>
	<path class="st6" d="M258.6,776.1c-0.5-1.1-0.5-1.1-0.6-1.4h1c0.1,0.3,0.2,0.8,0.4,1.2l1.8,4.2l1.6-4.2c0.2-0.6,0.3-0.9,0.4-1.2
		h0.9c-0.1,0.2-0.3,0.7-0.6,1.4l-2.7,6.6c-0.3,0.7-0.8,1-1.5,1c-0.3,0-0.5,0-0.9-0.1l0.3-0.8c0.3,0.2,0.5,0.2,0.7,0.2
		c0.4,0,0.7-0.2,0.9-0.7l0.6-1.4L258.6,776.1z"/>
</g>
<polyline class="st4" points="122.1,742.2 129.5,742.2 137.6,724 152.1,760.1 161.4,742.3 167.9,742.3 "/>
<g>
	<path class="st6" d="M123.3,781.5c-0.1-0.3-0.2-0.6-0.4-1.2l-2.6-5.3c-0.2-0.5-0.4-0.9-0.7-1.8c0.1,1.2,0.1,1.7,0.1,2.1v4.7
		c0,0.6,0,0.9,0.1,1.3h-1c0.1-0.4,0.1-0.8,0.1-1.3v-6.4c0-0.5,0-0.9-0.1-1.3h1.2c0.1,0.4,0.2,0.8,0.4,1.1l3.3,6.8l3.3-6.8
		c0.2-0.5,0.4-0.8,0.4-1.1h1.2c-0.1,0.4-0.1,0.8-0.1,1.3v6.4c0,0.6,0,0.9,0.1,1.3h-1c0.1-0.4,0.1-0.8,0.1-1.3v-4.7
		c0-0.4,0-0.8,0.1-2.1c-0.3,0.8-0.5,1.3-0.7,1.7l-2.6,5.3c-0.3,0.5-0.4,0.8-0.5,1.2H123.3z"/>
	<path class="st6" d="M131,778.4c0,0.8,0.2,1.3,0.5,1.8c0.4,0.6,1.1,0.9,1.8,0.9c0.7,0,1.3-0.3,1.7-0.7c0.2-0.2,0.3-0.4,0.4-0.7
		l0.7,0.3c-0.3,0.5-0.4,0.7-0.7,1c-0.6,0.5-1.3,0.8-2.2,0.8c-1.9,0-3.1-1.3-3.1-3.3c0-2,1.2-3.3,3-3.3c1.6,0,2.7,0.9,2.9,2.4
		c0,0.1,0.1,0.4,0.1,1H131z M135.4,777.8c-0.1-0.6-0.2-1-0.5-1.3c-0.4-0.5-1-0.8-1.7-0.8c-1.2,0-2,0.8-2.2,2.1H135.4z"/>
	<path class="st6" d="M142.3,780.6c-0.5,0.5-0.8,0.6-1.2,0.8c-0.4,0.2-0.9,0.2-1.3,0.2c-1.3,0-2.2-0.7-2.2-1.8c0-1,0.7-1.7,1.9-2
		c0.7-0.2,1.3-0.2,2.8-0.3v-0.8c0-0.8-0.6-1.3-1.6-1.3c-0.7,0-1.3,0.2-1.6,0.6c-0.2,0.2-0.3,0.3-0.4,0.7l-0.8-0.2
		c0.2-0.5,0.4-0.8,0.6-1c0.5-0.5,1.2-0.7,2.1-0.7c1.6,0,2.4,0.7,2.4,1.9v3.4c0,0.5,0,0.8,0.1,1.3h-0.8V780.6z M142.3,778.3
		c-1.6,0-2.4,0.1-2.9,0.4c-0.6,0.3-0.9,0.7-0.9,1.3c0,0.7,0.6,1.1,1.4,1.1c0.7,0,1.6-0.4,2.1-0.9c0.3-0.3,0.4-0.5,0.4-1V778.3z"/>
	<path class="st6" d="M145.5,779.7c0.1,0.4,0.2,0.7,0.4,0.9c0.3,0.3,0.9,0.4,1.5,0.4c1.2,0,1.9-0.5,1.9-1.2c0-0.4-0.1-0.6-0.4-0.8
		c-0.3-0.2-0.6-0.3-1.5-0.5c-1-0.2-1.5-0.3-1.9-0.6c-0.4-0.3-0.6-0.7-0.6-1.2c0-0.4,0.2-0.8,0.5-1.1c0.4-0.4,1.1-0.6,1.9-0.6
		c0.8,0,1.4,0.2,1.9,0.5c0.3,0.3,0.5,0.5,0.7,1.1l-0.8,0.1c-0.1-0.3-0.2-0.5-0.3-0.7c-0.3-0.3-0.8-0.5-1.4-0.5c-1,0-1.7,0.5-1.7,1.2
		c0,0.3,0.2,0.6,0.4,0.7c0.3,0.2,0.6,0.3,1.4,0.4c1.3,0.3,1.7,0.4,2,0.7c0.3,0.3,0.5,0.7,0.5,1.2c0,1.2-1,1.9-2.7,1.9
		c-1.1,0-1.9-0.3-2.4-0.9c-0.2-0.2-0.3-0.4-0.4-0.9L145.5,779.7z"/>
	<path class="st6" d="M156.5,780.7c0-0.1,0-0.3,0-0.5c-0.6,1-1.4,1.5-2.6,1.5c-1.5,0-2.3-0.8-2.3-2.2v-3c0-0.5,0-0.9-0.1-1.3h1
		c-0.1,0.4-0.1,0.8-0.1,1.3v2.8c0,1.1,0.6,1.7,1.7,1.7c0.7,0,1.4-0.4,1.9-1c0.3-0.4,0.4-0.7,0.5-1.2v-2.3c0-0.5,0-0.9-0.1-1.3h1
		c-0.1,0.4-0.1,0.8-0.1,1.3v3.8c0,0.5,0,0.8,0.1,1.3h-0.9V780.7z"/>
	<path class="st6" d="M163.1,776c-0.5-0.1-0.7-0.2-1-0.2c-0.7,0-1.2,0.3-1.6,0.8c-0.3,0.4-0.4,0.7-0.5,1.2v2.5c0,0.5,0,0.8,0.1,1.3
		h-1c0.1-0.5,0.1-0.9,0.1-1.3v-3.8c0-0.6,0-0.9-0.1-1.3h0.9v0.8c0,0,0,0,0,0.1v0.1c0,0.1,0,0.1,0,0.1c0.2-0.3,0.4-0.5,0.6-0.7
		c0.5-0.3,0.9-0.5,1.6-0.5c0.3,0,0.5,0,1,0.1L163.1,776z"/>
	<path class="st6" d="M164.9,778.4c0,0.8,0.2,1.3,0.5,1.8c0.4,0.6,1.1,0.9,1.8,0.9c0.7,0,1.3-0.3,1.7-0.7c0.2-0.2,0.3-0.4,0.4-0.7
		l0.7,0.3c-0.3,0.5-0.4,0.7-0.7,1c-0.6,0.5-1.3,0.8-2.2,0.8c-1.9,0-3.1-1.3-3.1-3.3c0-2,1.2-3.3,3-3.3c1.6,0,2.7,0.9,2.9,2.4
		c0,0.1,0.1,0.4,0.1,1H164.9z M169.4,777.8c-0.1-0.6-0.2-1-0.5-1.3c-0.4-0.5-1-0.8-1.7-0.8c-1.2,0-2,0.8-2.2,2.1H169.4z"/>
</g>
<path class="st10" d="M374.9,811.9h-78.1V707.8h58.9c10.6,0,19.2,8.6,19.2,19.2V811.9z"/>
<g>
	<rect x="318.4" y="722" class="st4" width="7.1" height="43.3"/>
	<rect x="331.6" y="727" class="st4" width="7.1" height="38.2"/>
	<rect x="344.8" y="741.6" class="st4" width="7.1" height="23.6"/>
</g>
<g>
	<path class="st6" d="M316.2,773.1c-0.1,0.4-0.1,0.8-0.1,1.3v6.4c0,0.5,0,0.9,0.1,1.3h-0.9c0.1-0.4,0.1-0.7,0.1-1.3v-6.4
		c0-0.6,0-0.9-0.1-1.3H316.2z"/>
	<path class="st6" d="M317.9,782.1c0.1-0.4,0.1-0.8,0.1-1.3V777c0-0.5,0-0.8-0.1-1.3h0.8v0.9c0,0.1,0,0.3,0,0.5
		c0.2-0.4,0.3-0.6,0.6-0.9c0.5-0.5,1-0.7,1.7-0.7c1.3,0,2,0.8,2,2.2v3c0,0.6,0,0.9,0.1,1.3h-0.9c0.1-0.5,0.1-0.8,0.1-1.3v-2.8
		c0-1.1-0.5-1.7-1.5-1.7c-0.6,0-1.2,0.3-1.6,1c-0.3,0.4-0.4,0.7-0.5,1.2v2.3c0,0.5,0,0.8,0.1,1.3H317.9z"/>
	<path class="st6" d="M325.1,780.2c0.1,0.4,0.2,0.7,0.4,0.9c0.3,0.3,0.8,0.4,1.3,0.4c1,0,1.7-0.5,1.7-1.2c0-0.4-0.1-0.6-0.4-0.8
		c-0.3-0.2-0.6-0.3-1.4-0.5c-0.9-0.2-1.3-0.3-1.7-0.6c-0.3-0.3-0.5-0.7-0.5-1.2c0-0.4,0.2-0.8,0.5-1.1c0.4-0.4,1-0.6,1.7-0.6
		c0.7,0,1.3,0.2,1.7,0.5c0.3,0.3,0.4,0.5,0.6,1.1l-0.7,0.1c-0.1-0.3-0.1-0.5-0.3-0.7c-0.3-0.3-0.7-0.5-1.2-0.5
		c-0.9,0-1.5,0.5-1.5,1.2c0,0.3,0.1,0.6,0.4,0.7c0.3,0.2,0.6,0.3,1.3,0.4c1.1,0.3,1.5,0.4,1.8,0.7c0.3,0.3,0.5,0.7,0.5,1.2
		c0,1.2-0.9,1.9-2.4,1.9c-1,0-1.7-0.3-2.1-0.9c-0.2-0.2-0.2-0.4-0.3-0.9L325.1,780.2z"/>
	<path class="st6" d="M331.4,773.1v1h-0.9v-1H331.4z M331.4,775.7c-0.1,0.4-0.1,0.7-0.1,1.3v3.8c0,0.5,0,0.8,0.1,1.3h-0.9
		c0.1-0.5,0.1-0.8,0.1-1.3V777c0-0.5,0-0.9-0.1-1.3H331.4z"/>
	<path class="st6" d="M338.4,775.7c-0.1,0.4-0.1,0.7-0.1,1.3v4.4c0,1.1-0.2,1.8-0.6,2.4c-0.4,0.6-1.2,1-2.3,1
		c-1.1,0-1.7-0.3-2.4-1.2l0.6-0.4c0.1,0.2,0.2,0.3,0.3,0.4c0.4,0.4,0.9,0.6,1.5,0.6c1,0,1.7-0.5,2-1.4c0.1-0.4,0.1-0.4,0.2-1.9
		c-0.2,0.3-0.3,0.5-0.5,0.7c-0.4,0.4-1.1,0.7-1.8,0.7c-1.7,0-2.7-1.2-2.7-3.2c0-2,1.1-3.3,2.7-3.3c1.1,0,1.8,0.4,2.2,1.4
		c0-0.2,0-0.3,0-0.5v-0.8H338.4z M335.5,781.5c1.3,0,2.2-1.1,2.2-2.7c0-1.6-0.8-2.6-2.1-2.6c-1.3,0-2.1,1-2.1,2.7
		C333.5,780.5,334.2,781.5,335.5,781.5z"/>
	<path class="st6" d="M340.1,782.1c0.1-0.4,0.1-0.7,0.1-1.3v-6.4c0-0.6,0-0.9-0.1-1.3h0.8c-0.1,0.4-0.1,0.7-0.1,1.3v2.2
		c0,0.2,0,0.3,0,0.6c0.2-0.4,0.3-0.6,0.6-0.9c0.5-0.5,1-0.7,1.7-0.7c1.3,0,2.1,0.8,2.1,2.2v3c0,0.5,0,0.8,0.1,1.3h-0.9
		c0.1-0.4,0.1-0.7,0.1-1.3v-2.9c0-0.5-0.1-1-0.4-1.2c-0.2-0.3-0.6-0.4-1-0.4c-0.4,0-0.9,0.2-1.2,0.4c-0.4,0.3-0.7,0.8-0.9,1.3
		c-0.1,0.2-0.1,0.3-0.1,0.6v2.3c0,0.5,0,0.9,0.1,1.3H340.1z"/>
	<path class="st6" d="M348.3,774c-0.1,0.4-0.1,0.8-0.1,1.3v0.5h0.5c0.5,0,0.8,0,1.2-0.1v0.8c-0.4-0.1-0.6-0.1-1.2-0.1h-0.5v4.3
		c0,0.3,0,0.5,0.1,0.7c0.1,0.1,0.3,0.2,0.5,0.2c0.3,0,0.5-0.1,0.9-0.3l0.2,0.7c-0.5,0.2-0.8,0.3-1.3,0.3c-0.4,0-0.8-0.1-1-0.4
		c-0.2-0.2-0.3-0.6-0.3-1.1v-4.4h-0.4c-0.4,0-0.6,0-1,0.1v-0.8c0.3,0.1,0.5,0.1,1,0.1h0.4v-0.5c0-0.5,0-0.9-0.1-1.3H348.3z"/>
	<path class="st6" d="M351.5,780.2c0.1,0.4,0.2,0.7,0.4,0.9c0.3,0.3,0.8,0.4,1.3,0.4c1,0,1.7-0.5,1.7-1.2c0-0.4-0.1-0.6-0.4-0.8
		c-0.3-0.2-0.6-0.3-1.4-0.5c-0.9-0.2-1.3-0.3-1.7-0.6c-0.3-0.3-0.5-0.7-0.5-1.2c0-0.4,0.2-0.8,0.5-1.1c0.4-0.4,1-0.6,1.7-0.6
		c0.7,0,1.3,0.2,1.7,0.5c0.3,0.3,0.4,0.5,0.6,1.1l-0.7,0.1c-0.1-0.3-0.1-0.5-0.3-0.7c-0.3-0.3-0.7-0.5-1.2-0.5
		c-0.9,0-1.5,0.5-1.5,1.2c0,0.3,0.1,0.6,0.4,0.7c0.3,0.2,0.6,0.3,1.3,0.4c1.1,0.3,1.5,0.4,1.8,0.7c0.3,0.3,0.5,0.7,0.5,1.2
		c0,1.2-0.9,1.9-2.4,1.9c-1,0-1.7-0.3-2.1-0.9c-0.2-0.2-0.2-0.4-0.3-0.9L351.5,780.2z"/>
</g>
<g>
	<path class="st6" d="M23.7,214.6c0-0.3-0.2-1-0.3-1.4l-1.7-5.5c-0.2-0.5-0.3-1-0.4-1.7c-0.2,0.7-0.3,1.3-0.4,1.7l-1.6,5.5
		c-0.2,0.7-0.3,1.1-0.4,1.4h-1.6c-0.1-0.3-0.1-0.3-0.4-1.4l-2.2-7.9c-0.2-0.8-0.4-1.2-0.6-1.6H16c0,0.4,0.1,0.9,0.3,1.5l1.5,5.6
		c0.1,0.4,0.3,1.1,0.4,1.6c0.1-0.5,0.3-1.3,0.4-1.6l1.7-5.7c0.2-0.5,0.3-1.1,0.3-1.4H22c0.1,0.4,0.2,0.9,0.3,1.4l1.7,5.7
		c0.1,0.3,0.2,0.7,0.4,1.7c0.2-1.1,0.4-1.7,0.4-1.7l1.5-5.6c0.1-0.5,0.2-1.1,0.3-1.5h1.9c-0.2,0.5-0.3,0.8-0.6,1.6l-2.3,7.9
		c-0.3,1.2-0.3,1.2-0.4,1.4H23.7z"/>
	<path class="st6" d="M30.7,211c0.1,0.8,0.2,1.3,0.6,1.7c0.4,0.5,1.1,0.8,1.9,0.8c0.7,0,1.3-0.2,1.8-0.7c0.2-0.2,0.3-0.4,0.4-0.8
		l1.4,0.5c-0.3,0.6-0.5,0.9-0.8,1.2c-0.7,0.7-1.7,1-2.8,1c-2.4,0-3.9-1.6-3.9-4.1c0-2.5,1.5-4.2,3.8-4.2c2,0,3.4,1.2,3.7,3.3
		c0,0.2,0,0.2,0.1,1.2H30.7z M35.2,209.8c-0.1-0.7-0.3-1.1-0.7-1.5c-0.4-0.4-0.9-0.6-1.6-0.6c-0.8,0-1.5,0.4-1.9,1.1
		c-0.2,0.3-0.3,0.5-0.4,1H35.2z"/>
	<path class="st6" d="M39.4,211c0.1,0.8,0.2,1.3,0.6,1.7c0.4,0.5,1.1,0.8,1.9,0.8c0.7,0,1.3-0.2,1.8-0.7c0.2-0.2,0.3-0.4,0.4-0.8
		l1.4,0.5c-0.3,0.6-0.5,0.9-0.8,1.2c-0.7,0.7-1.7,1-2.8,1c-2.4,0-3.9-1.6-3.9-4.1c0-2.5,1.5-4.2,3.8-4.2c2,0,3.4,1.2,3.7,3.3
		c0,0.2,0,0.2,0.1,1.2H39.4z M43.9,209.8c-0.1-0.7-0.3-1.1-0.7-1.5c-0.4-0.4-0.9-0.6-1.6-0.6c-0.8,0-1.5,0.4-1.9,1.1
		c-0.2,0.3-0.3,0.5-0.4,1H43.9z"/>
	<path class="st6" d="M48.7,203.6c-0.1,0.5-0.1,1-0.1,1.7v4.8l2.3-2.2c0.6-0.6,0.8-0.9,1.1-1.2h2.3c-0.2,0.2-0.2,0.2-0.6,0.5
		c-0.2,0.2-0.3,0.2-0.8,0.8l-2,1.9l2.4,3.2c0.8,1.1,0.9,1.2,1.3,1.6h-2.2c-0.2-0.4-0.4-0.7-0.9-1.5l-1.7-2.4l-1.2,1.1v1
		c0,1.2,0,1.2,0.1,1.7H47c0.1-0.5,0.1-1,0.1-1.7v-7.5c0-0.8,0-1.2-0.1-1.7H48.7z"/>
	<path class="st6" d="M60.1,210.6c0-2.5,1.6-4.1,4-4.1s4,1.6,4,4.1s-1.6,4.2-4,4.2C61.7,214.8,60.1,213.2,60.1,210.6z M61.6,210.6
		c0,1.8,0.9,2.9,2.5,2.9c1.5,0,2.5-1.1,2.5-2.9c0-1.8-0.9-2.9-2.5-2.9C62.6,207.7,61.6,208.8,61.6,210.6z"/>
	<path class="st6" d="M70.2,207.9c-0.5,0-0.9,0-1.3,0.1v-1.4c0.4,0.1,0.8,0.1,1.3,0.1h0.6v-0.8c0-0.9,0.2-1.4,0.6-1.8
		c0.4-0.4,1.1-0.6,2-0.6c0.6,0,1.1,0.1,1.7,0.3l-0.4,1.2c-0.4-0.2-0.8-0.3-1.2-0.3c-0.4,0-0.7,0.1-0.9,0.3c-0.2,0.2-0.2,0.5-0.2,1.1
		v0.7H73c0.6,0,1,0,1.6-0.1v1.4c-0.5-0.1-0.9-0.1-1.6-0.1h-0.7v4.9c0,0.7,0,1.2,0.1,1.7h-1.7c0.1-0.5,0.1-1,0.1-1.7v-4.9H70.2z"/>
	<path class="st6" d="M82.6,212.7c0,0.9,0,1.3,0.1,1.9h-1.8c0.1-0.5,0.1-1,0.1-1.8v-7.4c0-0.7,0-1.2-0.1-1.7c0.5,0,0.9,0,1.7,0h3.9
		c0.8,0,1.2,0,1.8-0.1v1.6c-0.5-0.1-1-0.1-1.8-0.1h-3.9v3.2h3.2c0.8,0,1.3,0,1.8-0.1v1.6c-0.5-0.1-1-0.1-1.8-0.1h-3.2V212.7z"/>
	<path class="st6" d="M90.8,211c0.1,0.8,0.2,1.3,0.6,1.7c0.4,0.5,1.1,0.8,1.9,0.8c0.7,0,1.3-0.2,1.8-0.7c0.2-0.2,0.3-0.4,0.4-0.8
		l1.4,0.5c-0.3,0.6-0.5,0.9-0.8,1.2c-0.7,0.7-1.7,1-2.8,1c-2.4,0-3.9-1.6-3.9-4.1c0-2.5,1.5-4.2,3.8-4.2c2,0,3.4,1.2,3.7,3.3
		c0,0.2,0,0.2,0.1,1.2H90.8z M95.3,209.8c-0.1-0.7-0.3-1.1-0.7-1.5c-0.4-0.4-0.9-0.6-1.6-0.6c-0.8,0-1.5,0.4-1.9,1.1
		c-0.2,0.3-0.3,0.5-0.4,1H95.3z"/>
	<path class="st6" d="M98.4,214.6c0.1-0.6,0.1-1,0.1-1.8v-7.4c0-0.7,0-1.1-0.1-1.8h1.7c-0.1,0.6-0.1,1-0.1,1.8v1.5c0,0.4,0,0.7,0,1
		c0.7-0.9,1.7-1.3,3-1.3c2.2,0,3.6,1.5,3.6,4c0,2.6-1.4,4.2-3.7,4.2c-1.3,0-2.1-0.4-2.9-1.3c0,0,0,0.1,0,0.1c0,0.1,0,0.1,0,0.4v0.6
		H98.4z M102.7,207.8c-1.6,0-2.7,1.1-2.7,2.8c0,1.6,1.1,2.9,2.6,2.9c1.5,0,2.4-1.1,2.4-2.9C105,208.9,104.1,207.8,102.7,207.8z"/>
	<path class="st6" d="M113.1,208.2c-0.5-0.2-0.8-0.2-1.2-0.2c-0.7,0-1.3,0.2-1.7,0.7c-0.3,0.4-0.5,0.8-0.6,1.4v2.7
		c0,0.7,0,1.1,0.1,1.7H108c0.1-0.7,0.1-1.1,0.1-1.7v-4.4c0-0.8,0-1.2-0.1-1.7h1.6v0.6c0,0.1,0,0.4,0,0.5c0.6-0.9,1.3-1.3,2.6-1.3
		c0.4,0,0.8,0,1.3,0.1L113.1,208.2z"/>
	<path class="st6" d="M121.9,206.7c-0.1,0.6-0.1,1-0.1,1.7v4.4c0,0.7,0,1.2,0.1,1.7h-1.6v-0.7c0-0.1,0-0.3,0-0.6
		c-0.7,1-1.6,1.4-2.8,1.4c-1.1,0-1.9-0.4-2.4-1.1c-0.3-0.4-0.5-1-0.5-1.8v-3.4c0-0.7,0-1.2-0.1-1.7h1.7c-0.1,0.6-0.1,1-0.1,1.7v3.2
		c0,1.2,0.5,1.8,1.5,1.8c0.7,0,1.3-0.3,1.8-0.9c0.4-0.4,0.6-0.8,0.8-1.3v-2.8c0-0.6,0-1.1-0.1-1.7H121.9z"/>
	<path class="st6" d="M129.1,213.7c-0.5,0.4-0.8,0.6-1.2,0.7c-0.5,0.2-1,0.3-1.6,0.3c-1.7,0-2.7-0.9-2.7-2.3c0-1,0.7-1.9,1.8-2.3
		c0.9-0.3,1.7-0.4,3.7-0.5V209c0-0.5-0.1-0.8-0.4-1c-0.3-0.2-0.8-0.4-1.3-0.4c-1.2,0-1.8,0.4-2.1,1.3l-1.6-0.3
		c0.3-0.7,0.5-1.1,1-1.4c0.7-0.5,1.5-0.7,2.7-0.7c1.2,0,2,0.2,2.5,0.8c0.4,0.4,0.6,0.9,0.6,1.8v3.8c0,0.7,0,1.1,0.1,1.7h-1.6V213.7z
		 M129.1,210.7c-1.5,0-2.3,0.1-2.9,0.4c-0.7,0.3-1,0.7-1,1.3c0,0.7,0.5,1.1,1.4,1.1c0.7,0,1.5-0.3,2.1-0.8c0.3-0.3,0.5-0.7,0.5-1.2
		V210.7z"/>
	<path class="st6" d="M137.5,208.2c-0.5-0.2-0.8-0.2-1.2-0.2c-0.7,0-1.3,0.2-1.7,0.7c-0.3,0.4-0.5,0.8-0.6,1.4v2.7
		c0,0.7,0,1.1,0.1,1.7h-1.7c0.1-0.7,0.1-1.1,0.1-1.7v-4.4c0-0.8,0-1.2-0.1-1.7h1.6v0.6c0,0.1,0,0.4,0,0.5c0.6-0.9,1.3-1.3,2.6-1.3
		c0.4,0,0.8,0,1.3,0.1L137.5,208.2z"/>
	<path class="st6" d="M139,208.4c-0.6-1.4-0.6-1.4-0.8-1.7h1.8c0.1,0.4,0.3,1,0.5,1.6l1.9,4.3l1.7-4.3c0.3-0.8,0.4-1.2,0.5-1.6h1.8
		c-0.1,0.2-0.3,0.7-0.7,1.7l-3.2,7.6c-0.2,0.6-0.5,0.9-0.9,1.1c-0.4,0.2-0.9,0.3-1.4,0.3c-0.4,0-0.8,0-1.4-0.2l0.3-1.4
		c0.4,0.2,0.7,0.3,1,0.3c0.5,0,0.8-0.3,1.1-0.7l0.5-1.2L139,208.4z"/>
	<path class="st6" d="M153.8,214.6c-1,0-1.2,0-1.7,0.1c0.1-0.9,0.2-1.3,0.4-1.8c0.4-1,1-1.8,1.9-2.6c0.5-0.4,0.9-0.7,2.3-1.6
		s1.7-1.4,1.7-2.3c0-1-0.8-1.6-2.1-1.6c-0.9,0-1.5,0.3-1.9,0.9c-0.2,0.4-0.4,0.7-0.5,1.3l-1.7-0.2c0.2-1,0.4-1.6,0.9-2.2
		c0.7-0.8,1.7-1.2,3.1-1.2c2.3,0,3.8,1.1,3.8,3c0,1.1-0.4,1.8-1.4,2.6c-0.4,0.3-0.6,0.5-1.9,1.3c-1.6,1.1-2.3,1.8-2.7,2.9h4.2
		c0.8,0,1.4,0,1.9-0.1v1.6c-0.6-0.1-1.2-0.1-2-0.1H153.8z"/>
	<path class="st6" d="M163.5,214.6c-1,0-1.2,0-1.7,0.1c0.1-0.9,0.2-1.3,0.4-1.8c0.4-1,1-1.8,1.9-2.6c0.5-0.4,0.9-0.7,2.3-1.6
		s1.7-1.4,1.7-2.3c0-1-0.8-1.6-2.1-1.6c-0.9,0-1.5,0.3-1.9,0.9c-0.2,0.4-0.4,0.7-0.5,1.3l-1.7-0.2c0.2-1,0.4-1.6,0.9-2.2
		c0.7-0.8,1.7-1.2,3.1-1.2c2.3,0,3.8,1.1,3.8,3c0,1.1-0.4,1.8-1.4,2.6c-0.4,0.3-0.6,0.5-1.9,1.3c-1.6,1.1-2.3,1.8-2.7,2.9h4.2
		c0.8,0,1.4,0,1.9-0.1v1.6c-0.6-0.1-1.2-0.1-2-0.1H163.5z"/>
	<path class="st6" d="M173.5,214.6c0,1.1-0.3,1.6-1.2,2l-0.5-0.6c0.8-0.3,0.9-0.5,0.9-1.3h-1v-1.8h1.8V214.6z"/>
	<path class="st6" d="M181.6,214.6c-1,0-1.2,0-1.7,0.1c0.1-0.9,0.2-1.3,0.4-1.8c0.4-1,1-1.8,1.9-2.6c0.5-0.4,0.9-0.7,2.3-1.6
		s1.7-1.4,1.7-2.3c0-1-0.8-1.6-2.1-1.6c-0.9,0-1.5,0.3-1.9,0.9c-0.2,0.4-0.4,0.7-0.5,1.3l-1.7-0.2c0.2-1,0.4-1.6,0.9-2.2
		c0.7-0.8,1.7-1.2,3.1-1.2c2.3,0,3.8,1.1,3.8,3c0,1.1-0.4,1.8-1.4,2.6c-0.4,0.3-0.6,0.5-1.9,1.3c-1.6,1.1-2.3,1.8-2.7,2.9h4.2
		c0.8,0,1.4,0,1.9-0.1v1.6c-0.6-0.1-1.2-0.1-2-0.1H181.6z"/>
	<path class="st6" d="M190.9,213.7c-0.4-0.4-0.7-0.9-0.9-1.4c-0.4-1-0.6-2.1-0.6-3.2c0-1.5,0.3-3,0.8-3.8c0.7-1.2,1.9-1.9,3.4-1.9
		c1.1,0,2.1,0.4,2.8,1.1c0.4,0.4,0.7,0.9,0.9,1.4c0.4,1,0.6,2.1,0.6,3.2c0,1.7-0.4,3.2-1,4.1c-0.8,1.1-1.9,1.6-3.3,1.6
		C192.6,214.8,191.6,214.4,190.9,213.7z M192.1,205.5c-0.3,0.3-0.5,0.7-0.6,1.1c-0.3,0.8-0.4,1.7-0.4,2.6c0,1.2,0.3,2.5,0.6,3.2
		c0.5,0.8,1.1,1.1,2,1.1c0.7,0,1.2-0.2,1.6-0.6c0.3-0.3,0.5-0.7,0.7-1.1c0.3-0.8,0.4-1.7,0.4-2.6c0-1.1-0.2-2.4-0.6-3.1
		c-0.4-0.8-1.1-1.3-2.1-1.3C193,204.7,192.5,205,192.1,205.5z"/>
	<path class="st6" d="M201.1,214.6c-1,0-1.2,0-1.7,0.1c0.1-0.9,0.2-1.3,0.4-1.8c0.4-1,1-1.8,1.9-2.6c0.5-0.4,0.9-0.7,2.3-1.6
		s1.7-1.4,1.7-2.3c0-1-0.8-1.6-2.1-1.6c-0.9,0-1.5,0.3-1.9,0.9c-0.2,0.4-0.4,0.7-0.5,1.3l-1.7-0.2c0.2-1,0.4-1.6,0.9-2.2
		c0.7-0.8,1.7-1.2,3.1-1.2c2.3,0,3.8,1.1,3.8,3c0,1.1-0.4,1.8-1.4,2.6c-0.4,0.3-0.6,0.5-1.9,1.3c-1.6,1.1-2.3,1.8-2.7,2.9h4.2
		c0.8,0,1.4,0,1.9-0.1v1.6c-0.6-0.1-1.2-0.1-2-0.1H201.1z"/>
	<path class="st6" d="M210.6,203.5c0.4,0.1,0.7,0.1,1.3,0.1h1.1c0.6,0,0.8,0,1.3-0.1c-0.1,0.9-0.1,1.5-0.1,2.3v7
		c0,0.7,0,1.2,0.1,1.7h-1.8c0.1-0.5,0.1-1,0.1-1.7V205H212c-0.5,0-0.9,0-1.4,0.1V203.5z"/>
</g>
<g>
	<path class="st6" d="M147.1,109.3c-0.1,0.8-0.2,1.5-0.2,2.9v11.3c0,1.3,0,2.1,0.2,2.9h-3.9c0.1-0.8,0.2-1.6,0.2-2.9v-11.3
		c0-1.4,0-2-0.2-2.9H147.1z"/>
	<path class="st6" d="M149.8,126.3c0.1-0.9,0.2-1.7,0.2-2.9v-6.6c0-1.3,0-2.1-0.2-2.9h3.5v0.8c0,0.2,0,0.4,0,0.8
		c1.3-1.3,2.7-1.9,4.5-1.9c2.8,0,4.4,1.6,4.4,4.5v5.3c0,1.3,0,2.1,0.2,2.9h-3.7c0.1-1,0.2-1.8,0.2-2.9v-4.5c0-1.1-0.2-1.6-0.7-2
		c-0.3-0.2-0.7-0.4-1.3-0.4c-1.3,0-2.6,1-3.5,2.5v4.3c0,1.1,0,1.9,0.2,2.9H149.8z"/>
	<path class="st6" d="M167.6,122.3c0.1,0.5,0.2,0.8,0.5,1c0.4,0.5,1.2,0.7,2.2,0.7c1.4,0,2.2-0.5,2.2-1.3c0-0.3-0.1-0.6-0.4-0.8
		s-0.7-0.3-1.9-0.6c-2-0.4-2.7-0.6-3.5-0.9c-1.3-0.6-2-1.7-2-3c0-2.4,2-3.9,5.3-3.9c1.9,0,3.3,0.4,4.2,1.3c0.7,0.6,1,1.2,1.3,2.3
		l-3.4,0.4c-0.1-1-0.7-1.4-2-1.4s-2.1,0.4-2.1,1.1c0,0.4,0.2,0.7,0.7,0.8c0.4,0.2,0.8,0.3,1.9,0.5c2.2,0.5,2.9,0.7,3.7,1.2
		c1.1,0.6,1.6,1.6,1.6,2.8c0,2.6-2.1,4.1-5.7,4.1c-2.5,0-4.2-0.7-5.2-2c-0.4-0.5-0.6-1-0.8-2L167.6,122.3z"/>
	<path class="st6" d="M181.6,113.9c-0.1,0.8-0.2,1.6-0.2,3v6.5c0,1.2,0,2.1,0.2,3h-3.8c0.1-1,0.2-1.7,0.2-2.9v-6.6
		c0-1.3,0-2.1-0.2-2.9H181.6z M181.6,109.3v2.9h-3.7v-2.9H181.6z"/>
	<path class="st6" d="M186.4,126.3c0.8,1,1.8,1.5,3.2,1.5s2.5-0.4,3-1.2c0.4-0.6,0.6-1.2,0.7-2.6c-1,1.1-2.3,1.7-4.1,1.7
		c-3.5,0-5.7-2.3-5.7-6c0-2.2,0.8-3.9,2.3-5c1-0.7,2.1-1.1,3.5-1.1c1.8,0,3,0.5,4,1.5c0-0.2,0-0.3,0-0.5v-0.7h3.5
		c-0.1,0.9-0.2,1.6-0.2,2.8v7.1c0,2.5-0.6,4.1-1.8,5.1c-1.1,0.9-2.9,1.4-5.2,1.4c-2.7,0-4.3-0.6-5.8-2.2L186.4,126.3z M187.8,122.4
		c0.5,0.5,1.3,0.8,2,0.8c0.6,0,1.3-0.2,1.8-0.5c1-0.6,1.5-1.7,1.5-3c0-2-1.4-3.5-3.3-3.5c-1.8,0-3,1.4-3,3.5
		C186.9,120.9,187.2,121.7,187.8,122.4z"/>
	<path class="st6" d="M199.2,126.3c0.1-0.9,0.2-1.7,0.2-2.9v-11.2c0-1.3,0-2.1-0.2-2.9h3.7c-0.1,0.9-0.2,1.5-0.2,2.9v2.5
		c0,0.2,0,0.4,0,0.8c1.3-1.3,2.6-1.9,4.5-1.9c2.8,0,4.4,1.6,4.4,4.5v5.3c0,1.3,0,2.1,0.2,2.9h-3.7c0.1-1,0.2-1.8,0.2-2.9v-4.5
		c0-1.1-0.2-1.6-0.7-2c-0.3-0.2-0.7-0.3-1.2-0.3c-1.3,0-2.5,0.9-3.5,2.5v4.3c0,1.1,0,1.9,0.2,2.9H199.2z"/>
	<path class="st6" d="M219.2,110.6c-0.1,0.8-0.2,1.7-0.2,2.7v0.5h0.8c1,0,1.5,0,2.1-0.1v2.9c-0.7-0.1-1.1-0.1-2-0.1H219v5.9
		c0,1,0.4,1.3,1.4,1.3c0.6,0,1-0.1,1.5-0.4l0.3,2.8c-0.8,0.3-1.6,0.4-2.7,0.4c-2.7,0-3.8-0.9-3.8-3.3v-6.8h-0.8
		c-0.8,0-1.2,0-1.9,0.1v-3c0.6,0.1,1.1,0.1,1.9,0.1h0.8v-0.5c0-1,0-1.7-0.2-2.7H219.2z"/>
	<path class="st6" d="M226.7,122.3c0.1,0.5,0.2,0.8,0.5,1c0.4,0.5,1.2,0.7,2.2,0.7c1.4,0,2.2-0.5,2.2-1.3c0-0.3-0.1-0.6-0.4-0.8
		s-0.7-0.3-1.9-0.6c-2-0.4-2.7-0.6-3.5-0.9c-1.3-0.6-2-1.7-2-3c0-2.4,2-3.9,5.3-3.9c1.9,0,3.3,0.4,4.2,1.3c0.7,0.6,1,1.2,1.3,2.3
		l-3.4,0.4c-0.1-1-0.7-1.4-2-1.4s-2.1,0.4-2.1,1.1c0,0.4,0.2,0.7,0.7,0.8c0.4,0.2,0.8,0.3,1.9,0.5c2.2,0.5,2.9,0.7,3.7,1.2
		c1.1,0.6,1.6,1.6,1.6,2.8c0,2.6-2.1,4.1-5.7,4.1c-2.5,0-4.2-0.7-5.2-2c-0.4-0.5-0.6-1-0.8-2L226.7,122.3z"/>
</g>
<line class="st11" x1="44.3" y1="269.9" x2="348.3" y2="269.9"/>
<line class="st11" x1="43.8" y1="341.1" x2="347.8" y2="341.1"/>
<line class="st11" x1="43.8" y1="412.3" x2="347.8" y2="412.3"/>
<line class="st11" x1="44.3" y1="488.9" x2="348.3" y2="488.9"/>
<g>
	<path class="st6" d="M16.2,493.3c0.2,0.6,0.4,0.9,0.8,1.2c0.5,0.4,1.1,0.5,1.8,0.5c1.5,0,2.4-0.8,2.4-1.9c0-1.3-0.9-1.9-2.6-1.9
		c-0.5,0-0.9,0-1.4,0.1v-1.5c0.3,0.1,0.8,0.1,1.1,0.1c0.7,0,1.4-0.1,1.7-0.4c0.5-0.3,0.8-0.9,0.8-1.5c0-1.1-0.7-1.7-2.1-1.7
		c-0.8,0-1.3,0.2-1.7,0.7c-0.2,0.3-0.3,0.4-0.4,0.9l-1.7-0.3c0.2-0.8,0.5-1.2,0.9-1.6c0.7-0.7,1.7-1,3-1c2.2,0,3.7,1.1,3.7,2.9
		c0,0.9-0.4,1.6-1,2.1c-0.3,0.3-0.6,0.4-1.3,0.5c1,0.1,1.5,0.4,2,0.9c0.5,0.5,0.7,1.1,0.7,1.9c0,0.8-0.3,1.5-0.8,2
		c-0.7,0.7-1.9,1.1-3.3,1.1c-1.6,0-2.7-0.4-3.4-1.2c-0.3-0.4-0.5-0.7-0.8-1.5L16.2,493.3z"/>
	<path class="st6" d="M25.7,495.3c-0.4-0.4-0.7-0.9-0.9-1.4c-0.4-1-0.6-2.1-0.6-3.2c0-1.5,0.3-3,0.8-3.8c0.7-1.2,1.9-1.9,3.4-1.9
		c1.1,0,2.1,0.4,2.8,1.1c0.4,0.4,0.7,0.9,0.9,1.4c0.4,1,0.6,2.1,0.6,3.2c0,1.7-0.4,3.2-1,4.1c-0.8,1.1-1.9,1.6-3.3,1.6
		C27.4,496.4,26.5,496,25.7,495.3z M26.9,487.1c-0.3,0.3-0.5,0.7-0.6,1.1c-0.3,0.8-0.4,1.7-0.4,2.6c0,1.2,0.3,2.5,0.6,3.2
		c0.5,0.8,1.1,1.1,2,1.1c0.7,0,1.2-0.2,1.6-0.6c0.3-0.3,0.5-0.7,0.7-1.1c0.3-0.8,0.4-1.7,0.4-2.6c0-1.1-0.2-2.4-0.6-3.1
		c-0.4-0.8-1.1-1.3-2.1-1.3C27.9,486.3,27.3,486.6,26.9,487.1z"/>
</g>
<g>
	<path class="st6" d="M21.1,410.4c-0.4-1-1-1.5-2-1.5c-1,0-1.8,0.5-2.3,1.6c-0.4,0.8-0.5,1.5-0.6,2.7c0.3-0.4,0.4-0.6,0.8-0.8
		c0.6-0.5,1.3-0.7,2.2-0.7c2.3,0,3.7,1.4,3.7,3.7c0,2.2-1.6,3.7-3.9,3.7c-1.1,0-2.1-0.3-2.7-0.9c-1-0.9-1.6-2.5-1.6-4.6
		c0-1.7,0.4-3.3,1.1-4.3c0.8-1.1,1.9-1.6,3.3-1.6c1.1,0,2.1,0.3,2.7,1c0.4,0.4,0.6,0.7,0.9,1.4L21.1,410.4z M16.5,415.3
		c0,1.4,1.1,2.4,2.5,2.4c0.9,0,1.7-0.4,2.1-1.1c0.2-0.3,0.3-0.8,0.3-1.3c0-1.5-0.9-2.4-2.4-2.4C17.6,412.9,16.5,413.9,16.5,415.3z"
		/>
	<path class="st6" d="M25.7,417.9c-0.4-0.4-0.7-0.9-0.9-1.4c-0.4-1-0.6-2.1-0.6-3.2c0-1.5,0.3-3,0.8-3.8c0.7-1.2,1.9-1.9,3.4-1.9
		c1.1,0,2.1,0.4,2.8,1.1c0.4,0.4,0.7,0.9,0.9,1.4c0.4,1,0.6,2.1,0.6,3.2c0,1.7-0.4,3.2-1,4.1c-0.8,1.1-1.9,1.6-3.3,1.6
		C27.4,419,26.5,418.6,25.7,417.9z M26.9,409.7c-0.3,0.3-0.5,0.7-0.6,1.1c-0.3,0.8-0.4,1.7-0.4,2.6c0,1.2,0.3,2.5,0.6,3.2
		c0.5,0.8,1.1,1.1,2,1.1c0.7,0,1.2-0.2,1.6-0.6c0.3-0.3,0.5-0.7,0.7-1.1c0.3-0.8,0.4-1.7,0.4-2.6c0-1.1-0.2-2.4-0.6-3.1
		c-0.4-0.8-1.1-1.3-2.1-1.3C27.9,409,27.3,409.2,26.9,409.7z"/>
</g>
<g>
	<path class="st6" d="M18.4,344.5c0.2,0.4,0.3,0.6,0.5,0.8c0.4,0.4,1,0.6,1.7,0.6c1,0,1.6-0.4,2.2-1.2c0.3-0.4,0.5-1.1,0.6-1.8
		c0-0.3,0.1-0.7,0.1-1.3c-0.2,0.4-0.4,0.5-0.7,0.8c-0.7,0.5-1.4,0.8-2.4,0.8c-1.2,0-2.1-0.3-2.8-1c-0.6-0.6-1-1.6-1-2.6
		c0-2.3,1.6-3.8,4.1-3.8c1.5,0,2.7,0.7,3.4,1.9c0.5,0.8,0.7,2,0.7,3.5c0,2.2-0.5,3.9-1.4,4.8c-0.8,0.8-1.7,1.2-3,1.2
		c-1,0-1.9-0.2-2.5-0.7c-0.5-0.4-0.8-0.7-1.2-1.6L18.4,344.5z M20.6,342c1.4,0,2.5-1.1,2.5-2.4c0-1.4-1.1-2.4-2.5-2.4
		c-0.7,0-1.3,0.3-1.8,0.7c-0.5,0.4-0.7,1-0.7,1.7C18.1,341.1,19,342,20.6,342z"/>
	<path class="st6" d="M27.7,346.2c-0.4-0.4-0.7-0.9-0.9-1.4c-0.4-1-0.6-2.1-0.6-3.2c0-1.5,0.3-3,0.8-3.8c0.7-1.2,1.9-1.9,3.4-1.9
		c1.1,0,2.1,0.4,2.8,1.1c0.4,0.4,0.7,0.9,0.9,1.4c0.4,1,0.6,2.1,0.6,3.2c0,1.7-0.4,3.2-1,4.1c-0.8,1.1-1.9,1.6-3.3,1.6
		C29.3,347.3,28.4,346.9,27.7,346.2z M28.8,338c-0.3,0.3-0.5,0.7-0.6,1.1c-0.3,0.8-0.4,1.7-0.4,2.6c0,1.2,0.3,2.5,0.6,3.2
		c0.5,0.8,1.1,1.1,2,1.1c0.7,0,1.2-0.2,1.6-0.6c0.3-0.3,0.5-0.7,0.7-1.1c0.3-0.8,0.4-1.7,0.4-2.6c0-1.1-0.2-2.4-0.6-3.1
		c-0.4-0.8-1.1-1.3-2.1-1.3C29.8,337.3,29.2,337.5,28.8,338z"/>
</g>
<g>
	<path class="st6" d="M12.5,265.2c0.4,0.1,0.7,0.1,1.3,0.1h1.1c0.6,0,0.8,0,1.3-0.1c-0.1,0.9-0.1,1.5-0.1,2.3v7c0,0.7,0,1.2,0.1,1.7
		h-1.8c0.1-0.5,0.1-1,0.1-1.7v-7.9h-0.7c-0.5,0-0.9,0-1.4,0.1V265.2z"/>
	<path class="st6" d="M22.5,276.2c-1,0-1.2,0-1.7,0.1c0.1-0.9,0.2-1.3,0.4-1.8c0.4-1,1-1.8,1.9-2.6c0.5-0.4,0.9-0.7,2.3-1.6
		s1.7-1.4,1.7-2.3c0-1-0.8-1.6-2.1-1.6c-0.9,0-1.5,0.3-1.9,0.9c-0.2,0.4-0.4,0.7-0.5,1.3l-1.7-0.2c0.2-1,0.4-1.6,0.9-2.2
		c0.7-0.8,1.7-1.2,3.1-1.2c2.3,0,3.8,1.1,3.8,3c0,1.1-0.4,1.8-1.4,2.6c-0.4,0.3-0.6,0.5-1.9,1.3c-1.6,1.1-2.3,1.8-2.7,2.9H27
		c0.8,0,1.4,0,1.9-0.1v1.6c-0.6-0.1-1.2-0.1-2-0.1H22.5z"/>
	<path class="st6" d="M31.8,275.3c-0.4-0.4-0.7-0.9-0.9-1.4c-0.4-1-0.6-2.1-0.6-3.2c0-1.5,0.3-3,0.8-3.8c0.7-1.2,1.9-1.9,3.4-1.9
		c1.1,0,2.1,0.4,2.8,1.1c0.4,0.4,0.7,0.9,0.9,1.4c0.4,1,0.6,2.1,0.6,3.2c0,1.7-0.4,3.2-1,4.1c-0.8,1.1-1.9,1.6-3.3,1.6
		C33.5,276.4,32.5,276,31.8,275.3z M33,267.1c-0.3,0.3-0.5,0.7-0.6,1.1c-0.3,0.8-0.4,1.7-0.4,2.6c0,1.2,0.3,2.5,0.6,3.2
		c0.5,0.8,1.1,1.1,2,1.1c0.7,0,1.2-0.2,1.6-0.6c0.3-0.3,0.5-0.7,0.7-1.1c0.3-0.8,0.4-1.7,0.4-2.6c0-1.1-0.2-2.4-0.6-3.1
		c-0.4-0.8-1.1-1.3-2.1-1.3C33.9,266.4,33.4,266.6,33,267.1z"/>
</g>
<line class="st12" x1="55.8" y1="566" x2="55.8" y2="330.1"/>
<line class="st13" x1="102.6" y1="566" x2="102.6" y2="378.7"/>
<line class="st13" x1="149.5" y1="566" x2="149.5" y2="393.6"/>
<line class="st14" x1="196.3" y1="566" x2="196.3" y2="365.1"/>
<line class="st14" x1="336.8" y1="566" x2="336.8" y2="348.7"/>
<line class="st15" x1="290" y1="566" x2="290" y2="282.2"/>
<line class="st15" x1="243.1" y1="566" x2="243.1" y2="290.7"/>
<line class="st4" x1="44.3" y1="566.5" x2="348.3" y2="566.5"/>
<g>
	<path class="st6" d="M54.7,586.2c-0.1-0.4-0.3-1-0.6-1.7l-2.4-5.5c-0.2-0.5-0.3-0.8-0.7-1.9c0.1,0.7,0.1,1.7,0.1,2v5.2
		c0,0.9,0,1.4,0.1,1.9h-1.7c0.1-0.6,0.1-1,0.1-1.9v-7.2c0-0.8,0-1.4-0.1-1.9h2.2c0.1,0.5,0.3,1,0.5,1.6l3.1,7.3l3.1-7.3
		c0.3-0.6,0.4-1.1,0.5-1.6h2.2c-0.1,0.6-0.1,1.1-0.1,1.9v7.2c0,0.9,0,1.4,0.1,1.9h-1.7c0.1-0.5,0.1-1.1,0.1-1.9V579
		c0-1,0.1-1.6,0.1-1.9c-0.2,0.6-0.4,1.3-0.6,1.8l-2.5,5.6c-0.3,0.7-0.4,1.1-0.6,1.7H54.7z"/>
</g>
<g>
	<path class="st6" d="M103.1,584.4c0,0.7,0,1.2,0.1,1.7h-1.8c0.1-0.4,0.1-1,0.1-1.7v-7.8h-2c-0.8,0-1.3,0-1.8,0.1v-1.6
		c0.6,0.1,1,0.1,1.8,0.1h5.6c1,0,1.4,0,1.9-0.1v1.6c-0.5-0.1-1-0.1-1.9-0.1h-1.9V584.4z"/>
</g>
<g>
	<path class="st6" d="M151.6,586.2c0-0.3-0.2-1-0.3-1.4l-1.7-5.5c-0.2-0.5-0.3-1-0.4-1.7c-0.2,0.7-0.3,1.3-0.4,1.7l-1.6,5.5
		c-0.2,0.7-0.3,1.1-0.4,1.4h-1.6c-0.1-0.3-0.1-0.3-0.4-1.4l-2.2-7.9c-0.2-0.8-0.4-1.2-0.6-1.6h1.9c0,0.4,0.1,0.9,0.3,1.5l1.5,5.6
		c0.1,0.4,0.3,1.1,0.4,1.6c0.1-0.5,0.3-1.3,0.4-1.6l1.7-5.7c0.2-0.5,0.3-1.1,0.3-1.4h1.5c0.1,0.4,0.2,0.9,0.3,1.4l1.7,5.7
		c0.1,0.3,0.2,0.7,0.4,1.7c0.2-1.1,0.4-1.7,0.4-1.7l1.5-5.6c0.1-0.5,0.2-1.1,0.3-1.5h1.9c-0.2,0.5-0.3,0.8-0.6,1.6l-2.3,7.9
		c-0.3,1.2-0.3,1.2-0.4,1.4H151.6z"/>
</g>
<g>
	<path class="st16" d="M196.8,584.4c0,0.7,0,1.2,0.1,1.7h-1.8c0.1-0.4,0.1-1,0.1-1.7v-7.8h-2c-0.8,0-1.3,0-1.8,0.1v-1.6
		c0.6,0.1,1,0.1,1.8,0.1h5.6c1,0,1.4,0,1.9-0.1v1.6c-0.5-0.1-1-0.1-1.9-0.1h-1.9V584.4z"/>
</g>
<g>
	<path class="st6" d="M241.1,584.3c0,0.9,0,1.3,0.1,1.9h-1.8c0.1-0.5,0.1-1,0.1-1.8v-7.4c0-0.7,0-1.2-0.1-1.7c0.5,0,0.9,0,1.7,0h3.9
		c0.8,0,1.2,0,1.8-0.1v1.6c-0.5-0.1-1-0.1-1.8-0.1h-3.9v3.2h3.2c0.8,0,1.3,0,1.8-0.1v1.6c-0.5-0.1-1-0.1-1.8-0.1h-3.2V584.3z"/>
</g>
<g>
	<path class="st6" d="M287.2,582.8c0,0.6,0.1,1,0.4,1.3c0.4,0.6,1.2,0.9,2.2,0.9c1.5,0,2.4-0.7,2.4-1.8c0-0.6-0.3-1.1-0.8-1.4
		c-0.5-0.2-0.6-0.3-2.4-0.7c-1-0.2-1.6-0.4-2.1-0.8c-0.8-0.5-1.2-1.3-1.2-2.2c0-1.9,1.5-3.1,3.9-3.1c1.5,0,2.7,0.5,3.4,1.4
		c0.3,0.4,0.5,0.8,0.7,1.6l-1.7,0.2c-0.1-0.5-0.2-0.8-0.5-1.1c-0.4-0.5-1.1-0.7-1.9-0.7c-1.3,0-2.2,0.7-2.2,1.7
		c0,0.6,0.3,1.1,1.1,1.4c0.4,0.2,0.4,0.2,2,0.5c1.1,0.2,1.8,0.5,2.3,0.9c0.7,0.6,1.1,1.3,1.1,2.3c0,2.1-1.5,3.3-4.1,3.3
		c-1.6,0-2.9-0.4-3.6-1.3c-0.4-0.5-0.6-1-0.8-2.1L287.2,582.8z"/>
</g>
<g>
	<path class="st6" d="M334.1,582.8c0,0.6,0.1,1,0.4,1.3c0.4,0.6,1.2,0.9,2.2,0.9c1.5,0,2.4-0.7,2.4-1.8c0-0.6-0.3-1.1-0.8-1.4
		c-0.5-0.2-0.6-0.3-2.4-0.7c-1-0.2-1.6-0.4-2.1-0.8c-0.8-0.5-1.2-1.3-1.2-2.2c0-1.9,1.5-3.1,3.9-3.1c1.5,0,2.7,0.5,3.4,1.4
		c0.3,0.4,0.5,0.8,0.7,1.6l-1.7,0.2c-0.1-0.5-0.2-0.8-0.5-1.1c-0.4-0.5-1.1-0.7-1.9-0.7c-1.3,0-2.2,0.7-2.2,1.7
		c0,0.6,0.3,1.1,1.1,1.4c0.4,0.2,0.4,0.2,2,0.5c1.1,0.2,1.8,0.5,2.3,0.9c0.7,0.6,1.1,1.3,1.1,2.3c0,2.1-1.5,3.3-4.1,3.3
		c-1.6,0-2.9-0.4-3.6-1.3c-0.4-0.5-0.6-1-0.8-2.1L334.1,582.8z"/>
</g>
<g>
	<path class="st6" d="M289.5,640.6c-0.1-0.6-0.3-1.4-0.5-1.9l-0.8-2.1h-6l-0.8,2.1c-0.3,0.8-0.4,1.2-0.5,1.9h-2.5
		c0.3-0.5,0.6-1.1,1-2.1l4-10.2c0.3-0.9,0.5-1.3,0.6-1.8h2.6c0.1,0.4,0.2,0.7,0.6,1.8l4.1,10.2c0.5,1.1,0.7,1.7,0.9,2.1H289.5z
		 M285.4,629.3c-0.1-0.2-0.1-0.2-0.4-1.1c-0.3,0.9-0.3,0.9-0.4,1.1l-2.1,5.6h4.9L285.4,629.3z"/>
	<path class="st6" d="M297.4,637.4c0.1,0.2,0.2,0.7,0.4,1.3c0.3-0.9,0.3-0.9,0.4-1.3l3.2-9c0.3-0.9,0.4-1.3,0.5-1.9h2.5
		c-0.3,0.5-0.5,0.9-0.9,2.1l-3.9,10.2c-0.3,0.8-0.5,1.4-0.6,1.8h-2.6c-0.1-0.4-0.3-0.9-0.6-1.8l-3.9-10.2c-0.4-1-0.7-1.7-0.9-2.1
		h2.5c0.1,0.6,0.3,1.2,0.5,1.9L297.4,637.4z"/>
	<path class="st6" d="M314.6,635c-0.9,0-1.3,0-1.9,0.1v-2c0.5,0.1,1,0.1,2.1,0.1h0.8c1,0,1.5,0,2.1-0.1c-0.1,0.9-0.1,1.3-0.1,2.2
		v1.8c0,1,0,1.4,0.1,2.2c-1.2,0.7-1.8,1-2.7,1.2c-0.8,0.2-1.7,0.3-2.6,0.3c-2.1,0-3.7-0.6-4.8-1.7c-1.3-1.3-1.9-3.3-1.9-5.6
		c0-3,1.2-5.3,3.3-6.5c1-0.5,2-0.8,3.3-0.8c1.7,0,3.1,0.5,4.1,1.5c0.6,0.6,1,1.1,1.3,2.1l-2.1,0.6c-0.6-1.7-1.6-2.4-3.6-2.4
		c-2.7,0-4.4,2.1-4.4,5.5c0,1.8,0.5,3.4,1.4,4.4c0.8,0.8,1.8,1.3,3.2,1.3c1.3,0,2.3-0.3,3.3-0.9V635H314.6z"/>
	<path class="st6" d="M291.3,653.1c-0.6,0.5-1,1.2-2,2.6c-1.7,2.7-2.6,4.7-3.4,7.3c-0.4,1.5-0.6,2.5-0.9,4.5h-2.8
		c0.7-3.9,1.3-5.7,2.6-8.3c1.1-2.2,2-3.6,3.8-6h-6.7c-1.2,0-1.8,0-2.6,0.1V651c0.9,0.1,1.5,0.1,2.7,0.1h6.6c1.5,0,2,0,2.7-0.1V653.1
		z"/>
	<path class="st6" d="M304.7,660c1,0.8,1.5,1.9,1.5,3.3c0,3-2.3,4.7-6.3,4.7c-4.1,0-6.4-1.7-6.4-4.7c0-1.5,0.6-2.6,1.8-3.5
		c0.7-0.5,1.2-0.7,2-0.8c-0.8-0.2-1.3-0.5-1.9-1c-0.7-0.7-1.1-1.7-1.1-2.8c0-2.7,2.2-4.4,5.6-4.4c3.5,0,5.6,1.6,5.6,4.3
		c0,2-1.1,3.4-3,3.9C303.4,659.1,304,659.4,304.7,660z M296,663.1c0,1.8,1.4,2.9,3.9,2.9c2.5,0,3.9-1.1,3.9-2.9c0-1.9-1.5-3-3.9-3
		S296,661.2,296,663.1z M296.6,655.4c0,1.7,1.3,2.7,3.3,2.7s3.2-1,3.2-2.7c0-1.6-1.3-2.6-3.3-2.6
		C297.9,652.8,296.6,653.8,296.6,655.4z"/>
	<path class="st6" d="M314.7,667.6c-0.8,0-1.1,0-1.7,0c0.1-0.6,0.1-1,0.1-1.8v-7.6c0-0.6,0-1.1-0.1-1.6c0.5,0,0.8,0,1.7,0h3.2
		c2.2,0,3.3,1,3.3,2.7c0,0.8-0.3,1.4-0.8,1.9c-0.3,0.3-0.6,0.4-1.1,0.6c0.7,0.1,1,0.3,1.4,0.6c0.6,0.5,0.9,1.2,0.9,2.1
		c0,1.9-1.3,3-3.6,3H314.7z M317.8,661.2c1.2,0,1.9-0.6,1.9-1.7c0-1-0.7-1.6-1.9-1.6h-3.1v3.2H317.8z M314.7,666.2h3.2
		c1.4,0,2.1-0.7,2.1-1.9c0-0.6-0.2-1-0.5-1.3c-0.4-0.4-0.9-0.5-1.7-0.5h-3.2V666.2z"/>
	<path class="st6" d="M323.4,667.6c0.1-0.5,0.1-1,0.1-1.7v-7.6c0-0.6,0-1.1-0.1-1.7c0.5,0,1,0,1.7,0h2.9c2.4,0,3.7,1.2,3.7,3.3
		c0,2.2-1.4,3.4-3.8,3.4h-2.9v2.5c0,0.7,0,1.2,0.1,1.7H323.4z M327.9,662c1.4,0,2.2-0.7,2.2-2.1c0-1.3-0.7-2-2.2-2h-2.9v4H327.9z"/>
	<path class="st6" d="M338.3,667.6c-0.1-0.4-0.3-1-0.6-1.7l-2.4-5.5c-0.2-0.5-0.3-0.8-0.7-1.9c0.1,0.7,0.1,1.7,0.1,2v5.2
		c0,0.9,0,1.4,0.1,1.9h-1.7c0.1-0.6,0.1-1,0.1-1.9v-7.2c0-0.8,0-1.4-0.1-1.9h2.2c0.1,0.5,0.3,1,0.5,1.6l3.1,7.3l3.1-7.3
		c0.3-0.6,0.4-1.1,0.5-1.6h2.2c-0.1,0.6-0.1,1-0.1,1.9v7.2c0,0.9,0,1.4,0.1,1.9h-1.7c0.1-0.5,0.1-1.1,0.1-1.9v-5.2
		c0-1,0.1-1.6,0.1-1.9c-0.2,0.6-0.4,1.3-0.6,1.8l-2.5,5.6c-0.3,0.7-0.4,1.1-0.6,1.7H338.3z"/>
</g>
<g>
	<path class="st6" d="M51.6,640.6c-0.1-0.5-0.3-1.3-0.7-2.2l-3.1-7c-0.3-0.6-0.4-1.1-0.9-2.4c0.1,0.9,0.1,2.1,0.1,2.6v6.6
		c0,1.1,0,1.8,0.1,2.4h-2.2c0.1-0.7,0.1-1.3,0.1-2.4V629c0-1,0-1.7-0.1-2.4h2.8c0.1,0.6,0.3,1.3,0.6,2l4,9.3l4-9.3
		c0.3-0.8,0.5-1.4,0.6-2H60c-0.1,0.8-0.1,1.4-0.1,2.4v9.2c0,1.2,0,1.8,0.1,2.4h-2.2c0.1-0.6,0.1-1.4,0.1-2.4v-6.7
		c0.1-1.3,0.1-2.1,0.1-2.5c-0.2,0.8-0.5,1.7-0.8,2.3l-3.2,7.2c-0.4,0.9-0.6,1.4-0.8,2.2H51.6z"/>
	<path class="st6" d="M65,626.5c-0.1,0.7-0.1,1.2-0.1,2.2v9.7c0,1,0,1.6,0.1,2.2h-2.3c0.1-0.7,0.1-1.2,0.1-2.2v-9.7
		c0-1,0-1.5-0.1-2.2H65z"/>
	<path class="st6" d="M76.3,635.8c0.3,0.5,0.9,1.4,1.3,2.1c-0.1-1-0.1-1.8-0.1-2.4v-6.7c0-1,0-1.7-0.1-2.3h2.3
		c-0.1,0.7-0.1,1.3-0.1,2.3v9.5c0,1,0,1.6,0.1,2.2h-2.5c-0.3-0.6-0.5-1-1.1-1.8l-5.2-7.7c-0.3-0.4-0.7-1.2-1.1-2
		c0.1,0.8,0.1,1.7,0.1,2.3v6.6c0,1.1,0,1.9,0.1,2.5h-2.3c0.1-0.6,0.1-1.4,0.1-2.5v-9.4c0-0.9,0-1.5-0.1-2.2h2.5
		c0.2,0.4,0.5,0.9,1,1.8L76.3,635.8z"/>
	<path class="st6" d="M48,657.2c0,0.2-0.1,0.5-0.1,0.9c1-0.9,2.2-1.3,3.7-1.3c1.6,0,3,0.5,4,1.5c1,1,1.5,2.2,1.5,3.8
		c0,3.6-2.4,5.8-6.1,5.8c-1.9,0-3.4-0.5-4.5-1.7c-0.6-0.6-0.9-1.1-1.3-2.2l2.5-0.5c0.2,0.6,0.3,0.9,0.6,1.2c0.6,0.7,1.6,1.1,2.8,1.1
		c2.2,0,3.7-1.5,3.7-3.7c0-2.2-1.4-3.5-3.6-3.5c-1,0-2.1,0.4-2.8,1.1c-0.3,0.3-0.4,0.5-0.6,0.9l-2.2-0.2c0.2-1.2,0.2-1.4,0.3-2.2
		l0.5-5c0.1-0.5,0.1-1,0.1-1.3c0,0,0-0.2,0-0.4c0-0.1,0-0.3,0-0.5c0.6,0.1,1.1,0.1,2.2,0.1h4.9c1.4,0,1.8,0,2.8-0.2v2.3
		c-0.9-0.1-1.6-0.2-2.8-0.2h-5L48,657.2z"/>
	<path class="st6" d="M62.7,657.2c0,0.2-0.1,0.5-0.1,0.9c1-0.9,2.2-1.3,3.7-1.3c1.6,0,3,0.5,4,1.5c1,1,1.5,2.2,1.5,3.8
		c0,3.6-2.4,5.8-6.1,5.8c-1.9,0-3.4-0.5-4.5-1.7c-0.6-0.6-0.9-1.1-1.3-2.2l2.5-0.5c0.2,0.6,0.3,0.9,0.6,1.2c0.6,0.7,1.6,1.1,2.8,1.1
		c2.2,0,3.7-1.5,3.7-3.7c0-2.2-1.4-3.5-3.6-3.5c-1,0-2.1,0.4-2.8,1.1c-0.3,0.3-0.4,0.5-0.6,0.9l-2.2-0.2c0.2-1.2,0.2-1.4,0.3-2.2
		l0.5-5c0.1-0.5,0.1-1,0.1-1.3c0,0,0-0.2,0-0.4c0-0.1,0-0.3,0-0.5c0.6,0.1,1.1,0.1,2.2,0.1H68c1.4,0,1.8,0,2.8-0.2v2.3
		c-0.9-0.1-1.6-0.2-2.8-0.2h-5L62.7,657.2z"/>
	<path class="st6" d="M80.5,667.6c-0.8,0-1.1,0-1.7,0c0.1-0.6,0.1-1,0.1-1.8v-7.6c0-0.6,0-1.1-0.1-1.6c0.5,0,0.8,0,1.7,0h3.2
		c2.2,0,3.3,1,3.3,2.7c0,0.8-0.3,1.4-0.8,1.9c-0.3,0.3-0.6,0.4-1.1,0.6c0.7,0.1,1,0.3,1.4,0.6c0.6,0.5,0.9,1.2,0.9,2.1
		c0,1.9-1.3,3-3.6,3H80.5z M83.6,661.2c1.2,0,1.9-0.6,1.9-1.7c0-1-0.7-1.6-1.9-1.6h-3.1v3.2H83.6z M80.5,666.2h3.2
		c1.4,0,2.1-0.7,2.1-1.9c0-0.6-0.2-1-0.5-1.3c-0.4-0.3-0.9-0.5-1.7-0.5h-3.2V666.2z"/>
	<path class="st6" d="M89.2,667.6c0.1-0.5,0.1-1,0.1-1.7v-7.6c0-0.6,0-1.1-0.1-1.7c0.5,0,1,0,1.7,0h2.9c2.4,0,3.7,1.2,3.7,3.3
		c0,2.2-1.4,3.4-3.8,3.4h-2.9v2.5c0,0.7,0,1.2,0.1,1.7H89.2z M93.7,662c1.4,0,2.2-0.7,2.2-2.1c0-1.3-0.7-2-2.2-2h-2.9v4H93.7z"/>
	<path class="st6" d="M104.1,667.6c-0.1-0.4-0.3-1-0.6-1.7l-2.4-5.5c-0.2-0.5-0.3-0.8-0.7-1.9c0.1,0.7,0.1,1.7,0.1,2v5.2
		c0,0.9,0,1.4,0.1,1.9H99c0.1-0.6,0.1-1,0.1-1.9v-7.2c0-0.8,0-1.4-0.1-1.9h2.2c0.1,0.5,0.3,1,0.5,1.6l3.1,7.3l3.1-7.3
		c0.3-0.6,0.4-1.1,0.5-1.6h2.2c-0.1,0.6-0.1,1.1-0.1,1.9v7.2c0,0.9,0,1.4,0.1,1.9h-1.7c0.1-0.5,0.1-1.1,0.1-1.9v-5.2
		c0-1,0.1-1.6,0.1-1.9c-0.2,0.6-0.4,1.3-0.6,1.8l-2.5,5.6c-0.3,0.7-0.4,1.1-0.6,1.7H104.1z"/>
</g>
<g>
	<path class="st6" d="M161.4,640.6c-0.1-0.5-0.3-1.3-0.7-2.2l-3.1-7c-0.3-0.6-0.4-1.1-0.9-2.4c0.1,0.9,0.1,2.1,0.1,2.6v6.6
		c0,1.1,0,1.8,0.1,2.4h-2.2c0.1-0.7,0.1-1.3,0.1-2.4V629c0-1,0-1.7-0.1-2.4h2.8c0.1,0.6,0.3,1.3,0.6,2l4,9.3l4-9.3
		c0.3-0.8,0.5-1.4,0.6-2h2.8c-0.1,0.8-0.1,1.4-0.1,2.4v9.2c0,1.2,0,1.8,0.1,2.4h-2.2c0.1-0.6,0.1-1.4,0.1-2.4v-6.7
		c0.1-1.3,0.1-2.1,0.1-2.5c-0.2,0.8-0.5,1.7-0.8,2.3l-3.2,7.2c-0.4,0.9-0.6,1.4-0.8,2.2H161.4z"/>
	<path class="st6" d="M182.7,640.6c-0.1-0.6-0.3-1.3-0.5-1.9l-0.8-2.1h-6l-0.8,2.1c-0.3,0.8-0.4,1.2-0.5,1.9h-2.5
		c0.3-0.5,0.6-1.1,1-2.1l4-10.2c0.3-0.9,0.5-1.3,0.6-1.8h2.6c0.1,0.4,0.2,0.7,0.6,1.8l4.1,10.2c0.5,1.1,0.7,1.7,0.9,2.1H182.7z
		 M178.7,629.3c-0.1-0.2-0.1-0.2-0.4-1.1c-0.3,0.9-0.3,0.9-0.4,1.1l-2.1,5.6h4.9L178.7,629.3z"/>
	<path class="st6" d="M189.7,638.7c-0.4,0.6-0.9,1.4-1.2,1.9h-2.8c1-1.3,1.3-1.7,1.7-2.2l3.8-5.3l-3.3-4.6c-0.5-0.6-1-1.3-1.5-2h2.8
		c0.2,0.5,0.6,1.2,1.1,1.9l2.3,3.4l2.2-3.4c0.7-1,0.8-1.3,1.1-1.9h2.8c-0.5,0.6-1,1.2-1.6,2l-3.3,4.6l3.8,5.2c0.4,0.5,0.8,1,1.7,2.2
		h-2.8c-0.4-0.8-0.8-1.3-1.2-1.9l-2.7-4.1L189.7,638.7z"/>
	<path class="st6" d="M156.9,651.1c0.6,0.1,1,0.1,2,0.1h1.7c0.9,0,1.3,0,2-0.1c-0.1,1.3-0.2,2.3-0.2,3.5V665c0,1.1,0,1.8,0.2,2.6
		h-2.7c0.1-0.8,0.2-1.6,0.2-2.6v-11.8h-1.1c-0.7,0-1.3,0-2,0.1V651.1z"/>
	<path class="st6" d="M171.5,651.1c0.6,0.1,1,0.1,2,0.1h1.7c0.9,0,1.3,0,2-0.1c-0.1,1.3-0.2,2.3-0.2,3.5V665c0,1.1,0,1.8,0.2,2.6
		h-2.7c0.1-0.8,0.2-1.6,0.2-2.6v-11.8h-1.1c-0.7,0-1.3,0-2,0.1V651.1z"/>
	<path class="st6" d="M185.9,666.3c-0.6-0.6-1.1-1.3-1.3-2c-0.6-1.5-0.8-3.1-0.8-4.8c0-2.2,0.5-4.5,1.3-5.8c1.1-1.8,2.9-2.8,5.2-2.8
		c1.7,0,3.2,0.5,4.2,1.6c0.6,0.6,1.1,1.3,1.3,2c0.6,1.5,0.8,3.1,0.8,4.9c0,2.6-0.6,4.8-1.5,6.2c-1.1,1.6-2.8,2.4-4.9,2.4
		C188.4,667.9,187,667.4,185.9,666.3z M187.6,654c-0.4,0.5-0.7,1-0.9,1.6c-0.4,1.2-0.6,2.5-0.6,3.9c0,1.8,0.4,3.8,1,4.7
		c0.7,1.1,1.7,1.7,3,1.7c1,0,1.9-0.3,2.4-0.9c0.4-0.5,0.8-1,1-1.7c0.4-1.2,0.6-2.5,0.6-3.9c0-1.7-0.4-3.6-0.9-4.6
		c-0.7-1.3-1.7-1.9-3.1-1.9C189.1,652.9,188.3,653.2,187.6,654z"/>
	<path class="st6" d="M204.9,667.6c-0.8,0-1.1,0-1.7,0c0.1-0.6,0.1-1,0.1-1.8v-7.6c0-0.6,0-1.1-0.1-1.6c0.5,0,0.8,0,1.7,0h3.2
		c2.2,0,3.3,1,3.3,2.7c0,0.8-0.3,1.4-0.8,1.9c-0.3,0.3-0.6,0.4-1.1,0.6c0.7,0.1,1,0.3,1.4,0.6c0.6,0.5,0.9,1.2,0.9,2.1
		c0,1.9-1.3,3-3.6,3H204.9z M208,661.2c1.2,0,1.9-0.6,1.9-1.7c0-1-0.7-1.6-1.9-1.6h-3.1v3.2H208z M204.9,666.2h3.2
		c1.4,0,2.1-0.7,2.1-1.9c0-0.6-0.2-1-0.5-1.3c-0.4-0.3-0.9-0.5-1.7-0.5h-3.2V666.2z"/>
	<path class="st6" d="M213.6,667.6c0.1-0.5,0.1-1,0.1-1.7v-7.6c0-0.6,0-1.1-0.1-1.7c0.5,0,1,0,1.7,0h2.9c2.4,0,3.7,1.2,3.7,3.3
		c0,2.2-1.4,3.4-3.8,3.4h-2.9v2.5c0,0.7,0,1.2,0.1,1.7H213.6z M218.2,662c1.4,0,2.2-0.7,2.2-2.1c0-1.3-0.7-2-2.2-2h-2.9v4H218.2z"/>
	<path class="st6" d="M228.5,667.6c-0.1-0.4-0.3-1-0.6-1.7l-2.4-5.5c-0.2-0.5-0.3-0.8-0.7-1.9c0.1,0.7,0.1,1.7,0.1,2v5.2
		c0,0.9,0,1.4,0.1,1.9h-1.7c0.1-0.6,0.1-1,0.1-1.9v-7.2c0-0.8,0-1.4-0.1-1.9h2.2c0.1,0.5,0.3,1,0.5,1.6l3.1,7.3l3.1-7.3
		c0.3-0.6,0.4-1.1,0.5-1.6h2.2c-0.1,0.6-0.1,1.1-0.1,1.9v7.2c0,0.9,0,1.4,0.1,1.9h-1.7c0.1-0.5,0.1-1.1,0.1-1.9v-5.2
		c0-1,0.1-1.6,0.1-1.9c-0.2,0.6-0.4,1.3-0.6,1.8l-2.5,5.6c-0.3,0.7-0.4,1.1-0.6,1.7H228.5z"/>
</g>
<g class="st17">
	<path class="st6" d="M39.7,126.2c-0.1-0.5-0.3-1.2-0.7-2.1l-1.8-4.7c-0.2-0.5-0.4-1.2-0.7-2.3c0.1,1.5,0.1,2.1,0.1,2.4v4.4
		c0,1,0,1.7,0.1,2.3h-2.5c0.1-0.6,0.1-1.2,0.1-2.3v-7.6c0-0.9,0-1.6-0.1-2.3h3.4c0.1,0.6,0.3,1.2,0.6,1.9l2.7,7l2.7-7
		c0.3-0.8,0.5-1.4,0.6-1.9h3.4c-0.1,0.7-0.1,1.3-0.1,2.3v7.6c0,1.1,0,1.7,0.1,2.3h-2.5c0.1-0.7,0.1-1.2,0.1-2.3v-4.4
		c0-0.4,0-1,0.1-2.4c-0.1,0.3-0.1,0.3-0.2,0.9c-0.1,0.3-0.3,1.1-0.4,1.3l-1.9,4.7c-0.3,0.8-0.6,1.6-0.7,2.1H39.7z"/>
	<path class="st6" d="M48.9,121.8c0-2.9,1.8-4.7,4.7-4.7c2.9,0,4.7,1.8,4.7,4.7s-1.9,4.8-4.7,4.8C50.7,126.5,48.9,124.7,48.9,121.8z
		 M51.3,121.7c0,1.8,0.9,2.8,2.3,2.8c1.5,0,2.3-1,2.3-2.8c0-1.8-0.8-2.9-2.3-2.9C52.2,118.9,51.3,120,51.3,121.7z"/>
	<path class="st6" d="M59.7,126.2c0.1-0.7,0.1-1.2,0.1-2.1v-4.7c0-1,0-1.5-0.1-2.1h2.5v0.6c0,0.1,0,0.3,0,0.6c0.9-1,1.9-1.4,3.2-1.4
		c2,0,3.1,1.1,3.1,3.2v3.8c0,0.9,0,1.5,0.1,2.1H66c0.1-0.7,0.1-1.3,0.1-2.1v-3.2c0-0.8-0.1-1.1-0.5-1.4c-0.2-0.2-0.5-0.3-0.9-0.3
		c-0.9,0-1.8,0.7-2.5,1.8v3c0,0.8,0,1.4,0.1,2.1H59.7z"/>
	<path class="st6" d="M74,115c-0.1,0.6-0.1,1.2-0.1,1.9v0.4h0.6c0.7,0,1,0,1.5-0.1v2.1c-0.5-0.1-0.8-0.1-1.4-0.1h-0.7v4.2
		c0,0.7,0.3,1,1,1c0.4,0,0.7-0.1,1.1-0.3l0.2,2c-0.6,0.2-1.2,0.3-1.9,0.3c-2,0-2.7-0.7-2.7-2.3v-4.8h-0.6c-0.6,0-0.9,0-1.3,0.1v-2.1
		c0.4,0.1,0.8,0.1,1.4,0.1h0.6v-0.4c0-0.8,0-1.2-0.1-1.9H74z"/>
	<path class="st6" d="M77.3,126.2c0.1-0.7,0.1-1.2,0.1-2.1v-8c0-1,0-1.5-0.1-2.1h2.6c-0.1,0.6-0.1,1.1-0.1,2.1v1.8
		c0,0.1,0,0.3,0,0.6c0.9-1,1.9-1.4,3.2-1.4c2,0,3.1,1.1,3.1,3.2v3.8c0,0.9,0,1.5,0.1,2.1h-2.7c0.1-0.7,0.1-1.3,0.1-2.1v-3.2
		c0-0.8-0.1-1.2-0.5-1.4c-0.2-0.2-0.5-0.2-0.9-0.2c-0.9,0-1.8,0.6-2.5,1.8v3c0,0.8,0,1.4,0.1,2.1H77.3z"/>
	<path class="st6" d="M90,123.3c0.1,0.4,0.2,0.5,0.3,0.7c0.3,0.3,0.8,0.5,1.6,0.5c1,0,1.6-0.3,1.6-0.9c0-0.2-0.1-0.4-0.3-0.6
		s-0.5-0.2-1.4-0.4c-1.4-0.3-2-0.4-2.5-0.7c-0.9-0.4-1.4-1.2-1.4-2.1c0-1.7,1.4-2.8,3.8-2.8c1.3,0,2.4,0.3,3,0.9
		c0.5,0.4,0.7,0.9,0.9,1.6l-2.4,0.3c-0.1-0.7-0.5-1-1.4-1s-1.5,0.3-1.5,0.8c0,0.3,0.2,0.5,0.5,0.6c0.3,0.1,0.6,0.2,1.4,0.4
		c1.5,0.3,2.1,0.5,2.6,0.8c0.8,0.5,1.2,1.1,1.2,2c0,1.9-1.5,3-4.1,3c-1.8,0-3-0.5-3.7-1.4c-0.3-0.4-0.4-0.8-0.6-1.4L90,123.3z"/>
</g>
<g class="st17">
	<path class="st6" d="M288.3,126.2c-0.1-0.4-0.2-1-0.3-1.6l-1.4-5c-0.2-0.5-0.3-1.3-0.4-2c-0.1,0.7-0.3,1.4-0.4,2l-1.4,5
		c-0.2,0.7-0.3,1.2-0.3,1.5h-2.5c-0.1-0.4-0.1-0.5-0.4-1.6l-2.4-8.8c-0.2-0.9-0.4-1.4-0.6-1.8h2.9c0,0.6,0.1,1,0.2,1.6l1.2,5.2
		c0.1,0.4,0.3,1.3,0.3,1.8c0.3-1.3,0.3-1.5,0.4-1.8l1.5-5.3c0.2-0.6,0.3-1.1,0.3-1.5h2.3c0.1,0.4,0.2,0.9,0.3,1.5l1.5,5.3
		c0.1,0.4,0.2,1,0.4,1.9c0.2-1.2,0.2-1.5,0.3-1.9l1.2-5.1c0.1-0.6,0.2-1.2,0.2-1.6h2.9c-0.2,0.4-0.4,1-0.6,1.8l-2.4,8.8
		c-0.2,0.7-0.3,1.3-0.4,1.6H288.3z"/>
	<path class="st6" d="M297.2,122.4c0.1,0.7,0.2,1.1,0.5,1.5c0.4,0.5,1,0.8,1.7,0.8c1.1,0,1.8-0.5,2.1-1.4l2.2,0.6
		c-0.3,0.7-0.6,1.1-1,1.5c-0.8,0.8-2,1.2-3.3,1.2c-1.4,0-2.5-0.4-3.3-1.2c-0.9-0.8-1.3-2.1-1.3-3.6c0-2.8,1.8-4.7,4.5-4.7
		c2,0,3.4,1,4.1,2.7c0.3,0.7,0.3,1.2,0.4,2.3c0,0.1,0,0.1,0,0.4H297.2z M301.5,120.7c-0.1-0.5-0.2-0.8-0.4-1
		c-0.4-0.5-0.9-0.7-1.6-0.7c-1.1,0-1.8,0.6-2.1,1.8H301.5z"/>
	<path class="st6" d="M307.2,122.4c0.1,0.7,0.2,1.1,0.5,1.5c0.4,0.5,1,0.8,1.7,0.8c1.1,0,1.8-0.5,2.1-1.4l2.2,0.6
		c-0.3,0.7-0.6,1.1-1,1.5c-0.8,0.8-2,1.2-3.3,1.2c-1.4,0-2.5-0.4-3.3-1.2c-0.9-0.8-1.3-2.1-1.3-3.6c0-2.8,1.8-4.7,4.5-4.7
		c2,0,3.4,1,4.1,2.7c0.3,0.7,0.3,1.2,0.4,2.3c0,0.1,0,0.1,0,0.4H307.2z M311.5,120.7c-0.1-0.5-0.2-0.8-0.4-1
		c-0.4-0.5-0.9-0.7-1.6-0.7c-1.1,0-1.8,0.6-2.1,1.8H311.5z"/>
	<path class="st6" d="M317.8,114c-0.1,0.6-0.1,1.2-0.1,2.1v4.6l2-1.9c0.7-0.7,1-1,1.2-1.4h3.4c-0.7,0.6-0.8,0.7-1.5,1.4l-2.2,2.1
		l2.6,3.6c0.8,1.1,0.9,1.3,1.4,1.8h-3.3c-0.2-0.6-0.5-1-1-1.8l-1.4-2.1l-1.2,1.1v0.8c0,1.1,0,1.5,0.1,2.1h-2.6
		c0.1-0.7,0.1-1.2,0.1-2.1v-8c0-0.9,0-1.5-0.1-2.1H317.8z"/>
	<path class="st6" d="M327.8,123.3c0.1,0.4,0.2,0.5,0.3,0.7c0.3,0.3,0.8,0.5,1.6,0.5c1,0,1.6-0.3,1.6-0.9c0-0.2-0.1-0.4-0.3-0.6
		s-0.5-0.2-1.4-0.4c-1.4-0.3-2-0.4-2.5-0.7c-0.9-0.4-1.4-1.2-1.4-2.1c0-1.7,1.4-2.8,3.8-2.8c1.3,0,2.4,0.3,3,0.9
		c0.5,0.4,0.7,0.9,0.9,1.6l-2.4,0.3c-0.1-0.7-0.5-1-1.4-1s-1.5,0.3-1.5,0.8c0,0.3,0.2,0.5,0.5,0.6c0.3,0.1,0.6,0.2,1.4,0.4
		c1.5,0.3,2.1,0.5,2.6,0.8c0.8,0.5,1.2,1.1,1.2,2c0,1.9-1.5,3-4.1,3c-1.8,0-3-0.5-3.7-1.4c-0.3-0.4-0.4-0.8-0.6-1.4L327.8,123.3z"/>
</g>
<path id="Home_Indicator-2_4_" class="st6" d="M123,801.2h129c1.4,0,2.5,1.1,2.5,2.5l0,0c0,1.4-1.1,2.5-2.5,2.5H123
	c-1.4,0-2.5-1.1-2.5-2.5l0,0C120.5,802.3,121.6,801.2,123,801.2z"/>
</svg>
