<?xml version="1.0" encoding="utf-8"?>
<!-- Generator: Adobe Illustrator 25.4.1, SVG Export Plug-In . SVG Version: 6.00 Build 0)  -->
<svg version="1.1" id="Layer_1" xmlns="http://www.w3.org/2000/svg" xmlns:xlink="http://www.w3.org/1999/xlink" x="0px" y="0px"
	 viewBox="0 0 375 812" style="enable-background:new 0 0 375 812;" xml:space="preserve">
<style type="text/css">
	.st0{fill:#71CAC4;}
	.st1{opacity:0.35;}
	.st2{fill:none;}
	.st3{fill:none;stroke:#FFFFFF;stroke-miterlimit:10;}
	.st4{opacity:0.4;fill:#FFFFFF;enable-background:new    ;}
	.st5{fill:#FFFFFF;}
	.st6{font-family:'Helvetica';}
	.st7{font-size:15.3996px;}
	.st8{fill:#FFFFFF;fill-opacity:0;}
	.st9{fill:#FFFFFF;stroke:#FFFFFF;stroke-width:3.8;stroke-miterlimit:10;}
	.st10{fill:#FFFFFF;stroke:#71CAC4;stroke-width:3;stroke-miterlimit:10;}
	.st11{fill:none;stroke:#71CAC4;stroke-width:2.5;stroke-miterlimit:10;}
</style>
<rect class="st0" width="375" height="812"/>
<g id="Status_Bar-2_3_" transform="translate(21 13)">
	<g id="Battery_3_" transform="translate(315 3)">
		<g id="Border_3_" transform="translate(0.333 0.333)" class="st1">
			<path class="st2" d="M3-2.9h17.7c1.6,0,2.8,1.2,2.8,2.7V6c0,1.5-1.3,2.7-2.8,2.7H3C1.4,8.8,0.2,7.6,0.2,6v-6.2
				C0.2-1.6,1.4-2.9,3-2.9z"/>
			<path class="st3" d="M3-2.3h17.7c1.3,0,2.3,1,2.3,2.2V6c0,1.2-1,2.2-2.3,2.2H3c-1.3,0-2.3-1-2.3-2.2v-6.2C0.7-1.3,1.7-2.3,3-2.3z
				"/>
		</g>
		<path id="Cap_3_" class="st4" d="M24.9,1.2v4.1c0.9-0.3,1.4-1.2,1.4-2.1C26.3,2.4,25.8,1.6,24.9,1.2"/>
		<path id="Capacity_3_" class="st5" d="M4-0.5h16.3c0.8,0,1.4,0.6,1.4,1.4v4.8c0,0.8-0.6,1.4-1.4,1.4H4c-0.8,0-1.4-0.6-1.4-1.4V0.9
			C2.6,0.1,3.3-0.5,4-0.5z"/>
	</g>
	<path id="Wifi_3_" class="st5" d="M302,11.8c-0.1,0-0.2,0-0.2-0.1l-2.1-2.1c-0.1-0.1-0.1-0.1-0.1-0.2c0-0.1,0-0.2,0.1-0.2
		c1.4-1.1,3.4-1.1,4.7,0c0.1,0.1,0.1,0.3,0,0.5c0,0,0,0,0,0l-2.1,2.1C302.2,11.7,302.1,11.8,302,11.8z M305.8,8.1
		c-0.1,0-0.2,0-0.2-0.1c-2-1.7-5-1.7-7,0c-0.1,0.1-0.1,0.1-0.2,0.1c-0.1,0-0.2,0-0.2-0.1l-1.2-1.2c-0.1-0.1-0.1-0.3,0-0.5
		c0,0,0,0,0,0c2.9-2.6,7.5-2.6,10.4,0c0.1,0.1,0.1,0.1,0.1,0.2c0,0.1,0,0.2-0.1,0.2L306,8C306,8.1,305.9,8.1,305.8,8.1z M308.6,5.4
		c-0.1,0-0.2,0-0.2-0.1c-3.6-3.3-9.1-3.3-12.7,0c-0.1,0.1-0.3,0.1-0.5,0c0,0,0,0,0,0L294,4.1c-0.1-0.1-0.1-0.3,0-0.5c0,0,0,0,0,0
		c4.5-4.2,11.6-4.2,16.1,0c0.1,0.1,0.1,0.3,0,0.5c0,0,0,0,0,0l-1.2,1.2C308.8,5.3,308.7,5.4,308.6,5.4z"/>
	<path id="Cellular_Connection_3_" class="st5" d="M287.5,11.8h-1.1c-0.6,0-1.1-0.5-1.1-1V1.9c0-0.6,0.5-1,1.1-1h1.1
		c0.6,0,1.1,0.5,1.1,1v8.9C288.6,11.3,288.1,11.8,287.5,11.8z M282.6,11.8h-1.1c-0.6,0-1.1-0.5-1.1-1V4.2c0-0.6,0.5-1,1.1-1h1.1
		c0.6,0,1.1,0.5,1.1,1v6.5C283.6,11.3,283.2,11.8,282.6,11.8L282.6,11.8z M277.6,11.8h-1.1c-0.6,0-1.1-0.5-1.1-1V6.6
		c0-0.6,0.5-1,1.1-1h1.1c0.6,0,1.1,0.5,1.1,1v4.1C278.7,11.3,278.2,11.8,277.6,11.8L277.6,11.8z M272.7,11.8h-1.1
		c-0.6,0-1.1-0.5-1.1-1V8.7c0-0.6,0.5-1,1.1-1h1.1c0.6,0,1.1,0.5,1.1,1v2.1C273.7,11.3,273.2,11.8,272.7,11.8z"/>
	<g id="Time_Style_3_">
		<text transform="matrix(1.0346 0 0 1 -5.794 9.3862)" class="st5 st6 st7">9:41</text>
	</g>
</g>
<rect id="Frame" x="3.6" y="776.7" class="st8" width="375" height="34"/>
<path id="Home_Indicator-2" class="st5" d="M126.6,801.6h129c1.4,0,2.5,1.1,2.5,2.5l0,0c0,1.4-1.1,2.5-2.5,2.5h-129
	c-1.4,0-2.5-1.1-2.5-2.5l0,0C124.1,802.7,125.2,801.6,126.6,801.6z"/>
<g>
	<g>
		<g>
			<path class="st5" d="M85.4,482.1v-35.6l24.3,25.4v-23.1h5v35.3l-24.3-25.3v23.3H85.4z"/>
			<path class="st5" d="M123.2,452.4c0-0.8,0.3-1.6,0.9-2.2c0.6-0.6,1.4-0.9,2.2-0.9c0.9,0,1.6,0.3,2.2,0.9c0.6,0.6,0.9,1.3,0.9,2.2
				s-0.3,1.6-0.9,2.2c-0.6,0.6-1.3,0.9-2.2,0.9s-1.6-0.3-2.2-0.9C123.5,454,123.2,453.2,123.2,452.4z M128.8,461.1v21H124v-21H128.8
				z"/>
			<path class="st5" d="M157.4,481.6c0,1,0,1.9-0.1,2.6c-0.1,0.8-0.2,1.4-0.3,2c-0.3,1.6-1,2.9-2,4.1c-1.9,2.2-4.5,3.3-7.8,3.3
				c-2.8,0-5.1-0.8-6.9-2.3c-1.9-1.6-2.9-3.7-3.2-6.4h4.9c0.2,1,0.5,1.8,0.9,2.4c1,1.3,2.5,2,4.4,2c3.6,0,5.3-2.2,5.3-6.5v-2.9
				c-1.9,2-4.1,3-6.7,3c-2.9,0-5.2-1-7-3.1c-1.8-2.1-2.8-4.7-2.8-7.9c0-3.1,0.9-5.7,2.6-7.8c1.8-2.3,4.3-3.4,7.3-3.4
				c2.6,0,4.8,1,6.6,3v-2.4h4.9V481.6z M152.8,471.6c0-2-0.5-3.7-1.6-4.9c-1.1-1.2-2.5-1.9-4.2-1.9c-1.8,0-3.3,0.7-4.4,2
				c-1,1.2-1.4,2.8-1.4,4.7c0,1.9,0.5,3.5,1.4,4.7c1,1.3,2.5,2,4.4,2s3.3-0.7,4.4-2C152.3,475.1,152.8,473.5,152.8,471.6z"/>
			<path class="st5" d="M165.7,445.7h4.9v17.2c1.7-1.6,3.6-2.3,5.7-2.3c2.4,0,4.3,0.8,5.7,2.3c1.2,1.3,1.8,3.5,1.8,6.4v12.9h-4.9
				v-12.4c0-1.7-0.3-2.9-0.9-3.7c-0.6-0.8-1.6-1.1-2.9-1.1c-1.7,0-2.9,0.5-3.6,1.6c-0.7,1.1-1,2.9-1,5.5v10.2h-4.9V445.7z"/>
			<path class="st5" d="M197.1,465.6v16.5h-4.9v-16.5h-2.1v-4.5h2.1v-7.7h4.9v7.7h3.8v4.5H197.1z"/>
			<path class="st5" d="M205.6,465.3c0-4.7,1.7-8.7,5.2-12.1c3.4-3.4,7.5-5,12.3-5c4.7,0,8.8,1.7,12.2,5.1c3.4,3.4,5.1,7.5,5.1,12.2
				c0,4.8-1.7,8.8-5.1,12.2c-3.4,3.3-7.6,5-12.4,5c-4.3,0-8.2-1.5-11.6-4.5C207.5,474.9,205.6,470.6,205.6,465.3z M210.7,465.4
				c0,3.7,1.2,6.7,3.7,9.1c2.5,2.4,5.3,3.6,8.5,3.6c3.5,0,6.4-1.2,8.8-3.6c2.4-2.4,3.6-5.4,3.6-8.9c0-3.6-1.2-6.5-3.6-8.9
				c-2.4-2.4-5.3-3.6-8.8-3.6c-3.5,0-6.4,1.2-8.8,3.6C211.9,458.9,210.7,461.9,210.7,465.4z"/>
			<path class="st5" d="M250.6,461.1l5.5,12l5.9-13.9l6,13.9l5.4-12h5.4l-11,22.6l-5.8-13.5l-5.9,13.5l-11-22.6H250.6z"/>
			<path class="st5" d="M289.6,445.7v36.4h-4.9v-36.4H289.6z"/>
		</g>
		<g>
			<circle class="st9" cx="188.1" cy="378.4" r="48.9"/>
			<g>
				<path class="st10" d="M188.1,410.5c-1.3-38.9-33.5-54.3-45.7-58.3c-18.3-5.9-9.5-33.8-9.5-33.8l21.2,22.2"/>
			</g>
			<g>
				<path class="st10" d="M188.1,410.5c1.3-38.9,33.5-54.3,45.7-58.3c18.3-5.9,9.5-33.8,9.5-33.8l-21.2,22.2"/>
			</g>
			<path class="st0" d="M176.5,374.2c-2,2.6-5.2,4.2-8.7,4.2c-6.1,0-11-4.9-11-11c0-2.5,0.9-4.9,2.3-6.7"/>
			<path class="st0" d="M199.4,375.4c2,2.6,5.2,4.2,8.7,4.2c6.1,0,11-4.9,11-11c0-2.5-0.9-4.9-2.3-6.7"/>
			<path class="st0" d="M188.3,382.4c0,0-11.3,14.4,0,32C188.3,414.4,198.9,399.3,188.3,382.4z"/>
			<path class="st11" d="M180.3,380.9c-3.4,4.4-8.8,7.2-14.8,7.2c-10.4,0-18.8-8.4-18.8-18.8c0-4.3,1-10.1,4.1-13.7"/>
			<path class="st11" d="M194.8,382c3.4,4.4,8.8,7.2,14.8,7.2c10.4,0,18.8-8.4,18.8-18.8c0-4.3-1-10.1-4.1-13.7"/>
		</g>
	</g>
</g>
</svg>
