<?xml version="1.0" encoding="utf-8"?>
<!-- Generator: Adobe Illustrator 25.4.1, SVG Export Plug-In . SVG Version: 6.00 Build 0)  -->
<svg version="1.1" id="Layer_1" xmlns="http://www.w3.org/2000/svg" xmlns:xlink="http://www.w3.org/1999/xlink" x="0px" y="0px"
	 viewBox="0 0 375 812" style="enable-background:new 0 0 375 812;" xml:space="preserve">
<style type="text/css">
	.st0{fill:#B0DBD6;}
	.st1{fill:#71CAC4;}
	.st2{fill:url(#SVGID_1_);}
	
		.st3{fill:none;stroke:url(#SVGID_00000051351849991395099600000010582193589001063072_);stroke-width:18;stroke-linecap:round;stroke-miterlimit:10;}
	.st4{fill:url(#SVGID_00000031179052038115350180000014477920420635199636_);}
	.st5{fill:#FFFFFF;}
	.st6{opacity:0.35;}
	.st7{fill:none;}
	.st8{fill:none;stroke:#FFFFFF;stroke-miterlimit:10;}
	.st9{opacity:0.4;fill:#FFFFFF;enable-background:new    ;}
	.st10{font-family:'Helvetica';}
	.st11{font-size:15.3996px;}
	.st12{fill:#71CAC4;stroke:#FFFFFF;stroke-miterlimit:10;}
	.st13{opacity:0.24;fill:#FFF9F8;}
	.st14{fill:url(#SVGID_00000038404485404076340440000010348896192980938931_);}
	.st15{fill:url(#SVGID_00000022521613603156701110000008750734745920226702_);}
</style>
<rect y="0" class="st0" width="375" height="812"/>
<path class="st1" d="M375,812H0.2v-84.7c0-10.7,8.7-19.4,19.4-19.4h336.1c10.7,0,19.4,8.7,19.4,19.4V812z"/>
<g>
	<linearGradient id="SVGID_1_" gradientUnits="userSpaceOnUse" x1="181.7243" y1="181.9515" x2="189.8556" y2="533.3566">
		<stop  offset="0.1024" style="stop-color:#6CCEF3"/>
		<stop  offset="0.9242" style="stop-color:#50A3DA"/>
	</linearGradient>
	<ellipse class="st2" cx="186.5" cy="387" rx="110.3" ry="108.8"/>
	<g>
		<g>
			
				<image style="overflow:visible;opacity:0.47;" width="272" height="272" xlink:href="C517E4782E93B4EF.png"  transform="matrix(1 0 0 1 50.2946 252.2957)">
			</image>
			<g>
				
					<linearGradient id="SVGID_00000100341322403680822670000016426024376095761077_" gradientUnits="userSpaceOnUse" x1="59.9378" y1="387.0315" x2="312.6514" y2="387.0315">
					<stop  offset="0" style="stop-color:#5ABE89"/>
					<stop  offset="1" style="stop-color:#33C2DA"/>
				</linearGradient>
				
					<path style="fill:none;stroke:url(#SVGID_00000100341322403680822670000016426024376095761077_);stroke-width:18;stroke-linecap:round;stroke-miterlimit:10;" d="
					M280.9,317.6c14.3,19.4,22.7,43.5,22.7,69.4c0,64.8-52.5,117.4-117.4,117.4S68.9,451.8,68.9,387s52.5-117.4,117.4-117.4
					c6.7,0,13.2,0.6,19.5,1.6"/>
			</g>
		</g>
		
			<linearGradient id="SVGID_00000034071232436313618020000010139428414024320418_" gradientUnits="userSpaceOnUse" x1="182.6725" y1="603.5099" x2="187.8343" y2="255.381">
			<stop  offset="0.1011" style="stop-color:#6CCEF3"/>
			<stop  offset="0.9242" style="stop-color:#50A3DA"/>
		</linearGradient>
		
			<ellipse style="fill:url(#SVGID_00000034071232436313618020000010139428414024320418_);" cx="185.9" cy="387" rx="81.7" ry="80.6"/>
		<g>
			<path class="st5" d="M181.1,350.6c-1.2,0.8-2.3,2.3-4.8,6.1c-7.1,11-10,16.4-12.9,25c-2.1,6.3-3,10.2-4.3,19.3h-5.8
				c2.2-13.2,4.2-19.6,8.9-29.1c3.5-7.3,6.7-12.3,13.4-21.2h-24.2c-3.2,0-5.3,0.1-7.9,0.5V346c2.7,0.4,4.6,0.5,8,0.5H173
				c3.9,0,5.7-0.1,8.1-0.4V350.6z"/>
			<path class="st5" d="M223.8,375.5c3.7,2.8,5.6,6.6,5.6,11.4c0,9.8-7,15.3-19.6,15.3c-7.4,0-12.8-1.7-16.3-4.9
				c-2.6-2.5-4-6.1-4-10.2c0-5.3,2.2-9.3,6.6-12.1c2.3-1.5,3.9-2,6.5-2.3c-6.4-1.1-10.6-6.3-10.6-13c0-3.7,1.3-7.1,3.7-9.5
				c3-3.1,7.8-4.7,13.6-4.7c11,0,17.6,5.4,17.6,14.2c0,6.8-4.2,11.8-10.6,13C219.3,372.9,221.3,373.7,223.8,375.5z M194.4,386.7
				c0,7.2,5.5,11.3,15.2,11.3c5.1,0,9.5-1.4,12-3.9c1.8-1.8,2.9-4.4,2.9-7.5c0-7.3-5.7-11.8-15-11.8
				C200.1,374.8,194.4,379.3,194.4,386.7z M196.6,359.8c0,6.8,4.8,10.9,12.8,10.9s12.8-4.1,12.8-10.8c0-2.8-0.9-5.1-2.6-6.8
				c-2.4-2.3-6.1-3.6-10.3-3.6C201.7,349.5,196.6,353.5,196.6,359.8z"/>
			<path class="st5" d="M164.6,428.1c-0.9,0-1.6,0-2.4,0.1c0.2-0.9,0.2-1.4,0.2-2.7v-11.7c0-0.9,0-1.5-0.2-2.2c0.7,0,1.1,0,2.3,0
				h4.6c3.2,0,4.9,1.4,4.9,4c0,1.3-0.4,2.2-1.2,2.9c-0.4,0.4-0.8,0.6-1.7,0.9c1,0.2,1.5,0.4,2.1,0.9c0.9,0.7,1.4,1.8,1.4,3.3
				c0,2.9-1.9,4.6-5.2,4.6H164.6z M169.3,418.7c2.2,0,3.4-1.1,3.4-3.1c0-1.9-1.2-2.9-3.5-2.9h-5.4v5.9H169.3z M163.9,426.8h5.5
				c2.5,0,3.9-1.2,3.9-3.4c0-2.3-1.4-3.4-4-3.4h-5.5V426.8z"/>
			<path class="st5" d="M177.8,428.1c0.1-0.8,0.2-1.4,0.2-2.4v-11.8c0-0.9,0-1.5-0.2-2.4c0.8,0,1.4,0.1,2.3,0.1h4.5
				c3.3,0,5.2,1.7,5.2,4.7c0,3.1-1.9,5-5.3,5h-5.2v4.5c0,1,0,1.7,0.2,2.4H177.8z M184.5,419.9c2.4,0,3.8-1.3,3.8-3.6
				c0-2.3-1.3-3.5-3.8-3.5h-5.1v7.1H184.5z"/>
			<path class="st5" d="M200.2,428.1c-0.1-0.5-0.3-1.1-0.8-2.1l-4.5-9.7c-0.4-0.9-0.7-1.6-1.3-3.2c0.1,2.3,0.2,3.2,0.2,3.9v8.7
				c0,1.1,0,1.7,0.2,2.4h-1.7c0.1-0.8,0.2-1.4,0.2-2.4V414c0-1,0-1.7-0.2-2.4h2.2c0.2,0.7,0.4,1.4,0.7,2.1l5.7,12.4l5.7-12.4
				c0.4-0.8,0.6-1.5,0.8-2.1h2.1c-0.1,0.8-0.2,1.4-0.2,2.4v11.7c0,1.1,0,1.7,0.2,2.4h-1.7c0.1-0.8,0.2-1.5,0.2-2.4v-8.7
				c0-0.8,0-1.5,0.1-3.9c-0.5,1.5-0.8,2.3-1.2,3.1l-4.6,9.8c-0.5,1-0.7,1.5-0.8,2.1H200.2z"/>
		</g>
	</g>
</g>
<path class="st1" d="M350.7,166.1H24.3C10.9,166.1,0,155.2,0,141.8V0.9h375v140.9C375,155.2,364.1,166.1,350.7,166.1z"/>
<g id="Status_Bar-2_4_" transform="translate(21 13)">
	<g id="Battery_4_" transform="translate(315 3)">
		<g id="Border_4_" transform="translate(0.333 0.333)" class="st6">
			<path class="st7" d="M1.7-2.8h17.7c1.6,0,2.8,1.2,2.8,2.7V6c0,1.5-1.3,2.7-2.8,2.7H1.7C0.2,8.8-1.1,7.6-1.1,6v-6.2
				C-1.1-1.6,0.2-2.8,1.7-2.8z"/>
			<path class="st8" d="M1.7-2.3h17.7c1.3,0,2.3,1,2.3,2.2V6c0,1.2-1,2.2-2.3,2.2H1.7c-1.3,0-2.3-1-2.3-2.2v-6.2
				C-0.6-1.3,0.5-2.3,1.7-2.3z"/>
		</g>
		<path id="Cap_4_" class="st9" d="M23.7,1.2v4.1c0.9-0.3,1.4-1.2,1.4-2.1C25.1,2.4,24.5,1.6,23.7,1.2"/>
		<path id="Capacity_4_" class="st5" d="M2.8-0.5h16.3c0.8,0,1.4,0.6,1.4,1.4v4.8c0,0.8-0.6,1.4-1.4,1.4H2.8C2,7.1,1.3,6.5,1.3,5.7
			V0.9C1.3,0.1,2-0.5,2.8-0.5z"/>
	</g>
	<path id="Wifi_4_" class="st5" d="M300.8,11.8c-0.1,0-0.2,0-0.2-0.1l-2.1-2.1c-0.1-0.1-0.1-0.1-0.1-0.2c0-0.1,0-0.2,0.1-0.2
		c1.4-1.1,3.4-1.1,4.7,0c0.1,0.1,0.1,0.3,0,0.5c0,0,0,0,0,0l-2.1,2.1C300.9,11.7,300.9,11.8,300.8,11.8z M304.5,8.1
		c-0.1,0-0.2,0-0.2-0.1c-2-1.7-5-1.7-7,0c-0.1,0.1-0.1,0.1-0.2,0.1c-0.1,0-0.2,0-0.2-0.1l-1.2-1.2c-0.1-0.1-0.1-0.3,0-0.5
		c0,0,0,0,0,0c2.9-2.6,7.5-2.6,10.4,0c0.1,0.1,0.1,0.1,0.1,0.2c0,0.1,0,0.2-0.1,0.2L304.7,8C304.7,8.1,304.6,8.1,304.5,8.1z
		 M307.3,5.4c-0.1,0-0.2,0-0.2-0.1c-3.6-3.3-9.1-3.3-12.7,0c-0.1,0.1-0.3,0.1-0.5,0c0,0,0,0,0,0l-1.2-1.2c-0.1-0.1-0.1-0.3,0-0.5
		c0,0,0,0,0,0c4.5-4.2,11.6-4.2,16.1,0c0.1,0.1,0.1,0.3,0,0.5c0,0,0,0,0,0l-1.2,1.2C307.5,5.3,307.4,5.4,307.3,5.4z"/>
	<path id="Cellular_Connection_4_" class="st5" d="M286.3,11.8h-1.1c-0.6,0-1.1-0.5-1.1-1V1.9c0-0.6,0.5-1,1.1-1h1.1
		c0.6,0,1.1,0.5,1.1,1v8.9C287.3,11.3,286.8,11.8,286.3,11.8z M281.3,11.8h-1.1c-0.6,0-1.1-0.5-1.1-1V4.2c0-0.6,0.5-1,1.1-1h1.1
		c0.6,0,1.1,0.5,1.1,1v6.5C282.4,11.3,281.9,11.8,281.3,11.8L281.3,11.8z M276.3,11.8h-1.1c-0.6,0-1.1-0.5-1.1-1V6.6
		c0-0.6,0.5-1,1.1-1h1.1c0.6,0,1.1,0.5,1.1,1v4.1C277.4,11.3,276.9,11.8,276.3,11.8L276.3,11.8z M271.4,11.8h-1.1
		c-0.6,0-1.1-0.5-1.1-1V8.7c0-0.6,0.5-1,1.1-1h1.1c0.6,0,1.1,0.5,1.1,1v2.1C272.4,11.3,272,11.8,271.4,11.8z"/>
	<g id="Time_Style_4_">
		<text transform="matrix(1.0346 0 0 1 -7.0634 12.118)" class="st5 st10 st11">9:41</text>
	</g>
</g>
<polygon class="st8" points="46.7,727.3 42.1,729.1 36.6,725.3 32.5,729 36.5,734.6 34.6,738.8 28,740.1 28,745.6 34.7,746.7 
	36.6,750.9 32.6,756.3 36.8,760.2 42.3,756.5 46.9,758.4 48.2,764.9 53.6,765 54.9,758.5 59.8,756.6 65.2,760.4 69.4,756.4 
	65.1,751.2 66.7,747.2 73.7,745.9 73.5,740.5 67.1,739.3 64.9,734.8 68.6,729.6 64.7,725.8 59.3,729.2 54.7,727.6 53.5,720.8 
	47.4,720.8 "/>
<circle class="st12" cx="50.8" cy="742.9" r="6.9"/>
<g>
	<path class="st5" d="M29.6,780.4c0,0.6,0.1,0.9,0.4,1.2c0.4,0.6,1.2,0.9,2.2,0.9c1.6,0,2.5-0.7,2.5-1.9c0-0.6-0.3-1.1-0.8-1.3
		c-0.4-0.2-0.6-0.3-2-0.6c-0.8-0.2-1.3-0.3-1.7-0.5c-0.8-0.4-1.2-1.1-1.2-1.9c0-1.5,1.2-2.4,3.1-2.4c1.2,0,2.1,0.4,2.7,1.1
		c0.3,0.3,0.4,0.6,0.5,1.2l-0.9,0.1c-0.1-0.5-0.2-0.7-0.5-1c-0.4-0.5-1.1-0.7-1.9-0.7c-1.4,0-2.3,0.7-2.3,1.7c0,0.7,0.4,1.1,1.1,1.4
		c0.4,0.1,0.4,0.1,1.8,0.4c2,0.4,2.7,1.1,2.7,2.5c0,1.6-1.2,2.6-3.3,2.6c-1.4,0-2.4-0.4-2.9-1.2c-0.3-0.4-0.4-0.8-0.6-1.5
		L29.6,780.4z"/>
	<path class="st5" d="M37.6,779.9c0,0.8,0.2,1.3,0.5,1.8c0.4,0.6,1.1,0.9,1.8,0.9c0.7,0,1.3-0.3,1.7-0.7c0.2-0.2,0.3-0.4,0.4-0.7
		l0.7,0.3c-0.3,0.5-0.4,0.7-0.7,1c-0.6,0.5-1.3,0.8-2.2,0.8c-1.9,0-3.1-1.3-3.1-3.3c0-2,1.2-3.3,3-3.3c1.5,0,2.6,0.9,2.9,2.4
		c0,0.1,0,0.4,0.1,1H37.6z M42,779.3c-0.1-0.6-0.2-1-0.5-1.3c-0.4-0.5-1-0.8-1.7-0.8c-1.2,0-2,0.8-2.2,2.1H42z"/>
	<path class="st5" d="M46.1,774.9c-0.1,0.4-0.1,0.8-0.1,1.3v0.5h0.6c0.6,0,0.9,0,1.3-0.1v0.8c-0.4-0.1-0.7-0.1-1.3-0.1H46v4.3
		c0,0.3,0.1,0.5,0.2,0.7c0.1,0.1,0.4,0.2,0.6,0.2c0.3,0,0.6-0.1,1-0.3l0.3,0.7c-0.5,0.2-0.9,0.3-1.4,0.3c-0.5,0-0.9-0.1-1.1-0.4
		c-0.2-0.2-0.3-0.6-0.3-1.1v-4.4h-0.5c-0.4,0-0.7,0-1.1,0.1v-0.8c0.3,0.1,0.6,0.1,1.1,0.1h0.5v-0.5c0-0.5,0-0.9-0.1-1.3H46.1z"/>
	<path class="st5" d="M50.8,774.9c-0.1,0.4-0.1,0.8-0.1,1.3v0.5h0.6c0.6,0,0.9,0,1.3-0.1v0.8c-0.4-0.1-0.7-0.1-1.3-0.1h-0.6v4.3
		c0,0.3,0,0.5,0.2,0.7c0.1,0.1,0.4,0.2,0.6,0.2c0.3,0,0.6-0.1,1-0.3l0.3,0.7c-0.5,0.2-0.9,0.3-1.4,0.3c-0.5,0-0.9-0.1-1.1-0.4
		c-0.2-0.2-0.3-0.6-0.3-1.1v-4.4h-0.5c-0.4,0-0.7,0-1.1,0.1v-0.8c0.3,0.1,0.6,0.1,1.1,0.1H50v-0.5c0-0.5,0-0.9-0.1-1.3H50.8z"/>
	<path class="st5" d="M54.9,774v1h-1.1v-1H54.9z M54.9,776.7c-0.1,0.4-0.1,0.7-0.1,1.3v3.8c0,0.5,0,0.8,0.1,1.3h-1
		c0.1-0.5,0.1-0.8,0.1-1.3V778c0-0.5,0-0.9-0.1-1.3H54.9z"/>
	<path class="st5" d="M56.7,783c0.1-0.4,0.1-0.8,0.1-1.3V778c0-0.5,0-0.8-0.1-1.3h0.9v0.9c0,0.1,0,0.3,0,0.5
		c0.2-0.4,0.4-0.6,0.6-0.9c0.5-0.5,1.1-0.7,1.9-0.7c1.5,0,2.3,0.8,2.3,2.2v3c0,0.6,0,0.9,0.1,1.3h-1c0.1-0.5,0.1-0.8,0.1-1.3v-2.8
		c0-1.1-0.6-1.7-1.7-1.7c-0.7,0-1.3,0.3-1.8,1c-0.3,0.4-0.5,0.7-0.5,1.2v2.3c0,0.5,0,0.8,0.1,1.3H56.7z"/>
	<path class="st5" d="M70.3,776.7c-0.1,0.4-0.1,0.7-0.1,1.3v4.4c0,1.1-0.2,1.8-0.7,2.4c-0.5,0.6-1.4,1-2.5,1c-1.2,0-1.9-0.3-2.7-1.2
		l0.7-0.4c0.2,0.2,0.2,0.3,0.4,0.4c0.5,0.4,1,0.6,1.7,0.6c1.2,0,1.9-0.5,2.2-1.4c0.1-0.4,0.1-0.4,0.2-1.9c-0.2,0.3-0.3,0.5-0.6,0.7
		c-0.5,0.4-1.2,0.7-2,0.7c-1.9,0-3-1.2-3-3.2c0-2,1.2-3.3,3-3.3c1.2,0,2,0.4,2.5,1.4c0-0.2,0-0.3,0-0.5v-0.8H70.3z M67,782.5
		c1.5,0,2.5-1.1,2.5-2.7c0-1.6-0.9-2.6-2.4-2.6c-1.4,0-2.3,1-2.3,2.7C64.8,781.5,65.6,782.5,67,782.5z"/>
	<path class="st5" d="M72.7,781.2c0.1,0.4,0.2,0.7,0.4,0.9c0.3,0.3,0.9,0.4,1.5,0.4c1.1,0,1.9-0.5,1.9-1.2c0-0.4-0.1-0.6-0.4-0.8
		c-0.3-0.2-0.6-0.3-1.5-0.5c-1-0.2-1.5-0.3-1.9-0.6c-0.4-0.3-0.6-0.7-0.6-1.2c0-0.4,0.2-0.8,0.5-1.1c0.4-0.4,1.1-0.6,1.9-0.6
		c0.8,0,1.4,0.2,1.9,0.5c0.3,0.3,0.5,0.5,0.7,1.1l-0.8,0.1c-0.1-0.3-0.2-0.5-0.3-0.7c-0.3-0.3-0.8-0.5-1.4-0.5c-1,0-1.6,0.5-1.6,1.2
		c0,0.3,0.2,0.6,0.4,0.7c0.3,0.2,0.6,0.3,1.4,0.4c1.3,0.3,1.7,0.4,2,0.7c0.3,0.3,0.5,0.7,0.5,1.2c0,1.2-1,1.9-2.7,1.9
		c-1.1,0-1.9-0.3-2.4-0.9c-0.2-0.2-0.3-0.4-0.4-0.9L72.7,781.2z"/>
</g>
<g>
	<ellipse class="st8" cx="243.5" cy="743.9" rx="20.3" ry="20"/>
	<polyline class="st8" points="252.7,752 242,745 242.2,731.9 	"/>
</g>
<g>
	<path class="st5" d="M231.5,772.9c-0.1,0.5-0.1,0.7-0.1,1.3v6.4c0,0.6,0,0.9,0.1,1.3h-0.9c0.1-0.4,0.1-0.7,0.1-1.3v-3.1H225v3.1
		c0,0.6,0,0.9,0.1,1.3h-0.9c0.1-0.4,0.1-0.7,0.1-1.3v-6.4c0-0.6,0-0.9-0.1-1.3h0.9c-0.1,0.4-0.1,0.7-0.1,1.3v2.6h5.6v-2.6
		c0-0.5,0-0.9-0.1-1.3H231.5z"/>
	<path class="st5" d="M234.3,772.9v1h-1v-1H234.3z M234.2,775.6c-0.1,0.4-0.1,0.7-0.1,1.3v3.8c0,0.5,0,0.8,0.1,1.3h-0.9
		c0.1-0.5,0.1-0.8,0.1-1.3v-3.8c0-0.5,0-0.9-0.1-1.3H234.2z"/>
	<path class="st5" d="M236.5,780.1c0.1,0.4,0.2,0.7,0.4,0.9c0.3,0.3,0.8,0.4,1.4,0.4c1.1,0,1.8-0.5,1.8-1.2c0-0.4-0.1-0.6-0.4-0.8
		c-0.3-0.2-0.6-0.3-1.4-0.5c-1-0.2-1.4-0.3-1.8-0.6c-0.3-0.3-0.5-0.7-0.5-1.2c0-0.4,0.2-0.8,0.5-1.1c0.4-0.4,1-0.6,1.8-0.6
		c0.8,0,1.4,0.2,1.8,0.5c0.3,0.3,0.5,0.5,0.6,1.1l-0.8,0.1c-0.1-0.3-0.1-0.5-0.3-0.7c-0.3-0.3-0.8-0.5-1.3-0.5
		c-0.9,0-1.6,0.5-1.6,1.2c0,0.3,0.2,0.6,0.4,0.7c0.3,0.2,0.6,0.3,1.4,0.4c1.2,0.3,1.6,0.4,1.9,0.7c0.3,0.3,0.5,0.7,0.5,1.2
		c0,1.2-1,1.9-2.6,1.9c-1,0-1.8-0.3-2.3-0.9c-0.2-0.2-0.3-0.4-0.4-0.9L236.5,780.1z"/>
	<path class="st5" d="M243.9,773.8c-0.1,0.4-0.1,0.8-0.1,1.3v0.5h0.6c0.6,0,0.8,0,1.2-0.1v0.8c-0.4-0.1-0.7-0.1-1.2-0.1h-0.6v4.3
		c0,0.3,0,0.5,0.2,0.7c0.1,0.1,0.3,0.2,0.6,0.2c0.3,0,0.6-0.1,1-0.3l0.3,0.7c-0.5,0.2-0.9,0.3-1.3,0.3c-0.5,0-0.9-0.1-1.1-0.4
		c-0.2-0.2-0.3-0.6-0.3-1.1v-4.4h-0.5c-0.4,0-0.7,0-1.1,0.1v-0.8c0.3,0.1,0.6,0.1,1.1,0.1h0.5v-0.5c0-0.5,0-0.9-0.1-1.3H243.9z"/>
	<path class="st5" d="M246.5,778.8c0-2,1.2-3.3,3.1-3.3c1.9,0,3.1,1.3,3.1,3.3c0,2-1.2,3.3-3.1,3.3
		C247.7,782.1,246.5,780.8,246.5,778.8z M247.3,778.8c0,1.7,0.9,2.7,2.3,2.7c1.4,0,2.3-1,2.3-2.7c0-1.7-0.9-2.7-2.3-2.7
		C248.2,776.1,247.3,777.1,247.3,778.8z"/>
	<path class="st5" d="M257.9,776.4c-0.4-0.1-0.6-0.2-0.9-0.2c-0.6,0-1.1,0.3-1.5,0.8c-0.3,0.4-0.4,0.7-0.4,1.2v2.5
		c0,0.5,0,0.8,0.1,1.3h-0.9c0.1-0.5,0.1-0.9,0.1-1.3v-3.8c0-0.6,0-0.9-0.1-1.3h0.8v0.8c0,0,0,0,0,0.1v0.1c0,0.1,0,0.1,0,0.1
		c0.2-0.3,0.4-0.5,0.6-0.7c0.4-0.3,0.9-0.5,1.5-0.5c0.3,0,0.5,0,1,0.1L257.9,776.4z"/>
	<path class="st5" d="M259,777c-0.5-1.1-0.5-1.1-0.6-1.4h1c0.1,0.3,0.2,0.8,0.4,1.2l1.8,4.2l1.6-4.2c0.2-0.6,0.3-0.9,0.4-1.2h0.9
		c-0.1,0.2-0.3,0.7-0.6,1.4l-2.7,6.6c-0.3,0.7-0.8,1-1.5,1c-0.3,0-0.5,0-0.9-0.1l0.3-0.8c0.3,0.2,0.5,0.2,0.7,0.2
		c0.4,0,0.7-0.2,0.9-0.7l0.6-1.4L259,777z"/>
</g>
<g>
	<rect x="313.6" y="721.6" class="st8" width="7.1" height="43.3"/>
	<rect x="326.8" y="726.6" class="st8" width="7.1" height="38.2"/>
	<rect x="339.9" y="741.2" class="st8" width="7.1" height="23.6"/>
</g>
<g>
	<path class="st5" d="M311.4,772.6c-0.1,0.4-0.1,0.8-0.1,1.3v6.4c0,0.5,0,0.9,0.1,1.3h-0.9c0.1-0.4,0.1-0.7,0.1-1.3v-6.4
		c0-0.6,0-0.9-0.1-1.3H311.4z"/>
	<path class="st5" d="M313.1,781.6c0.1-0.4,0.1-0.8,0.1-1.3v-3.8c0-0.5,0-0.8-0.1-1.3h0.8v0.9c0,0.1,0,0.3,0,0.5
		c0.2-0.4,0.3-0.6,0.6-0.9c0.5-0.5,1-0.7,1.7-0.7c1.3,0,2,0.8,2,2.2v3c0,0.6,0,0.9,0.1,1.3h-0.9c0.1-0.5,0.1-0.8,0.1-1.3v-2.8
		c0-1.1-0.5-1.7-1.5-1.7c-0.6,0-1.2,0.3-1.6,1c-0.3,0.4-0.4,0.7-0.5,1.2v2.3c0,0.5,0,0.8,0.1,1.3H313.1z"/>
	<path class="st5" d="M320.3,779.8c0.1,0.4,0.2,0.7,0.4,0.9c0.3,0.3,0.8,0.4,1.3,0.4c1,0,1.7-0.5,1.7-1.2c0-0.4-0.1-0.6-0.4-0.8
		c-0.3-0.2-0.6-0.3-1.4-0.5c-0.9-0.2-1.3-0.3-1.7-0.6c-0.3-0.3-0.5-0.7-0.5-1.2c0-0.4,0.2-0.8,0.5-1.1c0.4-0.4,1-0.6,1.7-0.6
		c0.7,0,1.3,0.2,1.7,0.5c0.3,0.3,0.4,0.5,0.6,1.1l-0.7,0.1c-0.1-0.3-0.1-0.5-0.3-0.7c-0.3-0.3-0.7-0.5-1.2-0.5
		c-0.9,0-1.5,0.5-1.5,1.2c0,0.3,0.1,0.6,0.4,0.7c0.3,0.2,0.6,0.3,1.3,0.4c1.1,0.3,1.5,0.4,1.8,0.7c0.3,0.3,0.5,0.7,0.5,1.2
		c0,1.2-0.9,1.9-2.4,1.9c-1,0-1.7-0.3-2.1-0.9c-0.2-0.2-0.2-0.4-0.3-0.9L320.3,779.8z"/>
	<path class="st5" d="M326.6,772.6v1h-0.9v-1H326.6z M326.5,775.2c-0.1,0.4-0.1,0.7-0.1,1.3v3.8c0,0.5,0,0.8,0.1,1.3h-0.9
		c0.1-0.5,0.1-0.8,0.1-1.3v-3.8c0-0.5,0-0.9-0.1-1.3H326.5z"/>
	<path class="st5" d="M333.6,775.2c-0.1,0.4-0.1,0.7-0.1,1.3v4.4c0,1.1-0.2,1.8-0.6,2.4c-0.4,0.6-1.2,1-2.3,1
		c-1.1,0-1.7-0.3-2.4-1.2l0.6-0.4c0.1,0.2,0.2,0.3,0.3,0.4c0.4,0.4,0.9,0.6,1.5,0.6c1,0,1.7-0.5,2-1.4c0.1-0.4,0.1-0.4,0.2-1.9
		c-0.2,0.3-0.3,0.5-0.5,0.7c-0.4,0.4-1.1,0.7-1.8,0.7c-1.7,0-2.7-1.2-2.7-3.2c0-2,1.1-3.3,2.7-3.3c1.1,0,1.8,0.4,2.2,1.4
		c0-0.2,0-0.3,0-0.5v-0.8H333.6z M330.6,781c1.3,0,2.2-1.1,2.2-2.7c0-1.6-0.8-2.6-2.1-2.6c-1.3,0-2.1,1-2.1,2.7
		C328.6,780.1,329.4,781,330.6,781z"/>
	<path class="st5" d="M335.2,781.6c0.1-0.4,0.1-0.7,0.1-1.3v-6.4c0-0.6,0-0.9-0.1-1.3h0.8c-0.1,0.4-0.1,0.7-0.1,1.3v2.2
		c0,0.2,0,0.3,0,0.6c0.2-0.4,0.3-0.6,0.6-0.9c0.5-0.5,1-0.7,1.7-0.7c1.3,0,2.1,0.8,2.1,2.2v3c0,0.5,0,0.8,0.1,1.3h-0.9
		c0.1-0.4,0.1-0.7,0.1-1.3v-2.9c0-0.5-0.1-1-0.4-1.2c-0.2-0.3-0.6-0.4-1-0.4c-0.4,0-0.9,0.2-1.2,0.4c-0.4,0.3-0.7,0.8-0.9,1.3
		c-0.1,0.2-0.1,0.3-0.1,0.6v2.3c0,0.5,0,0.9,0.1,1.3H335.2z"/>
	<path class="st5" d="M343.5,773.5c-0.1,0.4-0.1,0.8-0.1,1.3v0.5h0.5c0.5,0,0.8,0,1.2-0.1v0.8c-0.4-0.1-0.6-0.1-1.2-0.1h-0.5v4.3
		c0,0.3,0,0.5,0.1,0.7c0.1,0.1,0.3,0.2,0.5,0.2c0.3,0,0.5-0.1,0.9-0.3l0.2,0.7c-0.5,0.2-0.8,0.3-1.3,0.3c-0.4,0-0.8-0.1-1-0.4
		c-0.2-0.2-0.3-0.6-0.3-1.1v-4.4h-0.4c-0.4,0-0.6,0-1,0.1v-0.8c0.3,0.1,0.5,0.1,1,0.1h0.4v-0.5c0-0.5,0-0.9-0.1-1.3H343.5z"/>
	<path class="st5" d="M346.7,779.8c0.1,0.4,0.2,0.7,0.4,0.9c0.3,0.3,0.8,0.4,1.3,0.4c1,0,1.7-0.5,1.7-1.2c0-0.4-0.1-0.6-0.4-0.8
		c-0.3-0.2-0.6-0.3-1.4-0.5c-0.9-0.2-1.3-0.3-1.7-0.6c-0.3-0.3-0.5-0.7-0.5-1.2c0-0.4,0.2-0.8,0.5-1.1c0.4-0.4,1-0.6,1.7-0.6
		c0.7,0,1.3,0.2,1.7,0.5c0.3,0.3,0.4,0.5,0.6,1.1l-0.7,0.1c-0.1-0.3-0.1-0.5-0.3-0.7c-0.3-0.3-0.7-0.5-1.2-0.5
		c-0.9,0-1.5,0.5-1.5,1.2c0,0.3,0.1,0.6,0.4,0.7c0.3,0.2,0.6,0.3,1.3,0.4c1.1,0.3,1.5,0.4,1.8,0.7c0.3,0.3,0.5,0.7,0.5,1.2
		c0,1.2-0.9,1.9-2.4,1.9c-1,0-1.7-0.3-2.1-0.9c-0.2-0.2-0.2-0.4-0.3-0.9L346.7,779.8z"/>
</g>
<rect x="107.4" y="707.9" class="st13" width="75.4" height="104.1"/>
<polyline class="st8" points="122.2,742.2 129.7,742.2 137.8,724.1 152.2,760.2 161.6,742.4 168,742.4 "/>
<g>
	<path class="st5" d="M123.5,781.6c-0.1-0.3-0.2-0.6-0.4-1.2l-2.6-5.3c-0.2-0.5-0.4-0.9-0.7-1.8c0.1,1.2,0.1,1.7,0.1,2.1v4.7
		c0,0.6,0,0.9,0.1,1.3h-1c0.1-0.4,0.1-0.8,0.1-1.3v-6.4c0-0.5,0-0.9-0.1-1.3h1.2c0.1,0.4,0.2,0.8,0.4,1.1l3.3,6.8l3.3-6.8
		c0.2-0.5,0.4-0.8,0.4-1.1h1.2c-0.1,0.4-0.1,0.8-0.1,1.3v6.4c0,0.6,0,0.9,0.1,1.3h-1c0.1-0.4,0.1-0.8,0.1-1.3v-4.7
		c0-0.4,0-0.8,0.1-2.1c-0.3,0.8-0.5,1.3-0.7,1.7l-2.6,5.3c-0.3,0.5-0.4,0.8-0.5,1.2H123.5z"/>
	<path class="st5" d="M131.2,778.5c0,0.8,0.2,1.3,0.5,1.8c0.4,0.6,1.1,0.9,1.8,0.9c0.7,0,1.3-0.3,1.7-0.7c0.2-0.2,0.3-0.4,0.4-0.7
		l0.7,0.3c-0.3,0.5-0.4,0.7-0.7,1c-0.6,0.5-1.3,0.8-2.2,0.8c-1.9,0-3.1-1.3-3.1-3.3c0-2,1.2-3.3,3-3.3c1.6,0,2.7,0.9,2.9,2.4
		c0,0.1,0.1,0.4,0.1,1H131.2z M135.6,777.9c-0.1-0.6-0.2-1-0.5-1.3c-0.4-0.5-1-0.8-1.7-0.8c-1.2,0-2,0.8-2.2,2.1H135.6z"/>
	<path class="st5" d="M142.5,780.7c-0.5,0.5-0.8,0.6-1.2,0.8c-0.4,0.2-0.9,0.2-1.3,0.2c-1.3,0-2.2-0.7-2.2-1.8c0-1,0.7-1.7,1.9-2
		c0.7-0.2,1.3-0.2,2.8-0.3v-0.8c0-0.8-0.6-1.3-1.6-1.3c-0.7,0-1.3,0.2-1.6,0.6c-0.2,0.2-0.3,0.3-0.4,0.7l-0.8-0.2
		c0.2-0.5,0.4-0.8,0.6-1c0.5-0.5,1.2-0.7,2.1-0.7c1.6,0,2.4,0.7,2.4,1.9v3.4c0,0.5,0,0.8,0.1,1.3h-0.8V780.7z M142.5,778.3
		c-1.6,0-2.4,0.1-2.9,0.4c-0.6,0.3-0.9,0.7-0.9,1.3c0,0.7,0.6,1.1,1.4,1.1c0.7,0,1.6-0.4,2.1-0.9c0.3-0.3,0.4-0.5,0.4-1V778.3z"/>
	<path class="st5" d="M145.6,779.8c0.1,0.4,0.2,0.7,0.4,0.9c0.3,0.3,0.9,0.4,1.5,0.4c1.2,0,1.9-0.5,1.9-1.2c0-0.4-0.1-0.6-0.4-0.8
		c-0.3-0.2-0.6-0.3-1.5-0.5c-1-0.2-1.5-0.3-1.9-0.6c-0.4-0.3-0.6-0.7-0.6-1.2c0-0.4,0.2-0.8,0.5-1.1c0.4-0.4,1.1-0.6,1.9-0.6
		c0.8,0,1.4,0.2,1.9,0.5c0.3,0.3,0.5,0.5,0.7,1.1l-0.8,0.1c-0.1-0.3-0.2-0.5-0.3-0.7c-0.3-0.3-0.8-0.5-1.4-0.5c-1,0-1.7,0.5-1.7,1.2
		c0,0.3,0.2,0.6,0.4,0.7c0.3,0.2,0.6,0.3,1.4,0.4c1.3,0.3,1.7,0.4,2,0.7c0.3,0.3,0.5,0.7,0.5,1.2c0,1.2-1,1.9-2.7,1.9
		c-1.1,0-1.9-0.3-2.4-0.9c-0.2-0.2-0.3-0.4-0.4-0.9L145.6,779.8z"/>
	<path class="st5" d="M156.7,780.7c0-0.1,0-0.3,0-0.5c-0.6,1-1.4,1.5-2.6,1.5c-1.5,0-2.3-0.8-2.3-2.2v-3c0-0.5,0-0.9-0.1-1.3h1
		c-0.1,0.4-0.1,0.8-0.1,1.3v2.8c0,1.1,0.6,1.7,1.7,1.7c0.7,0,1.4-0.4,1.9-1c0.3-0.4,0.4-0.7,0.5-1.2v-2.3c0-0.5,0-0.9-0.1-1.3h1
		c-0.1,0.4-0.1,0.8-0.1,1.3v3.8c0,0.5,0,0.8,0.1,1.3h-0.9V780.7z"/>
	<path class="st5" d="M163.3,776c-0.5-0.1-0.7-0.2-1-0.2c-0.7,0-1.2,0.3-1.6,0.8c-0.3,0.4-0.4,0.7-0.5,1.2v2.5c0,0.5,0,0.8,0.1,1.3
		h-1c0.1-0.5,0.1-0.9,0.1-1.3v-3.8c0-0.6,0-0.9-0.1-1.3h0.9v0.8c0,0,0,0,0,0.1v0.1c0,0.1,0,0.1,0,0.1c0.2-0.3,0.4-0.5,0.6-0.7
		c0.5-0.3,0.9-0.5,1.6-0.5c0.3,0,0.5,0,1,0.1L163.3,776z"/>
	<path class="st5" d="M165.1,778.5c0,0.8,0.2,1.3,0.5,1.8c0.4,0.6,1.1,0.9,1.8,0.9c0.7,0,1.3-0.3,1.7-0.7c0.2-0.2,0.3-0.4,0.4-0.7
		l0.7,0.3c-0.3,0.5-0.4,0.7-0.7,1c-0.6,0.5-1.3,0.8-2.2,0.8c-1.9,0-3.1-1.3-3.1-3.3c0-2,1.2-3.3,3-3.3c1.6,0,2.7,0.9,2.9,2.4
		c0,0.1,0.1,0.4,0.1,1H165.1z M169.6,777.9c-0.1-0.6-0.2-1-0.5-1.3c-0.4-0.5-1-0.8-1.7-0.8c-1.2,0-2,0.8-2.2,2.1H169.6z"/>
</g>
<g>
	
		<image style="overflow:visible;opacity:0.47;" width="174" height="74" xlink:href="C517E4782E93B4ED.png"  transform="matrix(1 0 0 1 99.2946 569.7654)">
	</image>
	<g>
		<g>
			<g>
				<g>
					
						<linearGradient id="SVGID_00000111908036167852660840000016002844864351859333_" gradientUnits="userSpaceOnUse" x1="185.4003" y1="543.1074" x2="187.5888" y2="697.3605">
						<stop  offset="3.500119e-02" style="stop-color:#6CCEF3"/>
						<stop  offset="0.7352" style="stop-color:#50A3DA"/>
					</linearGradient>
					<path style="fill:url(#SVGID_00000111908036167852660840000016002844864351859333_);" d="M236,633.5h-99.5
						c-15.1,0-27.4-12.3-27.4-27.4v0c0-15.1,12.3-27.4,27.4-27.4H236c15.1,0,27.4,12.3,27.4,27.4v0
						C263.4,621.3,251.2,633.5,236,633.5z"/>
				</g>
				
					<linearGradient id="SVGID_00000164494639042971763830000012721220546379122851_" gradientUnits="userSpaceOnUse" x1="187.6436" y1="689.4422" x2="185.3568" y2="548.2281">
					<stop  offset="0" style="stop-color:#6CCEF3"/>
					<stop  offset="1" style="stop-color:#50A3DA"/>
				</linearGradient>
				<path style="fill:url(#SVGID_00000164494639042971763830000012721220546379122851_);" d="M235,628h-97.5
					c-12.1,0-21.9-9.8-21.9-21.9v0c0-12.1,9.8-21.9,21.9-21.9H235c12.1,0,21.9,9.8,21.9,21.9v0C256.9,618.2,247.1,628,235,628z"/>
			</g>
			<g>
				<path class="st5" d="M162.8,608.5c0.1,1,0.2,1.5,0.7,2.1c0.8,0.9,2.2,1.5,3.9,1.5c2.8,0,4.5-1.2,4.5-3.2c0-1-0.5-1.8-1.4-2.2
					c-0.8-0.4-1.1-0.5-3.7-1c-1.4-0.3-2.3-0.5-3-0.9c-1.4-0.7-2.2-1.8-2.2-3.2c0-2.5,2.2-4.1,5.6-4.1c2.1,0,3.8,0.6,4.8,1.8
					c0.5,0.6,0.7,1.1,0.9,2.1l-1.6,0.2c-0.2-0.8-0.4-1.3-0.8-1.7c-0.7-0.8-1.9-1.2-3.4-1.2c-2.4,0-4.1,1.2-4.1,2.9
					c0,1.1,0.7,1.9,2,2.4c0.7,0.2,0.7,0.2,3.2,0.7c3.5,0.7,4.9,1.9,4.9,4.2c0,2.8-2.2,4.4-5.9,4.4c-2.5,0-4.3-0.7-5.3-1.9
					c-0.6-0.7-0.8-1.3-1-2.6L162.8,608.5z"/>
				<path class="st5" d="M179.5,599.2c-0.1,0.6-0.2,1.3-0.2,2.2v0.8h1.1c1.1,0,1.6,0,2.3-0.1v1.3c-0.7-0.1-1.3-0.1-2.3-0.1h-1.1v7.3
					c0,0.6,0.1,0.9,0.3,1.1c0.2,0.2,0.6,0.4,1.1,0.4c0.6,0,1.1-0.1,1.8-0.6l0.5,1.2c-0.9,0.3-1.7,0.5-2.5,0.5c-0.9,0-1.6-0.2-2-0.6
					c-0.4-0.4-0.6-1-0.6-1.9v-7.4H177c-0.8,0-1.3,0-2,0.1V602c0.6,0.1,1.1,0.1,2,0.1h0.9v-0.8c0-0.8,0-1.5-0.2-2.2H179.5z"/>
				<path class="st5" d="M192.9,611.4c-0.9,0.8-1.4,1.1-2.2,1.3c-0.7,0.3-1.5,0.4-2.3,0.4c-2.4,0-3.8-1.1-3.8-3
					c0-1.7,1.2-2.8,3.4-3.3c1.3-0.3,2.3-0.4,4.9-0.4V605c0-1.4-1-2.1-2.9-2.1c-1.3,0-2.3,0.3-2.9,0.9c-0.3,0.3-0.5,0.6-0.7,1.2
					l-1.4-0.3c0.4-0.9,0.6-1.3,1.1-1.7c0.9-0.8,2.2-1.2,3.8-1.2c2.8,0,4.3,1.1,4.3,3.2v5.8c0,0.9,0,1.4,0.2,2.1h-1.5V611.4z
					 M192.9,607.4c-2.9,0.1-4.2,0.2-5.2,0.6c-1.1,0.4-1.7,1.2-1.7,2.1c0,1.2,1,1.9,2.5,1.9c1.3,0,2.8-0.6,3.7-1.5
					c0.5-0.5,0.7-0.9,0.7-1.7V607.4z"/>
				<path class="st5" d="M204.6,603.5c-0.8-0.2-1.2-0.3-1.8-0.3c-1.2,0-2.1,0.4-2.8,1.3c-0.5,0.6-0.7,1.1-0.8,2v4.2
					c0,0.9,0,1.4,0.2,2.2h-1.7c0.1-0.9,0.2-1.4,0.2-2.2v-6.4c0-0.9,0-1.5-0.2-2.2h1.6v1.3c0,0,0,0.1,0,0.2v0.1c0,0.1,0,0.1,0,0.2
					c0.4-0.5,0.7-0.9,1.1-1.2c0.8-0.6,1.7-0.8,2.9-0.8c0.5,0,1,0,1.8,0.2L204.6,603.5z"/>
				<path class="st5" d="M210.1,599.2c-0.1,0.6-0.2,1.3-0.2,2.2v0.8h1.1c1.1,0,1.6,0,2.3-0.1v1.3c-0.7-0.1-1.3-0.1-2.3-0.1h-1.1v7.3
					c0,0.6,0.1,0.9,0.3,1.1c0.2,0.2,0.6,0.4,1.1,0.4c0.6,0,1.1-0.1,1.8-0.6l0.5,1.2c-0.9,0.3-1.7,0.5-2.5,0.5c-0.9,0-1.6-0.2-2-0.6
					c-0.4-0.4-0.6-1-0.6-1.9v-7.4h-0.9c-0.8,0-1.3,0-2,0.1V602c0.6,0.1,1.1,0.1,2,0.1h0.9v-0.8c0-0.8,0-1.5-0.2-2.2H210.1z"/>
			</g>
		</g>
	</g>
</g>
<path id="Home_Indicator-2_2_" class="st5" d="M123,801.6h129c1.4,0,2.5,1.1,2.5,2.5l0,0c0,1.4-1.1,2.5-2.5,2.5H123
	c-1.4,0-2.5-1.1-2.5-2.5l0,0C120.5,802.7,121.6,801.6,123,801.6z"/>
<g>
	<path class="st5" d="M145.1,126.3c-0.1-0.7-0.4-1.7-0.9-3l-2.6-6.5c-0.3-0.7-0.6-1.6-1-3.2c0.1,2,0.2,2.9,0.2,3.4v6.1
		c0,1.5,0,2.3,0.2,3.2h-3.5c0.1-0.9,0.2-1.7,0.2-3.2v-10.7c0-1.3,0-2.3-0.2-3.2h4.7c0.1,0.8,0.4,1.7,0.8,2.7l3.8,9.8l3.8-9.8
		c0.4-1.1,0.7-1.9,0.8-2.7h4.7c-0.1,1-0.2,1.8-0.2,3.2v10.7c0,1.6,0,2.4,0.2,3.2h-3.5c0.1-0.9,0.2-1.7,0.2-3.2V117
		c0-0.5,0-1.3,0.2-3.3c-0.1,0.4-0.1,0.4-0.3,1.3c-0.1,0.4-0.5,1.5-0.6,1.8l-2.7,6.6c-0.4,1.1-0.8,2.3-0.9,2.9H145.1z"/>
	<path class="st5" d="M161.3,121c0.1,1,0.3,1.5,0.7,2c0.6,0.7,1.4,1,2.4,1c1.5,0,2.5-0.7,2.9-2l3.1,0.9c-0.5,1-0.8,1.5-1.4,2
		c-1.1,1.1-2.7,1.7-4.7,1.7c-1.9,0-3.5-0.6-4.6-1.7c-1.2-1.2-1.9-3-1.9-5c0-4,2.5-6.6,6.3-6.6c2.8,0,4.8,1.3,5.7,3.8
		c0.4,1,0.5,1.7,0.6,3.3c0,0.1,0,0.1,0,0.5H161.3z M167.3,118.6c-0.1-0.7-0.3-1-0.6-1.5c-0.5-0.7-1.3-1-2.3-1c-1.6,0-2.6,0.8-3,2.5
		H167.3z"/>
	<path class="st5" d="M180.7,125.2c-1.3,1-2.4,1.3-4.1,1.3c-1.5,0-2.6-0.3-3.4-1c-0.8-0.7-1.2-1.6-1.2-2.7c0-2,1.4-3.5,4.1-4.1
		c1.2-0.3,1.9-0.3,4.6-0.4v-0.8c0-1-0.7-1.5-2.2-1.5c-0.8,0-1.6,0.2-2,0.5c-0.4,0.3-0.6,0.6-0.8,1.2l-3.4-0.5
		c0.4-1.2,0.8-1.8,1.6-2.4c1.1-0.8,2.6-1.2,4.6-1.2c2.1,0,3.5,0.4,4.4,1.3c0.7,0.7,1,1.5,1,3v5.7c0,1.2,0,1.8,0.1,2.8h-3.4V125.2z
		 M180.7,120.6c-1.9,0.1-2.8,0.2-3.8,0.5c-1,0.3-1.5,0.9-1.5,1.7c0,0.9,0.6,1.4,1.8,1.4c0.9,0,2-0.4,2.6-0.9c0.6-0.5,0.9-1,0.9-1.8
		V120.6z"/>
	<path class="st5" d="M189.6,122.3c0.1,0.5,0.2,0.8,0.5,1c0.4,0.5,1.2,0.7,2.2,0.7c1.4,0,2.2-0.5,2.2-1.3c0-0.3-0.1-0.6-0.4-0.8
		s-0.7-0.3-1.9-0.6c-2-0.4-2.7-0.6-3.5-0.9c-1.3-0.6-2-1.7-2-3c0-2.4,2-3.9,5.3-3.9c1.9,0,3.3,0.4,4.2,1.3c0.7,0.6,1,1.2,1.3,2.3
		l-3.4,0.4c-0.1-1-0.7-1.4-2-1.4s-2.1,0.4-2.1,1.1c0,0.4,0.2,0.7,0.7,0.8c0.4,0.2,0.8,0.3,1.9,0.5c2.2,0.5,2.9,0.7,3.7,1.2
		c1.1,0.6,1.6,1.6,1.6,2.8c0,2.6-2.1,4.1-5.7,4.1c-2.5,0-4.2-0.7-5.2-2c-0.4-0.5-0.6-1-0.8-2L189.6,122.3z"/>
	<path class="st5" d="M212.3,113.9c-0.1,0.9-0.2,1.7-0.2,2.9v6.6c0,1.3,0,2.1,0.2,2.9h-3.5v-0.8c0-0.2,0-0.4,0-0.8
		c-1.3,1.4-2.6,2-4.4,2c-1.4,0-2.5-0.4-3.2-1.2c-0.8-0.8-1.1-1.8-1.1-3.3v-5.3c0-1.3,0-2.1-0.2-2.9h3.7c-0.1,1-0.2,1.8-0.2,2.9v4.5
		c0,1.1,0.2,1.6,0.7,2c0.3,0.2,0.7,0.4,1.3,0.4c1.2,0,2.6-1,3.5-2.6v-4.3c0-1.1,0-1.9-0.2-2.9H212.3z"/>
	<path class="st5" d="M223.5,117.1c-0.9-0.3-1.3-0.4-2-0.4c-1.1,0-2,0.3-2.5,1c-0.4,0.5-0.6,1-0.7,2v3.6c0,1.3,0,2,0.1,2.9h-3.6
		c0.1-1,0.2-1.7,0.2-2.9v-6.6c0-1.4,0-2.1-0.2-2.9h3.5v1.7c0.9-1.3,2.2-2,4.1-2c0.6,0,1.1,0,2,0.2L223.5,117.1z"/>
	<path class="st5" d="M228.6,121c0.1,1,0.3,1.5,0.7,2c0.6,0.7,1.4,1,2.4,1c1.5,0,2.5-0.7,2.9-2l3.1,0.9c-0.5,1-0.8,1.5-1.4,2
		c-1.1,1.1-2.7,1.7-4.7,1.7c-1.9,0-3.5-0.6-4.6-1.7c-1.2-1.2-1.9-3-1.9-5c0-4,2.5-6.6,6.3-6.6c2.8,0,4.8,1.3,5.7,3.8
		c0.4,1,0.5,1.7,0.6,3.3c0,0.1,0,0.1,0,0.5H228.6z M234.5,118.6c-0.1-0.7-0.3-1-0.6-1.5c-0.5-0.7-1.3-1-2.3-1c-1.6,0-2.6,0.8-3,2.5
		H234.5z"/>
</g>
<g>
	<path class="st8" d="M64.9,108.7l-9.9,9.9c-0.5,0.5-1.4,0.5-1.9,0l-10.4-10.4c-6-6.9,4.4-16.2,11.2-7.5
		C60.4,91.2,71.6,101.1,64.9,108.7z"/>
	<g>
		<path class="st5" d="M39.8,133.9c0,0.6,0.1,1,0.4,1.3c0.4,0.6,1.2,0.9,2.2,0.9c1.5,0,2.4-0.7,2.4-1.8c0-0.6-0.3-1.1-0.8-1.4
			c-0.5-0.2-0.6-0.3-2.4-0.7c-1-0.2-1.6-0.4-2.1-0.8c-0.8-0.5-1.2-1.3-1.2-2.2c0-1.9,1.5-3.1,3.9-3.1c1.5,0,2.7,0.5,3.4,1.4
			c0.3,0.4,0.5,0.8,0.7,1.6l-1.7,0.2c-0.1-0.5-0.2-0.8-0.5-1c-0.4-0.5-1.1-0.7-1.9-0.7c-1.3,0-2.2,0.7-2.2,1.7
			c0,0.6,0.3,1.1,1.1,1.4c0.4,0.2,0.4,0.2,2,0.5c1.1,0.2,1.8,0.5,2.3,0.9c0.7,0.6,1.1,1.3,1.1,2.3c0,2.1-1.5,3.3-4.1,3.3
			c-1.6,0-2.9-0.4-3.6-1.3c-0.4-0.5-0.6-1-0.8-2.1L39.8,133.9z"/>
		<path class="st5" d="M53.5,136.4c-0.5,0.4-0.8,0.6-1.2,0.7c-0.5,0.2-1,0.3-1.6,0.3c-1.7,0-2.7-0.9-2.7-2.3c0-1,0.7-1.9,1.8-2.3
			c0.9-0.3,1.7-0.4,3.7-0.5v-0.6c0-0.5-0.1-0.8-0.4-1c-0.3-0.2-0.8-0.4-1.3-0.4c-1.2,0-1.8,0.4-2.1,1.3l-1.6-0.3
			c0.3-0.7,0.5-1.1,1-1.4c0.7-0.5,1.5-0.7,2.7-0.7c1.2,0,2,0.2,2.5,0.8c0.4,0.4,0.6,0.9,0.6,1.8v3.8c0,0.7,0,1.1,0.1,1.7h-1.6V136.4
			z M53.5,133.5c-1.5,0-2.3,0.1-2.9,0.4c-0.7,0.3-1,0.7-1,1.3c0,0.7,0.5,1.1,1.4,1.1c0.7,0,1.5-0.3,2.1-0.8c0.3-0.3,0.5-0.7,0.5-1.2
			V133.5z"/>
		<path class="st5" d="M57.9,129.4c0.1,0.3,0.2,0.8,0.4,1.3l1.5,4.1c0.1,0.2,0.2,0.7,0.3,0.9c0.1-0.3,0.2-0.6,0.3-0.9l1.5-4.1
			c0.2-0.7,0.3-0.9,0.4-1.3h1.8c-0.2,0.4-0.3,0.7-0.7,1.5l-2.1,5.1c-0.3,0.7-0.4,0.9-0.4,1.3h-1.7c-0.1-0.4-0.2-0.6-0.5-1.3
			l-2.1-5.1c-0.2-0.4-0.4-0.9-0.7-1.5H57.9z"/>
		<path class="st5" d="M66.3,133.7c0.1,0.8,0.2,1.3,0.6,1.7c0.4,0.5,1.1,0.8,1.9,0.8c0.7,0,1.3-0.2,1.8-0.7c0.2-0.2,0.3-0.4,0.4-0.8
			l1.4,0.5c-0.3,0.6-0.5,0.9-0.8,1.2c-0.7,0.7-1.7,1-2.8,1c-2.4,0-3.9-1.6-3.9-4.1c0-2.5,1.5-4.2,3.8-4.2c2,0,3.4,1.2,3.7,3.3
			c0,0.2,0,0.2,0.1,1.2H66.3z M70.8,132.5c-0.1-0.7-0.3-1.1-0.7-1.5c-0.4-0.4-0.9-0.6-1.6-0.6c-0.8,0-1.5,0.4-1.9,1.1
			c-0.2,0.3-0.3,0.5-0.4,1H70.8z"/>
	</g>
</g>
</svg>
