<?xml version="1.0" encoding="utf-8"?>
<!-- Generator: Adobe Illustrator 25.4.1, SVG Export Plug-In . SVG Version: 6.00 Build 0)  -->
<svg version="1.1" id="Layer_1" xmlns="http://www.w3.org/2000/svg" xmlns:xlink="http://www.w3.org/1999/xlink" x="0px" y="0px"
	 viewBox="0 0 252 144" style="enable-background:new 0 0 252 144;" xml:space="preserve">
<style type="text/css">
	.st0{fill:#EAEAEA;}
	.st1{fill:#FCCE70;}
	.st2{fill:none;stroke:#F9B341;stroke-width:0.15;stroke-miterlimit:10;}
	.st3{fill:none;stroke:#FFFFFF;stroke-width:0.15;stroke-miterlimit:10;}
	.st4{fill:#FFB3E6;}
	.st5{fill:none;stroke:#EF78CD;stroke-width:0.15;stroke-miterlimit:10;}
	.st6{fill:#FFB07B;}
	.st7{fill:none;stroke:#F48940;stroke-width:0.15;stroke-miterlimit:10;}
	.st8{fill:#FFA9BE;}
	.st9{fill:none;stroke:#F774A7;stroke-width:0.15;stroke-miterlimit:10;}
</style>
<path d="M25-13"/>
<rect class="st0" width="252" height="144"/>
<g>
	<g>
		<g>
			<g>
				<g>
					<path class="st1" d="M144,75.8c-0.8,0-1.5,0.7-1.5,1.6c0,0.1,0,0.2,0,0.3c0,0,0,0,0,0c0.2,1.3,1.5,4,1.5,4s1.3-2.7,1.5-4
						c0,0,0,0,0,0c0-0.1,0-0.2,0-0.3C145.5,76.5,144.9,75.8,144,75.8z"/>
				</g>
				<g>
					<path class="st2" d="M144,75.8c-0.8,0-1.5,0.7-1.5,1.6c0,0.1,0,0.2,0,0.3c0,0,0,0,0,0c0.2,1.3,1.5,4,1.5,4s1.3-2.7,1.5-4
						c0,0,0,0,0,0c0-0.1,0-0.2,0-0.3C145.5,76.5,144.9,75.8,144,75.8z"/>
				</g>
			</g>
			<g>
				<g>
					<path class="st1" d="M148.3,77.3c-0.6-0.6-1.6-0.6-2.1,0.1c-0.1,0.1-0.1,0.1-0.2,0.2c0,0,0,0,0,0c-0.7,1.1-1.6,3.9-1.6,3.9
						s2.7-1,3.7-1.8c0,0,0,0,0,0c0.1-0.1,0.2-0.1,0.2-0.2C148.9,78.9,148.9,77.9,148.3,77.3z"/>
				</g>
				<g>
					<path class="st2" d="M148.3,77.3c-0.6-0.6-1.6-0.6-2.1,0.1c-0.1,0.1-0.1,0.1-0.2,0.2c0,0,0,0,0,0c-0.7,1.1-1.6,3.9-1.6,3.9
						s2.7-1,3.7-1.8c0,0,0,0,0,0c0.1-0.1,0.2-0.1,0.2-0.2C148.9,78.9,148.9,77.9,148.3,77.3z"/>
				</g>
			</g>
			<g>
				<g>
					<path class="st1" d="M142.1,77.7C142.1,77.7,142.1,77.6,142.1,77.7c-0.1-0.1-0.1-0.2-0.2-0.3c-0.6-0.6-1.5-0.6-2.1-0.1
						c-0.6,0.6-0.6,1.6-0.1,2.2c0.1,0.1,0.1,0.1,0.2,0.2c0,0,0,0,0,0c1,0.8,3.7,1.8,3.7,1.8S142.8,78.7,142.1,77.7z"/>
				</g>
				<g>
					<path class="st2" d="M142.1,77.7C142.1,77.7,142.1,77.6,142.1,77.7c-0.1-0.1-0.1-0.2-0.2-0.3c-0.6-0.6-1.5-0.6-2.1-0.1
						c-0.6,0.6-0.6,1.6-0.1,2.2c0.1,0.1,0.1,0.1,0.2,0.2c0,0,0,0,0,0c1,0.8,3.7,1.8,3.7,1.8S142.8,78.7,142.1,77.7z"/>
				</g>
			</g>
			<g>
				<g>
					<path class="st1" d="M145.5,86C145.5,86,145.5,86,145.5,86c-0.2-1.3-1.5-4-1.5-4s-1.3,2.7-1.5,4c0,0,0,0,0,0c0,0.1,0,0.2,0,0.3
						c0,0.9,0.7,1.6,1.5,1.6s1.5-0.7,1.5-1.6C145.5,86.2,145.5,86.1,145.5,86z"/>
				</g>
				<g>
					<path class="st2" d="M145.5,86C145.5,86,145.5,86,145.5,86c-0.2-1.3-1.5-4-1.5-4s-1.3,2.7-1.5,4c0,0,0,0,0,0c0,0.1,0,0.2,0,0.3
						c0,0.9,0.7,1.6,1.5,1.6s1.5-0.7,1.5-1.6C145.5,86.2,145.5,86.1,145.5,86z"/>
				</g>
			</g>
			<g>
				<g>
					<path class="st1" d="M148.4,84.1c-0.1-0.1-0.1-0.1-0.2-0.2c0,0,0,0,0,0c-1-0.8-3.7-1.8-3.7-1.8s0.9,2.8,1.6,3.9c0,0,0,0,0,0
						c0.1,0.1,0.1,0.2,0.2,0.2c0.6,0.6,1.5,0.6,2.1,0.1S148.9,84.7,148.4,84.1z"/>
				</g>
				<g>
					<path class="st2" d="M148.4,84.1c-0.1-0.1-0.1-0.1-0.2-0.2c0,0,0,0,0,0c-1-0.8-3.7-1.8-3.7-1.8s0.9,2.8,1.6,3.9c0,0,0,0,0,0
						c0.1,0.1,0.1,0.2,0.2,0.2c0.6,0.6,1.5,0.6,2.1,0.1S148.9,84.7,148.4,84.1z"/>
				</g>
			</g>
			<g>
				<g>
					<path class="st1" d="M140,83.9C140,83.9,140,83.9,140,83.9c-0.1,0.1-0.2,0.1-0.2,0.2c-0.6,0.6-0.5,1.6,0.1,2.2
						c0.6,0.6,1.6,0.6,2.1-0.1c0.1-0.1,0.1-0.1,0.2-0.2c0,0,0,0,0,0c0.7-1.1,1.6-3.9,1.6-3.9S141,83.1,140,83.9z"/>
				</g>
				<g>
					<path class="st2" d="M140,83.9C140,83.9,140,83.9,140,83.9c-0.1,0.1-0.2,0.1-0.2,0.2c-0.6,0.6-0.5,1.6,0.1,2.2
						c0.6,0.6,1.6,0.6,2.1-0.1c0.1-0.1,0.1-0.1,0.2-0.2c0,0,0,0,0,0c0.7-1.1,1.6-3.9,1.6-3.9S141,83.1,140,83.9z"/>
				</g>
			</g>
			<g>
				<g>
					<path class="st1" d="M139.7,80.5C139.7,80.5,139.7,80.5,139.7,80.5c-0.1,0-0.2,0-0.3,0c-0.8,0.1-1.5,0.8-1.4,1.6
						c0.1,0.9,0.8,1.5,1.6,1.4c0.1,0,0.2,0,0.3,0c0,0,0,0,0,0c1.2-0.3,3.7-1.8,3.7-1.8S141,80.6,139.7,80.5z"/>
				</g>
				<g>
					<path class="st2" d="M139.7,80.5C139.7,80.5,139.7,80.5,139.7,80.5c-0.1,0-0.2,0-0.3,0c-0.8,0.1-1.5,0.8-1.4,1.6
						c0.1,0.9,0.8,1.5,1.6,1.4c0.1,0,0.2,0,0.3,0c0,0,0,0,0,0c1.2-0.3,3.7-1.8,3.7-1.8S141,80.6,139.7,80.5z"/>
				</g>
			</g>
			<g>
				<g>
					<path class="st1" d="M148.6,80.5c-0.1,0-0.2,0-0.3,0c0,0,0,0,0,0c-1.3,0.1-3.9,1.3-3.9,1.3s2.5,1.5,3.7,1.8c0,0,0,0,0,0
						c0.1,0,0.2,0,0.3,0c0.8,0.1,1.5-0.6,1.6-1.4C150.1,81.3,149.5,80.5,148.6,80.5z"/>
				</g>
				<g>
					<path class="st2" d="M148.6,80.5c-0.1,0-0.2,0-0.3,0c0,0,0,0,0,0c-1.3,0.1-3.9,1.3-3.9,1.3s2.5,1.5,3.7,1.8c0,0,0,0,0,0
						c0.1,0,0.2,0,0.3,0c0.8,0.1,1.5-0.6,1.6-1.4C150.1,81.3,149.5,80.5,148.6,80.5z"/>
				</g>
			</g>
		</g>
		<g>
			<g>
				<circle class="st0" cx="144.1" cy="81.9" r="2"/>
				<circle class="st3" cx="144.1" cy="81.9" r="2"/>
			</g>
			<g>
				<circle class="st0" cx="144.1" cy="81.9" r="2"/>
				<circle class="st3" cx="144.1" cy="81.9" r="2"/>
			</g>
			<g>
				<circle class="st0" cx="144.1" cy="81.9" r="2"/>
				<circle class="st3" cx="144.1" cy="81.9" r="2"/>
			</g>
			<g>
				<circle class="st0" cx="144.1" cy="81.9" r="2"/>
				<circle class="st3" cx="144.1" cy="81.9" r="2"/>
			</g>
			<g>
				<circle class="st0" cx="144.1" cy="81.9" r="2"/>
				<circle class="st3" cx="144.1" cy="81.9" r="2"/>
			</g>
			<g>
				<circle class="st0" cx="144.1" cy="81.9" r="2"/>
				<circle class="st3" cx="144.1" cy="81.9" r="2"/>
			</g>
			<g>
				<circle class="st0" cx="144.1" cy="81.9" r="2"/>
				<circle class="st3" cx="144.1" cy="81.9" r="2"/>
			</g>
			<g>
				<circle class="st0" cx="144.1" cy="81.9" r="2"/>
				<circle class="st3" cx="144.1" cy="81.9" r="2"/>
			</g>
			<g>
				<circle class="st0" cx="144.1" cy="81.9" r="2"/>
				<circle class="st3" cx="144.1" cy="81.9" r="2"/>
			</g>
		</g>
	</g>
	<g>
		<g>
			<g>
				<g>
					<path class="st4" d="M104,56.2c-0.8,0-1.4,0.6-1.4,1.4c0,0.1,0,0.2,0,0.3c0,0,0,0,0,0c0.2,1.2,1.4,3.7,1.4,3.7s1.2-2.5,1.4-3.7
						c0,0,0,0,0,0c0-0.1,0-0.2,0-0.3C105.4,56.8,104.8,56.2,104,56.2z"/>
				</g>
				<g>
					<path class="st5" d="M104,56.2c-0.8,0-1.4,0.6-1.4,1.4c0,0.1,0,0.2,0,0.3c0,0,0,0,0,0c0.2,1.2,1.4,3.7,1.4,3.7s1.2-2.5,1.4-3.7
						c0,0,0,0,0,0c0-0.1,0-0.2,0-0.3C105.4,56.8,104.8,56.2,104,56.2z"/>
				</g>
			</g>
			<g>
				<g>
					<path class="st4" d="M107.9,57.6c-0.6-0.5-1.4-0.5-2,0.1c-0.1,0.1-0.1,0.1-0.2,0.2c0,0,0,0,0,0c-0.7,1-1.5,3.6-1.5,3.6
						s2.5-1,3.4-1.7c0,0,0,0,0,0c0.1-0.1,0.2-0.1,0.2-0.2C108.5,59,108.5,58.1,107.9,57.6z"/>
				</g>
				<g>
					<path class="st5" d="M107.9,57.6c-0.6-0.5-1.4-0.5-2,0.1c-0.1,0.1-0.1,0.1-0.2,0.2c0,0,0,0,0,0c-0.7,1-1.5,3.6-1.5,3.6
						s2.5-1,3.4-1.7c0,0,0,0,0,0c0.1-0.1,0.2-0.1,0.2-0.2C108.5,59,108.5,58.1,107.9,57.6z"/>
				</g>
			</g>
			<g>
				<g>
					<path class="st4" d="M102.2,57.9C102.2,57.9,102.2,57.9,102.2,57.9c-0.1-0.1-0.1-0.2-0.2-0.2c-0.5-0.6-1.4-0.6-2-0.1
						c-0.6,0.5-0.6,1.5-0.1,2c0.1,0.1,0.1,0.1,0.2,0.2c0,0,0,0,0,0c0.9,0.7,3.4,1.7,3.4,1.7S102.9,58.9,102.2,57.9z"/>
				</g>
				<g>
					<path class="st5" d="M102.2,57.9C102.2,57.9,102.2,57.9,102.2,57.9c-0.1-0.1-0.1-0.2-0.2-0.2c-0.5-0.6-1.4-0.6-2-0.1
						c-0.6,0.5-0.6,1.5-0.1,2c0.1,0.1,0.1,0.1,0.2,0.2c0,0,0,0,0,0c0.9,0.7,3.4,1.7,3.4,1.7S102.9,58.9,102.2,57.9z"/>
				</g>
			</g>
			<g>
				<g>
					<path class="st4" d="M105.4,65.6C105.4,65.6,105.4,65.6,105.4,65.6c-0.2-1.2-1.4-3.7-1.4-3.7s-1.2,2.5-1.4,3.7c0,0,0,0,0,0
						c0,0.1,0,0.2,0,0.3c0,0.8,0.6,1.4,1.4,1.4s1.4-0.6,1.4-1.4C105.4,65.8,105.4,65.7,105.4,65.6z"/>
				</g>
				<g>
					<path class="st5" d="M105.4,65.6C105.4,65.6,105.4,65.6,105.4,65.6c-0.2-1.2-1.4-3.7-1.4-3.7s-1.2,2.5-1.4,3.7c0,0,0,0,0,0
						c0,0.1,0,0.2,0,0.3c0,0.8,0.6,1.4,1.4,1.4s1.4-0.6,1.4-1.4C105.4,65.8,105.4,65.7,105.4,65.6z"/>
				</g>
			</g>
			<g>
				<g>
					<path class="st4" d="M108,63.8c-0.1-0.1-0.1-0.1-0.2-0.2c0,0,0,0,0,0c-0.9-0.7-3.4-1.7-3.4-1.7s0.8,2.6,1.5,3.6c0,0,0,0,0,0
						c0.1,0.1,0.1,0.2,0.2,0.2c0.5,0.6,1.4,0.6,2,0.1S108.5,64.4,108,63.8z"/>
				</g>
				<g>
					<path class="st5" d="M108,63.8c-0.1-0.1-0.1-0.1-0.2-0.2c0,0,0,0,0,0c-0.9-0.7-3.4-1.7-3.4-1.7s0.8,2.6,1.5,3.6c0,0,0,0,0,0
						c0.1,0.1,0.1,0.2,0.2,0.2c0.5,0.6,1.4,0.6,2,0.1S108.5,64.4,108,63.8z"/>
				</g>
			</g>
			<g>
				<g>
					<path class="st4" d="M100.2,63.6C100.2,63.6,100.2,63.6,100.2,63.6c-0.1,0.1-0.2,0.1-0.2,0.2c-0.5,0.6-0.5,1.5,0.1,2
						s1.4,0.5,2-0.1c0.1-0.1,0.1-0.1,0.2-0.2c0,0,0,0,0,0c0.7-1,1.5-3.6,1.5-3.6S101.2,62.9,100.2,63.6z"/>
				</g>
				<g>
					<path class="st5" d="M100.2,63.6C100.2,63.6,100.2,63.6,100.2,63.6c-0.1,0.1-0.2,0.1-0.2,0.2c-0.5,0.6-0.5,1.5,0.1,2
						s1.4,0.5,2-0.1c0.1-0.1,0.1-0.1,0.2-0.2c0,0,0,0,0,0c0.7-1,1.5-3.6,1.5-3.6S101.2,62.9,100.2,63.6z"/>
				</g>
			</g>
			<g>
				<g>
					<path class="st4" d="M100,60.5C100,60.5,100,60.5,100,60.5c-0.1,0-0.2,0-0.3,0c-0.8,0.1-1.3,0.7-1.3,1.5c0,0.8,0.7,1.4,1.5,1.3
						c0.1,0,0.2,0,0.3,0c0,0,0,0,0,0c1.1-0.3,3.5-1.6,3.5-1.6S101.2,60.6,100,60.5z"/>
				</g>
				<g>
					<path class="st5" d="M100,60.5C100,60.5,100,60.5,100,60.5c-0.1,0-0.2,0-0.3,0c-0.8,0.1-1.3,0.7-1.3,1.5c0,0.8,0.7,1.4,1.5,1.3
						c0.1,0,0.2,0,0.3,0c0,0,0,0,0,0c1.1-0.3,3.5-1.6,3.5-1.6S101.2,60.6,100,60.5z"/>
				</g>
			</g>
			<g>
				<g>
					<path class="st4" d="M108.3,60.5c-0.1,0-0.2,0-0.3,0c0,0,0,0,0,0c-1.2,0.1-3.6,1.2-3.6,1.2s2.3,1.4,3.5,1.6c0,0,0,0,0,0
						c0.1,0,0.2,0,0.3,0c0.8,0.1,1.4-0.5,1.5-1.3S109,60.5,108.3,60.5z"/>
				</g>
				<g>
					<path class="st5" d="M108.3,60.5c-0.1,0-0.2,0-0.3,0c0,0,0,0,0,0c-1.2,0.1-3.6,1.2-3.6,1.2s2.3,1.4,3.5,1.6c0,0,0,0,0,0
						c0.1,0,0.2,0,0.3,0c0.8,0.1,1.4-0.5,1.5-1.3S109,60.5,108.3,60.5z"/>
				</g>
			</g>
		</g>
		<g>
			<g>
				<circle class="st0" cx="104.1" cy="61.8" r="1.8"/>
				<circle class="st3" cx="104.1" cy="61.8" r="1.8"/>
			</g>
			<g>
				<circle class="st0" cx="104.1" cy="61.8" r="1.8"/>
				<circle class="st3" cx="104.1" cy="61.8" r="1.8"/>
			</g>
			<g>
				<circle class="st0" cx="104.1" cy="61.8" r="1.8"/>
				<circle class="st3" cx="104.1" cy="61.8" r="1.8"/>
			</g>
			<g>
				<circle class="st0" cx="104.1" cy="61.8" r="1.8"/>
				<circle class="st3" cx="104.1" cy="61.8" r="1.8"/>
			</g>
			<g>
				<circle class="st0" cx="104.1" cy="61.8" r="1.8"/>
				<circle class="st3" cx="104.1" cy="61.8" r="1.8"/>
			</g>
			<g>
				<circle class="st0" cx="104.1" cy="61.8" r="1.8"/>
				<circle class="st3" cx="104.1" cy="61.8" r="1.8"/>
			</g>
			<g>
				<circle class="st0" cx="104.1" cy="61.8" r="1.8"/>
				<circle class="st3" cx="104.1" cy="61.8" r="1.8"/>
			</g>
			<g>
				<circle class="st0" cx="104.1" cy="61.8" r="1.8"/>
				<circle class="st3" cx="104.1" cy="61.8" r="1.8"/>
			</g>
			<g>
				<circle class="st0" cx="104.1" cy="61.8" r="1.8"/>
				<circle class="st3" cx="104.1" cy="61.8" r="1.8"/>
			</g>
		</g>
	</g>
	<g>
		<path d="M80.2,78.9c-2.1,0-3.6-0.6-4.7-1.7c-1-1.1-1.6-2.8-1.6-5.1V60.5h1.7v11.2c0,1.9,0.4,3.2,1.1,4.1c0.8,0.9,1.9,1.4,3.4,1.4
			c1.5,0,2.7-0.5,3.4-1.4c0.8-0.9,1.1-2.3,1.1-4.1V60.5h1.7v11.5c0,2.3-0.5,4-1.6,5.1C83.8,78.3,82.3,78.9,80.2,78.9z"/>
		<path d="M92,78.5v-18h1.7v18H92z"/>
		<path d="M105.2,78.5v-18h4.1c1.3,0,2.5,0.2,3.6,0.7c1.1,0.5,2.1,1.1,2.9,1.9s1.5,1.8,1.9,2.9s0.7,2.3,0.7,3.5s-0.2,2.4-0.7,3.5
			c-0.5,1.1-1.1,2-1.9,2.9c-0.8,0.8-1.8,1.5-2.9,1.9c-1.1,0.5-2.3,0.7-3.6,0.7H105.2z M106.8,77h2.2c1.1,0,2-0.2,2.9-0.6
			c0.9-0.4,1.7-0.9,2.4-1.6c0.7-0.7,1.2-1.5,1.6-2.4c0.4-0.9,0.6-1.9,0.6-3c0-1.1-0.2-2-0.6-3c-0.4-0.9-0.9-1.7-1.6-2.4
			c-0.7-0.7-1.5-1.2-2.4-1.6c-0.9-0.4-1.9-0.6-2.9-0.6h-2.2V77z"/>
		<path d="M127.7,78.9c-1.2,0-2.2-0.3-3.1-0.8c-0.9-0.5-1.6-1.2-2.2-2.1c-0.5-0.9-0.8-1.9-0.8-3c0-0.8,0.2-1.6,0.5-2.3
			c0.3-0.7,0.7-1.4,1.3-1.9c0.5-0.5,1.2-1,1.9-1.3c0.7-0.3,1.5-0.5,2.3-0.5c1.1,0,2.1,0.2,2.9,0.7c0.9,0.5,1.5,1.1,2,2
			c0.5,0.9,0.8,1.8,0.8,2.9c0,0.1,0,0.2,0,0.2c0,0.1,0,0.1,0,0.2h-10c0,0.9,0.2,1.6,0.6,2.3c0.4,0.7,0.9,1.2,1.6,1.6
			c0.7,0.4,1.5,0.6,2.4,0.6c0.8,0,1.6-0.2,2.3-0.5c0.7-0.4,1.2-0.9,1.7-1.5l1.2,0.6c-0.5,0.9-1.3,1.5-2.2,2
			C129.8,78.6,128.8,78.9,127.7,78.9z M123.2,71.9h8.4c-0.1-0.7-0.3-1.3-0.7-1.8c-0.4-0.5-0.9-1-1.5-1.3c-0.6-0.3-1.3-0.5-2-0.5
			c-0.7,0-1.4,0.2-2,0.5c-0.6,0.3-1.1,0.7-1.5,1.3C123.6,70.6,123.3,71.2,123.2,71.9z"/>
		<path d="M139.8,78.9c-0.9,0-1.7-0.2-2.4-0.7c-0.7-0.4-1.3-1.1-1.6-1.9l0.9-0.9c0.3,0.7,0.8,1.3,1.4,1.7c0.6,0.4,1.2,0.6,1.9,0.6
			c0.5,0,0.9-0.1,1.3-0.3c0.4-0.2,0.7-0.5,0.9-0.8c0.2-0.4,0.3-0.8,0.3-1.3c0-0.4-0.1-0.8-0.3-1c-0.2-0.3-0.5-0.5-0.9-0.7
			c-0.4-0.2-0.9-0.4-1.5-0.6c-0.5-0.2-0.9-0.4-1.4-0.6c-0.4-0.2-0.8-0.5-1.1-0.9c-0.3-0.4-0.4-0.8-0.4-1.4c0-0.6,0.2-1.1,0.5-1.5
			c0.3-0.4,0.7-0.8,1.3-1.1c0.5-0.3,1.1-0.4,1.8-0.4c0.6,0,1.2,0.1,1.8,0.4c0.5,0.3,1,0.7,1.5,1.1l-0.7,0.9
			c-0.7-0.9-1.5-1.3-2.5-1.3c-0.6,0-1.1,0.2-1.5,0.5c-0.4,0.3-0.6,0.7-0.6,1.3c0,0.4,0.1,0.7,0.4,0.9c0.2,0.2,0.6,0.5,0.9,0.6
			c0.4,0.2,0.8,0.3,1.3,0.5c0.7,0.2,1.2,0.5,1.7,0.7c0.5,0.2,0.9,0.6,1.1,0.9c0.3,0.4,0.4,0.9,0.4,1.6c0,0.7-0.2,1.4-0.5,1.9
			c-0.3,0.5-0.8,1-1.5,1.3C141.3,78.7,140.6,78.9,139.8,78.9z"/>
		<path d="M148.5,65.1c-0.2,0-0.4,0-0.5-0.1c-0.2-0.1-0.3-0.2-0.4-0.4c-0.1-0.2-0.1-0.3-0.1-0.5c0-0.2,0-0.4,0.1-0.5
			c0.1-0.2,0.2-0.3,0.4-0.4c0.2-0.1,0.3-0.1,0.5-0.1c0.2,0,0.4,0,0.5,0.1c0.2,0.1,0.3,0.2,0.4,0.4c0.1,0.2,0.1,0.3,0.1,0.5
			c0,0.2,0,0.4-0.1,0.5c-0.1,0.2-0.2,0.3-0.4,0.4C148.8,65.1,148.7,65.1,148.5,65.1z M147.7,78.5V67.4h1.6v11.2H147.7z"/>
		<path d="M158.9,84.5c-1.4,0-2.6-0.3-3.6-0.8c-1-0.6-1.7-1.4-2.2-2.4l1.3-0.6c0.3,0.8,0.9,1.4,1.7,1.8c0.8,0.5,1.7,0.7,2.7,0.7
			c0.9,0,1.6-0.2,2.3-0.5c0.7-0.3,1.2-0.8,1.6-1.5c0.4-0.6,0.6-1.4,0.6-2.3v-2.7c-0.5,0.8-1.1,1.5-1.9,2c-0.8,0.5-1.7,0.7-2.7,0.7
			c-1,0-2-0.3-2.8-0.8s-1.5-1.2-2-2.1s-0.7-1.9-0.7-3.1c0-1.1,0.2-2.2,0.7-3c0.5-0.9,1.1-1.6,2-2.1c0.8-0.5,1.8-0.8,2.9-0.8
			c1,0,1.9,0.2,2.7,0.7c0.8,0.5,1.4,1.1,1.9,2v-2.3h1.6v11.5c0,1.2-0.2,2.3-0.7,3.1c-0.5,0.8-1.2,1.5-2.1,1.9
			C161.2,84.3,160.2,84.5,158.9,84.5z M159.1,77.5c0.8,0,1.6-0.2,2.2-0.6c0.6-0.4,1.2-0.9,1.5-1.6c0.4-0.7,0.6-1.5,0.6-2.3
			c0-0.9-0.2-1.7-0.6-2.4c-0.4-0.7-0.9-1.2-1.5-1.6c-0.6-0.4-1.4-0.6-2.2-0.6c-0.8,0-1.6,0.2-2.2,0.6c-0.6,0.4-1.2,0.9-1.5,1.6
			c-0.4,0.7-0.6,1.5-0.6,2.4c0,0.9,0.2,1.7,0.6,2.3c0.4,0.7,0.9,1.2,1.5,1.6C157.6,77.3,158.3,77.5,159.1,77.5z"/>
		<path d="M169.6,78.5V67.4h1.6v1.5c0.3-0.5,0.8-1,1.4-1.3s1.4-0.5,2.3-0.5c0.9,0,1.6,0.2,2.2,0.5c0.6,0.4,1.1,0.9,1.4,1.6
			c0.3,0.7,0.5,1.5,0.5,2.5v7h-1.6v-6.7c0-1.2-0.3-2-0.8-2.6c-0.5-0.6-1.3-0.9-2.3-0.9c-0.7,0-1.3,0.1-1.7,0.4
			c-0.5,0.3-0.9,0.6-1.1,1.1c-0.3,0.4-0.4,0.9-0.4,1.5v7.3H169.6z"/>
	</g>
	<g>
		<g>
			<g>
				<g>
					<path class="st6" d="M72.6,71.3c-0.9,0-1.7,0.8-1.7,1.8c0,0.1,0,0.2,0,0.3c0,0,0,0,0,0c0.2,1.5,1.7,4.5,1.7,4.5s1.4-3,1.7-4.5
						c0,0,0,0,0,0c0-0.1,0-0.2,0-0.3C74.3,72.1,73.5,71.3,72.6,71.3z"/>
				</g>
				<g>
					<path class="st7" d="M72.6,71.3c-0.9,0-1.7,0.8-1.7,1.8c0,0.1,0,0.2,0,0.3c0,0,0,0,0,0c0.2,1.5,1.7,4.5,1.7,4.5s1.4-3,1.7-4.5
						c0,0,0,0,0,0c0-0.1,0-0.2,0-0.3C74.3,72.1,73.5,71.3,72.6,71.3z"/>
				</g>
			</g>
			<g>
				<g>
					<path class="st6" d="M77.4,73c-0.7-0.7-1.8-0.6-2.4,0.1c-0.1,0.1-0.1,0.2-0.2,0.3c0,0,0,0,0,0C74,74.6,73,77.9,73,77.9
						s3.1-1.2,4.2-2.1c0,0,0,0,0,0c0.1-0.1,0.2-0.2,0.3-0.2C78.1,74.8,78.1,73.7,77.4,73z"/>
				</g>
				<g>
					<path class="st7" d="M77.4,73c-0.7-0.7-1.8-0.6-2.4,0.1c-0.1,0.1-0.1,0.2-0.2,0.3c0,0,0,0,0,0C74,74.6,73,77.9,73,77.9
						s3.1-1.2,4.2-2.1c0,0,0,0,0,0c0.1-0.1,0.2-0.2,0.3-0.2C78.1,74.8,78.1,73.7,77.4,73z"/>
				</g>
			</g>
			<g>
				<g>
					<path class="st6" d="M70.3,73.4C70.3,73.4,70.3,73.4,70.3,73.4c-0.1-0.1-0.1-0.2-0.2-0.3c-0.7-0.7-1.7-0.7-2.4-0.1
						c-0.7,0.7-0.7,1.8-0.1,2.5c0.1,0.1,0.2,0.1,0.3,0.2c0,0,0,0,0,0c1.2,0.9,4.2,2.1,4.2,2.1S71.2,74.6,70.3,73.4z"/>
				</g>
				<g>
					<path class="st7" d="M70.3,73.4C70.3,73.4,70.3,73.4,70.3,73.4c-0.1-0.1-0.1-0.2-0.2-0.3c-0.7-0.7-1.7-0.7-2.4-0.1
						c-0.7,0.7-0.7,1.8-0.1,2.5c0.1,0.1,0.2,0.1,0.3,0.2c0,0,0,0,0,0c1.2,0.9,4.2,2.1,4.2,2.1S71.2,74.6,70.3,73.4z"/>
				</g>
			</g>
			<g>
				<g>
					<path class="st6" d="M74.2,82.9C74.2,82.9,74.2,82.9,74.2,82.9c-0.2-1.5-1.7-4.5-1.7-4.5s-1.4,3-1.7,4.5c0,0,0,0,0,0
						c0,0.1,0,0.2,0,0.3c0,1,0.8,1.8,1.7,1.8c0.9,0,1.7-0.8,1.7-1.8C74.3,83.1,74.3,83,74.2,82.9z"/>
				</g>
				<g>
					<path class="st7" d="M74.2,82.9C74.2,82.9,74.2,82.9,74.2,82.9c-0.2-1.5-1.7-4.5-1.7-4.5s-1.4,3-1.7,4.5c0,0,0,0,0,0
						c0,0.1,0,0.2,0,0.3c0,1,0.8,1.8,1.7,1.8c0.9,0,1.7-0.8,1.7-1.8C74.3,83.1,74.3,83,74.2,82.9z"/>
				</g>
			</g>
			<g>
				<g>
					<path class="st6" d="M77.5,80.8c-0.1-0.1-0.2-0.1-0.3-0.2c0,0,0,0,0,0C76,79.6,73,78.4,73,78.4s1,3.2,1.8,4.5c0,0,0,0,0,0
						c0.1,0.1,0.1,0.2,0.2,0.3c0.7,0.7,1.7,0.7,2.4,0.1C78.1,82.6,78.1,81.5,77.5,80.8z"/>
				</g>
				<g>
					<path class="st7" d="M77.5,80.8c-0.1-0.1-0.2-0.1-0.3-0.2c0,0,0,0,0,0C76,79.6,73,78.4,73,78.4s1,3.2,1.8,4.5c0,0,0,0,0,0
						c0.1,0.1,0.1,0.2,0.2,0.3c0.7,0.7,1.7,0.7,2.4,0.1C78.1,82.6,78.1,81.5,77.5,80.8z"/>
				</g>
			</g>
			<g>
				<g>
					<path class="st6" d="M67.9,80.5C67.9,80.5,67.9,80.5,67.9,80.5c-0.1,0.1-0.2,0.2-0.3,0.2c-0.7,0.7-0.6,1.8,0.1,2.5
						c0.7,0.7,1.8,0.6,2.4-0.1c0.1-0.1,0.1-0.2,0.2-0.3c0,0,0,0,0,0c0.8-1.2,1.8-4.5,1.8-4.5S69.1,79.6,67.9,80.5z"/>
				</g>
				<g>
					<path class="st7" d="M67.9,80.5C67.9,80.5,67.9,80.5,67.9,80.5c-0.1,0.1-0.2,0.2-0.3,0.2c-0.7,0.7-0.6,1.8,0.1,2.5
						c0.7,0.7,1.8,0.6,2.4-0.1c0.1-0.1,0.1-0.2,0.2-0.3c0,0,0,0,0,0c0.8-1.2,1.8-4.5,1.8-4.5S69.1,79.6,67.9,80.5z"/>
				</g>
			</g>
			<g>
				<g>
					<path class="st6" d="M67.7,76.6C67.7,76.6,67.6,76.6,67.7,76.6c-0.1,0-0.3,0-0.4,0c-0.9,0.1-1.7,0.9-1.6,1.9
						c0.1,1,0.9,1.7,1.8,1.7c0.1,0,0.2,0,0.3-0.1c0,0,0,0,0,0c1.4-0.3,4.3-2,4.3-2S69.1,76.8,67.7,76.6z"/>
				</g>
				<g>
					<path class="st7" d="M67.7,76.6C67.7,76.6,67.6,76.6,67.7,76.6c-0.1,0-0.3,0-0.4,0c-0.9,0.1-1.7,0.9-1.6,1.9
						c0.1,1,0.9,1.7,1.8,1.7c0.1,0,0.2,0,0.3-0.1c0,0,0,0,0,0c1.4-0.3,4.3-2,4.3-2S69.1,76.8,67.7,76.6z"/>
				</g>
			</g>
			<g>
				<g>
					<path class="st6" d="M77.8,76.6c-0.1,0-0.2,0-0.3,0c0,0,0,0,0,0C76,76.8,73,78.1,73,78.1s2.8,1.7,4.3,2c0,0,0,0,0,0
						c0.1,0,0.2,0.1,0.3,0.1c0.9,0.1,1.8-0.7,1.8-1.7C79.5,77.5,78.7,76.7,77.8,76.6z"/>
				</g>
				<g>
					<path class="st7" d="M77.8,76.6c-0.1,0-0.2,0-0.3,0c0,0,0,0,0,0C76,76.8,73,78.1,73,78.1s2.8,1.7,4.3,2c0,0,0,0,0,0
						c0.1,0,0.2,0.1,0.3,0.1c0.9,0.1,1.8-0.7,1.8-1.7C79.5,77.5,78.7,76.7,77.8,76.6z"/>
				</g>
			</g>
		</g>
		<g>
			<g>
				<circle class="st0" cx="72.7" cy="78.3" r="2.2"/>
				<circle class="st3" cx="72.7" cy="78.3" r="2.2"/>
			</g>
			<g>
				<circle class="st0" cx="72.7" cy="78.3" r="2.2"/>
				<circle class="st3" cx="72.7" cy="78.3" r="2.2"/>
			</g>
			<g>
				<circle class="st0" cx="72.7" cy="78.3" r="2.2"/>
				<circle class="st3" cx="72.7" cy="78.3" r="2.2"/>
			</g>
			<g>
				<circle class="st0" cx="72.7" cy="78.3" r="2.2"/>
				<circle class="st3" cx="72.7" cy="78.3" r="2.2"/>
			</g>
			<g>
				<circle class="st0" cx="72.7" cy="78.3" r="2.2"/>
				<circle class="st3" cx="72.7" cy="78.3" r="2.2"/>
			</g>
			<g>
				<circle class="st0" cx="72.7" cy="78.3" r="2.2"/>
				<circle class="st3" cx="72.7" cy="78.3" r="2.2"/>
			</g>
			<g>
				<circle class="st0" cx="72.7" cy="78.3" r="2.2"/>
				<circle class="st3" cx="72.7" cy="78.3" r="2.2"/>
			</g>
			<g>
				<circle class="st0" cx="72.7" cy="78.3" r="2.2"/>
				<circle class="st3" cx="72.7" cy="78.3" r="2.2"/>
			</g>
			<g>
				<circle class="st0" cx="72.7" cy="78.3" r="2.2"/>
				<circle class="st3" cx="72.7" cy="78.3" r="2.2"/>
			</g>
		</g>
	</g>
	<g>
		<g>
			<g>
				<g>
					<path class="st8" d="M179.4,60c-0.9,0-1.7,0.8-1.7,1.8c0,0.1,0,0.2,0,0.3c0,0,0,0,0,0c0.2,1.5,1.7,4.5,1.7,4.5s1.4-3,1.7-4.5
						c0,0,0,0,0,0c0-0.1,0-0.2,0-0.3C181.2,60.8,180.4,60,179.4,60z"/>
				</g>
				<g>
					<path class="st9" d="M179.4,60c-0.9,0-1.7,0.8-1.7,1.8c0,0.1,0,0.2,0,0.3c0,0,0,0,0,0c0.2,1.5,1.7,4.5,1.7,4.5s1.4-3,1.7-4.5
						c0,0,0,0,0,0c0-0.1,0-0.2,0-0.3C181.2,60.8,180.4,60,179.4,60z"/>
				</g>
			</g>
			<g>
				<g>
					<path class="st8" d="M184.3,61.8c-0.7-0.7-1.8-0.6-2.4,0.1c-0.1,0.1-0.1,0.2-0.2,0.3c0,0,0,0,0,0c-0.8,1.2-1.8,4.5-1.8,4.5
						s3.1-1.2,4.2-2.1c0,0,0,0,0,0c0.1-0.1,0.2-0.2,0.3-0.2C185,63.6,185,62.5,184.3,61.8z"/>
				</g>
				<g>
					<path class="st9" d="M184.3,61.8c-0.7-0.7-1.8-0.6-2.4,0.1c-0.1,0.1-0.1,0.2-0.2,0.3c0,0,0,0,0,0c-0.8,1.2-1.8,4.5-1.8,4.5
						s3.1-1.2,4.2-2.1c0,0,0,0,0,0c0.1-0.1,0.2-0.2,0.3-0.2C185,63.6,185,62.5,184.3,61.8z"/>
				</g>
			</g>
			<g>
				<g>
					<path class="st8" d="M177.2,62.2C177.2,62.1,177.2,62.1,177.2,62.2c-0.1-0.1-0.1-0.2-0.2-0.3c-0.7-0.7-1.7-0.7-2.4-0.1
						c-0.7,0.7-0.7,1.8-0.1,2.5c0.1,0.1,0.2,0.1,0.3,0.2c0,0,0,0,0,0c1.2,0.9,4.2,2.1,4.2,2.1S178,63.4,177.2,62.2z"/>
				</g>
				<g>
					<path class="st9" d="M177.2,62.2C177.2,62.1,177.2,62.1,177.2,62.2c-0.1-0.1-0.1-0.2-0.2-0.3c-0.7-0.7-1.7-0.7-2.4-0.1
						c-0.7,0.7-0.7,1.8-0.1,2.5c0.1,0.1,0.2,0.1,0.3,0.2c0,0,0,0,0,0c1.2,0.9,4.2,2.1,4.2,2.1S178,63.4,177.2,62.2z"/>
				</g>
			</g>
			<g>
				<g>
					<path class="st8" d="M181.1,71.6C181.1,71.6,181.1,71.6,181.1,71.6c-0.2-1.5-1.7-4.5-1.7-4.5s-1.4,3-1.7,4.5c0,0,0,0,0,0
						c0,0.1,0,0.2,0,0.3c0,1,0.8,1.8,1.7,1.8c0.9,0,1.7-0.8,1.7-1.8C181.2,71.9,181.1,71.8,181.1,71.6z"/>
				</g>
				<g>
					<path class="st9" d="M181.1,71.6C181.1,71.6,181.1,71.6,181.1,71.6c-0.2-1.5-1.7-4.5-1.7-4.5s-1.4,3-1.7,4.5c0,0,0,0,0,0
						c0,0.1,0,0.2,0,0.3c0,1,0.8,1.8,1.7,1.8c0.9,0,1.7-0.8,1.7-1.8C181.2,71.9,181.1,71.8,181.1,71.6z"/>
				</g>
			</g>
			<g>
				<g>
					<path class="st8" d="M184.4,69.5c-0.1-0.1-0.2-0.1-0.3-0.2c0,0,0,0,0,0c-1.2-0.9-4.2-2.1-4.2-2.1s1,3.2,1.8,4.5c0,0,0,0,0,0
						c0.1,0.1,0.1,0.2,0.2,0.3c0.7,0.7,1.7,0.7,2.4,0.1C185,71.3,185,70.2,184.4,69.5z"/>
				</g>
				<g>
					<path class="st9" d="M184.4,69.5c-0.1-0.1-0.2-0.1-0.3-0.2c0,0,0,0,0,0c-1.2-0.9-4.2-2.1-4.2-2.1s1,3.2,1.8,4.5c0,0,0,0,0,0
						c0.1,0.1,0.1,0.2,0.2,0.3c0.7,0.7,1.7,0.7,2.4,0.1C185,71.3,185,70.2,184.4,69.5z"/>
				</g>
			</g>
			<g>
				<g>
					<path class="st8" d="M174.8,69.3C174.8,69.3,174.8,69.3,174.8,69.3c-0.1,0.1-0.2,0.2-0.3,0.2c-0.7,0.7-0.6,1.8,0.1,2.5
						c0.7,0.7,1.8,0.6,2.4-0.1c0.1-0.1,0.1-0.2,0.2-0.3c0,0,0,0,0,0c0.8-1.2,1.8-4.5,1.8-4.5S176,68.4,174.8,69.3z"/>
				</g>
				<g>
					<path class="st9" d="M174.8,69.3C174.8,69.3,174.8,69.3,174.8,69.3c-0.1,0.1-0.2,0.2-0.3,0.2c-0.7,0.7-0.6,1.8,0.1,2.5
						c0.7,0.7,1.8,0.6,2.4-0.1c0.1-0.1,0.1-0.2,0.2-0.3c0,0,0,0,0,0c0.8-1.2,1.8-4.5,1.8-4.5S176,68.4,174.8,69.3z"/>
				</g>
			</g>
			<g>
				<g>
					<path class="st8" d="M174.6,65.4C174.5,65.4,174.5,65.4,174.6,65.4c-0.1,0-0.3,0-0.4,0c-0.9,0.1-1.7,0.9-1.6,1.9
						s0.9,1.7,1.8,1.7c0.1,0,0.2,0,0.3-0.1c0,0,0,0,0,0c1.4-0.3,4.3-2,4.3-2S176,65.5,174.6,65.4z"/>
				</g>
				<g>
					<path class="st9" d="M174.6,65.4C174.5,65.4,174.5,65.4,174.6,65.4c-0.1,0-0.3,0-0.4,0c-0.9,0.1-1.7,0.9-1.6,1.9
						s0.9,1.7,1.8,1.7c0.1,0,0.2,0,0.3-0.1c0,0,0,0,0,0c1.4-0.3,4.3-2,4.3-2S176,65.5,174.6,65.4z"/>
				</g>
			</g>
			<g>
				<g>
					<path class="st8" d="M184.7,65.4c-0.1,0-0.2,0-0.3,0c0,0,0,0,0,0c-1.4,0.2-4.5,1.4-4.5,1.4s2.8,1.7,4.3,2c0,0,0,0,0,0
						c0.1,0,0.2,0.1,0.3,0.1c0.9,0.1,1.8-0.7,1.8-1.7C186.4,66.3,185.6,65.4,184.7,65.4z"/>
				</g>
				<g>
					<path class="st9" d="M184.7,65.4c-0.1,0-0.2,0-0.3,0c0,0,0,0,0,0c-1.4,0.2-4.5,1.4-4.5,1.4s2.8,1.7,4.3,2c0,0,0,0,0,0
						c0.1,0,0.2,0.1,0.3,0.1c0.9,0.1,1.8-0.7,1.8-1.7C186.4,66.3,185.6,65.4,184.7,65.4z"/>
				</g>
			</g>
		</g>
		<g>
			<g>
				<circle class="st0" cx="179.6" cy="67" r="2.2"/>
				<circle class="st3" cx="179.6" cy="67" r="2.2"/>
			</g>
			<g>
				<circle class="st0" cx="179.6" cy="67" r="2.2"/>
				<circle class="st3" cx="179.6" cy="67" r="2.2"/>
			</g>
			<g>
				<circle class="st0" cx="179.6" cy="67" r="2.2"/>
				<circle class="st3" cx="179.6" cy="67" r="2.2"/>
			</g>
			<g>
				<circle class="st0" cx="179.6" cy="67" r="2.2"/>
				<circle class="st3" cx="179.6" cy="67" r="2.2"/>
			</g>
			<g>
				<circle class="st0" cx="179.6" cy="67" r="2.2"/>
				<circle class="st3" cx="179.6" cy="67" r="2.2"/>
			</g>
			<g>
				<circle class="st0" cx="179.6" cy="67" r="2.2"/>
				<circle class="st3" cx="179.6" cy="67" r="2.2"/>
			</g>
			<g>
				<circle class="st0" cx="179.6" cy="67" r="2.2"/>
				<circle class="st3" cx="179.6" cy="67" r="2.2"/>
			</g>
			<g>
				<circle class="st0" cx="179.6" cy="67" r="2.2"/>
				<circle class="st3" cx="179.6" cy="67" r="2.2"/>
			</g>
			<g>
				<circle class="st0" cx="179.6" cy="67" r="2.2"/>
				<circle class="st3" cx="179.6" cy="67" r="2.2"/>
			</g>
		</g>
	</g>
</g>
</svg>
