<?xml version="1.0" encoding="utf-8"?>
<!-- Generator: Adobe Illustrator 25.4.1, SVG Export Plug-In . SVG Version: 6.00 Build 0)  -->
<svg version="1.1" id="Layer_1" xmlns="http://www.w3.org/2000/svg" xmlns:xlink="http://www.w3.org/1999/xlink" x="0px" y="0px"
	 viewBox="0 0 252 144" style="enable-background:new 0 0 252 144;" xml:space="preserve">
<style type="text/css">
	.st0{fill:#CF9BB2;}
	.st1{fill:none;}
	.st2{fill:none;stroke:#FFFFFF;stroke-miterlimit:10;}
	.st3{fill:none;stroke:#FFFFFF;stroke-linecap:round;}
	.st4{fill:#FFFFFF;}
</style>
<g id="Layer_2_00000007386277148248615120000004774041641420450467_">
	<g id="Layer_2-2">
		<g id="search_bar-6" transform="translate(406.705 235.868)">
			<g transform="matrix(1, 0, 0, 1, -406.7, -235.87)">
				<path id="Rectangle_16-22" class="st0" d="M95.7,30.2h60.6c4.7,0,8.5,3.8,8.5,8.5l0,0c0,4.7-3.8,8.5-8.5,8.5H95.7
					c-4.7,0-8.5-3.8-8.5-8.5l0,0C87.2,34,91,30.2,95.7,30.2z"/>
			</g>
			<g id="magnifying_glass-6" transform="translate(186.964 10.137)">
				<g id="Path_19-7">
					<path class="st1" d="M-441-212.4c2,0,3.7,1.7,3.7,3.7c0,2-1.7,3.7-3.7,3.7c-2,0-3.7-1.7-3.7-3.7l0,0
						C-444.7-210.8-443.1-212.4-441-212.4z"/>
					<circle class="st2" cx="-440.9" cy="-208.7" r="3"/>
				</g>
				<path id="Path_20-7" class="st3" d="M-438.9-206.3l2.9,2.9"/>
			</g>
			<path id="search-3" class="st4" d="M-312-195.8l0.4-0.3c0.3,0.5,0.6,0.8,1,0.8c0.2,0,0.5-0.1,0.7-0.2c0.2-0.2,0.3-0.4,0.3-0.6
				c0-0.2-0.1-0.4-0.2-0.6c-0.2-0.3-0.5-0.5-0.8-0.7c-0.3-0.2-0.5-0.4-0.7-0.6c-0.1-0.1-0.2-0.3-0.3-0.4c-0.1-0.1-0.1-0.3-0.1-0.5
				c0-0.3,0.1-0.6,0.3-0.8c0.2-0.2,0.5-0.3,0.9-0.3c0.3,0,0.5,0.1,0.7,0.2c0.2,0.2,0.4,0.4,0.6,0.6l-0.4,0.3
				c-0.1-0.2-0.3-0.3-0.4-0.4c-0.1-0.1-0.3-0.2-0.5-0.2c-0.2,0-0.4,0.1-0.5,0.2c-0.1,0.1-0.2,0.3-0.2,0.5c0,0.2,0.1,0.3,0.2,0.5
				c0.2,0.2,0.5,0.5,0.8,0.7c0.3,0.2,0.6,0.5,0.9,0.8c0.2,0.2,0.3,0.5,0.3,0.8c0,0.4-0.2,0.7-0.4,0.9c-0.3,0.3-0.6,0.4-1,0.4
				C-311.2-194.8-311.7-195.1-312-195.8z M-305.1-196.1l0.4,0.2c-0.3,0.7-1,1.1-1.7,1.1c-0.5,0-1-0.2-1.4-0.6
				c-0.4-0.4-0.6-0.9-0.5-1.4c0-0.5,0.2-1,0.5-1.4c0.3-0.4,0.8-0.6,1.3-0.6c0.5,0,1,0.2,1.3,0.5c0.4,0.4,0.6,0.9,0.6,1.5h-3.3
				c0,0.4,0.1,0.8,0.4,1.1c0.3,0.3,0.6,0.4,1,0.4C-305.9-195.2-305.3-195.6-305.1-196.1z M-305.1-197.1c-0.1-0.3-0.2-0.6-0.5-0.8
				c-0.3-0.2-0.6-0.3-0.9-0.3c-0.7,0-1.1,0.4-1.4,1.1H-305.1z M-300.1-198.6v3.7h-0.5v-0.6c-0.3,0.5-0.9,0.7-1.4,0.8
				c-0.5,0-1-0.2-1.4-0.6c-0.4-0.4-0.6-0.9-0.6-1.4c0-0.5,0.2-1,0.6-1.4c0.3-0.4,0.8-0.6,1.3-0.6c0.6,0,1.1,0.3,1.5,0.8v-0.7
				L-300.1-198.6z M-300.5-196.7c0-0.4-0.1-0.8-0.4-1.1c-0.3-0.3-0.6-0.4-1-0.4s-0.8,0.2-1,0.4c-0.3,0.3-0.4,0.7-0.4,1.1
				c0,0.4,0.2,0.8,0.4,1.1c0.3,0.3,0.6,0.5,1,0.4c0.4,0,0.8-0.2,1-0.4C-300.6-195.9-300.5-196.3-300.5-196.7L-300.5-196.7z
				 M-299.2-198.6h0.5v0.5c0.1-0.2,0.2-0.3,0.4-0.5c0.1-0.1,0.3-0.2,0.4-0.2c0.2,0,0.3,0,0.5,0.1l-0.2,0.4c-0.1,0-0.1-0.1-0.2-0.1
				c-0.2,0-0.3,0.1-0.4,0.2c-0.1,0.2-0.2,0.4-0.3,0.6c-0.1,0.4-0.1,0.8-0.1,1.3v1.3h-0.5C-299.2-194.9-299.2-198.6-299.2-198.6z
				 M-293.4-197.8l-0.4,0.2c-0.3-0.4-0.8-0.7-1.3-0.6c-0.4,0-0.8,0.1-1.1,0.4c-0.3,0.3-0.5,0.7-0.5,1.1c0,0.4,0.2,0.8,0.4,1.1
				c0.3,0.3,0.7,0.5,1.1,0.5c0.5,0,1-0.2,1.3-0.6l0.4,0.3c-0.2,0.3-0.4,0.5-0.7,0.6c-0.3,0.1-0.7,0.2-1,0.2c-0.5,0-1-0.2-1.4-0.6
				c-0.4-0.4-0.6-0.9-0.6-1.4c0-0.5,0.2-1,0.6-1.4c0.4-0.4,0.9-0.6,1.5-0.6c0.3,0,0.7,0.1,1,0.2
				C-293.7-198.3-293.5-198.1-293.4-197.8z M-292.5-200h0.5v2.1c0.3-0.5,0.8-0.7,1.4-0.8c0.3,0,0.5,0.1,0.8,0.2
				c0.2,0.1,0.4,0.3,0.5,0.6c0.1,0.3,0.2,0.7,0.1,1.1v1.9h-0.5v-1.7c0-0.3,0-0.5,0-0.8c0-0.1-0.1-0.3-0.2-0.4
				c-0.1-0.1-0.2-0.2-0.3-0.3c-0.1-0.1-0.3-0.1-0.5-0.1c-0.2,0-0.4,0-0.5,0.1c-0.2,0.1-0.3,0.2-0.4,0.4c-0.1,0.1-0.2,0.3-0.2,0.5
				c-0.1,0.3-0.1,0.7-0.1,1v1.4h-0.5L-292.5-200z"/>
		</g>
	</g>
</g>
<g>
	<path d="M73.2,82.7c-2.3,0-4.1-0.7-5.2-2c-1.2-1.3-1.7-3.3-1.7-5.8V61.7h1.4v13c0,2.2,0.5,3.9,1.4,5c0.9,1.1,2.3,1.7,4.2,1.7
		c1.9,0,3.2-0.6,4.2-1.7c0.9-1.1,1.4-2.8,1.4-5v-13h1.4v13.2c0,2.6-0.6,4.5-1.7,5.8C77.3,82.1,75.5,82.7,73.2,82.7z"/>
	<path d="M86.9,82.3V61.7h1.4v20.6H86.9z"/>
	<path d="M101.6,82.3V61.7h4.4c1.5,0,2.8,0.3,4.1,0.8c1.3,0.5,2.4,1.3,3.3,2.2c0.9,0.9,1.7,2,2.2,3.3s0.8,2.6,0.8,4
		c0,1.5-0.3,2.8-0.8,4.1c-0.5,1.2-1.3,2.3-2.2,3.3c-0.9,0.9-2.1,1.7-3.3,2.2c-1.3,0.5-2.6,0.8-4.1,0.8H101.6z M102.9,81.1h2.9
		c1.3,0,2.5-0.2,3.6-0.7c1.1-0.5,2.1-1.1,2.9-1.9c0.8-0.8,1.5-1.8,1.9-2.9c0.5-1.1,0.7-2.3,0.7-3.6s-0.2-2.5-0.7-3.6
		c-0.5-1.1-1.1-2.1-1.9-2.9c-0.8-0.8-1.8-1.5-2.9-1.9c-1.1-0.5-2.3-0.7-3.6-0.7h-2.9V81.1z"/>
	<path d="M127.4,82.7c-1.3,0-2.5-0.3-3.6-0.9s-1.9-1.4-2.5-2.4s-0.9-2.2-0.9-3.4c0-1,0.2-1.9,0.5-2.7c0.3-0.8,0.8-1.6,1.4-2.2
		c0.6-0.6,1.3-1.1,2.1-1.5c0.8-0.4,1.7-0.5,2.6-0.5c1.2,0,2.3,0.3,3.3,0.8c1,0.6,1.8,1.3,2.4,2.3c0.6,1,0.9,2.1,1,3.3
		c0,0.1,0,0.2,0,0.2s0,0.1,0,0.2h-12c0,1.1,0.2,2,0.7,2.9s1.2,1.5,2,2c0.9,0.5,1.8,0.7,2.9,0.7c1,0,2-0.2,2.8-0.7
		c0.8-0.4,1.5-1.1,2-1.9l1,0.6c-0.6,1-1.4,1.7-2.5,2.3C129.8,82.4,128.6,82.7,127.4,82.7z M121.8,75h10.6c-0.1-0.9-0.4-1.7-0.9-2.4
		c-0.5-0.7-1.1-1.3-1.9-1.7c-0.8-0.4-1.6-0.6-2.5-0.6c-0.9,0-1.8,0.2-2.5,0.6c-0.8,0.4-1.4,1-1.9,1.7
		C122.2,73.2,121.9,74.1,121.8,75z"/>
	<path d="M141.4,82.7c-1,0-2-0.3-2.8-0.8c-0.8-0.6-1.4-1.3-1.8-2.4l0.8-0.7c0.4,0.9,0.9,1.6,1.5,2c0.7,0.5,1.4,0.7,2.2,0.7
		c0.6,0,1.1-0.1,1.6-0.4c0.5-0.2,0.9-0.6,1.2-1s0.4-1,0.4-1.6c0-0.6-0.1-1-0.4-1.3c-0.3-0.3-0.6-0.6-1.1-0.8
		c-0.5-0.2-1.1-0.5-1.8-0.8c-0.6-0.2-1.1-0.5-1.6-0.7c-0.5-0.3-1-0.6-1.3-1c-0.3-0.4-0.5-1-0.5-1.6c0-0.6,0.2-1.2,0.5-1.7
		c0.3-0.5,0.8-0.9,1.4-1.2c0.6-0.3,1.2-0.4,2-0.4c0.7,0,1.4,0.2,2,0.5c0.6,0.3,1.1,0.8,1.6,1.4l-0.7,0.7c-0.7-1.1-1.6-1.6-2.9-1.6
		c-0.8,0-1.4,0.2-1.8,0.6c-0.5,0.4-0.7,0.9-0.7,1.6c0,0.5,0.1,0.8,0.4,1.1s0.6,0.5,1.1,0.8c0.5,0.2,0.9,0.4,1.5,0.6
		c0.8,0.3,1.4,0.6,2,0.9c0.6,0.3,1,0.6,1.3,1.1s0.5,1,0.5,1.8c0,0.8-0.2,1.6-0.6,2.2c-0.4,0.6-0.9,1.1-1.6,1.4
		C143,82.5,142.2,82.7,141.4,82.7z"/>
	<path d="M151.1,67c-0.2,0-0.3,0-0.5-0.1c-0.1-0.1-0.3-0.2-0.3-0.3c-0.1-0.1-0.1-0.3-0.1-0.5c0-0.2,0-0.3,0.1-0.5
		c0.1-0.1,0.2-0.2,0.3-0.3s0.3-0.1,0.5-0.1c0.2,0,0.3,0,0.5,0.1s0.2,0.2,0.3,0.3s0.1,0.3,0.1,0.5c0,0.2,0,0.3-0.1,0.5
		s-0.2,0.3-0.3,0.3C151.4,66.9,151.2,67,151.1,67z M150.4,82.3V69.5h1.3v12.8H150.4z"/>
	<path d="M162.8,89.2c-1.6,0-2.9-0.3-4-1c-1.1-0.6-1.9-1.6-2.5-2.8l1.2-0.5c0.4,0.9,1.1,1.7,2.1,2.3c1,0.6,2.1,0.9,3.3,0.9
		c1,0,2-0.2,2.8-0.6c0.8-0.4,1.5-1,2-1.8s0.7-1.7,0.7-2.8v-3.5c-0.5,1.1-1.3,1.9-2.3,2.5s-2.1,0.9-3.2,0.9c-1.2,0-2.3-0.3-3.3-0.9
		c-1-0.6-1.7-1.4-2.3-2.4c-0.6-1-0.8-2.2-0.8-3.5c0-1.3,0.3-2.5,0.8-3.5s1.3-1.8,2.3-2.4c1-0.6,2.1-0.9,3.3-0.9
		c1.2,0,2.3,0.3,3.2,0.9s1.7,1.4,2.2,2.5v-2.9h1.3v13.1c0,1.5-0.3,2.7-0.8,3.6c-0.6,1-1.4,1.7-2.4,2.2
		C165.4,88.9,164.2,89.2,162.8,89.2z M163.1,81.5c1,0,2-0.2,2.8-0.7c0.8-0.5,1.4-1.1,1.9-2c0.5-0.9,0.7-1.8,0.7-2.9
		c0-1.1-0.2-2.1-0.7-2.9s-1.1-1.5-1.9-2c-0.8-0.5-1.7-0.7-2.8-0.7c-1,0-1.9,0.2-2.7,0.7c-0.8,0.5-1.4,1.1-1.9,2s-0.7,1.8-0.7,2.9
		c0,1.1,0.2,2.1,0.7,2.9c0.5,0.8,1.1,1.5,1.9,2S162.1,81.5,163.1,81.5z"/>
	<path d="M175.3,82.3V69.5h1.3v1.8c0.3-0.6,0.8-1.1,1.6-1.6c0.7-0.4,1.6-0.7,2.7-0.7c1,0,1.8,0.2,2.5,0.6s1.2,1,1.6,1.8
		s0.6,1.7,0.6,2.9v8h-1.3v-7.7c0-1.4-0.3-2.5-1-3.2c-0.7-0.7-1.6-1.1-2.8-1.1c-0.8,0-1.5,0.2-2.1,0.5c-0.6,0.3-1,0.8-1.4,1.3
		c-0.3,0.5-0.5,1.1-0.5,1.7v8.5H175.3z"/>
</g>
</svg>
