<?xml version="1.0" encoding="utf-8"?>
<!-- Generator: Adobe Illustrator 25.4.1, SVG Export Plug-In . SVG Version: 6.00 Build 0)  -->
<svg version="1.1" id="Layer_1" xmlns="http://www.w3.org/2000/svg" xmlns:xlink="http://www.w3.org/1999/xlink" x="0px" y="0px"
	 viewBox="0 0 252 144" style="enable-background:new 0 0 252 144;" xml:space="preserve">
<style type="text/css">
	.st0{fill:#CF9BB2;}
	.st1{fill:none;}
	.st2{fill:none;stroke:#FFFFFF;stroke-width:2;stroke-miterlimit:10;}
	.st3{fill:none;stroke:#FFFFFF;stroke-width:2;stroke-linecap:round;}
	.st4{fill:#FFFFFF;}
</style>
<g id="Layer_2_00000007386277148248615120000004774041641420450467_">
	<g id="Layer_2-2">
		<g id="search_bar-6" transform="translate(406.705 235.868)">
			<g transform="matrix(1, 0, 0, 1, -406.7, -235.87)">
				<path id="Rectangle_16-22" class="st0" d="M42.9,48.7h166.2c12.9,0,23.3,10.4,23.3,23.3l0,0c0,12.9-10.4,23.3-23.3,23.3H42.9
					C30,95.3,19.6,84.9,19.6,72l0,0C19.6,59.1,30,48.7,42.9,48.7z"/>
			</g>
			<g id="magnifying_glass-6" transform="translate(186.964 10.137)">
				<g id="Path_19-7">
					<path class="st1" d="M-394.6-188c5.5,0,10.1,4.7,10.1,10.1s-4.7,10.1-10.1,10.1s-10.1-4.7-10.1-10.1l0,0
						C-404.7-183.6-400.3-188-394.6-188z"/>
					<circle class="st2" cx="-394.3" cy="-177.8" r="8.2"/>
				</g>
				<path id="Path_20-7" class="st3" d="M-388.8-171.2l8,8"/>
			</g>
			<g>
				<path class="st4" d="M-364.2-156.7c-0.9,0-1.6-0.1-2.2-0.4c-0.6-0.3-1.2-0.6-1.6-0.9c-0.5-0.4-0.8-0.7-1.1-1.1s-0.5-0.6-0.6-0.8
					l0.9-1.1c0.1,0.2,0.3,0.4,0.5,0.8c0.2,0.3,0.6,0.6,0.9,1c0.4,0.3,0.8,0.6,1.4,0.8c0.5,0.2,1.1,0.3,1.8,0.3
					c0.7,0,1.3-0.1,1.8-0.4c0.5-0.2,1-0.6,1.3-1.1c0.3-0.5,0.5-1.1,0.5-1.8c0-0.6-0.1-1.1-0.3-1.5c-0.2-0.4-0.5-0.8-1-1
					s-0.9-0.5-1.4-0.8c-0.5-0.2-1.1-0.4-1.6-0.7c-0.4-0.2-0.8-0.3-1.3-0.5s-0.8-0.5-1.2-0.8c-0.4-0.3-0.7-0.7-0.9-1.2
					c-0.2-0.5-0.4-1-0.4-1.6c0-0.6,0.1-1.2,0.3-1.7c0.2-0.5,0.5-1,1-1.4c0.4-0.4,0.9-0.7,1.5-1c0.6-0.2,1.2-0.3,1.9-0.3
					c0.7,0,1.3,0.1,1.8,0.3c0.6,0.2,1,0.5,1.5,0.8c0.4,0.3,0.7,0.7,1,1l-0.8,1c-0.2-0.3-0.4-0.6-0.8-0.9c-0.3-0.3-0.7-0.5-1.2-0.7
					c-0.4-0.2-0.9-0.3-1.5-0.3c-0.7,0-1.3,0.1-1.7,0.4c-0.5,0.3-0.8,0.7-1.1,1.1s-0.4,1-0.4,1.5c0,0.5,0.1,0.9,0.3,1.2
					c0.2,0.3,0.5,0.6,0.8,0.8c0.3,0.2,0.7,0.4,1.1,0.6c0.4,0.2,0.8,0.3,1.2,0.4c0.6,0.2,1.3,0.5,1.9,0.8s1.1,0.6,1.6,1
					c0.5,0.4,0.8,0.8,1.1,1.4c0.3,0.5,0.4,1.2,0.4,1.9c0,1-0.2,1.8-0.7,2.5c-0.5,0.7-1.1,1.2-1.9,1.6S-363.2-156.7-364.2-156.7z"/>
				<path class="st4" d="M-350.4-156.7c-1.1,0-2-0.2-2.9-0.7c-0.8-0.5-1.5-1.1-2-1.9c-0.5-0.8-0.7-1.7-0.7-2.8
					c0-0.8,0.1-1.5,0.4-2.1c0.3-0.7,0.7-1.2,1.2-1.7s1.1-0.9,1.7-1.2c0.7-0.3,1.3-0.4,2.1-0.4c1,0,1.9,0.2,2.7,0.7s1.4,1.1,1.9,1.8
					c0.5,0.8,0.7,1.7,0.7,2.7c0,0.1,0,0.1,0,0.2s0,0.1,0,0.2h-9.2c0,0.8,0.2,1.5,0.5,2.1c0.4,0.6,0.9,1.1,1.5,1.4
					c0.6,0.4,1.4,0.5,2.2,0.5c0.8,0,1.5-0.2,2.1-0.5c0.6-0.3,1.1-0.8,1.5-1.4l1.1,0.6c-0.5,0.8-1.1,1.4-2,1.9
					C-348.5-156.9-349.4-156.7-350.4-156.7z M-354.5-163.1h7.7c-0.1-0.6-0.3-1.2-0.7-1.7c-0.4-0.5-0.8-0.9-1.4-1.2
					c-0.6-0.3-1.2-0.4-1.8-0.4c-0.7,0-1.3,0.1-1.8,0.4c-0.6,0.3-1,0.7-1.4,1.1C-354.2-164.3-354.4-163.7-354.5-163.1z"/>
				<path class="st4" d="M-337.6-156.7c-1,0-1.8-0.2-2.6-0.7c-0.8-0.5-1.4-1.1-1.8-1.9c-0.5-0.8-0.7-1.8-0.7-2.8c0-1,0.2-2,0.7-2.8
					c0.4-0.8,1-1.5,1.8-1.9c0.8-0.5,1.6-0.7,2.6-0.7c0.9,0,1.8,0.2,2.5,0.6c0.8,0.4,1.3,1,1.7,1.8v-2.1h1.5v10.2h-1.5v-2.2
					c-0.4,0.8-1,1.4-1.8,1.8C-335.9-156.9-336.7-156.7-337.6-156.7z M-337.2-157.9c0.8,0,1.4-0.2,2-0.5c0.6-0.4,1.1-0.9,1.4-1.5
					c0.3-0.6,0.5-1.3,0.5-2.2c0-0.8-0.2-1.5-0.5-2.2c-0.3-0.6-0.8-1.1-1.4-1.5s-1.3-0.5-2-0.5s-1.4,0.2-2,0.5s-1.1,0.8-1.4,1.5
					c-0.3,0.6-0.5,1.3-0.5,2.2c0,0.8,0.2,1.5,0.5,2.2c0.3,0.6,0.8,1.1,1.4,1.5C-338.7-158.1-338-157.9-337.2-157.9z"/>
				<path class="st4" d="M-327.6-157v-10.2h1.5v1.5c0.3-0.6,0.7-1.1,1.3-1.4c0.5-0.3,1.1-0.5,1.8-0.5c0.3,0,0.6,0,0.9,0.1
					c0.3,0.1,0.6,0.2,0.8,0.3l-0.6,1.2c-0.2-0.1-0.4-0.2-0.7-0.2c-0.3-0.1-0.5-0.1-0.7-0.1c-0.5,0-0.9,0.1-1.3,0.4
					c-0.4,0.2-0.8,0.6-1,0.9s-0.4,0.8-0.4,1.2v6.8H-327.6z"/>
				<path class="st4" d="M-314-156.7c-0.8,0-1.5-0.1-2.2-0.4s-1.3-0.7-1.8-1.1c-0.5-0.5-0.9-1.1-1.2-1.7s-0.4-1.4-0.4-2.2
					c0-0.8,0.1-1.5,0.4-2.1c0.3-0.7,0.7-1.2,1.2-1.7c0.5-0.5,1.1-0.9,1.8-1.1c0.7-0.3,1.4-0.4,2.2-0.4c0.7,0,1.3,0.1,1.9,0.3
					c0.6,0.2,1.1,0.5,1.6,0.8l-0.6,1c-0.7-0.6-1.7-0.9-2.7-0.9c-0.8,0-1.6,0.2-2.2,0.6c-0.6,0.4-1.1,0.9-1.5,1.5s-0.5,1.3-0.5,2.1
					c0,0.8,0.2,1.5,0.5,2.1c0.4,0.6,0.9,1.1,1.5,1.5c0.6,0.4,1.4,0.6,2.2,0.6c0.5,0,1-0.1,1.5-0.2s0.9-0.4,1.2-0.6l0.6,1
					c-0.4,0.3-1,0.6-1.6,0.8C-312.7-156.8-313.4-156.7-314-156.7z"/>
				<path class="st4" d="M-307.4-157v-17.2h1.5v8.4c0.3-0.5,0.7-0.9,1.3-1.2c0.6-0.3,1.3-0.5,2.1-0.5c0.8,0,1.5,0.2,2.1,0.5
					s1,0.8,1.3,1.4c0.3,0.6,0.5,1.4,0.5,2.3v6.4h-1.5v-6.1c0-1.1-0.2-1.9-0.7-2.4s-1.2-0.8-2.1-0.8c-0.6,0-1.2,0.1-1.6,0.4
					s-0.8,0.6-1,1c-0.2,0.4-0.4,0.9-0.4,1.3v6.7H-307.4z"/>
			</g>
		</g>
	</g>
</g>
</svg>
