<svg xmlns="http://www.w3.org/2000/svg" xmlns:xlink="http://www.w3.org/1999/xlink" viewBox="0 0 700 500"><defs><style>.cls-1{fill:url(#linear-gradient);}.cls-2{fill:url(#linear-gradient-2);}.cls-3{fill:url(#linear-gradient-3);}.cls-4{fill:url(#linear-gradient-4);}.cls-5{fill:url(#linear-gradient-5);}.cls-6{fill:url(#linear-gradient-6);}.cls-7{fill:url(#linear-gradient-7);}.cls-8{fill:url(#linear-gradient-8);}.cls-9{fill:#ffd2b3;}.cls-10,.cls-23,.cls-24,.cls-25{fill:#fcaa72;}.cls-11{fill:url(#linear-gradient-9);}.cls-12,.cls-14,.cls-21,.cls-34,.cls-35,.cls-36,.cls-72,.cls-73{fill:none;}.cls-12{stroke:#333;opacity:0.4;}.cls-12,.cls-14,.cls-18,.cls-21,.cls-34,.cls-35,.cls-36,.cls-43,.cls-45,.cls-72,.cls-73,.cls-74,.cls-75{stroke-miterlimit:10;}.cls-13{fill:url(#linear-gradient-10);}.cls-14{stroke:#b27928;}.cls-14,.cls-72{stroke-width:0.5px;}.cls-15{fill:#a85720;}.cls-16{fill:#f48500;}.cls-17,.cls-49{fill:#592d10;}.cls-18,.cls-54,.cls-55,.cls-56,.cls-57,.cls-61,.cls-62,.cls-63,.cls-64,.cls-69{fill:#fff;}.cls-18,.cls-43{stroke:#000;}.cls-19{fill:#f2d7b1;}.cls-20{fill:url(#radial-gradient);}.cls-21,.cls-35{stroke-linecap:round;}.cls-21,.cls-35,.cls-45,.cls-74,.cls-75{stroke-width:0.25px;}.cls-21{stroke:url(#radial-gradient-2);}.cls-22{fill:url(#radial-gradient-3);}.cls-23{opacity:0.5;}.cls-24{opacity:0.74;}.cls-25{opacity:0.23;}.cls-26{fill:url(#linear-gradient-11);}.cls-27{fill:url(#linear-gradient-12);}.cls-28{fill:url(#linear-gradient-13);}.cls-29{fill:url(#linear-gradient-14);}.cls-30{fill:url(#linear-gradient-15);}.cls-31{opacity:0.34;}.cls-32{fill:#020201;opacity:0.61;}.cls-33{fill:#ff7517;}.cls-34,.cls-35{stroke:#ff7517;}.cls-34{stroke-width:3px;}.cls-36{stroke:#93582f;}.cls-37{fill:#f2cab6;}.cls-38{fill:url(#radial-gradient-4);}.cls-39,.cls-40,.cls-41,.cls-58{fill:#f7f0eb;}.cls-39{opacity:0.28;}.cls-40,.cls-66{opacity:0.42;}.cls-41{opacity:0.41;}.cls-42{fill:#93582f;}.cls-44{fill:#f9dacd;}.cls-45{stroke:#281208;fill:url(#radial-gradient-5);}.cls-46{fill:#603825;}.cls-47,.cls-65,.cls-66,.cls-74{fill:#663d26;}.cls-48{fill:#351a0c;}.cls-49{opacity:0.18;}.cls-50{fill:#633916;opacity:0.63;}.cls-51{fill:url(#radial-gradient-6);}.cls-52{fill:url(#radial-gradient-7);}.cls-53{fill:url(#radial-gradient-8);}.cls-54{opacity:0.04;}.cls-55{opacity:0.07;}.cls-56{opacity:0.03;}.cls-57{opacity:0.05;}.cls-58{opacity:0.94;}.cls-59{fill:url(#radial-gradient-9);}.cls-60{fill:#ffdac5;}.cls-62{opacity:0.31;}.cls-63{opacity:0.19;}.cls-64{opacity:0.24;}.cls-65{opacity:0.62;}.cls-67{fill:#7a3b11;opacity:0.65;}.cls-68{fill:url(#radial-gradient-10);}.cls-69{opacity:0.12;}.cls-70{fill:url(#radial-gradient-11);}.cls-71{fill:#190f04;}.cls-72,.cls-73,.cls-74{stroke:#663d26;}.cls-73{stroke-width:0.75px;}.cls-75{fill:url(#radial-gradient-12);stroke:url(#radial-gradient-13);}.cls-76{fill:url(#radial-gradient-14);}.cls-77{fill:url(#radial-gradient-15);}.cls-78{fill:url(#radial-gradient-16);}.cls-79{fill:url(#radial-gradient-17);}.cls-80{fill:url(#radial-gradient-18);}.cls-81{fill:url(#radial-gradient-19);}.cls-82{fill:url(#radial-gradient-20);}.cls-83{fill:url(#radial-gradient-21);}.cls-84{fill:url(#radial-gradient-22);}.cls-85{fill:url(#radial-gradient-23);}.cls-86{fill:url(#radial-gradient-24);}.cls-87{fill:url(#radial-gradient-25);}.cls-88,.cls-89{fill:#9b7a56;}.cls-88{opacity:0.15;}.cls-89{opacity:0.22;}</style><linearGradient id="linear-gradient" x1="349.77" y1="-67.88" x2="350.23" y2="579.12" gradientUnits="userSpaceOnUse"><stop offset="0" stop-color="#ffad76"/><stop offset="0.88" stop-color="#ce631b"/></linearGradient><linearGradient id="linear-gradient-2" x1="349.86" y1="-43.02" x2="350.15" y2="366.12" gradientUnits="userSpaceOnUse"><stop offset="0" stop-color="#c95b11"/><stop offset="1" stop-color="#ce631b"/></linearGradient><linearGradient id="linear-gradient-3" x1="531.8" y1="52.71" x2="532.01" y2="343.33" gradientUnits="userSpaceOnUse"><stop offset="0.38" stop-color="#ffad76"/><stop offset="0.99" stop-color="#ce631b"/></linearGradient><linearGradient id="linear-gradient-4" x1="588.35" y1="132.96" x2="588.59" y2="463.19" gradientUnits="userSpaceOnUse"><stop offset="0.18" stop-color="#754c24"/><stop offset="0.71" stop-color="#603813"/></linearGradient><linearGradient id="linear-gradient-5" x1="367.43" y1="-30.97" x2="367.71" y2="359.82" xlink:href="#linear-gradient-3"/><linearGradient id="linear-gradient-6" x1="424.46" y1="76.96" x2="424.77" y2="508.78" xlink:href="#linear-gradient-4"/><linearGradient id="linear-gradient-7" x1="350.35" y1="299.8" x2="349.73" y2="423.7" xlink:href="#linear-gradient"/><linearGradient id="linear-gradient-8" x1="227.71" y1="50.13" x2="227.94" y2="371.79" xlink:href="#linear-gradient-4"/><linearGradient id="linear-gradient-9" x1="406.85" y1="319.6" x2="406.93" y2="440.25" gradientTransform="matrix(-1, 0, 0, 1, 756.41, 0)" xlink:href="#linear-gradient"/><linearGradient id="linear-gradient-10" x1="482.95" y1="338.58" x2="482.95" y2="338.58" gradientUnits="userSpaceOnUse"><stop offset="0.2" stop-color="#f7931e"/><stop offset="0.66" stop-color="#c97120"/></linearGradient><radialGradient id="radial-gradient" cx="449.5" cy="417.15" r="0" gradientTransform="translate(0 4.66) scale(1 0.99)" gradientUnits="userSpaceOnUse"><stop offset="0.09" stop-color="#ffb43b"/><stop offset="0.92" stop-color="#c48730"/></radialGradient><radialGradient id="radial-gradient-2" cx="509" cy="248" r="0" gradientUnits="userSpaceOnUse"><stop offset="0" stop-color="#ffb43b"/><stop offset="1" stop-color="#c48730"/></radialGradient><radialGradient id="radial-gradient-3" cx="445.59" cy="49.6" r="56.26" gradientTransform="translate(343.6 -393.59) rotate(90)" gradientUnits="userSpaceOnUse"><stop offset="0.22" stop-color="#f9ceb2"/><stop offset="0.66" stop-color="#ce631b"/></radialGradient><linearGradient id="linear-gradient-11" x1="683.53" y1="308.03" x2="685.3" y2="339.98" xlink:href="#linear-gradient"/><linearGradient id="linear-gradient-12" x1="14.97" y1="299.83" x2="16.67" y2="330.55" gradientTransform="matrix(-0.94, 0, 0, 1, 31, 0)" xlink:href="#linear-gradient"/><linearGradient id="linear-gradient-13" x1="349.92" y1="341.6" x2="350.03" y2="500.59" xlink:href="#linear-gradient"/><linearGradient id="linear-gradient-14" x1="372" y1="347" x2="372" y2="347" xlink:href="#linear-gradient-3"/><linearGradient id="linear-gradient-15" x1="231.64" y1="140" x2="231.64" y2="140" xlink:href="#linear-gradient-3"/><radialGradient id="radial-gradient-4" cx="389.5" cy="388.98" gradientTransform="translate(0 4.34) scale(1 0.99)" xlink:href="#radial-gradient"/><radialGradient id="radial-gradient-5" cx="369.52" cy="196.74" r="9.09" gradientTransform="translate(70.61 45.7) scale(0.82 0.83)" gradientUnits="userSpaceOnUse"><stop offset="0.08" stop-color="#a67c52"/><stop offset="0.49" stop-color="#42210b"/></radialGradient><radialGradient id="radial-gradient-6" cx="388.67" cy="293" r="42.9" gradientTransform="translate(0 -3.8) scale(1 1.02)" gradientUnits="userSpaceOnUse"><stop offset="0" stop-color="#ffb43b"/><stop offset="0.77" stop-color="#af722f"/></radialGradient><radialGradient id="radial-gradient-7" cx="424.5" cy="293.57" fx="367.27203527457505" r="57.26" gradientTransform="translate(0 -3.8) scale(1 1.02)" gradientUnits="userSpaceOnUse"><stop offset="0.13" stop-color="#ffb43b"/><stop offset="0.34" stop-color="#de9836"/><stop offset="0.55" stop-color="#c48332"/><stop offset="0.73" stop-color="#b47630"/><stop offset="0.88" stop-color="#af722f"/></radialGradient><radialGradient id="radial-gradient-8" cx="369.71" cy="294.84" r="130.74" gradientTransform="translate(0 -3.8) scale(1 1.02)" gradientUnits="userSpaceOnUse"><stop offset="0.09" stop-color="#ffb43b"/><stop offset="0.2" stop-color="#de9836"/><stop offset="0.31" stop-color="#c48332"/><stop offset="0.41" stop-color="#b47630"/><stop offset="0.49" stop-color="#af722f"/></radialGradient><radialGradient id="radial-gradient-9" cx="359.79" cy="296.1" r="68.27" gradientTransform="translate(0 -1.95) scale(1 1.01)" gradientUnits="userSpaceOnUse"><stop offset="0.32" stop-color="#ffb43b"/><stop offset="0.52" stop-color="#e6a037"/><stop offset="1" stop-color="#af722f"/></radialGradient><radialGradient id="radial-gradient-10" cx="394.44" cy="383.97" r="45.02" gradientTransform="translate(-36.03 96.34) scale(1.09 0.79)" xlink:href="#radial-gradient"/><radialGradient id="radial-gradient-11" cx="492.32" cy="447.68" r="45.06" gradientTransform="matrix(0.41, -0.2, 0.21, 0.45, 200.96, 349.78)" xlink:href="#radial-gradient"/><radialGradient id="radial-gradient-12" cx="447.39" cy="235.55" r="10.05" gradientTransform="translate(0 -3.12) scale(1 1.01)" xlink:href="#radial-gradient"/><radialGradient id="radial-gradient-13" cx="447.39" cy="235.55" r="11.12" gradientTransform="translate(0 -3.12) scale(1 1.01)" xlink:href="#radial-gradient-2"/><radialGradient id="radial-gradient-14" cx="440.45" cy="245.96" r="1.59" gradientTransform="translate(0 -3.12) scale(1 1.01)" xlink:href="#radial-gradient"/><radialGradient id="radial-gradient-15" cx="440.45" cy="250.59" r="1.59" gradientTransform="translate(0 -3.12) scale(1 1.01)" gradientUnits="userSpaceOnUse"><stop offset="0" stop-color="#fff"/><stop offset="1" stop-color="#ffdac5"/></radialGradient><radialGradient id="radial-gradient-16" cx="441.5" cy="255.22" r="1.59" gradientTransform="translate(0 -3.12) scale(1 1.01)" xlink:href="#radial-gradient"/><radialGradient id="radial-gradient-17" cx="443.61" cy="259.85" r="1.59" xlink:href="#radial-gradient-15"/><radialGradient id="radial-gradient-18" cx="447.39" cy="248.27" r="1.74" xlink:href="#radial-gradient-15"/><radialGradient id="radial-gradient-19" cx="448.45" cy="252.9" r="1.59" gradientTransform="translate(0 -3.12) scale(1 1.01)" xlink:href="#radial-gradient"/><radialGradient id="radial-gradient-20" cx="450.55" cy="257.53" r="1.74" xlink:href="#radial-gradient-15"/><radialGradient id="radial-gradient-21" cx="453.72" cy="261.11" r="1.59" gradientTransform="translate(0 -3.12) scale(1 1.01)" xlink:href="#radial-gradient"/><radialGradient id="radial-gradient-22" cx="454.33" cy="245.96" r="1.59" gradientTransform="translate(0 -3.12) scale(1 1.01)" xlink:href="#radial-gradient"/><radialGradient id="radial-gradient-23" cx="455.39" cy="250.59" r="1.59" xlink:href="#radial-gradient-15"/><radialGradient id="radial-gradient-24" cx="458.55" cy="254.17" r="1.59" gradientTransform="translate(0 -3.12) scale(1 1.01)" xlink:href="#radial-gradient"/><radialGradient id="radial-gradient-25" cx="462.77" cy="256.7" r="1.59" xlink:href="#radial-gradient-15"/></defs><g id="background"><rect class="cls-1" width="700" height="500"/><rect class="cls-2" width="700" height="316"/><polygon class="cls-3" points="532 133 365 339 699.01 339 532 133"/><polygon class="cls-4" points="532 133 477 345 700 339 532 133"/><polygon class="cls-5" points="367.7 77 138.46 354 596.95 354 367.7 77"/><polygon class="cls-6" points="367.7 77 251 338 598.31 354 367.7 77"/><path class="cls-7" d="M0,326s110.31-52.14,120-45c19,14,204,48,204,48s65-34,69-39c4.5-5.63,87.06,30.88,87.06,30.88S610,303,620,298s80,37.4,80,37.4v77.74l-700,4Z"/><polygon class="cls-8" points="227.94 139 38 367 417.87 367 227.94 139"/><circle class="cls-9" cx="455.17" cy="81.43" r="2.17"/><circle class="cls-9" cx="479.06" cy="143.68" r="2.17"/><circle class="cls-10" cx="272.5" cy="172.5" r="2.5"/><circle class="cls-10" cx="135" cy="55" r="3"/><ellipse class="cls-9" cx="385.39" cy="63.33" rx="1.61" ry="1.67"/><ellipse class="cls-9" cx="544.78" cy="45.67" rx="1.61" ry="1.67"/><ellipse class="cls-9" cx="655.37" cy="36.89" rx="1.61" ry="1.67"/><path class="cls-11" d="M699,413s-355.72-88.48-364-93c-11-6-125,55-125,55s-63.42-24.12-85.18-42C109,320,0,385,0,385v55H699Z"/><ellipse class="cls-9" cx="130.71" cy="127.64" rx="1.29" ry="1.34"/><ellipse class="cls-9" cx="19.17" cy="103.21" rx="1.29" ry="1.34"/><ellipse class="cls-9" cx="645.76" cy="206.31" rx="1.61" ry="1.67"/><circle class="cls-9" cx="48.82" cy="36.41" r="2.41"/><circle class="cls-9" cx="18.9" cy="165.43" r="2.41"/><circle class="cls-9" cx="349.5" cy="18.5" r="1.5"/><circle class="cls-9" cx="602.83" cy="77.09" r="2.17"/><circle class="cls-10" cx="483.4" cy="187.83" r="2.17"/><circle class="cls-10" cx="156" cy="224" r="2"/><circle class="cls-10" cx="187" cy="118" r="2"/><path class="cls-12" d="M623,409"/><path class="cls-12" d="M601,330"/><path class="cls-12" d="M604.5,453.5"/><path class="cls-12" d="M572.19,314.94"/><path class="cls-13" d="M483,338.58"/><path class="cls-14" d="M484.45,340.29"/><path class="cls-14" d="M381,342.59"/><path class="cls-14" d="M485.5,341.5"/><path class="cls-14" d="M380.5,344.5"/><path class="cls-15" d="M398.71,275.32"/><path class="cls-16" d="M377.2,349.64"/><path class="cls-17" d="M477.6,399.62"/><path class="cls-17" d="M385.21,423.74"/><path class="cls-18" d="M512.51,451.53"/><path class="cls-19" d="M387.43,405"/><path class="cls-19" d="M415,384.73"/><path class="cls-19" d="M360,373"/><path class="cls-20" d="M449.5,417.15"/><path class="cls-21" d="M509,248"/><circle class="cls-22" cx="294" cy="52" r="35"/><path class="cls-23" d="M393.1,53.46s113.07-21.77,133-5.5S557,55,635.62,60.64C648.41,61.56,686.38,73.4,654,82s-194.23,6.46-210.11,4.4-58.65-2.28-71.37,0C358,89,272.68,67.82,332.84,60.64Z"/><path class="cls-23" d="M79.75,67.25s91.83-17.68,108-4.47,25.11,5.72,89,10.3c10.38.75,41.22,10.36,14.92,17.35S133.89,95.68,121,94s-47.63-1.85-58,0C51.24,96.11-18.06,78.91,30.8,73.08Z"/><path class="cls-24" d="M507.82,126.85s62.05-12,73-3,17,3.88,60.12,7c7,.5,27.85,7,10.08,11.76S544.41,146.12,535.69,145s-32.18-1.25-39.16,0c-8,1.44-54.79-10.23-21.78-14.18Z"/><path class="cls-24" d="M198.14,139s62.05-12,73-3,17,3.88,60.11,7c7,.5,27.86,7,10.09,11.76S234.73,158.32,226,157.18s-32.18-1.25-39.16,0c-8,1.43-54.8-10.23-21.78-14.18Z"/><path class="cls-25" d="M77.79,225.59s103.79-20.3,122.08-5.13,28.38,6.56,100.55,11.82c11.74.85,46.6,11.89,16.87,19.9s-178.3,6-192.88,4.1-53.84-2.12-65.51,0c-13.33,2.42-91.66-17.31-36.43-24Z"/><path class="cls-25" d="M360.62,184.3s134.44-21.72,158.12-5.49,36.76,7,130.24,12.65c15.21.92,60.36,12.73,21.85,21.31S439.89,219.22,421,217.16s-69.73-2.27-84.85,0c-17.27,2.59-118.72-18.53-47.19-25.7Z"/><path d="M431.82,133.57"/><path d="M349.87,193.4"/><path class="cls-26" d="M700,335.4l-32-18.29s15.64-9.57,19-7.77c3,1.66,13,6.66,13,6.66Z"/><path class="cls-27" d="M0,326l33-15s-16.89-11.8-20-10c-2.86,1.66-13,5.63-13,5.63Z"/><path class="cls-28" d="M605,375.5c-13.58,12.4-165,58.23-165,58.23S253.65,362,237,344.38c-2.12-2.25-7-2.64-14-1.6-52.46,7.85-223,97-223,97V500H700V412.65S616,365.46,605,375.5Z"/><path class="cls-29" d="M372,347"/><path class="cls-30" d="M231.64,140"/><g class="cls-31"><path class="cls-23" d="M395.48,32.23S501.07,9.15,519.67,26.4,548.54,33.86,622,39.84c11.94,1,47.4,13.52,17.16,22.63s-181.38,6.85-196.21,4.67-54.77-2.42-66.64,0C362.7,69.89,283,47.45,339.21,39.84Z"/><path class="cls-23" d="M102.86,46.84s85.75-18.74,100.86-4.73S227.17,48.17,286.8,53c9.7.79,38.49,11,13.93,18.39S153.43,77,141.38,75.19s-44.48-2-54.13,0c-11,2.24-75.72-16-30.09-22.17Z"/><path class="cls-24" d="M502.61,110s57.95-12.71,68.15-3.21,15.85,4.11,56.14,7.4c6.55.54,26,7.45,9.42,12.47s-99.54,3.77-107.68,2.56-30.06-1.32-36.57,0c-7.45,1.52-51.17-10.84-20.34-15Z"/><path class="cls-24" d="M213.42,122.93s57.94-12.71,68.15-3.22,15.84,4.11,56.14,7.41c6.55.53,26,7.44,9.41,12.46s-99.53,3.77-107.67,2.57-30.06-1.33-36.57,0c-7.45,1.52-51.17-10.84-20.34-15Z"/><path class="cls-25" d="M101,214.65s96.93-21.51,114-5.44,26.5,7,93.9,12.53c11,.91,43.52,12.6,15.76,21.09s-166.51,6.39-180.12,4.35-50.28-2.25-61.18,0c-12.45,2.57-85.59-18.35-34-25.44Z"/><path class="cls-25" d="M365.15,170.89s125.54-23,147.66-5.82,34.32,7.45,121.62,13.41c14.2,1,56.36,13.49,20.41,22.58s-215.67,6.84-233.3,4.66-65.13-2.41-79.24,0c-16.13,2.75-110.87-19.64-44.07-27.24Z"/></g></g><g id="banner"><path class="cls-32" d="M221,0H0V439.76s169-89.13,221-97Z"/><path class="cls-33" d="M39,151.39v15.5H37v-15.5Z"/><path class="cls-33" d="M42.65,150.56h2v16.33h-2Z"/><path class="cls-33" d="M48.08,150.56h2v16.33h-2Z"/><path class="cls-33" d="M62.82,163.85c0,1.15,0,2.17.09,3h-1.8L61,165.07h0a4.18,4.18,0,0,1-3.68,2.07c-1.74,0-3.84-1-3.84-4.87v-6.51h2v6.16c0,2.12.64,3.54,2.48,3.54a2.92,2.92,0,0,0,2.67-1.84,3,3,0,0,0,.18-1v-6.83h2Z"/><path class="cls-33" d="M65.9,164.82a5.33,5.33,0,0,0,2.67.8c1.47,0,2.16-.73,2.16-1.65s-.58-1.5-2.07-2.05c-2-.71-2.94-1.81-2.94-3.15,0-1.79,1.45-3.26,3.84-3.26a5.52,5.52,0,0,1,2.73.69l-.5,1.47a4.3,4.3,0,0,0-2.28-.65c-1.2,0-1.86.69-1.86,1.52s.66,1.34,2.11,1.89c1.93.73,2.92,1.7,2.92,3.35,0,2-1.51,3.34-4.16,3.34a6.38,6.38,0,0,1-3.13-.76Z"/><path class="cls-33" d="M77.72,152.56v3.2h2.9v1.54h-2.9v6c0,1.38.39,2.16,1.52,2.16a5,5,0,0,0,1.17-.13l.09,1.51a4.94,4.94,0,0,1-1.79.28,2.8,2.8,0,0,1-2.18-.85,4.11,4.11,0,0,1-.79-2.9V157.3H74v-1.54h1.72v-2.67Z"/><path class="cls-33" d="M82.9,159.23c0-1.31,0-2.44-.1-3.47h1.78l.06,2.18h.1a3.33,3.33,0,0,1,3.08-2.43,2,2,0,0,1,.57.07v1.9a3.4,3.4,0,0,0-.69-.06A2.84,2.84,0,0,0,85,160a5.38,5.38,0,0,0-.09,1v5.93h-2Z"/><path class="cls-33" d="M96.47,166.89l-.17-1.4h-.06a4.16,4.16,0,0,1-3.41,1.65,3.17,3.17,0,0,1-3.4-3.19c0-2.69,2.39-4.17,6.69-4.14v-.23A2.3,2.3,0,0,0,93.59,157a5.55,5.55,0,0,0-2.9.83l-.46-1.33a6.91,6.91,0,0,1,3.66-1c3.4,0,4.23,2.32,4.23,4.55v4.16a15.43,15.43,0,0,0,.19,2.67Zm-.3-5.68c-2.21-.05-4.72.34-4.72,2.51a1.79,1.79,0,0,0,1.91,1.93,2.76,2.76,0,0,0,2.69-1.87,2,2,0,0,0,.12-.64Z"/><path class="cls-33" d="M103.73,152.56v3.2h2.9v1.54h-2.9v6c0,1.38.39,2.16,1.52,2.16a5,5,0,0,0,1.17-.13l.1,1.51a5,5,0,0,1-1.8.28,2.8,2.8,0,0,1-2.18-.85,4.11,4.11,0,0,1-.78-2.9V157.3H100v-1.54h1.73v-2.67Z"/><path class="cls-33" d="M118.84,161.23c0,4.12-2.85,5.91-5.54,5.91-3,0-5.33-2.21-5.33-5.72,0-3.73,2.43-5.91,5.52-5.91S118.84,157.83,118.84,161.23Zm-8.83.12c0,2.43,1.41,4.27,3.38,4.27s3.38-1.81,3.38-4.32c0-1.88-.94-4.28-3.33-4.28S110,159.23,110,161.35Z"/><path class="cls-33" d="M121.4,159.23c0-1.31,0-2.44-.09-3.47h1.77l.07,2.18h.09a3.33,3.33,0,0,1,3.08-2.43,2,2,0,0,1,.57.07v1.9a3.4,3.4,0,0,0-.69-.06,2.84,2.84,0,0,0-2.71,2.59,6.53,6.53,0,0,0-.09,1v5.93h-2Z"/><path class="cls-33" d="M144.69,166.38a9.83,9.83,0,0,1-4.09.74c-4.37,0-7.66-2.76-7.66-7.84a7.72,7.72,0,0,1,8.1-8.14,8.26,8.26,0,0,1,3.68.69l-.49,1.63a7.19,7.19,0,0,0-3.12-.64c-3.64,0-6.05,2.32-6.05,6.39,0,3.79,2.18,6.23,6,6.23a8,8,0,0,0,3.26-.64Z"/><path class="cls-33" d="M157.55,166.38a9.86,9.86,0,0,1-4.09.74c-4.37,0-7.66-2.76-7.66-7.84a7.72,7.72,0,0,1,8.1-8.14,8.17,8.17,0,0,1,3.67.69l-.48,1.63a7.27,7.27,0,0,0-3.13-.64c-3.63,0-6,2.32-6,6.39,0,3.79,2.18,6.23,6,6.23a8.06,8.06,0,0,0,3.27-.64Z"/><path class="cls-33" d="M49.87,91.12l-3.15,9.54h-4L53,70.33H57.7l10.35,30.33H63.86l-3.24-9.54Zm9.94-3.06-3-8.73c-.67-2-1.12-3.78-1.57-5.54h-.09c-.45,1.8-1,3.65-1.53,5.49l-3,8.78Z"/><path class="cls-33" d="M76.64,72.76a2.45,2.45,0,0,1-4.9,0,2.41,2.41,0,0,1,2.47-2.48A2.35,2.35,0,0,1,76.64,72.76Zm-4.41,27.9V78.88h4v21.78Z"/><rect class="cls-34" x="35.5" y="59.5" width="50" height="50"/><path class="cls-33" d="M35.32,252.46V252l.62-.6c1.49-1.42,2.17-2.18,2.18-3.06A1,1,0,0,0,37,247.16a2,2,0,0,0-1.24.5l-.25-.56a2.57,2.57,0,0,1,1.66-.59,1.64,1.64,0,0,1,1.79,1.7c0,1.08-.79,1.95-2,3.14l-.47.43v0h2.63v.66Z"/><path class="cls-33" d="M43.82,249.47c0,2-.74,3.09-2,3.09s-1.92-1.07-1.94-3,.85-3,2-3S43.82,247.6,43.82,249.47Zm-3.18.09c0,1.52.47,2.38,1.19,2.38S43,251,43,249.5s-.37-2.38-1.19-2.38S40.64,248,40.64,249.56Z"/><path class="cls-33" d="M44.55,252.46V252l.62-.6c1.49-1.42,2.17-2.18,2.18-3.06a1,1,0,0,0-1.16-1.15,2,2,0,0,0-1.25.5l-.25-.56a2.59,2.59,0,0,1,1.66-.59,1.64,1.64,0,0,1,1.79,1.7c0,1.08-.78,1.95-2,3.14l-.46.43v0h2.62v.66Z"/><path class="cls-33" d="M50.88,247.34h0l-1,.55-.15-.6,1.28-.68h.67v5.85h-.77Z"/><path class="cls-33" d="M56,246.47a8.21,8.21,0,0,1,1.5-.13,2.5,2.5,0,0,1,1.76.5,1.53,1.53,0,0,1,.48,1.15,1.6,1.6,0,0,1-1.15,1.55v0a1.49,1.49,0,0,1,.89,1.22,9.57,9.57,0,0,0,.47,1.67h-.81a8,8,0,0,1-.4-1.45c-.18-.84-.51-1.15-1.22-1.18h-.74v2.63H56Zm.78,2.76h.8c.84,0,1.37-.45,1.37-1.15S58.35,247,57.53,247a3.12,3.12,0,0,0-.78.07Z"/><path class="cls-33" d="M61.26,250.42a1.4,1.4,0,0,0,1.5,1.52,2.8,2.8,0,0,0,1.2-.23l.14.57a3.65,3.65,0,0,1-1.45.27,2,2,0,0,1-2.15-2.2,2.12,2.12,0,0,1,2-2.35,1.85,1.85,0,0,1,1.8,2.05,2.58,2.58,0,0,1,0,.37Zm2.32-.56a1.12,1.12,0,0,0-1.09-1.29,1.31,1.31,0,0,0-1.22,1.29Z"/><path class="cls-33" d="M65.33,246.07h.79v6.39h-.79Z"/><path class="cls-33" d="M67.89,250.42a1.41,1.41,0,0,0,1.5,1.52,2.73,2.73,0,0,0,1.2-.23l.14.57a3.65,3.65,0,0,1-1.45.27,2,2,0,0,1-2.14-2.2,2.11,2.11,0,0,1,2-2.35,1.85,1.85,0,0,1,1.8,2.05,2.58,2.58,0,0,1,0,.37Zm2.33-.56a1.13,1.13,0,0,0-1.1-1.29,1.33,1.33,0,0,0-1.22,1.29Z"/><path class="cls-33" d="M74.37,252.46l-.06-.55h0a1.62,1.62,0,0,1-1.33.65,1.24,1.24,0,0,1-1.33-1.26c0-1.05.94-1.62,2.62-1.62v-.09a.89.89,0,0,0-1-1,2.17,2.17,0,0,0-1.14.32l-.18-.52a2.68,2.68,0,0,1,1.44-.39c1.33,0,1.65.91,1.65,1.78v1.63a6.68,6.68,0,0,0,.07,1.05Zm-.11-2.23c-.87,0-1.85.14-1.85,1a.7.7,0,0,0,.75.76,1.07,1.07,0,0,0,1-.73.74.74,0,0,0,.05-.25Z"/><path class="cls-33" d="M76.19,251.65a2.14,2.14,0,0,0,1,.31c.57,0,.84-.29.84-.65s-.22-.58-.81-.8c-.78-.28-1.15-.71-1.15-1.23a1.35,1.35,0,0,1,1.5-1.28,2.21,2.21,0,0,1,1.07.27l-.19.58a1.72,1.72,0,0,0-.9-.26.64.64,0,0,0-.72.6c0,.36.26.52.82.74.76.29,1.15.66,1.15,1.31s-.6,1.31-1.63,1.31a2.51,2.51,0,0,1-1.23-.3Z"/><path class="cls-33" d="M80.3,250.42a1.41,1.41,0,0,0,1.5,1.52,2.81,2.81,0,0,0,1.21-.23l.13.57a3.65,3.65,0,0,1-1.45.27,2,2,0,0,1-2.14-2.2,2.11,2.11,0,0,1,2-2.35,1.85,1.85,0,0,1,1.8,2.05c0,.17,0,.29,0,.37Zm2.33-.56a1.13,1.13,0,0,0-1.1-1.29,1.33,1.33,0,0,0-1.22,1.29Z"/><path class="cls-33" d="M36.37,277.39l-.63,1.91h-.81L37,273.23h.95L40,279.3h-.84l-.65-1.91Zm2-.61L37.77,275c-.14-.4-.23-.76-.32-1.11h0c-.09.36-.19.73-.3,1.1l-.6,1.76Z"/><path class="cls-33" d="M40.84,276.3c0-.51,0-1,0-1.36h.69l0,.85h0a1.32,1.32,0,0,1,1.21-1,.85.85,0,0,1,.23,0v.74l-.28,0a1.11,1.11,0,0,0-1.06,1,2.13,2.13,0,0,0,0,.37v2.33h-.79Z"/><path class="cls-33" d="M45,273.69v1.25h1.13v.6H45v2.35c0,.54.15.85.59.85a1.59,1.59,0,0,0,.46-.06l0,.6a2.06,2.06,0,0,1-.71.11,1.08,1.08,0,0,1-.85-.34,1.58,1.58,0,0,1-.31-1.13v-2.38h-.67v-.6h.67v-1.05Z"/><path class="cls-33" d="M47.38,274.94l.57,2.21c.13.49.25.94.33,1.39h0c.1-.44.25-.91.39-1.38l.71-2.22h.67l.67,2.18c.17.52.29,1,.39,1.42h0a13.37,13.37,0,0,1,.33-1.41l.62-2.19h.79l-1.41,4.36h-.72l-.67-2.08c-.15-.49-.27-.92-.38-1.43h0a12.1,12.1,0,0,1-.4,1.44l-.7,2.07h-.72l-1.31-4.36Z"/><path class="cls-33" d="M57.54,277.08a2.13,2.13,0,0,1-2.17,2.31,2.07,2.07,0,0,1-2.09-2.24,2.13,2.13,0,0,1,2.16-2.31A2.07,2.07,0,0,1,57.54,277.08Zm-3.46.05c0,.95.55,1.67,1.33,1.67s1.32-.71,1.32-1.69c0-.74-.37-1.68-1.31-1.68S54.08,276.3,54.08,277.13Z"/><path class="cls-33" d="M58.54,276.3c0-.51,0-1,0-1.36h.69l0,.85h0a1.31,1.31,0,0,1,1.2-1,.8.8,0,0,1,.23,0v.74l-.27,0a1.1,1.1,0,0,0-1.06,1,2.1,2.1,0,0,0,0,.37v2.33h-.78Z"/><path class="cls-33" d="M62.3,276.94h0a6,6,0,0,1,.38-.5l1.28-1.5h1l-1.69,1.79,1.92,2.57h-1l-1.51-2.09-.4.45v1.64h-.78v-6.4h.78Z"/><path class="cls-33" d="M67.61,279.3c0-.3,0-.74,0-1.13V272.9h.79v2.74h0a1.6,1.6,0,0,1,1.48-.8,2,2,0,0,1,1.84,2.22,2.07,2.07,0,0,1-2,2.33,1.54,1.54,0,0,1-1.45-.81h0l0,.72Zm.82-1.75a2.58,2.58,0,0,0,0,.29,1.23,1.23,0,0,0,1.19.92c.83,0,1.33-.67,1.33-1.67s-.46-1.62-1.3-1.62a1.27,1.27,0,0,0-1.21,1,1.49,1.49,0,0,0,0,.33Z"/><path class="cls-33" d="M73,274.94l1,2.57c.1.29.21.63.28.89h0c.08-.26.17-.59.28-.9l.86-2.56h.84L75,278a6.54,6.54,0,0,1-1.49,2.73,2.25,2.25,0,0,1-1,.52l-.2-.67a2,2,0,0,0,.69-.39,2.39,2.39,0,0,0,.67-.88.67.67,0,0,0,.06-.19,1,1,0,0,0-.05-.21l-1.61-4Z"/><path class="cls-33" d="M78.88,273.23h.78v2.92h0c.16-.23.32-.45.47-.64L82,273.23h1l-2.2,2.57,2.37,3.5h-.93l-2-3-.57.66v2.32h-.78Z"/><path class="cls-33" d="M86.28,279.3l-.06-.55h0a1.62,1.62,0,0,1-1.33.64,1.24,1.24,0,0,1-1.33-1.25c0-1.05.93-1.63,2.62-1.62v-.09a.9.9,0,0,0-1-1,2.17,2.17,0,0,0-1.14.33l-.18-.52a2.67,2.67,0,0,1,1.43-.39c1.34,0,1.66.91,1.66,1.78v1.63A6.68,6.68,0,0,0,87,279.3Zm-.11-2.23c-.87,0-1.85.14-1.85,1a.7.7,0,0,0,.75.76,1.07,1.07,0,0,0,1.05-.73.74.74,0,0,0,0-.25Z"/><path class="cls-33" d="M89.13,273.69v1.25h1.13v.6H89.13v2.35c0,.54.15.85.59.85a1.59,1.59,0,0,0,.46-.06l0,.6a2.06,2.06,0,0,1-.71.11,1.08,1.08,0,0,1-.85-.34,1.58,1.58,0,0,1-.31-1.13v-2.38h-.67v-.6h.67v-1.05Z"/><path class="cls-33" d="M91.15,272.9h.79v2.72h0a1.61,1.61,0,0,1,.57-.56,1.66,1.66,0,0,1,.81-.22c.58,0,1.52.36,1.52,1.86v2.6h-.79v-2.51c0-.7-.26-1.29-1-1.29a1.14,1.14,0,0,0-1.06.79.87.87,0,0,0-.06.38v2.63h-.79Z"/><path class="cls-33" d="M96.59,277.26a1.39,1.39,0,0,0,1.49,1.51,3,3,0,0,0,1.21-.22l.13.57a3.61,3.61,0,0,1-1.45.27,2,2,0,0,1-2.14-2.2,2.12,2.12,0,0,1,2-2.35,1.85,1.85,0,0,1,1.8,2.05,2.73,2.73,0,0,1,0,.37Zm2.32-.57a1.13,1.13,0,0,0-1.1-1.28,1.3,1.3,0,0,0-1.21,1.28Z"/><path class="cls-33" d="M100.66,276.3c0-.51,0-1,0-1.36h.69l0,.85h0a1.3,1.3,0,0,1,1.2-1,.85.85,0,0,1,.23,0v.74l-.27,0a1.12,1.12,0,0,0-1.07,1c0,.11,0,.24,0,.37v2.33h-.78Z"/><path class="cls-33" d="M104.52,273.71a.49.49,0,1,1-1,0,.48.48,0,0,1,.49-.49A.47.47,0,0,1,104.52,273.71Zm-.89,5.59v-4.36h.8v4.36Z"/><path class="cls-33" d="M105.74,276.12c0-.45,0-.82,0-1.18h.71l0,.72h0a1.62,1.62,0,0,1,1.44-.82c.6,0,1.54.36,1.54,1.85v2.61h-.79v-2.52c0-.7-.26-1.28-1-1.28a1.12,1.12,0,0,0-1.06.81,1,1,0,0,0-.06.37v2.62h-.79Z"/><path class="cls-33" d="M111.18,277.26a1.39,1.39,0,0,0,1.49,1.51,3,3,0,0,0,1.21-.22l.13.57a3.61,3.61,0,0,1-1.45.27,2,2,0,0,1-2.14-2.2,2.11,2.11,0,0,1,2-2.35,1.84,1.84,0,0,1,1.8,2.05,3.12,3.12,0,0,1,0,.37Zm2.32-.57a1.13,1.13,0,0,0-1.1-1.28,1.3,1.3,0,0,0-1.21,1.28Z"/><path class="cls-33" d="M117.18,273.31a7.68,7.68,0,0,1,1.43-.13,2.57,2.57,0,0,1,1.67.44,1.3,1.3,0,0,1,.5,1.08,1.45,1.45,0,0,1-1,1.33v0a1.55,1.55,0,0,1,1.25,1.52,1.6,1.6,0,0,1-.51,1.21,3,3,0,0,1-2.1.57,10.31,10.31,0,0,1-1.21-.07Zm.78,2.48h.71c.83,0,1.32-.43,1.32-1s-.54-1-1.33-1a3.28,3.28,0,0,0-.7,0Zm0,2.91a3.85,3.85,0,0,0,.66,0c.81,0,1.56-.3,1.56-1.18s-.71-1.17-1.57-1.17H118Z"/><path class="cls-33" d="M122,272.9h.79v6.4H122Z"/><path class="cls-33" d="M126.57,279.3l-.07-.55h0a1.64,1.64,0,0,1-1.34.64,1.24,1.24,0,0,1-1.33-1.25c0-1.05.94-1.63,2.62-1.62v-.09a.9.9,0,0,0-1-1,2.14,2.14,0,0,0-1.13.33l-.18-.52a2.64,2.64,0,0,1,1.43-.39c1.33,0,1.65.91,1.65,1.78v1.63a5.6,5.6,0,0,0,.08,1.05Zm-.12-2.23c-.87,0-1.85.14-1.85,1a.71.71,0,0,0,.75.76,1.07,1.07,0,0,0,1.05-.73.74.74,0,0,0,0-.25Z"/><path class="cls-33" d="M128.38,278.49a2.14,2.14,0,0,0,1.05.31c.57,0,.84-.29.84-.65s-.22-.58-.81-.8c-.78-.28-1.15-.71-1.15-1.23a1.35,1.35,0,0,1,1.5-1.28,2.25,2.25,0,0,1,1.08.27l-.2.58a1.68,1.68,0,0,0-.89-.26c-.47,0-.73.27-.73.6s.26.52.83.74c.75.28,1.14.66,1.14,1.31s-.59,1.31-1.63,1.31a2.44,2.44,0,0,1-1.22-.3Z"/><path class="cls-33" d="M132.06,276.12c0-.45,0-.82,0-1.18h.69l0,.7h0a1.49,1.49,0,0,1,1.36-.8,1.29,1.29,0,0,1,1.24.87h0a1.67,1.67,0,0,1,.48-.56,1.48,1.48,0,0,1,1-.31c.57,0,1.43.38,1.43,1.89v2.57h-.78v-2.47c0-.84-.3-1.34-.94-1.34a1,1,0,0,0-.94.72,1.18,1.18,0,0,0-.06.39v2.7h-.78v-2.61c0-.7-.3-1.2-.91-1.2a1.08,1.08,0,0,0-1,.79,1.23,1.23,0,0,0-.06.39v2.63h-.77Z"/><path class="cls-33" d="M142,279.3l-.06-.55h0a1.62,1.62,0,0,1-1.33.64,1.24,1.24,0,0,1-1.33-1.25c0-1.05.94-1.63,2.62-1.62v-.09a.9.9,0,0,0-1-1,2.17,2.17,0,0,0-1.14.33l-.18-.52a2.68,2.68,0,0,1,1.44-.39c1.33,0,1.65.91,1.65,1.78v1.63a6.68,6.68,0,0,0,.07,1.05Zm-.11-2.23c-.87,0-1.85.14-1.85,1a.7.7,0,0,0,.75.76,1.07,1.07,0,0,0,1.05-.73.74.74,0,0,0,.05-.25Z"/><path class="cls-33" d="M143.9,276.12c0-.45,0-.82,0-1.18h.71l0,.72h0a1.6,1.6,0,0,1,1.44-.82c.6,0,1.54.36,1.54,1.85v2.61h-.79v-2.52c0-.7-.26-1.28-1-1.28a1.12,1.12,0,0,0-1.06.81,1,1,0,0,0-.06.37v2.62h-.79Z"/><path class="cls-33" d="M148.71,278.83a.54.54,0,1,1,1.07,0,.54.54,0,1,1-1.07,0Z"/><path class="cls-33" d="M152.69,273.23H156v.66h-2.48v2h2.29v.65h-2.29v2.75h-.79Z"/><path class="cls-33" d="M160.71,277.08a2.12,2.12,0,0,1-2.17,2.31,2.07,2.07,0,0,1-2.09-2.24,2.13,2.13,0,0,1,2.16-2.31A2.06,2.06,0,0,1,160.71,277.08Zm-3.45.05c0,.95.54,1.67,1.32,1.67s1.32-.71,1.32-1.69c0-.74-.37-1.68-1.3-1.68S157.26,276.3,157.26,277.13Z"/><path class="cls-33" d="M161.71,276.3c0-.51,0-1,0-1.36h.7l0,.85h0a1.32,1.32,0,0,1,1.21-1,.73.73,0,0,1,.22,0v.74l-.27,0a1.11,1.11,0,0,0-1.06,1,2.1,2.1,0,0,0,0,.37v2.33h-.78Z"/><path class="cls-33" d="M166.56,276.12c0-.45,0-.82,0-1.18h.7l0,.7h0a1.51,1.51,0,0,1,1.37-.8,1.29,1.29,0,0,1,1.23.87h0a1.81,1.81,0,0,1,.49-.56,1.47,1.47,0,0,1,1-.31c.58,0,1.43.38,1.43,1.89v2.57H172v-2.47c0-.84-.31-1.34-.95-1.34a1,1,0,0,0-.93.72,1.18,1.18,0,0,0-.07.39v2.7h-.77v-2.61c0-.7-.31-1.2-.91-1.2a1.06,1.06,0,0,0-1,.79,1,1,0,0,0-.07.39v2.63h-.77Z"/><path class="cls-33" d="M178,277.08a2.13,2.13,0,0,1-2.17,2.31,2.07,2.07,0,0,1-2.09-2.24,2.13,2.13,0,0,1,2.16-2.31A2.07,2.07,0,0,1,178,277.08Zm-3.46.05c0,.95.55,1.67,1.33,1.67s1.32-.71,1.32-1.69c0-.74-.37-1.68-1.31-1.68S174.55,276.3,174.55,277.13Z"/><path class="cls-33" d="M179,276.3c0-.51,0-1,0-1.36h.69l0,.85h0a1.31,1.31,0,0,1,1.2-1,.8.8,0,0,1,.23,0v.74l-.27,0a1.1,1.1,0,0,0-1.06,1,2.1,2.1,0,0,0,0,.37v2.33H179Z"/><path class="cls-33" d="M182.3,277.26a1.4,1.4,0,0,0,1.5,1.51,2.94,2.94,0,0,0,1.2-.22l.14.57a3.65,3.65,0,0,1-1.45.27,2,2,0,0,1-2.14-2.2,2.11,2.11,0,0,1,2-2.35,1.85,1.85,0,0,1,1.8,2.05,2.73,2.73,0,0,1,0,.37Zm2.32-.57a1.12,1.12,0,0,0-1.09-1.28,1.3,1.3,0,0,0-1.22,1.28Z"/><path class="cls-33" d="M39.13,283.7V289c0,.39,0,.83,0,1.13h-.71l0-.76h0a1.62,1.62,0,0,1-1.49.85A2,2,0,0,1,35.05,288a2.08,2.08,0,0,1,2-2.34,1.42,1.42,0,0,1,1.31.67h0V283.7Zm-.8,3.81a1.84,1.84,0,0,0,0-.33,1.17,1.17,0,0,0-1.15-.92c-.82,0-1.3.72-1.3,1.68s.43,1.62,1.29,1.62a1.2,1.2,0,0,0,1.16-.95,1.87,1.87,0,0,0,0-.34Z"/><path class="cls-33" d="M40.88,288.06a1.39,1.39,0,0,0,1.49,1.51,3,3,0,0,0,1.21-.22l.14.57a3.65,3.65,0,0,1-1.45.27,2,2,0,0,1-2.15-2.2,2.12,2.12,0,0,1,2.05-2.35,1.85,1.85,0,0,1,1.8,2.05,2.73,2.73,0,0,1,0,.37Zm2.32-.57a1.12,1.12,0,0,0-1.1-1.28,1.3,1.3,0,0,0-1.21,1.28Z"/><path class="cls-33" d="M45.9,284.49v1.25H47v.6H45.9v2.35c0,.54.15.85.6.85a1.65,1.65,0,0,0,.46-.06l0,.6a2,2,0,0,1-.7.11,1.1,1.1,0,0,1-.86-.34,1.63,1.63,0,0,1-.3-1.13v-2.38h-.68v-.6h.68v-1.05Z"/><path class="cls-33" d="M50.34,290.1l-.06-.55h0a1.62,1.62,0,0,1-1.33.64,1.24,1.24,0,0,1-1.34-1.25c0-1.05.94-1.63,2.62-1.62v-.09a.9.9,0,0,0-1-1,2.17,2.17,0,0,0-1.13.33L47.9,286a2.64,2.64,0,0,1,1.43-.39c1.33,0,1.66.91,1.66,1.78v1.63a6.68,6.68,0,0,0,.07,1.05Zm-.12-2.23c-.86,0-1.84.14-1.84,1a.7.7,0,0,0,.74.76,1,1,0,0,0,1.1-1Z"/><path class="cls-33" d="M53.15,284.51a.49.49,0,1,1-1,0,.48.48,0,0,1,.49-.49A.47.47,0,0,1,53.15,284.51Zm-.89,5.59v-4.36h.8v4.36Z"/><path class="cls-33" d="M54.37,283.7h.79v6.4h-.79Z"/><path class="cls-33" d="M56.39,289.29a2.06,2.06,0,0,0,1,.31c.58,0,.85-.29.85-.65s-.23-.58-.81-.8c-.79-.28-1.16-.71-1.16-1.23a1.35,1.35,0,0,1,1.51-1.28,2.21,2.21,0,0,1,1.07.27l-.2.58a1.68,1.68,0,0,0-.89-.26c-.47,0-.73.27-.73.6s.26.52.83.74c.75.28,1.14.66,1.14,1.31s-.59,1.31-1.63,1.31a2.47,2.47,0,0,1-1.22-.3Z"/><path class="cls-33" d="M64.38,290.1l-.06-.55h0a1.62,1.62,0,0,1-1.33.64,1.24,1.24,0,0,1-1.34-1.25c0-1.05.94-1.63,2.62-1.62v-.09a.9.9,0,0,0-1-1,2.14,2.14,0,0,0-1.13.33l-.18-.52a2.64,2.64,0,0,1,1.43-.39c1.33,0,1.66.91,1.66,1.78v1.63a5.66,5.66,0,0,0,.07,1.05Zm-.12-2.23c-.86,0-1.84.14-1.84,1a.7.7,0,0,0,.74.76,1,1,0,0,0,1.1-1Z"/><path class="cls-33" d="M66.3,286.92c0-.45,0-.82,0-1.18H67l0,.72h0a1.6,1.6,0,0,1,1.44-.82c.61,0,1.54.36,1.54,1.85v2.61h-.79v-2.52c0-.7-.26-1.28-1-1.28a1.13,1.13,0,0,0-1.06.81,1,1,0,0,0-.05.37v2.62h-.8Z"/><path class="cls-33" d="M75.06,283.7V289c0,.39,0,.83,0,1.13h-.71l0-.76h0a1.59,1.59,0,0,1-1.48.85A2,2,0,0,1,71,288a2.09,2.09,0,0,1,2-2.34,1.44,1.44,0,0,1,1.31.67h0V283.7Zm-.79,3.81a1.24,1.24,0,0,0,0-.33,1.15,1.15,0,0,0-1.14-.92c-.82,0-1.3.72-1.3,1.68s.43,1.62,1.28,1.62a1.2,1.2,0,0,0,1.16-.95,1.27,1.27,0,0,0,0-.34Z"/><path class="cls-33" d="M78.28,283.7h.79v6.4h-.79Z"/><path class="cls-33" d="M80.85,288.06a1.39,1.39,0,0,0,1.49,1.51,3,3,0,0,0,1.21-.22l.13.57a3.61,3.61,0,0,1-1.45.27,2,2,0,0,1-2.14-2.2,2.12,2.12,0,0,1,2-2.35,1.85,1.85,0,0,1,1.8,2.05,2.73,2.73,0,0,1,0,.37Zm2.32-.57a1.13,1.13,0,0,0-1.1-1.28,1.3,1.3,0,0,0-1.21,1.28Z"/><path class="cls-33" d="M88.67,285.74c0,.31,0,.66,0,1.2v2.53a2.5,2.5,0,0,1-.62,2,2.32,2.32,0,0,1-1.58.52,2.86,2.86,0,0,1-1.45-.36l.2-.61a2.44,2.44,0,0,0,1.28.35c.81,0,1.4-.43,1.4-1.53v-.48h0a1.56,1.56,0,0,1-1.38.73A2,2,0,0,1,84.6,288a2.09,2.09,0,0,1,2-2.31,1.45,1.45,0,0,1,1.36.76h0l0-.66Zm-.82,1.72a1.32,1.32,0,0,0,0-.36,1.16,1.16,0,0,0-1.11-.84c-.76,0-1.3.64-1.3,1.65,0,.85.43,1.56,1.29,1.56a1.15,1.15,0,0,0,1.1-.81,1.47,1.47,0,0,0,.06-.42Z"/><path class="cls-33" d="M92.36,290.1l-.06-.55h0a1.62,1.62,0,0,1-1.33.64,1.24,1.24,0,0,1-1.34-1.25c0-1.05.94-1.63,2.62-1.62v-.09a.9.9,0,0,0-1-1,2.17,2.17,0,0,0-1.13.33l-.18-.52a2.64,2.64,0,0,1,1.43-.39c1.33,0,1.66.91,1.66,1.78v1.63a6.68,6.68,0,0,0,.07,1.05Zm-.12-2.23c-.86,0-1.84.14-1.84,1a.7.7,0,0,0,.74.76,1,1,0,0,0,1.1-1Z"/><path class="cls-33" d="M94.28,283.7h.8v6.4h-.8Z"/><path class="cls-33" d="M98.32,286.92c0-.45,0-.82,0-1.18H99l0,.72h0a1.61,1.61,0,0,1,1.45-.82c.6,0,1.53.36,1.53,1.85v2.61h-.79v-2.52c0-.7-.26-1.28-1-1.28a1.13,1.13,0,0,0-1.06.81,1.32,1.32,0,0,0,0,.37v2.62h-.79Z"/><path class="cls-33" d="M107.25,287.88a2.12,2.12,0,0,1-2.17,2.31A2.07,2.07,0,0,1,103,288a2.12,2.12,0,0,1,2.16-2.31A2.06,2.06,0,0,1,107.25,287.88Zm-3.45.05c0,.95.55,1.67,1.32,1.67s1.32-.71,1.32-1.69c0-.74-.37-1.68-1.3-1.68S103.8,287.1,103.8,287.93Z"/><path class="cls-33" d="M109.21,284.49v1.25h1.13v.6h-1.13v2.35c0,.54.15.85.59.85a1.59,1.59,0,0,0,.46-.06l0,.6a2.06,2.06,0,0,1-.71.11,1.08,1.08,0,0,1-.85-.34,1.58,1.58,0,0,1-.31-1.13v-2.38h-.67v-.6h.67v-1.05Z"/><path class="cls-33" d="M112.11,284.51a.47.47,0,0,1-.5.49.48.48,0,0,1-.48-.49.49.49,0,0,1,.5-.49A.47.47,0,0,1,112.11,284.51Zm-.88,5.59v-4.36H112v4.36Z"/><path class="cls-33" d="M116.44,289.93a2.81,2.81,0,0,1-1.25.26A2.08,2.08,0,0,1,113,288a2.21,2.21,0,0,1,2.34-2.31,2.82,2.82,0,0,1,1.1.22l-.18.62a1.83,1.83,0,0,0-.92-.21,1.64,1.64,0,0,0,0,3.28,2.24,2.24,0,0,0,1-.22Z"/><path class="cls-33" d="M117.76,288.06a1.39,1.39,0,0,0,1.49,1.51,3,3,0,0,0,1.21-.22l.13.57a3.61,3.61,0,0,1-1.45.27A2,2,0,0,1,117,288a2.11,2.11,0,0,1,2-2.35,1.84,1.84,0,0,1,1.8,2.05,3.12,3.12,0,0,1,0,.37Zm2.32-.57a1.13,1.13,0,0,0-1.1-1.28,1.3,1.3,0,0,0-1.21,1.28Z"/><path class="cls-33" d="M121.72,289.29a2.06,2.06,0,0,0,1,.31c.58,0,.85-.29.85-.65s-.23-.58-.81-.8c-.79-.28-1.16-.71-1.16-1.23a1.35,1.35,0,0,1,1.51-1.28,2.21,2.21,0,0,1,1.07.27l-.2.58a1.68,1.68,0,0,0-.89-.26c-.47,0-.73.27-.73.6s.26.52.83.74c.75.28,1.14.66,1.14,1.31s-.59,1.31-1.63,1.31a2.44,2.44,0,0,1-1.22-.3Z"/><path class="cls-33" d="M124.78,291.2a13.78,13.78,0,0,0,.54-2.15l.88-.09a10.51,10.51,0,0,1-.86,2.19Z"/><path class="cls-33" d="M132.81,285.74c0,.31,0,.66,0,1.2v2.53a2.53,2.53,0,0,1-.62,2,2.36,2.36,0,0,1-1.59.52,2.86,2.86,0,0,1-1.45-.36l.2-.61a2.47,2.47,0,0,0,1.28.35c.81,0,1.4-.43,1.4-1.53v-.48h0a1.59,1.59,0,0,1-1.39.73,2,2,0,0,1-1.86-2.13,2.1,2.1,0,0,1,2-2.31,1.46,1.46,0,0,1,1.36.76h0l0-.66Zm-.82,1.72a1,1,0,0,0,0-.36,1.14,1.14,0,0,0-1.11-.84c-.75,0-1.29.64-1.29,1.65,0,.85.43,1.56,1.28,1.56a1.15,1.15,0,0,0,1.1-.81,1.19,1.19,0,0,0,.06-.42Z"/><path class="cls-33" d="M138,287.88a2.12,2.12,0,0,1-2.17,2.31,2.06,2.06,0,0,1-2.08-2.24,2.12,2.12,0,0,1,2.16-2.31A2.06,2.06,0,0,1,138,287.88Zm-3.45.05c0,.95.55,1.67,1.32,1.67s1.32-.71,1.32-1.69c0-.74-.37-1.68-1.3-1.68S134.58,287.1,134.58,287.93Z"/><path class="cls-33" d="M141.89,284.49v1.25H143v.6h-1.14v2.35c0,.54.16.85.6.85a1.65,1.65,0,0,0,.46-.06l0,.6a2,2,0,0,1-.7.11,1.06,1.06,0,0,1-.85-.34,1.58,1.58,0,0,1-.31-1.13v-2.38h-.68v-.6h.68v-1.05Z"/><path class="cls-33" d="M147.81,287.88a2.13,2.13,0,0,1-2.17,2.31,2.07,2.07,0,0,1-2.09-2.24,2.12,2.12,0,0,1,2.16-2.31A2.07,2.07,0,0,1,147.81,287.88Zm-3.46.05c0,.95.55,1.67,1.32,1.67s1.33-.71,1.33-1.69c0-.74-.37-1.68-1.31-1.68S144.35,287.1,144.35,287.93Z"/><path class="cls-33" d="M151.67,284.49v1.25h1.13v.6h-1.13v2.35c0,.54.15.85.59.85a1.59,1.59,0,0,0,.46-.06l0,.6a2.06,2.06,0,0,1-.71.11,1.08,1.08,0,0,1-.85-.34,1.58,1.58,0,0,1-.31-1.13v-2.38h-.67v-.6h.67v-1.05Z"/><path class="cls-33" d="M153.69,283.7h.79v2.72h0a1.61,1.61,0,0,1,.57-.56,1.66,1.66,0,0,1,.81-.22c.58,0,1.52.36,1.52,1.86v2.6h-.79v-2.51c0-.7-.26-1.29-1-1.29a1.14,1.14,0,0,0-1.06.79.87.87,0,0,0-.06.38v2.63h-.79Z"/><path class="cls-33" d="M159.13,288.06a1.39,1.39,0,0,0,1.49,1.51,3,3,0,0,0,1.21-.22l.13.57a3.61,3.61,0,0,1-1.45.27,2,2,0,0,1-2.14-2.2,2.12,2.12,0,0,1,2-2.35,1.85,1.85,0,0,1,1.8,2.05,2.73,2.73,0,0,1,0,.37Zm2.32-.57a1.13,1.13,0,0,0-1.1-1.28,1.3,1.3,0,0,0-1.21,1.28Z"/><path class="cls-33" d="M166.11,288.19l-.63,1.91h-.81l2.06-6.07h1l2.07,6.07h-.84l-.65-1.91Zm2-.61-.59-1.75c-.14-.4-.23-.76-.32-1.11h0c-.09.36-.19.73-.3,1.1l-.6,1.76Z"/><path class="cls-33" d="M170.55,290.1c0-.3,0-.74,0-1.13V283.7h.79v2.74h0a1.6,1.6,0,0,1,1.48-.8,2,2,0,0,1,1.84,2.22,2.07,2.07,0,0,1-2,2.33,1.56,1.56,0,0,1-1.46-.81h0l0,.72Zm.82-1.75a2.58,2.58,0,0,0,0,.29,1.23,1.23,0,0,0,1.19.92c.83,0,1.33-.67,1.33-1.67s-.46-1.62-1.3-1.62a1.27,1.27,0,0,0-1.21,1,1.49,1.49,0,0,0,0,.33Z"/><path class="cls-33" d="M179.65,287.88a2.13,2.13,0,0,1-2.17,2.31,2.07,2.07,0,0,1-2.09-2.24,2.12,2.12,0,0,1,2.16-2.31A2.07,2.07,0,0,1,179.65,287.88Zm-3.46.05c0,.95.55,1.67,1.32,1.67s1.33-.71,1.33-1.69c0-.74-.37-1.68-1.31-1.68S176.19,287.1,176.19,287.93Z"/><path class="cls-33" d="M184.29,288.91c0,.45,0,.84,0,1.19h-.7l0-.72h0a1.6,1.6,0,0,1-1.44.81c-.68,0-1.5-.37-1.5-1.9v-2.55h.79v2.41c0,.83.25,1.39,1,1.39a1.16,1.16,0,0,0,1.05-.72,1.3,1.3,0,0,0,.07-.41v-2.67h.79Z"/><path class="cls-33" d="M186.56,284.49v1.25h1.13v.6h-1.13v2.35c0,.54.15.85.59.85a1.59,1.59,0,0,0,.46-.06l0,.6a2,2,0,0,1-.7.11,1.1,1.1,0,0,1-.86-.34,1.63,1.63,0,0,1-.3-1.13v-2.38h-.68v-.6h.68v-1.05Z"/><path class="cls-33" d="M36.17,294.83v6.07h-.78v-6.07Z"/><path class="cls-33" d="M37.6,294.5h.8v6.4h-.8Z"/><path class="cls-33" d="M39.73,294.5h.79v6.4h-.79Z"/><path class="cls-33" d="M45.5,299.71c0,.45,0,.84,0,1.19h-.7l0-.71h0a1.65,1.65,0,0,1-1.44.81c-.69,0-1.51-.38-1.51-1.91v-2.55h.8V299c0,.83.25,1.39,1,1.39a1.14,1.14,0,0,0,1-.72,1.07,1.07,0,0,0,.08-.41v-2.67h.79Z"/><path class="cls-33" d="M46.7,300.09a2.14,2.14,0,0,0,1,.31c.57,0,.84-.29.84-.65s-.22-.58-.81-.8c-.78-.28-1.15-.71-1.15-1.23a1.35,1.35,0,0,1,1.5-1.28,2.21,2.21,0,0,1,1.07.27l-.19.58a1.68,1.68,0,0,0-.89-.26c-.47,0-.73.27-.73.6s.26.52.82.74c.76.29,1.15.66,1.15,1.31s-.6,1.31-1.63,1.31a2.51,2.51,0,0,1-1.23-.3Z"/><path class="cls-33" d="M51.33,295.29v1.25h1.13v.6H51.33v2.35c0,.54.15.85.59.85a1.59,1.59,0,0,0,.46-.06l0,.6a2,2,0,0,1-.7.11,1.1,1.1,0,0,1-.86-.34,1.63,1.63,0,0,1-.31-1.13v-2.38h-.67v-.6h.67v-1Z"/><path class="cls-33" d="M53.35,297.9c0-.51,0-1,0-1.36H54l0,.85h0a1.32,1.32,0,0,1,1.21-.95.73.73,0,0,1,.22,0v.74l-.27,0a1.11,1.11,0,0,0-1.06,1,1.94,1.94,0,0,0,0,.36v2.33h-.79Z"/><path class="cls-33" d="M58.66,300.9l-.06-.55h0a1.62,1.62,0,0,1-1.33.65,1.25,1.25,0,0,1-1.33-1.26c0-1.05.94-1.63,2.62-1.62V298a.89.89,0,0,0-1-1,2.17,2.17,0,0,0-1.14.32l-.18-.52a2.68,2.68,0,0,1,1.44-.39c1.33,0,1.65.91,1.65,1.78v1.63a6.68,6.68,0,0,0,.07,1Zm-.11-2.23c-.87,0-1.85.14-1.85,1a.7.7,0,0,0,.75.76,1.07,1.07,0,0,0,1-.73.74.74,0,0,0,0-.25Z"/><path class="cls-33" d="M61.51,295.29v1.25h1.13v.6H61.51v2.35c0,.54.15.85.59.85a1.59,1.59,0,0,0,.46-.06l0,.6a2.06,2.06,0,0,1-.71.11,1.09,1.09,0,0,1-.85-.34,1.58,1.58,0,0,1-.31-1.13v-2.38h-.67v-.6h.67v-1Z"/><path class="cls-33" d="M67.42,298.68A2.14,2.14,0,0,1,65.25,301a2.08,2.08,0,0,1-2.09-2.25,2.13,2.13,0,0,1,2.16-2.31A2.07,2.07,0,0,1,67.42,298.68Zm-3.46.05c0,.95.55,1.67,1.33,1.67s1.32-.71,1.32-1.69c0-.74-.37-1.68-1.3-1.68S64,297.9,64,298.73Z"/><path class="cls-33" d="M68.42,297.9c0-.51,0-1,0-1.36h.7l0,.85h0a1.31,1.31,0,0,1,1.21-.95.73.73,0,0,1,.22,0v.74l-.27,0a1.11,1.11,0,0,0-1.06,1,1.88,1.88,0,0,0,0,.36v2.33h-.78Z"/><path class="cls-33" d="M73.19,299.94a2.72,2.72,0,0,0,1.4.4c.8,0,1.27-.42,1.27-1s-.32-.89-1.14-1.2c-1-.35-1.6-.87-1.6-1.72a1.74,1.74,0,0,1,2-1.65,2.67,2.67,0,0,1,1.34.3l-.22.64a2.35,2.35,0,0,0-1.15-.29c-.83,0-1.14.49-1.14.91s.37.84,1.21,1.17c1,.39,1.54.89,1.54,1.78S76,301,74.54,301A3.07,3.07,0,0,1,73,300.6Z"/><path class="cls-33" d="M80.87,300.73a2.89,2.89,0,0,1-1.25.26,2.07,2.07,0,0,1-2.17-2.23,2.21,2.21,0,0,1,2.34-2.31,2.76,2.76,0,0,1,1.09.22l-.18.62a1.76,1.76,0,0,0-.91-.21,1.51,1.51,0,0,0-1.54,1.65,1.49,1.49,0,0,0,1.51,1.63,2.2,2.2,0,0,0,1-.22Z"/><path class="cls-33" d="M81.79,297.9c0-.51,0-1,0-1.36h.69l0,.85h0a1.32,1.32,0,0,1,1.21-.95.73.73,0,0,1,.22,0v.74l-.27,0a1.11,1.11,0,0,0-1.06,1,1.94,1.94,0,0,0,0,.36v2.33h-.79Z"/><path class="cls-33" d="M85.09,298.86a1.39,1.39,0,0,0,1.49,1.51,2.83,2.83,0,0,0,1.21-.22l.13.57a3.61,3.61,0,0,1-1.45.27,2,2,0,0,1-2.14-2.2,2.11,2.11,0,0,1,2-2.35,1.84,1.84,0,0,1,1.8,2.05,3,3,0,0,1,0,.37Zm2.32-.57a1.13,1.13,0,0,0-1.1-1.28,1.31,1.31,0,0,0-1.21,1.28Z"/><path class="cls-33" d="M89.59,298.86a1.4,1.4,0,0,0,1.5,1.51,2.83,2.83,0,0,0,1.21-.22l.13.57A3.65,3.65,0,0,1,91,301a2,2,0,0,1-2.14-2.2,2.11,2.11,0,0,1,2-2.35,1.85,1.85,0,0,1,1.8,2.05,3,3,0,0,1,0,.37Zm2.33-.57a1.13,1.13,0,0,0-1.1-1.28,1.32,1.32,0,0,0-1.22,1.28Z"/><path class="cls-33" d="M93.66,297.72c0-.45,0-.82,0-1.18h.7l0,.72h0a1.62,1.62,0,0,1,1.44-.82c.61,0,1.54.36,1.54,1.85v2.61h-.79v-2.52c0-.7-.26-1.28-1-1.28a1.12,1.12,0,0,0-1.06.81,1,1,0,0,0-.06.37v2.62h-.79Z"/><path class="cls-33" d="M98.47,300.43A.54.54,0,1,1,99,301,.53.53,0,0,1,98.47,300.43Z"/><path class="cls-33" d="M36.17,316.43v6.07h-.78v-6.07Z"/><path class="cls-33" d="M37.6,319.32c0-.45,0-.82,0-1.18h.7l0,.72h0a1.62,1.62,0,0,1,1.44-.82c.61,0,1.54.36,1.54,1.85v2.61h-.79V320c0-.7-.26-1.28-1-1.28a1.12,1.12,0,0,0-1.06.81,1,1,0,0,0-.05.37v2.62h-.8Z"/><path class="cls-33" d="M43.48,316.91a.47.47,0,0,1-.5.49.48.48,0,0,1-.48-.49.48.48,0,0,1,.49-.49A.47.47,0,0,1,43.48,316.91Zm-.88,5.59v-4.36h.79v4.36Z"/><path class="cls-33" d="M45.66,316.89v1.25h1.13v.6H45.66v2.35c0,.54.15.85.59.85a1.59,1.59,0,0,0,.46-.06l0,.6a2,2,0,0,1-.7.11,1.1,1.1,0,0,1-.86-.34,1.63,1.63,0,0,1-.31-1.13v-2.38h-.67v-.6h.67v-1.05Z"/><path class="cls-33" d="M48.57,316.91a.5.5,0,0,1-1,0,.49.49,0,0,1,.5-.49A.47.47,0,0,1,48.57,316.91Zm-.89,5.59v-4.36h.8v4.36Z"/><path class="cls-33" d="M52.2,322.5l-.06-.55h0a1.62,1.62,0,0,1-1.33.64,1.24,1.24,0,0,1-1.33-1.25c0-1,.93-1.63,2.62-1.62v-.09a.9.9,0,0,0-1-1,2.17,2.17,0,0,0-1.14.33l-.18-.52a2.64,2.64,0,0,1,1.43-.39c1.34,0,1.66.91,1.66,1.78v1.63a6.68,6.68,0,0,0,.07,1.05Zm-.12-2.23c-.86,0-1.84.14-1.84,1A.7.7,0,0,0,51,322a1.09,1.09,0,0,0,1-.73.73.73,0,0,0,0-.25Z"/><path class="cls-33" d="M54.13,316.1h.79v6.4h-.79Z"/><path class="cls-33" d="M57.13,316.91a.47.47,0,0,1-.5.49.48.48,0,0,1-.48-.49.49.49,0,0,1,.5-.49A.47.47,0,0,1,57.13,316.91Zm-.88,5.59v-4.36H57v4.36Z"/><path class="cls-33" d="M57.86,322l2-2.57.57-.67v0H58v-.64h3.32v.49l-1.94,2.53c-.18.25-.36.46-.56.69v0H61.4v.63H57.86Z"/><path class="cls-33" d="M63.09,316.91a.47.47,0,0,1-.5.49.48.48,0,0,1-.48-.49.48.48,0,0,1,.49-.49A.47.47,0,0,1,63.09,316.91Zm-.88,5.59v-4.36H63v4.36Z"/><path class="cls-33" d="M64.31,319.32c0-.45,0-.82,0-1.18H65l0,.72h0a1.62,1.62,0,0,1,1.44-.82c.61,0,1.54.36,1.54,1.85v2.61h-.79V320c0-.7-.26-1.28-1-1.28a1.13,1.13,0,0,0-1.06.81,1,1,0,0,0,0,.37v2.62h-.8Z"/><path class="cls-33" d="M73.06,318.14c0,.31,0,.66,0,1.2v2.53a2.52,2.52,0,0,1-.62,2,2.36,2.36,0,0,1-1.59.52,2.86,2.86,0,0,1-1.45-.36l.2-.61a2.47,2.47,0,0,0,1.28.35c.81,0,1.4-.43,1.4-1.52v-.49h0a1.59,1.59,0,0,1-1.39.73A2,2,0,0,1,69,320.35,2.09,2.09,0,0,1,71,318a1.46,1.46,0,0,1,1.36.76h0l0-.66Zm-.81,1.72a1,1,0,0,0,0-.36,1.14,1.14,0,0,0-1.11-.84c-.75,0-1.29.64-1.29,1.65,0,.85.43,1.57,1.28,1.57a1.16,1.16,0,0,0,1.1-.82,1.2,1.2,0,0,0,.07-.42Z"/><path class="cls-33" d="M74,322a.54.54,0,1,1,1.07,0A.54.54,0,1,1,74,322Z"/><path class="cls-33" d="M75.88,322A.54.54,0,1,1,77,322a.54.54,0,1,1-1.07,0Z"/><path class="cls-33" d="M77.74,322a.54.54,0,0,1,.54-.57.53.53,0,0,1,.53.57.52.52,0,0,1-.54.56A.53.53,0,0,1,77.74,322Z"/><path class="cls-33" d="M38.14,137.27l-.84,2.54H36.22L39,131.72h1.26L43,139.81H41.87L41,137.27Zm2.65-.82L40,134.12c-.18-.52-.3-1-.42-1.47h0c-.12.48-.25,1-.41,1.46l-.79,2.34Z"/><path class="cls-33" d="M49,131.29v7c0,.51,0,1.1.05,1.5h-1l0-1h0a2.14,2.14,0,0,1-2,1.14c-1.4,0-2.48-1.19-2.48-2.95,0-1.93,1.19-3.12,2.6-3.12a1.93,1.93,0,0,1,1.75.89h0v-3.47Zm-1,5.08a2.22,2.22,0,0,0-.05-.45,1.55,1.55,0,0,0-1.52-1.22c-1.1,0-1.74,1-1.74,2.24s.57,2.15,1.71,2.15a1.59,1.59,0,0,0,1.55-1.26,2.24,2.24,0,0,0,.05-.46Z"/><path class="cls-33" d="M56,136.86a2.84,2.84,0,0,1-2.89,3.08,2.76,2.76,0,0,1-2.78-3,2.83,2.83,0,0,1,2.88-3.08A2.75,2.75,0,0,1,56,136.86Zm-4.61.06c0,1.27.74,2.23,1.77,2.23s1.76-1,1.76-2.26c0-1-.49-2.23-1.74-2.23S51.41,135.81,51.41,136.92Z"/><path class="cls-33" d="M57.31,139.81c0-.4,0-1,0-1.5v-7h1v3.65h0a2.17,2.17,0,0,1,2-1.07c1.44,0,2.46,1.2,2.45,3,0,2.08-1.31,3.11-2.6,3.11a2.07,2.07,0,0,1-2-1.09h0l-.05,1Zm1.09-2.33a1.58,1.58,0,0,0,.05.38A1.61,1.61,0,0,0,60,139.1c1.1,0,1.76-.9,1.76-2.23,0-1.16-.6-2.16-1.73-2.16a1.68,1.68,0,0,0-1.6,1.3,1.71,1.71,0,0,0-.06.43Z"/><path class="cls-33" d="M64.77,137.1a1.86,1.86,0,0,0,2,2,3.8,3.8,0,0,0,1.61-.3l.18.76a4.67,4.67,0,0,1-1.93.36A2.7,2.7,0,0,1,63.76,137c0-1.75,1-3.13,2.72-3.13a2.46,2.46,0,0,1,2.4,2.74,4.88,4.88,0,0,1,0,.49Zm3.09-.76a1.49,1.49,0,0,0-1.46-1.71,1.75,1.75,0,0,0-1.62,1.71Z"/><path class="cls-33" d="M78.42,139.54a5,5,0,0,1-2.13.39,3.78,3.78,0,0,1-4-4.09,4,4,0,0,1,4.23-4.25,4.35,4.35,0,0,1,1.91.36l-.25.85a3.82,3.82,0,0,0-1.63-.33,3,3,0,0,0-3.15,3.33,2.94,2.94,0,0,0,3.1,3.25,4.27,4.27,0,0,0,1.71-.33Z"/><path class="cls-33" d="M79.66,135.81c0-.68,0-1.27,0-1.81h.93l0,1.14h.05a1.75,1.75,0,0,1,1.61-1.27,1,1,0,0,1,.3,0v1a1.94,1.94,0,0,0-.36,0,1.49,1.49,0,0,0-1.42,1.35,3.6,3.6,0,0,0,0,.49v3.1h-1Z"/><path class="cls-33" d="M84.05,137.1a1.86,1.86,0,0,0,2,2,3.76,3.76,0,0,0,1.61-.3l.18.76a4.67,4.67,0,0,1-1.93.36A2.69,2.69,0,0,1,83.05,137c0-1.75,1-3.13,2.72-3.13a2.47,2.47,0,0,1,2.4,2.74,4.35,4.35,0,0,1,0,.49Zm3.1-.76a1.5,1.5,0,0,0-1.47-1.71,1.74,1.74,0,0,0-1.61,1.71Z"/><path class="cls-33" d="M92.69,139.81l-.08-.73h0a2.17,2.17,0,0,1-1.77.86A1.66,1.66,0,0,1,89,138.27c0-1.4,1.25-2.17,3.49-2.16V136a1.19,1.19,0,0,0-1.32-1.34,2.93,2.93,0,0,0-1.51.43l-.24-.69a3.55,3.55,0,0,1,1.91-.52c1.77,0,2.21,1.21,2.21,2.38v2.17a8.47,8.47,0,0,0,.09,1.39Zm-.15-3c-1.16,0-2.46.17-2.46,1.3a.93.93,0,0,0,1,1,1.45,1.45,0,0,0,1.41-1,1.35,1.35,0,0,0,.06-.34Z"/><path class="cls-33" d="M96.49,132.34V134H98v.81H96.49v3.13c0,.72.2,1.12.79,1.12a2.21,2.21,0,0,0,.61-.07l0,.79a2.48,2.48,0,0,1-.94.15,1.46,1.46,0,0,1-1.14-.45,2.13,2.13,0,0,1-.41-1.51v-3.16h-.9V134h.9v-1.39Z"/><path class="cls-33" d="M100.36,132.37a.62.62,0,0,1-.67.65.63.63,0,0,1-.64-.65.65.65,0,0,1,.66-.66A.63.63,0,0,1,100.36,132.37Zm-1.17,7.44V134h1v5.81Z"/><path class="cls-33" d="M102.4,134l1.14,3.27a14.72,14.72,0,0,1,.47,1.48h0c.14-.48.3-1,.5-1.48l1.12-3.27h1.11l-2.28,5.81h-1L101.27,134Z"/><path class="cls-33" d="M108.23,137.1a1.86,1.86,0,0,0,2,2,3.76,3.76,0,0,0,1.61-.3l.18.76a4.67,4.67,0,0,1-1.93.36,2.69,2.69,0,0,1-2.85-2.93c0-1.75,1-3.13,2.72-3.13a2.47,2.47,0,0,1,2.4,2.74,4.35,4.35,0,0,1,0,.49Zm3.1-.76a1.5,1.5,0,0,0-1.47-1.71,1.74,1.74,0,0,0-1.61,1.71Z"/><path class="cls-33" d="M121.89,139.54a5.09,5.09,0,0,1-2.14.39,3.77,3.77,0,0,1-4-4.09,4,4,0,0,1,4.22-4.25,4.4,4.4,0,0,1,1.92.36l-.25.85a3.85,3.85,0,0,0-1.63-.33,3,3,0,0,0-3.16,3.33,2.94,2.94,0,0,0,3.11,3.25,4.25,4.25,0,0,0,1.7-.33Z"/><path class="cls-33" d="M123.16,131.29h1.06v8.52h-1.06Z"/><path class="cls-33" d="M131.25,136.86a2.84,2.84,0,0,1-2.89,3.08,2.76,2.76,0,0,1-2.79-3,2.83,2.83,0,0,1,2.88-3.08A2.75,2.75,0,0,1,131.25,136.86Zm-4.61.06c0,1.27.73,2.23,1.76,2.23s1.77-1,1.77-2.26c0-1-.49-2.23-1.74-2.23S126.64,135.81,126.64,136.92Z"/><path class="cls-33" d="M137.44,138.22c0,.6,0,1.13.05,1.59h-.94l-.06-.95h0a2.19,2.19,0,0,1-1.92,1.08c-.91,0-2-.5-2-2.54V134h1.06v3.22c0,1.1.34,1.84,1.3,1.84a1.53,1.53,0,0,0,1.39-1,1.49,1.49,0,0,0,.09-.54V134h1.06Z"/><path class="cls-33" d="M144.21,131.29v7c0,.51,0,1.1,0,1.5h-.94l-.05-1h0a2.13,2.13,0,0,1-2,1.14c-1.41,0-2.49-1.19-2.49-2.95,0-1.93,1.19-3.12,2.61-3.12a2,2,0,0,1,1.75.89h0v-3.47Zm-1.06,5.08a1.68,1.68,0,0,0-.05-.45,1.54,1.54,0,0,0-1.52-1.22c-1.09,0-1.74,1-1.74,2.24s.58,2.15,1.72,2.15a1.59,1.59,0,0,0,1.54-1.26,1.71,1.71,0,0,0,.05-.46Z"/><line class="cls-35" x1="12.99" y1="207" x2="207.01" y2="207"/></g><g id="girl"><path class="cls-36" d="M362.83,432.27"/><path d="M359,165.3"/><path class="cls-37" d="M389.5,389"/><path class="cls-38" d="M389.5,389"/><path d="M384,270.72s-.68,14.23,10.15,18.75c0,0,1.75-4.88,3.79-22.67C398,266.8,385,271,384,270.72Z"/><path class="cls-39" d="M417.87,131.15s-61.87-6.41-70.41,63.72c0,0-.46,5,5.54,5.08"/><path d="M385.08,138.75s40.5-22.56,82.92,10.07c30,23.08,82,37.12,154,31.1,0,0-120.49,17.88-157-23.08"/><path d="M480,167.88s7.25,20.14,49.3,7.38c29.4-8.91,53.44-10.62,58.7,6.38,0,0-8.76-23.38-54.32-4.16-52.24,22-55.28-6.54-55.28-6.54"/><path class="cls-40" d="M360.26,265.72C364,282,402,264,402,264c-1.25,12.59-9.5,38.41-9.5,38.41l50.31.46c-8-5.18-13.56-37.15-11.28-48.55s9.41-22.26,9.58-22.26,2.16,3.26,5.39,2.17c4.57-1.54,2.95-4,9.87-15.2,7.38-11.94,6.3-23.89-1.08-27.14-6.76-3-13,.11-15.26,5.42s-3.23,17.38-3.23,17.38l-10.09-.17c-6.08-19.38-17.94-30.23-30.87-32.41-25.87-4.34-42,10.86-42,10.86-2.16,8.69.64,14.36,1.21,17.56,1.38,7.74-6.25,12.59-7.5,18.88-.87,4.39,10.6,7,10.6,7s-.11,1.31-2.16,5.43c0,0-3.26,2.91,1.05,6.17,0,0-2.39,3.91,3,5C360,253,361,254,360.26,265.72Z"/><path class="cls-41" d="M301.52,500a21.17,21.17,0,0,1,5-9.94c8.47-9.22,34.09-53.24,40.93-65.11a19.71,19.71,0,0,0,2.33-6.36c1.44-8,3-28.73,5.93-43.29,4-19.62,16.72-46.08,9.29-59.92-1.21-2.27-5.21-8.69-6-11.38-5-17.06-14.2-2.13-17,5.36-3,8-7.39,35.91-8,45.15-1.16,17.76-8,37.13-11,50.17-1.82,7.91-9.29,22.66-9.29,22.66S289.22,471.44,278,500"/><path class="cls-42" d="M303.56,500A23.68,23.68,0,0,1,309,489.64c8.47-9.22,34.08-53.24,40.92-65.1a19.56,19.56,0,0,0,2.33-6.36c1.45-8,3-28.73,5.94-43.3,3.95-19.61,11.38-34.72,2.62-46.7-1.51-2.07-2-5.14-2.85-7.78-6.55-21-12.51-18.63-15-11-2.69,8.21-6.48,33.6-7.09,42.84-1.16,17.76-9.44,45.58-10.5,52-1.31,8-9.19,22.68-9.19,22.68S290.92,471.44,279.7,500"/><path class="cls-41" d="M520.65,500c-.87-3.44-3.22-6.83-6.19-10.07-8.47-9.21-34-53.58-40.86-65.44a19.53,19.53,0,0,1-2.47-6.3c-1.45-8-2-28.22-5-42.79-3.95-19.61-14-36.49-6.57-50.34,1.21-2.26,2.47-3.77,3.71-6.29,8.55-17.38,14.35-12.83,16.09-5,1.79,8,7.14,29.65,7.74,38.88,1.17,17.77,9.45,45.59,10.51,52.05,1.31,8,9.18,22.68,9.18,22.68s24.88,44.1,36.1,72.66"/><path class="cls-42" d="M521.83,500a23.68,23.68,0,0,0-5.48-10.36c-8.47-9.22-34.08-53.24-40.92-65.1a19.56,19.56,0,0,1-2.33-6.36c-1.45-8-3-28.73-5.94-43.3-4-19.61-14.34-36.54-4.92-50.23,1.45-2.11-.19-.43,1.35-2.73C472.41,308.74,476.26,297.2,478,305c1.78,8,9.7,30.81,11.16,47,1.61,17.92,9.76,45.76,10.82,52.22,1.31,8,9.19,22.68,9.19,22.68s25.3,44.52,36.52,73.08"/><path class="cls-42" d="M387.35,293.12s20.66,13.7,51.88,0c36.47-16,39.16,14.11,39.16,14.11s-4.68,27.83-41.72,56.1C397.59,393.15,343,317,343,317s-3-11,9-22C366.71,281.52,387.35,293.12,387.35,293.12Z"/><path class="cls-42" d="M361.65,264.62c1.06,15.2,36.31,2.18,36.31,2.18-1.13,12.3-7.12,38-7.12,38l53.23,1.26c-7.92-5.19-14.07-41.45-11.81-52.84a68.85,68.85,0,0,1,8-20.95c.17,0,3.63,1.94,6.83.86,4.54-1.54,2.93-4,9.78-15.2,7.31-11.94,5.46-21.85-1.85-25.11-6.69-3-12.64,0-14.76,5.33a38.92,38.92,0,0,0-1.7,6.5c-1,5.14-1.46,10.56-1.46,10.56H427.6c-6-19.38-17.89-32-30.71-34.2-25.63-4.34-41.65,10.86-41.65,10.86-2.14,8.69.29,14.21,1.07,17.37,2.13,8.69-6,13.4-7.48,19.55-1.07,4.34,10.68,6.51,10.68,6.51s-.11,1.31-2.14,5.43c0,0-2.64,3,1.63,6.26,0,0-3.76,3.51,1.58,4.6C360.58,251.6,362.71,252.68,361.65,264.62Z"/><path class="cls-43" d="M389.54,209.53c-8.77,8.49-16.73,7.62-20.68,7.15a43.62,43.62,0,0,0-8.33,0,27.16,27.16,0,0,0,4.27-5.59c2-3.28,3.37-10.61,19.44-9.8,0,0,4.95.25,15,3.33C399.27,204.63,394.52,204.71,389.54,209.53Z"/><path class="cls-44" d="M367.69,213s2.84-13.87,18.75-5.69C386.44,207.28,379.72,217.56,367.69,213Z"/><path class="cls-45" d="M371.34,207.3a4.48,4.48,0,1,1-.49,2,4.56,4.56,0,0,1,.49-2"/><path class="cls-46" d="M353.71,231.71s2.67,1.86,4.23,1.7C357.94,233.41,357.54,230.17,353.71,231.71Z"/><path class="cls-46" d="M362.7,228.91s1.07,3.26-1.07,4.34C361.63,233.25,364.84,232.17,362.7,228.91Z"/><path class="cls-47" d="M357.43,240.85s2.13-2.17,8.54,2.18c0,0,5.34,3.25,9.61,2.17,0,0-11.74,7.6-14.95,6.51,0,0-5.34-1.08-2.13-4.34C358.5,247.37,353.16,244.11,357.43,240.85Z"/><path class="cls-48" d="M367.15,246.71s-4.22.65-6.49-.51-2.18.33-2.18.33,0,1.13,2.55.91C364,247.19,367.15,246.71,367.15,246.71Z"/><path d="M360.73,202.1s-2.64,2.56,1.32,4c0,0,11.88-13.36,37-8A44,44,0,0,0,360.73,202.1Z"/><path class="cls-47" d="M399,266.91s24.57-8.68,31-26.06C430,240.85,431.05,261.48,399,266.91Z"/><path class="cls-49" d="M417.26,210.68s3.86,6.64-4.36,15-21.36,7.6-25.64,15.75c0,0,3.46-10.07,16.68-14.54S417.26,210.68,417.26,210.68Z"/><path class="cls-50" d="M454.55,210.45c-2.18,3.47-4.27,6.52-4.69,9.54-.24,1.77,0,6.07-1.7,6.07a3.84,3.84,0,0,1-3.42-2.6s-.87-10.83,0-13.87c0,0,.84-6.09,3.4-7.82s4.27-1.09,4.27-1.09a4.52,4.52,0,0,1,3.2,4.35A12.24,12.24,0,0,1,454.55,210.45Z"/><path class="cls-47" d="M446.66,221c-.4-2.48,1.06-3.61,2.55-5.13,5.34-5.43-1.22-5.2-1.22-5.2-2.3.15-.92-4.57-.92-4.57,0-1.08-1.26,0-1.26,0-3,5.43-1.07,17.35-1.07,17.35S447.32,225,446.66,221Z"/><path class="cls-42" d="M443.87,213.71v5.46s3.2.23,3.2-2.2C447.07,212.63,443.87,213.71,443.87,213.71Z"/><path class="cls-51" d="M432.13,296.74c-21,18.34-39.13-1.43-39.13-1.43l-6.06-3s-5.3,22.78,23.05,25.32C436.46,320,437.7,293.6,437.7,293.6A23.11,23.11,0,0,0,432.13,296.74Z"/><path class="cls-52" d="M447.7,289.85c.1,35.26-25.47,47.17-47.14,40.25C373,321.29,377,289,377,289a102.74,102.74,0,0,1,9.94,3.34c0,2.52,2.48,23.91,27.24,23.91,0,0,21,1.26,23.52-22.65Z"/><path class="cls-53" d="M377,289a26.54,26.54,0,0,0-14.47.58s3.37,49.33,45.46,50.58,49.52-32.72,49.52-32.72A66.69,66.69,0,0,0,461,288s-7.62,0-13.3,1.85c0,0,.52,37.1-30.43,39.62C376.48,332.78,377,289,377,289Z"/><ellipse class="cls-54" cx="374.04" cy="225.23" rx="7.42" ry="3.6" transform="translate(-39.95 86.49) rotate(-12.53)"/><ellipse class="cls-55" cx="354.01" cy="225.56" rx="2.7" ry="1.28" transform="translate(-43.78 359.59) rotate(-51.12)"/><ellipse class="cls-54" cx="368.14" cy="265.13" rx="3.95" ry="3.6"/><ellipse class="cls-56" cx="405.09" cy="284.37" rx="13.17" ry="4.8" transform="translate(61.56 640.67) rotate(-81.11)"/><path class="cls-57" d="M351.26,312.77c-3.35-.6-8.27,11.76-11,27.6s-1.62,24,1.73,24.63,7.68-6.64,10.4-22.48S354.61,313.36,351.26,312.77Z"/><ellipse class="cls-54" cx="304.63" cy="465.59" rx="18.86" ry="6.18" transform="translate(-249 521.01) rotate(-62.52)"/><path class="cls-49" d="M325.65,412.06s11.77,4.29,19.2-.16C344.85,411.9,339.29,419.83,325.65,412.06Z"/><path class="cls-49" d="M499,410s-11.76,4.29-19.2-.16C479.83,409.8,485.39,417.73,499,410Z"/><ellipse class="cls-54" cx="517.95" cy="475.61" rx="4.2" ry="11.27" transform="translate(-160.23 289.73) rotate(-27.23)"/><path class="cls-58" d="M476.65,487.22c-2.09-9-11.91-28.11-14.69-34.83s-7-22.68-9.41-30.34-2.91-42.87-2.91-42.87c6-6.29,10.77-11.33,12.05-18.88,1.07-6.37-1-14.34-3.49-17.86-.38-.53-.45-1.83-.92-1.35-12.73,13-31.33,14.18-46.28,14.18-17.5,0-29.22-1.76-46.53-12.59-.56-.35.64-.47.19,0-1.23,1.26-6.67,14.83-6.06,20.29,1.27,11.33,6.81,15.88,13.49,18.73,0,0-2.67,25.17-3.94,37.75-.81,8-5.17,26.23-7.95,32.94s-12.6,25.88-14.68,34.83-1.9,12.78-1.9,12.78h67.46l67.31-.2S478.74,496.17,476.65,487.22Z"/><ellipse cx="374.5" cy="208.55" rx="2.71" ry="2.67" transform="translate(133.89 563.31) rotate(-84.97)"/><path class="cls-59" d="M476,298s-5.48-10.05-15-10c0,0-1,50.64-51.77,49.38-42.16-1-46.7-47.8-46.7-47.8A24.22,24.22,0,0,0,350,297s13.4,45.79,53,49.55C403,346.55,463.07,355.22,476,298Z"/><path class="cls-60" d="M475.7,487.49c-2-8.94-11.8-28.53-14.5-35.23s-6.81-22.66-9.14-30.31-2-36.53-2-36.53c10-5.63,11.92-13.13,13.11-20.05a21.63,21.63,0,0,0,.22-5.68c-.65-6.54-2.93-14.95-5-18.2a1.2,1.2,0,0,0-1.59-.48c-10.76,6.91-31.18,12.38-45.76,12.38-17.1,0-35-6.84-45.78-12.69a1,1,0,0,0-1.24.45c-2.78,4-6.07,17.73-5.47,23.19,1.24,11.31,7,17,13.49,19.82,0,0-1.24,25.14-2.48,35.19-1,8-4.55,26.2-7.24,32.91S350.13,478.1,348.1,487s-1.84,12.76-1.84,12.76H477.31S477.73,496.43,475.7,487.49Z"/><ellipse class="cls-61" cx="374.29" cy="207.81" rx="1.17" ry="1.19"/><ellipse class="cls-62" cx="370.38" cy="367.03" rx="6.18" ry="9.41" transform="translate(-137.21 247.67) rotate(-31.51)"/><ellipse class="cls-63" cx="367.4" cy="295.92" rx="9.99" ry="4.38" transform="translate(-58.78 93.64) rotate(-13.46)"/><ellipse class="cls-64" cx="380.8" cy="455.43" rx="37.13" ry="10.41" transform="translate(-104.52 797.31) rotate(-85.26)"/><path class="cls-65" d="M354.76,396.8s-1.27,19.28-2.48,22.65-11.14,20.14-11.14,20.14S352.28,419.45,354.76,396.8Z"/><path class="cls-66" d="M470.64,398.22s1.7,19.24,3,22.59,11.59,19.87,11.59,19.87S473.63,420.81,470.64,398.22Z"/><path class="cls-67" d="M450.13,385.58a13.81,13.81,0,0,1-13.44-1.26S442.05,390.34,450.13,385.58Z"/><path class="cls-67" d="M372.09,384.21A13.79,13.79,0,0,0,385.52,383S380.13,389,372.09,384.21Z"/><path class="cls-68" d="M451.59,405.83c-28.38,2.1-55.59,1.17-82.34,0a1.33,1.33,0,0,1-1.23-1.36V392a1.35,1.35,0,0,1,1.23-1.35c28.32-2.54,54-1.88,82.35,0a1.35,1.35,0,0,1,1.22,1.36v12.47A1.35,1.35,0,0,1,451.59,405.83Z"/><path class="cls-47" d="M364,341.07s-1.34-4.1,2.69-5.47C366.67,335.6,364.54,335.7,364,341.07Z"/><ellipse class="cls-69" cx="392.84" cy="397.91" rx="10.77" ry="5.91"/><path class="cls-70" d="M521.15,443.37c-10.08,6.4-20.52,10.67-30.83,15.29-.27.12-.63-.12-.81-.5l-3.22-6.7a.78.78,0,0,1,.11-1c10-6.62,18.73-11.45,30.84-15.29.27-.09.62.12.81.5l3.21,6.71A.75.75,0,0,1,521.15,443.37Z"/><path class="cls-61" d="M348.45,201"/><ellipse class="cls-61" cx="375.63" cy="208.19" rx="0.43" ry="0.44"/><path class="cls-71" d="M386.16,206.83c-16.78-7.8-18.52,6.78-18.52,6.78s2-8.37.53-10.49c0,0,1.45,2.32,1.4,3.38,0,0,2.05-1.07,2.34-5.82,0,0,.2,4-.54,4.95s4.73-3.08,4.89-6.28c0,0,.09,3.14-.62,4.21s4.78-2.93,4.73-5.54c0,0-.06,4.75-3.27,5.65,0,0,5.32-.8,6.47-5.49,0,0-1.32,4.58-4.37,5.6,0,0,7.55-2.2,8.76-5.67,0,0-1.33,5-5.6,5.83,0,0,5.67-.54,8.37-5.34,0,0-3.3,6.27-6.39,6.31,0,0,6.5-1.61,7.71-4.76A14.94,14.94,0,0,1,386.16,206.83Z"/><ellipse class="cls-63" cx="497.45" cy="449.85" rx="4" ry="2.73" transform="translate(-143.9 253.65) rotate(-25.11)"/><path class="cls-72" d="M477.07,358.72a15.75,15.75,0,0,1,0-13.67S480.89,352.32,477.07,358.72Z"/><path class="cls-72" d="M472.46,357.4A17.32,17.32,0,0,1,482,346.52,17.58,17.58,0,0,1,472.46,357.4Z"/><path class="cls-72" d="M481.88,357.46a17.46,17.46,0,0,0-9.56-10.92A17.67,17.67,0,0,0,481.88,357.46Z"/><path class="cls-72" d="M469.77,352.09a17.48,17.48,0,0,0,14.77,0A17.71,17.71,0,0,0,469.77,352.09Z"/><path class="cls-72" d="M339.47,400.59c4.33,1,1.2-6.84,1.2-6.84S336,399.8,339.47,400.59Z"/><ellipse class="cls-73" cx="327.38" cy="432.94" rx="2.65" ry="2.14" transform="translate(-206.88 528.75) rotate(-63.07)"/><polygon class="cls-74" points="326.39 435.84 331.87 437.67 330.98 439.36 326.39 435.84 326.39 435.84"/><polygon class="cls-74" points="325.58 435.4 320.17 433.41 321.1 431.75 325.58 435.4 325.58 435.4"/><polygon class="cls-74" points="321.17 442.6 322.99 443.56 326.21 435.92 325.61 435.6 321.17 442.6"/><ellipse class="cls-73" cx="479.46" cy="398.5" rx="2.64" ry="2.13" transform="translate(-39.5 53) rotate(-6.08)"/><path class="cls-47" d="M476.6,397.76a5.44,5.44,0,0,0-1.93-4.64,3.29,3.29,0,0,1,2.53,4Z"/><path class="cls-47" d="M482,397.2a5.44,5.44,0,0,1,1-4.94,3.29,3.29,0,0,0-1.67,4.44Z"/><path d="M433.4,275.26s-6.86-23.91,6.84-42.31c0,0,5.26,2.79,8.45-.73s4.16-7.81,5.27-9.56c2-3.09,12.65-19.13,3.16-27.63-7.05-6.31-12.93-1-12.93-1s-5,4.2-6.57,21.73l-10.2-.25S421,195,396,191.84c-10.93-1.36-26.36-1.06-46.4,3.19,0,0,4.22-62.69,64.36-62,0,0,32.79-4.47,58.07,22.85,13,14,17.24,38.38,33.27,58.27,10.13,12.56,24.64,22.92,48.9,27.07,62.69,10.7,109.61-10,109.61-10S618.91,268.78,563.58,263c0,0-26.87-1.09-42.15-14.07,0,0,20,54.51,128.65,48.13,0,0-88.57,41.44-133.85-14.76,0,0,5.13,25.4,50.61,37,16.15,4.12,69,6.5,96.94,5.39,0,0-203.5,53.13-230.38-49.41"/><path d="M474.05,199.62s19.39,33.77,80.13,9.22,82.41,3.3,82.41,3.3-26.23-30.37-82.85-8.65c-51.28,19.67-59.24-7.31-62.18-10.07"/><path d="M558.7,304.74s37.42,9.29,59.74,5.05a61.89,61.89,0,0,1,39.1,5.31s-10.63-6.37-36.65-1.44c-37.19,7-72-7.06-74.95-10.57Z"/><path d="M520.38,246.79s26.36,29,64.32,23.69,50.61-17,71.7-.74c0,0-11.36-12.08-66.43,2.86-54.82,14.88-67.48-18.06-67.48-18.06A34.13,34.13,0,0,1,520.38,246.79Z"/><ellipse class="cls-75" cx="447.39" cy="235.54" rx="10.99" ry="11.14"/><ellipse class="cls-76" cx="440.45" cy="246.09" rx="1.74" ry="1.76"/><ellipse class="cls-77" cx="440.45" cy="250.78" rx="1.74" ry="1.76"/><ellipse class="cls-78" cx="441.5" cy="255.47" rx="1.74" ry="1.76"/><ellipse class="cls-79" cx="443.61" cy="260.16" rx="1.74" ry="1.76"/><ellipse class="cls-80" cx="447.39" cy="248.44" rx="1.74" ry="1.76"/><ellipse class="cls-81" cx="448.45" cy="253.13" rx="1.74" ry="1.76"/><ellipse class="cls-82" cx="450.55" cy="257.82" rx="1.74" ry="1.76"/><ellipse class="cls-83" cx="453.72" cy="261.44" rx="1.74" ry="1.76"/><ellipse class="cls-84" cx="454.33" cy="246.09" rx="1.74" ry="1.76"/><ellipse class="cls-85" cx="455.39" cy="250.78" rx="1.74" ry="1.76"/><ellipse class="cls-86" cx="458.55" cy="254.41" rx="1.74" ry="1.76"/><ellipse class="cls-87" cx="462.77" cy="256.97" rx="1.74" ry="1.76"/><path d="M431.82,264.27s.43,78.51,67.81,80.59c59.72,1.84,105.11-5.31,168.37,26.56,0,0-51.89-30.81-131.31-28.69-74.18,2-57.18-40.38-57.18-40.38"/><path d="M356.57,191s-1.8,5.94,1.44,5.12a9.82,9.82,0,0,1,7.38,1.06c-3.16-1.06-6.33,1.07-6.33,1.07-10.54,5.31-9.49-3.19-9.49-3.19"/><path d="M442.9,194.93s-4.76,11.79,21.6,7.54c19.2-3.1,27.65-13.87,60.75,1,0,0-17.07-10.65-46.47-1.37-28,8.84-39.58,5.65-38.22-3.69"/><path d="M565.72,338.48c6.33,1.07,58-1.06,80.14,5.32,0,0-25.31-9.57-82.24-5.32"/><path d="M507.73,217.34s31.63,19.13,56.94,6.38c22.05-11.11,78-15.94,103.33,0,0,0-41.12-20.19-89.45,5.31-45.46,24-68.59,3.76-68.59,3.76"/><path d="M427.42,215.5s8.61,24.16,43.23,21c45.09-4.07,60.25,1.56,60.25,1.56s-19.35-12.71-64.51-6.79c-31.41,4.11-28.77-15.55-28.77-15.55l-10.2-.25"/><path d="M438.14,211c0,3.19-4.11,14.47,29.15,10.91,36.18-3.88,52,6.09,52,6.09A108.55,108.55,0,0,0,464,224.78c-30,6.38-29.67-8.94-29.67-8.94"/><path d="M356.08,193.8a20.69,20.69,0,0,0,12.47.17c6.33-2.13,17.93,0,17.93,1.06,0,0-2.46-4.94-13.71-5.31-5.62-.19-12.65,2.12-12.65,2.12"/><path d="M472.66,167.13s26.36,29,64.32,23.68,50.61-17,71.7-.73c0,0-11.36-12.08-66.43,2.86-54.83,14.88-67.48-18.07-67.48-18.07A33.88,33.88,0,0,1,472.66,167.13Z"/><path d="M466.53,327.32s19.39,33.77,80.13,9.22,82.41,3.3,82.41,3.3-26.23-30.37-82.85-8.65C494.94,350.86,487,323.88,484,321.12"/><path d="M577.92,250.31s-4.75,11.79,21.61,7.54c19.2-3.1,27.65-13.87,60.75,1,0,0-17.07-10.66-46.48-1.38-28,8.84-39.57,5.65-38.21-3.69"/><ellipse class="cls-88" cx="392.37" cy="153.21" rx="27.1" ry="10.9" transform="translate(-27.69 184.5) rotate(-25.59)"/><ellipse class="cls-88" cx="455.29" cy="299.19" rx="10.36" ry="25.57" transform="translate(-82.22 210.38) rotate(-23.93)"/><ellipse class="cls-89" cx="449.31" cy="196.02" rx="4.1" ry="2.38" transform="translate(-31.85 102.26) rotate(-12.54)"/><path d="M514,289.6s7.24,20.13,49.3,7.38c29.4-8.91,53.44-10.63,58.7,6.38,0,0-8.77-23.38-54.32-4.16-52.25,22-55.29-6.54-55.29-6.54"/><path d="M543.29,228.81s7.25,20.13,49.3,7.38c29.4-8.91,53.45-10.62,58.7,6.38,0,0-8.76-23.38-54.32-4.16-52.24,22-55.28-6.54-55.28-6.54"/><circle class="cls-73" cx="343" cy="378" r="2.5"/><line class="cls-73" x1="338.61" y1="379.96" x2="346.54" y2="380.98"/><path class="cls-72" d="M340.37,400.69c3.39,2.85,4.2-5.53,4.2-5.53S337.63,398.39,340.37,400.69Z"/><path class="cls-72" d="M338.58,400.48c4.25-1.25-2.28-6.55-2.28-6.55S335.15,401.49,338.58,400.48Z"/><path class="cls-37" d="M396.54,407l53.83-1s.75,14,1.69,16,7.7,26.79,9.82,31.92,17.74,35.74,15.43,45.93H434.23Z"/><ellipse class="cls-57" cx="371.64" cy="339.12" rx="2.68" ry="4.03" transform="translate(-99.59 515.37) rotate(-62.89)"/></g></svg>