<?xml version="1.0" encoding="utf-8"?>
<!-- Generator: Adobe Illustrator 25.4.1, SVG Export Plug-In . SVG Version: 6.00 Build 0)  -->
<svg version="1.1" id="Layer_1" xmlns="http://www.w3.org/2000/svg" xmlns:xlink="http://www.w3.org/1999/xlink" x="0px" y="0px"
	 viewBox="0 0 252 144" style="enable-background:new 0 0 252 144;" xml:space="preserve">
<style type="text/css">
	.st0{fill:#303030;}
	.st1{fill:#EDBE7E;}
	.st2{fill:#C992DD;}
	.st3{fill:#E5AAC6;}
	.st4{fill:#EAD18B;}
	.st5{fill:#9F96E0;}
</style>
<g>
	<path class="st0" d="M144.5,55.4h-37.1c-1.4,0-2.6-1.2-2.6-2.6V26.6c0-1.4,1.2-2.6,2.6-2.6h37.1c1.4,0,2.6,1.2,2.6,2.6v26.3
		C147.1,54.3,146,55.4,144.5,55.4z"/>
	<g>
		<path class="st1" d="M117,30h-7c-0.4,0-0.8-0.4-0.8-0.8v-0.6c0-0.4,0.4-0.8,0.8-0.8h7c0.4,0,0.8,0.4,0.8,0.8v0.6
			C117.8,29.7,117.4,30,117,30z"/>
		<path class="st2" d="M127,34.3h-14.2c-0.4,0-0.8-0.4-0.8-0.8V33c0-0.4,0.4-0.8,0.8-0.8H127c0.4,0,0.8,0.4,0.8,0.8v0.6
			C127.8,34,127.4,34.3,127,34.3z"/>
		<path class="st3" d="M129.9,38.5h-14.2c-0.4,0-0.8-0.4-0.8-0.8v-0.6c0-0.4,0.4-0.8,0.8-0.8h14.2c0.4,0,0.8,0.4,0.8,0.8v0.6
			C130.7,38.1,130.3,38.5,129.9,38.5z"/>
		<path class="st2" d="M127,47.2h-14.2c-0.4,0-0.8-0.4-0.8-0.8v-0.6c0-0.4,0.4-0.8,0.8-0.8H127c0.4,0,0.8,0.4,0.8,0.8v0.6
			C127.8,46.9,127.4,47.2,127,47.2z"/>
		<path class="st3" d="M138.7,42.8h-23c-0.4,0-0.8-0.4-0.8-0.8v-0.6c0-0.4,0.4-0.8,0.8-0.8h23c0.4,0,0.8,0.4,0.8,0.8V42
			C139.4,42.4,139.1,42.8,138.7,42.8z"/>
		<path class="st1" d="M117,51.5h-7c-0.4,0-0.8-0.4-0.8-0.8v-0.6c0-0.4,0.4-0.8,0.8-0.8h7c0.4,0,0.8,0.4,0.8,0.8v0.6
			C117.8,51.2,117.4,51.5,117,51.5z"/>
		<path class="st4" d="M124.4,30h-4.7c-0.4,0-0.8-0.4-0.8-0.8v-0.6c0-0.4,0.4-0.8,0.8-0.8h4.7c0.4,0,0.8,0.4,0.8,0.8v0.6
			C125.2,29.7,124.8,30,124.4,30z"/>
		<path class="st5" d="M138.7,38.5h-6.1c-0.4,0-0.8-0.4-0.8-0.8V37c0-0.4,0.4-0.8,0.8-0.8h6.1c0.4,0,0.8,0.4,0.8,0.8v0.7
			C139.4,38.1,139.1,38.5,138.7,38.5z"/>
	</g>
</g>
<g>
	<path d="M53.9,84.7l-6.2-20.6h1.5L54.7,83l6.5-18.9h1.1L68.7,83l5.5-18.9h1.5l-6.2,20.6h-1.5l-6.2-17.9l-6.3,17.9H53.9z"/>
	<path d="M84.4,85.1c-1.3,0-2.5-0.3-3.6-0.9c-1-0.6-1.9-1.4-2.5-2.4s-0.9-2.2-0.9-3.4c0-1,0.2-1.9,0.5-2.7c0.3-0.8,0.8-1.6,1.4-2.2
		c0.6-0.6,1.3-1.1,2.1-1.5c0.8-0.4,1.7-0.5,2.6-0.5c1.2,0,2.3,0.3,3.3,0.8c1,0.6,1.8,1.3,2.4,2.3c0.6,1,0.9,2.1,1,3.3
		c0,0.1,0,0.2,0,0.2s0,0.1,0,0.2h-12c0,1.1,0.2,2,0.7,2.9c0.5,0.8,1.2,1.5,2,2c0.9,0.5,1.8,0.7,2.9,0.7c1,0,2-0.2,2.8-0.7
		c0.8-0.4,1.5-1.1,2-1.9l1,0.6c-0.6,1-1.4,1.7-2.5,2.3C86.8,84.8,85.7,85.1,84.4,85.1z M78.9,77.4h10.6c-0.1-0.9-0.4-1.7-0.9-2.4
		c-0.5-0.7-1.1-1.3-1.9-1.7c-0.8-0.4-1.6-0.6-2.5-0.6c-0.9,0-1.8,0.2-2.5,0.6c-0.8,0.4-1.4,1-1.9,1.7C79.3,75.6,79,76.4,78.9,77.4z"
		/>
	<path d="M102.1,85.1c-1.2,0-2.3-0.3-3.2-0.9s-1.7-1.4-2.3-2.5v3h-1.3V63.2h1.3v11.6c0.5-1,1.3-1.9,2.2-2.5s2-0.9,3.2-0.9
		c1.2,0,2.3,0.3,3.3,0.9c1,0.6,1.7,1.4,2.3,2.4s0.8,2.2,0.8,3.5c0,1.3-0.3,2.5-0.8,3.5c-0.6,1-1.3,1.8-2.3,2.4
		C104.4,84.8,103.3,85.1,102.1,85.1z M101.8,83.9c1,0,1.9-0.2,2.7-0.7c0.8-0.5,1.4-1.1,1.9-2c0.5-0.8,0.7-1.8,0.7-2.9
		c0-1.1-0.2-2.1-0.7-2.9s-1.1-1.5-1.9-2c-0.8-0.5-1.7-0.7-2.7-0.7s-2,0.2-2.8,0.7c-0.8,0.5-1.4,1.1-1.9,2s-0.7,1.8-0.7,2.9
		c0,1.1,0.2,2.1,0.7,2.9c0.5,0.8,1.1,1.5,1.9,2C99.9,83.7,100.8,83.9,101.8,83.9z"/>
	<path d="M120.2,84.7V64.1h4.4c1.5,0,2.8,0.3,4.1,0.8c1.3,0.5,2.4,1.3,3.3,2.2c0.9,0.9,1.7,2,2.2,3.3c0.5,1.2,0.8,2.6,0.8,4
		c0,1.5-0.3,2.8-0.8,4.1s-1.3,2.3-2.2,3.3c-0.9,0.9-2,1.7-3.3,2.2s-2.6,0.8-4.1,0.8H120.2z M121.6,83.5h2.9c1.3,0,2.5-0.2,3.6-0.7
		c1.1-0.5,2.1-1.1,2.9-1.9c0.8-0.8,1.5-1.8,1.9-2.9c0.5-1.1,0.7-2.3,0.7-3.6s-0.2-2.5-0.7-3.6c-0.5-1.1-1.1-2.1-1.9-2.9
		c-0.8-0.8-1.8-1.5-2.9-1.9c-1.1-0.5-2.3-0.7-3.6-0.7h-2.9V83.5z"/>
	<path d="M146,85.1c-1.3,0-2.5-0.3-3.6-0.9s-1.9-1.4-2.5-2.4s-0.9-2.2-0.9-3.4c0-1,0.2-1.9,0.5-2.7c0.3-0.8,0.8-1.6,1.4-2.2
		c0.6-0.6,1.3-1.1,2.1-1.5c0.8-0.4,1.7-0.5,2.6-0.5c1.2,0,2.3,0.3,3.3,0.8c1,0.6,1.8,1.3,2.4,2.3c0.6,1,0.9,2.1,1,3.3
		c0,0.1,0,0.2,0,0.2s0,0.1,0,0.2h-12c0,1.1,0.2,2,0.7,2.9s1.2,1.5,2,2c0.9,0.5,1.8,0.7,2.9,0.7c1,0,2-0.2,2.8-0.7
		c0.8-0.4,1.5-1.1,2-1.9l1,0.6c-0.6,1-1.4,1.7-2.5,2.3C148.5,84.8,147.3,85.1,146,85.1z M140.5,77.4h10.6c-0.1-0.9-0.4-1.7-0.9-2.4
		c-0.5-0.7-1.1-1.3-1.9-1.7c-0.8-0.4-1.6-0.6-2.5-0.6c-0.9,0-1.8,0.2-2.5,0.6c-0.8,0.4-1.4,1-1.9,1.7
		C140.9,75.6,140.6,76.4,140.5,77.4z"/>
	<path d="M160,85.1c-1,0-2-0.3-2.8-0.8c-0.8-0.6-1.4-1.3-1.8-2.4l0.8-0.7c0.4,0.9,0.9,1.6,1.5,2c0.7,0.5,1.4,0.7,2.2,0.7
		c0.6,0,1.1-0.1,1.6-0.4c0.5-0.2,0.9-0.6,1.2-1s0.4-1,0.4-1.6c0-0.6-0.1-1-0.4-1.3c-0.3-0.3-0.6-0.6-1.1-0.8
		c-0.5-0.2-1.1-0.5-1.8-0.8c-0.6-0.2-1.1-0.5-1.6-0.7c-0.5-0.3-1-0.6-1.3-1c-0.3-0.4-0.5-1-0.5-1.6c0-0.6,0.2-1.2,0.5-1.7
		c0.3-0.5,0.8-0.9,1.4-1.2c0.6-0.3,1.2-0.4,2-0.4c0.7,0,1.4,0.2,2,0.5c0.6,0.3,1.1,0.8,1.6,1.4l-0.7,0.7c-0.7-1.1-1.6-1.6-2.9-1.6
		c-0.8,0-1.4,0.2-1.8,0.6c-0.5,0.4-0.7,0.9-0.7,1.6c0,0.5,0.1,0.8,0.4,1.1s0.6,0.5,1.1,0.8c0.5,0.2,0.9,0.4,1.5,0.6
		c0.8,0.3,1.4,0.6,2,0.9c0.6,0.3,1,0.6,1.3,1.1s0.5,1,0.5,1.8c0,0.8-0.2,1.6-0.6,2.2c-0.4,0.6-0.9,1.1-1.6,1.4
		C161.7,84.9,160.9,85.1,160,85.1z"/>
	<path d="M169.7,69.4c-0.2,0-0.3,0-0.5-0.1c-0.1-0.1-0.3-0.2-0.3-0.3c-0.1-0.1-0.1-0.3-0.1-0.5c0-0.2,0-0.3,0.1-0.5
		c0.1-0.1,0.2-0.2,0.3-0.3s0.3-0.1,0.5-0.1c0.2,0,0.3,0,0.5,0.1s0.2,0.2,0.3,0.3s0.1,0.3,0.1,0.5c0,0.2,0,0.3-0.1,0.5
		s-0.2,0.3-0.3,0.3C170.1,69.3,169.9,69.4,169.7,69.4z M169.1,84.7V71.9h1.3v12.8H169.1z"/>
	<path d="M181.5,91.6c-1.6,0-2.9-0.3-4-1c-1.1-0.6-1.9-1.6-2.5-2.8l1.2-0.5c0.4,0.9,1.1,1.7,2.1,2.3c1,0.6,2.1,0.9,3.3,0.9
		c1,0,2-0.2,2.8-0.6c0.8-0.4,1.5-1,2-1.8s0.7-1.7,0.7-2.8v-3.5c-0.5,1.1-1.3,1.9-2.3,2.5s-2.1,0.9-3.2,0.9c-1.2,0-2.3-0.3-3.3-0.9
		c-1-0.6-1.7-1.4-2.3-2.4c-0.6-1-0.8-2.2-0.8-3.5c0-1.3,0.3-2.5,0.8-3.5s1.3-1.8,2.3-2.4c1-0.6,2.1-0.9,3.3-0.9
		c1.2,0,2.3,0.3,3.2,0.9s1.7,1.4,2.2,2.5v-2.9h1.3v13.1c0,1.5-0.3,2.7-0.8,3.6c-0.6,1-1.4,1.7-2.4,2.2
		C184.1,91.3,182.9,91.6,181.5,91.6z M181.8,83.9c1,0,2-0.2,2.8-0.7c0.8-0.5,1.4-1.1,1.9-2c0.5-0.9,0.7-1.8,0.7-2.9
		c0-1.1-0.2-2.1-0.7-2.9s-1.1-1.5-1.9-2c-0.8-0.5-1.7-0.7-2.8-0.7c-1,0-1.9,0.2-2.7,0.7c-0.8,0.5-1.4,1.1-1.9,2s-0.7,1.8-0.7,2.9
		c0,1.1,0.2,2.1,0.7,2.9c0.5,0.8,1.1,1.5,1.9,2S180.7,83.9,181.8,83.9z"/>
	<path d="M193.9,84.7V71.9h1.3v1.8c0.3-0.6,0.8-1.1,1.6-1.6c0.7-0.4,1.6-0.7,2.7-0.7c1,0,1.8,0.2,2.5,0.6s1.2,1,1.6,1.8
		s0.6,1.7,0.6,2.9v8H203V77c0-1.4-0.3-2.5-1-3.2c-0.7-0.7-1.6-1.1-2.8-1.1c-0.8,0-1.5,0.2-2.1,0.5c-0.6,0.3-1,0.8-1.4,1.3
		c-0.3,0.5-0.5,1.1-0.5,1.7v8.5H193.9z"/>
</g>
</svg>
