<?xml version="1.0" encoding="utf-8"?>
<!-- Generator: Adobe Illustrator 25.4.1, SVG Export Plug-In . SVG Version: 6.00 Build 0)  -->
<svg version="1.1" id="Layer_1" xmlns="http://www.w3.org/2000/svg" xmlns:xlink="http://www.w3.org/1999/xlink" x="0px" y="0px"
	 viewBox="0 0 252 144" style="enable-background:new 0 0 252 144;" xml:space="preserve">
<style type="text/css">
	.st0{fill:#303030;}
	.st1{fill:#EDBE7E;}
	.st2{fill:#C992DD;}
	.st3{fill:#E5AAC6;}
	.st4{fill:#EAD18B;}
	.st5{fill:#9F96E0;}
</style>
<g>
	<path class="st0" d="M176.8,115H75.2c-3.8,0-7.1-3.3-7.1-7.1V36.2c0-3.8,3.3-7.1,7.1-7.1h101.5c3.8,0,7.1,3.3,7.1,7.1v72
		C183.9,111.9,180.9,115,176.8,115z"/>
	<g>
		<path class="st1" d="M101.5,45.5H82.4c-1.1,0-2.2-1.1-2.2-2.2v-1.6c0-1.1,1.1-2.2,2.2-2.2h19.2c1.1,0,2.2,1.1,2.2,2.2v1.6
			C103.7,44.6,102.6,45.5,101.5,45.5z"/>
		<path class="st2" d="M128.9,57.2H90c-1.1,0-2.2-1.1-2.2-2.2v-1.4c0-1.1,1.1-2.2,2.2-2.2h38.9c1.1,0,2.2,1.1,2.2,2.2v1.6
			C131.1,56.4,130,57.2,128.9,57.2z"/>
		<path class="st3" d="M136.8,68.7H98c-1.1,0-2.2-1.1-2.2-2.2v-1.6c0-1.1,1.1-2.2,2.2-2.2h38.9c1.1,0,2.2,1.1,2.2,2.2v1.6
			C139,67.6,137.9,68.7,136.8,68.7z"/>
		<path class="st2" d="M128.9,92.5H90c-1.1,0-2.2-1.1-2.2-2.2v-1.6c0-1.1,1.1-2.2,2.2-2.2h38.9c1.1,0,2.2,1.1,2.2,2.2v1.6
			C131.1,91.7,130,92.5,128.9,92.5z"/>
		<path class="st3" d="M160.9,80.5H98c-1.1,0-2.2-1.1-2.2-2.2v-1.6c0-1.1,1.1-2.2,2.2-2.2h62.9c1.1,0,2.2,1.1,2.2,2.2v1.6
			C162.8,79.4,162,80.5,160.9,80.5z"/>
		<path class="st1" d="M101.5,104.3H82.4c-1.1,0-2.2-1.1-2.2-2.2v-1.6c0-1.1,1.1-2.2,2.2-2.2h19.2c1.1,0,2.2,1.1,2.2,2.2v1.6
			C103.7,103.5,102.6,104.3,101.5,104.3z"/>
		<path class="st4" d="M121.8,45.5h-12.9c-1.1,0-2.2-1.1-2.2-2.2v-1.6c0-1.1,1.1-2.2,2.2-2.2h12.9c1.1,0,2.2,1.1,2.2,2.2v1.6
			C123.9,44.6,122.9,45.5,121.8,45.5z"/>
		<path class="st5" d="M160.9,68.7h-16.7c-1.1,0-2.2-1.1-2.2-2.2v-1.9c0-1.1,1.1-2.2,2.2-2.2h16.7c1.1,0,2.2,1.1,2.2,2.2v1.9
			C162.8,67.6,162,68.7,160.9,68.7z"/>
	</g>
</g>
</svg>
