<?xml version="1.0" encoding="utf-8"?>
<!-- Generator: Adobe Illustrator 25.0.1, SVG Export Plug-In . SVG Version: 6.00 Build 0)  -->
<svg version="1.1" id="Layer_1" xmlns="http://www.w3.org/2000/svg" xmlns:xlink="http://www.w3.org/1999/xlink" x="0px" y="0px"
	 viewBox="0 0 252 144" style="enable-background:new 0 0 252 144;" xml:space="preserve">
<style type="text/css">
	.st0{fill:#F89839;}
	.st1{fill:none;stroke:#FFFFFF;stroke-width:0.25;stroke-linecap:round;stroke-miterlimit:10;}
	.st2{fill:#FED2A9;}
	.st3{fill:#FCBC70;}
	.st4{fill:#FFFFFF;stroke:#FFFFFF;stroke-miterlimit:10;}
	.st5{fill:none;stroke:#FFFFFF;stroke-width:6;stroke-miterlimit:10;}
	.st6{fill:#FBB040;}
	.st7{fill:#FFFFFF;}
	.st8{fill:#F89839;stroke:#F7941D;stroke-width:0.25;stroke-linecap:round;stroke-miterlimit:10;}
	.st9{fill:#F89839;stroke:#F7941D;stroke-width:0.25;stroke-miterlimit:10;}
	.st10{fill:#E8E1D4;}
	.st11{fill:none;stroke:#F7941D;stroke-width:0.5;stroke-miterlimit:10;}
	.st12{fill:none;stroke:#FED5AC;stroke-miterlimit:10;}
</style>
<g>
	<rect class="st0" width="252" height="144"/>
</g>
<path class="st1" d="M206.4,120.6"/>
<g>
	<g>
		<circle class="st2" cx="128.1" cy="73.9" r="48.7"/>
		<g>
			<path class="st2" d="M63,69h3.3l0.1,6.9H70l-0.1-5.1h3.2l0.1,5.1l6.8-0.1l0.1,4.1l-16.9,0.2L63,69z"/>
			<path class="st2" d="M68.9,59c-0.3-0.8-0.3-1.6-0.1-2.5l4.3,0.9l-0.2,1.1c-0.2,1-0.2,1.8,0.2,2.4c0.3,0.6,1,1,2.1,1.2l6.1,1.3
				l-0.9,4l-13.1-2.8l0.9-4l2.2,0.5C69.6,60.5,69.2,59.8,68.9,59z"/>
			<path class="st2" d="M72.9,53.8c-0.7-1-1.1-2-1.2-3c-0.1-1.1,0.1-2.1,0.6-3.1c0.4-0.8,1-1.5,1.6-1.9c0.7-0.5,1.4-0.7,2.1-0.8
				l-1.7-0.9l1.9-3.6l12,6.1l-1.9,3.6l-1.7-0.9c0.4,0.6,0.6,1.4,0.6,2.2S85,53.1,84.6,54c-0.5,1-1.2,1.7-2.1,2.3
				c-0.9,0.5-2,0.8-3.1,0.8c-1.2,0-2.4-0.3-3.6-1C74.5,55.5,73.6,54.7,72.9,53.8z M77.8,46.9c-0.8,0.2-1.4,0.7-1.7,1.4
				c-0.4,0.7-0.4,1.5-0.2,2.2c0.3,0.8,0.9,1.4,1.8,1.9s1.8,0.6,2.6,0.4c0.8-0.2,1.4-0.7,1.7-1.4c0.4-0.7,0.4-1.5,0.1-2.3
				s-0.9-1.4-1.8-1.9S78.6,46.6,77.8,46.9z"/>
			<path class="st2" d="M89.1,28.3c1.4,0.1,2.7,0.7,4,2l5.6,5.5l-3,2.9l-5.2-5.1c-0.6-0.6-1.3-1-2-1s-1.3,0.2-1.8,0.8
				c-0.6,0.6-0.8,1.2-0.8,1.9s0.4,1.3,1,2l5.2,5.1l-2.9,2.9l-9.5-9.6l2.9-2.9l1.3,1.3c-0.1-0.7-0.1-1.4,0.2-2.2
				c0.3-0.7,0.7-1.4,1.3-2C86.5,28.7,87.7,28.2,89.1,28.3z"/>
			<path class="st2" d="M107.2,31.1L101,28l2.6,5l-3.6,1.9l-8.3-15.8l3.6-1.9l4.6,8.7l1-6.7l4.5-2.4l-1.8,8.6l8.1,3.3L107.2,31.1z"
				/>
			<path class="st2" d="M123.4,20.6l-9.1,1.8c0.2,0.8,0.6,1.4,1.2,1.7c0.5,0.3,1.2,0.4,1.8,0.3c1-0.2,1.6-0.8,1.8-1.7l4.3-0.9
				c0,0.9-0.3,1.8-0.7,2.6c-0.4,0.8-1,1.5-1.8,2.1s-1.7,1-2.8,1.2c-1.3,0.3-2.5,0.2-3.6-0.1c-1.1-0.3-2.1-1-2.8-1.9
				c-0.8-0.9-1.3-2-1.6-3.4c-0.3-1.4-0.2-2.6,0.1-3.8c0.3-1.1,1-2.1,1.9-2.8c0.9-0.8,2-1.3,3.3-1.5c1.3-0.3,2.4-0.2,3.5,0.1
				s2,0.9,2.8,1.8c0.8,0.9,1.3,2,1.5,3.3C123.3,19.8,123.3,20.2,123.4,20.6z M118.9,19.2c-0.1-0.7-0.5-1.2-1-1.5
				c-0.6-0.3-1.2-0.4-1.9-0.3c-0.7,0.1-1.2,0.4-1.6,0.9s-0.6,1.1-0.5,1.8L118.9,19.2z"/>
			<path class="st2" d="M138.6,15.4c0.8,1.1,1.2,2.5,1,4.3l-0.8,7.8l-4.1-0.4l0.7-7.3c0.1-0.9-0.1-1.6-0.5-2.2
				c-0.4-0.5-1-0.8-1.8-0.9s-1.4,0.1-1.9,0.6s-0.8,1.1-0.9,2l-0.7,7.3l-4.1-0.4l1.3-13.4l4.1,0.4l-0.2,1.8c0.5-0.6,1.1-1,1.8-1.2
				s1.5-0.4,2.4-0.3C136.6,13.6,137.8,14.3,138.6,15.4z"/>
			<path class="st2" d="M142.8,28.6c-0.7-0.7-1.2-1.5-1.4-2.3s-0.2-1.7,0-2.5l3.8,1.5c-0.1,0.5-0.1,0.9,0.2,1.3
				c0.2,0.4,0.6,0.7,1.2,0.9c0.5,0.2,0.9,0.2,1.2,0.2c0.3-0.1,0.6-0.3,0.7-0.6c0.1-0.4,0.1-0.7-0.2-1s-0.8-0.7-1.6-1.3
				c-0.8-0.6-1.5-1.1-2-1.5c-0.5-0.5-0.9-1-1.1-1.7c-0.2-0.7-0.2-1.4,0.2-2.3c0.3-0.7,0.7-1.3,1.4-1.7c0.6-0.4,1.4-0.7,2.3-0.7
				c0.9,0,1.9,0.2,2.9,0.6c1.6,0.6,2.6,1.5,3.2,2.6s0.7,2.4,0.3,3.7l-3.5-1.4c0.1-0.5,0.1-0.9-0.2-1.3c-0.2-0.4-0.6-0.7-1.1-0.9
				c-0.4-0.2-0.8-0.2-1.1-0.2c-0.3,0.1-0.5,0.3-0.6,0.6c-0.1,0.4-0.1,0.7,0.2,1s0.8,0.7,1.6,1.2c0.8,0.6,1.5,1.1,2,1.6
				s0.8,1,1.1,1.7c0.2,0.7,0.2,1.5-0.1,2.3c-0.3,0.7-0.8,1.3-1.4,1.7c-0.6,0.4-1.4,0.6-2.3,0.6c-0.9,0-1.8-0.2-2.9-0.6
				C144.4,29.9,143.5,29.3,142.8,28.6z"/>
			<path class="st2" d="M159.9,34.4l-2,2.9l-1.7-1.2c-1.2-0.8-2-1.8-2.2-2.9s0.1-2.3,1-3.7l3-4.4l-1.3-0.9l1.9-2.8l1.3,0.9l1.8-2.7
				l3.4,2.3l-1.9,2.7l2.2,1.5l-1.9,2.8l-2.2-1.5l-3,4.4c-0.2,0.3-0.3,0.6-0.3,0.9c0.1,0.3,0.3,0.5,0.6,0.8L159.9,34.4z"/>
			<path class="st2" d="M171.8,43.5l-6.2-6.9c-0.6,0.6-0.9,1.2-0.9,1.9c0,0.6,0.2,1.2,0.7,1.7c0.7,0.8,1.5,1,2.4,0.7l2.9,3.2
				c-0.8,0.4-1.7,0.7-2.6,0.7s-1.8-0.1-2.7-0.5s-1.7-1-2.4-1.8c-0.9-1-1.5-2-1.7-3.2c-0.3-1.1-0.2-2.3,0.2-3.4
				c0.4-1.1,1.1-2.2,2.1-3.1c1-0.9,2.1-1.5,3.3-1.8s2.3-0.2,3.4,0.2c1.1,0.4,2.1,1.1,3,2c0.9,1,1.4,2,1.7,3.1s0.2,2.2-0.1,3.3
				s-1.1,2.1-2.1,3C172.5,43,172.1,43.3,171.8,43.5z M170.7,38.9c0.5-0.5,0.8-1,0.8-1.7c0-0.6-0.3-1.2-0.7-1.8
				c-0.5-0.5-1-0.8-1.6-0.9s-1.2,0.1-1.9,0.5L170.7,38.9z"/>
			<path class="st2" d="M181.6,45.5L170,52.2l-2.1-3.5l11.6-6.7L181.6,45.5z M181.5,41.2c0.1-0.6,0.5-1.1,1-1.4
				c0.6-0.3,1.1-0.4,1.7-0.2c0.6,0.2,1.1,0.6,1.4,1.2c0.4,0.6,0.5,1.2,0.3,1.8c-0.1,0.6-0.5,1.1-1,1.4c-0.5,0.3-1.1,0.4-1.7,0.2
				c-0.6-0.2-1.1-0.6-1.4-1.2C181.5,42.4,181.4,41.8,181.5,41.2z"/>
			<path class="st2" d="M186.4,61.7c-0.7,1.2-1.9,2.1-3.6,2.6l-7.5,2.3l-1.2-3.9l7-2.2c0.9-0.3,1.5-0.7,1.8-1.3s0.4-1.3,0.2-2
				s-0.7-1.3-1.3-1.6s-1.3-0.3-2.2,0l-7,2.2l-1.2-3.9l12.8-4l1.2,3.9l-1.7,0.5c0.7,0.2,1.3,0.6,1.8,1.2c0.5,0.6,0.9,1.3,1.2,2.1
				C187.2,59.2,187.1,60.5,186.4,61.7z"/>
			<path class="st2" d="M175.8,70.7c0.4-0.9,0.9-1.6,1.6-2.2c0.7-0.5,1.5-0.9,2.3-0.9l0.1,4c-0.5,0.1-0.8,0.3-1.1,0.7
				c-0.3,0.4-0.4,0.9-0.4,1.4s0.1,0.9,0.3,1.2c0.2,0.3,0.5,0.4,0.8,0.4c0.4,0,0.7-0.2,0.8-0.6c0.2-0.4,0.4-1.1,0.6-2
				c0.2-1,0.4-1.8,0.7-2.4c0.2-0.6,0.6-1.2,1.1-1.7s1.3-0.7,2.2-0.7c0.8,0,1.5,0.2,2.1,0.6s1.2,1,1.5,1.8c0.4,0.8,0.6,1.8,0.6,2.9
				c0,1.7-0.4,3-1.2,4s-1.9,1.6-3.3,1.7l-0.1-3.8c0.5-0.1,0.8-0.3,1.1-0.6c0.3-0.3,0.4-0.8,0.4-1.4c0-0.5-0.1-0.8-0.3-1.1
				c-0.2-0.3-0.4-0.4-0.8-0.4c-0.4,0-0.7,0.2-0.9,0.6s-0.4,1.1-0.5,1.9c-0.2,1-0.5,1.8-0.7,2.4s-0.6,1.2-1.2,1.7
				c-0.5,0.5-1.3,0.7-2.2,0.8c-0.8,0-1.5-0.2-2.1-0.6s-1.1-1-1.5-1.9c-0.4-0.8-0.6-1.8-0.6-2.9C175.2,72.7,175.4,71.6,175.8,70.7z"
				/>
		</g>
		<g>
			<path class="st3" d="M72.4,118.6c0.7-1.2,1.6-2.1,2.8-2.8c1.2-0.7,2.5-1,4-1c1.8,0,3.4,0.5,4.7,1.5c1.3,1,2.2,2.3,2.6,4h-4.1
				c-0.3-0.6-0.7-1.1-1.3-1.5c-0.6-0.3-1.2-0.5-1.9-0.5c-1.2,0-2.1,0.4-2.8,1.2s-1.1,1.9-1.1,3.2c0,1.3,0.4,2.4,1.1,3.2
				s1.7,1.2,2.8,1.2c0.7,0,1.4-0.2,1.9-0.5c0.6-0.3,1-0.8,1.3-1.5h4.1c-0.4,1.7-1.3,3-2.6,3.9c-1.3,1-2.9,1.4-4.7,1.4
				c-1.5,0-2.8-0.3-4-1s-2.1-1.6-2.8-2.8c-0.7-1.2-1-2.5-1-4.1S71.8,119.8,72.4,118.6z"/>
			<path class="st3" d="M94.3,118.6c0.7-0.4,1.4-0.6,2.2-0.6v4h-1c-0.9,0-1.6,0.2-2.1,0.6s-0.7,1.1-0.7,2.1v5.7h-3.8v-12.3h3.8v2
				C93,119.5,93.6,119,94.3,118.6z"/>
			<path class="st3" d="M98.2,120.9c0.5-1,1.1-1.7,1.9-2.2s1.7-0.8,2.8-0.8c0.9,0,1.6,0.2,2.3,0.5c0.7,0.4,1.2,0.8,1.5,1.4v-1.7h3.8
				v12.3h-3.8v-1.7c-0.4,0.6-0.9,1-1.5,1.4c-0.7,0.4-1.4,0.5-2.3,0.5c-1,0-1.9-0.3-2.7-0.8c-0.8-0.5-1.5-1.3-1.9-2.2
				c-0.5-1-0.7-2.1-0.7-3.3C97.5,123,97.8,121.9,98.2,120.9z M105.9,122.1c-0.5-0.5-1.2-0.8-1.9-0.8s-1.4,0.3-1.9,0.8
				s-0.8,1.3-0.8,2.2s0.3,1.7,0.8,2.2s1.2,0.8,1.9,0.8s1.4-0.3,1.9-0.8s0.8-1.3,0.8-2.2S106.4,122.6,105.9,122.1z"/>
			<path class="st3" d="M119.4,121.3h-2v9.2h-3.8v-9.2h-1.4v-3.1h1.4v-0.4c0-1.5,0.4-2.7,1.3-3.4c0.9-0.8,2.1-1.2,3.8-1.2
				c0.3,0,0.5,0,0.6,0v3.2c-0.7,0-1.2,0.1-1.5,0.3c-0.3,0.2-0.4,0.7-0.4,1.3v0.1h2V121.3z"/>
			<path class="st3" d="M128,127.2v3.2h-1.9c-1.4,0-2.4-0.3-3.2-1c-0.8-0.7-1.1-1.8-1.1-3.3v-4.9h-1.5v-3.1h1.5v-3h3.8v3h2.5v3.1
				h-2.5v4.9c0,0.4,0.1,0.6,0.3,0.8c0.2,0.2,0.5,0.2,0.9,0.2L128,127.2L128,127.2z"/>
			<path class="st3" d="M146.2,123.8c0.5,0.7,0.8,1.5,0.8,2.4c0,1.3-0.5,2.3-1.4,3.1s-2.2,1.1-3.8,1.1h-7.1V115h7
				c1.6,0,2.8,0.4,3.7,1.1s1.3,1.7,1.3,2.9c0,0.9-0.2,1.7-0.7,2.3s-1.1,1-1.9,1.3C145,122.7,145.7,123.1,146.2,123.8z M138.5,121.2
				h2.5c0.6,0,1.1-0.1,1.4-0.4s0.5-0.7,0.5-1.2s-0.2-0.9-0.5-1.2s-0.8-0.4-1.4-0.4h-2.5V121.2z M142.7,127c0.3-0.3,0.5-0.7,0.5-1.2
				s-0.2-1-0.5-1.3c-0.4-0.3-0.9-0.5-1.5-0.5h-2.7v3.4h2.8C141.9,127.4,142.4,127.2,142.7,127z"/>
			<path class="st3" d="M160.7,125.2h-8.5c0.1,0.8,0.3,1.3,0.7,1.7c0.4,0.4,1,0.6,1.6,0.6c0.9,0,1.6-0.4,2-1.2h4
				c-0.2,0.8-0.6,1.5-1.1,2.2c-0.5,0.7-1.2,1.2-2,1.5c-0.8,0.4-1.7,0.5-2.7,0.5c-1.2,0-2.3-0.3-3.2-0.8s-1.7-1.2-2.2-2.2
				c-0.5-1-0.8-2.1-0.8-3.3c0-1.3,0.3-2.4,0.8-3.3c0.5-1,1.2-1.7,2.2-2.2s2-0.8,3.2-0.8s2.2,0.2,3.2,0.7c0.9,0.5,1.6,1.2,2.2,2.1
				c0.5,0.9,0.8,2,0.8,3.2C160.8,124.4,160.8,124.8,160.7,125.2z M156.9,123.1c0-0.6-0.2-1.2-0.7-1.5c-0.4-0.4-1-0.6-1.6-0.6
				s-1.2,0.2-1.6,0.6c-0.4,0.4-0.7,0.9-0.8,1.6L156.9,123.1L156.9,123.1z"/>
			<path class="st3" d="M174.3,125.2h-8.5c0.1,0.8,0.3,1.3,0.7,1.7c0.4,0.4,1,0.6,1.6,0.6c0.9,0,1.6-0.4,2-1.2h4
				c-0.2,0.8-0.6,1.5-1.1,2.2c-0.5,0.7-1.2,1.2-2,1.5c-0.8,0.4-1.7,0.5-2.7,0.5c-1.2,0-2.3-0.3-3.2-0.8s-1.7-1.2-2.2-2.2
				c-0.5-1-0.8-2.1-0.8-3.3c0-1.3,0.3-2.4,0.8-3.3c0.5-1,1.2-1.7,2.2-2.2s2-0.8,3.2-0.8s2.2,0.2,3.2,0.7c0.9,0.5,1.6,1.2,2.2,2.1
				c0.5,0.9,0.8,2,0.8,3.2C174.3,124.4,174.3,124.8,174.3,125.2z M170.5,123.1c0-0.6-0.2-1.2-0.7-1.5c-0.4-0.4-1-0.6-1.6-0.6
				s-1.2,0.2-1.6,0.6c-0.4,0.4-0.7,0.9-0.8,1.6L170.5,123.1L170.5,123.1z"/>
			<path class="st3" d="M181.7,118.6c0.7-0.4,1.4-0.6,2.2-0.6v4h-1c-0.9,0-1.6,0.2-2.1,0.6s-0.7,1.1-0.7,2.1v5.7h-3.8v-12.3h3.8v2
				C180.5,119.5,181.1,119,181.7,118.6z"/>
		</g>
	</g>
	<g>
		<g>
			<g>
				<path class="st4" d="M139.3,104h-25c-4.1,0-7.4-3.3-7.4-7.4V57.3c0-4.1,3.3-7.4,7.4-7.4h25c4.1,0,7.4,3.3,7.4,7.4v39.3
					C146.7,100.7,143.4,104,139.3,104z"/>
				<path class="st4" d="M145.5,106.4h-37.3c-2,0-3.6-1.6-3.6-3.6v-0.1c0-2,1.6-3.6,3.6-3.6h37.3c2,0,3.6,1.6,3.6,3.6v0.1
					C149.1,104.7,147.5,106.4,145.5,106.4z"/>
				<path class="st5" d="M146.7,65.8c0,0,10.7-0.9,10.8,5.9c0.1,8,1.1,12.7-1.8,14.9c-2.8,2.2-9.1,1.7-9.1,1.7"/>
				<path class="st6" d="M136,99h-18.5c-3.9,0-7.1-3.2-7.1-7.1v-34c0-3.9,3.2-7.1,7.1-7.1H136c3.9,0,7.1,3.2,7.1,7.1v34
					C143.2,95.8,140,99,136,99z"/>
				<g>
					<path class="st7" d="M153.8,48.2c0.1-0.4,0.2-0.8,0.2-1.2c0-2.2-1.6-4-3.6-4.3c-0.5-2.1-2.4-3.6-4.6-3.6
						c-1.6,0-3.1,0.8-3.9,2.1c-1-0.5-2-0.8-3.2-0.8c-1,0-1.9,0.2-2.8,0.6c-0.6-1.2-1.8-2-3.2-2c-2,0-3.6,1.6-3.6,3.6c0,0,0,0,0,0
						c-0.2,0-0.4,0-0.6,0c-0.2,0-0.4,0-0.6,0c-0.3-0.7-1-1.3-1.8-1.3c-0.6,0-1,0.2-1.4,0.6c-1.3-1.8-3.4-2.9-5.8-2.9
						c-0.9,0-1.8,0.2-2.6,0.5c-0.5-1-1.5-1.7-2.7-1.7c-1.4,0-2.5,0.9-2.9,2.1c-0.6-0.6-1.5-1-2.4-1.1c-2.1-0.1-3.9,1.5-4,3.6
						c0,0.3,0,0.6,0.1,0.9c-1.6,1.2-2.7,3.1-2.7,5.3c0,1,0.2,1.9,0.6,2.7c-1,0.8-1.7,2-1.7,3.4c0,2.4,1.9,4.3,4.3,4.3
						c2.2,0,4-1.7,4.3-3.8c0.7-0.1,1.5-0.3,2.1-0.6c1,1.7,2.8,2.8,4.8,2.8c0.4,0,0.8,0,1.2-0.1c0,0,0,0.1,0,0.1
						c0,1.8,1.4,3.2,3.2,3.2s3.2-1.4,3.2-3.2c0-1.6-1.1-2.9-2.6-3.2c0.2-0.4,0.4-0.9,0.5-1.4c1-0.4,1.8-1,2.6-1.8
						c1,1.4,2.6,2.3,4.4,2.3c0.2,0,0.5,0,0.7-0.1c-0.1,0.3-0.1,0.5-0.1,0.8c0,2,1.6,3.6,3.6,3.6c1.9,0,3.5-1.5,3.6-3.5
						c0.8,0.3,1.6,0.4,2.5,0.4c1.4,0,2.7-0.4,3.7-1.1c0.6,2.2,2.6,3.7,5,3.7c2.6,0,4.7-1.9,5.1-4.4c0,0,0,0,0.1,0
						c1.4,0,2.6-1.2,2.6-2.6C155.1,49.4,154.6,48.6,153.8,48.2z"/>
					<path class="st7" d="M140.6,55.6c-1.1,0-2,0.9-2,2c0,1.1,0.9,2,2,2s2-0.9,2-2C142.6,56.5,141.7,55.6,140.6,55.6z"/>
					<path class="st7" d="M123,62.4c-1.1,0-2,0.9-2,2c0,1.1,0.9,2,2,2s2-0.9,2-2C125,63.3,124.1,62.4,123,62.4z"/>
					<path class="st7" d="M101.5,60c-1.1,0-2,0.9-2,2c0,1.1,0.9,2,2,2s2-0.9,2-2C103.5,60.9,102.6,60,101.5,60z"/>
				</g>
			</g>
			<g>
				<path class="st8" d="M112.1,72.4c0,0,3.3,2.5,1.7,7.4C113.7,79.8,110,77,112.1,72.4z"/>
				<line class="st8" x1="113.7" y1="79.8" x2="121.4" y2="104.9"/>
				<g>
					<path class="st8" d="M107.4,78.4c0,0,1.5,3.8,6.7,3.6C114.1,82,112.3,77.7,107.4,78.4z"/>
					<path class="st8" d="M107.5,83.1c0,0,2.4,3.4,7.4,1.9C114.8,85,112.1,81.2,107.5,83.1z"/>
					<path class="st8" d="M108.1,87.7c0,0,3.1,2.7,7.6,0C115.7,87.7,112.2,84.7,108.1,87.7z"/>
					<path class="st8" d="M109,91.6c0,0,3.3,2.4,7.6-0.6C116.6,91,112.8,88.3,109,91.6z"/>
					<path class="st8" d="M110.2,95.7c0,0,3.7,1.9,7.4-1.8C117.5,93.9,113.3,91.8,110.2,95.7z"/>
				</g>
				<g>
					<path class="st8" d="M118.2,75.1c0,0,0.9,4-3.5,6.7C114.7,81.8,113.7,77.3,118.2,75.1z"/>
					<path class="st8" d="M120.7,79.1c0,0-0.1,4.1-5,5.7C115.7,84.7,115.8,80.1,120.7,79.1z"/>
					<path class="st8" d="M122.8,83.2c0,0-1,4-6.2,4.3C116.5,87.5,117.8,83,122.8,83.2z"/>
					<path class="st8" d="M124.2,87c0,0-1.4,3.9-6.6,3.8C117.6,90.7,119.2,86.4,124.2,87z"/>
					<path class="st8" d="M125.6,91c0,0-2,3.6-7.1,2.6C118.5,93.6,120.8,89.6,125.6,91z"/>
				</g>
			</g>
		</g>
		<g>
			<path class="st9" d="M141.5,73c0,0-3.2,2.4-1.6,7.3C139.9,80.2,143.5,77.5,141.5,73z"/>
			<line class="st8" x1="139.9" y1="80.2" x2="132.3" y2="104.8"/>
			<g>
				<path class="st9" d="M146.1,78.8c0,0-1.4,3.8-6.6,3.5C139.6,82.4,141.3,78.1,146.1,78.8z"/>
				<path class="st9" d="M146,83.5c0,0-2.3,3.3-7.2,1.8C138.8,85.3,141.5,81.6,146,83.5z"/>
				<path class="st9" d="M145.4,87.9c0,0-3,2.6-7.4,0C137.9,88,141.4,85,145.4,87.9z"/>
				<path class="st9" d="M144.5,91.8c0,0-3.2,2.4-7.4-0.6C137.1,91.2,140.8,88.5,144.5,91.8z"/>
				<path class="st9" d="M143.4,95.8c0,0-3.6,1.8-7.2-1.8C136.2,94,140.3,92,143.4,95.8z"/>
			</g>
			<g>
				<path class="st9" d="M135.5,75.6c0,0-0.9,3.9,3.4,6.6C138.9,82.2,139.9,77.7,135.5,75.6z"/>
				<path class="st9" d="M133,79.5c0,0,0.1,4,4.9,5.5C137.9,85.1,137.8,80.5,133,79.5z"/>
				<path class="st9" d="M131,83.6c0,0,1,3.9,6.1,4.2C137.1,87.8,135.9,83.4,131,83.6z"/>
				<path class="st9" d="M129.6,87.2c0,0,1.3,3.8,6.4,3.7C136.1,90.9,134.5,86.6,129.6,87.2z"/>
				<path class="st9" d="M128.3,91.1c0,0,1.9,3.5,7,2.6C135.2,93.7,133,89.8,128.3,91.1z"/>
			</g>
		</g>
	</g>
</g>
<path class="st1" d="M45.2,119.3"/>
<path class="st10" d="M172,107.2"/>
<path class="st11" d="M171.7,54"/>
<path class="st11" d="M171.7,105.4"/>
<g>
	<g>
		<path class="st12" d="M107.6,80.2"/>
	</g>
</g>
</svg>
