<?xml version="1.0" encoding="utf-8"?>
<!-- Generator: Adobe Illustrator 25.3.1, SVG Export Plug-In . SVG Version: 6.00 Build 0)  -->
<svg version="1.1" id="Layer_1" xmlns="http://www.w3.org/2000/svg" xmlns:xlink="http://www.w3.org/1999/xlink" x="0px" y="0px"
	 viewBox="0 0 252 144" style="enable-background:new 0 0 252 144;" xml:space="preserve">
<style type="text/css">
	.st0{fill:none;stroke:#FFFFFF;stroke-width:0.25;stroke-linecap:round;stroke-miterlimit:10;}
	.st1{fill:#F7941D;}
	.st2{fill:#FFFFFF;stroke:#FFFFFF;stroke-miterlimit:10;}
	.st3{fill:none;stroke:#FFFFFF;stroke-width:6;stroke-miterlimit:10;}
	.st4{fill:#FBB040;}
	.st5{fill:#FFFFFF;}
	.st6{fill:#F89839;stroke:#F7941D;stroke-width:0.25;stroke-linecap:round;stroke-miterlimit:10;}
	.st7{fill:#F89839;stroke:#F7941D;stroke-width:0.25;stroke-miterlimit:10;}
	.st8{fill:#E8E1D4;}
	.st9{fill:none;stroke:#F7941D;stroke-width:0.5;stroke-miterlimit:10;}
	.st10{fill:none;stroke:#FED5AC;stroke-miterlimit:10;}
</style>
<path class="st0" d="M206.4,120.6"/>
<g>
	<g>
		<circle class="st1" cx="128.6" cy="79.7" r="60.7"/>
		<g>
			<path class="st1" d="M49.8,73.6h4.1l0.1,8.6h4.4l-0.1-6.4h3.9l0.1,6.4l8.3-0.1l0.1,5.1l-20.7,0.2L49.8,73.6z"/>
			<path class="st1" d="M57.1,61.2c-0.4-1-0.4-2-0.1-3.1l5.3,1.1L62,60.5c-0.2,1.2-0.2,2.2,0.2,3c0.4,0.7,1.2,1.2,2.6,1.5l7.5,1.6
				l-1.1,5l-16.1-3.5l1.1-5l2.7,0.6C57.9,63,57.5,62.2,57.1,61.2z"/>
			<path class="st1" d="M62,54.7c-0.9-1.2-1.4-2.5-1.5-3.7c-0.1-1.4,0.1-2.6,0.7-3.9c0.5-1,1.2-1.9,2-2.4c0.9-0.6,1.7-0.9,2.6-1
				l-2.1-1.1l2.3-4.5l14.7,7.6l-2.3,4.5l-2.1-1.1c0.5,0.7,0.7,1.7,0.7,2.7s-0.2,2-0.7,3.1c-0.6,1.2-1.5,2.1-2.6,2.9
				c-1.1,0.6-2.5,1-3.8,1c-1.5,0-2.9-0.4-4.4-1.2C64,56.8,62.9,55.8,62,54.7z M68,46.1c-1,0.2-1.7,0.9-2.1,1.7
				c-0.5,0.9-0.5,1.9-0.2,2.7c0.4,1,1.1,1.7,2.2,2.4c1.1,0.6,2.2,0.7,3.2,0.5c1-0.2,1.7-0.9,2.1-1.7c0.5-0.9,0.5-1.9,0.1-2.9
				s-1.1-1.7-2.2-2.4C70,45.8,69,45.7,68,46.1z"/>
			<path class="st1" d="M81.9,22.9c1.7,0.1,3.3,0.9,4.9,2.5l6.9,6.9L90,35.8l-6.4-6.4c-0.7-0.7-1.6-1.2-2.5-1.2s-1.6,0.2-2.2,1
				c-0.7,0.7-1,1.5-1,2.4s0.5,1.6,1.2,2.5l6.4,6.4L82,44.1l-11.7-12l3.6-3.6l1.6,1.6c-0.1-0.9-0.1-1.7,0.2-2.7
				c0.4-0.9,0.9-1.7,1.6-2.5C78.7,23.4,80.2,22.8,81.9,22.9z"/>
			<path class="st1" d="M104.1,26.4l-7.6-3.9l3.2,6.2l-4.4,2.4L85.1,11.4L89.5,9l5.6,10.8l1.2-8.4l5.5-3l-2.2,10.7l9.9,4.1
				L104.1,26.4z"/>
			<path class="st1" d="M124,13.3l-11.2,2.2c0.2,1,0.7,1.7,1.5,2.1c0.6,0.4,1.5,0.5,2.2,0.4c1.2-0.2,2-1,2.2-2.1l5.3-1.1
				c0,1.1-0.4,2.2-0.9,3.2c-0.5,1-1.2,1.9-2.2,2.6c-1,0.7-2.1,1.2-3.4,1.5c-1.6,0.4-3.1,0.2-4.4-0.1c-1.4-0.4-2.6-1.2-3.4-2.4
				c-1-1.1-1.6-2.5-2-4.2c-0.4-1.7-0.2-3.2,0.1-4.7c0.4-1.4,1.2-2.6,2.3-3.5c1.1-1,2.5-1.6,4.1-1.9c1.6-0.4,2.9-0.2,4.3,0.1
				c1.4,0.4,2.5,1.1,3.4,2.2c1,1.1,1.6,2.5,1.8,4.1C123.9,12.3,123.9,12.8,124,13.3z M118.5,11.5c-0.1-0.9-0.6-1.5-1.2-1.9
				c-0.7-0.4-1.5-0.5-2.3-0.4c-0.9,0.1-1.5,0.5-2,1.1c-0.5,0.6-0.7,1.4-0.6,2.2L118.5,11.5z"/>
			<path class="st1" d="M142.7,6.8c1,1.4,1.5,3.1,1.2,5.4l-1,9.7l-5-0.5l0.9-9.1c0.1-1.1-0.1-2-0.6-2.7c-0.5-0.6-1.2-1-2.2-1.1
				c-1-0.1-1.7,0.1-2.3,0.7c-0.6,0.6-1,1.4-1.1,2.5l-0.9,9.1l-5-0.5l1.6-16.7l5,0.5L133,6.3c0.6-0.7,1.4-1.2,2.2-1.5
				c0.9-0.2,1.8-0.5,2.9-0.4C140.2,4.6,141.7,5.4,142.7,6.8z"/>
			<path class="st1" d="M147.8,23.3c-0.9-0.9-1.5-1.9-1.7-2.9c-0.2-1-0.2-2.1,0-3.1l4.7,1.9c-0.1,0.6-0.1,1.1,0.2,1.6
				c0.2,0.5,0.7,0.9,1.5,1.1c0.6,0.2,1.1,0.2,1.5,0.2c0.4-0.1,0.7-0.4,0.9-0.7c0.1-0.5,0.1-0.9-0.2-1.2c-0.4-0.4-1-0.9-2-1.6
				c-1-0.7-1.8-1.4-2.5-1.9c-0.6-0.6-1.1-1.2-1.4-2.1c-0.2-0.9-0.2-1.7,0.2-2.9c0.4-0.9,0.9-1.6,1.7-2.1c0.7-0.5,1.7-0.9,2.8-0.9
				c1.1,0,2.3,0.2,3.6,0.7c2,0.7,3.2,1.9,3.9,3.2s0.9,3,0.4,4.6l-4.3-1.7c0.1-0.6,0.1-1.1-0.2-1.6c-0.2-0.5-0.7-0.9-1.4-1.1
				c-0.5-0.2-1-0.2-1.4-0.2c-0.4,0.1-0.6,0.4-0.7,0.7c-0.1,0.5-0.1,0.9,0.2,1.2c0.4,0.4,1,0.9,2,1.5c1,0.7,1.8,1.4,2.5,2
				s1,1.2,1.4,2.1c0.2,0.9,0.2,1.9-0.1,2.9c-0.4,0.9-1,1.6-1.7,2.1c-0.7,0.5-1.7,0.7-2.8,0.7c-1.1,0-2.2-0.2-3.6-0.7
				C149.8,24.9,148.7,24.1,147.8,23.3z"/>
			<path class="st1" d="M168.8,30.5l-2.5,3.6l-2.1-1.5c-1.5-1-2.5-2.2-2.7-3.6c-0.2-1.4,0.1-2.9,1.2-4.6l3.7-5.5l-1.6-1.1l2.3-3.5
				l1.6,1.1L171,12l4.2,2.9l-2.3,3.4l2.7,1.9l-2.3,3.5l-2.7-1.9l-3.7,5.5c-0.2,0.4-0.4,0.7-0.4,1.1c0.1,0.4,0.4,0.6,0.7,1
				L168.8,30.5z"/>
			<path class="st1" d="M183.4,41.8l-7.6-8.6c-0.7,0.7-1.1,1.5-1.1,2.4c0,0.7,0.2,1.5,0.9,2.1c0.9,1,1.8,1.2,2.9,0.9l3.6,4
				c-1,0.5-2.1,0.9-3.2,0.9c-1.1,0-2.2-0.1-3.3-0.6s-2.1-1.2-2.9-2.2c-1.1-1.2-1.8-2.5-2.1-4c-0.4-1.4-0.2-2.9,0.2-4.2
				c0.5-1.4,1.4-2.7,2.6-3.9c1.2-1.1,2.6-1.9,4.1-2.2s2.8-0.2,4.2,0.2c1.4,0.5,2.6,1.4,3.7,2.5c1.1,1.2,1.7,2.5,2.1,3.9
				c0.4,1.4,0.2,2.7-0.1,4.1c-0.4,1.4-1.4,2.6-2.6,3.7C184.3,41.2,183.8,41.6,183.4,41.8z M182.1,36.1c0.6-0.6,1-1.2,1-2.1
				c0-0.7-0.4-1.5-0.9-2.2c-0.6-0.6-1.2-1-2-1.1s-1.5,0.1-2.3,0.6L182.1,36.1z"/>
			<path class="st1" d="M195.5,44.3l-14.2,8.4l-2.6-4.4l14.2-8.4L195.5,44.3z M195.3,39c0.1-0.7,0.6-1.4,1.2-1.7
				c0.7-0.4,1.4-0.5,2.1-0.2c0.7,0.2,1.4,0.7,1.7,1.5c0.5,0.7,0.6,1.5,0.4,2.2c-0.1,0.7-0.6,1.4-1.2,1.7s-1.4,0.5-2.1,0.2
				c-0.7-0.2-1.4-0.7-1.7-1.5C195.3,40.5,195.2,39.7,195.3,39z"/>
			<path class="st1" d="M201.4,64.5c-0.9,1.5-2.3,2.6-4.4,3.2l-9.2,2.9l-1.5-4.9l8.6-2.7c1.1-0.4,1.8-0.9,2.2-1.6
				c0.4-0.7,0.5-1.6,0.2-2.5c-0.2-0.9-0.9-1.6-1.6-2s-1.6-0.4-2.7,0l-8.6,2.7l-1.5-4.9l15.7-5l1.5,4.9l-2.1,0.6
				c0.9,0.2,1.6,0.7,2.2,1.5c0.6,0.7,1.1,1.6,1.5,2.6C202.3,61.4,202.2,63,201.4,64.5z"/>
			<path class="st1" d="M188.3,75.7c0.5-1.1,1.1-2,2-2.7c0.9-0.6,1.8-1.1,2.8-1.1l0.1,5c-0.6,0.1-1,0.4-1.4,0.9
				c-0.4,0.5-0.5,1.1-0.5,1.7s0.1,1.1,0.4,1.5c0.2,0.4,0.6,0.5,1,0.5c0.5,0,0.9-0.2,1-0.7c0.2-0.5,0.5-1.4,0.7-2.5
				c0.2-1.2,0.5-2.2,0.9-3c0.2-0.7,0.7-1.5,1.4-2.1c0.6-0.6,1.6-0.9,2.7-0.9c1,0,1.8,0.2,2.6,0.7s1.5,1.2,1.8,2.2
				c0.5,1,0.7,2.2,0.7,3.6c0,2.1-0.5,3.7-1.5,5c-1,1.2-2.3,2-4.1,2.1l-0.1-4.7c0.6-0.1,1-0.4,1.4-0.7c0.4-0.4,0.5-1,0.5-1.7
				c0-0.6-0.1-1-0.4-1.4c-0.2-0.4-0.5-0.5-1-0.5c-0.5,0-0.9,0.2-1.1,0.7c-0.2,0.5-0.5,1.4-0.6,2.4c-0.2,1.2-0.6,2.2-0.9,3
				c-0.2,0.7-0.7,1.5-1.5,2.1c-0.6,0.6-1.6,0.9-2.7,1c-1,0-1.8-0.2-2.6-0.7s-1.4-1.2-1.8-2.4c-0.5-1-0.7-2.2-0.7-3.6
				C187.6,78.2,187.8,76.9,188.3,75.7z"/>
		</g>
	</g>
	<g>
		<g>
			<g>
				<path class="st2" d="M144.4,117.2h-34.8c-4.1,0-7.4-3.3-7.4-7.4V57.2c0-4.1,3.3-7.4,7.4-7.4h34.8c4.1,0,7.4,3.3,7.4,7.4v52.6
					C151.8,113.9,148.5,117.2,144.4,117.2z"/>
				<path class="st2" d="M151.2,120.2h-48.3c-2,0-3.6-1.6-3.6-3.6v-2c0-2,1.6-3.6,3.6-3.6h48.3c2,0,3.6,1.6,3.6,3.6v2
					C154.8,118.5,153.2,120.2,151.2,120.2z"/>
				<path class="st3" d="M151.8,69.6c0,0,13.4-1.2,13.5,7.4c0.2,10,1.4,15.8-2.2,18.6c-3.5,2.7-11.3,2.1-11.3,2.1"/>
				<path class="st4" d="M140.3,110.9h-26.6c-3.9,0-7.1-3.2-7.1-7.1V57.9c0-3.9,3.2-7.1,7.1-7.1h26.6c3.9,0,7.1,3.2,7.1,7.1v45.9
					C147.4,107.8,144.2,110.9,140.3,110.9z"/>
				<g>
					<path class="st5" d="M160.7,47.6c0.1-0.5,0.2-0.9,0.2-1.4c0-2.7-2-4.9-4.5-5.4c-0.7-2.6-3-4.5-5.8-4.5c-2,0-3.8,1-4.9,2.6
						c-1.2-0.6-2.6-1-4-1c-1.2,0-2.4,0.3-3.5,0.7c-0.7-1.5-2.2-2.5-4-2.5c-2.5,0-4.5,2-4.5,4.5c0,0,0,0,0,0c-0.3,0-0.5,0-0.8,0
						c-0.3,0-0.5,0-0.8,0.1c-0.4-0.9-1.2-1.6-2.3-1.6c-0.7,0-1.3,0.3-1.8,0.7c-1.6-2.2-4.3-3.7-7.2-3.7c-1.1,0-2.2,0.2-3.3,0.6
						c-0.6-1.2-1.9-2.1-3.4-2.1c-1.7,0-3.1,1.1-3.6,2.6c-0.8-0.8-1.8-1.3-3-1.4c-2.6-0.2-4.9,1.8-5,4.5c0,0.4,0,0.8,0.1,1.1
						c-2,1.5-3.3,3.9-3.3,6.6c0,1.2,0.3,2.4,0.7,3.4c-1.2,1-2.1,2.5-2.1,4.2c0,3,2.4,5.4,5.4,5.4c2.8,0,5-2.1,5.3-4.7
						c0.9-0.1,1.8-0.4,2.6-0.8c1.2,2.1,3.5,3.5,6,3.5c0.5,0,1-0.1,1.5-0.2c0,0.1,0,0.1,0,0.2c0,2.2,1.8,4,4,4c2.2,0,4-1.8,4-4
						c0-1.9-1.4-3.6-3.2-3.9c0.3-0.5,0.5-1.1,0.6-1.7c1.2-0.5,2.3-1.3,3.2-2.2c1.2,1.7,3.2,2.9,5.5,2.9c0.3,0,0.6,0,0.9-0.1
						c-0.1,0.3-0.1,0.7-0.1,1c0,2.5,2,4.5,4.5,4.5c2.4,0,4.4-1.9,4.4-4.3c1,0.4,2,0.6,3.1,0.6c1.7,0,3.3-0.5,4.7-1.3
						c0.8,2.7,3.3,4.7,6.2,4.7c3.2,0,5.9-2.4,6.4-5.5c0,0,0.1,0,0.1,0c1.8,0,3.2-1.4,3.2-3.2C162.2,49.2,161.6,48.2,160.7,47.6z"/>
					<path class="st5" d="M144.2,56.9c-1.4,0-2.5,1.1-2.5,2.5c0,1.4,1.1,2.5,2.5,2.5s2.5-1.1,2.5-2.5
						C146.7,58,145.6,56.9,144.2,56.9z"/>
					<path class="st5" d="M122.2,65.4c-1.4,0-2.5,1.1-2.5,2.5s1.1,2.5,2.5,2.5s2.5-1.1,2.5-2.5S123.6,65.4,122.2,65.4z"/>
					<path class="st5" d="M95.4,62.4c-1.4,0-2.5,1.1-2.5,2.5s1.1,2.5,2.5,2.5s2.5-1.1,2.5-2.5S96.9,62.4,95.4,62.4z"/>
				</g>
			</g>
			<g>
				<path class="st6" d="M108.7,77.8c0,0,4.1,3.1,2.1,9.2C110.7,87.1,106.1,83.5,108.7,77.8z"/>
				<line class="st6" x1="110.7" y1="87.1" x2="120.3" y2="118.4"/>
				<g>
					<path class="st6" d="M102.8,85.3c0,0,1.8,4.8,8.3,4.5C111.1,89.8,108.9,84.4,102.8,85.3z"/>
					<path class="st6" d="M102.9,91.2c0,0,3,4.2,9.2,2.3C112.1,93.5,108.7,88.8,102.9,91.2z"/>
					<path class="st6" d="M103.7,96.9c0,0,3.9,3.4,9.5,0C113.2,96.9,108.7,93.2,103.7,96.9z"/>
					<path class="st6" d="M104.9,101.7c0,0,4.1,3,9.4-0.7C114.3,101,109.6,97.6,104.9,101.7z"/>
					<path class="st6" d="M106.3,106.8c0,0,4.6,2.3,9.2-2.3C115.5,104.6,110.2,102,106.3,106.8z"/>
				</g>
				<g>
					<path class="st6" d="M116.3,81.2c0,0,1.2,5-4.4,8.4C111.9,89.6,110.6,83.9,116.3,81.2z"/>
					<path class="st6" d="M119.4,86.1c0,0-0.1,5.1-6.3,7.1C113.2,93.2,113.3,87.4,119.4,86.1z"/>
					<path class="st6" d="M122,91.3c0,0-1.3,5-7.8,5.3C114.2,96.6,115.7,91,122,91.3z"/>
					<path class="st6" d="M123.8,96c0,0-1.7,4.8-8.2,4.7C115.6,100.7,117.6,95.2,123.8,96z"/>
					<path class="st6" d="M125.5,101c0,0-2.5,4.5-8.9,3.3C116.6,104.3,119.5,99.2,125.5,101z"/>
				</g>
			</g>
		</g>
		<g>
			<path class="st7" d="M145.3,78.5c0,0-4,3-2,9C143.3,87.6,147.8,84.1,145.3,78.5z"/>
			<line class="st6" x1="143.3" y1="87.6" x2="133.9" y2="118.2"/>
			<g>
				<path class="st7" d="M151.1,85.9c0,0-1.8,4.7-8.2,4.4C142.9,90.2,145,84.9,151.1,85.9z"/>
				<path class="st7" d="M150.9,91.6c0,0-2.9,4.1-9,2.3C141.9,93.9,145.3,89.3,150.9,91.6z"/>
				<path class="st7" d="M150.1,97.2c0,0-3.8,3.3-9.3,0C140.9,97.2,145.2,93.5,150.1,97.2z"/>
				<path class="st7" d="M149,101.9c0,0-4,3-9.2-0.7C139.8,101.2,144.4,97.9,149,101.9z"/>
				<path class="st7" d="M147.7,106.9c0,0-4.5,2.3-9-2.2C138.7,104.7,143.8,102.2,147.7,106.9z"/>
			</g>
			<g>
				<path class="st7" d="M137.9,81.8c0,0-1.1,4.9,4.3,8.2C142.1,90,143.4,84.5,137.9,81.8z"/>
				<path class="st7" d="M134.8,86.7c0,0,0.1,5,6.1,6.9C140.9,93.6,140.7,87.9,134.8,86.7z"/>
				<path class="st7" d="M132.3,91.7c0,0,1.3,4.9,7.6,5.2C139.9,97,138.4,91.5,132.3,91.7z"/>
				<path class="st7" d="M130.5,96.3c0,0,1.7,4.7,8,4.6C138.5,100.9,136.6,95.5,130.5,96.3z"/>
				<path class="st7" d="M128.8,101.2c0,0,2.4,4.4,8.7,3.2C137.5,104.4,134.7,99.5,128.8,101.2z"/>
			</g>
		</g>
	</g>
</g>
<path class="st0" d="M45.2,119.3"/>
<path class="st8" d="M172,107.2"/>
<path class="st9" d="M171.7,54"/>
<path class="st9" d="M171.7,105.4"/>
<g>
	<g>
		<path class="st10" d="M107.6,80.2"/>
	</g>
</g>
</svg>
