<?xml version="1.0" encoding="utf-8"?>
<!-- Generator: Adobe Illustrator 25.0.1, SVG Export Plug-In . SVG Version: 6.00 Build 0)  -->
<svg version="1.1" id="Layer_1" xmlns="http://www.w3.org/2000/svg" xmlns:xlink="http://www.w3.org/1999/xlink" x="0px" y="0px"
	 viewBox="0 0 252 144" style="enable-background:new 0 0 252 144;" xml:space="preserve">
<style type="text/css">
	.st0{fill:#2A2B2B;stroke:#2A2B2B;stroke-miterlimit:10;}
	.st1{fill:none;stroke:#FFFFFF;stroke-miterlimit:10;}
	.st2{fill:#E0F9D7;stroke:#E0F9D7;stroke-width:0.5;stroke-miterlimit:10;}
	.st3{fill:#8BFF31;stroke:#8BFF31;stroke-miterlimit:10;}
	.st4{fill:none;stroke:#E0F9D7;stroke-width:0.5;stroke-miterlimit:10;}
	.st5{opacity:0.7;fill:#8BFF31;stroke:#8BFF31;stroke-miterlimit:10;}
	.st6{opacity:0.74;fill:#70F987;stroke:#70F987;stroke-width:0.5;stroke-miterlimit:10;}
	.st7{opacity:0.23;fill:#8BFF31;stroke:#8BFF31;stroke-miterlimit:10;}
	.st8{opacity:0.13;fill:#8BFF31;stroke:#8BFF31;stroke-miterlimit:10;}
	.st9{opacity:0.55;fill:#8BFF31;stroke:#8BFF31;stroke-miterlimit:10;}
	.st10{opacity:0.22;fill:#8BFF31;stroke:#8BFF31;stroke-miterlimit:10;}
	.st11{opacity:0.12;fill:#8BFF31;stroke:#8BFF31;stroke-miterlimit:10;}
</style>
<rect x="0" y="-0.15" class="st0" width="252" height="144"/>
<path class="st1" d="M130.78,66.91"/>
<g>
	<g>
		<path class="st2" d="M50.12,41.97h11.77v1.32h-10.2v8.53h9.33v1.32h-9.33v10.52h-1.58V41.97z"/>
		<path class="st2" d="M66.69,63.65V48.21h1.58v15.44H66.69z"/>
		<path class="st2" d="M75.22,53.2c0-1.67-0.03-3.31-0.13-4.99h1.45l0.06,3.35h0.1c0.77-2.16,2.45-3.73,4.73-3.73
			c0.26,0,0.51,0.03,0.74,0.1v1.45c-0.29-0.06-0.55-0.06-0.9-0.06c-2.16,0-3.8,1.8-4.31,4.47c-0.1,0.45-0.16,1-0.16,1.51v8.36h-1.58
			V53.2z"/>
		<path class="st2" d="M86.64,55.93c0,4.5,2.86,6.76,6.53,6.76c2.67,0,3.96-0.51,4.95-0.96l0.42,1.25
			c-0.55,0.26-2.28,1.06-5.53,1.06c-4.79,0-7.91-3.25-7.91-7.72c0-5.24,3.35-8.49,7.72-8.49c5.73,0,6.72,5.08,6.72,7.14
			c0,0.48,0,0.71-0.06,0.96H86.64z M97.9,54.68c0.03-1.61-0.64-5.57-5.28-5.57c-3.92,0-5.57,3.22-5.89,5.57H97.9z"/>
		<path class="st2" d="M105.11,63.65V49.47h-2.35v-1.25h2.35v-0.58c0-2.57,0.74-4.5,2.22-5.85c1.09-0.97,2.61-1.54,4.76-1.54
			c1.64,0,3.09,0.35,4.09,0.87v22.55h-1.58V42.07c-0.58-0.29-1.42-0.51-2.83-0.51c-3.89,0-5.08,2.77-5.08,5.82v0.84h4.54v1.25h-4.54
			v14.19H105.11z"/>
		<path class="st2" d="M122.29,48.21l4.6,10.33c0.45,1,0.97,2.28,1.26,3.25h0.06c0.35-0.97,0.77-2.12,1.29-3.38l4.31-10.2h1.71
			l-5.47,12.48c-2.12,4.89-3.51,7.3-5.57,8.78c-1.32,0.96-2.51,1.32-2.83,1.38l-0.42-1.32c0.77-0.22,1.87-0.68,2.83-1.51
			c0.8-0.68,1.99-1.96,2.96-4.15c0.13-0.29,0.19-0.48,0.19-0.61c0-0.13-0.06-0.35-0.23-0.71l-6.4-14.35H122.29z"/>
	</g>
	<g>
		<g>
			<path class="st3" d="M62.45,79.56c-0.57-0.79-1.3-1.43-2.19-1.91c-0.89-0.48-1.96-0.72-3.22-0.72c-0.64,0-1.3,0.1-1.96,0.3
				c-0.67,0.2-1.27,0.5-1.82,0.91c-0.54,0.41-0.98,0.92-1.32,1.54c-0.33,0.62-0.5,1.35-0.5,2.19c0,0.84,0.16,1.53,0.48,2.08
				c0.32,0.54,0.75,1.01,1.28,1.39c0.53,0.38,1.13,0.7,1.81,0.95c0.68,0.25,1.39,0.49,2.13,0.74c0.91,0.3,1.83,0.62,2.75,0.96
				c0.92,0.35,1.76,0.8,2.5,1.35c0.74,0.56,1.34,1.26,1.81,2.11c0.47,0.85,0.7,1.93,0.7,3.24c0,1.31-0.25,2.44-0.75,3.39
				c-0.5,0.95-1.15,1.74-1.95,2.35c-0.8,0.62-1.71,1.08-2.73,1.37c-1.03,0.3-2.06,0.45-3.09,0.45c-0.79,0-1.58-0.08-2.37-0.24
				c-0.79-0.16-1.54-0.4-2.26-0.72c-0.72-0.32-1.38-0.73-2-1.22c-0.62-0.49-1.16-1.06-1.63-1.71l2.3-1.7
				c0.57,0.94,1.36,1.72,2.39,2.35c1.03,0.63,2.23,0.95,3.61,0.95c0.67,0,1.35-0.11,2.04-0.32c0.69-0.21,1.32-0.53,1.87-0.96
				c0.56-0.43,1.01-0.96,1.37-1.59c0.36-0.63,0.54-1.37,0.54-2.21c0-0.91-0.18-1.67-0.54-2.28c-0.36-0.61-0.83-1.11-1.43-1.52
				c-0.59-0.41-1.27-0.75-2.04-1.02c-0.77-0.27-1.57-0.54-2.41-0.82c-0.87-0.27-1.72-0.58-2.56-0.93c-0.84-0.35-1.59-0.8-2.26-1.35
				c-0.67-0.56-1.2-1.24-1.61-2.06c-0.41-0.82-0.61-1.82-0.61-3c0-1.26,0.25-2.35,0.76-3.26c0.51-0.91,1.17-1.67,1.98-2.26
				c0.82-0.59,1.72-1.03,2.71-1.3c0.99-0.27,1.96-0.41,2.93-0.41c1.78,0,3.3,0.32,4.56,0.95c1.26,0.63,2.21,1.38,2.85,2.24
				L62.45,79.56z"/>
			<path class="st3" d="M83.65,86.35h-4.89v10.12c0,0.64,0.06,1.17,0.19,1.59c0.12,0.42,0.3,0.75,0.54,0.98
				c0.23,0.23,0.51,0.39,0.83,0.48c0.32,0.09,0.67,0.13,1.04,0.13c0.35,0,0.71-0.05,1.09-0.15c0.38-0.1,0.75-0.23,1.09-0.41
				l0.11,2.19c-0.44,0.17-0.91,0.3-1.39,0.39c-0.48,0.09-1.01,0.13-1.57,0.13c-0.47,0-0.96-0.06-1.48-0.19s-1-0.36-1.45-0.7
				c-0.44-0.35-0.81-0.82-1.09-1.41c-0.28-0.59-0.43-1.37-0.43-2.34V86.35h-3.6v-2.11h3.6v-4.89h2.52v4.89h4.89V86.35z"/>
			<path class="st3" d="M105.74,101.58c-0.05-0.47-0.09-0.99-0.11-1.56c-0.02-0.57-0.04-1.04-0.04-1.41h-0.07
				c-0.49,1.01-1.3,1.83-2.41,2.46c-1.11,0.63-2.29,0.95-3.52,0.95c-2.2,0-3.85-0.65-4.95-1.96c-1.1-1.31-1.65-3.04-1.65-5.19V84.23
				h2.52v9.6c0,0.91,0.07,1.74,0.22,2.48c0.15,0.74,0.4,1.38,0.76,1.91c0.36,0.53,0.84,0.95,1.45,1.24c0.6,0.3,1.36,0.44,2.28,0.44
				c0.67,0,1.32-0.13,1.95-0.41c0.63-0.27,1.19-0.69,1.69-1.24c0.49-0.56,0.89-1.26,1.19-2.11c0.3-0.85,0.45-1.86,0.45-3.02v-8.9
				H108v13.53c0,0.47,0.01,1.08,0.04,1.82c0.02,0.74,0.06,1.41,0.11,2H105.74z"/>
			<path class="st3" d="M134.51,98.65c-0.74,1.11-1.71,1.95-2.89,2.52c-1.19,0.57-2.41,0.85-3.67,0.85c-1.36,0-2.59-0.24-3.69-0.7
				c-1.1-0.47-2.04-1.11-2.82-1.93c-0.78-0.82-1.38-1.78-1.82-2.89c-0.43-1.11-0.65-2.31-0.65-3.6c0-1.28,0.22-2.48,0.65-3.6
				c0.43-1.11,1.04-2.08,1.82-2.89c0.78-0.82,1.72-1.46,2.82-1.93c1.1-0.47,2.33-0.7,3.69-0.7c1.26,0,2.48,0.29,3.67,0.87
				c1.19,0.58,2.15,1.44,2.89,2.58h0.07V73.56h2.52v28.02h-2.52v-2.93H134.51z M121.64,92.91c0,0.96,0.15,1.87,0.45,2.72
				c0.3,0.85,0.72,1.59,1.28,2.22c0.56,0.63,1.24,1.12,2.06,1.48c0.82,0.36,1.74,0.54,2.78,0.54c0.96,0,1.85-0.18,2.67-0.54
				c0.82-0.36,1.52-0.85,2.11-1.46c0.59-0.62,1.06-1.35,1.39-2.2c0.33-0.85,0.5-1.77,0.5-2.76c0-0.99-0.17-1.91-0.5-2.76
				c-0.33-0.85-0.8-1.59-1.39-2.22c-0.59-0.63-1.3-1.12-2.11-1.48s-1.7-0.54-2.67-0.54c-1.04,0-1.96,0.19-2.78,0.56
				c-0.82,0.37-1.5,0.87-2.06,1.5c-0.56,0.63-0.98,1.37-1.28,2.22C121.79,91.04,121.64,91.94,121.64,92.91z"/>
			<path class="st3" d="M152.48,77.56c0,0.52-0.19,0.95-0.56,1.28c-0.37,0.33-0.78,0.5-1.22,0.5s-0.85-0.17-1.22-0.5
				c-0.37-0.33-0.56-0.76-0.56-1.28c0-0.52,0.19-0.95,0.56-1.28c0.37-0.33,0.78-0.5,1.22-0.5s0.85,0.17,1.22,0.5
				C152.3,76.62,152.48,77.04,152.48,77.56z M151.96,101.58h-2.52V84.23h2.52V101.58z"/>
			<path class="st3" d="M201.67,88.35c-0.37-0.72-0.93-1.3-1.69-1.76c-0.75-0.46-1.61-0.69-2.58-0.69c-0.45,0-0.89,0.05-1.33,0.15
				c-0.45,0.1-0.84,0.26-1.19,0.48c-0.35,0.22-0.62,0.51-0.83,0.85c-0.21,0.35-0.32,0.75-0.32,1.22c0,0.82,0.33,1.44,1,1.87
				c0.67,0.43,1.72,0.8,3.15,1.09c2.05,0.42,3.56,1.03,4.54,1.83c0.98,0.8,1.46,1.88,1.46,3.24c0,0.99-0.19,1.82-0.57,2.5
				c-0.38,0.68-0.88,1.24-1.5,1.67c-0.62,0.43-1.32,0.74-2.09,0.93c-0.78,0.19-1.56,0.28-2.35,0.28c-1.31,0-2.58-0.27-3.82-0.82
				c-1.24-0.54-2.25-1.4-3.04-2.56l2-1.48c0.45,0.77,1.1,1.41,1.96,1.93c0.86,0.52,1.82,0.78,2.85,0.78c0.54,0,1.06-0.05,1.56-0.15
				c0.49-0.1,0.93-0.27,1.3-0.52c0.37-0.25,0.67-0.56,0.89-0.95c0.22-0.38,0.33-0.86,0.33-1.43c0-0.91-0.44-1.6-1.32-2.06
				c-0.88-0.46-2.14-0.88-3.8-1.28c-0.52-0.12-1.07-0.28-1.65-0.46c-0.58-0.19-1.12-0.46-1.61-0.82c-0.49-0.36-0.9-0.81-1.22-1.35
				c-0.32-0.54-0.48-1.22-0.48-2.04c0-0.89,0.17-1.65,0.52-2.28c0.35-0.63,0.81-1.15,1.39-1.56c0.58-0.41,1.24-0.71,1.98-0.91
				c0.74-0.2,1.51-0.3,2.3-0.3c1.21,0,2.38,0.27,3.52,0.82c1.14,0.54,1.99,1.31,2.56,2.3L201.67,88.35z"/>
		</g>
		<g>
			<ellipse class="st2" cx="172.3" cy="81.1" rx="3.67" ry="7.74"/>
			<line class="st4" x1="173.55" y1="71.61" x2="174.68" y2="69.44"/>
			<line class="st4" x1="170.92" y1="71.7" x2="169.75" y2="69.44"/>
			<circle class="st2" cx="169.52" cy="69.01" r="0.49"/>
			<circle class="st2" cx="174.91" cy="69.01" r="0.49"/>
			<circle class="st2" cx="172.3" cy="73.92" r="2.62"/>
			<path class="st5" d="M173.61,78.28v-3.17c0-0.97,1.25-1.75,2.79-1.75h0.03c2.12,0,4.16,0.5,5.71,1.4l0,0
				c1.65,0.95,1.61,2.59-0.07,3.51h0c-1.71,0.93-3.9,1.45-6.17,1.45l0,0C174.64,79.72,173.61,79.08,173.61,78.28z"/>
			<path class="st6" d="M173.52,77.72l1.35-2.52c0.41-0.77,1.58-0.95,2.6-0.4l0.02,0.01c1.41,0.75,2.56,1.87,3.21,3.14l0,0
				c0.7,1.34-0.02,2.63-1.54,2.77h0c-1.54,0.14-3.21-0.23-4.73-1.04h0C173.59,79.23,173.18,78.35,173.52,77.72z"/>
			<path class="st5" d="M171.09,78.28v-3.17c0-0.97-1.25-1.75-2.79-1.75h-0.03c-2.12,0-4.16,0.5-5.71,1.4l0,0
				c-1.65,0.95-1.61,2.59,0.07,3.51h0c1.71,0.93,3.9,1.45,6.17,1.45l0,0C170.06,79.72,171.09,79.08,171.09,78.28z"/>
			<circle class="st7" cx="172.3" cy="92.94" r="9.35"/>
			<circle class="st8" cx="172.3" cy="92.94" r="12.27"/>
			<circle class="st9" cx="172.3" cy="92.86" r="7.02"/>
			<circle class="st3" cx="172.35" cy="92.86" r="5.06"/>
			<path class="st6" d="M171.17,77.72l-1.35-2.52c-0.41-0.77-1.58-0.95-2.6-0.4l-0.02,0.01c-1.41,0.75-2.56,1.87-3.21,3.14v0
				c-0.7,1.34,0.02,2.63,1.54,2.77l0,0c1.54,0.14,3.21-0.23,4.73-1.04l0,0C171.1,79.23,171.51,78.35,171.17,77.72z"/>
		</g>
	</g>
	<g>
		<circle class="st3" cx="67.48" cy="41.78" r="1.07"/>
		<circle class="st10" cx="67.48" cy="41.78" r="1.94"/>
		<circle class="st11" cx="67.48" cy="41.78" r="2.98"/>
	</g>
</g>
</svg>
