<?xml version="1.0" encoding="utf-8"?>
<!-- Generator: Adobe Illustrator 25.0.1, SVG Export Plug-In . SVG Version: 6.00 Build 0)  -->
<svg version="1.1" id="Layer_1" xmlns="http://www.w3.org/2000/svg" xmlns:xlink="http://www.w3.org/1999/xlink" x="0px" y="0px"
	 viewBox="0 0 252 144" style="enable-background:new 0 0 252 144;" xml:space="preserve">
<style type="text/css">
	.st0{fill:#2A2B2B;stroke:#2A2B2B;stroke-miterlimit:10;}
	.st1{fill:none;stroke:#FFFFFF;stroke-miterlimit:10;}
	.st2{fill:#E0F9D7;stroke:#E0F9D7;stroke-width:0.5;stroke-miterlimit:10;}
	.st3{fill:#8BFF31;stroke:#8BFF31;stroke-miterlimit:10;}
	.st4{fill:none;stroke:#E0F9D7;stroke-width:0.5;stroke-miterlimit:10;}
	.st5{opacity:0.7;fill:#8BFF31;stroke:#8BFF31;stroke-miterlimit:10;}
	.st6{opacity:0.74;fill:#70F987;stroke:#70F987;stroke-width:0.5;stroke-miterlimit:10;}
	.st7{opacity:0.23;fill:#8BFF31;stroke:#8BFF31;stroke-miterlimit:10;}
	.st8{opacity:0.13;fill:#8BFF31;stroke:#8BFF31;stroke-miterlimit:10;}
	.st9{opacity:0.55;fill:#8BFF31;stroke:#8BFF31;stroke-miterlimit:10;}
	.st10{opacity:0.22;fill:#8BFF31;stroke:#8BFF31;stroke-miterlimit:10;}
	.st11{opacity:0.12;fill:#8BFF31;stroke:#8BFF31;stroke-miterlimit:10;}
</style>
<rect x="0" y="-0.15" class="st0" width="252" height="144"/>
<path class="st1" d="M130.78,66.91"/>
<g>
	<g>
		<path class="st2" d="M24.78,31.94h15.71v1.76h-13.6v11.37h12.45v1.76H26.88v14.03h-2.1V31.94z"/>
		<path class="st2" d="M46.89,60.87v-20.6h2.1v20.6H46.89z"/>
		<path class="st2" d="M58.26,46.92c0-2.23-0.04-4.42-0.17-6.65h1.93l0.09,4.46h0.13c1.03-2.88,3.26-4.98,6.31-4.98
			c0.34,0,0.69,0.04,0.99,0.13v1.93c-0.39-0.09-0.73-0.09-1.2-0.09c-2.88,0-5.06,2.4-5.75,5.96c-0.13,0.6-0.21,1.33-0.21,2.02v11.16
			h-2.1V46.92z"/>
		<path class="st2" d="M73.5,50.57c0,6.01,3.82,9.01,8.71,9.01c3.56,0,5.28-0.69,6.61-1.29l0.56,1.67
			c-0.73,0.34-3.05,1.42-7.38,1.42c-6.39,0-10.56-4.33-10.56-10.3c0-7,4.46-11.33,10.3-11.33c7.64,0,8.97,6.78,8.97,9.53
			c0,0.64,0,0.94-0.09,1.29H73.5z M88.52,48.89c0.04-2.15-0.86-7.42-7.04-7.42c-5.24,0-7.42,4.29-7.85,7.42H88.52z"/>
		<path class="st2" d="M98.13,60.87V41.94H95v-1.67h3.13V39.5c0-3.43,0.99-6.01,2.96-7.81c1.46-1.29,3.48-2.06,6.35-2.06
			c2.19,0,4.12,0.47,5.45,1.16v30.08h-2.1v-28.8c-0.77-0.39-1.89-0.69-3.78-0.69c-5.19,0-6.78,3.69-6.78,7.77v1.12h6.05v1.67h-6.05
			v18.93H98.13z"/>
		<path class="st2" d="M121.05,40.27l6.14,13.77c0.6,1.33,1.29,3.05,1.67,4.34h0.08c0.47-1.29,1.03-2.83,1.72-4.51l5.75-13.6h2.27
			l-7.29,16.65c-2.83,6.52-4.68,9.74-7.42,11.72c-1.76,1.29-3.35,1.76-3.78,1.84l-0.56-1.76c1.03-0.3,2.49-0.9,3.78-2.02
			c1.07-0.9,2.66-2.62,3.95-5.54c0.17-0.39,0.26-0.64,0.26-0.82c0-0.17-0.09-0.47-0.3-0.94l-8.54-19.14H121.05z"/>
	</g>
	<g>
		<g>
			<path class="st3" d="M41.23,82.09c-0.76-1.05-1.73-1.9-2.92-2.55c-1.19-0.64-2.62-0.96-4.3-0.96c-0.86,0-1.73,0.13-2.62,0.4
				c-0.89,0.26-1.7,0.67-2.42,1.21c-0.73,0.54-1.31,1.23-1.76,2.05c-0.44,0.82-0.67,1.8-0.67,2.92c0,1.12,0.21,2.04,0.64,2.77
				c0.43,0.73,0.99,1.34,1.7,1.85c0.71,0.51,1.51,0.93,2.42,1.26c0.9,0.33,1.85,0.66,2.84,0.99c1.22,0.4,2.44,0.82,3.67,1.28
				c1.23,0.46,2.34,1.06,3.33,1.81c0.99,0.74,1.79,1.68,2.42,2.82c0.62,1.14,0.94,2.58,0.94,4.33c0,1.75-0.33,3.25-1,4.52
				c-0.67,1.27-1.53,2.32-2.6,3.14c-1.06,0.82-2.28,1.43-3.65,1.83c-1.37,0.4-2.74,0.59-4.13,0.59c-1.06,0-2.11-0.11-3.16-0.32
				c-1.06-0.22-2.06-0.54-3.02-0.96c-0.96-0.43-1.85-0.97-2.67-1.63c-0.82-0.66-1.55-1.42-2.18-2.27l3.07-2.27
				c0.76,1.25,1.82,2.3,3.19,3.14c1.37,0.84,2.97,1.26,4.82,1.26c0.89,0,1.8-0.14,2.72-0.42c0.92-0.28,1.76-0.71,2.5-1.29
				c0.74-0.58,1.35-1.29,1.83-2.13c0.48-0.84,0.72-1.82,0.72-2.94c0-1.22-0.24-2.23-0.72-3.04c-0.48-0.81-1.11-1.48-1.9-2.03
				c-0.79-0.54-1.7-1-2.72-1.36c-1.02-0.36-2.09-0.73-3.21-1.09c-1.15-0.36-2.29-0.77-3.41-1.24c-1.12-0.46-2.13-1.06-3.02-1.81
				c-0.89-0.74-1.61-1.66-2.15-2.74c-0.54-1.09-0.82-2.42-0.82-4.01c0-1.68,0.34-3.13,1.01-4.35c0.68-1.22,1.56-2.22,2.65-3.02
				c1.09-0.79,2.29-1.37,3.61-1.73c1.32-0.36,2.62-0.54,3.91-0.54c2.37,0,4.4,0.42,6.08,1.26c1.68,0.84,2.95,1.84,3.81,2.99
				L41.23,82.09z"/>
			<path class="st3" d="M69.51,91.14h-6.53v13.5c0,0.86,0.08,1.57,0.25,2.13c0.16,0.56,0.4,1,0.72,1.31
				c0.31,0.31,0.68,0.53,1.11,0.64c0.43,0.12,0.89,0.17,1.38,0.17c0.46,0,0.95-0.07,1.46-0.2s1-0.31,1.46-0.54l0.15,2.92
				c-0.59,0.23-1.21,0.4-1.85,0.52c-0.64,0.12-1.34,0.17-2.1,0.17c-0.63,0-1.29-0.08-1.98-0.25c-0.69-0.16-1.33-0.48-1.93-0.94
				c-0.59-0.46-1.08-1.09-1.46-1.88c-0.38-0.79-0.57-1.83-0.57-3.12V91.14h-4.8v-2.82h4.8v-6.53h3.36v6.53h6.53V91.14z"/>
			<path class="st3" d="M98.98,111.46c-0.07-0.63-0.12-1.32-0.15-2.08c-0.03-0.76-0.05-1.38-0.05-1.88h-0.1
				c-0.66,1.35-1.73,2.45-3.21,3.29c-1.48,0.84-3.05,1.26-4.7,1.26c-2.93,0-5.13-0.87-6.6-2.62c-1.47-1.75-2.2-4.05-2.2-6.92V88.32
				h3.36v12.8c0,1.22,0.1,2.32,0.3,3.31c0.2,0.99,0.54,1.84,1.01,2.55c0.48,0.71,1.12,1.26,1.93,1.66c0.81,0.4,1.82,0.59,3.04,0.59
				c0.89,0,1.75-0.18,2.6-0.54c0.84-0.36,1.59-0.92,2.25-1.66c0.66-0.74,1.19-1.68,1.58-2.82c0.4-1.14,0.59-2.48,0.59-4.03V88.32
				H102v18.05c0,0.63,0.02,1.43,0.05,2.42c0.03,0.99,0.08,1.88,0.15,2.67H98.98z"/>
			<path class="st3" d="M137.35,107.55c-0.99,1.48-2.27,2.6-3.86,3.36c-1.58,0.76-3.21,1.14-4.89,1.14c-1.81,0-3.45-0.31-4.92-0.94
				c-1.47-0.63-2.72-1.48-3.76-2.57c-1.04-1.09-1.85-2.37-2.42-3.86c-0.58-1.48-0.87-3.08-0.87-4.8c0-1.71,0.29-3.31,0.87-4.8
				c0.58-1.48,1.38-2.77,2.42-3.86c1.04-1.09,2.29-1.94,3.76-2.57c1.47-0.63,3.11-0.94,4.92-0.94c1.68,0,3.31,0.39,4.89,1.16
				c1.58,0.77,2.87,1.92,3.86,3.44h0.1V74.08h3.36v37.38h-3.36v-3.91H137.35z M120.19,99.89c0,1.28,0.2,2.5,0.59,3.63
				c0.4,1.14,0.96,2.13,1.71,2.97c0.74,0.84,1.66,1.5,2.74,1.98c1.09,0.48,2.32,0.72,3.71,0.72c1.29,0,2.47-0.24,3.56-0.72
				c1.09-0.48,2.03-1.13,2.82-1.95c0.79-0.82,1.41-1.8,1.85-2.94c0.44-1.14,0.67-2.36,0.67-3.68c0-1.32-0.22-2.55-0.67-3.68
				c-0.45-1.14-1.06-2.13-1.85-2.97s-1.73-1.5-2.82-1.98s-2.27-0.72-3.56-0.72c-1.38,0-2.62,0.25-3.71,0.74
				c-1.09,0.49-2,1.16-2.74,2c-0.74,0.84-1.31,1.83-1.71,2.97C120.39,97.39,120.19,98.6,120.19,99.89z"/>
			<path class="st3" d="M161.33,79.42c0,0.69-0.25,1.26-0.74,1.71c-0.49,0.45-1.04,0.67-1.63,0.67c-0.59,0-1.14-0.22-1.63-0.67
				c-0.49-0.44-0.74-1.01-0.74-1.71c0-0.69,0.25-1.26,0.74-1.71c0.49-0.44,1.04-0.67,1.63-0.67c0.59,0,1.14,0.22,1.63,0.67
				C161.08,78.16,161.33,78.73,161.33,79.42z M160.63,111.46h-3.36V88.32h3.36V111.46z"/>
			<path class="st3" d="M226.94,93.81c-0.49-0.96-1.24-1.74-2.25-2.35c-1.01-0.61-2.15-0.92-3.44-0.92c-0.59,0-1.19,0.07-1.78,0.2
				c-0.59,0.13-1.12,0.35-1.58,0.64c-0.46,0.3-0.83,0.68-1.11,1.14c-0.28,0.46-0.42,1.01-0.42,1.63c0,1.09,0.45,1.92,1.34,2.5
				c0.89,0.58,2.29,1.06,4.2,1.46c2.74,0.56,4.75,1.38,6.06,2.45c1.3,1.07,1.95,2.51,1.95,4.33c0,1.32-0.26,2.43-0.77,3.34
				c-0.51,0.91-1.18,1.65-2,2.22c-0.82,0.58-1.75,0.99-2.79,1.24c-1.04,0.25-2.09,0.37-3.14,0.37c-1.75,0-3.44-0.36-5.09-1.09
				c-1.65-0.72-3-1.86-4.05-3.41l2.67-1.98c0.59,1.02,1.47,1.88,2.62,2.57c1.15,0.69,2.42,1.04,3.81,1.04c0.73,0,1.42-0.06,2.08-0.2
				c0.66-0.13,1.24-0.36,1.73-0.69c0.49-0.33,0.89-0.75,1.19-1.26c0.3-0.51,0.45-1.14,0.45-1.9c0-1.22-0.59-2.13-1.76-2.74
				c-1.17-0.61-2.86-1.18-5.07-1.71c-0.69-0.16-1.43-0.37-2.2-0.62c-0.77-0.25-1.49-0.61-2.15-1.09c-0.66-0.48-1.2-1.08-1.63-1.8
				c-0.43-0.73-0.64-1.63-0.64-2.72c0-1.19,0.23-2.2,0.69-3.04c0.46-0.84,1.08-1.53,1.85-2.08c0.77-0.54,1.66-0.95,2.64-1.21
				c0.99-0.26,2.01-0.4,3.07-0.4c1.61,0,3.18,0.36,4.7,1.09c1.52,0.73,2.65,1.75,3.41,3.07L226.94,93.81z"/>
		</g>
		<g>
			<ellipse class="st2" cx="187.77" cy="84.14" rx="4.9" ry="10.32"/>
			<line class="st4" x1="189.42" y1="71.48" x2="190.93" y2="68.59"/>
			<line class="st4" x1="185.92" y1="71.6" x2="184.35" y2="68.59"/>
			<circle class="st2" cx="184.05" cy="68.01" r="0.66"/>
			<circle class="st2" cx="191.24" cy="68.01" r="0.66"/>
			<circle class="st2" cx="187.77" cy="74.57" r="3.5"/>
			<path class="st5" d="M189.51,80.38v-4.23c0-1.29,1.67-2.33,3.72-2.33h0.04c2.82,0,5.54,0.67,7.62,1.86h0
				c2.2,1.27,2.15,3.45-0.1,4.68v0c-2.28,1.25-5.2,1.93-8.23,1.93l0,0C190.88,82.3,189.51,81.44,189.51,80.38z"/>
			<path class="st6" d="M189.38,79.63l1.8-3.36c0.55-1.02,2.1-1.26,3.47-0.53l0.03,0.02c1.88,1,3.41,2.5,4.29,4.19v0
				c0.93,1.79-0.03,3.51-2.06,3.69v0c-2.05,0.18-4.29-0.31-6.3-1.39v0C189.48,81.64,188.93,80.47,189.38,79.63z"/>
			<path class="st5" d="M186.15,80.38v-4.23c0-1.29-1.67-2.33-3.72-2.33h-0.04c-2.82,0-5.54,0.67-7.62,1.86l0,0
				c-2.2,1.27-2.15,3.45,0.1,4.68l0,0c2.28,1.25,5.2,1.93,8.23,1.93h0C184.77,82.3,186.15,81.44,186.15,80.38z"/>
			<circle class="st7" cx="187.77" cy="99.93" r="12.47"/>
			<circle class="st8" cx="187.77" cy="99.93" r="16.37"/>
			<circle class="st9" cx="187.77" cy="99.82" r="9.36"/>
			<circle class="st3" cx="187.83" cy="99.82" r="6.75"/>
			<path class="st6" d="M186.25,79.63l-1.8-3.36c-0.55-1.02-2.1-1.26-3.47-0.53l-0.03,0.02c-1.88,1-3.41,2.5-4.29,4.19v0
				c-0.93,1.79,0.03,3.51,2.06,3.69v0c2.05,0.18,4.29-0.31,6.3-1.39l0,0C186.16,81.64,186.7,80.47,186.25,79.63z"/>
		</g>
	</g>
	<g>
		<circle class="st3" cx="47.94" cy="31.69" r="1.43"/>
		<circle class="st10" cx="47.94" cy="31.69" r="2.59"/>
		<circle class="st11" cx="47.94" cy="31.69" r="3.98"/>
	</g>
</g>
</svg>
