<?xml version="1.0" encoding="utf-8"?>
<!-- Generator: Adobe Illustrator 25.0.1, SVG Export Plug-In . SVG Version: 6.00 Build 0)  -->
<svg version="1.1" id="Layer_1" xmlns="http://www.w3.org/2000/svg" xmlns:xlink="http://www.w3.org/1999/xlink" x="0px" y="0px"
	 viewBox="0 0 252 144" style="enable-background:new 0 0 252 144;" xml:space="preserve">
<style type="text/css">
	.st0{fill:#F89839;}
	.st1{fill:none;stroke:#FFFFFF;stroke-width:0.25;stroke-linecap:round;stroke-miterlimit:10;}
	.st2{fill:#E8E1D4;}
	.st3{fill:none;stroke:#F7941D;stroke-width:0.5;stroke-miterlimit:10;}
	.st4{fill:#FFFFFF;}
	.st5{fill:#FFFFFF;stroke:#FFFFFF;stroke-miterlimit:10;}
	.st6{fill:none;stroke:#FFFFFF;stroke-width:6;stroke-miterlimit:10;}
	.st7{fill:#FBB040;}
	.st8{fill:#F89839;stroke:#F7941D;stroke-width:0.25;stroke-linecap:round;stroke-miterlimit:10;}
	.st9{fill:#F89839;stroke:#F7941D;stroke-width:0.25;stroke-miterlimit:10;}
	.st10{fill:none;stroke:#FED5AC;stroke-miterlimit:10;}
</style>
<g>
	<rect class="st0" width="252" height="144"/>
</g>
<path class="st1" d="M206.37,120.63"/>
<path class="st1" d="M45.2,119.34"/>
<path class="st2" d="M171.97,107.2"/>
<path class="st3" d="M171.68,54.03"/>
<path class="st3" d="M171.68,105.43"/>
<g>
	<g>
		<path class="st4" d="M73.8,49.31l2.52,0.94l-1.48,3.97l1.4,0.52l1.06-2.86l2.39,0.89l-1.06,2.86l3.82,1.42l-1.18,3.17l-10.12-3.77
			L73.8,49.31z"/>
		<path class="st4" d="M79.55,44.32c-0.01-0.58,0.12-1.11,0.39-1.57l3.13,1.81l-0.48,0.83c-0.32,0.55-0.46,1.02-0.42,1.39
			c0.04,0.37,0.31,0.7,0.8,0.99l3.05,1.77l-1.7,2.93l-7.44-4.32l1.7-2.93l1.37,0.8C79.69,45.46,79.56,44.9,79.55,44.32z"/>
		<path class="st4" d="M82.59,42.3c-0.3-0.67-0.41-1.32-0.32-1.96c0.09-0.64,0.35-1.21,0.79-1.72c0.37-0.42,0.77-0.71,1.21-0.87
			c0.44-0.16,0.88-0.19,1.32-0.09l-0.89-0.77l2.21-2.55l6.51,5.63l-2.21,2.55l-0.89-0.77c0.16,0.42,0.19,0.86,0.1,1.32
			c-0.09,0.46-0.32,0.9-0.69,1.32c-0.44,0.51-0.97,0.85-1.59,1.03c-0.62,0.18-1.28,0.17-1.99-0.03c-0.71-0.2-1.4-0.6-2.09-1.19
			C83.39,43.6,82.89,42.97,82.59,42.3z M86.91,39.27c-0.35,0.01-0.64,0.15-0.88,0.43c-0.24,0.28-0.34,0.59-0.3,0.93
			c0.04,0.34,0.23,0.66,0.58,0.96c0.35,0.3,0.69,0.44,1.04,0.43c0.35-0.01,0.64-0.15,0.88-0.43c0.24-0.28,0.34-0.59,0.3-0.93
			c-0.04-0.34-0.23-0.66-0.58-0.96C87.61,39.41,87.26,39.26,86.91,39.27z"/>
		<path class="st4" d="M96.33,28.17c0.84,0.21,1.59,0.76,2.26,1.68l2.95,4.03l-2.72,1.99l-2.69-3.68c-0.24-0.33-0.52-0.52-0.84-0.59
			c-0.32-0.06-0.62,0.01-0.92,0.23c-0.3,0.22-0.47,0.49-0.5,0.81c-0.03,0.32,0.07,0.64,0.31,0.97l2.69,3.68l-2.73,2l-5.08-6.95
			l2.73-2l0.77,1.06c-0.03-0.48,0.06-0.96,0.27-1.43c0.21-0.47,0.56-0.88,1.05-1.24C94.68,28.15,95.5,27.96,96.33,28.17z"/>
		<path class="st4" d="M107.41,31.24l-3.33-2.28l1.39,3.14l-3.1,1.37L97.8,23.15l3.1-1.37l2.39,5.4l0.66-3.81l3.6-1.6l-1.19,5.27
			l4.74,2.57L107.41,31.24z"/>
		<path class="st4" d="M118.79,24.43l-5.34,1.07c0.2,0.72,0.57,1.02,1.13,0.91c0.36-0.07,0.59-0.29,0.68-0.65l3.52-0.71
			c0,0.62-0.14,1.21-0.43,1.76c-0.29,0.55-0.7,1.02-1.23,1.41c-0.53,0.39-1.14,0.66-1.84,0.8c-0.84,0.17-1.62,0.14-2.34-0.08
			c-0.72-0.22-1.33-0.62-1.83-1.2c-0.5-0.58-0.83-1.31-1.01-2.19c-0.18-0.88-0.15-1.68,0.09-2.41c0.23-0.73,0.64-1.33,1.22-1.81
			c0.58-0.48,1.29-0.8,2.13-0.97c0.84-0.17,1.62-0.15,2.34,0.07c0.72,0.21,1.33,0.6,1.82,1.17c0.49,0.57,0.83,1.28,1,2.15
			C118.75,23.99,118.78,24.21,118.79,24.43z M115.18,23.64c-0.06-0.28-0.19-0.47-0.4-0.58c-0.21-0.11-0.45-0.14-0.72-0.08
			c-0.59,0.12-0.88,0.47-0.86,1.06L115.18,23.64z"/>
		<path class="st4" d="M128.58,20.46c0.54,0.67,0.8,1.57,0.78,2.7l-0.09,4.99l-3.37-0.06l0.08-4.56c0.01-0.41-0.1-0.73-0.31-0.97
			c-0.22-0.24-0.5-0.37-0.87-0.37c-0.38-0.01-0.67,0.11-0.89,0.34c-0.22,0.24-0.33,0.56-0.34,0.96l-0.08,4.56l-3.39-0.06l0.15-8.6
			l3.39,0.06l-0.02,1.31c0.27-0.4,0.63-0.73,1.08-0.97c0.45-0.25,0.98-0.36,1.59-0.35C127.28,19.45,128.04,19.79,128.58,20.46z"/>
		<path class="st4" d="M131.93,28.46c-0.55-0.4-0.95-0.87-1.2-1.4c-0.25-0.54-0.34-1.1-0.25-1.69l3.17,0.73
			c-0.02,0.26,0.05,0.47,0.19,0.62s0.35,0.27,0.62,0.33c0.17,0.04,0.31,0.03,0.43-0.02c0.12-0.05,0.19-0.13,0.21-0.24
			c0.04-0.19-0.03-0.35-0.22-0.47c-0.19-0.13-0.52-0.3-0.99-0.51c-0.58-0.26-1.04-0.5-1.41-0.73c-0.36-0.23-0.65-0.55-0.86-0.95
			c-0.21-0.4-0.25-0.9-0.12-1.5c0.12-0.51,0.36-0.95,0.73-1.31c0.37-0.36,0.85-0.6,1.44-0.72c0.59-0.12,1.27-0.09,2.03,0.09
			c1.13,0.26,1.95,0.74,2.46,1.45c0.51,0.7,0.73,1.51,0.65,2.44l-2.93-0.68c0-0.24-0.06-0.44-0.19-0.6
			c-0.13-0.16-0.33-0.27-0.6-0.33c-0.17-0.04-0.3-0.04-0.41,0.01c-0.1,0.04-0.17,0.13-0.2,0.26c-0.04,0.17,0.04,0.32,0.22,0.45
			c0.19,0.13,0.5,0.3,0.94,0.49c0.58,0.26,1.06,0.51,1.44,0.76c0.38,0.24,0.68,0.58,0.91,1.02c0.22,0.43,0.26,0.97,0.12,1.6
			c-0.12,0.5-0.36,0.91-0.74,1.24c-0.38,0.33-0.87,0.55-1.46,0.65c-0.59,0.1-1.25,0.07-1.97-0.1
			C133.15,29.15,132.48,28.86,131.93,28.46z"/>
		<path class="st4" d="M144.46,29.83l-1.1,2.66L142.17,32c-2.18-0.9-2.82-2.44-1.92-4.61l0.86-2.09l-0.99-0.41l1.08-2.61l0.99,0.41
			l0.79-1.92l3.13,1.3l-0.79,1.92l1.3,0.54l-1.08,2.61l-1.3-0.54l-0.89,2.14c-0.08,0.19-0.09,0.34-0.03,0.46
			c0.05,0.12,0.18,0.23,0.39,0.31L144.46,29.83z"/>
		<path class="st4" d="M153.16,34.1l-4.61-2.91c-0.35,0.66-0.29,1.13,0.19,1.44c0.31,0.2,0.62,0.19,0.94,0l3.03,1.92
			c-0.43,0.45-0.94,0.78-1.53,0.98c-0.59,0.2-1.21,0.26-1.86,0.18c-0.65-0.08-1.28-0.31-1.88-0.69c-0.72-0.46-1.27-1.01-1.64-1.67
			c-0.37-0.66-0.54-1.37-0.5-2.13c0.04-0.76,0.3-1.52,0.78-2.28c0.48-0.76,1.05-1.32,1.72-1.68c0.67-0.37,1.38-0.52,2.14-0.47
			c0.75,0.05,1.49,0.31,2.21,0.77c0.72,0.46,1.27,1.01,1.65,1.66c0.38,0.65,0.55,1.35,0.51,2.1s-0.29,1.5-0.76,2.25
			C153.43,33.75,153.3,33.93,153.16,34.1z M151.08,31.04c0.15-0.24,0.19-0.47,0.11-0.69c-0.08-0.22-0.23-0.41-0.46-0.55
			c-0.51-0.32-0.96-0.26-1.35,0.17L151.08,31.04z"/>
		<path class="st4" d="M159.85,33.57l-5.65,6.49l-2.55-2.23l5.65-6.49L159.85,33.57z M158.28,30.66c-0.06-0.47,0.06-0.89,0.38-1.25
			c0.32-0.37,0.72-0.56,1.2-0.56c0.48-0.01,0.94,0.18,1.39,0.57c0.44,0.38,0.68,0.81,0.74,1.29c0.06,0.48-0.07,0.9-0.39,1.26
			c-0.31,0.36-0.71,0.54-1.18,0.55c-0.48,0-0.93-0.19-1.37-0.57C158.59,31.56,158.34,31.13,158.28,30.66z"/>
		<path class="st4" d="M166.37,42.27c-0.16,0.85-0.68,1.63-1.55,2.35l-3.86,3.16l-2.14-2.61l3.53-2.89c0.31-0.26,0.5-0.55,0.54-0.87
			c0.05-0.32-0.05-0.62-0.28-0.91c-0.24-0.29-0.52-0.44-0.84-0.46c-0.32-0.01-0.64,0.11-0.95,0.37l-3.53,2.89l-2.15-2.62l6.66-5.46
			l2.15,2.62l-1.01,0.83c0.48-0.05,0.96,0.01,1.44,0.19c0.48,0.18,0.91,0.51,1.3,0.98C166.29,40.62,166.52,41.42,166.37,42.27z"/>
		<path class="st4" d="M171.21,44.24l1.64,2.93l-4.81,0.63l-1.09-1.94L171.21,44.24z"/>
		<path class="st4" d="M164.87,54.91c0.03-0.68,0.2-1.27,0.51-1.78c0.31-0.51,0.73-0.89,1.27-1.14l1.13,3.05
			c-0.22,0.13-0.36,0.3-0.41,0.5c-0.05,0.21-0.03,0.44,0.06,0.7c0.06,0.16,0.14,0.28,0.25,0.35c0.11,0.07,0.21,0.08,0.32,0.04
			c0.18-0.07,0.27-0.22,0.27-0.44c0-0.23-0.04-0.6-0.12-1.11c-0.1-0.62-0.16-1.15-0.16-1.58c-0.01-0.43,0.1-0.84,0.32-1.24
			c0.22-0.4,0.62-0.71,1.19-0.92c0.5-0.18,0.99-0.22,1.5-0.11c0.5,0.11,0.97,0.38,1.39,0.81c0.42,0.43,0.77,1.01,1.05,1.74
			c0.4,1.09,0.45,2.04,0.15,2.85c-0.31,0.82-0.86,1.44-1.68,1.89l-1.05-2.82c0.2-0.13,0.33-0.29,0.4-0.49
			c0.06-0.2,0.05-0.42-0.05-0.68c-0.06-0.16-0.14-0.27-0.23-0.34c-0.09-0.06-0.2-0.07-0.33-0.02c-0.16,0.06-0.25,0.21-0.25,0.43
			c-0.01,0.23,0.03,0.58,0.11,1.05c0.1,0.62,0.15,1.16,0.16,1.62c0.01,0.45-0.11,0.89-0.35,1.32c-0.24,0.43-0.66,0.75-1.27,0.98
			c-0.48,0.18-0.96,0.2-1.44,0.06c-0.48-0.13-0.93-0.42-1.34-0.86c-0.41-0.44-0.75-1.01-1.01-1.7
			C164.96,56.3,164.84,55.58,164.87,54.91z"/>
	</g>
	<g>
		<g>
			<path class="st4" d="M87.87,116.76c0.43-0.78,1.03-1.39,1.81-1.83c0.77-0.44,1.65-0.66,2.63-0.66c1.2,0,2.23,0.32,3.08,0.95
				c0.85,0.63,1.43,1.5,1.71,2.59h-2.71c-0.2-0.42-0.49-0.74-0.86-0.97c-0.37-0.22-0.79-0.33-1.26-0.33c-0.76,0-1.37,0.26-1.84,0.79
				c-0.47,0.53-0.71,1.24-0.71,2.12c0,0.88,0.24,1.59,0.71,2.12c0.47,0.53,1.09,0.79,1.84,0.79c0.47,0,0.89-0.11,1.26-0.33
				c0.37-0.22,0.66-0.54,0.86-0.97h2.71c-0.29,1.1-0.86,1.96-1.71,2.59c-0.86,0.63-1.88,0.94-3.08,0.94c-0.98,0-1.86-0.22-2.63-0.66
				c-0.77-0.44-1.38-1.04-1.81-1.82c-0.43-0.78-0.65-1.67-0.65-2.67S87.43,117.54,87.87,116.76z"/>
			<path class="st4" d="M102.16,116.76c0.43-0.25,0.91-0.38,1.44-0.38v2.61h-0.68c-0.62,0-1.08,0.13-1.38,0.4
				c-0.31,0.26-0.46,0.73-0.46,1.39v3.73h-2.46v-8.04h2.46v1.34C101.37,117.36,101.73,117.01,102.16,116.76z"/>
			<path class="st4" d="M104.76,118.29c0.31-0.62,0.74-1.11,1.28-1.44c0.54-0.34,1.14-0.5,1.8-0.5c0.57,0,1.06,0.12,1.49,0.35
				c0.43,0.23,0.76,0.53,0.99,0.91v-1.14h2.46v8.04h-2.46v-1.14c-0.24,0.37-0.57,0.68-1,0.91c-0.43,0.23-0.92,0.35-1.49,0.35
				c-0.65,0-1.25-0.17-1.79-0.51c-0.54-0.34-0.96-0.83-1.28-1.46c-0.31-0.63-0.47-1.36-0.47-2.18S104.45,118.92,104.76,118.29z
				 M109.81,119.03c-0.34-0.36-0.76-0.53-1.25-0.53c-0.49,0-0.91,0.18-1.25,0.53c-0.34,0.35-0.51,0.83-0.51,1.45
				c0,0.61,0.17,1.1,0.51,1.46c0.34,0.36,0.76,0.54,1.25,0.54c0.49,0,0.91-0.18,1.25-0.53c0.34-0.36,0.51-0.84,0.51-1.46
				C110.32,119.87,110.15,119.38,109.81,119.03z"/>
			<path class="st4" d="M118.6,118.51h-1.33v5.99h-2.46v-5.99h-0.89v-2.05h0.89v-0.23c0-0.99,0.28-1.74,0.85-2.26
				c0.57-0.51,1.4-0.77,2.49-0.77c0.18,0,0.32,0,0.4,0.01v2.09c-0.47-0.03-0.8,0.04-0.99,0.2c-0.19,0.16-0.29,0.46-0.29,0.88v0.07
				h1.33V118.51z"/>
			<path class="st4" d="M124.24,122.41v2.09h-1.25c-0.89,0-1.59-0.22-2.09-0.66c-0.5-0.44-0.75-1.15-0.75-2.14v-3.2h-0.98v-2.05
				h0.98v-1.96h2.46v1.96h1.61v2.05h-1.61v3.23c0,0.24,0.06,0.41,0.17,0.52c0.12,0.11,0.31,0.16,0.58,0.16H124.24z"/>
			<path class="st4" d="M136.2,120.19c0.36,0.46,0.53,0.98,0.53,1.56c0,0.85-0.3,1.52-0.89,2.01c-0.59,0.5-1.41,0.74-2.47,0.74
				h-4.71v-10.12h4.55c1.03,0,1.83,0.24,2.41,0.71c0.58,0.47,0.87,1.11,0.87,1.92c0,0.6-0.16,1.09-0.47,1.48s-0.73,0.67-1.25,0.82
				C135.37,119.44,135.84,119.73,136.2,120.19z M131.12,118.48h1.61c0.4,0,0.71-0.09,0.93-0.27c0.22-0.18,0.32-0.44,0.32-0.79
				c0-0.35-0.11-0.61-0.32-0.79c-0.22-0.18-0.53-0.27-0.93-0.27h-1.61V118.48z M133.9,122.23c0.23-0.19,0.34-0.46,0.34-0.81
				c0-0.36-0.12-0.63-0.35-0.84c-0.24-0.2-0.56-0.3-0.97-0.3h-1.79v2.23h1.82C133.35,122.51,133.67,122.42,133.9,122.23z"/>
			<path class="st4" d="M145.69,121.07h-5.58c0.04,0.5,0.2,0.88,0.48,1.15c0.28,0.26,0.63,0.4,1.04,0.4c0.61,0,1.04-0.26,1.28-0.78
				h2.62c-0.13,0.53-0.38,1-0.73,1.43c-0.35,0.42-0.79,0.75-1.32,0.99c-0.53,0.24-1.12,0.36-1.77,0.36c-0.79,0-1.49-0.17-2.1-0.5
				c-0.62-0.34-1.1-0.82-1.44-1.44c-0.35-0.62-0.52-1.35-0.52-2.19s0.17-1.57,0.51-2.19c0.34-0.62,0.82-1.11,1.43-1.44
				c0.62-0.34,1.32-0.5,2.12-0.5c0.78,0,1.47,0.16,2.08,0.49c0.61,0.33,1.08,0.79,1.42,1.4c0.34,0.61,0.51,1.31,0.51,2.12
				C145.74,120.58,145.72,120.82,145.69,121.07z M143.21,119.7c0-0.42-0.14-0.76-0.43-1.01c-0.29-0.25-0.65-0.37-1.08-0.37
				c-0.41,0-0.76,0.12-1.04,0.36c-0.28,0.24-0.46,0.58-0.53,1.02H143.21z"/>
			<path class="st4" d="M154.57,121.07h-5.58c0.04,0.5,0.2,0.88,0.48,1.15c0.28,0.26,0.63,0.4,1.04,0.4c0.61,0,1.04-0.26,1.28-0.78
				h2.62c-0.13,0.53-0.38,1-0.73,1.43c-0.35,0.42-0.79,0.75-1.32,0.99c-0.53,0.24-1.12,0.36-1.77,0.36c-0.79,0-1.49-0.17-2.1-0.5
				c-0.62-0.34-1.1-0.82-1.44-1.44c-0.35-0.62-0.52-1.35-0.52-2.19s0.17-1.57,0.51-2.19s0.82-1.11,1.43-1.44
				c0.62-0.34,1.32-0.5,2.12-0.5c0.78,0,1.47,0.16,2.08,0.49c0.61,0.33,1.08,0.79,1.42,1.4c0.34,0.61,0.51,1.31,0.51,2.12
				C154.61,120.58,154.6,120.82,154.57,121.07z M152.09,119.7c0-0.42-0.14-0.76-0.43-1.01c-0.29-0.25-0.65-0.37-1.08-0.37
				c-0.41,0-0.76,0.12-1.04,0.36c-0.28,0.24-0.46,0.58-0.53,1.02H152.09z"/>
			<path class="st4" d="M159.45,116.76c0.43-0.25,0.91-0.38,1.44-0.38v2.61h-0.68c-0.62,0-1.08,0.13-1.38,0.4
				c-0.31,0.26-0.46,0.73-0.46,1.39v3.73h-2.46v-8.04h2.46v1.34C158.66,117.36,159.02,117.01,159.45,116.76z"/>
		</g>
	</g>
	<g>
		<g>
			<path class="st5" d="M136.35,104.17H111.4c-4.1,0-7.43-3.33-7.43-7.43V57.47c0-4.1,3.33-7.43,7.43-7.43h24.95
				c4.1,0,7.43,3.33,7.43,7.43v39.27C143.79,100.84,140.46,104.17,136.35,104.17z"/>
			<path class="st5" d="M142.55,106.51h-37.3c-2.01,0-3.64-1.63-3.64-3.64v-0.13c0-2.01,1.63-3.64,3.64-3.64h37.3
				c2.01,0,3.64,1.63,3.64,3.64v0.13C146.19,104.88,144.56,106.51,142.55,106.51z"/>
			<path class="st6" d="M143.79,65.93c0,0,10.72-0.92,10.82,5.94c0.12,8.04,1.1,12.7-1.76,14.89c-2.83,2.17-9.07,1.71-9.07,1.71"/>
			<path class="st7" d="M133.12,99.1h-18.48c-3.92,0-7.11-3.18-7.11-7.11V58c0-3.92,3.18-7.11,7.11-7.11h18.48
				c3.92,0,7.11,3.18,7.11,7.11v34C140.22,95.92,137.04,99.1,133.12,99.1z"/>
			<g>
				<path class="st4" d="M150.89,48.31c0.1-0.37,0.17-0.75,0.17-1.15c0-2.17-1.57-3.97-3.63-4.34c-0.53-2.06-2.39-3.58-4.61-3.58
					c-1.64,0-3.08,0.83-3.94,2.08c-0.96-0.48-2.05-0.76-3.2-0.76c-1,0-1.95,0.21-2.81,0.58c-0.57-1.2-1.79-2.04-3.21-2.04
					c-1.97,0-3.57,1.6-3.57,3.57c0,0.01,0,0.02,0,0.04c-0.2-0.02-0.41-0.04-0.62-0.04c-0.22,0-0.43,0.02-0.64,0.04
					c-0.28-0.74-1-1.27-1.84-1.27c-0.55,0-1.05,0.23-1.41,0.59c-1.31-1.78-3.42-2.95-5.81-2.95c-0.92,0-1.8,0.18-2.61,0.5
					c-0.51-0.98-1.52-1.66-2.7-1.66c-1.35,0-2.48,0.88-2.88,2.1c-0.63-0.62-1.47-1.03-2.42-1.09c-2.1-0.13-3.91,1.47-4.04,3.57
					c-0.02,0.31,0.01,0.62,0.06,0.91c-1.62,1.22-2.67,3.15-2.67,5.33c0,0.97,0.21,1.89,0.58,2.72c-1,0.79-1.66,2-1.66,3.38
					c0,2.39,1.93,4.32,4.32,4.32c2.21,0,4.01-1.67,4.27-3.81c0.75-0.09,1.45-0.31,2.1-0.63c0.97,1.67,2.77,2.79,4.84,2.79
					c0.41,0,0.81-0.05,1.19-0.13c0,0.04-0.01,0.08-0.01,0.13c0,1.78,1.44,3.22,3.22,3.22s3.22-1.44,3.22-3.22
					c0-1.56-1.11-2.86-2.58-3.16c0.21-0.43,0.37-0.89,0.46-1.37c0.98-0.4,1.85-1,2.56-1.76c0.98,1.39,2.6,2.29,4.42,2.29
					c0.24,0,0.48-0.02,0.72-0.05c-0.06,0.27-0.11,0.54-0.11,0.83c0,1.97,1.6,3.57,3.57,3.57c1.93,0,3.5-1.54,3.56-3.46
					c0.77,0.28,1.6,0.45,2.46,0.45c1.38,0,2.66-0.4,3.75-1.07c0.62,2.16,2.61,3.74,4.97,3.74c2.6,0,4.74-1.91,5.11-4.41
					c0.02,0,0.04,0.01,0.06,0.01c1.43,0,2.59-1.16,2.59-2.59C152.15,49.58,151.64,48.76,150.89,48.31z"/>
				<path class="st4" d="M137.64,55.74c-1.13,0-2.04,0.92-2.04,2.04c0,1.13,0.92,2.04,2.04,2.04s2.04-0.92,2.04-2.04
					C139.68,56.66,138.77,55.74,137.64,55.74z"/>
				<path class="st4" d="M120.03,62.56c-1.13,0-2.04,0.92-2.04,2.04c0,1.13,0.92,2.04,2.04,2.04c1.13,0,2.04-0.92,2.04-2.04
					C122.08,63.47,121.16,62.56,120.03,62.56z"/>
				<path class="st4" d="M98.57,60.17c-1.13,0-2.04,0.92-2.04,2.04s0.92,2.04,2.04,2.04s2.04-0.92,2.04-2.04S99.7,60.17,98.57,60.17
					z"/>
			</g>
		</g>
		<g>
			<path class="st8" d="M109.16,72.55c0,0,3.3,2.46,1.66,7.41C110.82,79.96,107.11,77.12,109.16,72.55z"/>
			<line class="st8" x1="110.81" y1="79.96" x2="118.51" y2="105.08"/>
			<g>
				<path class="st8" d="M104.43,78.55c0,0,1.48,3.84,6.7,3.59C111.13,82.14,109.38,77.8,104.43,78.55z"/>
				<path class="st8" d="M104.55,83.27c0,0,2.37,3.37,7.37,1.85C111.92,85.12,109.17,81.33,104.55,83.27z"/>
				<path class="st8" d="M105.2,87.83c0,0,3.11,2.7,7.6,0.03C112.8,87.86,109.23,84.84,105.2,87.83z"/>
				<path class="st8" d="M106.11,91.73c0,0,3.31,2.44,7.58-0.57C113.69,91.16,109.89,88.44,106.11,91.73z"/>
				<path class="st8" d="M107.24,95.83c0,0,3.67,1.86,7.38-1.82C114.62,94.01,110.41,91.95,107.24,95.83z"/>
			</g>
			<g>
				<path class="st8" d="M115.26,75.25c0,0,0.94,4.01-3.5,6.73C111.76,81.98,110.76,77.41,115.26,75.25z"/>
				<path class="st8" d="M117.81,79.22c0,0-0.06,4.11-5.03,5.67C112.78,84.89,112.92,80.22,117.81,79.22z"/>
				<path class="st8" d="M119.84,83.36c0,0-1.04,3.98-6.25,4.29C113.6,87.65,114.85,83.15,119.84,83.36z"/>
				<path class="st8" d="M121.28,87.1c0,0-1.36,3.88-6.57,3.78C114.72,90.88,116.32,86.49,121.28,87.1z"/>
				<path class="st8" d="M122.66,91.11c0,0-1.98,3.6-7.1,2.64C115.56,93.75,117.87,89.69,122.66,91.11z"/>
			</g>
		</g>
	</g>
	<g>
		<path class="st9" d="M138.56,73.12c0,0-3.23,2.4-1.63,7.26C136.94,80.37,140.57,77.59,138.56,73.12z"/>
		<line class="st8" x1="136.95" y1="80.38" x2="129.41" y2="104.96"/>
		<g>
			<path class="st9" d="M143.19,78.99c0,0-1.45,3.76-6.55,3.51C136.64,82.5,138.35,78.26,143.19,78.99z"/>
			<path class="st9" d="M143.07,83.61c0,0-2.32,3.29-7.21,1.81C135.86,85.42,138.55,81.72,143.07,83.61z"/>
			<path class="st9" d="M142.44,88.07c0,0-3.04,2.64-7.44,0.03C135,88.1,138.5,85.15,142.44,88.07z"/>
			<path class="st9" d="M141.54,91.89c0,0-3.24,2.39-7.41-0.56C134.13,91.33,137.85,88.67,141.54,91.89z"/>
			<path class="st9" d="M140.45,95.9c0,0-3.59,1.82-7.22-1.78C133.23,94.12,137.34,92.11,140.45,95.9z"/>
		</g>
		<g>
			<path class="st9" d="M132.6,75.76c0,0-0.92,3.92,3.43,6.58C136.02,82.34,137,77.88,132.6,75.76z"/>
			<path class="st9" d="M130.1,79.65c0,0,0.06,4.03,4.93,5.54C135.02,85.2,134.89,80.62,130.1,79.65z"/>
			<path class="st9" d="M128.11,83.7c0,0,1.02,3.89,6.11,4.2C134.22,87.9,133,83.49,128.11,83.7z"/>
			<path class="st9" d="M126.7,87.36c0,0,1.33,3.8,6.43,3.7C133.13,91.05,131.56,86.76,126.7,87.36z"/>
			<path class="st9" d="M125.35,91.29c0,0,1.94,3.52,6.95,2.58C132.3,93.87,130.05,89.9,125.35,91.29z"/>
		</g>
	</g>
</g>
<g>
	<g>
		<path class="st10" d="M107.59,80.19"/>
	</g>
</g>
</svg>
