<?xml version="1.0" encoding="utf-8"?>
<!-- Generator: Adobe Illustrator 25.0.1, SVG Export Plug-In . SVG Version: 6.00 Build 0)  -->
<svg version="1.1" id="Layer_1" xmlns="http://www.w3.org/2000/svg" xmlns:xlink="http://www.w3.org/1999/xlink" x="0px" y="0px"
	 viewBox="0 0 252 144" style="enable-background:new 0 0 252 144;" xml:space="preserve">
<style type="text/css">
	.st0{fill:#2A2B2B;stroke:#2A2B2B;stroke-miterlimit:10;}
	.st1{fill:none;stroke:#FFFFFF;stroke-miterlimit:10;}
	.st2{fill:#E0F9D7;stroke:#E0F9D7;stroke-width:0.5;stroke-miterlimit:10;}
	.st3{fill:#8BFF31;stroke:#8BFF31;stroke-miterlimit:10;}
	.st4{fill:none;stroke:#E0F9D7;stroke-width:0.5;stroke-miterlimit:10;}
	.st5{opacity:0.7;fill:#8BFF31;stroke:#8BFF31;stroke-miterlimit:10;enable-background:new    ;}
	.st6{opacity:0.74;fill:#70F987;stroke:#70F987;stroke-width:0.5;stroke-miterlimit:10;enable-background:new    ;}
	.st7{opacity:0.23;fill:#8BFF31;stroke:#8BFF31;stroke-miterlimit:10;enable-background:new    ;}
	.st8{opacity:0.13;fill:#8BFF31;stroke:#8BFF31;stroke-miterlimit:10;enable-background:new    ;}
	.st9{opacity:0.55;fill:#8BFF31;stroke:#8BFF31;stroke-miterlimit:10;enable-background:new    ;}
	.st10{opacity:0.22;fill:#8BFF31;stroke:#8BFF31;stroke-miterlimit:10;enable-background:new    ;}
	.st11{opacity:0.12;fill:#8BFF31;stroke:#8BFF31;stroke-miterlimit:10;enable-background:new    ;}
</style>
<rect y="-0.2" class="st0" width="252" height="144"/>
<path class="st1" d="M130.8,66.9"/>
<g>
	<g>
		<path class="st2" d="M49,41.5H61v1.3H50.6v8.7h9.5v1.3h-9.5v10.7H49L49,41.5L49,41.5z"/>
		<path class="st2" d="M65.9,63.5V47.9h1.6v15.7C67.5,63.5,65.9,63.5,65.9,63.5z"/>
		<path class="st2" d="M74.5,52.9c0-1.7,0-3.4-0.1-5.1h1.5l0.1,3.4H76c0.8-2.2,2.5-3.8,4.8-3.8c0.3,0,0.5,0,0.8,0.1v1.5
			C81.3,49,81,49,80.6,49c-2.2,0-3.9,1.8-4.4,4.5c-0.1,0.5-0.2,1-0.2,1.5v8.5h-1.6C74.5,63.5,74.5,52.9,74.5,52.9z"/>
		<path class="st2" d="M86.1,55.7c0,4.6,2.9,6.9,6.6,6.9c2.7,0,4-0.5,5-1l0.4,1.3c-0.6,0.3-2.3,1.1-5.6,1.1c-4.9,0-8-3.3-8-7.8
			c0-5.3,3.4-8.6,7.8-8.6c5.8,0,6.8,5.2,6.8,7.2c0,0.5,0,0.7-0.1,1H86.1z M97.5,54.4c0-1.6-0.6-5.6-5.4-5.6c-4,0-5.6,3.3-6,5.6H97.5
			z"/>
		<path class="st2" d="M104.8,63.5V49.1h-2.4v-1.3h2.4v-0.6c0-2.6,0.8-4.6,2.3-5.9c1.1-1,2.6-1.6,4.8-1.6c1.7,0,3.1,0.4,4.1,0.9
			v22.9h-1.6V41.6c-0.6-0.3-1.4-0.5-2.9-0.5c-3.9,0-5.2,2.8-5.2,5.9v0.9h4.6v1.3h-4.6v14.4L104.8,63.5L104.8,63.5z"/>
		<path class="st2" d="M122.2,47.9l4.7,10.5c0.5,1,1,2.3,1.3,3.3h0.1c0.4-1,0.8-2.1,1.3-3.4l4.4-10.3h1.7l-5.5,12.7
			c-2.1,5-3.6,7.4-5.6,8.9c-1.3,1-2.5,1.3-2.9,1.4l-0.4-1.3c0.8-0.2,1.9-0.7,2.9-1.5c0.8-0.7,2-2,3-4.2c0.1-0.3,0.2-0.5,0.2-0.6
			s-0.1-0.4-0.2-0.7l-6.5-14.6L122.2,47.9L122.2,47.9z"/>
	</g>
	<g>
		<g>
			<path class="st3" d="M61.6,79.7c-0.6-0.8-1.3-1.5-2.2-1.9c-0.9-0.5-2-0.7-3.3-0.7c-0.6,0-1.3,0.1-2,0.3c-0.7,0.2-1.3,0.5-1.8,0.9
				c-0.5,0.4-1,0.9-1.3,1.6c-0.3,0.6-0.5,1.4-0.5,2.2c0,0.9,0.2,1.6,0.5,2.1c0.3,0.5,0.8,1,1.3,1.4s1.1,0.7,1.8,1
				c0.7,0.3,1.4,0.5,2.2,0.8c0.9,0.3,1.9,0.6,2.8,1c0.9,0.4,1.8,0.8,2.5,1.4c0.8,0.6,1.4,1.3,1.8,2.1s0.7,2,0.7,3.3
				s-0.3,2.5-0.8,3.4c-0.5,1-1.2,1.8-2,2.4c-0.8,0.6-1.7,1.1-2.8,1.4c-1,0.3-2.1,0.5-3.1,0.5c-0.8,0-1.6-0.1-2.4-0.2
				c-0.8-0.2-1.6-0.4-2.3-0.7c-0.7-0.3-1.4-0.7-2-1.2c-0.6-0.5-1.2-1.1-1.7-1.7l2.3-1.7c0.6,1,1.4,1.7,2.4,2.4c1,0.6,2.3,1,3.7,1
				c0.7,0,1.4-0.1,2.1-0.3c0.7-0.2,1.3-0.5,1.9-1c0.6-0.4,1-1,1.4-1.6c0.4-0.6,0.5-1.4,0.5-2.2c0-0.9-0.2-1.7-0.5-2.3
				c-0.4-0.6-0.8-1.1-1.5-1.5c-0.6-0.4-1.3-0.8-2.1-1c-0.8-0.3-1.6-0.5-2.4-0.8c-0.9-0.3-1.7-0.6-2.6-0.9c-0.9-0.4-1.6-0.8-2.3-1.4
				c-0.7-0.6-1.2-1.3-1.6-2.1c-0.4-0.8-0.6-1.8-0.6-3c0-1.3,0.3-2.4,0.8-3.3c0.5-0.9,1.2-1.7,2-2.3c0.8-0.6,1.7-1,2.7-1.3
				c1-0.3,2-0.4,3-0.4c1.8,0,3.3,0.3,4.6,1s2.2,1.4,2.9,2.3L61.6,79.7z"/>
			<path class="st3" d="M83.1,86.5h-5v10.3c0,0.6,0.1,1.2,0.2,1.6c0.1,0.4,0.3,0.8,0.5,1c0.2,0.2,0.5,0.4,0.8,0.5s0.7,0.1,1.1,0.1
				c0.4,0,0.7-0.1,1.1-0.2c0.4-0.1,0.8-0.2,1.1-0.4l0.1,2.2c-0.4,0.2-0.9,0.3-1.4,0.4c-0.5,0.1-1,0.1-1.6,0.1c-0.5,0-1-0.1-1.5-0.2
				c-0.5-0.1-1-0.4-1.5-0.7c-0.4-0.4-0.8-0.8-1.1-1.4c-0.3-0.6-0.4-1.4-0.4-2.4v-11h-3.7v-2.1h3.7v-5h2.6v5h5V86.5z"/>
			<path class="st3" d="M105.5,102c-0.1-0.5-0.1-1-0.1-1.6c0-0.6,0-1.1,0-1.4h-0.1c-0.5,1-1.3,1.9-2.4,2.5c-1.1,0.6-2.3,1-3.6,1
				c-2.2,0-3.9-0.7-5-2c-1.1-1.3-1.7-3.1-1.7-5.3V84.4h2.6v9.7c0,0.9,0.1,1.8,0.2,2.5c0.2,0.8,0.4,1.4,0.8,1.9
				c0.4,0.5,0.9,1,1.5,1.3c0.6,0.3,1.4,0.4,2.3,0.4c0.7,0,1.3-0.1,2-0.4c0.6-0.3,1.2-0.7,1.7-1.3c0.5-0.6,0.9-1.3,1.2-2.1
				c0.3-0.9,0.5-1.9,0.5-3.1v-9h2.5v13.7c0,0.5,0,1.1,0,1.8c0,0.8,0.1,1.4,0.1,2L105.5,102L105.5,102z"/>
			<path class="st3" d="M134.6,99c-0.8,1.1-1.7,2-2.9,2.6c-1.2,0.6-2.4,0.9-3.7,0.9c-1.4,0-2.6-0.2-3.7-0.7c-1.1-0.5-2.1-1.1-2.9-2
				c-0.8-0.8-1.4-1.8-1.8-2.9c-0.4-1.1-0.7-2.3-0.7-3.7c0-1.3,0.2-2.5,0.7-3.7c0.4-1.1,1.1-2.1,1.8-2.9c0.8-0.8,1.7-1.5,2.9-2
				s2.4-0.7,3.7-0.7c1.3,0,2.5,0.3,3.7,0.9c1.2,0.6,2.2,1.5,2.9,2.6h0.1V73.6h2.6V102h-2.6L134.6,99L134.6,99z M121.6,93.2
				c0,1,0.2,1.9,0.5,2.8c0.3,0.9,0.7,1.6,1.3,2.3c0.6,0.6,1.3,1.1,2.1,1.5c0.8,0.4,1.8,0.5,2.8,0.5c1,0,1.9-0.2,2.7-0.5
				c0.8-0.4,1.5-0.9,2.1-1.5c0.6-0.6,1.1-1.4,1.4-2.2c0.3-0.9,0.5-1.8,0.5-2.8c0-1-0.2-1.9-0.5-2.8c-0.3-0.9-0.8-1.6-1.4-2.3
				c-0.6-0.6-1.3-1.1-2.1-1.5c-0.8-0.4-1.7-0.5-2.7-0.5c-1.1,0-2,0.2-2.8,0.6c-0.8,0.4-1.5,0.9-2.1,1.5c-0.6,0.6-1,1.4-1.3,2.3
				C121.7,91.3,121.6,92.2,121.6,93.2z"/>
			<path class="st3" d="M152.9,77.6c0,0.5-0.2,1-0.6,1.3c-0.4,0.3-0.8,0.5-1.2,0.5c-0.4,0-0.9-0.2-1.2-0.5c-0.4-0.3-0.6-0.8-0.6-1.3
				c0-0.5,0.2-1,0.6-1.3c0.4-0.3,0.8-0.5,1.2-0.5c0.4,0,0.9,0.2,1.2,0.5C152.7,76.7,152.9,77.1,152.9,77.6z M152.3,102h-2.6V84.4
				h2.6V102z"/>
			<path class="st3" d="M202.7,88.6c-0.4-0.7-0.9-1.3-1.7-1.8c-0.8-0.5-1.6-0.7-2.6-0.7c-0.5,0-0.9,0.1-1.3,0.2
				c-0.5,0.1-0.9,0.3-1.2,0.5c-0.4,0.2-0.6,0.5-0.8,0.9c-0.2,0.4-0.3,0.8-0.3,1.2c0,0.8,0.3,1.5,1,1.9c0.7,0.4,1.7,0.8,3.2,1.1
				c2.1,0.4,3.6,1,4.6,1.9s1.5,1.9,1.5,3.3c0,1-0.2,1.8-0.6,2.5c-0.4,0.7-0.9,1.3-1.5,1.7s-1.3,0.8-2.1,0.9
				c-0.8,0.2-1.6,0.3-2.4,0.3c-1.3,0-2.6-0.3-3.9-0.8c-1.3-0.5-2.3-1.4-3.1-2.6l2-1.5c0.5,0.8,1.1,1.4,2,2c0.9,0.5,1.8,0.8,2.9,0.8
				c0.5,0,1.1-0.1,1.6-0.2c0.5-0.1,0.9-0.3,1.3-0.5c0.4-0.3,0.7-0.6,0.9-1c0.2-0.4,0.3-0.9,0.3-1.5c0-0.9-0.4-1.6-1.3-2.1
				c-0.9-0.5-2.2-0.9-3.9-1.3c-0.5-0.1-1.1-0.3-1.7-0.5c-0.6-0.2-1.1-0.5-1.6-0.8s-0.9-0.8-1.2-1.4c-0.3-0.5-0.5-1.2-0.5-2.1
				c0-0.9,0.2-1.7,0.5-2.3s0.8-1.2,1.4-1.6c0.6-0.4,1.3-0.7,2-0.9s1.5-0.3,2.3-0.3c1.2,0,2.4,0.3,3.6,0.8c1.2,0.5,2,1.3,2.6,2.3
				L202.7,88.6z"/>
		</g>
		<g>
			<ellipse class="st2" cx="173" cy="81.2" rx="3.7" ry="7.8"/>
			<line class="st4" x1="174.2" y1="71.6" x2="175.4" y2="69.4"/>
			<line class="st4" x1="171.6" y1="71.7" x2="170.4" y2="69.4"/>
			<circle class="st2" cx="170.1" cy="69" r="0.5"/>
			<circle class="st2" cx="175.6" cy="69" r="0.5"/>
			<circle class="st2" cx="173" cy="73.9" r="2.7"/>
			<path class="st5" d="M174.3,78.4v-3.2c0-1,1.3-1.8,2.8-1.8h0c2.1,0,4.2,0.5,5.8,1.4l0,0c1.7,1,1.6,2.6-0.1,3.6l0,0
				c-1.7,0.9-4,1.5-6.3,1.5l0,0C175.3,79.8,174.3,79.2,174.3,78.4z"/>
			<path class="st6" d="M174.2,77.8l1.4-2.6c0.4-0.8,1.6-1,2.6-0.4l0,0c1.4,0.8,2.6,1.9,3.3,3.2l0,0c0.7,1.4,0,2.7-1.6,2.8l0,0
				c-1.6,0.1-3.3-0.2-4.8-1.1l0,0C174.3,79.3,173.8,78.4,174.2,77.8z"/>
			<path class="st5" d="M171.7,78.4v-3.2c0-1-1.3-1.8-2.8-1.8h0c-2.1,0-4.2,0.5-5.8,1.4l0,0c-1.7,1-1.6,2.6,0.1,3.6l0,0
				c1.7,0.9,4,1.5,6.3,1.5l0,0C170.7,79.8,171.7,79.2,171.7,78.4z"/>
			<circle class="st7" cx="173" cy="93.2" r="9.5"/>
			<circle class="st8" cx="173" cy="93.2" r="12.4"/>
			<circle class="st9" cx="173" cy="93.1" r="7.1"/>
			<circle class="st3" cx="173" cy="93.1" r="5.1"/>
			<path class="st6" d="M171.8,77.8l-1.4-2.6c-0.4-0.8-1.6-1-2.6-0.4l0,0c-1.4,0.8-2.6,1.9-3.3,3.2l0,0c-0.7,1.4,0,2.7,1.6,2.8l0,0
				c1.6,0.1,3.3-0.2,4.8-1.1l0,0C171.7,79.3,172.2,78.4,171.8,77.8z"/>
		</g>
	</g>
	<g>
		<circle class="st3" cx="66.7" cy="41.3" r="1.1"/>
		<circle class="st10" cx="66.7" cy="41.3" r="2"/>
		<circle class="st11" cx="66.7" cy="41.3" r="3"/>
	</g>
</g>
</svg>
